%TF.GenerationSoftware,KiCad,Pcbnew,8.0.3*%
%TF.CreationDate,2024-06-12T06:30:55+01:00*%
%TF.ProjectId,VISIR_Lei_Ohm,56495349-525f-44c6-9569-5f4f686d2e6b,rev?*%
%TF.SameCoordinates,Original*%
%TF.FileFunction,Drillmap*%
%TF.FilePolarity,Positive*%
%FSLAX45Y45*%
G04 Gerber Fmt 4.5, Leading zero omitted, Abs format (unit mm)*
G04 Created by KiCad (PCBNEW 8.0.3) date 2024-06-12 06:30:55*
%MOMM*%
%LPD*%
G01*
G04 APERTURE LIST*
%ADD10C,0.050000*%
%ADD11C,0.200000*%
%ADD12C,0.100000*%
G04 APERTURE END LIST*
D10*
X12061000Y-3025000D02*
X21659000Y-3025000D01*
X21659000Y-12080000D01*
X12061000Y-12080000D01*
X12061000Y-3025000D01*
D11*
D12*
X14338800Y-5543640D02*
X14368800Y-5573640D01*
X14368800Y-5543640D02*
X14338800Y-5573640D01*
X17777890Y-4867630D02*
X17807890Y-4897630D01*
X17807890Y-4867630D02*
X17777890Y-4897630D01*
X17777890Y-5982450D02*
X17807890Y-6012450D01*
X17807890Y-5982450D02*
X17777890Y-6012450D01*
X12906100Y-4662000D02*
G75*
G02*
X12829900Y-4662000I-38100J0D01*
G01*
X12829900Y-4662000D02*
G75*
G02*
X12906100Y-4662000I38100J0D01*
G01*
X12906100Y-5170000D02*
G75*
G02*
X12829900Y-5170000I-38100J0D01*
G01*
X12829900Y-5170000D02*
G75*
G02*
X12906100Y-5170000I38100J0D01*
G01*
X12906100Y-5678000D02*
G75*
G02*
X12829900Y-5678000I-38100J0D01*
G01*
X12829900Y-5678000D02*
G75*
G02*
X12906100Y-5678000I38100J0D01*
G01*
X12906100Y-6186000D02*
G75*
G02*
X12829900Y-6186000I-38100J0D01*
G01*
X12829900Y-6186000D02*
G75*
G02*
X12906100Y-6186000I38100J0D01*
G01*
X13795100Y-4666000D02*
G75*
G02*
X13718900Y-4666000I-38100J0D01*
G01*
X13718900Y-4666000D02*
G75*
G02*
X13795100Y-4666000I38100J0D01*
G01*
X13795100Y-5174000D02*
G75*
G02*
X13718900Y-5174000I-38100J0D01*
G01*
X13718900Y-5174000D02*
G75*
G02*
X13795100Y-5174000I38100J0D01*
G01*
X13795100Y-5682000D02*
G75*
G02*
X13718900Y-5682000I-38100J0D01*
G01*
X13718900Y-5682000D02*
G75*
G02*
X13795100Y-5682000I38100J0D01*
G01*
X13795100Y-6190000D02*
G75*
G02*
X13718900Y-6190000I-38100J0D01*
G01*
X13718900Y-6190000D02*
G75*
G02*
X13795100Y-6190000I38100J0D01*
G01*
X14705100Y-4661000D02*
G75*
G02*
X14628900Y-4661000I-38100J0D01*
G01*
X14628900Y-4661000D02*
G75*
G02*
X14705100Y-4661000I38100J0D01*
G01*
X14705100Y-5169000D02*
G75*
G02*
X14628900Y-5169000I-38100J0D01*
G01*
X14628900Y-5169000D02*
G75*
G02*
X14705100Y-5169000I38100J0D01*
G01*
X14705100Y-5677000D02*
G75*
G02*
X14628900Y-5677000I-38100J0D01*
G01*
X14628900Y-5677000D02*
G75*
G02*
X14705100Y-5677000I38100J0D01*
G01*
X14705100Y-6185000D02*
G75*
G02*
X14628900Y-6185000I-38100J0D01*
G01*
X14628900Y-6185000D02*
G75*
G02*
X14705100Y-6185000I38100J0D01*
G01*
X15715100Y-4666000D02*
G75*
G02*
X15638900Y-4666000I-38100J0D01*
G01*
X15638900Y-4666000D02*
G75*
G02*
X15715100Y-4666000I38100J0D01*
G01*
X15715100Y-5174000D02*
G75*
G02*
X15638900Y-5174000I-38100J0D01*
G01*
X15638900Y-5174000D02*
G75*
G02*
X15715100Y-5174000I38100J0D01*
G01*
X15715100Y-5682000D02*
G75*
G02*
X15638900Y-5682000I-38100J0D01*
G01*
X15638900Y-5682000D02*
G75*
G02*
X15715100Y-5682000I38100J0D01*
G01*
X15715100Y-6190000D02*
G75*
G02*
X15638900Y-6190000I-38100J0D01*
G01*
X15638900Y-6190000D02*
G75*
G02*
X15715100Y-6190000I38100J0D01*
G01*
X16714100Y-4666000D02*
G75*
G02*
X16637900Y-4666000I-38100J0D01*
G01*
X16637900Y-4666000D02*
G75*
G02*
X16714100Y-4666000I38100J0D01*
G01*
X16714100Y-5174000D02*
G75*
G02*
X16637900Y-5174000I-38100J0D01*
G01*
X16637900Y-5174000D02*
G75*
G02*
X16714100Y-5174000I38100J0D01*
G01*
X16714100Y-5682000D02*
G75*
G02*
X16637900Y-5682000I-38100J0D01*
G01*
X16637900Y-5682000D02*
G75*
G02*
X16714100Y-5682000I38100J0D01*
G01*
X16714100Y-6190000D02*
G75*
G02*
X16637900Y-6190000I-38100J0D01*
G01*
X16637900Y-6190000D02*
G75*
G02*
X16714100Y-6190000I38100J0D01*
G01*
X17627100Y-4662000D02*
G75*
G02*
X17550900Y-4662000I-38100J0D01*
G01*
X17550900Y-4662000D02*
G75*
G02*
X17627100Y-4662000I38100J0D01*
G01*
X17627100Y-4916000D02*
G75*
G02*
X17550900Y-4916000I-38100J0D01*
G01*
X17550900Y-4916000D02*
G75*
G02*
X17627100Y-4916000I38100J0D01*
G01*
X17627100Y-5932000D02*
G75*
G02*
X17550900Y-5932000I-38100J0D01*
G01*
X17550900Y-5932000D02*
G75*
G02*
X17627100Y-5932000I38100J0D01*
G01*
X17627100Y-6186000D02*
G75*
G02*
X17550900Y-6186000I-38100J0D01*
G01*
X17550900Y-6186000D02*
G75*
G02*
X17627100Y-6186000I38100J0D01*
G01*
X18389100Y-4662000D02*
G75*
G02*
X18312900Y-4662000I-38100J0D01*
G01*
X18312900Y-4662000D02*
G75*
G02*
X18389100Y-4662000I38100J0D01*
G01*
X18389100Y-4916000D02*
G75*
G02*
X18312900Y-4916000I-38100J0D01*
G01*
X18312900Y-4916000D02*
G75*
G02*
X18389100Y-4916000I38100J0D01*
G01*
X18389100Y-5932000D02*
G75*
G02*
X18312900Y-5932000I-38100J0D01*
G01*
X18312900Y-5932000D02*
G75*
G02*
X18389100Y-5932000I38100J0D01*
G01*
X18389100Y-6186000D02*
G75*
G02*
X18312900Y-6186000I-38100J0D01*
G01*
X18312900Y-6186000D02*
G75*
G02*
X18389100Y-6186000I38100J0D01*
G01*
X18996100Y-4666000D02*
G75*
G02*
X18919900Y-4666000I-38100J0D01*
G01*
X18919900Y-4666000D02*
G75*
G02*
X18996100Y-4666000I38100J0D01*
G01*
X18996100Y-4920000D02*
G75*
G02*
X18919900Y-4920000I-38100J0D01*
G01*
X18919900Y-4920000D02*
G75*
G02*
X18996100Y-4920000I38100J0D01*
G01*
X18996100Y-5936000D02*
G75*
G02*
X18919900Y-5936000I-38100J0D01*
G01*
X18919900Y-5936000D02*
G75*
G02*
X18996100Y-5936000I38100J0D01*
G01*
X18996100Y-6190000D02*
G75*
G02*
X18919900Y-6190000I-38100J0D01*
G01*
X18919900Y-6190000D02*
G75*
G02*
X18996100Y-6190000I38100J0D01*
G01*
X19758100Y-4666000D02*
G75*
G02*
X19681900Y-4666000I-38100J0D01*
G01*
X19681900Y-4666000D02*
G75*
G02*
X19758100Y-4666000I38100J0D01*
G01*
X19758100Y-4920000D02*
G75*
G02*
X19681900Y-4920000I-38100J0D01*
G01*
X19681900Y-4920000D02*
G75*
G02*
X19758100Y-4920000I38100J0D01*
G01*
X19758100Y-5936000D02*
G75*
G02*
X19681900Y-5936000I-38100J0D01*
G01*
X19681900Y-5936000D02*
G75*
G02*
X19758100Y-5936000I38100J0D01*
G01*
X19758100Y-6190000D02*
G75*
G02*
X19681900Y-6190000I-38100J0D01*
G01*
X19681900Y-6190000D02*
G75*
G02*
X19758100Y-6190000I38100J0D01*
G01*
X20310100Y-4676000D02*
G75*
G02*
X20233900Y-4676000I-38100J0D01*
G01*
X20233900Y-4676000D02*
G75*
G02*
X20310100Y-4676000I38100J0D01*
G01*
X20310100Y-4930000D02*
G75*
G02*
X20233900Y-4930000I-38100J0D01*
G01*
X20233900Y-4930000D02*
G75*
G02*
X20310100Y-4930000I38100J0D01*
G01*
X20310100Y-5946000D02*
G75*
G02*
X20233900Y-5946000I-38100J0D01*
G01*
X20233900Y-5946000D02*
G75*
G02*
X20310100Y-5946000I38100J0D01*
G01*
X20310100Y-6200000D02*
G75*
G02*
X20233900Y-6200000I-38100J0D01*
G01*
X20233900Y-6200000D02*
G75*
G02*
X20310100Y-6200000I38100J0D01*
G01*
X21072100Y-4676000D02*
G75*
G02*
X20995900Y-4676000I-38100J0D01*
G01*
X20995900Y-4676000D02*
G75*
G02*
X21072100Y-4676000I38100J0D01*
G01*
X21072100Y-4930000D02*
G75*
G02*
X20995900Y-4930000I-38100J0D01*
G01*
X20995900Y-4930000D02*
G75*
G02*
X21072100Y-4930000I38100J0D01*
G01*
X21072100Y-5946000D02*
G75*
G02*
X20995900Y-5946000I-38100J0D01*
G01*
X20995900Y-5946000D02*
G75*
G02*
X21072100Y-5946000I38100J0D01*
G01*
X21072100Y-6200000D02*
G75*
G02*
X20995900Y-6200000I-38100J0D01*
G01*
X20995900Y-6200000D02*
G75*
G02*
X21072100Y-6200000I38100J0D01*
G01*
X12555000Y-7338000D02*
X12555000Y-7418000D01*
X12515000Y-7378000D02*
X12595000Y-7378000D01*
X12555000Y-7592000D02*
X12555000Y-7672000D01*
X12515000Y-7632000D02*
X12595000Y-7632000D01*
X12555000Y-7846000D02*
X12555000Y-7926000D01*
X12515000Y-7886000D02*
X12595000Y-7886000D01*
X12555000Y-8100000D02*
X12555000Y-8180000D01*
X12515000Y-8140000D02*
X12595000Y-8140000D01*
X12555000Y-8354000D02*
X12555000Y-8434000D01*
X12515000Y-8394000D02*
X12595000Y-8394000D01*
X12555000Y-8608000D02*
X12555000Y-8688000D01*
X12515000Y-8648000D02*
X12595000Y-8648000D01*
X12555000Y-8862000D02*
X12555000Y-8942000D01*
X12515000Y-8902000D02*
X12595000Y-8902000D01*
X12555000Y-9116000D02*
X12555000Y-9196000D01*
X12515000Y-9156000D02*
X12595000Y-9156000D01*
X13571000Y-7338000D02*
X13571000Y-7418000D01*
X13531000Y-7378000D02*
X13611000Y-7378000D01*
X13571000Y-7592000D02*
X13571000Y-7672000D01*
X13531000Y-7632000D02*
X13611000Y-7632000D01*
X13571000Y-7846000D02*
X13571000Y-7926000D01*
X13531000Y-7886000D02*
X13611000Y-7886000D01*
X13571000Y-8100000D02*
X13571000Y-8180000D01*
X13531000Y-8140000D02*
X13611000Y-8140000D01*
X13571000Y-8354000D02*
X13571000Y-8434000D01*
X13531000Y-8394000D02*
X13611000Y-8394000D01*
X13571000Y-8608000D02*
X13571000Y-8688000D01*
X13531000Y-8648000D02*
X13611000Y-8648000D01*
X13571000Y-8862000D02*
X13571000Y-8942000D01*
X13531000Y-8902000D02*
X13611000Y-8902000D01*
X13571000Y-9116000D02*
X13571000Y-9196000D01*
X13531000Y-9156000D02*
X13611000Y-9156000D01*
X13575000Y-6930000D02*
X13575000Y-7010000D01*
X13535000Y-6970000D02*
X13615000Y-6970000D01*
X13825000Y-6930000D02*
X13825000Y-7010000D01*
X13785000Y-6970000D02*
X13865000Y-6970000D01*
X13890000Y-7338000D02*
X13890000Y-7418000D01*
X13850000Y-7378000D02*
X13930000Y-7378000D01*
X13890000Y-7592000D02*
X13890000Y-7672000D01*
X13850000Y-7632000D02*
X13930000Y-7632000D01*
X13890000Y-7846000D02*
X13890000Y-7926000D01*
X13850000Y-7886000D02*
X13930000Y-7886000D01*
X13890000Y-8100000D02*
X13890000Y-8180000D01*
X13850000Y-8140000D02*
X13930000Y-8140000D01*
X13890000Y-8354000D02*
X13890000Y-8434000D01*
X13850000Y-8394000D02*
X13930000Y-8394000D01*
X13890000Y-8608000D02*
X13890000Y-8688000D01*
X13850000Y-8648000D02*
X13930000Y-8648000D01*
X13890000Y-8862000D02*
X13890000Y-8942000D01*
X13850000Y-8902000D02*
X13930000Y-8902000D01*
X13890000Y-9116000D02*
X13890000Y-9196000D01*
X13850000Y-9156000D02*
X13930000Y-9156000D01*
X14906000Y-7338000D02*
X14906000Y-7418000D01*
X14866000Y-7378000D02*
X14946000Y-7378000D01*
X14906000Y-7592000D02*
X14906000Y-7672000D01*
X14866000Y-7632000D02*
X14946000Y-7632000D01*
X14906000Y-7846000D02*
X14906000Y-7926000D01*
X14866000Y-7886000D02*
X14946000Y-7886000D01*
X14906000Y-8100000D02*
X14906000Y-8180000D01*
X14866000Y-8140000D02*
X14946000Y-8140000D01*
X14906000Y-8354000D02*
X14906000Y-8434000D01*
X14866000Y-8394000D02*
X14946000Y-8394000D01*
X14906000Y-8608000D02*
X14906000Y-8688000D01*
X14866000Y-8648000D02*
X14946000Y-8648000D01*
X14906000Y-8862000D02*
X14906000Y-8942000D01*
X14866000Y-8902000D02*
X14946000Y-8902000D01*
X14906000Y-9116000D02*
X14906000Y-9196000D01*
X14866000Y-9156000D02*
X14946000Y-9156000D01*
X15225000Y-7338000D02*
X15225000Y-7418000D01*
X15185000Y-7378000D02*
X15265000Y-7378000D01*
X15225000Y-7592000D02*
X15225000Y-7672000D01*
X15185000Y-7632000D02*
X15265000Y-7632000D01*
X15225000Y-7846000D02*
X15225000Y-7926000D01*
X15185000Y-7886000D02*
X15265000Y-7886000D01*
X15225000Y-8100000D02*
X15225000Y-8180000D01*
X15185000Y-8140000D02*
X15265000Y-8140000D01*
X15225000Y-8354000D02*
X15225000Y-8434000D01*
X15185000Y-8394000D02*
X15265000Y-8394000D01*
X15225000Y-8608000D02*
X15225000Y-8688000D01*
X15185000Y-8648000D02*
X15265000Y-8648000D01*
X15225000Y-8862000D02*
X15225000Y-8942000D01*
X15185000Y-8902000D02*
X15265000Y-8902000D01*
X15225000Y-9116000D02*
X15225000Y-9196000D01*
X15185000Y-9156000D02*
X15265000Y-9156000D01*
X16241000Y-7338000D02*
X16241000Y-7418000D01*
X16201000Y-7378000D02*
X16281000Y-7378000D01*
X16241000Y-7592000D02*
X16241000Y-7672000D01*
X16201000Y-7632000D02*
X16281000Y-7632000D01*
X16241000Y-7846000D02*
X16241000Y-7926000D01*
X16201000Y-7886000D02*
X16281000Y-7886000D01*
X16241000Y-8100000D02*
X16241000Y-8180000D01*
X16201000Y-8140000D02*
X16281000Y-8140000D01*
X16241000Y-8354000D02*
X16241000Y-8434000D01*
X16201000Y-8394000D02*
X16281000Y-8394000D01*
X16241000Y-8608000D02*
X16241000Y-8688000D01*
X16201000Y-8648000D02*
X16281000Y-8648000D01*
X16241000Y-8862000D02*
X16241000Y-8942000D01*
X16201000Y-8902000D02*
X16281000Y-8902000D01*
X16241000Y-9116000D02*
X16241000Y-9196000D01*
X16201000Y-9156000D02*
X16281000Y-9156000D01*
X17220000Y-7266000D02*
X17220000Y-7346000D01*
X17180000Y-7306000D02*
X17260000Y-7306000D01*
X17220000Y-8790000D02*
X17220000Y-8870000D01*
X17180000Y-8830000D02*
X17260000Y-8830000D01*
X17625000Y-7266000D02*
X17625000Y-7346000D01*
X17585000Y-7306000D02*
X17665000Y-7306000D01*
X17625000Y-8790000D02*
X17625000Y-8870000D01*
X17585000Y-8830000D02*
X17665000Y-8830000D01*
X18030000Y-7266000D02*
X18030000Y-7346000D01*
X17990000Y-7306000D02*
X18070000Y-7306000D01*
X18030000Y-8790000D02*
X18030000Y-8870000D01*
X17990000Y-8830000D02*
X18070000Y-8830000D01*
X14229356Y-11820356D02*
X14229356Y-11749644D01*
X14158644Y-11749644D01*
X14158644Y-11820356D01*
X14229356Y-11820356D01*
X14232356Y-11425356D02*
X14232356Y-11354644D01*
X14161644Y-11354644D01*
X14161644Y-11425356D01*
X14232356Y-11425356D01*
X14233356Y-10691356D02*
X14233356Y-10620644D01*
X14162644Y-10620644D01*
X14162644Y-10691356D01*
X14233356Y-10691356D01*
X14233356Y-10945356D02*
X14233356Y-10874644D01*
X14162644Y-10874644D01*
X14162644Y-10945356D01*
X14233356Y-10945356D01*
X14234356Y-9830356D02*
X14234356Y-9759644D01*
X14163644Y-9759644D01*
X14163644Y-9830356D01*
X14234356Y-9830356D01*
X14235356Y-10215356D02*
X14235356Y-10144644D01*
X14164644Y-10144644D01*
X14164644Y-10215356D01*
X14235356Y-10215356D01*
X14294356Y-3858356D02*
X14294356Y-3787644D01*
X14223644Y-3787644D01*
X14223644Y-3858356D01*
X14294356Y-3858356D01*
X14483356Y-11820356D02*
X14483356Y-11749644D01*
X14412644Y-11749644D01*
X14412644Y-11820356D01*
X14483356Y-11820356D01*
X14486356Y-11425356D02*
X14486356Y-11354644D01*
X14415644Y-11354644D01*
X14415644Y-11425356D01*
X14486356Y-11425356D01*
X14487356Y-10691356D02*
X14487356Y-10620644D01*
X14416644Y-10620644D01*
X14416644Y-10691356D01*
X14487356Y-10691356D01*
X14487356Y-10945356D02*
X14487356Y-10874644D01*
X14416644Y-10874644D01*
X14416644Y-10945356D01*
X14487356Y-10945356D01*
X14488356Y-9830356D02*
X14488356Y-9759644D01*
X14417644Y-9759644D01*
X14417644Y-9830356D01*
X14488356Y-9830356D01*
X14489356Y-10215356D02*
X14489356Y-10144644D01*
X14418644Y-10144644D01*
X14418644Y-10215356D01*
X14489356Y-10215356D01*
X14548356Y-3858356D02*
X14548356Y-3787644D01*
X14477644Y-3787644D01*
X14477644Y-3858356D01*
X14548356Y-3858356D01*
X14737356Y-11820356D02*
X14737356Y-11749644D01*
X14666644Y-11749644D01*
X14666644Y-11820356D01*
X14737356Y-11820356D01*
X14740356Y-11425356D02*
X14740356Y-11354644D01*
X14669644Y-11354644D01*
X14669644Y-11425356D01*
X14740356Y-11425356D01*
X14741356Y-10691356D02*
X14741356Y-10620644D01*
X14670644Y-10620644D01*
X14670644Y-10691356D01*
X14741356Y-10691356D01*
X14741356Y-10945356D02*
X14741356Y-10874644D01*
X14670644Y-10874644D01*
X14670644Y-10945356D01*
X14741356Y-10945356D01*
X14742356Y-9830356D02*
X14742356Y-9759644D01*
X14671644Y-9759644D01*
X14671644Y-9830356D01*
X14742356Y-9830356D01*
X14743356Y-10215356D02*
X14743356Y-10144644D01*
X14672644Y-10144644D01*
X14672644Y-10215356D01*
X14743356Y-10215356D01*
X14802356Y-3858356D02*
X14802356Y-3787644D01*
X14731644Y-3787644D01*
X14731644Y-3858356D01*
X14802356Y-3858356D01*
X14991356Y-11820356D02*
X14991356Y-11749644D01*
X14920644Y-11749644D01*
X14920644Y-11820356D01*
X14991356Y-11820356D01*
X14994356Y-11425356D02*
X14994356Y-11354644D01*
X14923644Y-11354644D01*
X14923644Y-11425356D01*
X14994356Y-11425356D01*
X14995356Y-10691356D02*
X14995356Y-10620644D01*
X14924644Y-10620644D01*
X14924644Y-10691356D01*
X14995356Y-10691356D01*
X14995356Y-10945356D02*
X14995356Y-10874644D01*
X14924644Y-10874644D01*
X14924644Y-10945356D01*
X14995356Y-10945356D01*
X14996356Y-9830356D02*
X14996356Y-9759644D01*
X14925644Y-9759644D01*
X14925644Y-9830356D01*
X14996356Y-9830356D01*
X14997356Y-10215356D02*
X14997356Y-10144644D01*
X14926644Y-10144644D01*
X14926644Y-10215356D01*
X14997356Y-10215356D01*
X15056356Y-3858356D02*
X15056356Y-3787644D01*
X14985644Y-3787644D01*
X14985644Y-3858356D01*
X15056356Y-3858356D01*
X15245356Y-11820356D02*
X15245356Y-11749644D01*
X15174644Y-11749644D01*
X15174644Y-11820356D01*
X15245356Y-11820356D01*
X15248356Y-11425356D02*
X15248356Y-11354644D01*
X15177644Y-11354644D01*
X15177644Y-11425356D01*
X15248356Y-11425356D01*
X15249356Y-10691356D02*
X15249356Y-10620644D01*
X15178644Y-10620644D01*
X15178644Y-10691356D01*
X15249356Y-10691356D01*
X15249356Y-10945356D02*
X15249356Y-10874644D01*
X15178644Y-10874644D01*
X15178644Y-10945356D01*
X15249356Y-10945356D01*
X15250356Y-9830356D02*
X15250356Y-9759644D01*
X15179644Y-9759644D01*
X15179644Y-9830356D01*
X15250356Y-9830356D01*
X15251356Y-10215356D02*
X15251356Y-10144644D01*
X15180644Y-10144644D01*
X15180644Y-10215356D01*
X15251356Y-10215356D01*
X15310356Y-3858356D02*
X15310356Y-3787644D01*
X15239644Y-3787644D01*
X15239644Y-3858356D01*
X15310356Y-3858356D01*
X15499356Y-11820356D02*
X15499356Y-11749644D01*
X15428644Y-11749644D01*
X15428644Y-11820356D01*
X15499356Y-11820356D01*
X15502356Y-11425356D02*
X15502356Y-11354644D01*
X15431644Y-11354644D01*
X15431644Y-11425356D01*
X15502356Y-11425356D01*
X15503356Y-10691356D02*
X15503356Y-10620644D01*
X15432644Y-10620644D01*
X15432644Y-10691356D01*
X15503356Y-10691356D01*
X15503356Y-10945356D02*
X15503356Y-10874644D01*
X15432644Y-10874644D01*
X15432644Y-10945356D01*
X15503356Y-10945356D01*
X15504356Y-9830356D02*
X15504356Y-9759644D01*
X15433644Y-9759644D01*
X15433644Y-9830356D01*
X15504356Y-9830356D01*
X15505356Y-10215356D02*
X15505356Y-10144644D01*
X15434644Y-10144644D01*
X15434644Y-10215356D01*
X15505356Y-10215356D01*
X15564356Y-3858356D02*
X15564356Y-3787644D01*
X15493644Y-3787644D01*
X15493644Y-3858356D01*
X15564356Y-3858356D01*
X15753356Y-11820356D02*
X15753356Y-11749644D01*
X15682644Y-11749644D01*
X15682644Y-11820356D01*
X15753356Y-11820356D01*
X15756356Y-11425356D02*
X15756356Y-11354644D01*
X15685644Y-11354644D01*
X15685644Y-11425356D01*
X15756356Y-11425356D01*
X15757356Y-10691356D02*
X15757356Y-10620644D01*
X15686644Y-10620644D01*
X15686644Y-10691356D01*
X15757356Y-10691356D01*
X15757356Y-10945356D02*
X15757356Y-10874644D01*
X15686644Y-10874644D01*
X15686644Y-10945356D01*
X15757356Y-10945356D01*
X15758356Y-9830356D02*
X15758356Y-9759644D01*
X15687644Y-9759644D01*
X15687644Y-9830356D01*
X15758356Y-9830356D01*
X15759356Y-10215356D02*
X15759356Y-10144644D01*
X15688644Y-10144644D01*
X15688644Y-10215356D01*
X15759356Y-10215356D01*
X16007356Y-11820356D02*
X16007356Y-11749644D01*
X15936644Y-11749644D01*
X15936644Y-11820356D01*
X16007356Y-11820356D01*
X16010356Y-11425356D02*
X16010356Y-11354644D01*
X15939644Y-11354644D01*
X15939644Y-11425356D01*
X16010356Y-11425356D01*
X16011356Y-10691356D02*
X16011356Y-10620644D01*
X15940644Y-10620644D01*
X15940644Y-10691356D01*
X16011356Y-10691356D01*
X16011356Y-10945356D02*
X16011356Y-10874644D01*
X15940644Y-10874644D01*
X15940644Y-10945356D01*
X16011356Y-10945356D01*
X16012356Y-9830356D02*
X16012356Y-9759644D01*
X15941644Y-9759644D01*
X15941644Y-9830356D01*
X16012356Y-9830356D01*
X16013356Y-10215356D02*
X16013356Y-10144644D01*
X15942644Y-10144644D01*
X15942644Y-10215356D01*
X16013356Y-10215356D01*
X16261356Y-11820356D02*
X16261356Y-11749644D01*
X16190644Y-11749644D01*
X16190644Y-11820356D01*
X16261356Y-11820356D01*
X16264356Y-11425356D02*
X16264356Y-11354644D01*
X16193644Y-11354644D01*
X16193644Y-11425356D01*
X16264356Y-11425356D01*
X16265356Y-10691356D02*
X16265356Y-10620644D01*
X16194644Y-10620644D01*
X16194644Y-10691356D01*
X16265356Y-10691356D01*
X16265356Y-10945356D02*
X16265356Y-10874644D01*
X16194644Y-10874644D01*
X16194644Y-10945356D01*
X16265356Y-10945356D01*
X16266356Y-9830356D02*
X16266356Y-9759644D01*
X16195644Y-9759644D01*
X16195644Y-9830356D01*
X16266356Y-9830356D01*
X16267356Y-10215356D02*
X16267356Y-10144644D01*
X16196644Y-10144644D01*
X16196644Y-10215356D01*
X16267356Y-10215356D01*
X16360356Y-3853356D02*
X16360356Y-3782644D01*
X16289644Y-3782644D01*
X16289644Y-3853356D01*
X16360356Y-3853356D01*
X16515356Y-11820356D02*
X16515356Y-11749644D01*
X16444644Y-11749644D01*
X16444644Y-11820356D01*
X16515356Y-11820356D01*
X16518356Y-11425356D02*
X16518356Y-11354644D01*
X16447644Y-11354644D01*
X16447644Y-11425356D01*
X16518356Y-11425356D01*
X16519356Y-10691356D02*
X16519356Y-10620644D01*
X16448644Y-10620644D01*
X16448644Y-10691356D01*
X16519356Y-10691356D01*
X16519356Y-10945356D02*
X16519356Y-10874644D01*
X16448644Y-10874644D01*
X16448644Y-10945356D01*
X16519356Y-10945356D01*
X16520356Y-9830356D02*
X16520356Y-9759644D01*
X16449644Y-9759644D01*
X16449644Y-9830356D01*
X16520356Y-9830356D01*
X16521356Y-10215356D02*
X16521356Y-10144644D01*
X16450644Y-10144644D01*
X16450644Y-10215356D01*
X16521356Y-10215356D01*
X16614356Y-3853356D02*
X16614356Y-3782644D01*
X16543644Y-3782644D01*
X16543644Y-3853356D01*
X16614356Y-3853356D01*
X16769356Y-11820356D02*
X16769356Y-11749644D01*
X16698644Y-11749644D01*
X16698644Y-11820356D01*
X16769356Y-11820356D01*
X16772356Y-11425356D02*
X16772356Y-11354644D01*
X16701644Y-11354644D01*
X16701644Y-11425356D01*
X16772356Y-11425356D01*
X16773356Y-10691356D02*
X16773356Y-10620644D01*
X16702644Y-10620644D01*
X16702644Y-10691356D01*
X16773356Y-10691356D01*
X16773356Y-10945356D02*
X16773356Y-10874644D01*
X16702644Y-10874644D01*
X16702644Y-10945356D01*
X16773356Y-10945356D01*
X16774356Y-9830356D02*
X16774356Y-9759644D01*
X16703644Y-9759644D01*
X16703644Y-9830356D01*
X16774356Y-9830356D01*
X16775356Y-10215356D02*
X16775356Y-10144644D01*
X16704644Y-10144644D01*
X16704644Y-10215356D01*
X16775356Y-10215356D01*
X16868356Y-3853356D02*
X16868356Y-3782644D01*
X16797644Y-3782644D01*
X16797644Y-3853356D01*
X16868356Y-3853356D01*
X17023356Y-11820356D02*
X17023356Y-11749644D01*
X16952644Y-11749644D01*
X16952644Y-11820356D01*
X17023356Y-11820356D01*
X17026356Y-11425356D02*
X17026356Y-11354644D01*
X16955644Y-11354644D01*
X16955644Y-11425356D01*
X17026356Y-11425356D01*
X17027356Y-10691356D02*
X17027356Y-10620644D01*
X16956644Y-10620644D01*
X16956644Y-10691356D01*
X17027356Y-10691356D01*
X17027356Y-10945356D02*
X17027356Y-10874644D01*
X16956644Y-10874644D01*
X16956644Y-10945356D01*
X17027356Y-10945356D01*
X17028356Y-9830356D02*
X17028356Y-9759644D01*
X16957644Y-9759644D01*
X16957644Y-9830356D01*
X17028356Y-9830356D01*
X17029356Y-10215356D02*
X17029356Y-10144644D01*
X16958644Y-10144644D01*
X16958644Y-10215356D01*
X17029356Y-10215356D01*
X17122356Y-3853356D02*
X17122356Y-3782644D01*
X17051644Y-3782644D01*
X17051644Y-3853356D01*
X17122356Y-3853356D01*
X17277356Y-11820356D02*
X17277356Y-11749644D01*
X17206644Y-11749644D01*
X17206644Y-11820356D01*
X17277356Y-11820356D01*
X17280356Y-11425356D02*
X17280356Y-11354644D01*
X17209644Y-11354644D01*
X17209644Y-11425356D01*
X17280356Y-11425356D01*
X17281356Y-10691356D02*
X17281356Y-10620644D01*
X17210644Y-10620644D01*
X17210644Y-10691356D01*
X17281356Y-10691356D01*
X17281356Y-10945356D02*
X17281356Y-10874644D01*
X17210644Y-10874644D01*
X17210644Y-10945356D01*
X17281356Y-10945356D01*
X17282356Y-9830356D02*
X17282356Y-9759644D01*
X17211644Y-9759644D01*
X17211644Y-9830356D01*
X17282356Y-9830356D01*
X17283356Y-10215356D02*
X17283356Y-10144644D01*
X17212644Y-10144644D01*
X17212644Y-10215356D01*
X17283356Y-10215356D01*
X17376356Y-3853356D02*
X17376356Y-3782644D01*
X17305644Y-3782644D01*
X17305644Y-3853356D01*
X17376356Y-3853356D01*
X17531356Y-11820356D02*
X17531356Y-11749644D01*
X17460644Y-11749644D01*
X17460644Y-11820356D01*
X17531356Y-11820356D01*
X17534356Y-11425356D02*
X17534356Y-11354644D01*
X17463644Y-11354644D01*
X17463644Y-11425356D01*
X17534356Y-11425356D01*
X17535356Y-10691356D02*
X17535356Y-10620644D01*
X17464644Y-10620644D01*
X17464644Y-10691356D01*
X17535356Y-10691356D01*
X17535356Y-10945356D02*
X17535356Y-10874644D01*
X17464644Y-10874644D01*
X17464644Y-10945356D01*
X17535356Y-10945356D01*
X17536356Y-9830356D02*
X17536356Y-9759644D01*
X17465644Y-9759644D01*
X17465644Y-9830356D01*
X17536356Y-9830356D01*
X17537356Y-10215356D02*
X17537356Y-10144644D01*
X17466644Y-10144644D01*
X17466644Y-10215356D01*
X17537356Y-10215356D01*
X17630356Y-3853356D02*
X17630356Y-3782644D01*
X17559644Y-3782644D01*
X17559644Y-3853356D01*
X17630356Y-3853356D01*
X17785356Y-11820356D02*
X17785356Y-11749644D01*
X17714644Y-11749644D01*
X17714644Y-11820356D01*
X17785356Y-11820356D01*
X17788356Y-11425356D02*
X17788356Y-11354644D01*
X17717644Y-11354644D01*
X17717644Y-11425356D01*
X17788356Y-11425356D01*
X17789356Y-10691356D02*
X17789356Y-10620644D01*
X17718644Y-10620644D01*
X17718644Y-10691356D01*
X17789356Y-10691356D01*
X17789356Y-10945356D02*
X17789356Y-10874644D01*
X17718644Y-10874644D01*
X17718644Y-10945356D01*
X17789356Y-10945356D01*
X17790356Y-9830356D02*
X17790356Y-9759644D01*
X17719644Y-9759644D01*
X17719644Y-9830356D01*
X17790356Y-9830356D01*
X17791356Y-10215356D02*
X17791356Y-10144644D01*
X17720644Y-10144644D01*
X17720644Y-10215356D01*
X17791356Y-10215356D01*
X18039356Y-11820356D02*
X18039356Y-11749644D01*
X17968644Y-11749644D01*
X17968644Y-11820356D01*
X18039356Y-11820356D01*
X18042356Y-11425356D02*
X18042356Y-11354644D01*
X17971644Y-11354644D01*
X17971644Y-11425356D01*
X18042356Y-11425356D01*
X18043356Y-10691356D02*
X18043356Y-10620644D01*
X17972644Y-10620644D01*
X17972644Y-10691356D01*
X18043356Y-10691356D01*
X18043356Y-10945356D02*
X18043356Y-10874644D01*
X17972644Y-10874644D01*
X17972644Y-10945356D01*
X18043356Y-10945356D01*
X18044356Y-9830356D02*
X18044356Y-9759644D01*
X17973644Y-9759644D01*
X17973644Y-9830356D01*
X18044356Y-9830356D01*
X18045356Y-10215356D02*
X18045356Y-10144644D01*
X17974644Y-10144644D01*
X17974644Y-10215356D01*
X18045356Y-10215356D01*
X18293356Y-11820356D02*
X18293356Y-11749644D01*
X18222644Y-11749644D01*
X18222644Y-11820356D01*
X18293356Y-11820356D01*
X18296356Y-11425356D02*
X18296356Y-11354644D01*
X18225644Y-11354644D01*
X18225644Y-11425356D01*
X18296356Y-11425356D01*
X18297356Y-10691356D02*
X18297356Y-10620644D01*
X18226644Y-10620644D01*
X18226644Y-10691356D01*
X18297356Y-10691356D01*
X18297356Y-10945356D02*
X18297356Y-10874644D01*
X18226644Y-10874644D01*
X18226644Y-10945356D01*
X18297356Y-10945356D01*
X18298356Y-9830356D02*
X18298356Y-9759644D01*
X18227644Y-9759644D01*
X18227644Y-9830356D01*
X18298356Y-9830356D01*
X18299356Y-10215356D02*
X18299356Y-10144644D01*
X18228644Y-10144644D01*
X18228644Y-10215356D01*
X18299356Y-10215356D01*
X18547356Y-11820356D02*
X18547356Y-11749644D01*
X18476644Y-11749644D01*
X18476644Y-11820356D01*
X18547356Y-11820356D01*
X18550356Y-11425356D02*
X18550356Y-11354644D01*
X18479644Y-11354644D01*
X18479644Y-11425356D01*
X18550356Y-11425356D01*
X18551356Y-10691356D02*
X18551356Y-10620644D01*
X18480644Y-10620644D01*
X18480644Y-10691356D01*
X18551356Y-10691356D01*
X18551356Y-10945356D02*
X18551356Y-10874644D01*
X18480644Y-10874644D01*
X18480644Y-10945356D01*
X18551356Y-10945356D01*
X18552356Y-9830356D02*
X18552356Y-9759644D01*
X18481644Y-9759644D01*
X18481644Y-9830356D01*
X18552356Y-9830356D01*
X18553356Y-10215356D02*
X18553356Y-10144644D01*
X18482644Y-10144644D01*
X18482644Y-10215356D01*
X18553356Y-10215356D01*
X18801356Y-11820356D02*
X18801356Y-11749644D01*
X18730644Y-11749644D01*
X18730644Y-11820356D01*
X18801356Y-11820356D01*
X18804356Y-11425356D02*
X18804356Y-11354644D01*
X18733644Y-11354644D01*
X18733644Y-11425356D01*
X18804356Y-11425356D01*
X18805356Y-10691356D02*
X18805356Y-10620644D01*
X18734644Y-10620644D01*
X18734644Y-10691356D01*
X18805356Y-10691356D01*
X18805356Y-10945356D02*
X18805356Y-10874644D01*
X18734644Y-10874644D01*
X18734644Y-10945356D01*
X18805356Y-10945356D01*
X18806356Y-9830356D02*
X18806356Y-9759644D01*
X18735644Y-9759644D01*
X18735644Y-9830356D01*
X18806356Y-9830356D01*
X18807356Y-10215356D02*
X18807356Y-10144644D01*
X18736644Y-10144644D01*
X18736644Y-10215356D01*
X18807356Y-10215356D01*
X18835356Y-8077356D02*
X18835356Y-8006644D01*
X18764644Y-8006644D01*
X18764644Y-8077356D01*
X18835356Y-8077356D01*
X18835356Y-8331356D02*
X18835356Y-8260644D01*
X18764644Y-8260644D01*
X18764644Y-8331356D01*
X18835356Y-8331356D01*
X18835356Y-8585356D02*
X18835356Y-8514644D01*
X18764644Y-8514644D01*
X18764644Y-8585356D01*
X18835356Y-8585356D01*
X18891356Y-7585356D02*
X18891356Y-7514644D01*
X18820644Y-7514644D01*
X18820644Y-7585356D01*
X18891356Y-7585356D01*
X19055356Y-11820356D02*
X19055356Y-11749644D01*
X18984644Y-11749644D01*
X18984644Y-11820356D01*
X19055356Y-11820356D01*
X19058356Y-11425356D02*
X19058356Y-11354644D01*
X18987644Y-11354644D01*
X18987644Y-11425356D01*
X19058356Y-11425356D01*
X19059356Y-10691356D02*
X19059356Y-10620644D01*
X18988644Y-10620644D01*
X18988644Y-10691356D01*
X19059356Y-10691356D01*
X19059356Y-10945356D02*
X19059356Y-10874644D01*
X18988644Y-10874644D01*
X18988644Y-10945356D01*
X19059356Y-10945356D01*
X19060356Y-9830356D02*
X19060356Y-9759644D01*
X18989644Y-9759644D01*
X18989644Y-9830356D01*
X19060356Y-9830356D01*
X19061356Y-10215356D02*
X19061356Y-10144644D01*
X18990644Y-10144644D01*
X18990644Y-10215356D01*
X19061356Y-10215356D01*
X19145356Y-7585356D02*
X19145356Y-7514644D01*
X19074644Y-7514644D01*
X19074644Y-7585356D01*
X19145356Y-7585356D01*
X19210356Y-8080356D02*
X19210356Y-8009644D01*
X19139644Y-8009644D01*
X19139644Y-8080356D01*
X19210356Y-8080356D01*
X19210356Y-8334356D02*
X19210356Y-8263644D01*
X19139644Y-8263644D01*
X19139644Y-8334356D01*
X19210356Y-8334356D01*
X19210356Y-8588356D02*
X19210356Y-8517644D01*
X19139644Y-8517644D01*
X19139644Y-8588356D01*
X19210356Y-8588356D01*
X19980356Y-8083356D02*
X19980356Y-8012644D01*
X19909644Y-8012644D01*
X19909644Y-8083356D01*
X19980356Y-8083356D01*
X19980356Y-8337356D02*
X19980356Y-8266644D01*
X19909644Y-8266644D01*
X19909644Y-8337356D01*
X19980356Y-8337356D01*
X19980356Y-8591356D02*
X19980356Y-8520644D01*
X19909644Y-8520644D01*
X19909644Y-8591356D01*
X19980356Y-8591356D01*
X20040356Y-7583356D02*
X20040356Y-7512644D01*
X19969644Y-7512644D01*
X19969644Y-7583356D01*
X20040356Y-7583356D01*
X20294356Y-7583356D02*
X20294356Y-7512644D01*
X20223644Y-7512644D01*
X20223644Y-7583356D01*
X20294356Y-7583356D01*
X20360356Y-8088356D02*
X20360356Y-8017644D01*
X20289644Y-8017644D01*
X20289644Y-8088356D01*
X20360356Y-8088356D01*
X20360356Y-8342356D02*
X20360356Y-8271644D01*
X20289644Y-8271644D01*
X20289644Y-8342356D01*
X20360356Y-8342356D01*
X20360356Y-8596356D02*
X20360356Y-8525644D01*
X20289644Y-8525644D01*
X20289644Y-8596356D01*
X20360356Y-8596356D01*
D11*
X12319277Y-12393984D02*
X12319277Y-12193984D01*
X12319277Y-12193984D02*
X12366896Y-12193984D01*
X12366896Y-12193984D02*
X12395467Y-12203508D01*
X12395467Y-12203508D02*
X12414515Y-12222555D01*
X12414515Y-12222555D02*
X12424039Y-12241603D01*
X12424039Y-12241603D02*
X12433562Y-12279698D01*
X12433562Y-12279698D02*
X12433562Y-12308269D01*
X12433562Y-12308269D02*
X12424039Y-12346365D01*
X12424039Y-12346365D02*
X12414515Y-12365412D01*
X12414515Y-12365412D02*
X12395467Y-12384460D01*
X12395467Y-12384460D02*
X12366896Y-12393984D01*
X12366896Y-12393984D02*
X12319277Y-12393984D01*
X12519277Y-12393984D02*
X12519277Y-12260650D01*
X12519277Y-12298746D02*
X12528801Y-12279698D01*
X12528801Y-12279698D02*
X12538324Y-12270174D01*
X12538324Y-12270174D02*
X12557372Y-12260650D01*
X12557372Y-12260650D02*
X12576420Y-12260650D01*
X12643086Y-12393984D02*
X12643086Y-12260650D01*
X12643086Y-12193984D02*
X12633562Y-12203508D01*
X12633562Y-12203508D02*
X12643086Y-12213031D01*
X12643086Y-12213031D02*
X12652610Y-12203508D01*
X12652610Y-12203508D02*
X12643086Y-12193984D01*
X12643086Y-12193984D02*
X12643086Y-12213031D01*
X12766896Y-12393984D02*
X12747848Y-12384460D01*
X12747848Y-12384460D02*
X12738324Y-12365412D01*
X12738324Y-12365412D02*
X12738324Y-12193984D01*
X12871658Y-12393984D02*
X12852610Y-12384460D01*
X12852610Y-12384460D02*
X12843086Y-12365412D01*
X12843086Y-12365412D02*
X12843086Y-12193984D01*
X13100229Y-12393984D02*
X13100229Y-12193984D01*
X13100229Y-12193984D02*
X13166896Y-12336841D01*
X13166896Y-12336841D02*
X13233562Y-12193984D01*
X13233562Y-12193984D02*
X13233562Y-12393984D01*
X13414515Y-12393984D02*
X13414515Y-12289222D01*
X13414515Y-12289222D02*
X13404991Y-12270174D01*
X13404991Y-12270174D02*
X13385943Y-12260650D01*
X13385943Y-12260650D02*
X13347848Y-12260650D01*
X13347848Y-12260650D02*
X13328801Y-12270174D01*
X13414515Y-12384460D02*
X13395467Y-12393984D01*
X13395467Y-12393984D02*
X13347848Y-12393984D01*
X13347848Y-12393984D02*
X13328801Y-12384460D01*
X13328801Y-12384460D02*
X13319277Y-12365412D01*
X13319277Y-12365412D02*
X13319277Y-12346365D01*
X13319277Y-12346365D02*
X13328801Y-12327317D01*
X13328801Y-12327317D02*
X13347848Y-12317793D01*
X13347848Y-12317793D02*
X13395467Y-12317793D01*
X13395467Y-12317793D02*
X13414515Y-12308269D01*
X13509753Y-12260650D02*
X13509753Y-12460650D01*
X13509753Y-12270174D02*
X13528801Y-12260650D01*
X13528801Y-12260650D02*
X13566896Y-12260650D01*
X13566896Y-12260650D02*
X13585943Y-12270174D01*
X13585943Y-12270174D02*
X13595467Y-12279698D01*
X13595467Y-12279698D02*
X13604991Y-12298746D01*
X13604991Y-12298746D02*
X13604991Y-12355888D01*
X13604991Y-12355888D02*
X13595467Y-12374936D01*
X13595467Y-12374936D02*
X13585943Y-12384460D01*
X13585943Y-12384460D02*
X13566896Y-12393984D01*
X13566896Y-12393984D02*
X13528801Y-12393984D01*
X13528801Y-12393984D02*
X13509753Y-12384460D01*
X13690705Y-12374936D02*
X13700229Y-12384460D01*
X13700229Y-12384460D02*
X13690705Y-12393984D01*
X13690705Y-12393984D02*
X13681182Y-12384460D01*
X13681182Y-12384460D02*
X13690705Y-12374936D01*
X13690705Y-12374936D02*
X13690705Y-12393984D01*
X13690705Y-12270174D02*
X13700229Y-12279698D01*
X13700229Y-12279698D02*
X13690705Y-12289222D01*
X13690705Y-12289222D02*
X13681182Y-12279698D01*
X13681182Y-12279698D02*
X13690705Y-12270174D01*
X13690705Y-12270174D02*
X13690705Y-12289222D01*
D12*
X12028500Y-12707500D02*
X12058500Y-12737500D01*
X12058500Y-12707500D02*
X12028500Y-12737500D01*
D11*
X12357372Y-12613984D02*
X12376420Y-12613984D01*
X12376420Y-12613984D02*
X12395467Y-12623508D01*
X12395467Y-12623508D02*
X12404991Y-12633031D01*
X12404991Y-12633031D02*
X12414515Y-12652079D01*
X12414515Y-12652079D02*
X12424039Y-12690174D01*
X12424039Y-12690174D02*
X12424039Y-12737793D01*
X12424039Y-12737793D02*
X12414515Y-12775888D01*
X12414515Y-12775888D02*
X12404991Y-12794936D01*
X12404991Y-12794936D02*
X12395467Y-12804460D01*
X12395467Y-12804460D02*
X12376420Y-12813984D01*
X12376420Y-12813984D02*
X12357372Y-12813984D01*
X12357372Y-12813984D02*
X12338324Y-12804460D01*
X12338324Y-12804460D02*
X12328801Y-12794936D01*
X12328801Y-12794936D02*
X12319277Y-12775888D01*
X12319277Y-12775888D02*
X12309753Y-12737793D01*
X12309753Y-12737793D02*
X12309753Y-12690174D01*
X12309753Y-12690174D02*
X12319277Y-12652079D01*
X12319277Y-12652079D02*
X12328801Y-12633031D01*
X12328801Y-12633031D02*
X12338324Y-12623508D01*
X12338324Y-12623508D02*
X12357372Y-12613984D01*
X12509753Y-12794936D02*
X12519277Y-12804460D01*
X12519277Y-12804460D02*
X12509753Y-12813984D01*
X12509753Y-12813984D02*
X12500229Y-12804460D01*
X12500229Y-12804460D02*
X12509753Y-12794936D01*
X12509753Y-12794936D02*
X12509753Y-12813984D01*
X12585943Y-12613984D02*
X12709753Y-12613984D01*
X12709753Y-12613984D02*
X12643086Y-12690174D01*
X12643086Y-12690174D02*
X12671658Y-12690174D01*
X12671658Y-12690174D02*
X12690705Y-12699698D01*
X12690705Y-12699698D02*
X12700229Y-12709222D01*
X12700229Y-12709222D02*
X12709753Y-12728269D01*
X12709753Y-12728269D02*
X12709753Y-12775888D01*
X12709753Y-12775888D02*
X12700229Y-12794936D01*
X12700229Y-12794936D02*
X12690705Y-12804460D01*
X12690705Y-12804460D02*
X12671658Y-12813984D01*
X12671658Y-12813984D02*
X12614515Y-12813984D01*
X12614515Y-12813984D02*
X12595467Y-12804460D01*
X12595467Y-12804460D02*
X12585943Y-12794936D01*
X12833562Y-12613984D02*
X12852610Y-12613984D01*
X12852610Y-12613984D02*
X12871658Y-12623508D01*
X12871658Y-12623508D02*
X12881182Y-12633031D01*
X12881182Y-12633031D02*
X12890705Y-12652079D01*
X12890705Y-12652079D02*
X12900229Y-12690174D01*
X12900229Y-12690174D02*
X12900229Y-12737793D01*
X12900229Y-12737793D02*
X12890705Y-12775888D01*
X12890705Y-12775888D02*
X12881182Y-12794936D01*
X12881182Y-12794936D02*
X12871658Y-12804460D01*
X12871658Y-12804460D02*
X12852610Y-12813984D01*
X12852610Y-12813984D02*
X12833562Y-12813984D01*
X12833562Y-12813984D02*
X12814515Y-12804460D01*
X12814515Y-12804460D02*
X12804991Y-12794936D01*
X12804991Y-12794936D02*
X12795467Y-12775888D01*
X12795467Y-12775888D02*
X12785943Y-12737793D01*
X12785943Y-12737793D02*
X12785943Y-12690174D01*
X12785943Y-12690174D02*
X12795467Y-12652079D01*
X12795467Y-12652079D02*
X12804991Y-12633031D01*
X12804991Y-12633031D02*
X12814515Y-12623508D01*
X12814515Y-12623508D02*
X12833562Y-12613984D01*
X13024039Y-12613984D02*
X13043086Y-12613984D01*
X13043086Y-12613984D02*
X13062134Y-12623508D01*
X13062134Y-12623508D02*
X13071658Y-12633031D01*
X13071658Y-12633031D02*
X13081182Y-12652079D01*
X13081182Y-12652079D02*
X13090705Y-12690174D01*
X13090705Y-12690174D02*
X13090705Y-12737793D01*
X13090705Y-12737793D02*
X13081182Y-12775888D01*
X13081182Y-12775888D02*
X13071658Y-12794936D01*
X13071658Y-12794936D02*
X13062134Y-12804460D01*
X13062134Y-12804460D02*
X13043086Y-12813984D01*
X13043086Y-12813984D02*
X13024039Y-12813984D01*
X13024039Y-12813984D02*
X13004991Y-12804460D01*
X13004991Y-12804460D02*
X12995467Y-12794936D01*
X12995467Y-12794936D02*
X12985943Y-12775888D01*
X12985943Y-12775888D02*
X12976420Y-12737793D01*
X12976420Y-12737793D02*
X12976420Y-12690174D01*
X12976420Y-12690174D02*
X12985943Y-12652079D01*
X12985943Y-12652079D02*
X12995467Y-12633031D01*
X12995467Y-12633031D02*
X13004991Y-12623508D01*
X13004991Y-12623508D02*
X13024039Y-12613984D01*
X13176420Y-12813984D02*
X13176420Y-12680650D01*
X13176420Y-12699698D02*
X13185943Y-12690174D01*
X13185943Y-12690174D02*
X13204991Y-12680650D01*
X13204991Y-12680650D02*
X13233563Y-12680650D01*
X13233563Y-12680650D02*
X13252610Y-12690174D01*
X13252610Y-12690174D02*
X13262134Y-12709222D01*
X13262134Y-12709222D02*
X13262134Y-12813984D01*
X13262134Y-12709222D02*
X13271658Y-12690174D01*
X13271658Y-12690174D02*
X13290705Y-12680650D01*
X13290705Y-12680650D02*
X13319277Y-12680650D01*
X13319277Y-12680650D02*
X13338324Y-12690174D01*
X13338324Y-12690174D02*
X13347848Y-12709222D01*
X13347848Y-12709222D02*
X13347848Y-12813984D01*
X13443086Y-12813984D02*
X13443086Y-12680650D01*
X13443086Y-12699698D02*
X13452610Y-12690174D01*
X13452610Y-12690174D02*
X13471658Y-12680650D01*
X13471658Y-12680650D02*
X13500229Y-12680650D01*
X13500229Y-12680650D02*
X13519277Y-12690174D01*
X13519277Y-12690174D02*
X13528801Y-12709222D01*
X13528801Y-12709222D02*
X13528801Y-12813984D01*
X13528801Y-12709222D02*
X13538324Y-12690174D01*
X13538324Y-12690174D02*
X13557372Y-12680650D01*
X13557372Y-12680650D02*
X13585943Y-12680650D01*
X13585943Y-12680650D02*
X13604991Y-12690174D01*
X13604991Y-12690174D02*
X13614515Y-12709222D01*
X13614515Y-12709222D02*
X13614515Y-12813984D01*
X14004991Y-12604460D02*
X13833563Y-12861603D01*
X14262134Y-12613984D02*
X14281182Y-12613984D01*
X14281182Y-12613984D02*
X14300229Y-12623508D01*
X14300229Y-12623508D02*
X14309753Y-12633031D01*
X14309753Y-12633031D02*
X14319277Y-12652079D01*
X14319277Y-12652079D02*
X14328801Y-12690174D01*
X14328801Y-12690174D02*
X14328801Y-12737793D01*
X14328801Y-12737793D02*
X14319277Y-12775888D01*
X14319277Y-12775888D02*
X14309753Y-12794936D01*
X14309753Y-12794936D02*
X14300229Y-12804460D01*
X14300229Y-12804460D02*
X14281182Y-12813984D01*
X14281182Y-12813984D02*
X14262134Y-12813984D01*
X14262134Y-12813984D02*
X14243086Y-12804460D01*
X14243086Y-12804460D02*
X14233563Y-12794936D01*
X14233563Y-12794936D02*
X14224039Y-12775888D01*
X14224039Y-12775888D02*
X14214515Y-12737793D01*
X14214515Y-12737793D02*
X14214515Y-12690174D01*
X14214515Y-12690174D02*
X14224039Y-12652079D01*
X14224039Y-12652079D02*
X14233563Y-12633031D01*
X14233563Y-12633031D02*
X14243086Y-12623508D01*
X14243086Y-12623508D02*
X14262134Y-12613984D01*
X14414515Y-12794936D02*
X14424039Y-12804460D01*
X14424039Y-12804460D02*
X14414515Y-12813984D01*
X14414515Y-12813984D02*
X14404991Y-12804460D01*
X14404991Y-12804460D02*
X14414515Y-12794936D01*
X14414515Y-12794936D02*
X14414515Y-12813984D01*
X14547848Y-12613984D02*
X14566896Y-12613984D01*
X14566896Y-12613984D02*
X14585944Y-12623508D01*
X14585944Y-12623508D02*
X14595467Y-12633031D01*
X14595467Y-12633031D02*
X14604991Y-12652079D01*
X14604991Y-12652079D02*
X14614515Y-12690174D01*
X14614515Y-12690174D02*
X14614515Y-12737793D01*
X14614515Y-12737793D02*
X14604991Y-12775888D01*
X14604991Y-12775888D02*
X14595467Y-12794936D01*
X14595467Y-12794936D02*
X14585944Y-12804460D01*
X14585944Y-12804460D02*
X14566896Y-12813984D01*
X14566896Y-12813984D02*
X14547848Y-12813984D01*
X14547848Y-12813984D02*
X14528801Y-12804460D01*
X14528801Y-12804460D02*
X14519277Y-12794936D01*
X14519277Y-12794936D02*
X14509753Y-12775888D01*
X14509753Y-12775888D02*
X14500229Y-12737793D01*
X14500229Y-12737793D02*
X14500229Y-12690174D01*
X14500229Y-12690174D02*
X14509753Y-12652079D01*
X14509753Y-12652079D02*
X14519277Y-12633031D01*
X14519277Y-12633031D02*
X14528801Y-12623508D01*
X14528801Y-12623508D02*
X14547848Y-12613984D01*
X14804991Y-12813984D02*
X14690706Y-12813984D01*
X14747848Y-12813984D02*
X14747848Y-12613984D01*
X14747848Y-12613984D02*
X14728801Y-12642555D01*
X14728801Y-12642555D02*
X14709753Y-12661603D01*
X14709753Y-12661603D02*
X14690706Y-12671127D01*
X14995467Y-12813984D02*
X14881182Y-12813984D01*
X14938325Y-12813984D02*
X14938325Y-12613984D01*
X14938325Y-12613984D02*
X14919277Y-12642555D01*
X14919277Y-12642555D02*
X14900229Y-12661603D01*
X14900229Y-12661603D02*
X14881182Y-12671127D01*
X15109753Y-12699698D02*
X15090706Y-12690174D01*
X15090706Y-12690174D02*
X15081182Y-12680650D01*
X15081182Y-12680650D02*
X15071658Y-12661603D01*
X15071658Y-12661603D02*
X15071658Y-12652079D01*
X15071658Y-12652079D02*
X15081182Y-12633031D01*
X15081182Y-12633031D02*
X15090706Y-12623508D01*
X15090706Y-12623508D02*
X15109753Y-12613984D01*
X15109753Y-12613984D02*
X15147848Y-12613984D01*
X15147848Y-12613984D02*
X15166896Y-12623508D01*
X15166896Y-12623508D02*
X15176420Y-12633031D01*
X15176420Y-12633031D02*
X15185944Y-12652079D01*
X15185944Y-12652079D02*
X15185944Y-12661603D01*
X15185944Y-12661603D02*
X15176420Y-12680650D01*
X15176420Y-12680650D02*
X15166896Y-12690174D01*
X15166896Y-12690174D02*
X15147848Y-12699698D01*
X15147848Y-12699698D02*
X15109753Y-12699698D01*
X15109753Y-12699698D02*
X15090706Y-12709222D01*
X15090706Y-12709222D02*
X15081182Y-12718746D01*
X15081182Y-12718746D02*
X15071658Y-12737793D01*
X15071658Y-12737793D02*
X15071658Y-12775888D01*
X15071658Y-12775888D02*
X15081182Y-12794936D01*
X15081182Y-12794936D02*
X15090706Y-12804460D01*
X15090706Y-12804460D02*
X15109753Y-12813984D01*
X15109753Y-12813984D02*
X15147848Y-12813984D01*
X15147848Y-12813984D02*
X15166896Y-12804460D01*
X15166896Y-12804460D02*
X15176420Y-12794936D01*
X15176420Y-12794936D02*
X15185944Y-12775888D01*
X15185944Y-12775888D02*
X15185944Y-12737793D01*
X15185944Y-12737793D02*
X15176420Y-12718746D01*
X15176420Y-12718746D02*
X15166896Y-12709222D01*
X15166896Y-12709222D02*
X15147848Y-12699698D01*
X15262134Y-12613984D02*
X15262134Y-12652079D01*
X15338325Y-12613984D02*
X15338325Y-12652079D01*
X15633563Y-12890174D02*
X15624039Y-12880650D01*
X15624039Y-12880650D02*
X15604991Y-12852079D01*
X15604991Y-12852079D02*
X15595468Y-12833031D01*
X15595468Y-12833031D02*
X15585944Y-12804460D01*
X15585944Y-12804460D02*
X15576420Y-12756841D01*
X15576420Y-12756841D02*
X15576420Y-12718746D01*
X15576420Y-12718746D02*
X15585944Y-12671127D01*
X15585944Y-12671127D02*
X15595468Y-12642555D01*
X15595468Y-12642555D02*
X15604991Y-12623508D01*
X15604991Y-12623508D02*
X15624039Y-12594936D01*
X15624039Y-12594936D02*
X15633563Y-12585412D01*
X15690706Y-12613984D02*
X15814515Y-12613984D01*
X15814515Y-12613984D02*
X15747848Y-12690174D01*
X15747848Y-12690174D02*
X15776420Y-12690174D01*
X15776420Y-12690174D02*
X15795468Y-12699698D01*
X15795468Y-12699698D02*
X15804991Y-12709222D01*
X15804991Y-12709222D02*
X15814515Y-12728269D01*
X15814515Y-12728269D02*
X15814515Y-12775888D01*
X15814515Y-12775888D02*
X15804991Y-12794936D01*
X15804991Y-12794936D02*
X15795468Y-12804460D01*
X15795468Y-12804460D02*
X15776420Y-12813984D01*
X15776420Y-12813984D02*
X15719277Y-12813984D01*
X15719277Y-12813984D02*
X15700229Y-12804460D01*
X15700229Y-12804460D02*
X15690706Y-12794936D01*
X16052610Y-12813984D02*
X16052610Y-12613984D01*
X16138325Y-12813984D02*
X16138325Y-12709222D01*
X16138325Y-12709222D02*
X16128801Y-12690174D01*
X16128801Y-12690174D02*
X16109753Y-12680650D01*
X16109753Y-12680650D02*
X16081182Y-12680650D01*
X16081182Y-12680650D02*
X16062134Y-12690174D01*
X16062134Y-12690174D02*
X16052610Y-12699698D01*
X16262134Y-12813984D02*
X16243087Y-12804460D01*
X16243087Y-12804460D02*
X16233563Y-12794936D01*
X16233563Y-12794936D02*
X16224039Y-12775888D01*
X16224039Y-12775888D02*
X16224039Y-12718746D01*
X16224039Y-12718746D02*
X16233563Y-12699698D01*
X16233563Y-12699698D02*
X16243087Y-12690174D01*
X16243087Y-12690174D02*
X16262134Y-12680650D01*
X16262134Y-12680650D02*
X16290706Y-12680650D01*
X16290706Y-12680650D02*
X16309753Y-12690174D01*
X16309753Y-12690174D02*
X16319277Y-12699698D01*
X16319277Y-12699698D02*
X16328801Y-12718746D01*
X16328801Y-12718746D02*
X16328801Y-12775888D01*
X16328801Y-12775888D02*
X16319277Y-12794936D01*
X16319277Y-12794936D02*
X16309753Y-12804460D01*
X16309753Y-12804460D02*
X16290706Y-12813984D01*
X16290706Y-12813984D02*
X16262134Y-12813984D01*
X16443087Y-12813984D02*
X16424039Y-12804460D01*
X16424039Y-12804460D02*
X16414515Y-12785412D01*
X16414515Y-12785412D02*
X16414515Y-12613984D01*
X16595468Y-12804460D02*
X16576420Y-12813984D01*
X16576420Y-12813984D02*
X16538325Y-12813984D01*
X16538325Y-12813984D02*
X16519277Y-12804460D01*
X16519277Y-12804460D02*
X16509753Y-12785412D01*
X16509753Y-12785412D02*
X16509753Y-12709222D01*
X16509753Y-12709222D02*
X16519277Y-12690174D01*
X16519277Y-12690174D02*
X16538325Y-12680650D01*
X16538325Y-12680650D02*
X16576420Y-12680650D01*
X16576420Y-12680650D02*
X16595468Y-12690174D01*
X16595468Y-12690174D02*
X16604991Y-12709222D01*
X16604991Y-12709222D02*
X16604991Y-12728269D01*
X16604991Y-12728269D02*
X16509753Y-12747317D01*
X16681182Y-12804460D02*
X16700230Y-12813984D01*
X16700230Y-12813984D02*
X16738325Y-12813984D01*
X16738325Y-12813984D02*
X16757372Y-12804460D01*
X16757372Y-12804460D02*
X16766896Y-12785412D01*
X16766896Y-12785412D02*
X16766896Y-12775888D01*
X16766896Y-12775888D02*
X16757372Y-12756841D01*
X16757372Y-12756841D02*
X16738325Y-12747317D01*
X16738325Y-12747317D02*
X16709753Y-12747317D01*
X16709753Y-12747317D02*
X16690706Y-12737793D01*
X16690706Y-12737793D02*
X16681182Y-12718746D01*
X16681182Y-12718746D02*
X16681182Y-12709222D01*
X16681182Y-12709222D02*
X16690706Y-12690174D01*
X16690706Y-12690174D02*
X16709753Y-12680650D01*
X16709753Y-12680650D02*
X16738325Y-12680650D01*
X16738325Y-12680650D02*
X16757372Y-12690174D01*
X16833563Y-12890174D02*
X16843087Y-12880650D01*
X16843087Y-12880650D02*
X16862134Y-12852079D01*
X16862134Y-12852079D02*
X16871658Y-12833031D01*
X16871658Y-12833031D02*
X16881182Y-12804460D01*
X16881182Y-12804460D02*
X16890706Y-12756841D01*
X16890706Y-12756841D02*
X16890706Y-12718746D01*
X16890706Y-12718746D02*
X16881182Y-12671127D01*
X16881182Y-12671127D02*
X16871658Y-12642555D01*
X16871658Y-12642555D02*
X16862134Y-12623508D01*
X16862134Y-12623508D02*
X16843087Y-12594936D01*
X16843087Y-12594936D02*
X16833563Y-12585412D01*
D12*
X12058500Y-12986500D02*
G75*
G02*
X11982300Y-12986500I-38100J0D01*
G01*
X11982300Y-12986500D02*
G75*
G02*
X12058500Y-12986500I38100J0D01*
G01*
D11*
X12357372Y-12877984D02*
X12376420Y-12877984D01*
X12376420Y-12877984D02*
X12395467Y-12887508D01*
X12395467Y-12887508D02*
X12404991Y-12897031D01*
X12404991Y-12897031D02*
X12414515Y-12916079D01*
X12414515Y-12916079D02*
X12424039Y-12954174D01*
X12424039Y-12954174D02*
X12424039Y-13001793D01*
X12424039Y-13001793D02*
X12414515Y-13039888D01*
X12414515Y-13039888D02*
X12404991Y-13058936D01*
X12404991Y-13058936D02*
X12395467Y-13068460D01*
X12395467Y-13068460D02*
X12376420Y-13077984D01*
X12376420Y-13077984D02*
X12357372Y-13077984D01*
X12357372Y-13077984D02*
X12338324Y-13068460D01*
X12338324Y-13068460D02*
X12328801Y-13058936D01*
X12328801Y-13058936D02*
X12319277Y-13039888D01*
X12319277Y-13039888D02*
X12309753Y-13001793D01*
X12309753Y-13001793D02*
X12309753Y-12954174D01*
X12309753Y-12954174D02*
X12319277Y-12916079D01*
X12319277Y-12916079D02*
X12328801Y-12897031D01*
X12328801Y-12897031D02*
X12338324Y-12887508D01*
X12338324Y-12887508D02*
X12357372Y-12877984D01*
X12509753Y-13058936D02*
X12519277Y-13068460D01*
X12519277Y-13068460D02*
X12509753Y-13077984D01*
X12509753Y-13077984D02*
X12500229Y-13068460D01*
X12500229Y-13068460D02*
X12509753Y-13058936D01*
X12509753Y-13058936D02*
X12509753Y-13077984D01*
X12585943Y-12877984D02*
X12719277Y-12877984D01*
X12719277Y-12877984D02*
X12633562Y-13077984D01*
X12881182Y-12877984D02*
X12843086Y-12877984D01*
X12843086Y-12877984D02*
X12824039Y-12887508D01*
X12824039Y-12887508D02*
X12814515Y-12897031D01*
X12814515Y-12897031D02*
X12795467Y-12925603D01*
X12795467Y-12925603D02*
X12785943Y-12963698D01*
X12785943Y-12963698D02*
X12785943Y-13039888D01*
X12785943Y-13039888D02*
X12795467Y-13058936D01*
X12795467Y-13058936D02*
X12804991Y-13068460D01*
X12804991Y-13068460D02*
X12824039Y-13077984D01*
X12824039Y-13077984D02*
X12862134Y-13077984D01*
X12862134Y-13077984D02*
X12881182Y-13068460D01*
X12881182Y-13068460D02*
X12890705Y-13058936D01*
X12890705Y-13058936D02*
X12900229Y-13039888D01*
X12900229Y-13039888D02*
X12900229Y-12992269D01*
X12900229Y-12992269D02*
X12890705Y-12973222D01*
X12890705Y-12973222D02*
X12881182Y-12963698D01*
X12881182Y-12963698D02*
X12862134Y-12954174D01*
X12862134Y-12954174D02*
X12824039Y-12954174D01*
X12824039Y-12954174D02*
X12804991Y-12963698D01*
X12804991Y-12963698D02*
X12795467Y-12973222D01*
X12795467Y-12973222D02*
X12785943Y-12992269D01*
X12976420Y-12897031D02*
X12985943Y-12887508D01*
X12985943Y-12887508D02*
X13004991Y-12877984D01*
X13004991Y-12877984D02*
X13052610Y-12877984D01*
X13052610Y-12877984D02*
X13071658Y-12887508D01*
X13071658Y-12887508D02*
X13081182Y-12897031D01*
X13081182Y-12897031D02*
X13090705Y-12916079D01*
X13090705Y-12916079D02*
X13090705Y-12935127D01*
X13090705Y-12935127D02*
X13081182Y-12963698D01*
X13081182Y-12963698D02*
X12966896Y-13077984D01*
X12966896Y-13077984D02*
X13090705Y-13077984D01*
X13176420Y-13077984D02*
X13176420Y-12944650D01*
X13176420Y-12963698D02*
X13185943Y-12954174D01*
X13185943Y-12954174D02*
X13204991Y-12944650D01*
X13204991Y-12944650D02*
X13233563Y-12944650D01*
X13233563Y-12944650D02*
X13252610Y-12954174D01*
X13252610Y-12954174D02*
X13262134Y-12973222D01*
X13262134Y-12973222D02*
X13262134Y-13077984D01*
X13262134Y-12973222D02*
X13271658Y-12954174D01*
X13271658Y-12954174D02*
X13290705Y-12944650D01*
X13290705Y-12944650D02*
X13319277Y-12944650D01*
X13319277Y-12944650D02*
X13338324Y-12954174D01*
X13338324Y-12954174D02*
X13347848Y-12973222D01*
X13347848Y-12973222D02*
X13347848Y-13077984D01*
X13443086Y-13077984D02*
X13443086Y-12944650D01*
X13443086Y-12963698D02*
X13452610Y-12954174D01*
X13452610Y-12954174D02*
X13471658Y-12944650D01*
X13471658Y-12944650D02*
X13500229Y-12944650D01*
X13500229Y-12944650D02*
X13519277Y-12954174D01*
X13519277Y-12954174D02*
X13528801Y-12973222D01*
X13528801Y-12973222D02*
X13528801Y-13077984D01*
X13528801Y-12973222D02*
X13538324Y-12954174D01*
X13538324Y-12954174D02*
X13557372Y-12944650D01*
X13557372Y-12944650D02*
X13585943Y-12944650D01*
X13585943Y-12944650D02*
X13604991Y-12954174D01*
X13604991Y-12954174D02*
X13614515Y-12973222D01*
X13614515Y-12973222D02*
X13614515Y-13077984D01*
X14004991Y-12868460D02*
X13833563Y-13125603D01*
X14262134Y-12877984D02*
X14281182Y-12877984D01*
X14281182Y-12877984D02*
X14300229Y-12887508D01*
X14300229Y-12887508D02*
X14309753Y-12897031D01*
X14309753Y-12897031D02*
X14319277Y-12916079D01*
X14319277Y-12916079D02*
X14328801Y-12954174D01*
X14328801Y-12954174D02*
X14328801Y-13001793D01*
X14328801Y-13001793D02*
X14319277Y-13039888D01*
X14319277Y-13039888D02*
X14309753Y-13058936D01*
X14309753Y-13058936D02*
X14300229Y-13068460D01*
X14300229Y-13068460D02*
X14281182Y-13077984D01*
X14281182Y-13077984D02*
X14262134Y-13077984D01*
X14262134Y-13077984D02*
X14243086Y-13068460D01*
X14243086Y-13068460D02*
X14233563Y-13058936D01*
X14233563Y-13058936D02*
X14224039Y-13039888D01*
X14224039Y-13039888D02*
X14214515Y-13001793D01*
X14214515Y-13001793D02*
X14214515Y-12954174D01*
X14214515Y-12954174D02*
X14224039Y-12916079D01*
X14224039Y-12916079D02*
X14233563Y-12897031D01*
X14233563Y-12897031D02*
X14243086Y-12887508D01*
X14243086Y-12887508D02*
X14262134Y-12877984D01*
X14414515Y-13058936D02*
X14424039Y-13068460D01*
X14424039Y-13068460D02*
X14414515Y-13077984D01*
X14414515Y-13077984D02*
X14404991Y-13068460D01*
X14404991Y-13068460D02*
X14414515Y-13058936D01*
X14414515Y-13058936D02*
X14414515Y-13077984D01*
X14547848Y-12877984D02*
X14566896Y-12877984D01*
X14566896Y-12877984D02*
X14585944Y-12887508D01*
X14585944Y-12887508D02*
X14595467Y-12897031D01*
X14595467Y-12897031D02*
X14604991Y-12916079D01*
X14604991Y-12916079D02*
X14614515Y-12954174D01*
X14614515Y-12954174D02*
X14614515Y-13001793D01*
X14614515Y-13001793D02*
X14604991Y-13039888D01*
X14604991Y-13039888D02*
X14595467Y-13058936D01*
X14595467Y-13058936D02*
X14585944Y-13068460D01*
X14585944Y-13068460D02*
X14566896Y-13077984D01*
X14566896Y-13077984D02*
X14547848Y-13077984D01*
X14547848Y-13077984D02*
X14528801Y-13068460D01*
X14528801Y-13068460D02*
X14519277Y-13058936D01*
X14519277Y-13058936D02*
X14509753Y-13039888D01*
X14509753Y-13039888D02*
X14500229Y-13001793D01*
X14500229Y-13001793D02*
X14500229Y-12954174D01*
X14500229Y-12954174D02*
X14509753Y-12916079D01*
X14509753Y-12916079D02*
X14519277Y-12897031D01*
X14519277Y-12897031D02*
X14528801Y-12887508D01*
X14528801Y-12887508D02*
X14547848Y-12877984D01*
X14681182Y-12877984D02*
X14804991Y-12877984D01*
X14804991Y-12877984D02*
X14738325Y-12954174D01*
X14738325Y-12954174D02*
X14766896Y-12954174D01*
X14766896Y-12954174D02*
X14785944Y-12963698D01*
X14785944Y-12963698D02*
X14795467Y-12973222D01*
X14795467Y-12973222D02*
X14804991Y-12992269D01*
X14804991Y-12992269D02*
X14804991Y-13039888D01*
X14804991Y-13039888D02*
X14795467Y-13058936D01*
X14795467Y-13058936D02*
X14785944Y-13068460D01*
X14785944Y-13068460D02*
X14766896Y-13077984D01*
X14766896Y-13077984D02*
X14709753Y-13077984D01*
X14709753Y-13077984D02*
X14690706Y-13068460D01*
X14690706Y-13068460D02*
X14681182Y-13058936D01*
X14928801Y-12877984D02*
X14947848Y-12877984D01*
X14947848Y-12877984D02*
X14966896Y-12887508D01*
X14966896Y-12887508D02*
X14976420Y-12897031D01*
X14976420Y-12897031D02*
X14985944Y-12916079D01*
X14985944Y-12916079D02*
X14995467Y-12954174D01*
X14995467Y-12954174D02*
X14995467Y-13001793D01*
X14995467Y-13001793D02*
X14985944Y-13039888D01*
X14985944Y-13039888D02*
X14976420Y-13058936D01*
X14976420Y-13058936D02*
X14966896Y-13068460D01*
X14966896Y-13068460D02*
X14947848Y-13077984D01*
X14947848Y-13077984D02*
X14928801Y-13077984D01*
X14928801Y-13077984D02*
X14909753Y-13068460D01*
X14909753Y-13068460D02*
X14900229Y-13058936D01*
X14900229Y-13058936D02*
X14890706Y-13039888D01*
X14890706Y-13039888D02*
X14881182Y-13001793D01*
X14881182Y-13001793D02*
X14881182Y-12954174D01*
X14881182Y-12954174D02*
X14890706Y-12916079D01*
X14890706Y-12916079D02*
X14900229Y-12897031D01*
X14900229Y-12897031D02*
X14909753Y-12887508D01*
X14909753Y-12887508D02*
X14928801Y-12877984D01*
X15119277Y-12877984D02*
X15138325Y-12877984D01*
X15138325Y-12877984D02*
X15157372Y-12887508D01*
X15157372Y-12887508D02*
X15166896Y-12897031D01*
X15166896Y-12897031D02*
X15176420Y-12916079D01*
X15176420Y-12916079D02*
X15185944Y-12954174D01*
X15185944Y-12954174D02*
X15185944Y-13001793D01*
X15185944Y-13001793D02*
X15176420Y-13039888D01*
X15176420Y-13039888D02*
X15166896Y-13058936D01*
X15166896Y-13058936D02*
X15157372Y-13068460D01*
X15157372Y-13068460D02*
X15138325Y-13077984D01*
X15138325Y-13077984D02*
X15119277Y-13077984D01*
X15119277Y-13077984D02*
X15100229Y-13068460D01*
X15100229Y-13068460D02*
X15090706Y-13058936D01*
X15090706Y-13058936D02*
X15081182Y-13039888D01*
X15081182Y-13039888D02*
X15071658Y-13001793D01*
X15071658Y-13001793D02*
X15071658Y-12954174D01*
X15071658Y-12954174D02*
X15081182Y-12916079D01*
X15081182Y-12916079D02*
X15090706Y-12897031D01*
X15090706Y-12897031D02*
X15100229Y-12887508D01*
X15100229Y-12887508D02*
X15119277Y-12877984D01*
X15262134Y-12877984D02*
X15262134Y-12916079D01*
X15338325Y-12877984D02*
X15338325Y-12916079D01*
X15633563Y-13154174D02*
X15624039Y-13144650D01*
X15624039Y-13144650D02*
X15604991Y-13116079D01*
X15604991Y-13116079D02*
X15595468Y-13097031D01*
X15595468Y-13097031D02*
X15585944Y-13068460D01*
X15585944Y-13068460D02*
X15576420Y-13020841D01*
X15576420Y-13020841D02*
X15576420Y-12982746D01*
X15576420Y-12982746D02*
X15585944Y-12935127D01*
X15585944Y-12935127D02*
X15595468Y-12906555D01*
X15595468Y-12906555D02*
X15604991Y-12887508D01*
X15604991Y-12887508D02*
X15624039Y-12858936D01*
X15624039Y-12858936D02*
X15633563Y-12849412D01*
X15795468Y-12944650D02*
X15795468Y-13077984D01*
X15747848Y-12868460D02*
X15700229Y-13011317D01*
X15700229Y-13011317D02*
X15824039Y-13011317D01*
X15985944Y-12944650D02*
X15985944Y-13077984D01*
X15938325Y-12868460D02*
X15890706Y-13011317D01*
X15890706Y-13011317D02*
X16014515Y-13011317D01*
X16243087Y-13077984D02*
X16243087Y-12877984D01*
X16328801Y-13077984D02*
X16328801Y-12973222D01*
X16328801Y-12973222D02*
X16319277Y-12954174D01*
X16319277Y-12954174D02*
X16300230Y-12944650D01*
X16300230Y-12944650D02*
X16271658Y-12944650D01*
X16271658Y-12944650D02*
X16252610Y-12954174D01*
X16252610Y-12954174D02*
X16243087Y-12963698D01*
X16452610Y-13077984D02*
X16433563Y-13068460D01*
X16433563Y-13068460D02*
X16424039Y-13058936D01*
X16424039Y-13058936D02*
X16414515Y-13039888D01*
X16414515Y-13039888D02*
X16414515Y-12982746D01*
X16414515Y-12982746D02*
X16424039Y-12963698D01*
X16424039Y-12963698D02*
X16433563Y-12954174D01*
X16433563Y-12954174D02*
X16452610Y-12944650D01*
X16452610Y-12944650D02*
X16481182Y-12944650D01*
X16481182Y-12944650D02*
X16500230Y-12954174D01*
X16500230Y-12954174D02*
X16509753Y-12963698D01*
X16509753Y-12963698D02*
X16519277Y-12982746D01*
X16519277Y-12982746D02*
X16519277Y-13039888D01*
X16519277Y-13039888D02*
X16509753Y-13058936D01*
X16509753Y-13058936D02*
X16500230Y-13068460D01*
X16500230Y-13068460D02*
X16481182Y-13077984D01*
X16481182Y-13077984D02*
X16452610Y-13077984D01*
X16633563Y-13077984D02*
X16614515Y-13068460D01*
X16614515Y-13068460D02*
X16604991Y-13049412D01*
X16604991Y-13049412D02*
X16604991Y-12877984D01*
X16785944Y-13068460D02*
X16766896Y-13077984D01*
X16766896Y-13077984D02*
X16728801Y-13077984D01*
X16728801Y-13077984D02*
X16709753Y-13068460D01*
X16709753Y-13068460D02*
X16700230Y-13049412D01*
X16700230Y-13049412D02*
X16700230Y-12973222D01*
X16700230Y-12973222D02*
X16709753Y-12954174D01*
X16709753Y-12954174D02*
X16728801Y-12944650D01*
X16728801Y-12944650D02*
X16766896Y-12944650D01*
X16766896Y-12944650D02*
X16785944Y-12954174D01*
X16785944Y-12954174D02*
X16795468Y-12973222D01*
X16795468Y-12973222D02*
X16795468Y-12992269D01*
X16795468Y-12992269D02*
X16700230Y-13011317D01*
X16871658Y-13068460D02*
X16890706Y-13077984D01*
X16890706Y-13077984D02*
X16928801Y-13077984D01*
X16928801Y-13077984D02*
X16947849Y-13068460D01*
X16947849Y-13068460D02*
X16957373Y-13049412D01*
X16957373Y-13049412D02*
X16957373Y-13039888D01*
X16957373Y-13039888D02*
X16947849Y-13020841D01*
X16947849Y-13020841D02*
X16928801Y-13011317D01*
X16928801Y-13011317D02*
X16900230Y-13011317D01*
X16900230Y-13011317D02*
X16881182Y-13001793D01*
X16881182Y-13001793D02*
X16871658Y-12982746D01*
X16871658Y-12982746D02*
X16871658Y-12973222D01*
X16871658Y-12973222D02*
X16881182Y-12954174D01*
X16881182Y-12954174D02*
X16900230Y-12944650D01*
X16900230Y-12944650D02*
X16928801Y-12944650D01*
X16928801Y-12944650D02*
X16947849Y-12954174D01*
X17024039Y-13154174D02*
X17033563Y-13144650D01*
X17033563Y-13144650D02*
X17052611Y-13116079D01*
X17052611Y-13116079D02*
X17062134Y-13097031D01*
X17062134Y-13097031D02*
X17071658Y-13068460D01*
X17071658Y-13068460D02*
X17081182Y-13020841D01*
X17081182Y-13020841D02*
X17081182Y-12982746D01*
X17081182Y-12982746D02*
X17071658Y-12935127D01*
X17071658Y-12935127D02*
X17062134Y-12906555D01*
X17062134Y-12906555D02*
X17052611Y-12887508D01*
X17052611Y-12887508D02*
X17033563Y-12858936D01*
X17033563Y-12858936D02*
X17024039Y-12849412D01*
D12*
X12018500Y-13210500D02*
X12018500Y-13290500D01*
X11978500Y-13250500D02*
X12058500Y-13250500D01*
D11*
X12357372Y-13141984D02*
X12376420Y-13141984D01*
X12376420Y-13141984D02*
X12395467Y-13151508D01*
X12395467Y-13151508D02*
X12404991Y-13161031D01*
X12404991Y-13161031D02*
X12414515Y-13180079D01*
X12414515Y-13180079D02*
X12424039Y-13218174D01*
X12424039Y-13218174D02*
X12424039Y-13265793D01*
X12424039Y-13265793D02*
X12414515Y-13303888D01*
X12414515Y-13303888D02*
X12404991Y-13322936D01*
X12404991Y-13322936D02*
X12395467Y-13332460D01*
X12395467Y-13332460D02*
X12376420Y-13341984D01*
X12376420Y-13341984D02*
X12357372Y-13341984D01*
X12357372Y-13341984D02*
X12338324Y-13332460D01*
X12338324Y-13332460D02*
X12328801Y-13322936D01*
X12328801Y-13322936D02*
X12319277Y-13303888D01*
X12319277Y-13303888D02*
X12309753Y-13265793D01*
X12309753Y-13265793D02*
X12309753Y-13218174D01*
X12309753Y-13218174D02*
X12319277Y-13180079D01*
X12319277Y-13180079D02*
X12328801Y-13161031D01*
X12328801Y-13161031D02*
X12338324Y-13151508D01*
X12338324Y-13151508D02*
X12357372Y-13141984D01*
X12509753Y-13322936D02*
X12519277Y-13332460D01*
X12519277Y-13332460D02*
X12509753Y-13341984D01*
X12509753Y-13341984D02*
X12500229Y-13332460D01*
X12500229Y-13332460D02*
X12509753Y-13322936D01*
X12509753Y-13322936D02*
X12509753Y-13341984D01*
X12633562Y-13227698D02*
X12614515Y-13218174D01*
X12614515Y-13218174D02*
X12604991Y-13208650D01*
X12604991Y-13208650D02*
X12595467Y-13189603D01*
X12595467Y-13189603D02*
X12595467Y-13180079D01*
X12595467Y-13180079D02*
X12604991Y-13161031D01*
X12604991Y-13161031D02*
X12614515Y-13151508D01*
X12614515Y-13151508D02*
X12633562Y-13141984D01*
X12633562Y-13141984D02*
X12671658Y-13141984D01*
X12671658Y-13141984D02*
X12690705Y-13151508D01*
X12690705Y-13151508D02*
X12700229Y-13161031D01*
X12700229Y-13161031D02*
X12709753Y-13180079D01*
X12709753Y-13180079D02*
X12709753Y-13189603D01*
X12709753Y-13189603D02*
X12700229Y-13208650D01*
X12700229Y-13208650D02*
X12690705Y-13218174D01*
X12690705Y-13218174D02*
X12671658Y-13227698D01*
X12671658Y-13227698D02*
X12633562Y-13227698D01*
X12633562Y-13227698D02*
X12614515Y-13237222D01*
X12614515Y-13237222D02*
X12604991Y-13246746D01*
X12604991Y-13246746D02*
X12595467Y-13265793D01*
X12595467Y-13265793D02*
X12595467Y-13303888D01*
X12595467Y-13303888D02*
X12604991Y-13322936D01*
X12604991Y-13322936D02*
X12614515Y-13332460D01*
X12614515Y-13332460D02*
X12633562Y-13341984D01*
X12633562Y-13341984D02*
X12671658Y-13341984D01*
X12671658Y-13341984D02*
X12690705Y-13332460D01*
X12690705Y-13332460D02*
X12700229Y-13322936D01*
X12700229Y-13322936D02*
X12709753Y-13303888D01*
X12709753Y-13303888D02*
X12709753Y-13265793D01*
X12709753Y-13265793D02*
X12700229Y-13246746D01*
X12700229Y-13246746D02*
X12690705Y-13237222D01*
X12690705Y-13237222D02*
X12671658Y-13227698D01*
X12833562Y-13141984D02*
X12852610Y-13141984D01*
X12852610Y-13141984D02*
X12871658Y-13151508D01*
X12871658Y-13151508D02*
X12881182Y-13161031D01*
X12881182Y-13161031D02*
X12890705Y-13180079D01*
X12890705Y-13180079D02*
X12900229Y-13218174D01*
X12900229Y-13218174D02*
X12900229Y-13265793D01*
X12900229Y-13265793D02*
X12890705Y-13303888D01*
X12890705Y-13303888D02*
X12881182Y-13322936D01*
X12881182Y-13322936D02*
X12871658Y-13332460D01*
X12871658Y-13332460D02*
X12852610Y-13341984D01*
X12852610Y-13341984D02*
X12833562Y-13341984D01*
X12833562Y-13341984D02*
X12814515Y-13332460D01*
X12814515Y-13332460D02*
X12804991Y-13322936D01*
X12804991Y-13322936D02*
X12795467Y-13303888D01*
X12795467Y-13303888D02*
X12785943Y-13265793D01*
X12785943Y-13265793D02*
X12785943Y-13218174D01*
X12785943Y-13218174D02*
X12795467Y-13180079D01*
X12795467Y-13180079D02*
X12804991Y-13161031D01*
X12804991Y-13161031D02*
X12814515Y-13151508D01*
X12814515Y-13151508D02*
X12833562Y-13141984D01*
X13024039Y-13141984D02*
X13043086Y-13141984D01*
X13043086Y-13141984D02*
X13062134Y-13151508D01*
X13062134Y-13151508D02*
X13071658Y-13161031D01*
X13071658Y-13161031D02*
X13081182Y-13180079D01*
X13081182Y-13180079D02*
X13090705Y-13218174D01*
X13090705Y-13218174D02*
X13090705Y-13265793D01*
X13090705Y-13265793D02*
X13081182Y-13303888D01*
X13081182Y-13303888D02*
X13071658Y-13322936D01*
X13071658Y-13322936D02*
X13062134Y-13332460D01*
X13062134Y-13332460D02*
X13043086Y-13341984D01*
X13043086Y-13341984D02*
X13024039Y-13341984D01*
X13024039Y-13341984D02*
X13004991Y-13332460D01*
X13004991Y-13332460D02*
X12995467Y-13322936D01*
X12995467Y-13322936D02*
X12985943Y-13303888D01*
X12985943Y-13303888D02*
X12976420Y-13265793D01*
X12976420Y-13265793D02*
X12976420Y-13218174D01*
X12976420Y-13218174D02*
X12985943Y-13180079D01*
X12985943Y-13180079D02*
X12995467Y-13161031D01*
X12995467Y-13161031D02*
X13004991Y-13151508D01*
X13004991Y-13151508D02*
X13024039Y-13141984D01*
X13176420Y-13341984D02*
X13176420Y-13208650D01*
X13176420Y-13227698D02*
X13185943Y-13218174D01*
X13185943Y-13218174D02*
X13204991Y-13208650D01*
X13204991Y-13208650D02*
X13233563Y-13208650D01*
X13233563Y-13208650D02*
X13252610Y-13218174D01*
X13252610Y-13218174D02*
X13262134Y-13237222D01*
X13262134Y-13237222D02*
X13262134Y-13341984D01*
X13262134Y-13237222D02*
X13271658Y-13218174D01*
X13271658Y-13218174D02*
X13290705Y-13208650D01*
X13290705Y-13208650D02*
X13319277Y-13208650D01*
X13319277Y-13208650D02*
X13338324Y-13218174D01*
X13338324Y-13218174D02*
X13347848Y-13237222D01*
X13347848Y-13237222D02*
X13347848Y-13341984D01*
X13443086Y-13341984D02*
X13443086Y-13208650D01*
X13443086Y-13227698D02*
X13452610Y-13218174D01*
X13452610Y-13218174D02*
X13471658Y-13208650D01*
X13471658Y-13208650D02*
X13500229Y-13208650D01*
X13500229Y-13208650D02*
X13519277Y-13218174D01*
X13519277Y-13218174D02*
X13528801Y-13237222D01*
X13528801Y-13237222D02*
X13528801Y-13341984D01*
X13528801Y-13237222D02*
X13538324Y-13218174D01*
X13538324Y-13218174D02*
X13557372Y-13208650D01*
X13557372Y-13208650D02*
X13585943Y-13208650D01*
X13585943Y-13208650D02*
X13604991Y-13218174D01*
X13604991Y-13218174D02*
X13614515Y-13237222D01*
X13614515Y-13237222D02*
X13614515Y-13341984D01*
X14004991Y-13132460D02*
X13833563Y-13389603D01*
X14262134Y-13141984D02*
X14281182Y-13141984D01*
X14281182Y-13141984D02*
X14300229Y-13151508D01*
X14300229Y-13151508D02*
X14309753Y-13161031D01*
X14309753Y-13161031D02*
X14319277Y-13180079D01*
X14319277Y-13180079D02*
X14328801Y-13218174D01*
X14328801Y-13218174D02*
X14328801Y-13265793D01*
X14328801Y-13265793D02*
X14319277Y-13303888D01*
X14319277Y-13303888D02*
X14309753Y-13322936D01*
X14309753Y-13322936D02*
X14300229Y-13332460D01*
X14300229Y-13332460D02*
X14281182Y-13341984D01*
X14281182Y-13341984D02*
X14262134Y-13341984D01*
X14262134Y-13341984D02*
X14243086Y-13332460D01*
X14243086Y-13332460D02*
X14233563Y-13322936D01*
X14233563Y-13322936D02*
X14224039Y-13303888D01*
X14224039Y-13303888D02*
X14214515Y-13265793D01*
X14214515Y-13265793D02*
X14214515Y-13218174D01*
X14214515Y-13218174D02*
X14224039Y-13180079D01*
X14224039Y-13180079D02*
X14233563Y-13161031D01*
X14233563Y-13161031D02*
X14243086Y-13151508D01*
X14243086Y-13151508D02*
X14262134Y-13141984D01*
X14414515Y-13322936D02*
X14424039Y-13332460D01*
X14424039Y-13332460D02*
X14414515Y-13341984D01*
X14414515Y-13341984D02*
X14404991Y-13332460D01*
X14404991Y-13332460D02*
X14414515Y-13322936D01*
X14414515Y-13322936D02*
X14414515Y-13341984D01*
X14547848Y-13141984D02*
X14566896Y-13141984D01*
X14566896Y-13141984D02*
X14585944Y-13151508D01*
X14585944Y-13151508D02*
X14595467Y-13161031D01*
X14595467Y-13161031D02*
X14604991Y-13180079D01*
X14604991Y-13180079D02*
X14614515Y-13218174D01*
X14614515Y-13218174D02*
X14614515Y-13265793D01*
X14614515Y-13265793D02*
X14604991Y-13303888D01*
X14604991Y-13303888D02*
X14595467Y-13322936D01*
X14595467Y-13322936D02*
X14585944Y-13332460D01*
X14585944Y-13332460D02*
X14566896Y-13341984D01*
X14566896Y-13341984D02*
X14547848Y-13341984D01*
X14547848Y-13341984D02*
X14528801Y-13332460D01*
X14528801Y-13332460D02*
X14519277Y-13322936D01*
X14519277Y-13322936D02*
X14509753Y-13303888D01*
X14509753Y-13303888D02*
X14500229Y-13265793D01*
X14500229Y-13265793D02*
X14500229Y-13218174D01*
X14500229Y-13218174D02*
X14509753Y-13180079D01*
X14509753Y-13180079D02*
X14519277Y-13161031D01*
X14519277Y-13161031D02*
X14528801Y-13151508D01*
X14528801Y-13151508D02*
X14547848Y-13141984D01*
X14681182Y-13141984D02*
X14804991Y-13141984D01*
X14804991Y-13141984D02*
X14738325Y-13218174D01*
X14738325Y-13218174D02*
X14766896Y-13218174D01*
X14766896Y-13218174D02*
X14785944Y-13227698D01*
X14785944Y-13227698D02*
X14795467Y-13237222D01*
X14795467Y-13237222D02*
X14804991Y-13256269D01*
X14804991Y-13256269D02*
X14804991Y-13303888D01*
X14804991Y-13303888D02*
X14795467Y-13322936D01*
X14795467Y-13322936D02*
X14785944Y-13332460D01*
X14785944Y-13332460D02*
X14766896Y-13341984D01*
X14766896Y-13341984D02*
X14709753Y-13341984D01*
X14709753Y-13341984D02*
X14690706Y-13332460D01*
X14690706Y-13332460D02*
X14681182Y-13322936D01*
X14995467Y-13341984D02*
X14881182Y-13341984D01*
X14938325Y-13341984D02*
X14938325Y-13141984D01*
X14938325Y-13141984D02*
X14919277Y-13170555D01*
X14919277Y-13170555D02*
X14900229Y-13189603D01*
X14900229Y-13189603D02*
X14881182Y-13199127D01*
X15176420Y-13141984D02*
X15081182Y-13141984D01*
X15081182Y-13141984D02*
X15071658Y-13237222D01*
X15071658Y-13237222D02*
X15081182Y-13227698D01*
X15081182Y-13227698D02*
X15100229Y-13218174D01*
X15100229Y-13218174D02*
X15147848Y-13218174D01*
X15147848Y-13218174D02*
X15166896Y-13227698D01*
X15166896Y-13227698D02*
X15176420Y-13237222D01*
X15176420Y-13237222D02*
X15185944Y-13256269D01*
X15185944Y-13256269D02*
X15185944Y-13303888D01*
X15185944Y-13303888D02*
X15176420Y-13322936D01*
X15176420Y-13322936D02*
X15166896Y-13332460D01*
X15166896Y-13332460D02*
X15147848Y-13341984D01*
X15147848Y-13341984D02*
X15100229Y-13341984D01*
X15100229Y-13341984D02*
X15081182Y-13332460D01*
X15081182Y-13332460D02*
X15071658Y-13322936D01*
X15262134Y-13141984D02*
X15262134Y-13180079D01*
X15338325Y-13141984D02*
X15338325Y-13180079D01*
X15633563Y-13418174D02*
X15624039Y-13408650D01*
X15624039Y-13408650D02*
X15604991Y-13380079D01*
X15604991Y-13380079D02*
X15595468Y-13361031D01*
X15595468Y-13361031D02*
X15585944Y-13332460D01*
X15585944Y-13332460D02*
X15576420Y-13284841D01*
X15576420Y-13284841D02*
X15576420Y-13246746D01*
X15576420Y-13246746D02*
X15585944Y-13199127D01*
X15585944Y-13199127D02*
X15595468Y-13170555D01*
X15595468Y-13170555D02*
X15604991Y-13151508D01*
X15604991Y-13151508D02*
X15624039Y-13122936D01*
X15624039Y-13122936D02*
X15633563Y-13113412D01*
X15804991Y-13141984D02*
X15709753Y-13141984D01*
X15709753Y-13141984D02*
X15700229Y-13237222D01*
X15700229Y-13237222D02*
X15709753Y-13227698D01*
X15709753Y-13227698D02*
X15728801Y-13218174D01*
X15728801Y-13218174D02*
X15776420Y-13218174D01*
X15776420Y-13218174D02*
X15795468Y-13227698D01*
X15795468Y-13227698D02*
X15804991Y-13237222D01*
X15804991Y-13237222D02*
X15814515Y-13256269D01*
X15814515Y-13256269D02*
X15814515Y-13303888D01*
X15814515Y-13303888D02*
X15804991Y-13322936D01*
X15804991Y-13322936D02*
X15795468Y-13332460D01*
X15795468Y-13332460D02*
X15776420Y-13341984D01*
X15776420Y-13341984D02*
X15728801Y-13341984D01*
X15728801Y-13341984D02*
X15709753Y-13332460D01*
X15709753Y-13332460D02*
X15700229Y-13322936D01*
X15985944Y-13141984D02*
X15947848Y-13141984D01*
X15947848Y-13141984D02*
X15928801Y-13151508D01*
X15928801Y-13151508D02*
X15919277Y-13161031D01*
X15919277Y-13161031D02*
X15900229Y-13189603D01*
X15900229Y-13189603D02*
X15890706Y-13227698D01*
X15890706Y-13227698D02*
X15890706Y-13303888D01*
X15890706Y-13303888D02*
X15900229Y-13322936D01*
X15900229Y-13322936D02*
X15909753Y-13332460D01*
X15909753Y-13332460D02*
X15928801Y-13341984D01*
X15928801Y-13341984D02*
X15966896Y-13341984D01*
X15966896Y-13341984D02*
X15985944Y-13332460D01*
X15985944Y-13332460D02*
X15995468Y-13322936D01*
X15995468Y-13322936D02*
X16004991Y-13303888D01*
X16004991Y-13303888D02*
X16004991Y-13256269D01*
X16004991Y-13256269D02*
X15995468Y-13237222D01*
X15995468Y-13237222D02*
X15985944Y-13227698D01*
X15985944Y-13227698D02*
X15966896Y-13218174D01*
X15966896Y-13218174D02*
X15928801Y-13218174D01*
X15928801Y-13218174D02*
X15909753Y-13227698D01*
X15909753Y-13227698D02*
X15900229Y-13237222D01*
X15900229Y-13237222D02*
X15890706Y-13256269D01*
X16243087Y-13341984D02*
X16243087Y-13141984D01*
X16328801Y-13341984D02*
X16328801Y-13237222D01*
X16328801Y-13237222D02*
X16319277Y-13218174D01*
X16319277Y-13218174D02*
X16300230Y-13208650D01*
X16300230Y-13208650D02*
X16271658Y-13208650D01*
X16271658Y-13208650D02*
X16252610Y-13218174D01*
X16252610Y-13218174D02*
X16243087Y-13227698D01*
X16452610Y-13341984D02*
X16433563Y-13332460D01*
X16433563Y-13332460D02*
X16424039Y-13322936D01*
X16424039Y-13322936D02*
X16414515Y-13303888D01*
X16414515Y-13303888D02*
X16414515Y-13246746D01*
X16414515Y-13246746D02*
X16424039Y-13227698D01*
X16424039Y-13227698D02*
X16433563Y-13218174D01*
X16433563Y-13218174D02*
X16452610Y-13208650D01*
X16452610Y-13208650D02*
X16481182Y-13208650D01*
X16481182Y-13208650D02*
X16500230Y-13218174D01*
X16500230Y-13218174D02*
X16509753Y-13227698D01*
X16509753Y-13227698D02*
X16519277Y-13246746D01*
X16519277Y-13246746D02*
X16519277Y-13303888D01*
X16519277Y-13303888D02*
X16509753Y-13322936D01*
X16509753Y-13322936D02*
X16500230Y-13332460D01*
X16500230Y-13332460D02*
X16481182Y-13341984D01*
X16481182Y-13341984D02*
X16452610Y-13341984D01*
X16633563Y-13341984D02*
X16614515Y-13332460D01*
X16614515Y-13332460D02*
X16604991Y-13313412D01*
X16604991Y-13313412D02*
X16604991Y-13141984D01*
X16785944Y-13332460D02*
X16766896Y-13341984D01*
X16766896Y-13341984D02*
X16728801Y-13341984D01*
X16728801Y-13341984D02*
X16709753Y-13332460D01*
X16709753Y-13332460D02*
X16700230Y-13313412D01*
X16700230Y-13313412D02*
X16700230Y-13237222D01*
X16700230Y-13237222D02*
X16709753Y-13218174D01*
X16709753Y-13218174D02*
X16728801Y-13208650D01*
X16728801Y-13208650D02*
X16766896Y-13208650D01*
X16766896Y-13208650D02*
X16785944Y-13218174D01*
X16785944Y-13218174D02*
X16795468Y-13237222D01*
X16795468Y-13237222D02*
X16795468Y-13256269D01*
X16795468Y-13256269D02*
X16700230Y-13275317D01*
X16871658Y-13332460D02*
X16890706Y-13341984D01*
X16890706Y-13341984D02*
X16928801Y-13341984D01*
X16928801Y-13341984D02*
X16947849Y-13332460D01*
X16947849Y-13332460D02*
X16957373Y-13313412D01*
X16957373Y-13313412D02*
X16957373Y-13303888D01*
X16957373Y-13303888D02*
X16947849Y-13284841D01*
X16947849Y-13284841D02*
X16928801Y-13275317D01*
X16928801Y-13275317D02*
X16900230Y-13275317D01*
X16900230Y-13275317D02*
X16881182Y-13265793D01*
X16881182Y-13265793D02*
X16871658Y-13246746D01*
X16871658Y-13246746D02*
X16871658Y-13237222D01*
X16871658Y-13237222D02*
X16881182Y-13218174D01*
X16881182Y-13218174D02*
X16900230Y-13208650D01*
X16900230Y-13208650D02*
X16928801Y-13208650D01*
X16928801Y-13208650D02*
X16947849Y-13218174D01*
X17024039Y-13418174D02*
X17033563Y-13408650D01*
X17033563Y-13408650D02*
X17052611Y-13380079D01*
X17052611Y-13380079D02*
X17062134Y-13361031D01*
X17062134Y-13361031D02*
X17071658Y-13332460D01*
X17071658Y-13332460D02*
X17081182Y-13284841D01*
X17081182Y-13284841D02*
X17081182Y-13246746D01*
X17081182Y-13246746D02*
X17071658Y-13199127D01*
X17071658Y-13199127D02*
X17062134Y-13170555D01*
X17062134Y-13170555D02*
X17052611Y-13151508D01*
X17052611Y-13151508D02*
X17033563Y-13122936D01*
X17033563Y-13122936D02*
X17024039Y-13113412D01*
D12*
X12043856Y-13549856D02*
X12043856Y-13479144D01*
X11973144Y-13479144D01*
X11973144Y-13549856D01*
X12043856Y-13549856D01*
D11*
X12424039Y-13605984D02*
X12309753Y-13605984D01*
X12366896Y-13605984D02*
X12366896Y-13405984D01*
X12366896Y-13405984D02*
X12347848Y-13434555D01*
X12347848Y-13434555D02*
X12328801Y-13453603D01*
X12328801Y-13453603D02*
X12309753Y-13463127D01*
X12509753Y-13586936D02*
X12519277Y-13596460D01*
X12519277Y-13596460D02*
X12509753Y-13605984D01*
X12509753Y-13605984D02*
X12500229Y-13596460D01*
X12500229Y-13596460D02*
X12509753Y-13586936D01*
X12509753Y-13586936D02*
X12509753Y-13605984D01*
X12643086Y-13405984D02*
X12662134Y-13405984D01*
X12662134Y-13405984D02*
X12681182Y-13415508D01*
X12681182Y-13415508D02*
X12690705Y-13425031D01*
X12690705Y-13425031D02*
X12700229Y-13444079D01*
X12700229Y-13444079D02*
X12709753Y-13482174D01*
X12709753Y-13482174D02*
X12709753Y-13529793D01*
X12709753Y-13529793D02*
X12700229Y-13567888D01*
X12700229Y-13567888D02*
X12690705Y-13586936D01*
X12690705Y-13586936D02*
X12681182Y-13596460D01*
X12681182Y-13596460D02*
X12662134Y-13605984D01*
X12662134Y-13605984D02*
X12643086Y-13605984D01*
X12643086Y-13605984D02*
X12624039Y-13596460D01*
X12624039Y-13596460D02*
X12614515Y-13586936D01*
X12614515Y-13586936D02*
X12604991Y-13567888D01*
X12604991Y-13567888D02*
X12595467Y-13529793D01*
X12595467Y-13529793D02*
X12595467Y-13482174D01*
X12595467Y-13482174D02*
X12604991Y-13444079D01*
X12604991Y-13444079D02*
X12614515Y-13425031D01*
X12614515Y-13425031D02*
X12624039Y-13415508D01*
X12624039Y-13415508D02*
X12643086Y-13405984D01*
X12833562Y-13405984D02*
X12852610Y-13405984D01*
X12852610Y-13405984D02*
X12871658Y-13415508D01*
X12871658Y-13415508D02*
X12881182Y-13425031D01*
X12881182Y-13425031D02*
X12890705Y-13444079D01*
X12890705Y-13444079D02*
X12900229Y-13482174D01*
X12900229Y-13482174D02*
X12900229Y-13529793D01*
X12900229Y-13529793D02*
X12890705Y-13567888D01*
X12890705Y-13567888D02*
X12881182Y-13586936D01*
X12881182Y-13586936D02*
X12871658Y-13596460D01*
X12871658Y-13596460D02*
X12852610Y-13605984D01*
X12852610Y-13605984D02*
X12833562Y-13605984D01*
X12833562Y-13605984D02*
X12814515Y-13596460D01*
X12814515Y-13596460D02*
X12804991Y-13586936D01*
X12804991Y-13586936D02*
X12795467Y-13567888D01*
X12795467Y-13567888D02*
X12785943Y-13529793D01*
X12785943Y-13529793D02*
X12785943Y-13482174D01*
X12785943Y-13482174D02*
X12795467Y-13444079D01*
X12795467Y-13444079D02*
X12804991Y-13425031D01*
X12804991Y-13425031D02*
X12814515Y-13415508D01*
X12814515Y-13415508D02*
X12833562Y-13405984D01*
X13024039Y-13405984D02*
X13043086Y-13405984D01*
X13043086Y-13405984D02*
X13062134Y-13415508D01*
X13062134Y-13415508D02*
X13071658Y-13425031D01*
X13071658Y-13425031D02*
X13081182Y-13444079D01*
X13081182Y-13444079D02*
X13090705Y-13482174D01*
X13090705Y-13482174D02*
X13090705Y-13529793D01*
X13090705Y-13529793D02*
X13081182Y-13567888D01*
X13081182Y-13567888D02*
X13071658Y-13586936D01*
X13071658Y-13586936D02*
X13062134Y-13596460D01*
X13062134Y-13596460D02*
X13043086Y-13605984D01*
X13043086Y-13605984D02*
X13024039Y-13605984D01*
X13024039Y-13605984D02*
X13004991Y-13596460D01*
X13004991Y-13596460D02*
X12995467Y-13586936D01*
X12995467Y-13586936D02*
X12985943Y-13567888D01*
X12985943Y-13567888D02*
X12976420Y-13529793D01*
X12976420Y-13529793D02*
X12976420Y-13482174D01*
X12976420Y-13482174D02*
X12985943Y-13444079D01*
X12985943Y-13444079D02*
X12995467Y-13425031D01*
X12995467Y-13425031D02*
X13004991Y-13415508D01*
X13004991Y-13415508D02*
X13024039Y-13405984D01*
X13176420Y-13605984D02*
X13176420Y-13472650D01*
X13176420Y-13491698D02*
X13185943Y-13482174D01*
X13185943Y-13482174D02*
X13204991Y-13472650D01*
X13204991Y-13472650D02*
X13233563Y-13472650D01*
X13233563Y-13472650D02*
X13252610Y-13482174D01*
X13252610Y-13482174D02*
X13262134Y-13501222D01*
X13262134Y-13501222D02*
X13262134Y-13605984D01*
X13262134Y-13501222D02*
X13271658Y-13482174D01*
X13271658Y-13482174D02*
X13290705Y-13472650D01*
X13290705Y-13472650D02*
X13319277Y-13472650D01*
X13319277Y-13472650D02*
X13338324Y-13482174D01*
X13338324Y-13482174D02*
X13347848Y-13501222D01*
X13347848Y-13501222D02*
X13347848Y-13605984D01*
X13443086Y-13605984D02*
X13443086Y-13472650D01*
X13443086Y-13491698D02*
X13452610Y-13482174D01*
X13452610Y-13482174D02*
X13471658Y-13472650D01*
X13471658Y-13472650D02*
X13500229Y-13472650D01*
X13500229Y-13472650D02*
X13519277Y-13482174D01*
X13519277Y-13482174D02*
X13528801Y-13501222D01*
X13528801Y-13501222D02*
X13528801Y-13605984D01*
X13528801Y-13501222D02*
X13538324Y-13482174D01*
X13538324Y-13482174D02*
X13557372Y-13472650D01*
X13557372Y-13472650D02*
X13585943Y-13472650D01*
X13585943Y-13472650D02*
X13604991Y-13482174D01*
X13604991Y-13482174D02*
X13614515Y-13501222D01*
X13614515Y-13501222D02*
X13614515Y-13605984D01*
X14004991Y-13396460D02*
X13833563Y-13653603D01*
X14262134Y-13405984D02*
X14281182Y-13405984D01*
X14281182Y-13405984D02*
X14300229Y-13415508D01*
X14300229Y-13415508D02*
X14309753Y-13425031D01*
X14309753Y-13425031D02*
X14319277Y-13444079D01*
X14319277Y-13444079D02*
X14328801Y-13482174D01*
X14328801Y-13482174D02*
X14328801Y-13529793D01*
X14328801Y-13529793D02*
X14319277Y-13567888D01*
X14319277Y-13567888D02*
X14309753Y-13586936D01*
X14309753Y-13586936D02*
X14300229Y-13596460D01*
X14300229Y-13596460D02*
X14281182Y-13605984D01*
X14281182Y-13605984D02*
X14262134Y-13605984D01*
X14262134Y-13605984D02*
X14243086Y-13596460D01*
X14243086Y-13596460D02*
X14233563Y-13586936D01*
X14233563Y-13586936D02*
X14224039Y-13567888D01*
X14224039Y-13567888D02*
X14214515Y-13529793D01*
X14214515Y-13529793D02*
X14214515Y-13482174D01*
X14214515Y-13482174D02*
X14224039Y-13444079D01*
X14224039Y-13444079D02*
X14233563Y-13425031D01*
X14233563Y-13425031D02*
X14243086Y-13415508D01*
X14243086Y-13415508D02*
X14262134Y-13405984D01*
X14414515Y-13586936D02*
X14424039Y-13596460D01*
X14424039Y-13596460D02*
X14414515Y-13605984D01*
X14414515Y-13605984D02*
X14404991Y-13596460D01*
X14404991Y-13596460D02*
X14414515Y-13586936D01*
X14414515Y-13586936D02*
X14414515Y-13605984D01*
X14547848Y-13405984D02*
X14566896Y-13405984D01*
X14566896Y-13405984D02*
X14585944Y-13415508D01*
X14585944Y-13415508D02*
X14595467Y-13425031D01*
X14595467Y-13425031D02*
X14604991Y-13444079D01*
X14604991Y-13444079D02*
X14614515Y-13482174D01*
X14614515Y-13482174D02*
X14614515Y-13529793D01*
X14614515Y-13529793D02*
X14604991Y-13567888D01*
X14604991Y-13567888D02*
X14595467Y-13586936D01*
X14595467Y-13586936D02*
X14585944Y-13596460D01*
X14585944Y-13596460D02*
X14566896Y-13605984D01*
X14566896Y-13605984D02*
X14547848Y-13605984D01*
X14547848Y-13605984D02*
X14528801Y-13596460D01*
X14528801Y-13596460D02*
X14519277Y-13586936D01*
X14519277Y-13586936D02*
X14509753Y-13567888D01*
X14509753Y-13567888D02*
X14500229Y-13529793D01*
X14500229Y-13529793D02*
X14500229Y-13482174D01*
X14500229Y-13482174D02*
X14509753Y-13444079D01*
X14509753Y-13444079D02*
X14519277Y-13425031D01*
X14519277Y-13425031D02*
X14528801Y-13415508D01*
X14528801Y-13415508D02*
X14547848Y-13405984D01*
X14681182Y-13405984D02*
X14804991Y-13405984D01*
X14804991Y-13405984D02*
X14738325Y-13482174D01*
X14738325Y-13482174D02*
X14766896Y-13482174D01*
X14766896Y-13482174D02*
X14785944Y-13491698D01*
X14785944Y-13491698D02*
X14795467Y-13501222D01*
X14795467Y-13501222D02*
X14804991Y-13520269D01*
X14804991Y-13520269D02*
X14804991Y-13567888D01*
X14804991Y-13567888D02*
X14795467Y-13586936D01*
X14795467Y-13586936D02*
X14785944Y-13596460D01*
X14785944Y-13596460D02*
X14766896Y-13605984D01*
X14766896Y-13605984D02*
X14709753Y-13605984D01*
X14709753Y-13605984D02*
X14690706Y-13596460D01*
X14690706Y-13596460D02*
X14681182Y-13586936D01*
X14900229Y-13605984D02*
X14938325Y-13605984D01*
X14938325Y-13605984D02*
X14957372Y-13596460D01*
X14957372Y-13596460D02*
X14966896Y-13586936D01*
X14966896Y-13586936D02*
X14985944Y-13558365D01*
X14985944Y-13558365D02*
X14995467Y-13520269D01*
X14995467Y-13520269D02*
X14995467Y-13444079D01*
X14995467Y-13444079D02*
X14985944Y-13425031D01*
X14985944Y-13425031D02*
X14976420Y-13415508D01*
X14976420Y-13415508D02*
X14957372Y-13405984D01*
X14957372Y-13405984D02*
X14919277Y-13405984D01*
X14919277Y-13405984D02*
X14900229Y-13415508D01*
X14900229Y-13415508D02*
X14890706Y-13425031D01*
X14890706Y-13425031D02*
X14881182Y-13444079D01*
X14881182Y-13444079D02*
X14881182Y-13491698D01*
X14881182Y-13491698D02*
X14890706Y-13510746D01*
X14890706Y-13510746D02*
X14900229Y-13520269D01*
X14900229Y-13520269D02*
X14919277Y-13529793D01*
X14919277Y-13529793D02*
X14957372Y-13529793D01*
X14957372Y-13529793D02*
X14976420Y-13520269D01*
X14976420Y-13520269D02*
X14985944Y-13510746D01*
X14985944Y-13510746D02*
X14995467Y-13491698D01*
X15166896Y-13472650D02*
X15166896Y-13605984D01*
X15119277Y-13396460D02*
X15071658Y-13539317D01*
X15071658Y-13539317D02*
X15195467Y-13539317D01*
X15262134Y-13405984D02*
X15262134Y-13444079D01*
X15338325Y-13405984D02*
X15338325Y-13444079D01*
X15633563Y-13682174D02*
X15624039Y-13672650D01*
X15624039Y-13672650D02*
X15604991Y-13644079D01*
X15604991Y-13644079D02*
X15595468Y-13625031D01*
X15595468Y-13625031D02*
X15585944Y-13596460D01*
X15585944Y-13596460D02*
X15576420Y-13548841D01*
X15576420Y-13548841D02*
X15576420Y-13510746D01*
X15576420Y-13510746D02*
X15585944Y-13463127D01*
X15585944Y-13463127D02*
X15595468Y-13434555D01*
X15595468Y-13434555D02*
X15604991Y-13415508D01*
X15604991Y-13415508D02*
X15624039Y-13386936D01*
X15624039Y-13386936D02*
X15633563Y-13377412D01*
X15814515Y-13605984D02*
X15700229Y-13605984D01*
X15757372Y-13605984D02*
X15757372Y-13405984D01*
X15757372Y-13405984D02*
X15738325Y-13434555D01*
X15738325Y-13434555D02*
X15719277Y-13453603D01*
X15719277Y-13453603D02*
X15700229Y-13463127D01*
X15985944Y-13472650D02*
X15985944Y-13605984D01*
X15938325Y-13396460D02*
X15890706Y-13539317D01*
X15890706Y-13539317D02*
X16014515Y-13539317D01*
X16119277Y-13491698D02*
X16100229Y-13482174D01*
X16100229Y-13482174D02*
X16090706Y-13472650D01*
X16090706Y-13472650D02*
X16081182Y-13453603D01*
X16081182Y-13453603D02*
X16081182Y-13444079D01*
X16081182Y-13444079D02*
X16090706Y-13425031D01*
X16090706Y-13425031D02*
X16100229Y-13415508D01*
X16100229Y-13415508D02*
X16119277Y-13405984D01*
X16119277Y-13405984D02*
X16157372Y-13405984D01*
X16157372Y-13405984D02*
X16176420Y-13415508D01*
X16176420Y-13415508D02*
X16185944Y-13425031D01*
X16185944Y-13425031D02*
X16195468Y-13444079D01*
X16195468Y-13444079D02*
X16195468Y-13453603D01*
X16195468Y-13453603D02*
X16185944Y-13472650D01*
X16185944Y-13472650D02*
X16176420Y-13482174D01*
X16176420Y-13482174D02*
X16157372Y-13491698D01*
X16157372Y-13491698D02*
X16119277Y-13491698D01*
X16119277Y-13491698D02*
X16100229Y-13501222D01*
X16100229Y-13501222D02*
X16090706Y-13510746D01*
X16090706Y-13510746D02*
X16081182Y-13529793D01*
X16081182Y-13529793D02*
X16081182Y-13567888D01*
X16081182Y-13567888D02*
X16090706Y-13586936D01*
X16090706Y-13586936D02*
X16100229Y-13596460D01*
X16100229Y-13596460D02*
X16119277Y-13605984D01*
X16119277Y-13605984D02*
X16157372Y-13605984D01*
X16157372Y-13605984D02*
X16176420Y-13596460D01*
X16176420Y-13596460D02*
X16185944Y-13586936D01*
X16185944Y-13586936D02*
X16195468Y-13567888D01*
X16195468Y-13567888D02*
X16195468Y-13529793D01*
X16195468Y-13529793D02*
X16185944Y-13510746D01*
X16185944Y-13510746D02*
X16176420Y-13501222D01*
X16176420Y-13501222D02*
X16157372Y-13491698D01*
X16433563Y-13605984D02*
X16433563Y-13405984D01*
X16519277Y-13605984D02*
X16519277Y-13501222D01*
X16519277Y-13501222D02*
X16509753Y-13482174D01*
X16509753Y-13482174D02*
X16490706Y-13472650D01*
X16490706Y-13472650D02*
X16462134Y-13472650D01*
X16462134Y-13472650D02*
X16443087Y-13482174D01*
X16443087Y-13482174D02*
X16433563Y-13491698D01*
X16643087Y-13605984D02*
X16624039Y-13596460D01*
X16624039Y-13596460D02*
X16614515Y-13586936D01*
X16614515Y-13586936D02*
X16604991Y-13567888D01*
X16604991Y-13567888D02*
X16604991Y-13510746D01*
X16604991Y-13510746D02*
X16614515Y-13491698D01*
X16614515Y-13491698D02*
X16624039Y-13482174D01*
X16624039Y-13482174D02*
X16643087Y-13472650D01*
X16643087Y-13472650D02*
X16671658Y-13472650D01*
X16671658Y-13472650D02*
X16690706Y-13482174D01*
X16690706Y-13482174D02*
X16700230Y-13491698D01*
X16700230Y-13491698D02*
X16709753Y-13510746D01*
X16709753Y-13510746D02*
X16709753Y-13567888D01*
X16709753Y-13567888D02*
X16700230Y-13586936D01*
X16700230Y-13586936D02*
X16690706Y-13596460D01*
X16690706Y-13596460D02*
X16671658Y-13605984D01*
X16671658Y-13605984D02*
X16643087Y-13605984D01*
X16824039Y-13605984D02*
X16804992Y-13596460D01*
X16804992Y-13596460D02*
X16795468Y-13577412D01*
X16795468Y-13577412D02*
X16795468Y-13405984D01*
X16976420Y-13596460D02*
X16957373Y-13605984D01*
X16957373Y-13605984D02*
X16919277Y-13605984D01*
X16919277Y-13605984D02*
X16900230Y-13596460D01*
X16900230Y-13596460D02*
X16890706Y-13577412D01*
X16890706Y-13577412D02*
X16890706Y-13501222D01*
X16890706Y-13501222D02*
X16900230Y-13482174D01*
X16900230Y-13482174D02*
X16919277Y-13472650D01*
X16919277Y-13472650D02*
X16957373Y-13472650D01*
X16957373Y-13472650D02*
X16976420Y-13482174D01*
X16976420Y-13482174D02*
X16985944Y-13501222D01*
X16985944Y-13501222D02*
X16985944Y-13520269D01*
X16985944Y-13520269D02*
X16890706Y-13539317D01*
X17062134Y-13596460D02*
X17081182Y-13605984D01*
X17081182Y-13605984D02*
X17119277Y-13605984D01*
X17119277Y-13605984D02*
X17138325Y-13596460D01*
X17138325Y-13596460D02*
X17147849Y-13577412D01*
X17147849Y-13577412D02*
X17147849Y-13567888D01*
X17147849Y-13567888D02*
X17138325Y-13548841D01*
X17138325Y-13548841D02*
X17119277Y-13539317D01*
X17119277Y-13539317D02*
X17090706Y-13539317D01*
X17090706Y-13539317D02*
X17071658Y-13529793D01*
X17071658Y-13529793D02*
X17062134Y-13510746D01*
X17062134Y-13510746D02*
X17062134Y-13501222D01*
X17062134Y-13501222D02*
X17071658Y-13482174D01*
X17071658Y-13482174D02*
X17090706Y-13472650D01*
X17090706Y-13472650D02*
X17119277Y-13472650D01*
X17119277Y-13472650D02*
X17138325Y-13482174D01*
X17214515Y-13682174D02*
X17224039Y-13672650D01*
X17224039Y-13672650D02*
X17243087Y-13644079D01*
X17243087Y-13644079D02*
X17252611Y-13625031D01*
X17252611Y-13625031D02*
X17262134Y-13596460D01*
X17262134Y-13596460D02*
X17271658Y-13548841D01*
X17271658Y-13548841D02*
X17271658Y-13510746D01*
X17271658Y-13510746D02*
X17262134Y-13463127D01*
X17262134Y-13463127D02*
X17252611Y-13434555D01*
X17252611Y-13434555D02*
X17243087Y-13415508D01*
X17243087Y-13415508D02*
X17224039Y-13386936D01*
X17224039Y-13386936D02*
X17214515Y-13377412D01*
M02*
