%TF.GenerationSoftware,KiCad,Pcbnew,8.0.3*%
%TF.CreationDate,2024-06-12T06:30:45+01:00*%
%TF.ProjectId,VISIR_Lei_Ohm,56495349-525f-44c6-9569-5f4f686d2e6b,rev?*%
%TF.SameCoordinates,Original*%
%TF.FileFunction,Copper,L2,Bot*%
%TF.FilePolarity,Positive*%
%FSLAX46Y46*%
G04 Gerber Fmt 4.6, Leading zero omitted, Abs format (unit mm)*
G04 Created by KiCad (PCBNEW 8.0.3) date 2024-06-12 06:30:45*
%MOMM*%
%LPD*%
G01*
G04 APERTURE LIST*
%TA.AperFunction,ComponentPad*%
%ADD10R,1.600000X1.600000*%
%TD*%
%TA.AperFunction,ComponentPad*%
%ADD11O,1.600000X1.600000*%
%TD*%
%TA.AperFunction,ComponentPad*%
%ADD12C,1.270000*%
%TD*%
%TA.AperFunction,ComponentPad*%
%ADD13R,1.700000X1.700000*%
%TD*%
%TA.AperFunction,ComponentPad*%
%ADD14O,1.700000X1.700000*%
%TD*%
%TA.AperFunction,ComponentPad*%
%ADD15C,1.600000*%
%TD*%
%TA.AperFunction,ViaPad*%
%ADD16C,0.600000*%
%TD*%
%TA.AperFunction,Conductor*%
%ADD17C,0.127000*%
%TD*%
G04 APERTURE END LIST*
D10*
%TO.P,U1,1,Q1*%
%TO.N,/I_{12}*%
X125550000Y-73780000D03*
D11*
%TO.P,U1,2,Q2*%
%TO.N,/I_{13}*%
X125550000Y-76320000D03*
%TO.P,U1,3,Q3*%
%TO.N,/I_{14}*%
X125550000Y-78860000D03*
%TO.P,U1,4,Q4*%
%TO.N,/I_{15}*%
X125550000Y-81400000D03*
%TO.P,U1,5,Q5*%
%TO.N,/I_{16}*%
X125550000Y-83940000D03*
%TO.P,U1,6,Q6*%
%TO.N,/I_{17}*%
X125550000Y-86480000D03*
%TO.P,U1,7,Q7*%
%TO.N,/I_{21}*%
X125550000Y-89020000D03*
%TO.P,U1,8,GND*%
%TO.N,GND*%
X125550000Y-91560000D03*
%TO.P,U1,9,Q7_2*%
%TO.N,unconnected-(U1-Q7_2-Pad9)*%
X135710000Y-91560000D03*
%TO.P,U1,10,~SRCLR*%
%TO.N,/~{SRCLR}*%
X135710000Y-89020000D03*
%TO.P,U1,11,SRCLK*%
%TO.N,/SRCLK*%
X135710000Y-86480000D03*
%TO.P,U1,12,RCLK*%
%TO.N,/RCLK*%
X135710000Y-83940000D03*
%TO.P,U1,13,~OE*%
%TO.N,/~{OE}*%
X135710000Y-81400000D03*
%TO.P,U1,14,SER*%
%TO.N,/SER1*%
X135710000Y-78860000D03*
%TO.P,U1,15,Q0*%
%TO.N,/I_{11}*%
X135710000Y-76320000D03*
%TO.P,U1,16,VCC*%
%TO.N,/5V*%
X135710000Y-73780000D03*
%TD*%
D12*
%TO.P,K4,1,1*%
%TO.N,/5V_{VB}*%
X128680000Y-61860000D03*
%TO.P,K4,2,2*%
%TO.N,/12V*%
X128680000Y-56780000D03*
%TO.P,K4,3,3*%
%TO.N,/O_{14}*%
X128680000Y-51700000D03*
%TO.P,K4,4,4*%
%TO.N,A*%
X128680000Y-46620000D03*
%TD*%
D13*
%TO.P,J8,1,Pin_1*%
%TO.N,Net-(J1-3V3Power1)*%
X190250000Y-97950000D03*
D14*
%TO.P,J8,2,Pin_2*%
%TO.N,Net-(J1-GPIO2{slash}SDA)*%
X187710000Y-97950000D03*
%TO.P,J8,3,Pin_3*%
%TO.N,Net-(J1-GPIO3{slash}SCL)*%
X185170000Y-97950000D03*
%TO.P,J8,4,Pin_4*%
%TO.N,/SRCLK_{filters}*%
X182630000Y-97950000D03*
%TO.P,J8,5,Pin_5*%
%TO.N,GND*%
X180090000Y-97950000D03*
%TO.P,J8,6,Pin_6*%
%TO.N,/RCLK_{filters}*%
X177550000Y-97950000D03*
%TO.P,J8,7,Pin_7*%
%TO.N,/SER_{filters}*%
X175010000Y-97950000D03*
%TO.P,J8,8,Pin_8*%
%TO.N,/~{OE}_{filters}*%
X172470000Y-97950000D03*
%TO.P,J8,9,Pin_9*%
%TO.N,Net-(J1-3v3Power2)*%
X169930000Y-97950000D03*
%TO.P,J8,10,Pin_10*%
%TO.N,Net-(J1-GPIO10{slash}MOSI)*%
X167390000Y-97950000D03*
%TO.P,J8,11,Pin_11*%
%TO.N,Net-(J1-GPIO9{slash}MISO)*%
X164850000Y-97950000D03*
%TO.P,J8,12,Pin_12*%
%TO.N,/~{SRCLR}_{filters}*%
X162310000Y-97950000D03*
%TO.P,J8,13,Pin_13*%
%TO.N,GND1*%
X159770000Y-97950000D03*
%TO.P,J8,14,Pin_14*%
%TO.N,Net-(J1-GPIO0{slash}ID_SD)*%
X157230000Y-97950000D03*
%TO.P,J8,15,Pin_15*%
%TO.N,/SER1*%
X154690000Y-97950000D03*
%TO.P,J8,16,Pin_16*%
%TO.N,/RCLK*%
X152150000Y-97950000D03*
%TO.P,J8,17,Pin_17*%
%TO.N,/SRCLK*%
X149610000Y-97950000D03*
%TO.P,J8,18,Pin_18*%
%TO.N,/~{OE}*%
X147070000Y-97950000D03*
%TO.P,J8,19,Pin_19*%
%TO.N,/~{SRCLR}*%
X144530000Y-97950000D03*
%TO.P,J8,20,Pin_20*%
%TO.N,GND2*%
X141990000Y-97950000D03*
%TD*%
D13*
%TO.P,J4,1,Pin_1*%
%TO.N,Net-(J4-Pin_1)*%
X199450000Y-80480000D03*
D14*
%TO.P,J4,2,Pin_2*%
X199450000Y-83020000D03*
%TO.P,J4,3,Pin_3*%
X199450000Y-85560000D03*
%TD*%
D13*
%TO.P,J10,1,Pin_1*%
%TO.N,Net-(J10-Pin_1)*%
X188000000Y-80420000D03*
D14*
%TO.P,J10,2,Pin_2*%
X188000000Y-82960000D03*
%TO.P,J10,3,Pin_3*%
X188000000Y-85500000D03*
%TD*%
D15*
%TO.P,R1,1*%
%TO.N,Net-(K1-Pad7)*%
X172200000Y-88300000D03*
D11*
%TO.P,R1,2*%
%TO.N,Net-(K1-Pad8)*%
X172200000Y-73060000D03*
%TD*%
D15*
%TO.P,R3,1*%
%TO.N,Net-(K3-Pad8)*%
X180300000Y-88300000D03*
D11*
%TO.P,R3,2*%
%TO.N,Net-(K3-Pad7)*%
X180300000Y-73060000D03*
%TD*%
D13*
%TO.P,MES3,1,-*%
%TO.N,C*%
X191100000Y-75500000D03*
D14*
%TO.P,MES3,2,+*%
%TO.N,Net-(J10-Pin_1)*%
X188560000Y-75500000D03*
%TD*%
D12*
%TO.P,K8,1,1*%
%TO.N,B*%
X166760000Y-61900000D03*
%TO.P,K8,2,2*%
%TO.N,/12V*%
X166760000Y-56820000D03*
%TO.P,K8,3,3*%
%TO.N,/O_{21}*%
X166760000Y-51740000D03*
%TO.P,K8,4,4*%
%TO.N,C*%
X166760000Y-46660000D03*
%TD*%
%TO.P,K7,1,1*%
%TO.N,C*%
X156770000Y-46660000D03*
%TO.P,K7,2,2*%
%TO.N,/12V*%
X156770000Y-51740000D03*
%TO.P,K7,3,3*%
%TO.N,/O_{17}*%
X156770000Y-56820000D03*
%TO.P,K7,4,4*%
%TO.N,GND*%
X156770000Y-61900000D03*
%TD*%
D13*
%TO.P,J5,1,Pin_1*%
%TO.N,Net-(J1-GPIO21{slash}PCM_DOUT)*%
X141970000Y-113900000D03*
D14*
%TO.P,J5,2,Pin_2*%
%TO.N,Net-(J1-GPIO20{slash}PCM_DIN)*%
X144510000Y-113900000D03*
%TO.P,J5,3,Pin_3*%
%TO.N,Net-(J1-GPIO16)*%
X147050000Y-113900000D03*
%TO.P,J5,4,Pin_4*%
%TO.N,GND7*%
X149590000Y-113900000D03*
%TO.P,J5,5,Pin_5*%
%TO.N,Net-(J1-GPIO12{slash}PWM0)*%
X152130000Y-113900000D03*
%TO.P,J5,6,Pin_6*%
%TO.N,GND6*%
X154670000Y-113900000D03*
%TO.P,J5,7,Pin_7*%
%TO.N,Net-(J1-GPIO1{slash}ID_SC)*%
X157210000Y-113900000D03*
%TO.P,J5,8,Pin_8*%
%TO.N,Net-(J1-GPIO7{slash}CE1)*%
X159750000Y-113900000D03*
%TO.P,J5,9,Pin_9*%
%TO.N,Net-(J1-GPIO8{slash}CE0)*%
X162290000Y-113900000D03*
%TO.P,J5,10,Pin_10*%
%TO.N,Net-(J1-GPIO25)*%
X164830000Y-113900000D03*
%TO.P,J5,11,Pin_11*%
%TO.N,GND5*%
X167370000Y-113900000D03*
%TO.P,J5,12,Pin_12*%
%TO.N,Net-(J1-GPIO24)*%
X169910000Y-113900000D03*
%TO.P,J5,13,Pin_13*%
%TO.N,Net-(J1-GPIO23)*%
X172450000Y-113900000D03*
%TO.P,J5,14,Pin_14*%
%TO.N,GND4*%
X174990000Y-113900000D03*
%TO.P,J5,15,Pin_15*%
%TO.N,Net-(J1-GPIO18{slash}PCM_CLK)*%
X177530000Y-113900000D03*
%TO.P,J5,16,Pin_16*%
%TO.N,Net-(J1-GPIO15{slash}RXD)*%
X180070000Y-113900000D03*
%TO.P,J5,17,Pin_17*%
%TO.N,Net-(J1-GPIO14{slash}TXD)*%
X182610000Y-113900000D03*
%TO.P,J5,18,Pin_18*%
%TO.N,GND3*%
X185150000Y-113900000D03*
%TO.P,J5,19,Pin_19*%
%TO.N,Net-(J1-5VPower2)*%
X187690000Y-113900000D03*
%TO.P,J5,20,Pin_20*%
%TO.N,/5VPower1*%
X190230000Y-113900000D03*
%TD*%
D12*
%TO.P,K3,1,1*%
%TO.N,B*%
X202720000Y-46760000D03*
%TO.P,K3,2,2*%
%TO.N,/12V*%
X202720000Y-49300000D03*
%TO.P,K3,6,6*%
%TO.N,/O_{13}*%
X202720000Y-59460000D03*
%TO.P,K3,7,7*%
%TO.N,Net-(K3-Pad7)*%
X202720000Y-62000000D03*
%TO.P,K3,8,8*%
%TO.N,Net-(K3-Pad8)*%
X210340000Y-62000000D03*
%TO.P,K3,9,9*%
%TO.N,unconnected-(K3-Pad9)*%
X210340000Y-59460000D03*
%TO.P,K3,13,13*%
%TO.N,unconnected-(K3-Pad13)*%
X210340000Y-49300000D03*
%TO.P,K3,14,14*%
%TO.N,A*%
X210340000Y-46760000D03*
%TD*%
D13*
%TO.P,J11,1,Pin_1*%
%TO.N,C*%
X191750000Y-80450000D03*
D14*
%TO.P,J11,2,Pin_2*%
X191750000Y-82990000D03*
%TO.P,J11,3,Pin_3*%
X191750000Y-85530000D03*
%TD*%
D13*
%TO.P,MES1,1,-*%
%TO.N,C*%
X202590000Y-75480000D03*
D14*
%TO.P,MES1,2,+*%
%TO.N,Net-(J4-Pin_1)*%
X200050000Y-75480000D03*
%TD*%
D15*
%TO.P,C1,1*%
%TO.N,/5V*%
X135750000Y-69700000D03*
%TO.P,C1,2*%
%TO.N,GND*%
X138250000Y-69700000D03*
%TD*%
%TO.P,R2,1*%
%TO.N,Net-(K2-Pad8)*%
X176250000Y-88300000D03*
D11*
%TO.P,R2,2*%
%TO.N,Net-(K2-Pad7)*%
X176250000Y-73060000D03*
%TD*%
D13*
%TO.P,J1,1,3V3Power1*%
%TO.N,Net-(J1-3V3Power1)*%
X190240000Y-106560000D03*
D14*
%TO.P,J1,2,5VPower1*%
%TO.N,/5VPower1*%
X190240000Y-109100000D03*
%TO.P,J1,3,GPIO2/SDA*%
%TO.N,Net-(J1-GPIO2{slash}SDA)*%
X187700000Y-106560000D03*
%TO.P,J1,4,5VPower2*%
%TO.N,Net-(J1-5VPower2)*%
X187700000Y-109100000D03*
%TO.P,J1,5,GPIO3/SCL*%
%TO.N,Net-(J1-GPIO3{slash}SCL)*%
X185160000Y-106560000D03*
%TO.P,J1,6,GND*%
%TO.N,GND3*%
X185160000Y-109100000D03*
%TO.P,J1,7,GPIO4/GPCLK0*%
%TO.N,/SRCLK_{filters}*%
X182620000Y-106560000D03*
%TO.P,J1,8,GPIO14/TXD*%
%TO.N,Net-(J1-GPIO14{slash}TXD)*%
X182620000Y-109100000D03*
%TO.P,J1,9,GND*%
%TO.N,GND*%
X180080000Y-106560000D03*
%TO.P,J1,10,GPIO15/RXD*%
%TO.N,Net-(J1-GPIO15{slash}RXD)*%
X180080000Y-109100000D03*
%TO.P,J1,11,GPIO17*%
%TO.N,/RCLK_{filters}*%
X177540000Y-106560000D03*
%TO.P,J1,12,GPIO18/PCM_CLK*%
%TO.N,Net-(J1-GPIO18{slash}PCM_CLK)*%
X177540000Y-109100000D03*
%TO.P,J1,13,GPIO27*%
%TO.N,/SER_{filters}*%
X175000000Y-106560000D03*
%TO.P,J1,14,GND*%
%TO.N,GND4*%
X175000000Y-109100000D03*
%TO.P,J1,15,GPIO22*%
%TO.N,/~{OE}_{filters}*%
X172460000Y-106560000D03*
%TO.P,J1,16,GPIO23*%
%TO.N,Net-(J1-GPIO23)*%
X172460000Y-109100000D03*
%TO.P,J1,17,3v3Power2*%
%TO.N,Net-(J1-3v3Power2)*%
X169920000Y-106560000D03*
%TO.P,J1,18,GPIO24*%
%TO.N,Net-(J1-GPIO24)*%
X169920000Y-109100000D03*
%TO.P,J1,19,GPIO10/MOSI*%
%TO.N,Net-(J1-GPIO10{slash}MOSI)*%
X167380000Y-106560000D03*
%TO.P,J1,20,GND*%
%TO.N,GND5*%
X167380000Y-109100000D03*
%TO.P,J1,21,GPIO9/MISO*%
%TO.N,Net-(J1-GPIO9{slash}MISO)*%
X164840000Y-106560000D03*
%TO.P,J1,22,GPIO25*%
%TO.N,Net-(J1-GPIO25)*%
X164840000Y-109100000D03*
%TO.P,J1,23,GPIO11/SCLK*%
%TO.N,/~{SRCLR}_{filters}*%
X162300000Y-106560000D03*
%TO.P,J1,24,GPIO8/CE0*%
%TO.N,Net-(J1-GPIO8{slash}CE0)*%
X162300000Y-109100000D03*
%TO.P,J1,25,GND*%
%TO.N,GND1*%
X159760000Y-106560000D03*
%TO.P,J1,26,GPIO7/CE1*%
%TO.N,Net-(J1-GPIO7{slash}CE1)*%
X159760000Y-109100000D03*
%TO.P,J1,27,GPIO0/ID_SD*%
%TO.N,Net-(J1-GPIO0{slash}ID_SD)*%
X157220000Y-106560000D03*
%TO.P,J1,28,GPIO1/ID_SC*%
%TO.N,Net-(J1-GPIO1{slash}ID_SC)*%
X157220000Y-109100000D03*
%TO.P,J1,29,GPIO5*%
%TO.N,/SER1*%
X154680000Y-106560000D03*
%TO.P,J1,30,GND*%
%TO.N,GND6*%
X154680000Y-109100000D03*
%TO.P,J1,31,GPIO6*%
%TO.N,/RCLK*%
X152140000Y-106560000D03*
%TO.P,J1,32,GPIO12/PWM0*%
%TO.N,Net-(J1-GPIO12{slash}PWM0)*%
X152140000Y-109100000D03*
%TO.P,J1,33,GPIO13/PWM1*%
%TO.N,/SRCLK*%
X149600000Y-106560000D03*
%TO.P,J1,34,GROUND*%
%TO.N,GND7*%
X149600000Y-109100000D03*
%TO.P,J1,35,GPIO19/PCM_FS*%
%TO.N,/~{OE}*%
X147060000Y-106560000D03*
%TO.P,J1,36,GPIO16*%
%TO.N,Net-(J1-GPIO16)*%
X147060000Y-109100000D03*
%TO.P,J1,37,GPIO26*%
%TO.N,/~{SRCLR}*%
X144520000Y-106560000D03*
%TO.P,J1,38,GPIO20/PCM_DIN*%
%TO.N,Net-(J1-GPIO20{slash}PCM_DIN)*%
X144520000Y-109100000D03*
%TO.P,J1,39,GND*%
%TO.N,GND2*%
X141980000Y-106560000D03*
%TO.P,J1,40,GPIO21/PCM_DOUT*%
%TO.N,Net-(J1-GPIO21{slash}PCM_DOUT)*%
X141980000Y-109100000D03*
%TD*%
D12*
%TO.P,K1,1,1*%
%TO.N,B*%
X175890000Y-46620000D03*
%TO.P,K1,2,2*%
%TO.N,/12V*%
X175890000Y-49160000D03*
%TO.P,K1,6,6*%
%TO.N,/O_{11}*%
X175890000Y-59320000D03*
%TO.P,K1,7,7*%
%TO.N,Net-(K1-Pad7)*%
X175890000Y-61860000D03*
%TO.P,K1,8,8*%
%TO.N,Net-(K1-Pad8)*%
X183510000Y-61860000D03*
%TO.P,K1,9,9*%
%TO.N,unconnected-(K1-Pad9)*%
X183510000Y-59320000D03*
%TO.P,K1,13,13*%
%TO.N,unconnected-(K1-Pad13)*%
X183510000Y-49160000D03*
%TO.P,K1,14,14*%
%TO.N,A*%
X183510000Y-46620000D03*
%TD*%
D13*
%TO.P,J2,1,Pin_1*%
%TO.N,/12V*%
X155290000Y-38230000D03*
D14*
%TO.P,J2,2,Pin_2*%
%TO.N,/5V*%
X152750000Y-38230000D03*
%TO.P,J2,3,Pin_3*%
%TO.N,/5V_{VB}*%
X150210000Y-38230000D03*
%TO.P,J2,4,Pin_4*%
%TO.N,GND*%
X147670000Y-38230000D03*
%TO.P,J2,5,Pin_5*%
%TO.N,/transf+*%
X145130000Y-38230000D03*
%TO.P,J2,6,Pin_6*%
%TO.N,/transf-*%
X142590000Y-38230000D03*
%TD*%
D12*
%TO.P,K2,1,1*%
%TO.N,B*%
X189580000Y-46660000D03*
%TO.P,K2,2,2*%
%TO.N,/12V*%
X189580000Y-49200000D03*
%TO.P,K2,6,6*%
%TO.N,/O_{12}*%
X189580000Y-59360000D03*
%TO.P,K2,7,7*%
%TO.N,Net-(K2-Pad7)*%
X189580000Y-61900000D03*
%TO.P,K2,8,8*%
%TO.N,Net-(K2-Pad8)*%
X197200000Y-61900000D03*
%TO.P,K2,9,9*%
%TO.N,unconnected-(K2-Pad9)*%
X197200000Y-59360000D03*
%TO.P,K2,13,13*%
%TO.N,unconnected-(K2-Pad13)*%
X197200000Y-49200000D03*
%TO.P,K2,14,14*%
%TO.N,A*%
X197200000Y-46660000D03*
%TD*%
D13*
%TO.P,J3,1,Pin_1*%
%TO.N,/SRCLK_{filters}*%
X175950000Y-38180000D03*
D14*
%TO.P,J3,2,Pin_2*%
%TO.N,/~{SRCLR}_{filters}*%
X173410000Y-38180000D03*
%TO.P,J3,3,Pin_3*%
%TO.N,/RCLK_{filters}*%
X170870000Y-38180000D03*
%TO.P,J3,4,Pin_4*%
%TO.N,/~{OE}_{filters}*%
X168330000Y-38180000D03*
%TO.P,J3,5,Pin_5*%
%TO.N,/SER_{filters}*%
X165790000Y-38180000D03*
%TO.P,J3,6,Pin_6*%
%TO.N,unconnected-(J3-Pin_6-Pad6)*%
X163250000Y-38180000D03*
%TD*%
D13*
%TO.P,J9,1,Pin_1*%
%TO.N,C*%
X203250000Y-80530000D03*
D14*
%TO.P,J9,2,Pin_2*%
X203250000Y-83070000D03*
%TO.P,J9,3,Pin_3*%
X203250000Y-85610000D03*
%TD*%
D10*
%TO.P,U2,1,I1*%
%TO.N,/I_{11}*%
X138900000Y-73780000D03*
D11*
%TO.P,U2,2,I2*%
%TO.N,/I_{12}*%
X138900000Y-76320000D03*
%TO.P,U2,3,I3*%
%TO.N,/I_{13}*%
X138900000Y-78860000D03*
%TO.P,U2,4,I4*%
%TO.N,/I_{14}*%
X138900000Y-81400000D03*
%TO.P,U2,5,I5*%
%TO.N,/I_{15}*%
X138900000Y-83940000D03*
%TO.P,U2,6,I6*%
%TO.N,/I_{16}*%
X138900000Y-86480000D03*
%TO.P,U2,7,I7*%
%TO.N,/I_{17}*%
X138900000Y-89020000D03*
%TO.P,U2,8,GND*%
%TO.N,GND*%
X138900000Y-91560000D03*
%TO.P,U2,9,COM*%
%TO.N,/12V*%
X149060000Y-91560000D03*
%TO.P,U2,10,O7*%
%TO.N,/O_{17}*%
X149060000Y-89020000D03*
%TO.P,U2,11,O6*%
%TO.N,/O_{16}*%
X149060000Y-86480000D03*
%TO.P,U2,12,O5*%
%TO.N,/O_{15}*%
X149060000Y-83940000D03*
%TO.P,U2,13,O4*%
%TO.N,/O_{14}*%
X149060000Y-81400000D03*
%TO.P,U2,14,O3*%
%TO.N,/O_{13}*%
X149060000Y-78860000D03*
%TO.P,U2,15,O2*%
%TO.N,/O_{12}*%
X149060000Y-76320000D03*
%TO.P,U2,16,O1*%
%TO.N,/O_{11}*%
X149060000Y-73780000D03*
%TD*%
D12*
%TO.P,K6,1,1*%
%TO.N,B*%
X146670000Y-46610000D03*
%TO.P,K6,2,2*%
%TO.N,/12V*%
X146670000Y-51690000D03*
%TO.P,K6,3,3*%
%TO.N,/O_{16}*%
X146670000Y-56770000D03*
%TO.P,K6,4,4*%
%TO.N,Net-(J10-Pin_1)*%
X146670000Y-61850000D03*
%TD*%
%TO.P,K5,1,1*%
%TO.N,A*%
X137570000Y-61900000D03*
%TO.P,K5,2,2*%
%TO.N,/12V*%
X137570000Y-56820000D03*
%TO.P,K5,3,3*%
%TO.N,/O_{15}*%
X137570000Y-51740000D03*
%TO.P,K5,4,4*%
%TO.N,Net-(J4-Pin_1)*%
X137570000Y-46660000D03*
%TD*%
D13*
%TO.P,J6,1,Pin_1*%
%TO.N,Net-(J1-GPIO21{slash}PCM_DOUT)*%
X141940000Y-117850000D03*
D14*
%TO.P,J6,2,Pin_2*%
%TO.N,Net-(J1-GPIO20{slash}PCM_DIN)*%
X144480000Y-117850000D03*
%TO.P,J6,3,Pin_3*%
%TO.N,Net-(J1-GPIO16)*%
X147020000Y-117850000D03*
%TO.P,J6,4,Pin_4*%
%TO.N,GND7*%
X149560000Y-117850000D03*
%TO.P,J6,5,Pin_5*%
%TO.N,Net-(J1-GPIO12{slash}PWM0)*%
X152100000Y-117850000D03*
%TO.P,J6,6,Pin_6*%
%TO.N,GND6*%
X154640000Y-117850000D03*
%TO.P,J6,7,Pin_7*%
%TO.N,Net-(J1-GPIO1{slash}ID_SC)*%
X157180000Y-117850000D03*
%TO.P,J6,8,Pin_8*%
%TO.N,Net-(J1-GPIO7{slash}CE1)*%
X159720000Y-117850000D03*
%TO.P,J6,9,Pin_9*%
%TO.N,Net-(J1-GPIO8{slash}CE0)*%
X162260000Y-117850000D03*
%TO.P,J6,10,Pin_10*%
%TO.N,Net-(J1-GPIO25)*%
X164800000Y-117850000D03*
%TO.P,J6,11,Pin_11*%
%TO.N,GND5*%
X167340000Y-117850000D03*
%TO.P,J6,12,Pin_12*%
%TO.N,Net-(J1-GPIO24)*%
X169880000Y-117850000D03*
%TO.P,J6,13,Pin_13*%
%TO.N,Net-(J1-GPIO23)*%
X172420000Y-117850000D03*
%TO.P,J6,14,Pin_14*%
%TO.N,GND4*%
X174960000Y-117850000D03*
%TO.P,J6,15,Pin_15*%
%TO.N,Net-(J1-GPIO18{slash}PCM_CLK)*%
X177500000Y-117850000D03*
%TO.P,J6,16,Pin_16*%
%TO.N,Net-(J1-GPIO15{slash}RXD)*%
X180040000Y-117850000D03*
%TO.P,J6,17,Pin_17*%
%TO.N,Net-(J1-GPIO14{slash}TXD)*%
X182580000Y-117850000D03*
%TO.P,J6,18,Pin_18*%
%TO.N,GND3*%
X185120000Y-117850000D03*
%TO.P,J6,19,Pin_19*%
%TO.N,Net-(J1-5VPower2)*%
X187660000Y-117850000D03*
%TO.P,J6,20,Pin_20*%
%TO.N,/5VPower1*%
X190200000Y-117850000D03*
%TD*%
D10*
%TO.P,U3,1,I1*%
%TO.N,/I_{21}*%
X152250000Y-73780000D03*
D11*
%TO.P,U3,2,I2*%
%TO.N,/I_{22}*%
X152250000Y-76320000D03*
%TO.P,U3,3,I3*%
%TO.N,/I_{23}*%
X152250000Y-78860000D03*
%TO.P,U3,4,I4*%
%TO.N,/I_{24}*%
X152250000Y-81400000D03*
%TO.P,U3,5,I5*%
%TO.N,/I_{25}*%
X152250000Y-83940000D03*
%TO.P,U3,6,I6*%
%TO.N,/I_{26}*%
X152250000Y-86480000D03*
%TO.P,U3,7,I7*%
%TO.N,/I_{27}*%
X152250000Y-89020000D03*
%TO.P,U3,8,GND*%
%TO.N,GND*%
X152250000Y-91560000D03*
%TO.P,U3,9,COM*%
%TO.N,/12V*%
X162410000Y-91560000D03*
%TO.P,U3,10,O7*%
%TO.N,/O_{27}*%
X162410000Y-89020000D03*
%TO.P,U3,11,O6*%
%TO.N,/O_{26}*%
X162410000Y-86480000D03*
%TO.P,U3,12,O5*%
%TO.N,/O_{25}*%
X162410000Y-83940000D03*
%TO.P,U3,13,O4*%
%TO.N,/O_{24}*%
X162410000Y-81400000D03*
%TO.P,U3,14,O3*%
%TO.N,/O_{23}*%
X162410000Y-78860000D03*
%TO.P,U3,15,O2*%
%TO.N,/O_{22}*%
X162410000Y-76320000D03*
%TO.P,U3,16,O1*%
%TO.N,/O_{21}*%
X162410000Y-73780000D03*
%TD*%
D13*
%TO.P,J7,1,Pin_1*%
%TO.N,Net-(J1-3V3Power1)*%
X190260000Y-101800000D03*
D14*
%TO.P,J7,2,Pin_2*%
%TO.N,Net-(J1-GPIO2{slash}SDA)*%
X187720000Y-101800000D03*
%TO.P,J7,3,Pin_3*%
%TO.N,Net-(J1-GPIO3{slash}SCL)*%
X185180000Y-101800000D03*
%TO.P,J7,4,Pin_4*%
%TO.N,/SRCLK_{filters}*%
X182640000Y-101800000D03*
%TO.P,J7,5,Pin_5*%
%TO.N,GND*%
X180100000Y-101800000D03*
%TO.P,J7,6,Pin_6*%
%TO.N,/RCLK_{filters}*%
X177560000Y-101800000D03*
%TO.P,J7,7,Pin_7*%
%TO.N,/SER_{filters}*%
X175020000Y-101800000D03*
%TO.P,J7,8,Pin_8*%
%TO.N,/~{OE}_{filters}*%
X172480000Y-101800000D03*
%TO.P,J7,9,Pin_9*%
%TO.N,Net-(J1-3v3Power2)*%
X169940000Y-101800000D03*
%TO.P,J7,10,Pin_10*%
%TO.N,Net-(J1-GPIO10{slash}MOSI)*%
X167400000Y-101800000D03*
%TO.P,J7,11,Pin_11*%
%TO.N,Net-(J1-GPIO9{slash}MISO)*%
X164860000Y-101800000D03*
%TO.P,J7,12,Pin_12*%
%TO.N,/~{SRCLR}_{filters}*%
X162320000Y-101800000D03*
%TO.P,J7,13,Pin_13*%
%TO.N,GND1*%
X159780000Y-101800000D03*
%TO.P,J7,14,Pin_14*%
%TO.N,Net-(J1-GPIO0{slash}ID_SD)*%
X157240000Y-101800000D03*
%TO.P,J7,15,Pin_15*%
%TO.N,/SER1*%
X154700000Y-101800000D03*
%TO.P,J7,16,Pin_16*%
%TO.N,/RCLK*%
X152160000Y-101800000D03*
%TO.P,J7,17,Pin_17*%
%TO.N,/SRCLK*%
X149620000Y-101800000D03*
%TO.P,J7,18,Pin_18*%
%TO.N,/~{OE}*%
X147080000Y-101800000D03*
%TO.P,J7,19,Pin_19*%
%TO.N,/~{SRCLR}*%
X144540000Y-101800000D03*
%TO.P,J7,20,Pin_20*%
%TO.N,GND2*%
X142000000Y-101800000D03*
%TD*%
D16*
%TO.N,C*%
X177928900Y-48826300D03*
%TO.N,Net-(J10-Pin_1)*%
X177928900Y-59974500D03*
%TO.N,/5V*%
X143538000Y-55586400D03*
%TD*%
D17*
%TO.N,/~{SRCLR}_{filters}*%
X168654100Y-36828900D02*
X171016700Y-36828900D01*
X171016700Y-36828900D02*
X172367800Y-38180000D01*
X168652600Y-36827400D02*
X168654100Y-36828900D01*
X164520000Y-37700000D02*
X165392600Y-36827400D01*
X172367800Y-38180000D02*
X173410000Y-38180000D01*
X164520000Y-41997200D02*
X164520000Y-37700000D01*
X161393900Y-45123300D02*
X164520000Y-41997200D01*
X161393900Y-95991700D02*
X161393900Y-45123300D01*
X165392600Y-36827400D02*
X168652600Y-36827400D01*
X162310000Y-96907800D02*
X161393900Y-95991700D01*
X162310000Y-97950000D02*
X162310000Y-96907800D01*
%TO.N,/SER_{filters}*%
X165930000Y-38180000D02*
X165790000Y-38180000D01*
X169023900Y-37093900D02*
X167016100Y-37093900D01*
X169550000Y-37620000D02*
X169023900Y-37093900D01*
X167016100Y-37093900D02*
X165930000Y-38180000D01*
X169550000Y-57832800D02*
X169550000Y-37620000D01*
X165926700Y-61456100D02*
X169550000Y-57832800D01*
X165926700Y-87824500D02*
X165926700Y-61456100D01*
X175010000Y-96907800D02*
X165926700Y-87824500D01*
X175010000Y-97950000D02*
X175010000Y-96907800D01*
%TO.N,Net-(J4-Pin_1)*%
X146260000Y-37420000D02*
X146260000Y-38880000D01*
X146260000Y-38880000D02*
X138480000Y-46660000D01*
X176368900Y-36549600D02*
X147130400Y-36549600D01*
X178221500Y-39529500D02*
X178221500Y-38402200D01*
X191127800Y-52435800D02*
X178221500Y-39529500D01*
X147130400Y-36549600D02*
X146260000Y-37420000D01*
X178221500Y-38402200D02*
X176368900Y-36549600D01*
X191127800Y-65515600D02*
X191127800Y-52435800D01*
X200050000Y-75480000D02*
X200050000Y-74437800D01*
X138480000Y-46660000D02*
X137570000Y-46660000D01*
X200050000Y-74437800D02*
X191127800Y-65515600D01*
%TO.N,GND*%
X154110000Y-38055300D02*
X153234900Y-37180200D01*
X153234900Y-37180200D02*
X148919800Y-37180200D01*
X154110000Y-51383900D02*
X154110000Y-38055300D01*
X157646300Y-61023700D02*
X157646300Y-54920200D01*
X157646300Y-54920200D02*
X154110000Y-51383900D01*
X148919800Y-37180200D02*
X147870000Y-38230000D01*
X156770000Y-61900000D02*
X157646300Y-61023700D01*
X147870000Y-38230000D02*
X147670000Y-38230000D01*
%TO.N,/O_{15}*%
X143948800Y-77836600D02*
X149060000Y-82947800D01*
X143948700Y-77836600D02*
X143948800Y-77836600D01*
X149060000Y-82947800D02*
X149060000Y-83940000D01*
X137570000Y-53660000D02*
X143948700Y-60038700D01*
X143948700Y-60038700D02*
X143948700Y-77836600D01*
X137570000Y-51740000D02*
X137570000Y-53660000D01*
%TO.N,/~{OE}*%
X139540000Y-85290000D02*
X146100000Y-91850000D01*
X138607800Y-85290000D02*
X139540000Y-85290000D01*
X135710000Y-82392200D02*
X138607800Y-85290000D01*
X146100000Y-91850000D02*
X146100000Y-96980000D01*
X146100000Y-96980000D02*
X147070000Y-97950000D01*
X135710000Y-81400000D02*
X135710000Y-82392200D01*
%TO.N,/SER1*%
X136870000Y-80020000D02*
X135710000Y-78860000D01*
X140460000Y-80020000D02*
X136870000Y-80020000D01*
X141870000Y-86172200D02*
X141870000Y-81430000D01*
X141870000Y-81430000D02*
X140460000Y-80020000D01*
X154690000Y-97950000D02*
X153647800Y-97950000D01*
X153647800Y-97950000D02*
X141870000Y-86172200D01*
%TO.N,/~{SRCLR}*%
X143647800Y-97950000D02*
X143590000Y-97892200D01*
X144530000Y-97950000D02*
X143647800Y-97950000D01*
X143590000Y-97892200D02*
X135710000Y-90012200D01*
X135710000Y-90012200D02*
X135710000Y-89020000D01*
%TO.N,/~{OE}_{filters}*%
X164800000Y-89237800D02*
X172470000Y-96907800D01*
X164800000Y-61085700D02*
X164800000Y-89237800D01*
X168330000Y-57555700D02*
X164800000Y-61085700D01*
X168330000Y-38180000D02*
X168330000Y-57555700D01*
X172470000Y-96907800D02*
X172470000Y-97950000D01*
%TO.N,Net-(J1-GPIO21{slash}PCM_DOUT)*%
X141980000Y-110142200D02*
X141970000Y-110152200D01*
X141970000Y-110152200D02*
X141970000Y-113900000D01*
X141980000Y-109100000D02*
X141980000Y-110142200D01*
X141970000Y-113900000D02*
X141970000Y-114942200D01*
X141940000Y-117850000D02*
X141940000Y-114972200D01*
X141940000Y-114972200D02*
X141970000Y-114942200D01*
%TO.N,B*%
X174244500Y-54415500D02*
X174244500Y-48265500D01*
X174244500Y-48265500D02*
X175890000Y-46620000D01*
X166760000Y-61900000D02*
X174244500Y-54415500D01*
%TO.N,Net-(K1-Pad7)*%
X175002700Y-85497300D02*
X172200000Y-88300000D01*
X175890000Y-61860000D02*
X175002700Y-62747300D01*
X175002700Y-62747300D02*
X175002700Y-85497300D01*
%TO.N,A*%
X137570000Y-61900000D02*
X132934300Y-57264300D01*
X132934300Y-50874300D02*
X128680000Y-46620000D01*
X132934300Y-57264300D02*
X132934300Y-50874300D01*
%TO.N,/SER1*%
X154680000Y-105517800D02*
X154700000Y-105497800D01*
X154680000Y-106560000D02*
X154680000Y-105517800D01*
X154700000Y-100757800D02*
X154690000Y-100747800D01*
X154700000Y-105497800D02*
X154700000Y-101800000D01*
X154700000Y-101800000D02*
X154700000Y-100757800D01*
X154690000Y-100747800D02*
X154690000Y-97950000D01*
%TO.N,/RCLK*%
X152150000Y-100747800D02*
X152150000Y-97950000D01*
X152160000Y-101800000D02*
X152160000Y-100757800D01*
X152160000Y-100757800D02*
X152150000Y-100747800D01*
X152160000Y-105497800D02*
X152160000Y-101800000D01*
X152140000Y-106560000D02*
X152140000Y-105517800D01*
X152140000Y-105517800D02*
X152160000Y-105497800D01*
%TO.N,/SRCLK*%
X149620000Y-100757800D02*
X149610000Y-100747800D01*
X149620000Y-105497800D02*
X149620000Y-101800000D01*
X149600000Y-106560000D02*
X149600000Y-105517800D01*
X149600000Y-105517800D02*
X149620000Y-105497800D01*
X149610000Y-100747800D02*
X149610000Y-97950000D01*
X149620000Y-101800000D02*
X149620000Y-100757800D01*
%TO.N,/~{SRCLR}*%
X144540000Y-101800000D02*
X144540000Y-100757800D01*
X144520000Y-105517800D02*
X144540000Y-105497800D01*
X144530000Y-100747800D02*
X144530000Y-97950000D01*
X144540000Y-105497800D02*
X144540000Y-101800000D01*
X144540000Y-100757800D02*
X144530000Y-100747800D01*
X144520000Y-106560000D02*
X144520000Y-105517800D01*
%TO.N,/~{OE}*%
X147080000Y-100757800D02*
X147070000Y-100747800D01*
X147060000Y-105517800D02*
X147080000Y-105497800D01*
X147060000Y-106560000D02*
X147060000Y-105517800D01*
X147070000Y-100747800D02*
X147070000Y-97950000D01*
X147080000Y-105497800D02*
X147080000Y-101800000D01*
X147080000Y-101800000D02*
X147080000Y-100757800D01*
%TO.N,/O_{16}*%
X149060000Y-86480000D02*
X149060000Y-85487800D01*
X150077900Y-60177900D02*
X150077900Y-84469900D01*
X146670000Y-56770000D02*
X150077900Y-60177900D01*
X150077900Y-84469900D02*
X149060000Y-85487800D01*
%TO.N,C*%
X191750000Y-82990000D02*
X191750000Y-80450000D01*
X203250000Y-85610000D02*
X203250000Y-83070000D01*
X191750000Y-80450000D02*
X191750000Y-79407800D01*
X202590000Y-78827800D02*
X202590000Y-75480000D01*
X191100000Y-75500000D02*
X191100000Y-78757800D01*
X191100000Y-75500000D02*
X191100000Y-74457800D01*
X191100000Y-78757800D02*
X191750000Y-79407800D01*
X191100000Y-74457800D02*
X188687000Y-72044800D01*
X188687000Y-72044800D02*
X188687000Y-59584400D01*
X188687000Y-59584400D02*
X177928900Y-48826300D01*
X203250000Y-80530000D02*
X203250000Y-79487800D01*
X191750000Y-85530000D02*
X191750000Y-82990000D01*
X203250000Y-79487800D02*
X202590000Y-78827800D01*
%TO.N,/O_{17}*%
X149060000Y-89020000D02*
X149060000Y-88027800D01*
X149060000Y-88027800D02*
X150865000Y-86222800D01*
X150865000Y-86222800D02*
X150865000Y-62725000D01*
X150865000Y-62725000D02*
X156770000Y-56820000D01*
%TO.N,Net-(J1-GPIO25)*%
X164800000Y-116807800D02*
X164830000Y-116777800D01*
X164840000Y-109100000D02*
X164840000Y-112847800D01*
X164830000Y-116777800D02*
X164830000Y-113900000D01*
X164800000Y-117850000D02*
X164800000Y-116807800D01*
X164830000Y-113900000D02*
X164830000Y-112857800D01*
X164840000Y-112847800D02*
X164830000Y-112857800D01*
%TO.N,Net-(J1-GPIO8{slash}CE0)*%
X162290000Y-116777800D02*
X162290000Y-113900000D01*
X162300000Y-112847800D02*
X162290000Y-112857800D01*
X162300000Y-109100000D02*
X162300000Y-112847800D01*
X162290000Y-113900000D02*
X162290000Y-112857800D01*
X162260000Y-117850000D02*
X162260000Y-116807800D01*
X162260000Y-116807800D02*
X162290000Y-116777800D01*
%TO.N,Net-(J1-GPIO14{slash}TXD)*%
X182580000Y-117850000D02*
X182580000Y-116807800D01*
X182620000Y-112847800D02*
X182610000Y-112857800D01*
X182610000Y-116777800D02*
X182610000Y-113900000D01*
X182620000Y-109100000D02*
X182620000Y-112847800D01*
X182580000Y-116807800D02*
X182610000Y-116777800D01*
X182610000Y-113900000D02*
X182610000Y-112857800D01*
%TO.N,Net-(J1-GPIO12{slash}PWM0)*%
X152140000Y-112847800D02*
X152130000Y-112857800D01*
X152100000Y-116807800D02*
X152130000Y-116777800D01*
X152130000Y-113900000D02*
X152130000Y-112857800D01*
X152130000Y-116777800D02*
X152130000Y-113900000D01*
X152100000Y-117850000D02*
X152100000Y-116807800D01*
X152140000Y-109100000D02*
X152140000Y-112847800D01*
%TO.N,Net-(J1-GPIO20{slash}PCM_DIN)*%
X144510000Y-113900000D02*
X144510000Y-114942200D01*
X144520000Y-110142200D02*
X144510000Y-110152200D01*
X144510000Y-110152200D02*
X144510000Y-113900000D01*
X144520000Y-109100000D02*
X144520000Y-110142200D01*
X144480000Y-114972200D02*
X144510000Y-114942200D01*
X144480000Y-117850000D02*
X144480000Y-114972200D01*
%TO.N,Net-(J1-GPIO7{slash}CE1)*%
X159720000Y-116807800D02*
X159750000Y-116777800D01*
X159720000Y-117850000D02*
X159720000Y-116807800D01*
X159750000Y-116777800D02*
X159750000Y-113900000D01*
X159760000Y-109100000D02*
X159760000Y-112847800D01*
X159760000Y-112847800D02*
X159750000Y-112857800D01*
X159750000Y-113900000D02*
X159750000Y-112857800D01*
%TO.N,/O_{21}*%
X162410000Y-56090000D02*
X166760000Y-51740000D01*
X162410000Y-73780000D02*
X162410000Y-56090000D01*
%TO.N,Net-(J1-3v3Power2)*%
X169940000Y-100757800D02*
X169930000Y-100747800D01*
X169940000Y-101800000D02*
X169940000Y-100757800D01*
X169940000Y-105497800D02*
X169940000Y-101800000D01*
X169920000Y-105517800D02*
X169940000Y-105497800D01*
X169920000Y-106560000D02*
X169920000Y-105517800D01*
X169930000Y-100747800D02*
X169930000Y-97950000D01*
%TO.N,Net-(J1-GPIO15{slash}RXD)*%
X180070000Y-113900000D02*
X180070000Y-112857800D01*
X180080000Y-112847800D02*
X180070000Y-112857800D01*
X180080000Y-109100000D02*
X180080000Y-112847800D01*
%TO.N,Net-(J1-GPIO18{slash}PCM_CLK)*%
X177500000Y-116807800D02*
X177530000Y-116777800D01*
X177500000Y-117850000D02*
X177500000Y-116807800D01*
X177540000Y-112847800D02*
X177530000Y-112857800D01*
X177530000Y-113900000D02*
X177530000Y-112857800D01*
X177530000Y-116777800D02*
X177530000Y-113900000D01*
X177540000Y-109100000D02*
X177540000Y-112847800D01*
%TO.N,Net-(J1-GPIO16)*%
X147050000Y-116777800D02*
X147050000Y-113900000D01*
X147020000Y-117850000D02*
X147020000Y-116807800D01*
X147060000Y-109100000D02*
X147060000Y-112847800D01*
X147060000Y-112847800D02*
X147050000Y-112857800D01*
X147050000Y-113900000D02*
X147050000Y-112857800D01*
X147020000Y-116807800D02*
X147050000Y-116777800D01*
%TO.N,Net-(J1-GPIO1{slash}ID_SC)*%
X157180000Y-116807800D02*
X157210000Y-116777800D01*
X157210000Y-116777800D02*
X157210000Y-113900000D01*
X157210000Y-113900000D02*
X157210000Y-112857800D01*
X157220000Y-109100000D02*
X157220000Y-112847800D01*
X157180000Y-117850000D02*
X157180000Y-116807800D01*
X157220000Y-112847800D02*
X157210000Y-112857800D01*
%TO.N,GND*%
X152250000Y-90567800D02*
X156770000Y-86047800D01*
X156770000Y-86047800D02*
X156770000Y-61900000D01*
X180080000Y-106560000D02*
X180080000Y-105517800D01*
X180100000Y-101800000D02*
X180100000Y-100757800D01*
X180100000Y-100757800D02*
X180090000Y-100747800D01*
X180080000Y-105517800D02*
X180100000Y-105497800D01*
X180090000Y-100747800D02*
X180090000Y-97950000D01*
X180100000Y-105497800D02*
X180100000Y-101800000D01*
X152250000Y-91560000D02*
X152250000Y-90567800D01*
%TO.N,/I_{11}*%
X135710000Y-76320000D02*
X135710000Y-75327800D01*
X136360000Y-75327800D02*
X135710000Y-75327800D01*
X137907800Y-73780000D02*
X136360000Y-75327800D01*
X138900000Y-73780000D02*
X137907800Y-73780000D01*
%TO.N,/O_{14}*%
X132800900Y-45778200D02*
X144827900Y-57805200D01*
X127828300Y-46268000D02*
X128318100Y-45778200D01*
X128680000Y-51700000D02*
X127828300Y-50848300D01*
X127828300Y-50848300D02*
X127828300Y-46268000D01*
X144827900Y-76175700D02*
X149060000Y-80407800D01*
X144827900Y-57805200D02*
X144827900Y-76175700D01*
X128318100Y-45778200D02*
X132800900Y-45778200D01*
X149060000Y-81400000D02*
X149060000Y-80407800D01*
%TO.N,Net-(J1-GPIO23)*%
X172450000Y-113900000D02*
X172450000Y-112857800D01*
X172450000Y-116777800D02*
X172450000Y-113900000D01*
X172420000Y-117850000D02*
X172420000Y-116807800D01*
X172420000Y-116807800D02*
X172450000Y-116777800D01*
X172460000Y-109100000D02*
X172460000Y-112847800D01*
X172460000Y-112847800D02*
X172450000Y-112857800D01*
%TO.N,Net-(J1-GPIO24)*%
X169880000Y-117850000D02*
X169880000Y-116807800D01*
X169880000Y-116807800D02*
X169910000Y-116777800D01*
X169920000Y-112847800D02*
X169910000Y-112857800D01*
X169910000Y-116777800D02*
X169910000Y-113900000D01*
X169920000Y-109100000D02*
X169920000Y-112847800D01*
X169910000Y-113900000D02*
X169910000Y-112857800D01*
%TO.N,Net-(J1-GPIO0{slash}ID_SD)*%
X157240000Y-105497800D02*
X157240000Y-101800000D01*
X157240000Y-101800000D02*
X157240000Y-100757800D01*
X157230000Y-100747800D02*
X157230000Y-97950000D01*
X157220000Y-106560000D02*
X157220000Y-105517800D01*
X157220000Y-105517800D02*
X157240000Y-105497800D01*
X157240000Y-100757800D02*
X157230000Y-100747800D01*
%TO.N,/~{SRCLR}_{filters}*%
X162320000Y-105497800D02*
X162320000Y-101800000D01*
X162300000Y-105517800D02*
X162320000Y-105497800D01*
X162300000Y-106560000D02*
X162300000Y-105517800D01*
X162310000Y-100747800D02*
X162310000Y-97950000D01*
X162320000Y-100757800D02*
X162310000Y-100747800D01*
X162320000Y-101800000D02*
X162320000Y-100757800D01*
%TO.N,/RCLK_{filters}*%
X177560000Y-105497800D02*
X177560000Y-101800000D01*
X177540000Y-106560000D02*
X177540000Y-105517800D01*
X177550000Y-72839700D02*
X176719600Y-72009300D01*
X176719600Y-45071800D02*
X170870000Y-39222200D01*
X176719600Y-72009300D02*
X176719600Y-45071800D01*
X177540000Y-105517800D02*
X177560000Y-105497800D01*
X177560000Y-100757800D02*
X177550000Y-100747800D01*
X177550000Y-96907800D02*
X177550000Y-72839700D01*
X177550000Y-97950000D02*
X177550000Y-96907800D01*
X170870000Y-38180000D02*
X170870000Y-39222200D01*
X177560000Y-101800000D02*
X177560000Y-100757800D01*
X177550000Y-100747800D02*
X177550000Y-97950000D01*
%TO.N,Net-(J1-GPIO10{slash}MOSI)*%
X167400000Y-101800000D02*
X167400000Y-100757800D01*
X167400000Y-105497800D02*
X167400000Y-101800000D01*
X167390000Y-100747800D02*
X167390000Y-97950000D01*
X167400000Y-100757800D02*
X167390000Y-100747800D01*
X167380000Y-105517800D02*
X167400000Y-105497800D01*
X167380000Y-106560000D02*
X167380000Y-105517800D01*
%TO.N,Net-(J1-GPIO9{slash}MISO)*%
X164860000Y-101800000D02*
X164860000Y-100757800D01*
X164840000Y-105517800D02*
X164860000Y-105497800D01*
X164860000Y-100757800D02*
X164850000Y-100747800D01*
X164850000Y-100747800D02*
X164850000Y-97950000D01*
X164840000Y-106560000D02*
X164840000Y-105517800D01*
X164860000Y-105497800D02*
X164860000Y-101800000D01*
%TO.N,Net-(J1-5VPower2)*%
X187660000Y-116807800D02*
X187690000Y-116777800D01*
X187690000Y-116777800D02*
X187690000Y-113900000D01*
X187700000Y-112847800D02*
X187690000Y-112857800D01*
X187690000Y-113900000D02*
X187690000Y-112857800D01*
X187700000Y-109100000D02*
X187700000Y-112847800D01*
X187660000Y-117850000D02*
X187660000Y-116807800D01*
%TO.N,/SER_{filters}*%
X175000000Y-106560000D02*
X175000000Y-102862200D01*
X175000000Y-102862200D02*
X175020000Y-102842200D01*
X175010000Y-97950000D02*
X175010000Y-98992200D01*
X175020000Y-101800000D02*
X175020000Y-102842200D01*
X175020000Y-99002200D02*
X175010000Y-98992200D01*
X175020000Y-101800000D02*
X175020000Y-99002200D01*
%TO.N,Net-(J1-GPIO2{slash}SDA)*%
X187720000Y-102321100D02*
X187710000Y-102311100D01*
X187710000Y-102311100D02*
X187710000Y-97950000D01*
X187720000Y-102321100D02*
X187720000Y-102842200D01*
X187720000Y-101800000D02*
X187720000Y-102321100D01*
X187700000Y-102862200D02*
X187720000Y-102842200D01*
X187700000Y-106560000D02*
X187700000Y-102862200D01*
%TO.N,Net-(J1-3V3Power1)*%
X190240000Y-106560000D02*
X190240000Y-105517800D01*
X190260000Y-100757800D02*
X190250000Y-100747800D01*
X190240000Y-105517800D02*
X190260000Y-105497800D01*
X190260000Y-105497800D02*
X190260000Y-101800000D01*
X190250000Y-100747800D02*
X190250000Y-97950000D01*
X190260000Y-101800000D02*
X190260000Y-100757800D01*
%TO.N,/SRCLK_{filters}*%
X182620000Y-106560000D02*
X182620000Y-105517800D01*
X182640000Y-100757800D02*
X182630000Y-100747800D01*
X175950000Y-39222200D02*
X176992200Y-40264400D01*
X182620000Y-105517800D02*
X182640000Y-105497800D01*
X182630000Y-100747800D02*
X182630000Y-97950000D01*
X182630000Y-97950000D02*
X182630000Y-96907800D01*
X176992200Y-67298800D02*
X182630000Y-72936600D01*
X182640000Y-101800000D02*
X182640000Y-100757800D01*
X175950000Y-38180000D02*
X175950000Y-39222200D01*
X182640000Y-105497800D02*
X182640000Y-101800000D01*
X182630000Y-72936600D02*
X182630000Y-96907800D01*
X176992200Y-40264400D02*
X176992200Y-67298800D01*
%TO.N,Net-(J1-GPIO3{slash}SCL)*%
X185180000Y-100757800D02*
X185170000Y-100747800D01*
X185160000Y-105517800D02*
X185180000Y-105497800D01*
X185160000Y-106560000D02*
X185160000Y-105517800D01*
X185180000Y-101800000D02*
X185180000Y-100757800D01*
X185170000Y-100747800D02*
X185170000Y-97950000D01*
X185180000Y-105497800D02*
X185180000Y-101800000D01*
%TO.N,/~{OE}_{filters}*%
X172460000Y-102862200D02*
X172460000Y-106560000D01*
X172470000Y-97950000D02*
X172470000Y-100747800D01*
X172480000Y-101800000D02*
X172480000Y-102842200D01*
X172480000Y-102842200D02*
X172460000Y-102862200D01*
X172480000Y-101800000D02*
X172480000Y-100757800D01*
X172470000Y-100747800D02*
X172480000Y-100757800D01*
%TO.N,/5VPower1*%
X190200000Y-116807800D02*
X190230000Y-116777800D01*
X190230000Y-113900000D02*
X190230000Y-112857800D01*
X190240000Y-112847800D02*
X190230000Y-112857800D01*
X190240000Y-109100000D02*
X190240000Y-112847800D01*
X190230000Y-116777800D02*
X190230000Y-113900000D01*
X190200000Y-117850000D02*
X190200000Y-116807800D01*
%TO.N,Net-(J4-Pin_1)*%
X199450000Y-85560000D02*
X199450000Y-83020000D01*
X200050000Y-75480000D02*
X200050000Y-78837800D01*
X200050000Y-78837800D02*
X199450000Y-79437800D01*
X199450000Y-80480000D02*
X199450000Y-79437800D01*
X199450000Y-83020000D02*
X199450000Y-80480000D01*
%TO.N,Net-(J10-Pin_1)*%
X188000000Y-82960000D02*
X188000000Y-80420000D01*
X188560000Y-75500000D02*
X188560000Y-74457800D01*
X188000000Y-85500000D02*
X188000000Y-82960000D01*
X177928900Y-59974500D02*
X177928900Y-63826700D01*
X177928900Y-63826700D02*
X188560000Y-74457800D01*
%TO.N,GND1*%
X159760000Y-106560000D02*
X159760000Y-105517800D01*
X159780000Y-101800000D02*
X159780000Y-100757800D01*
X159780000Y-100757800D02*
X159770000Y-100747800D01*
X159770000Y-100747800D02*
X159770000Y-97950000D01*
X159780000Y-105497800D02*
X159780000Y-101800000D01*
X159760000Y-105517800D02*
X159780000Y-105497800D01*
%TO.N,GND2*%
X141990000Y-101800000D02*
X141990000Y-97950000D01*
X142000000Y-101800000D02*
X141990000Y-101800000D01*
X141980000Y-105517800D02*
X141990000Y-105507800D01*
X141990000Y-105507800D02*
X141990000Y-101800000D01*
X141980000Y-106560000D02*
X141980000Y-105517800D01*
%TO.N,GND4*%
X174990000Y-116777800D02*
X174990000Y-113900000D01*
X175000000Y-109100000D02*
X175000000Y-112847800D01*
X175000000Y-112847800D02*
X174990000Y-112857800D01*
X174990000Y-113900000D02*
X174990000Y-112857800D01*
X174960000Y-117850000D02*
X174960000Y-116807800D01*
X174960000Y-116807800D02*
X174990000Y-116777800D01*
%TO.N,GND6*%
X154680000Y-112847800D02*
X154670000Y-112857800D01*
X154670000Y-113900000D02*
X154670000Y-112857800D01*
X154680000Y-109100000D02*
X154680000Y-112847800D01*
X154640000Y-116807800D02*
X154670000Y-116777800D01*
X154670000Y-116777800D02*
X154670000Y-113900000D01*
X154640000Y-117850000D02*
X154640000Y-116807800D01*
%TO.N,GND3*%
X185120000Y-116807800D02*
X185150000Y-116777800D01*
X185160000Y-109100000D02*
X185160000Y-112847800D01*
X185160000Y-112847800D02*
X185150000Y-112857800D01*
X185150000Y-113900000D02*
X185150000Y-112857800D01*
X185120000Y-117850000D02*
X185120000Y-116807800D01*
X185150000Y-116777800D02*
X185150000Y-113900000D01*
%TO.N,GND7*%
X149590000Y-116777800D02*
X149590000Y-113900000D01*
X149560000Y-117850000D02*
X149560000Y-116807800D01*
X149590000Y-113900000D02*
X149590000Y-112857800D01*
X149600000Y-109100000D02*
X149600000Y-112847800D01*
X149600000Y-112847800D02*
X149590000Y-112857800D01*
X149560000Y-116807800D02*
X149590000Y-116777800D01*
%TO.N,GND5*%
X167370000Y-116777800D02*
X167370000Y-113900000D01*
X167380000Y-112847800D02*
X167370000Y-112857800D01*
X167370000Y-113900000D02*
X167370000Y-112857800D01*
X167340000Y-117850000D02*
X167340000Y-116807800D01*
X167380000Y-109100000D02*
X167380000Y-112847800D01*
X167340000Y-116807800D02*
X167370000Y-116777800D01*
%TO.N,/12V*%
X163735000Y-89242800D02*
X162410000Y-90567800D01*
X155290000Y-50260000D02*
X155290000Y-38230000D01*
X162410000Y-91560000D02*
X162410000Y-90567800D01*
X156770000Y-51740000D02*
X155290000Y-50260000D01*
X163735000Y-59845000D02*
X163735000Y-89242800D01*
X166760000Y-56820000D02*
X163735000Y-59845000D01*
%TO.N,/5V*%
X143538000Y-48484200D02*
X152750000Y-39272200D01*
X152750000Y-38230000D02*
X152750000Y-39272200D01*
X143538000Y-55586400D02*
X143538000Y-48484200D01*
%TD*%
%TA.AperFunction,Conductor*%
%TO.N,GND*%
G36*
X180350000Y-103130633D02*
G01*
X180563483Y-103073433D01*
X180563492Y-103073429D01*
X180777578Y-102973600D01*
X180971082Y-102838105D01*
X181138105Y-102671082D01*
X181268119Y-102485405D01*
X181322696Y-102441781D01*
X181392195Y-102434588D01*
X181454549Y-102466110D01*
X181471269Y-102485405D01*
X181601505Y-102671401D01*
X181768599Y-102838495D01*
X181865384Y-102906265D01*
X181962165Y-102974032D01*
X181962168Y-102974034D01*
X181962170Y-102974035D01*
X182004403Y-102993728D01*
X182056843Y-103039898D01*
X182076000Y-103106110D01*
X182076000Y-105244562D01*
X182056315Y-105311601D01*
X182004406Y-105356944D01*
X181942168Y-105385966D01*
X181748597Y-105521505D01*
X181581508Y-105688594D01*
X181451269Y-105874595D01*
X181396692Y-105918219D01*
X181327193Y-105925412D01*
X181264839Y-105893890D01*
X181248119Y-105874594D01*
X181118113Y-105688926D01*
X181118108Y-105688920D01*
X180951082Y-105521894D01*
X180757578Y-105386399D01*
X180543492Y-105286570D01*
X180543486Y-105286567D01*
X180330000Y-105229364D01*
X180330000Y-106126988D01*
X180272993Y-106094075D01*
X180145826Y-106060000D01*
X180014174Y-106060000D01*
X179887007Y-106094075D01*
X179830000Y-106126988D01*
X179830000Y-105229364D01*
X179829999Y-105229364D01*
X179616513Y-105286567D01*
X179616507Y-105286570D01*
X179402422Y-105386399D01*
X179402420Y-105386400D01*
X179208926Y-105521886D01*
X179208920Y-105521891D01*
X179041891Y-105688920D01*
X179041890Y-105688922D01*
X178911880Y-105874595D01*
X178857303Y-105918219D01*
X178787804Y-105925412D01*
X178725450Y-105893890D01*
X178708730Y-105874594D01*
X178578494Y-105688597D01*
X178411402Y-105521506D01*
X178411395Y-105521501D01*
X178217831Y-105385965D01*
X178217824Y-105385961D01*
X178195594Y-105375595D01*
X178143155Y-105329422D01*
X178124000Y-105263214D01*
X178124000Y-103106110D01*
X178143685Y-103039071D01*
X178195596Y-102993728D01*
X178237830Y-102974035D01*
X178431401Y-102838495D01*
X178598495Y-102671401D01*
X178728730Y-102485405D01*
X178783307Y-102441781D01*
X178852805Y-102434587D01*
X178915160Y-102466110D01*
X178931879Y-102485405D01*
X179061890Y-102671078D01*
X179228917Y-102838105D01*
X179422421Y-102973600D01*
X179636507Y-103073429D01*
X179636516Y-103073433D01*
X179850000Y-103130634D01*
X179850000Y-102233012D01*
X179907007Y-102265925D01*
X180034174Y-102300000D01*
X180165826Y-102300000D01*
X180292993Y-102265925D01*
X180350000Y-102233012D01*
X180350000Y-103130633D01*
G37*
%TD.AperFunction*%
%TA.AperFunction,Conductor*%
G36*
X180340000Y-99280633D02*
G01*
X180553483Y-99223433D01*
X180553492Y-99223429D01*
X180767578Y-99123600D01*
X180961082Y-98988105D01*
X181128105Y-98821082D01*
X181258119Y-98635405D01*
X181312696Y-98591781D01*
X181382195Y-98584588D01*
X181444549Y-98616110D01*
X181461269Y-98635405D01*
X181591505Y-98821401D01*
X181758599Y-98988495D01*
X181855384Y-99056265D01*
X181952165Y-99124032D01*
X181952168Y-99124034D01*
X181952170Y-99124035D01*
X181994403Y-99143728D01*
X182046843Y-99189898D01*
X182066000Y-99256110D01*
X182066000Y-100498551D01*
X182046315Y-100565590D01*
X181994407Y-100610932D01*
X181962172Y-100625963D01*
X181962169Y-100625965D01*
X181768597Y-100761505D01*
X181601508Y-100928594D01*
X181471269Y-101114595D01*
X181416692Y-101158219D01*
X181347193Y-101165412D01*
X181284839Y-101133890D01*
X181268119Y-101114594D01*
X181138113Y-100928926D01*
X181138108Y-100928920D01*
X180971082Y-100761894D01*
X180777578Y-100626399D01*
X180563492Y-100526570D01*
X180563486Y-100526567D01*
X180350000Y-100469364D01*
X180350000Y-101366988D01*
X180292993Y-101334075D01*
X180165826Y-101300000D01*
X180034174Y-101300000D01*
X179907007Y-101334075D01*
X179850000Y-101366988D01*
X179850000Y-100469364D01*
X179849999Y-100469364D01*
X179636513Y-100526567D01*
X179636507Y-100526570D01*
X179422422Y-100626399D01*
X179422420Y-100626400D01*
X179228926Y-100761886D01*
X179228920Y-100761891D01*
X179061891Y-100928920D01*
X179061890Y-100928922D01*
X178931880Y-101114595D01*
X178877303Y-101158219D01*
X178807804Y-101165412D01*
X178745450Y-101133890D01*
X178728730Y-101114594D01*
X178598494Y-100928597D01*
X178431402Y-100761506D01*
X178431395Y-100761501D01*
X178237831Y-100625965D01*
X178237828Y-100625963D01*
X178185593Y-100601605D01*
X178133155Y-100555432D01*
X178114000Y-100489224D01*
X178114000Y-99256110D01*
X178133685Y-99189071D01*
X178185596Y-99143728D01*
X178227830Y-99124035D01*
X178421401Y-98988495D01*
X178588495Y-98821401D01*
X178718730Y-98635405D01*
X178773307Y-98591781D01*
X178842805Y-98584587D01*
X178905160Y-98616110D01*
X178921879Y-98635405D01*
X179051890Y-98821078D01*
X179218917Y-98988105D01*
X179412421Y-99123600D01*
X179626507Y-99223429D01*
X179626516Y-99223433D01*
X179840000Y-99280634D01*
X179840000Y-98383012D01*
X179897007Y-98415925D01*
X180024174Y-98450000D01*
X180155826Y-98450000D01*
X180282993Y-98415925D01*
X180340000Y-98383012D01*
X180340000Y-99280633D01*
G37*
%TD.AperFunction*%
%TA.AperFunction,Conductor*%
G36*
X177488803Y-68593465D02*
G01*
X177495281Y-68599497D01*
X180443001Y-71547217D01*
X180476486Y-71608540D01*
X180471502Y-71678232D01*
X180429630Y-71734165D01*
X180364166Y-71758582D01*
X180344513Y-71758426D01*
X180300002Y-71754532D01*
X180299998Y-71754532D01*
X180073313Y-71774364D01*
X180073302Y-71774366D01*
X179853511Y-71833258D01*
X179853502Y-71833261D01*
X179647267Y-71929431D01*
X179647265Y-71929432D01*
X179460858Y-72059954D01*
X179299954Y-72220858D01*
X179169432Y-72407265D01*
X179169431Y-72407267D01*
X179073261Y-72613502D01*
X179073258Y-72613511D01*
X179014366Y-72833302D01*
X179014364Y-72833313D01*
X178994532Y-73059998D01*
X178994532Y-73060001D01*
X179014364Y-73286686D01*
X179014366Y-73286697D01*
X179073258Y-73506488D01*
X179073261Y-73506497D01*
X179169431Y-73712732D01*
X179169432Y-73712734D01*
X179299954Y-73899141D01*
X179460858Y-74060045D01*
X179460861Y-74060047D01*
X179647266Y-74190568D01*
X179853504Y-74286739D01*
X179853509Y-74286740D01*
X179853511Y-74286741D01*
X179906415Y-74300916D01*
X180073308Y-74345635D01*
X180235230Y-74359801D01*
X180299998Y-74365468D01*
X180300000Y-74365468D01*
X180300002Y-74365468D01*
X180356673Y-74360509D01*
X180526692Y-74345635D01*
X180746496Y-74286739D01*
X180952734Y-74190568D01*
X181139139Y-74060047D01*
X181300047Y-73899139D01*
X181430568Y-73712734D01*
X181526739Y-73506496D01*
X181585635Y-73286692D01*
X181605468Y-73060000D01*
X181601573Y-73015485D01*
X181615339Y-72946988D01*
X181663953Y-72896804D01*
X181731982Y-72880870D01*
X181797826Y-72904244D01*
X181812782Y-72916998D01*
X182029681Y-73133897D01*
X182063166Y-73195220D01*
X182066000Y-73221578D01*
X182066000Y-96643888D01*
X182046315Y-96710927D01*
X181994406Y-96756269D01*
X181952176Y-96775961D01*
X181952169Y-96775965D01*
X181758597Y-96911505D01*
X181591508Y-97078594D01*
X181461269Y-97264595D01*
X181406692Y-97308219D01*
X181337193Y-97315412D01*
X181274839Y-97283890D01*
X181258119Y-97264594D01*
X181128113Y-97078926D01*
X181128108Y-97078920D01*
X180961082Y-96911894D01*
X180767578Y-96776399D01*
X180553492Y-96676570D01*
X180553486Y-96676567D01*
X180340000Y-96619364D01*
X180340000Y-97516988D01*
X180282993Y-97484075D01*
X180155826Y-97450000D01*
X180024174Y-97450000D01*
X179897007Y-97484075D01*
X179840000Y-97516988D01*
X179840000Y-96619364D01*
X179839999Y-96619364D01*
X179626513Y-96676567D01*
X179626507Y-96676570D01*
X179412422Y-96776399D01*
X179412420Y-96776400D01*
X179218926Y-96911886D01*
X179218920Y-96911891D01*
X179051891Y-97078920D01*
X179051890Y-97078922D01*
X178921880Y-97264595D01*
X178867303Y-97308219D01*
X178797804Y-97315412D01*
X178735450Y-97283890D01*
X178718730Y-97264594D01*
X178588494Y-97078597D01*
X178421402Y-96911506D01*
X178421395Y-96911501D01*
X178413177Y-96905747D01*
X178344518Y-96857671D01*
X178227831Y-96775965D01*
X178227829Y-96775964D01*
X178185595Y-96756270D01*
X178133156Y-96710097D01*
X178114000Y-96643888D01*
X178114000Y-88299998D01*
X178994532Y-88299998D01*
X178994532Y-88300001D01*
X179014364Y-88526686D01*
X179014366Y-88526697D01*
X179073258Y-88746488D01*
X179073261Y-88746497D01*
X179169431Y-88952732D01*
X179169432Y-88952734D01*
X179299954Y-89139141D01*
X179460858Y-89300045D01*
X179460861Y-89300047D01*
X179647266Y-89430568D01*
X179853504Y-89526739D01*
X180073308Y-89585635D01*
X180235230Y-89599801D01*
X180299998Y-89605468D01*
X180300000Y-89605468D01*
X180300002Y-89605468D01*
X180356673Y-89600509D01*
X180526692Y-89585635D01*
X180746496Y-89526739D01*
X180952734Y-89430568D01*
X181139139Y-89300047D01*
X181300047Y-89139139D01*
X181430568Y-88952734D01*
X181526739Y-88746496D01*
X181585635Y-88526692D01*
X181605468Y-88300000D01*
X181603970Y-88282883D01*
X181585635Y-88073313D01*
X181585635Y-88073308D01*
X181526739Y-87853504D01*
X181430568Y-87647266D01*
X181300047Y-87460861D01*
X181300045Y-87460858D01*
X181139141Y-87299954D01*
X180952734Y-87169432D01*
X180952732Y-87169431D01*
X180746497Y-87073261D01*
X180746488Y-87073258D01*
X180526697Y-87014366D01*
X180526693Y-87014365D01*
X180526692Y-87014365D01*
X180526691Y-87014364D01*
X180526686Y-87014364D01*
X180300002Y-86994532D01*
X180299998Y-86994532D01*
X180073313Y-87014364D01*
X180073302Y-87014366D01*
X179853511Y-87073258D01*
X179853502Y-87073261D01*
X179647267Y-87169431D01*
X179647265Y-87169432D01*
X179460858Y-87299954D01*
X179299954Y-87460858D01*
X179169432Y-87647265D01*
X179169431Y-87647267D01*
X179073261Y-87853502D01*
X179073258Y-87853511D01*
X179014366Y-88073302D01*
X179014364Y-88073313D01*
X178994532Y-88299998D01*
X178114000Y-88299998D01*
X178114000Y-72765450D01*
X178114000Y-72765448D01*
X178075565Y-72622004D01*
X178001313Y-72493396D01*
X177896304Y-72388387D01*
X177896303Y-72388386D01*
X177891973Y-72384056D01*
X177891962Y-72384046D01*
X177319919Y-71812003D01*
X177286434Y-71750680D01*
X177283600Y-71724322D01*
X177283600Y-68687178D01*
X177303285Y-68620139D01*
X177356089Y-68574384D01*
X177425247Y-68564440D01*
X177488803Y-68593465D01*
G37*
%TD.AperFunction*%
%TA.AperFunction,Conductor*%
G36*
X162176882Y-37133285D02*
G01*
X162222637Y-37186089D01*
X162232581Y-37255247D01*
X162211418Y-37308723D01*
X162075965Y-37502169D01*
X162075964Y-37502171D01*
X161976098Y-37716335D01*
X161976094Y-37716344D01*
X161914938Y-37944586D01*
X161914936Y-37944596D01*
X161894341Y-38179999D01*
X161894341Y-38180000D01*
X161914936Y-38415403D01*
X161914938Y-38415413D01*
X161976094Y-38643655D01*
X161976096Y-38643659D01*
X161976097Y-38643663D01*
X162007084Y-38710114D01*
X162075965Y-38857830D01*
X162075967Y-38857834D01*
X162103074Y-38896546D01*
X162211505Y-39051401D01*
X162378599Y-39218495D01*
X162458570Y-39274491D01*
X162572165Y-39354032D01*
X162572167Y-39354033D01*
X162572170Y-39354035D01*
X162786337Y-39453903D01*
X163014592Y-39515063D01*
X163191034Y-39530500D01*
X163249999Y-39535659D01*
X163250000Y-39535659D01*
X163250001Y-39535659D01*
X163308966Y-39530500D01*
X163485408Y-39515063D01*
X163713663Y-39453903D01*
X163779596Y-39423157D01*
X163848672Y-39412666D01*
X163912456Y-39441186D01*
X163950696Y-39499662D01*
X163956000Y-39535540D01*
X163956000Y-41712221D01*
X163936315Y-41779260D01*
X163919681Y-41799902D01*
X160942589Y-44776993D01*
X160942585Y-44776999D01*
X160868336Y-44905601D01*
X160868335Y-44905604D01*
X160829900Y-45049048D01*
X160829900Y-96065952D01*
X160868335Y-96209396D01*
X160942587Y-96338004D01*
X160942589Y-96338006D01*
X161054661Y-96450078D01*
X161054667Y-96450083D01*
X161389662Y-96785078D01*
X161423147Y-96846401D01*
X161418163Y-96916093D01*
X161389663Y-96960440D01*
X161271503Y-97078600D01*
X161141575Y-97264158D01*
X161086998Y-97307783D01*
X161017500Y-97314977D01*
X160955145Y-97283454D01*
X160938425Y-97264158D01*
X160808494Y-97078597D01*
X160641402Y-96911506D01*
X160641395Y-96911501D01*
X160447834Y-96775967D01*
X160447830Y-96775965D01*
X160405592Y-96756269D01*
X160233663Y-96676097D01*
X160233659Y-96676096D01*
X160233655Y-96676094D01*
X160005413Y-96614938D01*
X160005403Y-96614936D01*
X159770001Y-96594341D01*
X159769999Y-96594341D01*
X159534596Y-96614936D01*
X159534586Y-96614938D01*
X159306344Y-96676094D01*
X159306335Y-96676098D01*
X159092171Y-96775964D01*
X159092169Y-96775965D01*
X158898597Y-96911505D01*
X158731505Y-97078597D01*
X158601575Y-97264158D01*
X158546998Y-97307783D01*
X158477500Y-97314977D01*
X158415145Y-97283454D01*
X158398425Y-97264158D01*
X158268494Y-97078597D01*
X158101402Y-96911506D01*
X158101395Y-96911501D01*
X157907834Y-96775967D01*
X157907830Y-96775965D01*
X157865592Y-96756269D01*
X157693663Y-96676097D01*
X157693659Y-96676096D01*
X157693655Y-96676094D01*
X157465413Y-96614938D01*
X157465403Y-96614936D01*
X157230001Y-96594341D01*
X157229999Y-96594341D01*
X156994596Y-96614936D01*
X156994586Y-96614938D01*
X156766344Y-96676094D01*
X156766335Y-96676098D01*
X156552171Y-96775964D01*
X156552169Y-96775965D01*
X156358597Y-96911505D01*
X156191505Y-97078597D01*
X156061575Y-97264158D01*
X156006998Y-97307783D01*
X155937500Y-97314977D01*
X155875145Y-97283454D01*
X155858425Y-97264158D01*
X155728494Y-97078597D01*
X155561402Y-96911506D01*
X155561395Y-96911501D01*
X155367834Y-96775967D01*
X155367830Y-96775965D01*
X155325592Y-96756269D01*
X155153663Y-96676097D01*
X155153659Y-96676096D01*
X155153655Y-96676094D01*
X154925413Y-96614938D01*
X154925403Y-96614936D01*
X154690001Y-96594341D01*
X154689999Y-96594341D01*
X154454596Y-96614936D01*
X154454586Y-96614938D01*
X154226344Y-96676094D01*
X154226335Y-96676098D01*
X154012171Y-96775964D01*
X154012169Y-96775965D01*
X153818600Y-96911503D01*
X153700440Y-97029663D01*
X153639117Y-97063147D01*
X153569425Y-97058163D01*
X153525078Y-97029662D01*
X149478720Y-92983304D01*
X149445235Y-92921981D01*
X149450219Y-92852289D01*
X149492091Y-92796356D01*
X149513990Y-92783244D01*
X149712734Y-92690568D01*
X149899139Y-92560047D01*
X150060047Y-92399139D01*
X150190568Y-92212734D01*
X150286739Y-92006496D01*
X150345635Y-91786692D01*
X150365468Y-91560000D01*
X150345635Y-91333308D01*
X150286739Y-91113504D01*
X150190568Y-90907266D01*
X150060047Y-90720861D01*
X150060045Y-90720858D01*
X149899141Y-90559954D01*
X149712734Y-90429432D01*
X149712728Y-90429429D01*
X149654725Y-90402382D01*
X149602285Y-90356210D01*
X149583133Y-90289017D01*
X149603348Y-90222135D01*
X149654725Y-90177618D01*
X149712734Y-90150568D01*
X149899139Y-90020047D01*
X150060047Y-89859139D01*
X150190568Y-89672734D01*
X150286739Y-89466496D01*
X150345635Y-89246692D01*
X150365468Y-89020000D01*
X150345635Y-88793308D01*
X150286739Y-88573504D01*
X150190568Y-88367266D01*
X150060047Y-88180861D01*
X149969979Y-88090793D01*
X149936496Y-88029473D01*
X149941480Y-87959781D01*
X149969979Y-87915435D01*
X150877580Y-87007834D01*
X150938901Y-86974351D01*
X151008593Y-86979335D01*
X151064526Y-87021207D01*
X151077637Y-87043106D01*
X151091700Y-87073262D01*
X151119431Y-87132732D01*
X151119432Y-87132734D01*
X151249954Y-87319141D01*
X151410858Y-87480045D01*
X151410861Y-87480047D01*
X151597266Y-87610568D01*
X151655275Y-87637618D01*
X151707714Y-87683791D01*
X151726866Y-87750984D01*
X151706650Y-87817865D01*
X151655275Y-87862381D01*
X151644932Y-87867205D01*
X151597267Y-87889431D01*
X151597265Y-87889432D01*
X151410858Y-88019954D01*
X151249954Y-88180858D01*
X151119432Y-88367265D01*
X151119431Y-88367267D01*
X151023261Y-88573502D01*
X151023258Y-88573511D01*
X150964366Y-88793302D01*
X150964364Y-88793313D01*
X150944532Y-89019998D01*
X150944532Y-89020001D01*
X150964364Y-89246686D01*
X150964366Y-89246697D01*
X151023258Y-89466488D01*
X151023261Y-89466497D01*
X151119431Y-89672732D01*
X151119432Y-89672734D01*
X151249954Y-89859141D01*
X151410858Y-90020045D01*
X151410861Y-90020047D01*
X151597266Y-90150568D01*
X151655865Y-90177893D01*
X151708305Y-90224065D01*
X151727457Y-90291258D01*
X151707242Y-90358139D01*
X151655867Y-90402657D01*
X151597515Y-90429867D01*
X151411179Y-90560342D01*
X151250342Y-90721179D01*
X151119865Y-90907517D01*
X151023734Y-91113673D01*
X151023730Y-91113682D01*
X150971127Y-91309999D01*
X150971128Y-91310000D01*
X151934314Y-91310000D01*
X151929920Y-91314394D01*
X151877259Y-91405606D01*
X151850000Y-91507339D01*
X151850000Y-91612661D01*
X151877259Y-91714394D01*
X151929920Y-91805606D01*
X151934314Y-91810000D01*
X150971128Y-91810000D01*
X151023730Y-92006317D01*
X151023734Y-92006326D01*
X151119865Y-92212482D01*
X151250342Y-92398820D01*
X151411179Y-92559657D01*
X151597517Y-92690134D01*
X151803673Y-92786265D01*
X151803682Y-92786269D01*
X151999999Y-92838872D01*
X152000000Y-92838871D01*
X152000000Y-91875686D01*
X152004394Y-91880080D01*
X152095606Y-91932741D01*
X152197339Y-91960000D01*
X152302661Y-91960000D01*
X152404394Y-91932741D01*
X152495606Y-91880080D01*
X152500000Y-91875686D01*
X152500000Y-92838872D01*
X152696317Y-92786269D01*
X152696326Y-92786265D01*
X152902482Y-92690134D01*
X153088820Y-92559657D01*
X153249657Y-92398820D01*
X153380134Y-92212482D01*
X153476265Y-92006326D01*
X153476269Y-92006317D01*
X153528872Y-91810000D01*
X152565686Y-91810000D01*
X152570080Y-91805606D01*
X152622741Y-91714394D01*
X152650000Y-91612661D01*
X152650000Y-91507339D01*
X152622741Y-91405606D01*
X152570080Y-91314394D01*
X152565686Y-91310000D01*
X153528872Y-91310000D01*
X153528872Y-91309999D01*
X153476269Y-91113682D01*
X153476265Y-91113673D01*
X153380134Y-90907517D01*
X153249657Y-90721179D01*
X153088820Y-90560342D01*
X152902482Y-90429865D01*
X152844133Y-90402657D01*
X152791694Y-90356484D01*
X152772542Y-90289291D01*
X152792758Y-90222410D01*
X152844129Y-90177895D01*
X152902734Y-90150568D01*
X153089139Y-90020047D01*
X153250047Y-89859139D01*
X153380568Y-89672734D01*
X153476739Y-89466496D01*
X153535635Y-89246692D01*
X153555468Y-89020000D01*
X153535635Y-88793308D01*
X153476739Y-88573504D01*
X153380568Y-88367266D01*
X153250047Y-88180861D01*
X153250045Y-88180858D01*
X153089141Y-88019954D01*
X152902734Y-87889432D01*
X152902728Y-87889429D01*
X152855068Y-87867205D01*
X152844724Y-87862381D01*
X152792285Y-87816210D01*
X152773133Y-87749017D01*
X152793348Y-87682135D01*
X152844725Y-87637618D01*
X152902734Y-87610568D01*
X153089139Y-87480047D01*
X153250047Y-87319139D01*
X153380568Y-87132734D01*
X153476739Y-86926496D01*
X153535635Y-86706692D01*
X153555345Y-86481402D01*
X153555468Y-86480001D01*
X153555468Y-86479998D01*
X153545966Y-86371395D01*
X153535635Y-86253308D01*
X153476739Y-86033504D01*
X153380568Y-85827266D01*
X153250047Y-85640861D01*
X153250045Y-85640858D01*
X153089141Y-85479954D01*
X152902734Y-85349432D01*
X152902728Y-85349429D01*
X152849473Y-85324596D01*
X152844724Y-85322381D01*
X152792285Y-85276210D01*
X152773133Y-85209017D01*
X152793348Y-85142135D01*
X152844725Y-85097618D01*
X152902734Y-85070568D01*
X153089139Y-84940047D01*
X153250047Y-84779139D01*
X153380568Y-84592734D01*
X153476739Y-84386496D01*
X153535635Y-84166692D01*
X153555345Y-83941402D01*
X153555468Y-83940001D01*
X153555468Y-83939998D01*
X153545966Y-83831395D01*
X153535635Y-83713308D01*
X153476739Y-83493504D01*
X153380568Y-83287266D01*
X153250047Y-83100861D01*
X153250045Y-83100858D01*
X153089141Y-82939954D01*
X152902734Y-82809432D01*
X152902728Y-82809429D01*
X152849473Y-82784596D01*
X152844724Y-82782381D01*
X152792285Y-82736210D01*
X152773133Y-82669017D01*
X152793348Y-82602135D01*
X152844725Y-82557618D01*
X152902734Y-82530568D01*
X153089139Y-82400047D01*
X153250047Y-82239139D01*
X153380568Y-82052734D01*
X153476739Y-81846496D01*
X153535635Y-81626692D01*
X153555468Y-81400000D01*
X153553532Y-81377876D01*
X153548282Y-81317864D01*
X153535635Y-81173308D01*
X153476739Y-80953504D01*
X153380568Y-80747266D01*
X153250047Y-80560861D01*
X153250045Y-80560858D01*
X153089141Y-80399954D01*
X152902734Y-80269432D01*
X152902728Y-80269429D01*
X152844725Y-80242382D01*
X152792285Y-80196210D01*
X152773133Y-80129017D01*
X152793348Y-80062135D01*
X152844725Y-80017618D01*
X152902734Y-79990568D01*
X153089139Y-79860047D01*
X153250047Y-79699139D01*
X153380568Y-79512734D01*
X153476739Y-79306496D01*
X153535635Y-79086692D01*
X153555468Y-78860000D01*
X153535635Y-78633308D01*
X153476739Y-78413504D01*
X153380568Y-78207266D01*
X153250047Y-78020861D01*
X153250045Y-78020858D01*
X153089141Y-77859954D01*
X152902734Y-77729432D01*
X152902728Y-77729429D01*
X152844725Y-77702382D01*
X152792285Y-77656210D01*
X152773133Y-77589017D01*
X152793348Y-77522135D01*
X152844725Y-77477618D01*
X152902734Y-77450568D01*
X153089139Y-77320047D01*
X153250047Y-77159139D01*
X153380568Y-76972734D01*
X153476739Y-76766496D01*
X153535635Y-76546692D01*
X153555468Y-76320000D01*
X153535635Y-76093308D01*
X153476739Y-75873504D01*
X153380568Y-75667266D01*
X153263448Y-75500000D01*
X153250045Y-75480858D01*
X153089143Y-75319956D01*
X153064536Y-75302726D01*
X153020912Y-75248149D01*
X153013719Y-75178650D01*
X153045241Y-75116296D01*
X153105471Y-75080882D01*
X153122404Y-75077861D01*
X153157483Y-75074091D01*
X153292331Y-75023796D01*
X153407546Y-74937546D01*
X153493796Y-74822331D01*
X153544091Y-74687483D01*
X153550500Y-74627873D01*
X153550499Y-72932128D01*
X153544091Y-72872517D01*
X153540298Y-72862348D01*
X153493797Y-72737671D01*
X153493793Y-72737664D01*
X153407547Y-72622455D01*
X153407544Y-72622452D01*
X153292335Y-72536206D01*
X153292328Y-72536202D01*
X153157482Y-72485908D01*
X153157483Y-72485908D01*
X153097883Y-72479501D01*
X153097881Y-72479500D01*
X153097873Y-72479500D01*
X153097865Y-72479500D01*
X151553000Y-72479500D01*
X151485961Y-72459815D01*
X151440206Y-72407011D01*
X151429000Y-72355500D01*
X151429000Y-63009977D01*
X151448685Y-62942938D01*
X151465314Y-62922301D01*
X152487616Y-61899999D01*
X155630138Y-61899999D01*
X155630138Y-61900000D01*
X155649545Y-62109444D01*
X155707111Y-62311769D01*
X155800871Y-62500062D01*
X155807545Y-62508899D01*
X156389000Y-61927446D01*
X156389000Y-61950160D01*
X156414964Y-62047061D01*
X156465124Y-62133940D01*
X156536060Y-62204876D01*
X156622939Y-62255036D01*
X156719840Y-62281000D01*
X156742553Y-62281000D01*
X156163887Y-62859663D01*
X156261918Y-62920362D01*
X156261920Y-62920363D01*
X156458063Y-62996348D01*
X156664829Y-63035000D01*
X156875171Y-63035000D01*
X157081935Y-62996348D01*
X157081936Y-62996348D01*
X157278079Y-62920363D01*
X157278080Y-62920362D01*
X157376110Y-62859664D01*
X157376111Y-62859663D01*
X156797448Y-62281000D01*
X156820160Y-62281000D01*
X156917061Y-62255036D01*
X157003940Y-62204876D01*
X157074876Y-62133940D01*
X157125036Y-62047061D01*
X157151000Y-61950160D01*
X157151000Y-61927447D01*
X157732452Y-62508899D01*
X157732453Y-62508899D01*
X157739128Y-62500061D01*
X157832888Y-62311769D01*
X157890454Y-62109444D01*
X157909862Y-61900000D01*
X157909862Y-61899999D01*
X157890454Y-61690555D01*
X157832888Y-61488230D01*
X157739130Y-61299941D01*
X157739128Y-61299937D01*
X157732453Y-61291099D01*
X157732452Y-61291098D01*
X157151000Y-61872551D01*
X157151000Y-61849840D01*
X157125036Y-61752939D01*
X157074876Y-61666060D01*
X157003940Y-61595124D01*
X156917061Y-61544964D01*
X156820160Y-61519000D01*
X156797448Y-61519000D01*
X157376111Y-60940335D01*
X157376110Y-60940334D01*
X157278083Y-60879638D01*
X157278077Y-60879636D01*
X157081936Y-60803651D01*
X156875171Y-60765000D01*
X156664829Y-60765000D01*
X156458064Y-60803651D01*
X156458063Y-60803651D01*
X156261923Y-60879635D01*
X156163887Y-60940335D01*
X156742553Y-61519000D01*
X156719840Y-61519000D01*
X156622939Y-61544964D01*
X156536060Y-61595124D01*
X156465124Y-61666060D01*
X156414964Y-61752939D01*
X156389000Y-61849840D01*
X156389000Y-61872553D01*
X155807546Y-61291099D01*
X155807545Y-61291099D01*
X155800870Y-61299939D01*
X155707111Y-61488230D01*
X155649545Y-61690555D01*
X155630138Y-61899999D01*
X152487616Y-61899999D01*
X156422542Y-57965072D01*
X156483863Y-57931589D01*
X156533000Y-57930866D01*
X156664780Y-57955500D01*
X156664783Y-57955500D01*
X156875218Y-57955500D01*
X156875220Y-57955500D01*
X157082076Y-57916832D01*
X157278304Y-57840813D01*
X157457223Y-57730031D01*
X157612740Y-57588259D01*
X157739558Y-57420325D01*
X157833359Y-57231947D01*
X157890948Y-57029542D01*
X157910365Y-56820000D01*
X157890948Y-56610458D01*
X157833359Y-56408053D01*
X157739558Y-56219675D01*
X157612740Y-56051741D01*
X157557892Y-56001741D01*
X157457223Y-55909969D01*
X157457221Y-55909967D01*
X157278307Y-55799188D01*
X157278301Y-55799185D01*
X157123648Y-55739273D01*
X157082076Y-55723168D01*
X156875220Y-55684500D01*
X156664780Y-55684500D01*
X156457924Y-55723168D01*
X156457921Y-55723168D01*
X156457921Y-55723169D01*
X156261698Y-55799185D01*
X156261692Y-55799188D01*
X156082778Y-55909967D01*
X156082776Y-55909969D01*
X155927261Y-56051739D01*
X155800442Y-56219674D01*
X155706642Y-56408049D01*
X155649051Y-56610462D01*
X155629635Y-56819999D01*
X155629635Y-56820000D01*
X155649051Y-57029540D01*
X155654315Y-57048040D01*
X155653727Y-57117907D01*
X155622729Y-57169653D01*
X150853581Y-61938802D01*
X150792258Y-61972287D01*
X150722566Y-61967303D01*
X150666633Y-61925431D01*
X150642216Y-61859967D01*
X150641900Y-61851121D01*
X150641900Y-60103649D01*
X150641899Y-60103644D01*
X150641242Y-60101190D01*
X150635193Y-60078616D01*
X150603465Y-59960203D01*
X150580441Y-59920325D01*
X150558269Y-59881922D01*
X150558267Y-59881920D01*
X150529215Y-59831599D01*
X150529214Y-59831598D01*
X150529213Y-59831596D01*
X150424204Y-59726587D01*
X150424203Y-59726586D01*
X150419873Y-59722256D01*
X150419862Y-59722246D01*
X147817270Y-57119654D01*
X147783785Y-57058331D01*
X147785684Y-56998039D01*
X147790948Y-56979542D01*
X147810365Y-56770000D01*
X147790948Y-56560458D01*
X147733359Y-56358053D01*
X147639558Y-56169675D01*
X147512740Y-56001741D01*
X147357223Y-55859969D01*
X147357221Y-55859967D01*
X147178307Y-55749188D01*
X147178301Y-55749185D01*
X147011327Y-55684500D01*
X146982076Y-55673168D01*
X146775220Y-55634500D01*
X146564780Y-55634500D01*
X146357924Y-55673168D01*
X146357921Y-55673168D01*
X146357921Y-55673169D01*
X146161698Y-55749185D01*
X146161692Y-55749188D01*
X145982778Y-55859967D01*
X145982776Y-55859969D01*
X145827261Y-56001739D01*
X145700442Y-56169674D01*
X145606642Y-56358049D01*
X145549051Y-56560462D01*
X145529635Y-56769999D01*
X145529635Y-56770000D01*
X145549051Y-56979537D01*
X145549051Y-56979539D01*
X145549052Y-56979542D01*
X145573937Y-57067003D01*
X145606642Y-57181950D01*
X145684621Y-57338552D01*
X145700442Y-57370325D01*
X145766551Y-57457868D01*
X145827261Y-57538260D01*
X145982776Y-57680030D01*
X145982778Y-57680032D01*
X146161692Y-57790811D01*
X146161698Y-57790814D01*
X146203268Y-57806918D01*
X146357924Y-57866832D01*
X146564780Y-57905500D01*
X146564782Y-57905500D01*
X146775218Y-57905500D01*
X146775220Y-57905500D01*
X146906993Y-57880867D01*
X146976508Y-57887898D01*
X147017459Y-57915075D01*
X149477581Y-60375197D01*
X149511066Y-60436520D01*
X149513900Y-60462878D01*
X149513900Y-72393645D01*
X149494215Y-72460684D01*
X149441411Y-72506439D01*
X149372253Y-72516383D01*
X149357807Y-72513420D01*
X149286697Y-72494366D01*
X149286693Y-72494365D01*
X149286692Y-72494365D01*
X149286691Y-72494364D01*
X149286686Y-72494364D01*
X149060002Y-72474532D01*
X149059998Y-72474532D01*
X148833313Y-72494364D01*
X148833302Y-72494366D01*
X148613511Y-72553258D01*
X148613502Y-72553261D01*
X148407267Y-72649431D01*
X148407265Y-72649432D01*
X148220858Y-72779954D01*
X148059954Y-72940858D01*
X147929432Y-73127265D01*
X147929431Y-73127267D01*
X147833261Y-73333502D01*
X147833258Y-73333511D01*
X147774366Y-73553302D01*
X147774364Y-73553313D01*
X147754532Y-73779998D01*
X147754532Y-73780001D01*
X147774364Y-74006686D01*
X147774366Y-74006697D01*
X147833258Y-74226488D01*
X147833261Y-74226497D01*
X147929431Y-74432732D01*
X147929432Y-74432734D01*
X148059954Y-74619141D01*
X148220858Y-74780045D01*
X148220861Y-74780047D01*
X148407266Y-74910568D01*
X148465275Y-74937618D01*
X148517714Y-74983791D01*
X148536866Y-75050984D01*
X148516650Y-75117865D01*
X148465275Y-75162382D01*
X148407267Y-75189431D01*
X148407265Y-75189432D01*
X148220858Y-75319954D01*
X148059954Y-75480858D01*
X147929432Y-75667265D01*
X147929431Y-75667267D01*
X147833261Y-75873502D01*
X147833258Y-75873511D01*
X147774366Y-76093302D01*
X147774364Y-76093313D01*
X147754532Y-76319998D01*
X147754532Y-76320001D01*
X147774364Y-76546686D01*
X147774366Y-76546697D01*
X147833258Y-76766488D01*
X147833261Y-76766497D01*
X147929431Y-76972732D01*
X147929432Y-76972734D01*
X148059954Y-77159141D01*
X148220858Y-77320045D01*
X148220861Y-77320047D01*
X148407266Y-77450568D01*
X148465275Y-77477618D01*
X148517714Y-77523791D01*
X148536866Y-77590984D01*
X148516650Y-77657865D01*
X148465275Y-77702382D01*
X148407267Y-77729431D01*
X148407265Y-77729432D01*
X148220858Y-77859954D01*
X148059954Y-78020858D01*
X147929430Y-78207268D01*
X147929426Y-78207275D01*
X147917659Y-78232509D01*
X147871485Y-78284947D01*
X147804291Y-78304097D01*
X147737411Y-78283879D01*
X147717598Y-78267782D01*
X145428219Y-75978403D01*
X145394734Y-75917080D01*
X145391900Y-75890722D01*
X145391900Y-62357905D01*
X145411585Y-62290866D01*
X145464389Y-62245111D01*
X145533547Y-62235167D01*
X145597103Y-62264192D01*
X145626900Y-62302633D01*
X145700442Y-62450325D01*
X145827261Y-62618260D01*
X145982776Y-62760030D01*
X145982778Y-62760032D01*
X146161692Y-62870811D01*
X146161698Y-62870814D01*
X146203268Y-62886918D01*
X146357924Y-62946832D01*
X146564780Y-62985500D01*
X146564782Y-62985500D01*
X146775218Y-62985500D01*
X146775220Y-62985500D01*
X146982076Y-62946832D01*
X147178304Y-62870813D01*
X147357223Y-62760031D01*
X147512740Y-62618259D01*
X147639558Y-62450325D01*
X147733359Y-62261947D01*
X147790948Y-62059542D01*
X147810365Y-61850000D01*
X147790948Y-61640458D01*
X147733359Y-61438053D01*
X147639558Y-61249675D01*
X147512740Y-61081741D01*
X147357223Y-60939969D01*
X147357221Y-60939967D01*
X147178307Y-60829188D01*
X147178301Y-60829185D01*
X147011327Y-60764500D01*
X146982076Y-60753168D01*
X146775220Y-60714500D01*
X146564780Y-60714500D01*
X146357924Y-60753168D01*
X146357921Y-60753168D01*
X146357921Y-60753169D01*
X146161698Y-60829185D01*
X146161692Y-60829188D01*
X145982778Y-60939967D01*
X145982776Y-60939969D01*
X145827261Y-61081739D01*
X145700442Y-61249674D01*
X145626900Y-61397366D01*
X145579397Y-61448603D01*
X145511734Y-61466024D01*
X145445394Y-61444098D01*
X145401439Y-61389787D01*
X145391900Y-61342094D01*
X145391900Y-57889455D01*
X145391901Y-57889442D01*
X145391901Y-57730950D01*
X145391901Y-57730948D01*
X145353465Y-57587504D01*
X145330807Y-57548260D01*
X145279215Y-57458899D01*
X145279210Y-57458893D01*
X144126078Y-56305761D01*
X144092593Y-56244438D01*
X144097577Y-56174746D01*
X144126077Y-56130400D01*
X144167816Y-56088662D01*
X144263789Y-55935922D01*
X144323368Y-55765655D01*
X144324097Y-55759185D01*
X144343565Y-55586403D01*
X144343565Y-55586396D01*
X144323369Y-55407150D01*
X144323368Y-55407145D01*
X144263788Y-55236876D01*
X144167815Y-55084137D01*
X144138319Y-55054641D01*
X144104834Y-54993318D01*
X144102000Y-54966960D01*
X144102000Y-51689999D01*
X145529635Y-51689999D01*
X145529635Y-51690000D01*
X145549051Y-51899537D01*
X145549051Y-51899539D01*
X145549052Y-51899542D01*
X145603099Y-52089499D01*
X145606642Y-52101950D01*
X145700442Y-52290325D01*
X145827261Y-52458260D01*
X145982776Y-52600030D01*
X145982778Y-52600032D01*
X146161692Y-52710811D01*
X146161698Y-52710814D01*
X146201742Y-52726327D01*
X146357924Y-52786832D01*
X146564780Y-52825500D01*
X146564782Y-52825500D01*
X146775218Y-52825500D01*
X146775220Y-52825500D01*
X146982076Y-52786832D01*
X147178304Y-52710813D01*
X147357223Y-52600031D01*
X147512740Y-52458259D01*
X147639558Y-52290325D01*
X147733359Y-52101947D01*
X147790948Y-51899542D01*
X147810365Y-51690000D01*
X147790948Y-51480458D01*
X147733359Y-51278053D01*
X147639558Y-51089675D01*
X147512740Y-50921741D01*
X147357223Y-50779969D01*
X147357221Y-50779967D01*
X147178307Y-50669188D01*
X147178301Y-50669185D01*
X147023648Y-50609273D01*
X146982076Y-50593168D01*
X146775220Y-50554500D01*
X146564780Y-50554500D01*
X146357924Y-50593168D01*
X146357921Y-50593168D01*
X146357921Y-50593169D01*
X146161698Y-50669185D01*
X146161692Y-50669188D01*
X145982778Y-50779967D01*
X145982776Y-50779969D01*
X145827261Y-50921739D01*
X145700442Y-51089674D01*
X145606642Y-51278049D01*
X145598495Y-51306683D01*
X145557244Y-51451668D01*
X145549051Y-51480462D01*
X145529635Y-51689999D01*
X144102000Y-51689999D01*
X144102000Y-48769177D01*
X144121685Y-48702138D01*
X144138314Y-48681501D01*
X145560550Y-47259264D01*
X145621871Y-47225781D01*
X145691563Y-47230765D01*
X145747183Y-47272220D01*
X145827261Y-47378260D01*
X145982776Y-47520030D01*
X145982778Y-47520032D01*
X146161692Y-47630811D01*
X146161698Y-47630814D01*
X146191363Y-47642306D01*
X146357924Y-47706832D01*
X146564780Y-47745500D01*
X146564782Y-47745500D01*
X146775218Y-47745500D01*
X146775220Y-47745500D01*
X146982076Y-47706832D01*
X147178304Y-47630813D01*
X147357223Y-47520031D01*
X147512740Y-47378259D01*
X147639558Y-47210325D01*
X147733359Y-47021947D01*
X147790948Y-46819542D01*
X147810365Y-46610000D01*
X147790948Y-46400458D01*
X147733359Y-46198053D01*
X147639558Y-46009675D01*
X147512740Y-45841741D01*
X147357223Y-45699969D01*
X147357217Y-45699965D01*
X147357211Y-45699960D01*
X147343718Y-45691606D01*
X147297082Y-45639578D01*
X147285979Y-45570596D01*
X147313933Y-45506562D01*
X147321304Y-45498510D01*
X153086094Y-39733721D01*
X153086099Y-39733717D01*
X153096302Y-39723513D01*
X153096304Y-39723513D01*
X153201313Y-39618504D01*
X153267758Y-39503418D01*
X153318322Y-39455205D01*
X153322679Y-39453066D01*
X153427830Y-39404035D01*
X153621401Y-39268495D01*
X153743329Y-39146566D01*
X153804648Y-39113084D01*
X153874340Y-39118068D01*
X153930274Y-39159939D01*
X153947189Y-39190917D01*
X153996202Y-39322328D01*
X153996206Y-39322335D01*
X154082452Y-39437544D01*
X154082455Y-39437547D01*
X154197664Y-39523793D01*
X154197671Y-39523797D01*
X154229156Y-39535540D01*
X154332517Y-39574091D01*
X154392127Y-39580500D01*
X154602000Y-39580499D01*
X154669039Y-39600183D01*
X154714794Y-39652987D01*
X154726000Y-39704499D01*
X154726000Y-50334252D01*
X154742768Y-50396832D01*
X154764435Y-50477697D01*
X154764436Y-50477698D01*
X154838686Y-50606303D01*
X154838688Y-50606305D01*
X154950761Y-50718378D01*
X154950767Y-50718383D01*
X155622729Y-51390345D01*
X155656214Y-51451668D01*
X155654316Y-51511954D01*
X155649052Y-51530456D01*
X155649051Y-51530459D01*
X155629635Y-51739999D01*
X155629635Y-51740000D01*
X155649051Y-51949537D01*
X155649051Y-51949539D01*
X155649052Y-51949542D01*
X155706641Y-52151947D01*
X155800442Y-52340325D01*
X155927258Y-52508257D01*
X155927261Y-52508260D01*
X156082776Y-52650030D01*
X156082778Y-52650032D01*
X156261692Y-52760811D01*
X156261698Y-52760814D01*
X156303268Y-52776918D01*
X156457924Y-52836832D01*
X156664780Y-52875500D01*
X156664782Y-52875500D01*
X156875218Y-52875500D01*
X156875220Y-52875500D01*
X157082076Y-52836832D01*
X157278304Y-52760813D01*
X157457223Y-52650031D01*
X157612740Y-52508259D01*
X157739558Y-52340325D01*
X157833359Y-52151947D01*
X157890948Y-51949542D01*
X157910365Y-51740000D01*
X157890948Y-51530458D01*
X157833359Y-51328053D01*
X157739558Y-51139675D01*
X157612740Y-50971741D01*
X157598261Y-50958542D01*
X157457223Y-50829969D01*
X157457221Y-50829967D01*
X157278307Y-50719188D01*
X157278301Y-50719185D01*
X157115158Y-50655984D01*
X157082076Y-50643168D01*
X156875220Y-50604500D01*
X156664780Y-50604500D01*
X156604018Y-50615858D01*
X156533005Y-50629132D01*
X156463490Y-50622100D01*
X156422540Y-50594924D01*
X155890319Y-50062703D01*
X155856834Y-50001380D01*
X155854000Y-49975022D01*
X155854000Y-47642306D01*
X155873685Y-47575267D01*
X155926489Y-47529512D01*
X155995647Y-47519568D01*
X156059203Y-47548593D01*
X156061539Y-47550670D01*
X156082776Y-47570030D01*
X156082778Y-47570032D01*
X156261692Y-47680811D01*
X156261698Y-47680814D01*
X156303268Y-47696918D01*
X156457924Y-47756832D01*
X156664780Y-47795500D01*
X156664782Y-47795500D01*
X156875218Y-47795500D01*
X156875220Y-47795500D01*
X157082076Y-47756832D01*
X157278304Y-47680813D01*
X157457223Y-47570031D01*
X157612740Y-47428259D01*
X157739558Y-47260325D01*
X157833359Y-47071947D01*
X157890948Y-46869542D01*
X157910365Y-46660000D01*
X157890948Y-46450458D01*
X157833359Y-46248053D01*
X157739558Y-46059675D01*
X157612740Y-45891741D01*
X157557892Y-45841741D01*
X157457223Y-45749969D01*
X157457221Y-45749967D01*
X157278307Y-45639188D01*
X157278301Y-45639185D01*
X157101250Y-45570596D01*
X157082076Y-45563168D01*
X156875220Y-45524500D01*
X156664780Y-45524500D01*
X156457924Y-45563168D01*
X156457921Y-45563168D01*
X156457921Y-45563169D01*
X156261698Y-45639185D01*
X156261692Y-45639188D01*
X156082778Y-45749967D01*
X156082776Y-45749969D01*
X156061537Y-45769331D01*
X155998733Y-45799947D01*
X155929346Y-45791749D01*
X155875406Y-45747338D01*
X155854039Y-45680816D01*
X155854000Y-45677693D01*
X155854000Y-39704499D01*
X155873685Y-39637460D01*
X155926489Y-39591705D01*
X155978000Y-39580499D01*
X156187871Y-39580499D01*
X156187872Y-39580499D01*
X156247483Y-39574091D01*
X156382331Y-39523796D01*
X156497546Y-39437546D01*
X156583796Y-39322331D01*
X156634091Y-39187483D01*
X156640500Y-39127873D01*
X156640499Y-37332128D01*
X156634091Y-37272517D01*
X156632579Y-37266119D01*
X156636317Y-37196349D01*
X156677183Y-37139677D01*
X156742200Y-37114094D01*
X156753255Y-37113600D01*
X162109843Y-37113600D01*
X162176882Y-37133285D01*
G37*
%TD.AperFunction*%
%TA.AperFunction,Conductor*%
G36*
X140302523Y-86857644D02*
G01*
X140331653Y-86879269D01*
X145499681Y-92047297D01*
X145533166Y-92108620D01*
X145536000Y-92134978D01*
X145536000Y-96767550D01*
X145516315Y-96834589D01*
X145463511Y-96880344D01*
X145394353Y-96890288D01*
X145340877Y-96869125D01*
X145207834Y-96775967D01*
X145207830Y-96775965D01*
X145165592Y-96756269D01*
X144993663Y-96676097D01*
X144993659Y-96676096D01*
X144993655Y-96676094D01*
X144765413Y-96614938D01*
X144765403Y-96614936D01*
X144530001Y-96594341D01*
X144529999Y-96594341D01*
X144294596Y-96614936D01*
X144294586Y-96614938D01*
X144066344Y-96676094D01*
X144066335Y-96676098D01*
X143852171Y-96775964D01*
X143852169Y-96775965D01*
X143658596Y-96911506D01*
X143620439Y-96949663D01*
X143559116Y-96983148D01*
X143489424Y-96978162D01*
X143445078Y-96949662D01*
X139427461Y-92932045D01*
X139393976Y-92870722D01*
X139398960Y-92801030D01*
X139440832Y-92745097D01*
X139462738Y-92731981D01*
X139552484Y-92690132D01*
X139738820Y-92559657D01*
X139899657Y-92398820D01*
X140030134Y-92212482D01*
X140126265Y-92006326D01*
X140126269Y-92006317D01*
X140178872Y-91810000D01*
X139215686Y-91810000D01*
X139220080Y-91805606D01*
X139272741Y-91714394D01*
X139300000Y-91612661D01*
X139300000Y-91507339D01*
X139272741Y-91405606D01*
X139220080Y-91314394D01*
X139215686Y-91310000D01*
X140178872Y-91310000D01*
X140178872Y-91309999D01*
X140126269Y-91113682D01*
X140126265Y-91113673D01*
X140030134Y-90907517D01*
X139899657Y-90721179D01*
X139738820Y-90560342D01*
X139552482Y-90429865D01*
X139494133Y-90402657D01*
X139441694Y-90356484D01*
X139422542Y-90289291D01*
X139442758Y-90222410D01*
X139494129Y-90177895D01*
X139552734Y-90150568D01*
X139739139Y-90020047D01*
X139900047Y-89859139D01*
X140030568Y-89672734D01*
X140126739Y-89466496D01*
X140185635Y-89246692D01*
X140205468Y-89020000D01*
X140185635Y-88793308D01*
X140126739Y-88573504D01*
X140030568Y-88367266D01*
X139900047Y-88180861D01*
X139900045Y-88180858D01*
X139739141Y-88019954D01*
X139552734Y-87889432D01*
X139552728Y-87889429D01*
X139505068Y-87867205D01*
X139494724Y-87862381D01*
X139442285Y-87816210D01*
X139423133Y-87749017D01*
X139443348Y-87682135D01*
X139494725Y-87637618D01*
X139552734Y-87610568D01*
X139739139Y-87480047D01*
X139900047Y-87319139D01*
X140030568Y-87132734D01*
X140126739Y-86926496D01*
X140126743Y-86926479D01*
X140127446Y-86924551D01*
X140127991Y-86923810D01*
X140129027Y-86921589D01*
X140129473Y-86921797D01*
X140168866Y-86868283D01*
X140234133Y-86843341D01*
X140302523Y-86857644D01*
G37*
%TD.AperFunction*%
%TA.AperFunction,Conductor*%
G36*
X149184180Y-37133285D02*
G01*
X149229935Y-37186089D01*
X149239879Y-37255247D01*
X149210854Y-37318803D01*
X149204822Y-37325281D01*
X149171508Y-37358594D01*
X149041269Y-37544595D01*
X148986692Y-37588219D01*
X148917193Y-37595412D01*
X148854839Y-37563890D01*
X148838119Y-37544594D01*
X148708113Y-37358926D01*
X148708108Y-37358920D01*
X148674469Y-37325281D01*
X148640984Y-37263958D01*
X148645968Y-37194266D01*
X148687840Y-37138333D01*
X148753304Y-37113916D01*
X148762150Y-37113600D01*
X149117141Y-37113600D01*
X149184180Y-37133285D01*
G37*
%TD.AperFunction*%
%TA.AperFunction,Conductor*%
G36*
X151724180Y-37133285D02*
G01*
X151769935Y-37186089D01*
X151779879Y-37255247D01*
X151750854Y-37318803D01*
X151744822Y-37325281D01*
X151711505Y-37358597D01*
X151581575Y-37544158D01*
X151526998Y-37587783D01*
X151457500Y-37594977D01*
X151395145Y-37563454D01*
X151378425Y-37544158D01*
X151248494Y-37358597D01*
X151215178Y-37325281D01*
X151181693Y-37263958D01*
X151186677Y-37194266D01*
X151228549Y-37138333D01*
X151294013Y-37113916D01*
X151302859Y-37113600D01*
X151657141Y-37113600D01*
X151724180Y-37133285D01*
G37*
%TD.AperFunction*%
%TA.AperFunction,Conductor*%
G36*
X216032539Y-30770185D02*
G01*
X216078294Y-30822989D01*
X216089500Y-30874500D01*
X216089500Y-120175500D01*
X216069815Y-120242539D01*
X216017011Y-120288294D01*
X215965500Y-120299500D01*
X121234500Y-120299500D01*
X121167461Y-120279815D01*
X121121706Y-120227011D01*
X121110500Y-120175500D01*
X121110500Y-111788711D01*
X123939500Y-111788711D01*
X123939500Y-112031288D01*
X123971161Y-112271785D01*
X124033947Y-112506104D01*
X124116859Y-112706270D01*
X124126776Y-112730212D01*
X124248064Y-112940289D01*
X124248066Y-112940292D01*
X124248067Y-112940293D01*
X124395733Y-113132736D01*
X124395739Y-113132743D01*
X124567256Y-113304260D01*
X124567262Y-113304265D01*
X124759711Y-113451936D01*
X124969788Y-113573224D01*
X125193900Y-113666054D01*
X125428211Y-113728838D01*
X125608586Y-113752584D01*
X125668711Y-113760500D01*
X125668712Y-113760500D01*
X125911289Y-113760500D01*
X125959388Y-113754167D01*
X126151789Y-113728838D01*
X126386100Y-113666054D01*
X126610212Y-113573224D01*
X126820289Y-113451936D01*
X127012738Y-113304265D01*
X127184265Y-113132738D01*
X127331936Y-112940289D01*
X127453224Y-112730212D01*
X127546054Y-112506100D01*
X127608838Y-112271789D01*
X127640500Y-112031288D01*
X127640500Y-111788712D01*
X127608838Y-111548211D01*
X127546054Y-111313900D01*
X127453224Y-111089788D01*
X127331936Y-110879711D01*
X127184265Y-110687262D01*
X127184260Y-110687256D01*
X127012743Y-110515739D01*
X127012736Y-110515733D01*
X126820293Y-110368067D01*
X126820292Y-110368066D01*
X126820289Y-110368064D01*
X126610212Y-110246776D01*
X126610205Y-110246773D01*
X126386104Y-110153947D01*
X126151785Y-110091161D01*
X125911289Y-110059500D01*
X125911288Y-110059500D01*
X125668712Y-110059500D01*
X125668711Y-110059500D01*
X125428214Y-110091161D01*
X125193895Y-110153947D01*
X124969794Y-110246773D01*
X124969785Y-110246777D01*
X124759706Y-110368067D01*
X124567263Y-110515733D01*
X124567256Y-110515739D01*
X124395739Y-110687256D01*
X124395733Y-110687263D01*
X124248067Y-110879706D01*
X124126777Y-111089785D01*
X124126773Y-111089794D01*
X124033947Y-111313895D01*
X123971161Y-111548214D01*
X123939500Y-111788711D01*
X121110500Y-111788711D01*
X121110500Y-76319998D01*
X124244532Y-76319998D01*
X124244532Y-76320001D01*
X124264364Y-76546686D01*
X124264366Y-76546697D01*
X124323258Y-76766488D01*
X124323261Y-76766497D01*
X124419431Y-76972732D01*
X124419432Y-76972734D01*
X124549954Y-77159141D01*
X124710858Y-77320045D01*
X124710861Y-77320047D01*
X124897266Y-77450568D01*
X124955275Y-77477618D01*
X125007714Y-77523791D01*
X125026866Y-77590984D01*
X125006650Y-77657865D01*
X124955275Y-77702382D01*
X124897267Y-77729431D01*
X124897265Y-77729432D01*
X124710858Y-77859954D01*
X124549954Y-78020858D01*
X124419432Y-78207265D01*
X124419431Y-78207267D01*
X124323261Y-78413502D01*
X124323258Y-78413511D01*
X124264366Y-78633302D01*
X124264364Y-78633313D01*
X124244532Y-78859998D01*
X124244532Y-78860001D01*
X124264364Y-79086686D01*
X124264366Y-79086697D01*
X124323258Y-79306488D01*
X124323261Y-79306497D01*
X124419431Y-79512732D01*
X124419432Y-79512734D01*
X124549954Y-79699141D01*
X124710858Y-79860045D01*
X124710861Y-79860047D01*
X124897266Y-79990568D01*
X124955275Y-80017618D01*
X125007714Y-80063791D01*
X125026866Y-80130984D01*
X125006650Y-80197865D01*
X124955275Y-80242382D01*
X124897267Y-80269431D01*
X124897265Y-80269432D01*
X124710858Y-80399954D01*
X124549954Y-80560858D01*
X124419432Y-80747265D01*
X124419431Y-80747267D01*
X124323261Y-80953502D01*
X124323258Y-80953511D01*
X124264366Y-81173302D01*
X124264364Y-81173313D01*
X124244532Y-81399998D01*
X124244532Y-81400001D01*
X124264364Y-81626686D01*
X124264366Y-81626697D01*
X124323258Y-81846488D01*
X124323261Y-81846497D01*
X124419431Y-82052732D01*
X124419432Y-82052734D01*
X124549954Y-82239141D01*
X124710858Y-82400045D01*
X124710861Y-82400047D01*
X124897266Y-82530568D01*
X124955275Y-82557618D01*
X125007714Y-82603791D01*
X125026866Y-82670984D01*
X125006650Y-82737865D01*
X124955275Y-82782381D01*
X124950527Y-82784596D01*
X124897267Y-82809431D01*
X124897265Y-82809432D01*
X124710858Y-82939954D01*
X124549954Y-83100858D01*
X124419432Y-83287265D01*
X124419431Y-83287267D01*
X124323261Y-83493502D01*
X124323258Y-83493511D01*
X124264366Y-83713302D01*
X124264364Y-83713313D01*
X124244532Y-83939998D01*
X124244532Y-83940001D01*
X124264364Y-84166686D01*
X124264366Y-84166697D01*
X124323258Y-84386488D01*
X124323261Y-84386497D01*
X124419431Y-84592732D01*
X124419432Y-84592734D01*
X124549954Y-84779141D01*
X124710858Y-84940045D01*
X124710861Y-84940047D01*
X124897266Y-85070568D01*
X124955275Y-85097618D01*
X125007714Y-85143791D01*
X125026866Y-85210984D01*
X125006650Y-85277865D01*
X124955275Y-85322381D01*
X124950527Y-85324596D01*
X124897267Y-85349431D01*
X124897265Y-85349432D01*
X124710858Y-85479954D01*
X124549954Y-85640858D01*
X124419432Y-85827265D01*
X124419431Y-85827267D01*
X124323261Y-86033502D01*
X124323258Y-86033511D01*
X124264366Y-86253302D01*
X124264364Y-86253313D01*
X124244532Y-86479998D01*
X124244532Y-86480001D01*
X124264364Y-86706686D01*
X124264366Y-86706697D01*
X124323258Y-86926488D01*
X124323261Y-86926497D01*
X124419431Y-87132732D01*
X124419432Y-87132734D01*
X124549954Y-87319141D01*
X124710858Y-87480045D01*
X124710861Y-87480047D01*
X124897266Y-87610568D01*
X124955275Y-87637618D01*
X125007714Y-87683791D01*
X125026866Y-87750984D01*
X125006650Y-87817865D01*
X124955275Y-87862381D01*
X124944932Y-87867205D01*
X124897267Y-87889431D01*
X124897265Y-87889432D01*
X124710858Y-88019954D01*
X124549954Y-88180858D01*
X124419432Y-88367265D01*
X124419431Y-88367267D01*
X124323261Y-88573502D01*
X124323258Y-88573511D01*
X124264366Y-88793302D01*
X124264364Y-88793313D01*
X124244532Y-89019998D01*
X124244532Y-89020001D01*
X124264364Y-89246686D01*
X124264366Y-89246697D01*
X124323258Y-89466488D01*
X124323261Y-89466497D01*
X124419431Y-89672732D01*
X124419432Y-89672734D01*
X124549954Y-89859141D01*
X124710858Y-90020045D01*
X124710861Y-90020047D01*
X124897266Y-90150568D01*
X124955865Y-90177893D01*
X125008305Y-90224065D01*
X125027457Y-90291258D01*
X125007242Y-90358139D01*
X124955867Y-90402657D01*
X124897515Y-90429867D01*
X124711179Y-90560342D01*
X124550342Y-90721179D01*
X124419865Y-90907517D01*
X124323734Y-91113673D01*
X124323730Y-91113682D01*
X124271127Y-91309999D01*
X124271128Y-91310000D01*
X125234314Y-91310000D01*
X125229920Y-91314394D01*
X125177259Y-91405606D01*
X125150000Y-91507339D01*
X125150000Y-91612661D01*
X125177259Y-91714394D01*
X125229920Y-91805606D01*
X125234314Y-91810000D01*
X124271128Y-91810000D01*
X124323730Y-92006317D01*
X124323734Y-92006326D01*
X124419865Y-92212482D01*
X124550342Y-92398820D01*
X124711179Y-92559657D01*
X124897517Y-92690134D01*
X125103673Y-92786265D01*
X125103682Y-92786269D01*
X125299999Y-92838872D01*
X125300000Y-92838871D01*
X125300000Y-91875686D01*
X125304394Y-91880080D01*
X125395606Y-91932741D01*
X125497339Y-91960000D01*
X125602661Y-91960000D01*
X125704394Y-91932741D01*
X125795606Y-91880080D01*
X125800000Y-91875686D01*
X125800000Y-92838872D01*
X125996317Y-92786269D01*
X125996326Y-92786265D01*
X126202482Y-92690134D01*
X126388820Y-92559657D01*
X126549657Y-92398820D01*
X126680134Y-92212482D01*
X126776265Y-92006326D01*
X126776269Y-92006317D01*
X126828872Y-91810000D01*
X125865686Y-91810000D01*
X125870080Y-91805606D01*
X125922741Y-91714394D01*
X125950000Y-91612661D01*
X125950000Y-91507339D01*
X125922741Y-91405606D01*
X125870080Y-91314394D01*
X125865686Y-91310000D01*
X126828872Y-91310000D01*
X126828872Y-91309999D01*
X126776269Y-91113682D01*
X126776265Y-91113673D01*
X126680134Y-90907517D01*
X126549657Y-90721179D01*
X126388820Y-90560342D01*
X126202482Y-90429865D01*
X126144133Y-90402657D01*
X126091694Y-90356484D01*
X126072542Y-90289291D01*
X126092758Y-90222410D01*
X126144129Y-90177895D01*
X126202734Y-90150568D01*
X126389139Y-90020047D01*
X126550047Y-89859139D01*
X126680568Y-89672734D01*
X126776739Y-89466496D01*
X126835635Y-89246692D01*
X126855468Y-89020000D01*
X126835635Y-88793308D01*
X126776739Y-88573504D01*
X126680568Y-88367266D01*
X126550047Y-88180861D01*
X126550045Y-88180858D01*
X126389141Y-88019954D01*
X126202734Y-87889432D01*
X126202728Y-87889429D01*
X126155068Y-87867205D01*
X126144724Y-87862381D01*
X126092285Y-87816210D01*
X126073133Y-87749017D01*
X126093348Y-87682135D01*
X126144725Y-87637618D01*
X126202734Y-87610568D01*
X126389139Y-87480047D01*
X126550047Y-87319139D01*
X126680568Y-87132734D01*
X126776739Y-86926496D01*
X126835635Y-86706692D01*
X126855345Y-86481402D01*
X126855468Y-86480001D01*
X126855468Y-86479998D01*
X126845966Y-86371395D01*
X126835635Y-86253308D01*
X126776739Y-86033504D01*
X126680568Y-85827266D01*
X126550047Y-85640861D01*
X126550045Y-85640858D01*
X126389141Y-85479954D01*
X126202734Y-85349432D01*
X126202728Y-85349429D01*
X126149473Y-85324596D01*
X126144724Y-85322381D01*
X126092285Y-85276210D01*
X126073133Y-85209017D01*
X126093348Y-85142135D01*
X126144725Y-85097618D01*
X126202734Y-85070568D01*
X126389139Y-84940047D01*
X126550047Y-84779139D01*
X126680568Y-84592734D01*
X126776739Y-84386496D01*
X126835635Y-84166692D01*
X126855345Y-83941402D01*
X126855468Y-83940001D01*
X126855468Y-83939998D01*
X126845966Y-83831395D01*
X126835635Y-83713308D01*
X126776739Y-83493504D01*
X126680568Y-83287266D01*
X126550047Y-83100861D01*
X126550045Y-83100858D01*
X126389141Y-82939954D01*
X126202734Y-82809432D01*
X126202728Y-82809429D01*
X126149473Y-82784596D01*
X126144724Y-82782381D01*
X126092285Y-82736210D01*
X126073133Y-82669017D01*
X126093348Y-82602135D01*
X126144725Y-82557618D01*
X126202734Y-82530568D01*
X126389139Y-82400047D01*
X126550047Y-82239139D01*
X126680568Y-82052734D01*
X126776739Y-81846496D01*
X126835635Y-81626692D01*
X126855468Y-81400000D01*
X126853532Y-81377876D01*
X126848282Y-81317864D01*
X126835635Y-81173308D01*
X126776739Y-80953504D01*
X126680568Y-80747266D01*
X126550047Y-80560861D01*
X126550045Y-80560858D01*
X126389141Y-80399954D01*
X126202734Y-80269432D01*
X126202728Y-80269429D01*
X126144725Y-80242382D01*
X126092285Y-80196210D01*
X126073133Y-80129017D01*
X126093348Y-80062135D01*
X126144725Y-80017618D01*
X126202734Y-79990568D01*
X126389139Y-79860047D01*
X126550047Y-79699139D01*
X126680568Y-79512734D01*
X126776739Y-79306496D01*
X126835635Y-79086692D01*
X126855468Y-78860000D01*
X126835635Y-78633308D01*
X126776739Y-78413504D01*
X126680568Y-78207266D01*
X126550047Y-78020861D01*
X126550045Y-78020858D01*
X126389141Y-77859954D01*
X126202734Y-77729432D01*
X126202728Y-77729429D01*
X126144725Y-77702382D01*
X126092285Y-77656210D01*
X126073133Y-77589017D01*
X126093348Y-77522135D01*
X126144725Y-77477618D01*
X126202734Y-77450568D01*
X126389139Y-77320047D01*
X126550047Y-77159139D01*
X126680568Y-76972734D01*
X126776739Y-76766496D01*
X126835635Y-76546692D01*
X126855468Y-76320000D01*
X126835635Y-76093308D01*
X126776739Y-75873504D01*
X126680568Y-75667266D01*
X126563448Y-75500000D01*
X126550045Y-75480858D01*
X126389143Y-75319956D01*
X126364536Y-75302726D01*
X126320912Y-75248149D01*
X126313719Y-75178650D01*
X126345241Y-75116296D01*
X126405471Y-75080882D01*
X126422404Y-75077861D01*
X126457483Y-75074091D01*
X126592331Y-75023796D01*
X126707546Y-74937546D01*
X126793796Y-74822331D01*
X126844091Y-74687483D01*
X126850500Y-74627873D01*
X126850499Y-72932128D01*
X126844091Y-72872517D01*
X126840298Y-72862348D01*
X126793797Y-72737671D01*
X126793793Y-72737664D01*
X126707547Y-72622455D01*
X126707544Y-72622452D01*
X126592335Y-72536206D01*
X126592328Y-72536202D01*
X126457482Y-72485908D01*
X126457483Y-72485908D01*
X126397883Y-72479501D01*
X126397881Y-72479500D01*
X126397873Y-72479500D01*
X126397864Y-72479500D01*
X124702129Y-72479500D01*
X124702123Y-72479501D01*
X124642516Y-72485908D01*
X124507671Y-72536202D01*
X124507664Y-72536206D01*
X124392455Y-72622452D01*
X124392452Y-72622455D01*
X124306206Y-72737664D01*
X124306202Y-72737671D01*
X124255908Y-72872517D01*
X124249501Y-72932116D01*
X124249501Y-72932123D01*
X124249500Y-72932135D01*
X124249500Y-74627870D01*
X124249501Y-74627876D01*
X124255908Y-74687483D01*
X124306202Y-74822328D01*
X124306206Y-74822335D01*
X124392452Y-74937544D01*
X124392455Y-74937547D01*
X124507664Y-75023793D01*
X124507671Y-75023797D01*
X124541288Y-75036335D01*
X124642517Y-75074091D01*
X124677596Y-75077862D01*
X124742144Y-75104599D01*
X124781993Y-75161991D01*
X124784488Y-75231816D01*
X124748836Y-75291905D01*
X124735464Y-75302725D01*
X124710858Y-75319954D01*
X124549954Y-75480858D01*
X124419432Y-75667265D01*
X124419431Y-75667267D01*
X124323261Y-75873502D01*
X124323258Y-75873511D01*
X124264366Y-76093302D01*
X124264364Y-76093313D01*
X124244532Y-76319998D01*
X121110500Y-76319998D01*
X121110500Y-69699998D01*
X134444532Y-69699998D01*
X134444532Y-69700001D01*
X134464364Y-69926686D01*
X134464366Y-69926697D01*
X134523258Y-70146488D01*
X134523261Y-70146497D01*
X134619431Y-70352732D01*
X134619432Y-70352734D01*
X134749954Y-70539141D01*
X134910858Y-70700045D01*
X134910861Y-70700047D01*
X135097266Y-70830568D01*
X135303504Y-70926739D01*
X135523308Y-70985635D01*
X135685230Y-70999801D01*
X135749998Y-71005468D01*
X135750000Y-71005468D01*
X135750002Y-71005468D01*
X135806673Y-71000509D01*
X135976692Y-70985635D01*
X136196496Y-70926739D01*
X136402734Y-70830568D01*
X136589139Y-70700047D01*
X136750047Y-70539139D01*
X136880568Y-70352734D01*
X136887893Y-70337024D01*
X136934064Y-70284586D01*
X137001257Y-70265433D01*
X137068138Y-70285648D01*
X137112657Y-70337024D01*
X137119864Y-70352480D01*
X137170974Y-70425472D01*
X137850000Y-69746446D01*
X137850000Y-69752661D01*
X137877259Y-69854394D01*
X137929920Y-69945606D01*
X138004394Y-70020080D01*
X138095606Y-70072741D01*
X138197339Y-70100000D01*
X138203553Y-70100000D01*
X137524526Y-70779025D01*
X137597513Y-70830132D01*
X137597521Y-70830136D01*
X137803668Y-70926264D01*
X137803682Y-70926269D01*
X138023389Y-70985139D01*
X138023400Y-70985141D01*
X138249998Y-71004966D01*
X138250002Y-71004966D01*
X138476599Y-70985141D01*
X138476610Y-70985139D01*
X138696317Y-70926269D01*
X138696331Y-70926264D01*
X138902478Y-70830136D01*
X138975471Y-70779024D01*
X138296447Y-70100000D01*
X138302661Y-70100000D01*
X138404394Y-70072741D01*
X138495606Y-70020080D01*
X138570080Y-69945606D01*
X138622741Y-69854394D01*
X138650000Y-69752661D01*
X138650000Y-69746447D01*
X139329024Y-70425471D01*
X139380136Y-70352478D01*
X139476264Y-70146331D01*
X139476269Y-70146317D01*
X139535139Y-69926610D01*
X139535141Y-69926599D01*
X139554966Y-69700002D01*
X139554966Y-69699997D01*
X139535141Y-69473400D01*
X139535139Y-69473389D01*
X139476269Y-69253682D01*
X139476264Y-69253668D01*
X139380136Y-69047521D01*
X139380132Y-69047513D01*
X139329025Y-68974526D01*
X138650000Y-69653551D01*
X138650000Y-69647339D01*
X138622741Y-69545606D01*
X138570080Y-69454394D01*
X138495606Y-69379920D01*
X138404394Y-69327259D01*
X138302661Y-69300000D01*
X138296448Y-69300000D01*
X138975472Y-68620974D01*
X138902478Y-68569863D01*
X138696331Y-68473735D01*
X138696317Y-68473730D01*
X138476610Y-68414860D01*
X138476599Y-68414858D01*
X138250002Y-68395034D01*
X138249998Y-68395034D01*
X138023400Y-68414858D01*
X138023389Y-68414860D01*
X137803682Y-68473730D01*
X137803673Y-68473734D01*
X137597516Y-68569866D01*
X137597512Y-68569868D01*
X137524526Y-68620973D01*
X137524526Y-68620974D01*
X138203553Y-69300000D01*
X138197339Y-69300000D01*
X138095606Y-69327259D01*
X138004394Y-69379920D01*
X137929920Y-69454394D01*
X137877259Y-69545606D01*
X137850000Y-69647339D01*
X137850000Y-69653552D01*
X137170974Y-68974526D01*
X137170973Y-68974526D01*
X137119868Y-69047512D01*
X137119867Y-69047514D01*
X137112656Y-69062979D01*
X137066482Y-69115417D01*
X136999288Y-69134567D01*
X136932407Y-69114350D01*
X136887893Y-69062976D01*
X136880568Y-69047266D01*
X136750047Y-68860861D01*
X136750045Y-68860858D01*
X136589141Y-68699954D01*
X136402734Y-68569432D01*
X136402732Y-68569431D01*
X136196497Y-68473261D01*
X136196488Y-68473258D01*
X135976697Y-68414366D01*
X135976693Y-68414365D01*
X135976692Y-68414365D01*
X135976691Y-68414364D01*
X135976686Y-68414364D01*
X135750002Y-68394532D01*
X135749998Y-68394532D01*
X135523313Y-68414364D01*
X135523302Y-68414366D01*
X135303511Y-68473258D01*
X135303502Y-68473261D01*
X135097267Y-68569431D01*
X135097265Y-68569432D01*
X134910858Y-68699954D01*
X134749954Y-68860858D01*
X134619432Y-69047265D01*
X134619431Y-69047267D01*
X134523261Y-69253502D01*
X134523258Y-69253511D01*
X134464366Y-69473302D01*
X134464364Y-69473313D01*
X134444532Y-69699998D01*
X121110500Y-69699998D01*
X121110500Y-61859999D01*
X127539635Y-61859999D01*
X127539635Y-61860000D01*
X127559051Y-62069537D01*
X127559051Y-62069539D01*
X127559052Y-62069542D01*
X127613796Y-62261947D01*
X127616642Y-62271950D01*
X127636560Y-62311950D01*
X127710442Y-62460325D01*
X127837260Y-62628259D01*
X127981807Y-62760031D01*
X127992776Y-62770030D01*
X127992778Y-62770032D01*
X128171692Y-62880811D01*
X128171698Y-62880814D01*
X128213268Y-62896918D01*
X128367924Y-62956832D01*
X128574780Y-62995500D01*
X128574782Y-62995500D01*
X128785218Y-62995500D01*
X128785220Y-62995500D01*
X128992076Y-62956832D01*
X129188304Y-62880813D01*
X129367223Y-62770031D01*
X129522740Y-62628259D01*
X129649558Y-62460325D01*
X129743359Y-62271947D01*
X129800948Y-62069542D01*
X129820365Y-61860000D01*
X129800948Y-61650458D01*
X129743359Y-61448053D01*
X129649558Y-61259675D01*
X129522740Y-61091741D01*
X129511770Y-61081741D01*
X129367223Y-60949969D01*
X129367221Y-60949967D01*
X129188307Y-60839188D01*
X129188301Y-60839185D01*
X129014518Y-60771862D01*
X128992076Y-60763168D01*
X128785220Y-60724500D01*
X128574780Y-60724500D01*
X128367924Y-60763168D01*
X128367921Y-60763168D01*
X128367921Y-60763169D01*
X128171698Y-60839185D01*
X128171692Y-60839188D01*
X127992778Y-60949967D01*
X127992776Y-60949969D01*
X127837261Y-61091739D01*
X127710442Y-61259674D01*
X127616642Y-61448049D01*
X127559051Y-61650462D01*
X127539635Y-61859999D01*
X121110500Y-61859999D01*
X121110500Y-56779999D01*
X127539635Y-56779999D01*
X127539635Y-56780000D01*
X127559051Y-56989537D01*
X127559051Y-56989539D01*
X127559052Y-56989542D01*
X127616641Y-57191947D01*
X127616642Y-57191950D01*
X127689642Y-57338553D01*
X127710442Y-57380325D01*
X127837260Y-57548259D01*
X127981807Y-57680031D01*
X127992776Y-57690030D01*
X127992778Y-57690032D01*
X128171692Y-57800811D01*
X128171698Y-57800814D01*
X128213268Y-57816918D01*
X128367924Y-57876832D01*
X128574780Y-57915500D01*
X128574782Y-57915500D01*
X128785218Y-57915500D01*
X128785220Y-57915500D01*
X128992076Y-57876832D01*
X129188304Y-57800813D01*
X129367223Y-57690031D01*
X129522740Y-57548259D01*
X129649558Y-57380325D01*
X129743359Y-57191947D01*
X129800948Y-56989542D01*
X129820365Y-56780000D01*
X129800948Y-56570458D01*
X129743359Y-56368053D01*
X129649558Y-56179675D01*
X129522740Y-56011741D01*
X129511770Y-56001741D01*
X129367223Y-55869969D01*
X129367221Y-55869967D01*
X129188307Y-55759188D01*
X129188301Y-55759185D01*
X128995514Y-55684500D01*
X128992076Y-55683168D01*
X128785220Y-55644500D01*
X128574780Y-55644500D01*
X128367924Y-55683168D01*
X128367921Y-55683168D01*
X128367921Y-55683169D01*
X128171698Y-55759185D01*
X128171692Y-55759188D01*
X127992778Y-55869967D01*
X127992776Y-55869969D01*
X127837261Y-56011739D01*
X127710442Y-56179674D01*
X127616642Y-56368049D01*
X127559051Y-56570462D01*
X127539635Y-56779999D01*
X121110500Y-56779999D01*
X121110500Y-46193748D01*
X127264300Y-46193748D01*
X127264300Y-50922552D01*
X127277480Y-50971739D01*
X127302735Y-51065995D01*
X127302736Y-51065998D01*
X127316406Y-51089675D01*
X127376987Y-51194604D01*
X127376989Y-51194606D01*
X127489061Y-51306678D01*
X127489067Y-51306683D01*
X127532729Y-51350345D01*
X127566214Y-51411668D01*
X127564316Y-51471954D01*
X127559052Y-51490456D01*
X127559051Y-51490459D01*
X127539635Y-51699999D01*
X127539635Y-51700000D01*
X127559051Y-51909537D01*
X127559051Y-51909539D01*
X127559052Y-51909542D01*
X127610252Y-52089493D01*
X127616642Y-52111950D01*
X127636560Y-52151950D01*
X127710442Y-52300325D01*
X127837260Y-52468259D01*
X127981807Y-52600031D01*
X127992776Y-52610030D01*
X127992778Y-52610032D01*
X128171692Y-52720811D01*
X128171698Y-52720814D01*
X128185929Y-52726327D01*
X128367924Y-52796832D01*
X128574780Y-52835500D01*
X128574782Y-52835500D01*
X128785218Y-52835500D01*
X128785220Y-52835500D01*
X128992076Y-52796832D01*
X129188304Y-52720813D01*
X129367223Y-52610031D01*
X129522740Y-52468259D01*
X129649558Y-52300325D01*
X129743359Y-52111947D01*
X129800948Y-51909542D01*
X129820365Y-51700000D01*
X129800948Y-51490458D01*
X129743359Y-51288053D01*
X129649558Y-51099675D01*
X129522740Y-50931741D01*
X129511770Y-50921741D01*
X129367223Y-50789969D01*
X129367221Y-50789967D01*
X129188307Y-50679188D01*
X129188301Y-50679185D01*
X129033648Y-50619273D01*
X128992076Y-50603168D01*
X128785220Y-50564500D01*
X128574780Y-50564500D01*
X128574776Y-50564500D01*
X128539082Y-50571172D01*
X128469567Y-50564140D01*
X128414890Y-50520641D01*
X128392409Y-50454486D01*
X128392300Y-50449283D01*
X128392300Y-47870716D01*
X128411985Y-47803677D01*
X128464789Y-47757922D01*
X128533947Y-47747978D01*
X128539069Y-47748824D01*
X128574780Y-47755500D01*
X128574782Y-47755500D01*
X128785218Y-47755500D01*
X128785220Y-47755500D01*
X128916993Y-47730867D01*
X128986508Y-47737898D01*
X129027459Y-47765075D01*
X132333981Y-51071597D01*
X132367466Y-51132920D01*
X132370300Y-51159278D01*
X132370300Y-57338552D01*
X132401423Y-57454706D01*
X132401423Y-57454708D01*
X132408733Y-57481992D01*
X132408734Y-57481994D01*
X132408735Y-57481996D01*
X132482987Y-57610604D01*
X132482989Y-57610606D01*
X132595061Y-57722678D01*
X132595067Y-57722683D01*
X136422729Y-61550345D01*
X136456214Y-61611668D01*
X136454316Y-61671954D01*
X136449052Y-61690456D01*
X136449051Y-61690459D01*
X136429635Y-61899999D01*
X136429635Y-61900000D01*
X136449051Y-62109537D01*
X136449051Y-62109539D01*
X136449052Y-62109542D01*
X136506641Y-62311947D01*
X136506642Y-62311950D01*
X136586200Y-62471723D01*
X136600442Y-62500325D01*
X136699255Y-62631175D01*
X136727261Y-62668260D01*
X136882776Y-62810030D01*
X136882778Y-62810032D01*
X137061692Y-62920811D01*
X137061698Y-62920814D01*
X137065524Y-62922296D01*
X137257924Y-62996832D01*
X137464780Y-63035500D01*
X137464782Y-63035500D01*
X137675218Y-63035500D01*
X137675220Y-63035500D01*
X137882076Y-62996832D01*
X138078304Y-62920813D01*
X138257223Y-62810031D01*
X138412740Y-62668259D01*
X138539558Y-62500325D01*
X138633359Y-62311947D01*
X138690948Y-62109542D01*
X138710365Y-61900000D01*
X138690948Y-61690458D01*
X138633359Y-61488053D01*
X138539558Y-61299675D01*
X138412740Y-61131741D01*
X138357892Y-61081741D01*
X138257223Y-60989969D01*
X138257221Y-60989967D01*
X138078307Y-60879188D01*
X138078301Y-60879185D01*
X137898999Y-60809724D01*
X137882076Y-60803168D01*
X137675220Y-60764500D01*
X137464780Y-60764500D01*
X137404018Y-60775858D01*
X137333005Y-60789132D01*
X137263490Y-60782100D01*
X137222540Y-60754924D01*
X133534619Y-57067003D01*
X133501134Y-57005680D01*
X133498300Y-56979322D01*
X133498300Y-56819999D01*
X136429635Y-56819999D01*
X136429635Y-56820000D01*
X136449051Y-57029537D01*
X136449051Y-57029539D01*
X136449052Y-57029542D01*
X136506641Y-57231947D01*
X136600442Y-57420325D01*
X136713613Y-57570188D01*
X136727261Y-57588260D01*
X136882776Y-57730030D01*
X136882778Y-57730032D01*
X137061692Y-57840811D01*
X137061698Y-57840814D01*
X137096030Y-57854114D01*
X137257924Y-57916832D01*
X137464780Y-57955500D01*
X137464782Y-57955500D01*
X137675218Y-57955500D01*
X137675220Y-57955500D01*
X137882076Y-57916832D01*
X138078304Y-57840813D01*
X138257223Y-57730031D01*
X138412740Y-57588259D01*
X138539558Y-57420325D01*
X138633359Y-57231947D01*
X138690948Y-57029542D01*
X138710365Y-56820000D01*
X138690948Y-56610458D01*
X138633359Y-56408053D01*
X138539558Y-56219675D01*
X138412740Y-56051741D01*
X138357892Y-56001741D01*
X138257223Y-55909969D01*
X138257221Y-55909967D01*
X138078307Y-55799188D01*
X138078301Y-55799185D01*
X137923648Y-55739273D01*
X137882076Y-55723168D01*
X137675220Y-55684500D01*
X137464780Y-55684500D01*
X137257924Y-55723168D01*
X137257921Y-55723168D01*
X137257921Y-55723169D01*
X137061698Y-55799185D01*
X137061692Y-55799188D01*
X136882778Y-55909967D01*
X136882776Y-55909969D01*
X136727261Y-56051739D01*
X136600442Y-56219674D01*
X136506642Y-56408049D01*
X136449051Y-56610462D01*
X136429635Y-56819999D01*
X133498300Y-56819999D01*
X133498300Y-50958555D01*
X133498301Y-50958542D01*
X133498301Y-50800050D01*
X133498301Y-50800048D01*
X133459865Y-50656604D01*
X133459863Y-50656601D01*
X133459863Y-50656599D01*
X133459862Y-50656598D01*
X133430825Y-50606305D01*
X133430824Y-50606303D01*
X133385617Y-50528002D01*
X133385614Y-50527998D01*
X133385613Y-50527996D01*
X133280604Y-50422987D01*
X133280603Y-50422986D01*
X133276273Y-50418656D01*
X133276262Y-50418646D01*
X129827270Y-46969654D01*
X129793785Y-46908331D01*
X129795684Y-46848039D01*
X129800948Y-46829542D01*
X129820365Y-46620000D01*
X129807173Y-46477640D01*
X129820588Y-46409072D01*
X129868945Y-46358640D01*
X129930644Y-46342200D01*
X132515922Y-46342200D01*
X132582961Y-46361885D01*
X132603603Y-46378519D01*
X136881068Y-50655984D01*
X136914553Y-50717307D01*
X136909569Y-50786999D01*
X136876926Y-50835302D01*
X136727259Y-50971741D01*
X136600442Y-51139674D01*
X136506642Y-51328049D01*
X136449051Y-51530462D01*
X136429635Y-51739999D01*
X136429635Y-51740000D01*
X136449051Y-51949537D01*
X136449051Y-51949539D01*
X136449052Y-51949542D01*
X136506641Y-52151947D01*
X136600442Y-52340325D01*
X136727260Y-52508259D01*
X136882777Y-52650031D01*
X136882782Y-52650034D01*
X136882781Y-52650034D01*
X136907291Y-52665209D01*
X136947277Y-52689967D01*
X136993912Y-52741994D01*
X137006000Y-52795394D01*
X137006000Y-53734252D01*
X137044435Y-53877696D01*
X137118687Y-54006304D01*
X137118689Y-54006306D01*
X137230761Y-54118378D01*
X137230767Y-54118383D01*
X143348381Y-60235997D01*
X143381866Y-60297320D01*
X143384700Y-60323678D01*
X143384700Y-77910852D01*
X143423135Y-78054296D01*
X143497387Y-78182904D01*
X143582265Y-78267782D01*
X143607790Y-78293307D01*
X143608607Y-78294023D01*
X148150017Y-82835433D01*
X148183502Y-82896756D01*
X148178518Y-82966448D01*
X148150018Y-83010795D01*
X148059951Y-83100862D01*
X147929432Y-83287265D01*
X147929431Y-83287267D01*
X147833261Y-83493502D01*
X147833258Y-83493511D01*
X147774366Y-83713302D01*
X147774364Y-83713313D01*
X147754532Y-83939998D01*
X147754532Y-83940001D01*
X147774364Y-84166686D01*
X147774366Y-84166697D01*
X147833258Y-84386488D01*
X147833261Y-84386497D01*
X147929431Y-84592732D01*
X147929432Y-84592734D01*
X148059954Y-84779141D01*
X148220858Y-84940045D01*
X148220861Y-84940047D01*
X148407266Y-85070568D01*
X148462524Y-85096335D01*
X148465273Y-85097617D01*
X148517713Y-85143789D01*
X148536865Y-85210982D01*
X148516650Y-85277864D01*
X148465276Y-85322380D01*
X148407269Y-85349430D01*
X148407268Y-85349430D01*
X148220858Y-85479954D01*
X148059954Y-85640858D01*
X147929432Y-85827265D01*
X147929431Y-85827267D01*
X147833261Y-86033502D01*
X147833258Y-86033511D01*
X147774366Y-86253302D01*
X147774364Y-86253313D01*
X147754532Y-86479998D01*
X147754532Y-86480001D01*
X147774364Y-86706686D01*
X147774366Y-86706697D01*
X147833258Y-86926488D01*
X147833261Y-86926497D01*
X147929431Y-87132732D01*
X147929432Y-87132734D01*
X148059954Y-87319141D01*
X148220858Y-87480045D01*
X148220861Y-87480047D01*
X148407266Y-87610568D01*
X148442940Y-87627203D01*
X148465273Y-87637617D01*
X148517713Y-87683789D01*
X148536865Y-87750982D01*
X148516650Y-87817864D01*
X148465276Y-87862380D01*
X148407269Y-87889430D01*
X148407268Y-87889430D01*
X148220858Y-88019954D01*
X148059954Y-88180858D01*
X147929432Y-88367265D01*
X147929431Y-88367267D01*
X147833261Y-88573502D01*
X147833258Y-88573511D01*
X147774366Y-88793302D01*
X147774364Y-88793313D01*
X147754532Y-89019998D01*
X147754532Y-89020001D01*
X147774364Y-89246686D01*
X147774366Y-89246697D01*
X147833258Y-89466488D01*
X147833261Y-89466497D01*
X147929431Y-89672732D01*
X147929432Y-89672734D01*
X148059954Y-89859141D01*
X148220858Y-90020045D01*
X148220861Y-90020047D01*
X148407266Y-90150568D01*
X148465275Y-90177618D01*
X148517714Y-90223791D01*
X148536866Y-90290984D01*
X148516650Y-90357865D01*
X148465275Y-90402382D01*
X148407267Y-90429431D01*
X148407265Y-90429432D01*
X148220858Y-90559954D01*
X148059954Y-90720858D01*
X147929432Y-90907265D01*
X147929431Y-90907267D01*
X147836758Y-91106003D01*
X147790585Y-91158442D01*
X147723391Y-91177594D01*
X147656510Y-91157378D01*
X147636695Y-91141279D01*
X142470319Y-85974903D01*
X142436834Y-85913580D01*
X142434000Y-85887222D01*
X142434000Y-81355750D01*
X142433999Y-81355745D01*
X142431892Y-81347883D01*
X142429710Y-81339738D01*
X142423851Y-81317871D01*
X142416271Y-81289585D01*
X142395565Y-81212304D01*
X142378244Y-81182304D01*
X142321313Y-81083696D01*
X142216304Y-80978687D01*
X142211973Y-80974356D01*
X142211962Y-80974346D01*
X140918383Y-79680767D01*
X140918381Y-79680764D01*
X140806306Y-79568689D01*
X140806300Y-79568684D01*
X140677698Y-79494436D01*
X140677697Y-79494435D01*
X140677696Y-79494435D01*
X140670538Y-79492517D01*
X140670534Y-79492515D01*
X140558571Y-79462516D01*
X140534253Y-79456000D01*
X140534252Y-79456000D01*
X140248280Y-79456000D01*
X140181241Y-79436315D01*
X140135486Y-79383511D01*
X140125542Y-79314353D01*
X140128505Y-79299907D01*
X140158971Y-79186204D01*
X140185635Y-79086692D01*
X140205468Y-78860000D01*
X140185635Y-78633308D01*
X140126739Y-78413504D01*
X140030568Y-78207266D01*
X139900047Y-78020861D01*
X139900045Y-78020858D01*
X139739141Y-77859954D01*
X139552734Y-77729432D01*
X139552728Y-77729429D01*
X139494725Y-77702382D01*
X139442285Y-77656210D01*
X139423133Y-77589017D01*
X139443348Y-77522135D01*
X139494725Y-77477618D01*
X139552734Y-77450568D01*
X139739139Y-77320047D01*
X139900047Y-77159139D01*
X140030568Y-76972734D01*
X140126739Y-76766496D01*
X140185635Y-76546692D01*
X140205468Y-76320000D01*
X140185635Y-76093308D01*
X140126739Y-75873504D01*
X140030568Y-75667266D01*
X139913448Y-75500000D01*
X139900045Y-75480858D01*
X139739143Y-75319956D01*
X139714536Y-75302726D01*
X139670912Y-75248149D01*
X139663719Y-75178650D01*
X139695241Y-75116296D01*
X139755471Y-75080882D01*
X139772404Y-75077861D01*
X139807483Y-75074091D01*
X139942331Y-75023796D01*
X140057546Y-74937546D01*
X140143796Y-74822331D01*
X140194091Y-74687483D01*
X140200500Y-74627873D01*
X140200499Y-72932128D01*
X140194091Y-72872517D01*
X140190298Y-72862348D01*
X140143797Y-72737671D01*
X140143793Y-72737664D01*
X140057547Y-72622455D01*
X140057544Y-72622452D01*
X139942335Y-72536206D01*
X139942328Y-72536202D01*
X139807482Y-72485908D01*
X139807483Y-72485908D01*
X139747883Y-72479501D01*
X139747881Y-72479500D01*
X139747873Y-72479500D01*
X139747864Y-72479500D01*
X138052129Y-72479500D01*
X138052123Y-72479501D01*
X137992516Y-72485908D01*
X137857671Y-72536202D01*
X137857664Y-72536206D01*
X137742455Y-72622452D01*
X137742452Y-72622455D01*
X137656206Y-72737664D01*
X137656202Y-72737671D01*
X137605908Y-72872517D01*
X137599501Y-72932116D01*
X137599501Y-72932123D01*
X137599500Y-72932135D01*
X137599500Y-73239321D01*
X137579815Y-73306360D01*
X137563181Y-73327002D01*
X137456485Y-73433698D01*
X137211120Y-73679062D01*
X137149797Y-73712547D01*
X137080105Y-73707563D01*
X137024172Y-73665691D01*
X136999911Y-73602187D01*
X136995635Y-73553313D01*
X136995635Y-73553308D01*
X136936739Y-73333504D01*
X136840568Y-73127266D01*
X136710047Y-72940861D01*
X136710045Y-72940858D01*
X136549141Y-72779954D01*
X136362734Y-72649432D01*
X136362732Y-72649431D01*
X136156497Y-72553261D01*
X136156488Y-72553258D01*
X135936697Y-72494366D01*
X135936693Y-72494365D01*
X135936692Y-72494365D01*
X135936691Y-72494364D01*
X135936686Y-72494364D01*
X135710002Y-72474532D01*
X135709998Y-72474532D01*
X135483313Y-72494364D01*
X135483302Y-72494366D01*
X135263511Y-72553258D01*
X135263502Y-72553261D01*
X135057267Y-72649431D01*
X135057265Y-72649432D01*
X134870858Y-72779954D01*
X134709954Y-72940858D01*
X134579432Y-73127265D01*
X134579431Y-73127267D01*
X134483261Y-73333502D01*
X134483258Y-73333511D01*
X134424366Y-73553302D01*
X134424364Y-73553313D01*
X134404532Y-73779998D01*
X134404532Y-73780001D01*
X134424364Y-74006686D01*
X134424366Y-74006697D01*
X134483258Y-74226488D01*
X134483261Y-74226497D01*
X134579431Y-74432732D01*
X134579432Y-74432734D01*
X134709954Y-74619141D01*
X134870858Y-74780045D01*
X134870861Y-74780047D01*
X135057266Y-74910568D01*
X135115116Y-74937544D01*
X135115273Y-74937617D01*
X135167713Y-74983789D01*
X135186865Y-75050982D01*
X135166650Y-75117864D01*
X135115276Y-75162380D01*
X135057269Y-75189430D01*
X135057268Y-75189430D01*
X134870858Y-75319954D01*
X134709954Y-75480858D01*
X134579432Y-75667265D01*
X134579431Y-75667267D01*
X134483261Y-75873502D01*
X134483258Y-75873511D01*
X134424366Y-76093302D01*
X134424364Y-76093313D01*
X134404532Y-76319998D01*
X134404532Y-76320001D01*
X134424364Y-76546686D01*
X134424366Y-76546697D01*
X134483258Y-76766488D01*
X134483261Y-76766497D01*
X134579431Y-76972732D01*
X134579432Y-76972734D01*
X134709954Y-77159141D01*
X134870858Y-77320045D01*
X134870861Y-77320047D01*
X135057266Y-77450568D01*
X135115275Y-77477618D01*
X135167714Y-77523791D01*
X135186866Y-77590984D01*
X135166650Y-77657865D01*
X135115275Y-77702382D01*
X135057267Y-77729431D01*
X135057265Y-77729432D01*
X134870858Y-77859954D01*
X134709954Y-78020858D01*
X134579432Y-78207265D01*
X134579431Y-78207267D01*
X134483261Y-78413502D01*
X134483258Y-78413511D01*
X134424366Y-78633302D01*
X134424364Y-78633313D01*
X134404532Y-78859998D01*
X134404532Y-78860001D01*
X134424364Y-79086686D01*
X134424366Y-79086697D01*
X134483258Y-79306488D01*
X134483261Y-79306497D01*
X134579431Y-79512732D01*
X134579432Y-79512734D01*
X134709954Y-79699141D01*
X134870858Y-79860045D01*
X134870861Y-79860047D01*
X135057266Y-79990568D01*
X135115275Y-80017618D01*
X135167714Y-80063791D01*
X135186866Y-80130984D01*
X135166650Y-80197865D01*
X135115275Y-80242382D01*
X135057267Y-80269431D01*
X135057265Y-80269432D01*
X134870858Y-80399954D01*
X134709954Y-80560858D01*
X134579432Y-80747265D01*
X134579431Y-80747267D01*
X134483261Y-80953502D01*
X134483258Y-80953511D01*
X134424366Y-81173302D01*
X134424364Y-81173313D01*
X134404532Y-81399998D01*
X134404532Y-81400001D01*
X134424364Y-81626686D01*
X134424366Y-81626697D01*
X134483258Y-81846488D01*
X134483261Y-81846497D01*
X134579431Y-82052732D01*
X134579432Y-82052734D01*
X134709954Y-82239141D01*
X134870858Y-82400045D01*
X134870861Y-82400047D01*
X135057266Y-82530568D01*
X135112524Y-82556335D01*
X135115273Y-82557617D01*
X135167713Y-82603789D01*
X135186865Y-82670982D01*
X135166650Y-82737864D01*
X135115276Y-82782380D01*
X135057269Y-82809430D01*
X135057268Y-82809430D01*
X134870858Y-82939954D01*
X134709954Y-83100858D01*
X134579432Y-83287265D01*
X134579431Y-83287267D01*
X134483261Y-83493502D01*
X134483258Y-83493511D01*
X134424366Y-83713302D01*
X134424364Y-83713313D01*
X134404532Y-83939998D01*
X134404532Y-83940001D01*
X134424364Y-84166686D01*
X134424366Y-84166697D01*
X134483258Y-84386488D01*
X134483261Y-84386497D01*
X134579431Y-84592732D01*
X134579432Y-84592734D01*
X134709954Y-84779141D01*
X134870858Y-84940045D01*
X134870861Y-84940047D01*
X135057266Y-85070568D01*
X135115275Y-85097618D01*
X135167714Y-85143791D01*
X135186866Y-85210984D01*
X135166650Y-85277865D01*
X135115275Y-85322381D01*
X135110527Y-85324596D01*
X135057267Y-85349431D01*
X135057265Y-85349432D01*
X134870858Y-85479954D01*
X134709954Y-85640858D01*
X134579432Y-85827265D01*
X134579431Y-85827267D01*
X134483261Y-86033502D01*
X134483258Y-86033511D01*
X134424366Y-86253302D01*
X134424364Y-86253313D01*
X134404532Y-86479998D01*
X134404532Y-86480001D01*
X134424364Y-86706686D01*
X134424366Y-86706697D01*
X134483258Y-86926488D01*
X134483261Y-86926497D01*
X134579431Y-87132732D01*
X134579432Y-87132734D01*
X134709954Y-87319141D01*
X134870858Y-87480045D01*
X134870861Y-87480047D01*
X135057266Y-87610568D01*
X135115275Y-87637618D01*
X135167714Y-87683791D01*
X135186866Y-87750984D01*
X135166650Y-87817865D01*
X135115275Y-87862381D01*
X135104932Y-87867205D01*
X135057267Y-87889431D01*
X135057265Y-87889432D01*
X134870858Y-88019954D01*
X134709954Y-88180858D01*
X134579432Y-88367265D01*
X134579431Y-88367267D01*
X134483261Y-88573502D01*
X134483258Y-88573511D01*
X134424366Y-88793302D01*
X134424364Y-88793313D01*
X134404532Y-89019998D01*
X134404532Y-89020001D01*
X134424364Y-89246686D01*
X134424366Y-89246697D01*
X134483258Y-89466488D01*
X134483261Y-89466497D01*
X134579431Y-89672732D01*
X134579432Y-89672734D01*
X134709954Y-89859141D01*
X134870858Y-90020045D01*
X134870861Y-90020047D01*
X135057266Y-90150568D01*
X135115273Y-90177617D01*
X135167713Y-90223789D01*
X135186865Y-90290982D01*
X135166650Y-90357864D01*
X135115276Y-90402380D01*
X135057269Y-90429430D01*
X135057268Y-90429430D01*
X134870858Y-90559954D01*
X134709954Y-90720858D01*
X134579432Y-90907265D01*
X134579431Y-90907267D01*
X134483261Y-91113502D01*
X134483258Y-91113511D01*
X134424366Y-91333302D01*
X134424364Y-91333313D01*
X134404532Y-91559998D01*
X134404532Y-91560001D01*
X134424364Y-91786686D01*
X134424366Y-91786697D01*
X134483258Y-92006488D01*
X134483261Y-92006497D01*
X134579431Y-92212732D01*
X134579432Y-92212734D01*
X134709954Y-92399141D01*
X134870858Y-92560045D01*
X134870861Y-92560047D01*
X135057266Y-92690568D01*
X135263504Y-92786739D01*
X135483308Y-92845635D01*
X135645230Y-92859801D01*
X135709998Y-92865468D01*
X135710000Y-92865468D01*
X135710002Y-92865468D01*
X135766673Y-92860509D01*
X135936692Y-92845635D01*
X136156496Y-92786739D01*
X136362734Y-92690568D01*
X136549139Y-92560047D01*
X136710047Y-92399139D01*
X136840568Y-92212734D01*
X136852338Y-92187492D01*
X136898506Y-92135055D01*
X136965699Y-92115901D01*
X137032580Y-92136114D01*
X137052400Y-92152216D01*
X141435176Y-96534992D01*
X141468661Y-96596315D01*
X141463677Y-96666007D01*
X141421805Y-96721940D01*
X141399901Y-96735055D01*
X141312168Y-96775966D01*
X141118597Y-96911505D01*
X140951505Y-97078597D01*
X140815965Y-97272169D01*
X140815964Y-97272171D01*
X140716098Y-97486335D01*
X140716094Y-97486344D01*
X140654938Y-97714586D01*
X140654936Y-97714596D01*
X140634341Y-97949999D01*
X140634341Y-97950000D01*
X140654936Y-98185403D01*
X140654938Y-98185413D01*
X140716094Y-98413655D01*
X140716096Y-98413659D01*
X140716097Y-98413663D01*
X140795801Y-98584588D01*
X140815965Y-98627830D01*
X140815967Y-98627834D01*
X140924281Y-98782521D01*
X140951505Y-98821401D01*
X141118599Y-98988495D01*
X141215384Y-99056265D01*
X141312165Y-99124032D01*
X141312168Y-99124034D01*
X141312170Y-99124035D01*
X141354403Y-99143728D01*
X141406843Y-99189898D01*
X141426000Y-99256110D01*
X141426000Y-100498551D01*
X141406315Y-100565590D01*
X141354407Y-100610932D01*
X141322172Y-100625963D01*
X141322169Y-100625965D01*
X141128597Y-100761505D01*
X140961505Y-100928597D01*
X140825965Y-101122169D01*
X140825964Y-101122171D01*
X140726098Y-101336335D01*
X140726094Y-101336344D01*
X140664938Y-101564586D01*
X140664936Y-101564596D01*
X140644341Y-101799999D01*
X140644341Y-101800000D01*
X140664936Y-102035403D01*
X140664938Y-102035413D01*
X140726094Y-102263655D01*
X140726096Y-102263659D01*
X140726097Y-102263663D01*
X140805801Y-102434588D01*
X140825965Y-102477830D01*
X140825967Y-102477834D01*
X140934281Y-102632521D01*
X140961505Y-102671401D01*
X141128599Y-102838495D01*
X141225384Y-102906265D01*
X141322165Y-102974032D01*
X141322166Y-102974032D01*
X141322170Y-102974035D01*
X141354403Y-102989065D01*
X141406842Y-103035235D01*
X141426000Y-103101447D01*
X141426000Y-105249225D01*
X141406315Y-105316264D01*
X141354406Y-105361607D01*
X141302168Y-105385966D01*
X141108597Y-105521505D01*
X140941505Y-105688597D01*
X140805965Y-105882169D01*
X140805964Y-105882171D01*
X140706098Y-106096335D01*
X140706094Y-106096344D01*
X140644938Y-106324586D01*
X140644936Y-106324596D01*
X140624341Y-106559999D01*
X140624341Y-106560000D01*
X140644936Y-106795403D01*
X140644938Y-106795413D01*
X140706094Y-107023655D01*
X140706096Y-107023659D01*
X140706097Y-107023663D01*
X140785801Y-107194588D01*
X140805965Y-107237830D01*
X140805967Y-107237834D01*
X140914281Y-107392521D01*
X140941504Y-107431400D01*
X140941506Y-107431402D01*
X141108597Y-107598493D01*
X141108603Y-107598498D01*
X141294158Y-107728425D01*
X141337783Y-107783002D01*
X141344977Y-107852500D01*
X141313454Y-107914855D01*
X141294158Y-107931575D01*
X141108597Y-108061505D01*
X140941505Y-108228597D01*
X140805965Y-108422169D01*
X140805964Y-108422171D01*
X140706098Y-108636335D01*
X140706094Y-108636344D01*
X140644938Y-108864586D01*
X140644936Y-108864596D01*
X140624341Y-109099999D01*
X140624341Y-109100000D01*
X140644936Y-109335403D01*
X140644938Y-109335413D01*
X140706094Y-109563655D01*
X140706096Y-109563659D01*
X140706097Y-109563663D01*
X140710000Y-109572032D01*
X140805965Y-109777830D01*
X140805967Y-109777834D01*
X140914281Y-109932521D01*
X140941505Y-109971401D01*
X141108599Y-110138495D01*
X141130667Y-110153947D01*
X141302165Y-110274032D01*
X141302166Y-110274032D01*
X141302170Y-110274035D01*
X141334403Y-110289065D01*
X141386842Y-110335235D01*
X141406000Y-110401447D01*
X141406000Y-112425500D01*
X141386315Y-112492539D01*
X141333511Y-112538294D01*
X141282001Y-112549500D01*
X141072130Y-112549500D01*
X141072123Y-112549501D01*
X141012516Y-112555908D01*
X140877671Y-112606202D01*
X140877664Y-112606206D01*
X140762455Y-112692452D01*
X140762452Y-112692455D01*
X140676206Y-112807664D01*
X140676202Y-112807671D01*
X140625908Y-112942517D01*
X140619501Y-113002116D01*
X140619500Y-113002135D01*
X140619500Y-114797870D01*
X140619501Y-114797876D01*
X140625908Y-114857483D01*
X140676202Y-114992328D01*
X140676206Y-114992335D01*
X140762452Y-115107544D01*
X140762455Y-115107547D01*
X140877664Y-115193793D01*
X140877671Y-115193797D01*
X140922618Y-115210561D01*
X141012517Y-115244091D01*
X141072127Y-115250500D01*
X141252000Y-115250499D01*
X141319039Y-115270183D01*
X141364794Y-115322987D01*
X141376000Y-115374499D01*
X141376000Y-116375500D01*
X141356315Y-116442539D01*
X141303511Y-116488294D01*
X141252001Y-116499500D01*
X141042130Y-116499500D01*
X141042123Y-116499501D01*
X140982516Y-116505908D01*
X140847671Y-116556202D01*
X140847664Y-116556206D01*
X140732455Y-116642452D01*
X140732452Y-116642455D01*
X140646206Y-116757664D01*
X140646202Y-116757671D01*
X140595908Y-116892517D01*
X140589501Y-116952116D01*
X140589500Y-116952135D01*
X140589500Y-118747870D01*
X140589501Y-118747876D01*
X140595908Y-118807483D01*
X140646202Y-118942328D01*
X140646206Y-118942335D01*
X140732452Y-119057544D01*
X140732455Y-119057547D01*
X140847664Y-119143793D01*
X140847671Y-119143797D01*
X140982517Y-119194091D01*
X140982516Y-119194091D01*
X140989444Y-119194835D01*
X141042127Y-119200500D01*
X142837872Y-119200499D01*
X142897483Y-119194091D01*
X143032331Y-119143796D01*
X143147546Y-119057546D01*
X143233796Y-118942331D01*
X143282810Y-118810916D01*
X143324681Y-118754984D01*
X143390145Y-118730566D01*
X143458418Y-118745417D01*
X143486673Y-118766569D01*
X143608599Y-118888495D01*
X143705384Y-118956265D01*
X143802165Y-119024032D01*
X143802167Y-119024033D01*
X143802170Y-119024035D01*
X144016337Y-119123903D01*
X144244592Y-119185063D01*
X144421034Y-119200500D01*
X144479999Y-119205659D01*
X144480000Y-119205659D01*
X144480001Y-119205659D01*
X144538966Y-119200500D01*
X144715408Y-119185063D01*
X144943663Y-119123903D01*
X145157830Y-119024035D01*
X145351401Y-118888495D01*
X145518495Y-118721401D01*
X145648425Y-118535842D01*
X145703002Y-118492217D01*
X145772500Y-118485023D01*
X145834855Y-118516546D01*
X145851575Y-118535842D01*
X145981500Y-118721395D01*
X145981505Y-118721401D01*
X146148599Y-118888495D01*
X146245384Y-118956265D01*
X146342165Y-119024032D01*
X146342167Y-119024033D01*
X146342170Y-119024035D01*
X146556337Y-119123903D01*
X146784592Y-119185063D01*
X146961034Y-119200500D01*
X147019999Y-119205659D01*
X147020000Y-119205659D01*
X147020001Y-119205659D01*
X147078966Y-119200500D01*
X147255408Y-119185063D01*
X147483663Y-119123903D01*
X147697830Y-119024035D01*
X147891401Y-118888495D01*
X148058495Y-118721401D01*
X148188425Y-118535842D01*
X148243002Y-118492217D01*
X148312500Y-118485023D01*
X148374855Y-118516546D01*
X148391575Y-118535842D01*
X148521500Y-118721395D01*
X148521505Y-118721401D01*
X148688599Y-118888495D01*
X148785384Y-118956265D01*
X148882165Y-119024032D01*
X148882167Y-119024033D01*
X148882170Y-119024035D01*
X149096337Y-119123903D01*
X149324592Y-119185063D01*
X149501034Y-119200500D01*
X149559999Y-119205659D01*
X149560000Y-119205659D01*
X149560001Y-119205659D01*
X149618966Y-119200500D01*
X149795408Y-119185063D01*
X150023663Y-119123903D01*
X150237830Y-119024035D01*
X150431401Y-118888495D01*
X150598495Y-118721401D01*
X150728425Y-118535842D01*
X150783002Y-118492217D01*
X150852500Y-118485023D01*
X150914855Y-118516546D01*
X150931575Y-118535842D01*
X151061500Y-118721395D01*
X151061505Y-118721401D01*
X151228599Y-118888495D01*
X151325384Y-118956265D01*
X151422165Y-119024032D01*
X151422167Y-119024033D01*
X151422170Y-119024035D01*
X151636337Y-119123903D01*
X151864592Y-119185063D01*
X152041034Y-119200500D01*
X152099999Y-119205659D01*
X152100000Y-119205659D01*
X152100001Y-119205659D01*
X152158966Y-119200500D01*
X152335408Y-119185063D01*
X152563663Y-119123903D01*
X152777830Y-119024035D01*
X152971401Y-118888495D01*
X153138495Y-118721401D01*
X153268425Y-118535842D01*
X153323002Y-118492217D01*
X153392500Y-118485023D01*
X153454855Y-118516546D01*
X153471575Y-118535842D01*
X153601500Y-118721395D01*
X153601505Y-118721401D01*
X153768599Y-118888495D01*
X153865384Y-118956265D01*
X153962165Y-119024032D01*
X153962167Y-119024033D01*
X153962170Y-119024035D01*
X154176337Y-119123903D01*
X154404592Y-119185063D01*
X154581034Y-119200500D01*
X154639999Y-119205659D01*
X154640000Y-119205659D01*
X154640001Y-119205659D01*
X154698966Y-119200500D01*
X154875408Y-119185063D01*
X155103663Y-119123903D01*
X155317830Y-119024035D01*
X155511401Y-118888495D01*
X155678495Y-118721401D01*
X155808425Y-118535842D01*
X155863002Y-118492217D01*
X155932500Y-118485023D01*
X155994855Y-118516546D01*
X156011575Y-118535842D01*
X156141500Y-118721395D01*
X156141505Y-118721401D01*
X156308599Y-118888495D01*
X156405384Y-118956265D01*
X156502165Y-119024032D01*
X156502167Y-119024033D01*
X156502170Y-119024035D01*
X156716337Y-119123903D01*
X156944592Y-119185063D01*
X157121034Y-119200500D01*
X157179999Y-119205659D01*
X157180000Y-119205659D01*
X157180001Y-119205659D01*
X157238966Y-119200500D01*
X157415408Y-119185063D01*
X157643663Y-119123903D01*
X157857830Y-119024035D01*
X158051401Y-118888495D01*
X158218495Y-118721401D01*
X158348425Y-118535842D01*
X158403002Y-118492217D01*
X158472500Y-118485023D01*
X158534855Y-118516546D01*
X158551575Y-118535842D01*
X158681500Y-118721395D01*
X158681505Y-118721401D01*
X158848599Y-118888495D01*
X158945384Y-118956265D01*
X159042165Y-119024032D01*
X159042167Y-119024033D01*
X159042170Y-119024035D01*
X159256337Y-119123903D01*
X159484592Y-119185063D01*
X159661034Y-119200500D01*
X159719999Y-119205659D01*
X159720000Y-119205659D01*
X159720001Y-119205659D01*
X159778966Y-119200500D01*
X159955408Y-119185063D01*
X160183663Y-119123903D01*
X160397830Y-119024035D01*
X160591401Y-118888495D01*
X160758495Y-118721401D01*
X160888425Y-118535842D01*
X160943002Y-118492217D01*
X161012500Y-118485023D01*
X161074855Y-118516546D01*
X161091575Y-118535842D01*
X161221500Y-118721395D01*
X161221505Y-118721401D01*
X161388599Y-118888495D01*
X161485384Y-118956265D01*
X161582165Y-119024032D01*
X161582167Y-119024033D01*
X161582170Y-119024035D01*
X161796337Y-119123903D01*
X162024592Y-119185063D01*
X162201034Y-119200500D01*
X162259999Y-119205659D01*
X162260000Y-119205659D01*
X162260001Y-119205659D01*
X162318966Y-119200500D01*
X162495408Y-119185063D01*
X162723663Y-119123903D01*
X162937830Y-119024035D01*
X163131401Y-118888495D01*
X163298495Y-118721401D01*
X163428425Y-118535842D01*
X163483002Y-118492217D01*
X163552500Y-118485023D01*
X163614855Y-118516546D01*
X163631575Y-118535842D01*
X163761500Y-118721395D01*
X163761505Y-118721401D01*
X163928599Y-118888495D01*
X164025384Y-118956265D01*
X164122165Y-119024032D01*
X164122167Y-119024033D01*
X164122170Y-119024035D01*
X164336337Y-119123903D01*
X164564592Y-119185063D01*
X164741034Y-119200500D01*
X164799999Y-119205659D01*
X164800000Y-119205659D01*
X164800001Y-119205659D01*
X164858966Y-119200500D01*
X165035408Y-119185063D01*
X165263663Y-119123903D01*
X165477830Y-119024035D01*
X165671401Y-118888495D01*
X165838495Y-118721401D01*
X165968425Y-118535842D01*
X166023002Y-118492217D01*
X166092500Y-118485023D01*
X166154855Y-118516546D01*
X166171575Y-118535842D01*
X166301500Y-118721395D01*
X166301505Y-118721401D01*
X166468599Y-118888495D01*
X166565384Y-118956265D01*
X166662165Y-119024032D01*
X166662167Y-119024033D01*
X166662170Y-119024035D01*
X166876337Y-119123903D01*
X167104592Y-119185063D01*
X167281034Y-119200500D01*
X167339999Y-119205659D01*
X167340000Y-119205659D01*
X167340001Y-119205659D01*
X167398966Y-119200500D01*
X167575408Y-119185063D01*
X167803663Y-119123903D01*
X168017830Y-119024035D01*
X168211401Y-118888495D01*
X168378495Y-118721401D01*
X168508425Y-118535842D01*
X168563002Y-118492217D01*
X168632500Y-118485023D01*
X168694855Y-118516546D01*
X168711575Y-118535842D01*
X168841500Y-118721395D01*
X168841505Y-118721401D01*
X169008599Y-118888495D01*
X169105384Y-118956265D01*
X169202165Y-119024032D01*
X169202167Y-119024033D01*
X169202170Y-119024035D01*
X169416337Y-119123903D01*
X169644592Y-119185063D01*
X169821034Y-119200500D01*
X169879999Y-119205659D01*
X169880000Y-119205659D01*
X169880001Y-119205659D01*
X169938966Y-119200500D01*
X170115408Y-119185063D01*
X170343663Y-119123903D01*
X170557830Y-119024035D01*
X170751401Y-118888495D01*
X170918495Y-118721401D01*
X171048425Y-118535842D01*
X171103002Y-118492217D01*
X171172500Y-118485023D01*
X171234855Y-118516546D01*
X171251575Y-118535842D01*
X171381500Y-118721395D01*
X171381505Y-118721401D01*
X171548599Y-118888495D01*
X171645384Y-118956265D01*
X171742165Y-119024032D01*
X171742167Y-119024033D01*
X171742170Y-119024035D01*
X171956337Y-119123903D01*
X172184592Y-119185063D01*
X172361034Y-119200500D01*
X172419999Y-119205659D01*
X172420000Y-119205659D01*
X172420001Y-119205659D01*
X172478966Y-119200500D01*
X172655408Y-119185063D01*
X172883663Y-119123903D01*
X173097830Y-119024035D01*
X173291401Y-118888495D01*
X173458495Y-118721401D01*
X173588425Y-118535842D01*
X173643002Y-118492217D01*
X173712500Y-118485023D01*
X173774855Y-118516546D01*
X173791575Y-118535842D01*
X173921500Y-118721395D01*
X173921505Y-118721401D01*
X174088599Y-118888495D01*
X174185384Y-118956265D01*
X174282165Y-119024032D01*
X174282167Y-119024033D01*
X174282170Y-119024035D01*
X174496337Y-119123903D01*
X174724592Y-119185063D01*
X174901034Y-119200500D01*
X174959999Y-119205659D01*
X174960000Y-119205659D01*
X174960001Y-119205659D01*
X175018966Y-119200500D01*
X175195408Y-119185063D01*
X175423663Y-119123903D01*
X175637830Y-119024035D01*
X175831401Y-118888495D01*
X175998495Y-118721401D01*
X176128425Y-118535842D01*
X176183002Y-118492217D01*
X176252500Y-118485023D01*
X176314855Y-118516546D01*
X176331575Y-118535842D01*
X176461500Y-118721395D01*
X176461505Y-118721401D01*
X176628599Y-118888495D01*
X176725384Y-118956265D01*
X176822165Y-119024032D01*
X176822167Y-119024033D01*
X176822170Y-119024035D01*
X177036337Y-119123903D01*
X177264592Y-119185063D01*
X177441034Y-119200500D01*
X177499999Y-119205659D01*
X177500000Y-119205659D01*
X177500001Y-119205659D01*
X177558966Y-119200500D01*
X177735408Y-119185063D01*
X177963663Y-119123903D01*
X178177830Y-119024035D01*
X178371401Y-118888495D01*
X178538495Y-118721401D01*
X178668425Y-118535842D01*
X178723002Y-118492217D01*
X178792500Y-118485023D01*
X178854855Y-118516546D01*
X178871575Y-118535842D01*
X179001500Y-118721395D01*
X179001505Y-118721401D01*
X179168599Y-118888495D01*
X179265384Y-118956265D01*
X179362165Y-119024032D01*
X179362167Y-119024033D01*
X179362170Y-119024035D01*
X179576337Y-119123903D01*
X179804592Y-119185063D01*
X179981034Y-119200500D01*
X180039999Y-119205659D01*
X180040000Y-119205659D01*
X180040001Y-119205659D01*
X180098966Y-119200500D01*
X180275408Y-119185063D01*
X180503663Y-119123903D01*
X180717830Y-119024035D01*
X180911401Y-118888495D01*
X181078495Y-118721401D01*
X181208425Y-118535842D01*
X181263002Y-118492217D01*
X181332500Y-118485023D01*
X181394855Y-118516546D01*
X181411575Y-118535842D01*
X181541500Y-118721395D01*
X181541505Y-118721401D01*
X181708599Y-118888495D01*
X181805384Y-118956265D01*
X181902165Y-119024032D01*
X181902167Y-119024033D01*
X181902170Y-119024035D01*
X182116337Y-119123903D01*
X182344592Y-119185063D01*
X182521034Y-119200500D01*
X182579999Y-119205659D01*
X182580000Y-119205659D01*
X182580001Y-119205659D01*
X182638966Y-119200500D01*
X182815408Y-119185063D01*
X183043663Y-119123903D01*
X183257830Y-119024035D01*
X183451401Y-118888495D01*
X183618495Y-118721401D01*
X183748425Y-118535842D01*
X183803002Y-118492217D01*
X183872500Y-118485023D01*
X183934855Y-118516546D01*
X183951575Y-118535842D01*
X184081500Y-118721395D01*
X184081505Y-118721401D01*
X184248599Y-118888495D01*
X184345384Y-118956265D01*
X184442165Y-119024032D01*
X184442167Y-119024033D01*
X184442170Y-119024035D01*
X184656337Y-119123903D01*
X184884592Y-119185063D01*
X185061034Y-119200500D01*
X185119999Y-119205659D01*
X185120000Y-119205659D01*
X185120001Y-119205659D01*
X185178966Y-119200500D01*
X185355408Y-119185063D01*
X185583663Y-119123903D01*
X185797830Y-119024035D01*
X185991401Y-118888495D01*
X186158495Y-118721401D01*
X186288425Y-118535842D01*
X186343002Y-118492217D01*
X186412500Y-118485023D01*
X186474855Y-118516546D01*
X186491575Y-118535842D01*
X186621500Y-118721395D01*
X186621505Y-118721401D01*
X186788599Y-118888495D01*
X186885384Y-118956265D01*
X186982165Y-119024032D01*
X186982167Y-119024033D01*
X186982170Y-119024035D01*
X187196337Y-119123903D01*
X187424592Y-119185063D01*
X187601034Y-119200500D01*
X187659999Y-119205659D01*
X187660000Y-119205659D01*
X187660001Y-119205659D01*
X187718966Y-119200500D01*
X187895408Y-119185063D01*
X188123663Y-119123903D01*
X188337830Y-119024035D01*
X188531401Y-118888495D01*
X188698495Y-118721401D01*
X188828425Y-118535842D01*
X188883002Y-118492217D01*
X188952500Y-118485023D01*
X189014855Y-118516546D01*
X189031575Y-118535842D01*
X189161500Y-118721395D01*
X189161505Y-118721401D01*
X189328599Y-118888495D01*
X189425384Y-118956265D01*
X189522165Y-119024032D01*
X189522167Y-119024033D01*
X189522170Y-119024035D01*
X189736337Y-119123903D01*
X189964592Y-119185063D01*
X190141034Y-119200500D01*
X190199999Y-119205659D01*
X190200000Y-119205659D01*
X190200001Y-119205659D01*
X190258966Y-119200500D01*
X190435408Y-119185063D01*
X190663663Y-119123903D01*
X190877830Y-119024035D01*
X191071401Y-118888495D01*
X191238495Y-118721401D01*
X191374035Y-118527830D01*
X191473903Y-118313663D01*
X191535063Y-118085408D01*
X191555659Y-117850000D01*
X191535063Y-117614592D01*
X191473903Y-117386337D01*
X191374035Y-117172171D01*
X191368425Y-117164158D01*
X191238494Y-116978597D01*
X191071402Y-116811506D01*
X191071395Y-116811501D01*
X190877831Y-116675965D01*
X190865592Y-116670258D01*
X190813154Y-116624084D01*
X190794000Y-116557877D01*
X190794000Y-115588711D01*
X209679500Y-115588711D01*
X209679500Y-115831288D01*
X209711161Y-116071785D01*
X209773947Y-116306104D01*
X209845901Y-116479815D01*
X209866776Y-116530212D01*
X209988064Y-116740289D01*
X209988066Y-116740292D01*
X209988067Y-116740293D01*
X210135733Y-116932736D01*
X210135739Y-116932743D01*
X210307256Y-117104260D01*
X210307262Y-117104265D01*
X210499711Y-117251936D01*
X210709788Y-117373224D01*
X210933900Y-117466054D01*
X211168211Y-117528838D01*
X211348586Y-117552584D01*
X211408711Y-117560500D01*
X211408712Y-117560500D01*
X211651289Y-117560500D01*
X211699388Y-117554167D01*
X211891789Y-117528838D01*
X212126100Y-117466054D01*
X212350212Y-117373224D01*
X212560289Y-117251936D01*
X212752738Y-117104265D01*
X212924265Y-116932738D01*
X213071936Y-116740289D01*
X213193224Y-116530212D01*
X213286054Y-116306100D01*
X213348838Y-116071789D01*
X213380500Y-115831288D01*
X213380500Y-115588712D01*
X213348838Y-115348211D01*
X213286054Y-115113900D01*
X213193224Y-114889788D01*
X213071936Y-114679711D01*
X212924265Y-114487262D01*
X212924260Y-114487256D01*
X212752743Y-114315739D01*
X212752736Y-114315733D01*
X212560293Y-114168067D01*
X212560292Y-114168066D01*
X212560289Y-114168064D01*
X212350212Y-114046776D01*
X212350205Y-114046773D01*
X212126104Y-113953947D01*
X212008944Y-113922554D01*
X211891789Y-113891162D01*
X211891788Y-113891161D01*
X211891785Y-113891161D01*
X211651289Y-113859500D01*
X211651288Y-113859500D01*
X211408712Y-113859500D01*
X211408711Y-113859500D01*
X211168214Y-113891161D01*
X210933895Y-113953947D01*
X210709794Y-114046773D01*
X210709785Y-114046777D01*
X210499706Y-114168067D01*
X210307263Y-114315733D01*
X210307256Y-114315739D01*
X210135739Y-114487256D01*
X210135733Y-114487263D01*
X209988067Y-114679706D01*
X209866777Y-114889785D01*
X209866773Y-114889794D01*
X209773947Y-115113895D01*
X209711161Y-115348214D01*
X209679500Y-115588711D01*
X190794000Y-115588711D01*
X190794000Y-115206110D01*
X190813685Y-115139071D01*
X190865596Y-115093728D01*
X190907830Y-115074035D01*
X191101401Y-114938495D01*
X191268495Y-114771401D01*
X191404035Y-114577830D01*
X191503903Y-114363663D01*
X191565063Y-114135408D01*
X191585659Y-113900000D01*
X191565063Y-113664592D01*
X191503903Y-113436337D01*
X191404035Y-113222171D01*
X191398425Y-113214158D01*
X191268494Y-113028597D01*
X191101402Y-112861506D01*
X191101395Y-112861501D01*
X190907832Y-112725966D01*
X190875594Y-112710933D01*
X190823155Y-112664760D01*
X190804000Y-112598551D01*
X190804000Y-110406110D01*
X190823685Y-110339071D01*
X190875596Y-110293728D01*
X190917830Y-110274035D01*
X191111401Y-110138495D01*
X191278495Y-109971401D01*
X191414035Y-109777830D01*
X191513903Y-109563663D01*
X191575063Y-109335408D01*
X191595659Y-109100000D01*
X191575063Y-108864592D01*
X191513903Y-108636337D01*
X191414035Y-108422171D01*
X191408424Y-108414158D01*
X191278496Y-108228600D01*
X191278493Y-108228597D01*
X191156567Y-108106671D01*
X191123084Y-108045351D01*
X191128068Y-107975659D01*
X191169939Y-107919725D01*
X191200915Y-107902810D01*
X191332331Y-107853796D01*
X191447546Y-107767546D01*
X191533796Y-107652331D01*
X191584091Y-107517483D01*
X191590500Y-107457873D01*
X191590499Y-105662128D01*
X191584091Y-105602517D01*
X191582810Y-105599083D01*
X191533797Y-105467671D01*
X191533793Y-105467664D01*
X191447547Y-105352455D01*
X191447544Y-105352452D01*
X191332335Y-105266206D01*
X191332328Y-105266202D01*
X191197482Y-105215908D01*
X191197483Y-105215908D01*
X191137883Y-105209501D01*
X191137881Y-105209500D01*
X191137873Y-105209500D01*
X191137865Y-105209500D01*
X190948000Y-105209500D01*
X190880961Y-105189815D01*
X190835206Y-105137011D01*
X190824000Y-105085500D01*
X190824000Y-103274499D01*
X190843685Y-103207460D01*
X190896489Y-103161705D01*
X190948000Y-103150499D01*
X191157871Y-103150499D01*
X191157872Y-103150499D01*
X191217483Y-103144091D01*
X191352331Y-103093796D01*
X191467546Y-103007546D01*
X191553796Y-102892331D01*
X191604091Y-102757483D01*
X191610500Y-102697873D01*
X191610499Y-100902128D01*
X191604091Y-100842517D01*
X191602810Y-100839083D01*
X191553797Y-100707671D01*
X191553793Y-100707664D01*
X191467547Y-100592455D01*
X191467544Y-100592452D01*
X191352335Y-100506206D01*
X191352328Y-100506202D01*
X191217482Y-100455908D01*
X191217483Y-100455908D01*
X191157883Y-100449501D01*
X191157881Y-100449500D01*
X191157873Y-100449500D01*
X191157865Y-100449500D01*
X190938000Y-100449500D01*
X190870961Y-100429815D01*
X190825206Y-100377011D01*
X190814000Y-100325500D01*
X190814000Y-99424499D01*
X190833685Y-99357460D01*
X190886489Y-99311705D01*
X190938000Y-99300499D01*
X191147871Y-99300499D01*
X191147872Y-99300499D01*
X191207483Y-99294091D01*
X191342331Y-99243796D01*
X191457546Y-99157546D01*
X191543796Y-99042331D01*
X191594091Y-98907483D01*
X191600500Y-98847873D01*
X191600499Y-97052128D01*
X191594091Y-96992517D01*
X191592810Y-96989083D01*
X191543797Y-96857671D01*
X191543793Y-96857664D01*
X191457547Y-96742455D01*
X191457544Y-96742452D01*
X191342335Y-96656206D01*
X191342328Y-96656202D01*
X191207482Y-96605908D01*
X191207483Y-96605908D01*
X191147883Y-96599501D01*
X191147881Y-96599500D01*
X191147873Y-96599500D01*
X191147864Y-96599500D01*
X189352129Y-96599500D01*
X189352123Y-96599501D01*
X189292516Y-96605908D01*
X189157671Y-96656202D01*
X189157664Y-96656206D01*
X189042455Y-96742452D01*
X189042452Y-96742455D01*
X188956206Y-96857664D01*
X188956203Y-96857669D01*
X188907189Y-96989083D01*
X188865317Y-97045016D01*
X188799853Y-97069433D01*
X188731580Y-97054581D01*
X188703326Y-97033430D01*
X188581402Y-96911506D01*
X188581395Y-96911501D01*
X188387834Y-96775967D01*
X188387830Y-96775965D01*
X188345592Y-96756269D01*
X188173663Y-96676097D01*
X188173659Y-96676096D01*
X188173655Y-96676094D01*
X187945413Y-96614938D01*
X187945403Y-96614936D01*
X187710001Y-96594341D01*
X187709999Y-96594341D01*
X187474596Y-96614936D01*
X187474586Y-96614938D01*
X187246344Y-96676094D01*
X187246335Y-96676098D01*
X187032171Y-96775964D01*
X187032169Y-96775965D01*
X186838597Y-96911505D01*
X186671505Y-97078597D01*
X186541575Y-97264158D01*
X186486998Y-97307783D01*
X186417500Y-97314977D01*
X186355145Y-97283454D01*
X186338425Y-97264158D01*
X186208494Y-97078597D01*
X186041402Y-96911506D01*
X186041395Y-96911501D01*
X185847834Y-96775967D01*
X185847830Y-96775965D01*
X185805592Y-96756269D01*
X185633663Y-96676097D01*
X185633659Y-96676096D01*
X185633655Y-96676094D01*
X185405413Y-96614938D01*
X185405403Y-96614936D01*
X185170001Y-96594341D01*
X185169999Y-96594341D01*
X184934596Y-96614936D01*
X184934586Y-96614938D01*
X184706344Y-96676094D01*
X184706335Y-96676098D01*
X184492171Y-96775964D01*
X184492169Y-96775965D01*
X184298597Y-96911505D01*
X184131505Y-97078597D01*
X184001575Y-97264158D01*
X183946998Y-97307783D01*
X183877500Y-97314977D01*
X183815145Y-97283454D01*
X183798425Y-97264158D01*
X183668494Y-97078597D01*
X183501402Y-96911506D01*
X183501395Y-96911501D01*
X183493177Y-96905747D01*
X183424518Y-96857671D01*
X183307831Y-96775965D01*
X183307829Y-96775964D01*
X183265595Y-96756270D01*
X183213156Y-96710097D01*
X183194000Y-96643888D01*
X183194000Y-82959999D01*
X186644341Y-82959999D01*
X186644341Y-82960000D01*
X186664936Y-83195403D01*
X186664938Y-83195413D01*
X186726094Y-83423655D01*
X186726096Y-83423659D01*
X186726097Y-83423663D01*
X186782327Y-83544248D01*
X186825965Y-83637830D01*
X186825967Y-83637834D01*
X186961501Y-83831395D01*
X186961506Y-83831402D01*
X187128597Y-83998493D01*
X187128603Y-83998498D01*
X187314158Y-84128425D01*
X187357783Y-84183002D01*
X187364977Y-84252500D01*
X187333454Y-84314855D01*
X187314158Y-84331575D01*
X187128597Y-84461505D01*
X186961505Y-84628597D01*
X186825965Y-84822169D01*
X186825964Y-84822171D01*
X186726098Y-85036335D01*
X186726094Y-85036344D01*
X186664938Y-85264586D01*
X186664936Y-85264596D01*
X186644341Y-85499999D01*
X186644341Y-85500000D01*
X186664936Y-85735403D01*
X186664938Y-85735413D01*
X186726094Y-85963655D01*
X186726096Y-85963659D01*
X186726097Y-85963663D01*
X186781167Y-86081760D01*
X186825965Y-86177830D01*
X186825967Y-86177834D01*
X186934281Y-86332521D01*
X186961505Y-86371401D01*
X187128599Y-86538495D01*
X187171448Y-86568498D01*
X187322165Y-86674032D01*
X187322167Y-86674033D01*
X187322170Y-86674035D01*
X187536337Y-86773903D01*
X187536343Y-86773904D01*
X187536344Y-86773905D01*
X187591285Y-86788626D01*
X187764592Y-86835063D01*
X187952918Y-86851539D01*
X187999999Y-86855659D01*
X188000000Y-86855659D01*
X188000001Y-86855659D01*
X188039234Y-86852226D01*
X188235408Y-86835063D01*
X188463663Y-86773903D01*
X188677830Y-86674035D01*
X188871401Y-86538495D01*
X189038495Y-86371401D01*
X189174035Y-86177830D01*
X189273903Y-85963663D01*
X189335063Y-85735408D01*
X189355659Y-85500000D01*
X189335063Y-85264592D01*
X189273903Y-85036337D01*
X189174035Y-84822171D01*
X189143906Y-84779141D01*
X189038494Y-84628597D01*
X188871402Y-84461506D01*
X188871396Y-84461501D01*
X188685842Y-84331575D01*
X188642217Y-84276998D01*
X188635023Y-84207500D01*
X188666546Y-84145145D01*
X188685842Y-84128425D01*
X188828552Y-84028498D01*
X188871401Y-83998495D01*
X189038495Y-83831401D01*
X189174035Y-83637830D01*
X189273903Y-83423663D01*
X189335063Y-83195408D01*
X189355659Y-82960000D01*
X189335063Y-82724592D01*
X189273903Y-82496337D01*
X189174035Y-82282171D01*
X189143905Y-82239141D01*
X189038496Y-82088600D01*
X188981401Y-82031505D01*
X188916567Y-81966671D01*
X188883084Y-81905351D01*
X188888068Y-81835659D01*
X188929939Y-81779725D01*
X188960915Y-81762810D01*
X189092331Y-81713796D01*
X189207546Y-81627546D01*
X189293796Y-81512331D01*
X189344091Y-81377483D01*
X189350500Y-81317873D01*
X189350499Y-79522128D01*
X189344091Y-79462517D01*
X189341660Y-79456000D01*
X189293797Y-79327671D01*
X189293793Y-79327664D01*
X189207547Y-79212455D01*
X189207544Y-79212452D01*
X189092335Y-79126206D01*
X189092328Y-79126202D01*
X188957482Y-79075908D01*
X188957483Y-79075908D01*
X188897883Y-79069501D01*
X188897881Y-79069500D01*
X188897873Y-79069500D01*
X188897864Y-79069500D01*
X187102129Y-79069500D01*
X187102123Y-79069501D01*
X187042516Y-79075908D01*
X186907671Y-79126202D01*
X186907664Y-79126206D01*
X186792455Y-79212452D01*
X186792452Y-79212455D01*
X186706206Y-79327664D01*
X186706202Y-79327671D01*
X186655908Y-79462517D01*
X186652477Y-79494435D01*
X186649501Y-79522123D01*
X186649500Y-79522135D01*
X186649501Y-81317870D01*
X186655908Y-81377483D01*
X186706202Y-81512328D01*
X186706206Y-81512335D01*
X186792452Y-81627544D01*
X186792455Y-81627547D01*
X186907664Y-81713793D01*
X186907671Y-81713797D01*
X187039081Y-81762810D01*
X187095015Y-81804681D01*
X187119432Y-81870145D01*
X187104580Y-81938418D01*
X187083430Y-81966673D01*
X186961503Y-82088600D01*
X186825965Y-82282169D01*
X186825964Y-82282171D01*
X186726098Y-82496335D01*
X186726094Y-82496344D01*
X186664938Y-82724586D01*
X186664936Y-82724596D01*
X186644341Y-82959999D01*
X183194000Y-82959999D01*
X183194000Y-72862350D01*
X183194000Y-72862348D01*
X183155565Y-72718904D01*
X183081313Y-72590296D01*
X182976304Y-72485287D01*
X182976303Y-72485286D01*
X182971973Y-72480956D01*
X182971962Y-72480946D01*
X177592519Y-67101503D01*
X177559034Y-67040180D01*
X177556200Y-67013822D01*
X177556200Y-64550978D01*
X177575885Y-64483939D01*
X177628689Y-64438184D01*
X177697847Y-64428240D01*
X177761403Y-64457265D01*
X177767881Y-64463297D01*
X187639662Y-74335078D01*
X187673147Y-74396401D01*
X187668163Y-74466093D01*
X187639663Y-74510440D01*
X187521503Y-74628600D01*
X187385965Y-74822169D01*
X187385964Y-74822171D01*
X187286098Y-75036335D01*
X187286094Y-75036344D01*
X187224938Y-75264586D01*
X187224936Y-75264596D01*
X187204341Y-75499999D01*
X187204341Y-75500000D01*
X187224936Y-75735403D01*
X187224938Y-75735413D01*
X187286094Y-75963655D01*
X187286096Y-75963659D01*
X187286097Y-75963663D01*
X187346549Y-76093302D01*
X187385965Y-76177830D01*
X187385967Y-76177834D01*
X187485512Y-76319998D01*
X187521505Y-76371401D01*
X187688599Y-76538495D01*
X187785384Y-76606265D01*
X187882165Y-76674032D01*
X187882167Y-76674033D01*
X187882170Y-76674035D01*
X188096337Y-76773903D01*
X188324592Y-76835063D01*
X188501034Y-76850500D01*
X188559999Y-76855659D01*
X188560000Y-76855659D01*
X188560001Y-76855659D01*
X188618966Y-76850500D01*
X188795408Y-76835063D01*
X189023663Y-76773903D01*
X189237830Y-76674035D01*
X189431401Y-76538495D01*
X189553329Y-76416566D01*
X189614648Y-76383084D01*
X189684340Y-76388068D01*
X189740274Y-76429939D01*
X189757189Y-76460917D01*
X189806202Y-76592328D01*
X189806206Y-76592335D01*
X189892452Y-76707544D01*
X189892455Y-76707547D01*
X190007664Y-76793793D01*
X190007671Y-76793797D01*
X190052618Y-76810561D01*
X190142517Y-76844091D01*
X190202127Y-76850500D01*
X190412000Y-76850499D01*
X190479039Y-76870183D01*
X190524794Y-76922987D01*
X190536000Y-76974499D01*
X190536000Y-78683547D01*
X190536000Y-78832053D01*
X190560583Y-78923800D01*
X190568181Y-78952156D01*
X190574436Y-78975499D01*
X190617371Y-79049864D01*
X190633844Y-79117764D01*
X190610992Y-79183791D01*
X190584297Y-79211129D01*
X190542454Y-79242453D01*
X190542452Y-79242455D01*
X190456206Y-79357664D01*
X190456202Y-79357671D01*
X190405909Y-79492516D01*
X190405908Y-79492516D01*
X190399501Y-79552116D01*
X190399501Y-79552123D01*
X190399500Y-79552135D01*
X190399500Y-81347870D01*
X190399501Y-81347876D01*
X190405908Y-81407483D01*
X190456202Y-81542328D01*
X190456206Y-81542335D01*
X190542452Y-81657544D01*
X190542455Y-81657547D01*
X190657664Y-81743793D01*
X190657671Y-81743797D01*
X190789081Y-81792810D01*
X190845015Y-81834681D01*
X190869432Y-81900145D01*
X190854580Y-81968418D01*
X190833430Y-81996673D01*
X190711503Y-82118600D01*
X190575965Y-82312169D01*
X190575964Y-82312171D01*
X190476098Y-82526335D01*
X190476094Y-82526344D01*
X190414938Y-82754586D01*
X190414936Y-82754596D01*
X190394341Y-82989999D01*
X190394341Y-82990000D01*
X190414936Y-83225403D01*
X190414938Y-83225413D01*
X190476094Y-83453655D01*
X190476096Y-83453659D01*
X190476097Y-83453663D01*
X190518338Y-83544248D01*
X190575965Y-83667830D01*
X190575967Y-83667834D01*
X190631984Y-83747834D01*
X190690499Y-83831402D01*
X190711501Y-83861395D01*
X190711506Y-83861402D01*
X190878597Y-84028493D01*
X190878603Y-84028498D01*
X191064158Y-84158425D01*
X191107783Y-84213002D01*
X191114977Y-84282500D01*
X191083454Y-84344855D01*
X191064158Y-84361575D01*
X190878597Y-84491505D01*
X190711505Y-84658597D01*
X190575965Y-84852169D01*
X190575964Y-84852171D01*
X190476098Y-85066335D01*
X190476094Y-85066344D01*
X190414938Y-85294586D01*
X190414936Y-85294596D01*
X190394341Y-85529999D01*
X190394341Y-85530000D01*
X190414936Y-85765403D01*
X190414938Y-85765413D01*
X190476094Y-85993655D01*
X190476096Y-85993659D01*
X190476097Y-85993663D01*
X190561976Y-86177830D01*
X190575965Y-86207830D01*
X190575967Y-86207834D01*
X190631984Y-86287834D01*
X190711505Y-86401401D01*
X190878599Y-86568495D01*
X190921448Y-86598498D01*
X191072165Y-86704032D01*
X191072167Y-86704033D01*
X191072170Y-86704035D01*
X191286337Y-86803903D01*
X191514592Y-86865063D01*
X191676964Y-86879269D01*
X191749999Y-86885659D01*
X191750000Y-86885659D01*
X191750001Y-86885659D01*
X191823036Y-86879269D01*
X191985408Y-86865063D01*
X192213663Y-86803903D01*
X192427830Y-86704035D01*
X192621401Y-86568495D01*
X192788495Y-86401401D01*
X192924035Y-86207830D01*
X193023903Y-85993663D01*
X193085063Y-85765408D01*
X193105659Y-85530000D01*
X193085063Y-85294592D01*
X193025037Y-85070568D01*
X193023905Y-85066344D01*
X193023904Y-85066343D01*
X193023903Y-85066337D01*
X192924035Y-84852171D01*
X192914594Y-84838687D01*
X192788494Y-84658597D01*
X192621402Y-84491506D01*
X192621396Y-84491501D01*
X192435842Y-84361575D01*
X192392217Y-84306998D01*
X192385023Y-84237500D01*
X192416546Y-84175145D01*
X192435842Y-84158425D01*
X192578552Y-84058498D01*
X192621401Y-84028495D01*
X192788495Y-83861401D01*
X192924035Y-83667830D01*
X193023903Y-83453663D01*
X193085063Y-83225408D01*
X193105659Y-82990000D01*
X193085063Y-82754592D01*
X193025037Y-82530568D01*
X193023905Y-82526344D01*
X193023904Y-82526343D01*
X193023903Y-82526337D01*
X192924035Y-82312171D01*
X192903027Y-82282169D01*
X192788496Y-82118600D01*
X192746569Y-82076673D01*
X192666567Y-81996671D01*
X192633084Y-81935351D01*
X192638068Y-81865659D01*
X192679939Y-81809725D01*
X192710915Y-81792810D01*
X192842331Y-81743796D01*
X192957546Y-81657546D01*
X193043796Y-81542331D01*
X193094091Y-81407483D01*
X193100500Y-81347873D01*
X193100499Y-79552128D01*
X193094091Y-79492517D01*
X193094090Y-79492515D01*
X193043797Y-79357671D01*
X193043793Y-79357664D01*
X192957547Y-79242455D01*
X192957544Y-79242452D01*
X192842335Y-79156206D01*
X192842328Y-79156202D01*
X192707482Y-79105908D01*
X192707483Y-79105908D01*
X192647883Y-79099501D01*
X192647881Y-79099500D01*
X192647873Y-79099500D01*
X192647865Y-79099500D01*
X192290679Y-79099500D01*
X192223640Y-79079815D01*
X192202997Y-79063181D01*
X192201314Y-79061498D01*
X192201313Y-79061496D01*
X192096304Y-78956487D01*
X192096303Y-78956486D01*
X192091973Y-78952156D01*
X192091962Y-78952146D01*
X191700319Y-78560503D01*
X191666834Y-78499180D01*
X191664000Y-78472822D01*
X191664000Y-76974499D01*
X191683685Y-76907460D01*
X191736489Y-76861705D01*
X191788000Y-76850499D01*
X191997871Y-76850499D01*
X191997872Y-76850499D01*
X192057483Y-76844091D01*
X192192331Y-76793796D01*
X192307546Y-76707546D01*
X192393796Y-76592331D01*
X192444091Y-76457483D01*
X192450500Y-76397873D01*
X192450499Y-74602128D01*
X192444091Y-74542517D01*
X192442810Y-74539083D01*
X192393797Y-74407671D01*
X192393793Y-74407664D01*
X192307547Y-74292455D01*
X192307544Y-74292452D01*
X192192335Y-74206206D01*
X192192328Y-74206202D01*
X192057482Y-74155908D01*
X192057483Y-74155908D01*
X191997883Y-74149501D01*
X191997881Y-74149500D01*
X191997873Y-74149500D01*
X191997865Y-74149500D01*
X191640679Y-74149500D01*
X191573640Y-74129815D01*
X191552997Y-74113181D01*
X191551314Y-74111498D01*
X191551313Y-74111496D01*
X191446304Y-74006487D01*
X191446303Y-74006486D01*
X191441973Y-74002156D01*
X191441962Y-74002146D01*
X189287319Y-71847503D01*
X189253834Y-71786180D01*
X189251000Y-71759822D01*
X189251000Y-63142995D01*
X189270685Y-63075956D01*
X189323489Y-63030201D01*
X189392647Y-63020257D01*
X189397769Y-63021104D01*
X189474780Y-63035500D01*
X189474781Y-63035500D01*
X189685218Y-63035500D01*
X189685220Y-63035500D01*
X189892076Y-62996832D01*
X190088304Y-62920813D01*
X190267223Y-62810031D01*
X190356264Y-62728859D01*
X190419065Y-62698244D01*
X190488453Y-62706441D01*
X190542393Y-62750851D01*
X190563761Y-62817373D01*
X190563800Y-62820498D01*
X190563800Y-65589852D01*
X190602235Y-65733296D01*
X190676487Y-65861904D01*
X190676489Y-65861906D01*
X190788561Y-65973978D01*
X190788567Y-65973983D01*
X199129662Y-74315078D01*
X199163147Y-74376401D01*
X199158163Y-74446093D01*
X199129663Y-74490440D01*
X199011503Y-74608600D01*
X198875965Y-74802169D01*
X198875964Y-74802171D01*
X198776098Y-75016335D01*
X198776094Y-75016344D01*
X198714938Y-75244586D01*
X198714936Y-75244596D01*
X198694341Y-75479999D01*
X198694341Y-75480000D01*
X198714936Y-75715403D01*
X198714938Y-75715413D01*
X198776094Y-75943655D01*
X198776096Y-75943659D01*
X198776097Y-75943663D01*
X198785424Y-75963664D01*
X198875965Y-76157830D01*
X198875967Y-76157834D01*
X198984281Y-76312521D01*
X199011505Y-76351401D01*
X199178599Y-76518495D01*
X199275384Y-76586265D01*
X199372165Y-76654032D01*
X199372168Y-76654034D01*
X199372170Y-76654035D01*
X199414403Y-76673728D01*
X199466843Y-76719898D01*
X199486000Y-76786110D01*
X199486000Y-78552821D01*
X199466315Y-78619860D01*
X199449681Y-78640502D01*
X199103695Y-78986488D01*
X198996999Y-79093182D01*
X198935676Y-79126666D01*
X198909319Y-79129500D01*
X198552130Y-79129500D01*
X198552123Y-79129501D01*
X198492516Y-79135908D01*
X198357671Y-79186202D01*
X198357664Y-79186206D01*
X198242455Y-79272452D01*
X198242452Y-79272455D01*
X198156206Y-79387664D01*
X198156202Y-79387671D01*
X198105908Y-79522517D01*
X198100533Y-79572516D01*
X198099501Y-79582123D01*
X198099500Y-79582135D01*
X198099500Y-81377870D01*
X198099501Y-81377876D01*
X198105908Y-81437483D01*
X198156202Y-81572328D01*
X198156206Y-81572335D01*
X198242452Y-81687544D01*
X198242455Y-81687547D01*
X198357664Y-81773793D01*
X198357671Y-81773797D01*
X198489081Y-81822810D01*
X198545015Y-81864681D01*
X198569432Y-81930145D01*
X198554580Y-81998418D01*
X198533430Y-82026673D01*
X198411503Y-82148600D01*
X198275965Y-82342169D01*
X198275964Y-82342171D01*
X198176098Y-82556335D01*
X198176094Y-82556344D01*
X198114938Y-82784586D01*
X198114936Y-82784596D01*
X198094341Y-83019999D01*
X198094341Y-83020000D01*
X198114936Y-83255403D01*
X198114938Y-83255413D01*
X198176094Y-83483655D01*
X198176096Y-83483659D01*
X198176097Y-83483663D01*
X198247988Y-83637834D01*
X198275965Y-83697830D01*
X198275967Y-83697834D01*
X198369493Y-83831402D01*
X198390499Y-83861402D01*
X198411501Y-83891395D01*
X198411506Y-83891402D01*
X198578597Y-84058493D01*
X198578603Y-84058498D01*
X198764158Y-84188425D01*
X198807783Y-84243002D01*
X198814977Y-84312500D01*
X198783454Y-84374855D01*
X198764158Y-84391575D01*
X198578597Y-84521505D01*
X198411505Y-84688597D01*
X198275965Y-84882169D01*
X198275964Y-84882171D01*
X198176098Y-85096335D01*
X198176094Y-85096344D01*
X198114938Y-85324586D01*
X198114936Y-85324596D01*
X198094341Y-85559999D01*
X198094341Y-85560000D01*
X198114936Y-85795403D01*
X198114938Y-85795413D01*
X198176094Y-86023655D01*
X198176096Y-86023659D01*
X198176097Y-86023663D01*
X198247988Y-86177834D01*
X198275965Y-86237830D01*
X198275967Y-86237834D01*
X198369493Y-86371402D01*
X198411505Y-86431401D01*
X198578599Y-86598495D01*
X198650011Y-86648498D01*
X198772165Y-86734032D01*
X198772167Y-86734033D01*
X198772170Y-86734035D01*
X198986337Y-86833903D01*
X198986343Y-86833904D01*
X198986344Y-86833905D01*
X199041285Y-86848626D01*
X199214592Y-86895063D01*
X199402918Y-86911539D01*
X199449999Y-86915659D01*
X199450000Y-86915659D01*
X199450001Y-86915659D01*
X199489234Y-86912226D01*
X199685408Y-86895063D01*
X199913663Y-86833903D01*
X200127830Y-86734035D01*
X200321401Y-86598495D01*
X200488495Y-86431401D01*
X200624035Y-86237830D01*
X200723903Y-86023663D01*
X200785063Y-85795408D01*
X200805659Y-85560000D01*
X200785063Y-85324592D01*
X200723903Y-85096337D01*
X200624035Y-84882171D01*
X200603028Y-84852169D01*
X200488494Y-84688597D01*
X200321402Y-84521506D01*
X200321396Y-84521501D01*
X200135842Y-84391575D01*
X200092217Y-84336998D01*
X200085023Y-84267500D01*
X200116546Y-84205145D01*
X200135842Y-84188425D01*
X200213519Y-84134035D01*
X200321401Y-84058495D01*
X200488495Y-83891401D01*
X200624035Y-83697830D01*
X200723903Y-83483663D01*
X200785063Y-83255408D01*
X200805659Y-83020000D01*
X200785063Y-82784592D01*
X200723903Y-82556337D01*
X200624035Y-82342171D01*
X200603027Y-82312169D01*
X200488496Y-82148600D01*
X200428495Y-82088599D01*
X200366567Y-82026671D01*
X200333084Y-81965351D01*
X200338068Y-81895659D01*
X200379939Y-81839725D01*
X200410915Y-81822810D01*
X200542331Y-81773796D01*
X200657546Y-81687546D01*
X200743796Y-81572331D01*
X200794091Y-81437483D01*
X200800500Y-81377873D01*
X200800499Y-79582128D01*
X200794091Y-79522517D01*
X200793946Y-79522129D01*
X200743797Y-79387671D01*
X200743793Y-79387664D01*
X200688912Y-79314353D01*
X200657546Y-79272454D01*
X200600948Y-79230084D01*
X200559078Y-79174152D01*
X200554094Y-79104460D01*
X200567874Y-79068817D01*
X200571128Y-79063181D01*
X200575565Y-79055496D01*
X200604183Y-78948691D01*
X200614000Y-78912053D01*
X200614000Y-78763548D01*
X200614000Y-76786110D01*
X200633685Y-76719071D01*
X200685596Y-76673728D01*
X200727830Y-76654035D01*
X200921401Y-76518495D01*
X201043329Y-76396566D01*
X201104648Y-76363084D01*
X201174340Y-76368068D01*
X201230274Y-76409939D01*
X201247189Y-76440917D01*
X201296202Y-76572328D01*
X201296206Y-76572335D01*
X201382452Y-76687544D01*
X201382455Y-76687547D01*
X201497664Y-76773793D01*
X201497671Y-76773797D01*
X201542618Y-76790561D01*
X201632517Y-76824091D01*
X201692127Y-76830500D01*
X201902000Y-76830499D01*
X201969039Y-76850183D01*
X202014794Y-76902987D01*
X202026000Y-76954499D01*
X202026000Y-78902053D01*
X202042126Y-78962236D01*
X202064434Y-79045495D01*
X202114420Y-79132073D01*
X202130893Y-79199973D01*
X202108040Y-79266000D01*
X202081346Y-79293338D01*
X202042454Y-79322453D01*
X202042452Y-79322455D01*
X201956206Y-79437664D01*
X201956202Y-79437671D01*
X201905908Y-79572517D01*
X201899501Y-79632116D01*
X201899501Y-79632123D01*
X201899500Y-79632135D01*
X201899500Y-81427870D01*
X201899501Y-81427876D01*
X201905908Y-81487483D01*
X201956202Y-81622328D01*
X201956206Y-81622335D01*
X202042452Y-81737544D01*
X202042455Y-81737547D01*
X202157664Y-81823793D01*
X202157671Y-81823797D01*
X202289081Y-81872810D01*
X202345015Y-81914681D01*
X202369432Y-81980145D01*
X202354580Y-82048418D01*
X202333430Y-82076673D01*
X202211503Y-82198600D01*
X202075965Y-82392169D01*
X202075964Y-82392171D01*
X201976098Y-82606335D01*
X201976094Y-82606344D01*
X201914938Y-82834586D01*
X201914936Y-82834596D01*
X201894341Y-83069999D01*
X201894341Y-83070000D01*
X201914936Y-83305403D01*
X201914938Y-83305413D01*
X201976094Y-83533655D01*
X201976096Y-83533659D01*
X201976097Y-83533663D01*
X202059864Y-83713302D01*
X202075965Y-83747830D01*
X202075967Y-83747834D01*
X202211501Y-83941395D01*
X202211506Y-83941402D01*
X202378597Y-84108493D01*
X202378603Y-84108498D01*
X202564158Y-84238425D01*
X202607783Y-84293002D01*
X202614977Y-84362500D01*
X202583454Y-84424855D01*
X202564158Y-84441575D01*
X202378597Y-84571505D01*
X202211505Y-84738597D01*
X202075965Y-84932169D01*
X202075964Y-84932171D01*
X201976098Y-85146335D01*
X201976094Y-85146344D01*
X201914938Y-85374586D01*
X201914936Y-85374596D01*
X201894341Y-85609999D01*
X201894341Y-85610000D01*
X201914936Y-85845403D01*
X201914938Y-85845413D01*
X201976094Y-86073655D01*
X201976096Y-86073659D01*
X201976097Y-86073663D01*
X202056670Y-86246452D01*
X202075965Y-86287830D01*
X202075967Y-86287834D01*
X202155484Y-86401395D01*
X202211505Y-86481401D01*
X202378599Y-86648495D01*
X202415074Y-86674035D01*
X202572165Y-86784032D01*
X202572167Y-86784033D01*
X202572170Y-86784035D01*
X202786337Y-86883903D01*
X202786343Y-86883904D01*
X202786344Y-86883905D01*
X202827980Y-86895061D01*
X203014592Y-86945063D01*
X203202918Y-86961539D01*
X203249999Y-86965659D01*
X203250000Y-86965659D01*
X203250001Y-86965659D01*
X203289234Y-86962226D01*
X203485408Y-86945063D01*
X203713663Y-86883903D01*
X203927830Y-86784035D01*
X204121401Y-86648495D01*
X204288495Y-86481401D01*
X204424035Y-86287830D01*
X204523903Y-86073663D01*
X204585063Y-85845408D01*
X204605659Y-85610000D01*
X204585063Y-85374592D01*
X204523903Y-85146337D01*
X204424035Y-84932171D01*
X204398582Y-84895819D01*
X204288494Y-84738597D01*
X204121402Y-84571506D01*
X204121396Y-84571501D01*
X203935842Y-84441575D01*
X203892217Y-84386998D01*
X203885023Y-84317500D01*
X203916546Y-84255145D01*
X203935842Y-84238425D01*
X204007249Y-84188425D01*
X204121401Y-84108495D01*
X204288495Y-83941401D01*
X204424035Y-83747830D01*
X204523903Y-83533663D01*
X204585063Y-83305408D01*
X204605659Y-83070000D01*
X204585063Y-82834592D01*
X204523903Y-82606337D01*
X204424035Y-82392171D01*
X204410997Y-82373551D01*
X204288496Y-82198600D01*
X204238495Y-82148599D01*
X204166567Y-82076671D01*
X204133084Y-82015351D01*
X204138068Y-81945659D01*
X204179939Y-81889725D01*
X204210915Y-81872810D01*
X204342331Y-81823796D01*
X204457546Y-81737546D01*
X204543796Y-81622331D01*
X204594091Y-81487483D01*
X204600500Y-81427873D01*
X204600499Y-79632128D01*
X204594091Y-79572517D01*
X204592663Y-79568689D01*
X204543797Y-79437671D01*
X204543793Y-79437664D01*
X204457547Y-79322455D01*
X204457544Y-79322452D01*
X204342335Y-79236206D01*
X204342328Y-79236202D01*
X204207482Y-79185908D01*
X204207483Y-79185908D01*
X204147883Y-79179501D01*
X204147881Y-79179500D01*
X204147873Y-79179500D01*
X204147865Y-79179500D01*
X203790679Y-79179500D01*
X203723640Y-79159815D01*
X203702997Y-79143181D01*
X203701314Y-79141498D01*
X203701313Y-79141496D01*
X203596304Y-79036487D01*
X203596303Y-79036486D01*
X203591973Y-79032156D01*
X203591962Y-79032146D01*
X203190319Y-78630503D01*
X203156834Y-78569180D01*
X203154000Y-78542822D01*
X203154000Y-76954499D01*
X203173685Y-76887460D01*
X203226489Y-76841705D01*
X203278000Y-76830499D01*
X203487871Y-76830499D01*
X203487872Y-76830499D01*
X203547483Y-76824091D01*
X203682331Y-76773796D01*
X203797546Y-76687546D01*
X203883796Y-76572331D01*
X203934091Y-76437483D01*
X203940500Y-76377873D01*
X203940499Y-74582128D01*
X203934091Y-74522517D01*
X203932810Y-74519083D01*
X203883797Y-74387671D01*
X203883793Y-74387664D01*
X203797547Y-74272455D01*
X203797544Y-74272452D01*
X203682335Y-74186206D01*
X203682328Y-74186202D01*
X203547482Y-74135908D01*
X203547483Y-74135908D01*
X203487883Y-74129501D01*
X203487881Y-74129500D01*
X203487873Y-74129500D01*
X203487864Y-74129500D01*
X201692129Y-74129500D01*
X201692123Y-74129501D01*
X201632516Y-74135908D01*
X201497671Y-74186202D01*
X201497664Y-74186206D01*
X201382455Y-74272452D01*
X201382452Y-74272455D01*
X201296206Y-74387664D01*
X201296203Y-74387669D01*
X201247189Y-74519083D01*
X201205317Y-74575016D01*
X201139853Y-74599433D01*
X201071580Y-74584581D01*
X201043326Y-74563430D01*
X200921402Y-74441506D01*
X200921395Y-74441501D01*
X200727834Y-74305967D01*
X200727831Y-74305965D01*
X200727830Y-74305965D01*
X200658211Y-74273501D01*
X200622737Y-74256959D01*
X200570298Y-74210786D01*
X200567755Y-74206577D01*
X200567538Y-74206202D01*
X200543714Y-74164937D01*
X200543714Y-74164936D01*
X200501317Y-74091502D01*
X200501314Y-74091498D01*
X200501313Y-74091496D01*
X200396304Y-73986487D01*
X200396303Y-73986486D01*
X200391973Y-73982156D01*
X200391962Y-73982146D01*
X191728119Y-65318303D01*
X191694634Y-65256980D01*
X191691800Y-65230622D01*
X191691800Y-61899999D01*
X196059635Y-61899999D01*
X196059635Y-61900000D01*
X196079051Y-62109537D01*
X196079051Y-62109539D01*
X196079052Y-62109542D01*
X196136641Y-62311947D01*
X196136642Y-62311950D01*
X196216200Y-62471723D01*
X196230442Y-62500325D01*
X196329255Y-62631175D01*
X196357261Y-62668260D01*
X196512776Y-62810030D01*
X196512778Y-62810032D01*
X196691692Y-62920811D01*
X196691698Y-62920814D01*
X196695524Y-62922296D01*
X196887924Y-62996832D01*
X197094780Y-63035500D01*
X197094782Y-63035500D01*
X197305218Y-63035500D01*
X197305220Y-63035500D01*
X197512076Y-62996832D01*
X197708304Y-62920813D01*
X197887223Y-62810031D01*
X198042740Y-62668259D01*
X198169558Y-62500325D01*
X198263359Y-62311947D01*
X198320948Y-62109542D01*
X198331099Y-61999999D01*
X201579635Y-61999999D01*
X201579635Y-62000000D01*
X201599051Y-62209537D01*
X201599051Y-62209539D01*
X201599052Y-62209542D01*
X201656641Y-62411947D01*
X201656642Y-62411950D01*
X201750442Y-62600325D01*
X201871046Y-62760031D01*
X201877261Y-62768260D01*
X202032776Y-62910030D01*
X202032778Y-62910032D01*
X202211692Y-63020811D01*
X202211698Y-63020814D01*
X202235929Y-63030201D01*
X202407924Y-63096832D01*
X202614780Y-63135500D01*
X202614782Y-63135500D01*
X202825218Y-63135500D01*
X202825220Y-63135500D01*
X203032076Y-63096832D01*
X203228304Y-63020813D01*
X203407223Y-62910031D01*
X203562740Y-62768259D01*
X203689558Y-62600325D01*
X203783359Y-62411947D01*
X203840948Y-62209542D01*
X203860365Y-62000000D01*
X203860365Y-61999999D01*
X209199635Y-61999999D01*
X209199635Y-62000000D01*
X209219051Y-62209537D01*
X209219051Y-62209539D01*
X209219052Y-62209542D01*
X209276641Y-62411947D01*
X209276642Y-62411950D01*
X209370442Y-62600325D01*
X209491046Y-62760031D01*
X209497261Y-62768260D01*
X209652776Y-62910030D01*
X209652778Y-62910032D01*
X209831692Y-63020811D01*
X209831698Y-63020814D01*
X209855929Y-63030201D01*
X210027924Y-63096832D01*
X210234780Y-63135500D01*
X210234782Y-63135500D01*
X210445218Y-63135500D01*
X210445220Y-63135500D01*
X210652076Y-63096832D01*
X210848304Y-63020813D01*
X211027223Y-62910031D01*
X211182740Y-62768259D01*
X211309558Y-62600325D01*
X211403359Y-62411947D01*
X211460948Y-62209542D01*
X211480365Y-62000000D01*
X211460948Y-61790458D01*
X211403359Y-61588053D01*
X211309558Y-61399675D01*
X211182740Y-61231741D01*
X211027223Y-61089969D01*
X211027221Y-61089967D01*
X210848307Y-60979188D01*
X210848301Y-60979185D01*
X210693648Y-60919273D01*
X210652076Y-60903168D01*
X210445220Y-60864500D01*
X210234780Y-60864500D01*
X210027924Y-60903168D01*
X210027921Y-60903168D01*
X210027921Y-60903169D01*
X209831698Y-60979185D01*
X209831692Y-60979188D01*
X209652778Y-61089967D01*
X209652776Y-61089969D01*
X209497261Y-61231739D01*
X209370442Y-61399674D01*
X209276642Y-61588049D01*
X209219051Y-61790462D01*
X209199635Y-61999999D01*
X203860365Y-61999999D01*
X203840948Y-61790458D01*
X203783359Y-61588053D01*
X203689558Y-61399675D01*
X203562740Y-61231741D01*
X203407223Y-61089969D01*
X203407221Y-61089967D01*
X203228307Y-60979188D01*
X203228301Y-60979185D01*
X203073648Y-60919273D01*
X203032076Y-60903168D01*
X202825220Y-60864500D01*
X202614780Y-60864500D01*
X202407924Y-60903168D01*
X202407921Y-60903168D01*
X202407921Y-60903169D01*
X202211698Y-60979185D01*
X202211692Y-60979188D01*
X202032778Y-61089967D01*
X202032776Y-61089969D01*
X201877261Y-61231739D01*
X201750442Y-61399674D01*
X201656642Y-61588049D01*
X201599051Y-61790462D01*
X201579635Y-61999999D01*
X198331099Y-61999999D01*
X198340365Y-61900000D01*
X198320948Y-61690458D01*
X198263359Y-61488053D01*
X198169558Y-61299675D01*
X198042740Y-61131741D01*
X197987892Y-61081741D01*
X197887223Y-60989969D01*
X197887221Y-60989967D01*
X197708307Y-60879188D01*
X197708301Y-60879185D01*
X197528999Y-60809724D01*
X197512076Y-60803168D01*
X197305220Y-60764500D01*
X197094780Y-60764500D01*
X196887924Y-60803168D01*
X196887921Y-60803168D01*
X196887921Y-60803169D01*
X196691698Y-60879185D01*
X196691692Y-60879188D01*
X196512778Y-60989967D01*
X196512776Y-60989969D01*
X196357261Y-61131739D01*
X196230442Y-61299674D01*
X196136642Y-61488049D01*
X196079051Y-61690462D01*
X196059635Y-61899999D01*
X191691800Y-61899999D01*
X191691800Y-59359999D01*
X196059635Y-59359999D01*
X196059635Y-59360000D01*
X196079051Y-59569537D01*
X196079051Y-59569539D01*
X196079052Y-59569542D01*
X196123735Y-59726587D01*
X196136642Y-59771950D01*
X196191401Y-59881920D01*
X196230442Y-59960325D01*
X196338675Y-60103649D01*
X196357261Y-60128260D01*
X196512776Y-60270030D01*
X196512778Y-60270032D01*
X196691692Y-60380811D01*
X196691698Y-60380814D01*
X196733268Y-60396918D01*
X196887924Y-60456832D01*
X197094780Y-60495500D01*
X197094782Y-60495500D01*
X197305218Y-60495500D01*
X197305220Y-60495500D01*
X197512076Y-60456832D01*
X197708304Y-60380813D01*
X197887223Y-60270031D01*
X198042740Y-60128259D01*
X198169558Y-59960325D01*
X198263359Y-59771947D01*
X198320948Y-59569542D01*
X198331099Y-59459999D01*
X201579635Y-59459999D01*
X201579635Y-59460000D01*
X201599051Y-59669537D01*
X201599051Y-59669539D01*
X201599052Y-59669542D01*
X201645160Y-59831596D01*
X201656642Y-59871950D01*
X201700587Y-59960203D01*
X201750442Y-60060325D01*
X201820996Y-60153754D01*
X201877261Y-60228260D01*
X202032776Y-60370030D01*
X202032778Y-60370032D01*
X202211692Y-60480811D01*
X202211698Y-60480814D01*
X202234690Y-60489721D01*
X202407924Y-60556832D01*
X202614780Y-60595500D01*
X202614782Y-60595500D01*
X202825218Y-60595500D01*
X202825220Y-60595500D01*
X203032076Y-60556832D01*
X203228304Y-60480813D01*
X203407223Y-60370031D01*
X203562740Y-60228259D01*
X203689558Y-60060325D01*
X203783359Y-59871947D01*
X203840948Y-59669542D01*
X203860365Y-59460000D01*
X203860365Y-59459999D01*
X209199635Y-59459999D01*
X209199635Y-59460000D01*
X209219051Y-59669537D01*
X209219051Y-59669539D01*
X209219052Y-59669542D01*
X209265160Y-59831596D01*
X209276642Y-59871950D01*
X209320587Y-59960203D01*
X209370442Y-60060325D01*
X209440996Y-60153754D01*
X209497261Y-60228260D01*
X209652776Y-60370030D01*
X209652778Y-60370032D01*
X209831692Y-60480811D01*
X209831698Y-60480814D01*
X209854690Y-60489721D01*
X210027924Y-60556832D01*
X210234780Y-60595500D01*
X210234782Y-60595500D01*
X210445218Y-60595500D01*
X210445220Y-60595500D01*
X210652076Y-60556832D01*
X210848304Y-60480813D01*
X211027223Y-60370031D01*
X211182740Y-60228259D01*
X211309558Y-60060325D01*
X211403359Y-59871947D01*
X211460948Y-59669542D01*
X211480365Y-59460000D01*
X211460948Y-59250458D01*
X211403359Y-59048053D01*
X211309558Y-58859675D01*
X211182740Y-58691741D01*
X211152433Y-58664113D01*
X211027223Y-58549969D01*
X211027221Y-58549967D01*
X210848307Y-58439188D01*
X210848301Y-58439185D01*
X210693648Y-58379273D01*
X210652076Y-58363168D01*
X210445220Y-58324500D01*
X210234780Y-58324500D01*
X210027924Y-58363168D01*
X210027921Y-58363168D01*
X210027921Y-58363169D01*
X209831698Y-58439185D01*
X209831692Y-58439188D01*
X209652778Y-58549967D01*
X209652776Y-58549969D01*
X209497261Y-58691739D01*
X209370442Y-58859674D01*
X209276642Y-59048049D01*
X209219051Y-59250462D01*
X209199635Y-59459999D01*
X203860365Y-59459999D01*
X203840948Y-59250458D01*
X203783359Y-59048053D01*
X203689558Y-58859675D01*
X203562740Y-58691741D01*
X203532433Y-58664113D01*
X203407223Y-58549969D01*
X203407221Y-58549967D01*
X203228307Y-58439188D01*
X203228301Y-58439185D01*
X203073648Y-58379273D01*
X203032076Y-58363168D01*
X202825220Y-58324500D01*
X202614780Y-58324500D01*
X202407924Y-58363168D01*
X202407921Y-58363168D01*
X202407921Y-58363169D01*
X202211698Y-58439185D01*
X202211692Y-58439188D01*
X202032778Y-58549967D01*
X202032776Y-58549969D01*
X201877261Y-58691739D01*
X201750442Y-58859674D01*
X201656642Y-59048049D01*
X201599051Y-59250462D01*
X201579635Y-59459999D01*
X198331099Y-59459999D01*
X198340365Y-59360000D01*
X198320948Y-59150458D01*
X198263359Y-58948053D01*
X198169558Y-58759675D01*
X198042740Y-58591741D01*
X197976261Y-58531138D01*
X197887223Y-58449969D01*
X197887221Y-58449967D01*
X197708307Y-58339188D01*
X197708301Y-58339185D01*
X197553648Y-58279273D01*
X197512076Y-58263168D01*
X197305220Y-58224500D01*
X197094780Y-58224500D01*
X196887924Y-58263168D01*
X196887921Y-58263168D01*
X196887921Y-58263169D01*
X196691698Y-58339185D01*
X196691692Y-58339188D01*
X196512778Y-58449967D01*
X196512776Y-58449969D01*
X196357261Y-58591739D01*
X196230442Y-58759674D01*
X196136642Y-58948049D01*
X196079051Y-59150462D01*
X196059635Y-59359999D01*
X191691800Y-59359999D01*
X191691800Y-52520055D01*
X191691801Y-52520042D01*
X191691801Y-52361550D01*
X191691801Y-52361548D01*
X191653365Y-52218104D01*
X191586303Y-52101950D01*
X191579115Y-52089499D01*
X191579110Y-52089493D01*
X189950506Y-50460889D01*
X189917021Y-50399566D01*
X189922005Y-50329874D01*
X189963877Y-50273941D01*
X189993392Y-50257581D01*
X190088304Y-50220813D01*
X190267223Y-50110031D01*
X190422740Y-49968259D01*
X190549558Y-49800325D01*
X190643359Y-49611947D01*
X190700948Y-49409542D01*
X190720365Y-49200000D01*
X190720365Y-49199999D01*
X196059635Y-49199999D01*
X196059635Y-49200000D01*
X196079051Y-49409537D01*
X196079051Y-49409539D01*
X196079052Y-49409542D01*
X196115466Y-49537525D01*
X196136642Y-49611950D01*
X196210524Y-49760325D01*
X196230442Y-49800325D01*
X196327053Y-49928259D01*
X196357261Y-49968260D01*
X196393592Y-50001380D01*
X196460860Y-50062703D01*
X196512776Y-50110030D01*
X196512778Y-50110032D01*
X196691692Y-50220811D01*
X196691698Y-50220814D01*
X196691701Y-50220815D01*
X196887924Y-50296832D01*
X197094780Y-50335500D01*
X197094782Y-50335500D01*
X197305218Y-50335500D01*
X197305220Y-50335500D01*
X197512076Y-50296832D01*
X197708304Y-50220813D01*
X197887223Y-50110031D01*
X198042740Y-49968259D01*
X198169558Y-49800325D01*
X198263359Y-49611947D01*
X198320948Y-49409542D01*
X198331099Y-49299999D01*
X201579635Y-49299999D01*
X201579635Y-49300000D01*
X201599051Y-49509537D01*
X201599051Y-49509539D01*
X201599052Y-49509542D01*
X201656641Y-49711947D01*
X201656642Y-49711950D01*
X201680730Y-49760325D01*
X201750442Y-49900325D01*
X201873064Y-50062703D01*
X201877261Y-50068260D01*
X202032776Y-50210030D01*
X202032778Y-50210032D01*
X202211692Y-50320811D01*
X202211698Y-50320814D01*
X202235085Y-50329874D01*
X202407924Y-50396832D01*
X202614780Y-50435500D01*
X202614782Y-50435500D01*
X202825218Y-50435500D01*
X202825220Y-50435500D01*
X203032076Y-50396832D01*
X203228304Y-50320813D01*
X203407223Y-50210031D01*
X203562740Y-50068259D01*
X203689558Y-49900325D01*
X203783359Y-49711947D01*
X203840948Y-49509542D01*
X203860365Y-49300000D01*
X203860365Y-49299999D01*
X209199635Y-49299999D01*
X209199635Y-49300000D01*
X209219051Y-49509537D01*
X209219051Y-49509539D01*
X209219052Y-49509542D01*
X209276641Y-49711947D01*
X209276642Y-49711950D01*
X209300730Y-49760325D01*
X209370442Y-49900325D01*
X209493064Y-50062703D01*
X209497261Y-50068260D01*
X209652776Y-50210030D01*
X209652778Y-50210032D01*
X209831692Y-50320811D01*
X209831698Y-50320814D01*
X209855085Y-50329874D01*
X210027924Y-50396832D01*
X210234780Y-50435500D01*
X210234782Y-50435500D01*
X210445218Y-50435500D01*
X210445220Y-50435500D01*
X210652076Y-50396832D01*
X210848304Y-50320813D01*
X211027223Y-50210031D01*
X211182740Y-50068259D01*
X211309558Y-49900325D01*
X211403359Y-49711947D01*
X211460948Y-49509542D01*
X211480365Y-49300000D01*
X211460948Y-49090458D01*
X211403359Y-48888053D01*
X211309558Y-48699675D01*
X211182740Y-48531741D01*
X211027223Y-48389969D01*
X211027221Y-48389967D01*
X210848307Y-48279188D01*
X210848301Y-48279185D01*
X210679014Y-48213604D01*
X210652076Y-48203168D01*
X210445220Y-48164500D01*
X210234780Y-48164500D01*
X210027924Y-48203168D01*
X210027921Y-48203168D01*
X210027921Y-48203169D01*
X209831698Y-48279185D01*
X209831692Y-48279188D01*
X209652778Y-48389967D01*
X209652776Y-48389969D01*
X209497261Y-48531739D01*
X209370442Y-48699674D01*
X209276642Y-48888049D01*
X209219051Y-49090462D01*
X209199635Y-49299999D01*
X203860365Y-49299999D01*
X203840948Y-49090458D01*
X203783359Y-48888053D01*
X203689558Y-48699675D01*
X203562740Y-48531741D01*
X203407223Y-48389969D01*
X203407221Y-48389967D01*
X203228307Y-48279188D01*
X203228301Y-48279185D01*
X203059014Y-48213604D01*
X203032076Y-48203168D01*
X202825220Y-48164500D01*
X202614780Y-48164500D01*
X202407924Y-48203168D01*
X202407921Y-48203168D01*
X202407921Y-48203169D01*
X202211698Y-48279185D01*
X202211692Y-48279188D01*
X202032778Y-48389967D01*
X202032776Y-48389969D01*
X201877261Y-48531739D01*
X201750442Y-48699674D01*
X201656642Y-48888049D01*
X201599051Y-49090462D01*
X201579635Y-49299999D01*
X198331099Y-49299999D01*
X198340365Y-49200000D01*
X198320948Y-48990458D01*
X198263359Y-48788053D01*
X198169558Y-48599675D01*
X198042740Y-48431741D01*
X197887223Y-48289969D01*
X197887221Y-48289967D01*
X197708307Y-48179188D01*
X197708301Y-48179185D01*
X197542809Y-48115074D01*
X197512076Y-48103168D01*
X197305220Y-48064500D01*
X197094780Y-48064500D01*
X196887924Y-48103168D01*
X196887921Y-48103168D01*
X196887921Y-48103169D01*
X196691698Y-48179185D01*
X196691692Y-48179188D01*
X196512778Y-48289967D01*
X196512776Y-48289969D01*
X196357261Y-48431739D01*
X196230442Y-48599674D01*
X196136642Y-48788049D01*
X196079051Y-48990462D01*
X196059635Y-49199999D01*
X190720365Y-49199999D01*
X190700948Y-48990458D01*
X190643359Y-48788053D01*
X190549558Y-48599675D01*
X190422740Y-48431741D01*
X190267223Y-48289969D01*
X190267221Y-48289967D01*
X190088307Y-48179188D01*
X190088301Y-48179185D01*
X189922809Y-48115074D01*
X189892076Y-48103168D01*
X189685220Y-48064500D01*
X189474780Y-48064500D01*
X189267924Y-48103168D01*
X189267921Y-48103168D01*
X189267921Y-48103169D01*
X189071698Y-48179185D01*
X189071692Y-48179188D01*
X188892778Y-48289967D01*
X188892776Y-48289969D01*
X188737261Y-48431739D01*
X188610442Y-48599674D01*
X188514085Y-48793185D01*
X188511665Y-48791980D01*
X188475990Y-48838317D01*
X188410201Y-48861845D01*
X188342136Y-48846069D01*
X188315350Y-48825733D01*
X186149616Y-46659999D01*
X188439635Y-46659999D01*
X188439635Y-46660000D01*
X188459051Y-46869537D01*
X188459051Y-46869539D01*
X188459052Y-46869542D01*
X188497963Y-47006301D01*
X188516642Y-47071950D01*
X188571402Y-47181922D01*
X188610442Y-47260325D01*
X188707053Y-47388259D01*
X188737261Y-47428260D01*
X188892776Y-47570030D01*
X188892778Y-47570032D01*
X189071692Y-47680811D01*
X189071698Y-47680814D01*
X189113268Y-47696918D01*
X189267924Y-47756832D01*
X189474780Y-47795500D01*
X189474782Y-47795500D01*
X189685218Y-47795500D01*
X189685220Y-47795500D01*
X189892076Y-47756832D01*
X190088304Y-47680813D01*
X190267223Y-47570031D01*
X190422740Y-47428259D01*
X190549558Y-47260325D01*
X190643359Y-47071947D01*
X190700948Y-46869542D01*
X190720365Y-46660000D01*
X190720365Y-46659999D01*
X196059635Y-46659999D01*
X196059635Y-46660000D01*
X196079051Y-46869537D01*
X196079051Y-46869539D01*
X196079052Y-46869542D01*
X196117963Y-47006301D01*
X196136642Y-47071950D01*
X196191402Y-47181922D01*
X196230442Y-47260325D01*
X196327053Y-47388259D01*
X196357261Y-47428260D01*
X196512776Y-47570030D01*
X196512778Y-47570032D01*
X196691692Y-47680811D01*
X196691698Y-47680814D01*
X196733268Y-47696918D01*
X196887924Y-47756832D01*
X197094780Y-47795500D01*
X197094782Y-47795500D01*
X197305218Y-47795500D01*
X197305220Y-47795500D01*
X197512076Y-47756832D01*
X197708304Y-47680813D01*
X197887223Y-47570031D01*
X198042740Y-47428259D01*
X198169558Y-47260325D01*
X198263359Y-47071947D01*
X198320948Y-46869542D01*
X198331099Y-46759999D01*
X201579635Y-46759999D01*
X201579635Y-46760000D01*
X201599051Y-46969537D01*
X201599051Y-46969539D01*
X201599052Y-46969542D01*
X201639389Y-47111313D01*
X201656642Y-47171950D01*
X201700648Y-47260325D01*
X201750442Y-47360325D01*
X201871046Y-47520031D01*
X201877261Y-47528260D01*
X202032776Y-47670030D01*
X202032778Y-47670032D01*
X202211692Y-47780811D01*
X202211698Y-47780814D01*
X202249608Y-47795500D01*
X202407924Y-47856832D01*
X202614780Y-47895500D01*
X202614782Y-47895500D01*
X202825218Y-47895500D01*
X202825220Y-47895500D01*
X203032076Y-47856832D01*
X203228304Y-47780813D01*
X203407223Y-47670031D01*
X203562740Y-47528259D01*
X203689558Y-47360325D01*
X203783359Y-47171947D01*
X203840948Y-46969542D01*
X203860365Y-46760000D01*
X203860365Y-46759999D01*
X209199635Y-46759999D01*
X209199635Y-46760000D01*
X209219051Y-46969537D01*
X209219051Y-46969539D01*
X209219052Y-46969542D01*
X209259389Y-47111313D01*
X209276642Y-47171950D01*
X209320648Y-47260325D01*
X209370442Y-47360325D01*
X209491046Y-47520031D01*
X209497261Y-47528260D01*
X209652776Y-47670030D01*
X209652778Y-47670032D01*
X209831692Y-47780811D01*
X209831698Y-47780814D01*
X209869608Y-47795500D01*
X210027924Y-47856832D01*
X210234780Y-47895500D01*
X210234782Y-47895500D01*
X210445218Y-47895500D01*
X210445220Y-47895500D01*
X210652076Y-47856832D01*
X210848304Y-47780813D01*
X211027223Y-47670031D01*
X211182740Y-47528259D01*
X211309558Y-47360325D01*
X211403359Y-47171947D01*
X211460948Y-46969542D01*
X211480365Y-46760000D01*
X211460948Y-46550458D01*
X211403359Y-46348053D01*
X211309558Y-46159675D01*
X211182740Y-45991741D01*
X211032297Y-45854595D01*
X211027223Y-45849969D01*
X211027221Y-45849967D01*
X210848307Y-45739188D01*
X210848301Y-45739185D01*
X210689569Y-45677693D01*
X210652076Y-45663168D01*
X210445220Y-45624500D01*
X210234780Y-45624500D01*
X210027924Y-45663168D01*
X210027921Y-45663168D01*
X210027921Y-45663169D01*
X209831698Y-45739185D01*
X209831692Y-45739188D01*
X209652778Y-45849967D01*
X209652776Y-45849969D01*
X209497261Y-45991739D01*
X209370442Y-46159674D01*
X209276642Y-46348049D01*
X209219051Y-46550462D01*
X209199635Y-46759999D01*
X203860365Y-46759999D01*
X203840948Y-46550458D01*
X203783359Y-46348053D01*
X203689558Y-46159675D01*
X203562740Y-45991741D01*
X203412297Y-45854595D01*
X203407223Y-45849969D01*
X203407221Y-45849967D01*
X203228307Y-45739188D01*
X203228301Y-45739185D01*
X203069569Y-45677693D01*
X203032076Y-45663168D01*
X202825220Y-45624500D01*
X202614780Y-45624500D01*
X202407924Y-45663168D01*
X202407921Y-45663168D01*
X202407921Y-45663169D01*
X202211698Y-45739185D01*
X202211692Y-45739188D01*
X202032778Y-45849967D01*
X202032776Y-45849969D01*
X201877261Y-45991739D01*
X201750442Y-46159674D01*
X201656642Y-46348049D01*
X201599051Y-46550462D01*
X201579635Y-46759999D01*
X198331099Y-46759999D01*
X198340365Y-46660000D01*
X198320948Y-46450458D01*
X198263359Y-46248053D01*
X198169558Y-46059675D01*
X198042740Y-45891741D01*
X197987892Y-45841741D01*
X197887223Y-45749969D01*
X197887221Y-45749967D01*
X197708307Y-45639188D01*
X197708301Y-45639185D01*
X197531250Y-45570596D01*
X197512076Y-45563168D01*
X197305220Y-45524500D01*
X197094780Y-45524500D01*
X196887924Y-45563168D01*
X196887921Y-45563168D01*
X196887921Y-45563169D01*
X196691698Y-45639185D01*
X196691692Y-45639188D01*
X196512778Y-45749967D01*
X196512776Y-45749969D01*
X196357261Y-45891739D01*
X196230442Y-46059674D01*
X196136642Y-46248049D01*
X196079051Y-46450462D01*
X196059635Y-46659999D01*
X190720365Y-46659999D01*
X190700948Y-46450458D01*
X190643359Y-46248053D01*
X190549558Y-46059675D01*
X190422740Y-45891741D01*
X190367892Y-45841741D01*
X190267223Y-45749969D01*
X190267221Y-45749967D01*
X190088307Y-45639188D01*
X190088301Y-45639185D01*
X189911250Y-45570596D01*
X189892076Y-45563168D01*
X189685220Y-45524500D01*
X189474780Y-45524500D01*
X189267924Y-45563168D01*
X189267921Y-45563168D01*
X189267921Y-45563169D01*
X189071698Y-45639185D01*
X189071692Y-45639188D01*
X188892778Y-45749967D01*
X188892776Y-45749969D01*
X188737261Y-45891739D01*
X188610442Y-46059674D01*
X188516642Y-46248049D01*
X188459051Y-46450462D01*
X188439635Y-46659999D01*
X186149616Y-46659999D01*
X178821819Y-39332202D01*
X178788334Y-39270879D01*
X178785500Y-39244521D01*
X178785500Y-38327948D01*
X178782298Y-38316000D01*
X178782297Y-38315996D01*
X178759255Y-38230000D01*
X178747065Y-38184504D01*
X178744467Y-38180004D01*
X178744465Y-38180000D01*
X178672813Y-38055896D01*
X178567804Y-37950887D01*
X178567803Y-37950886D01*
X178563473Y-37946556D01*
X178563462Y-37946546D01*
X176827283Y-36210367D01*
X176827281Y-36210364D01*
X176715206Y-36098289D01*
X176715204Y-36098287D01*
X176586596Y-36024035D01*
X176443153Y-35985600D01*
X176443152Y-35985600D01*
X147204652Y-35985600D01*
X147056147Y-35985600D01*
X146912703Y-36024035D01*
X146912700Y-36024036D01*
X146865629Y-36051212D01*
X146865629Y-36051213D01*
X146784099Y-36098285D01*
X146784096Y-36098287D01*
X146784093Y-36098289D01*
X145913698Y-36968685D01*
X145913694Y-36968687D01*
X145913695Y-36968688D01*
X145881900Y-37000482D01*
X145820576Y-37033966D01*
X145750885Y-37028980D01*
X145741816Y-37025181D01*
X145593669Y-36956099D01*
X145593655Y-36956094D01*
X145365413Y-36894938D01*
X145365403Y-36894936D01*
X145130001Y-36874341D01*
X145129999Y-36874341D01*
X144894596Y-36894936D01*
X144894586Y-36894938D01*
X144666344Y-36956094D01*
X144666335Y-36956098D01*
X144452171Y-37055964D01*
X144452169Y-37055965D01*
X144258597Y-37191505D01*
X144091505Y-37358597D01*
X143961575Y-37544158D01*
X143906998Y-37587783D01*
X143837500Y-37594977D01*
X143775145Y-37563454D01*
X143758425Y-37544158D01*
X143628494Y-37358597D01*
X143461402Y-37191506D01*
X143461395Y-37191501D01*
X143267834Y-37055967D01*
X143267830Y-37055965D01*
X143220653Y-37033966D01*
X143053663Y-36956097D01*
X143053659Y-36956096D01*
X143053655Y-36956094D01*
X142825413Y-36894938D01*
X142825403Y-36894936D01*
X142590001Y-36874341D01*
X142589999Y-36874341D01*
X142354596Y-36894936D01*
X142354586Y-36894938D01*
X142126344Y-36956094D01*
X142126335Y-36956098D01*
X141912171Y-37055964D01*
X141912169Y-37055965D01*
X141718597Y-37191505D01*
X141551505Y-37358597D01*
X141415965Y-37552169D01*
X141415964Y-37552171D01*
X141316098Y-37766335D01*
X141316094Y-37766344D01*
X141254938Y-37994586D01*
X141254936Y-37994596D01*
X141234341Y-38229999D01*
X141234341Y-38230000D01*
X141254936Y-38465403D01*
X141254938Y-38465413D01*
X141316094Y-38693655D01*
X141316096Y-38693659D01*
X141316097Y-38693663D01*
X141395801Y-38864588D01*
X141415965Y-38907830D01*
X141415967Y-38907834D01*
X141448470Y-38954252D01*
X141551505Y-39101401D01*
X141718599Y-39268495D01*
X141809582Y-39332202D01*
X141912165Y-39404032D01*
X141912167Y-39404033D01*
X141912170Y-39404035D01*
X142126337Y-39503903D01*
X142354592Y-39565063D01*
X142531034Y-39580500D01*
X142589999Y-39585659D01*
X142590000Y-39585659D01*
X142590001Y-39585659D01*
X142648966Y-39580500D01*
X142825408Y-39565063D01*
X143053663Y-39503903D01*
X143267830Y-39404035D01*
X143461401Y-39268495D01*
X143628495Y-39101401D01*
X143758425Y-38915842D01*
X143813002Y-38872217D01*
X143882500Y-38865023D01*
X143944855Y-38896546D01*
X143961575Y-38915842D01*
X144091500Y-39101395D01*
X144091505Y-39101401D01*
X144258599Y-39268495D01*
X144349582Y-39332202D01*
X144452165Y-39404032D01*
X144452167Y-39404033D01*
X144452170Y-39404035D01*
X144601766Y-39473793D01*
X144623237Y-39483805D01*
X144675676Y-39529977D01*
X144694828Y-39597171D01*
X144674612Y-39664052D01*
X144658513Y-39683868D01*
X138516288Y-45826094D01*
X138454965Y-45859579D01*
X138385273Y-45854595D01*
X138345069Y-45830051D01*
X138312046Y-45799947D01*
X138257223Y-45749969D01*
X138257220Y-45749967D01*
X138257219Y-45749966D01*
X138078307Y-45639188D01*
X138078301Y-45639185D01*
X137901250Y-45570596D01*
X137882076Y-45563168D01*
X137675220Y-45524500D01*
X137464780Y-45524500D01*
X137257924Y-45563168D01*
X137257921Y-45563168D01*
X137257921Y-45563169D01*
X137061698Y-45639185D01*
X137061692Y-45639188D01*
X136882778Y-45749967D01*
X136882776Y-45749969D01*
X136727261Y-45891739D01*
X136600442Y-46059674D01*
X136506642Y-46248049D01*
X136449051Y-46450462D01*
X136429635Y-46659999D01*
X136429635Y-46660000D01*
X136449051Y-46869537D01*
X136449051Y-46869539D01*
X136449052Y-46869542D01*
X136487963Y-47006301D01*
X136506642Y-47071950D01*
X136561402Y-47181922D01*
X136600442Y-47260325D01*
X136697053Y-47388259D01*
X136727261Y-47428260D01*
X136882776Y-47570030D01*
X136882778Y-47570032D01*
X137061692Y-47680811D01*
X137061698Y-47680814D01*
X137103268Y-47696918D01*
X137257924Y-47756832D01*
X137464780Y-47795500D01*
X137464782Y-47795500D01*
X137675218Y-47795500D01*
X137675220Y-47795500D01*
X137882076Y-47756832D01*
X138078304Y-47680813D01*
X138257223Y-47570031D01*
X138412740Y-47428259D01*
X138539558Y-47260325D01*
X138539557Y-47260325D01*
X138543013Y-47255750D01*
X138544706Y-47257028D01*
X138589738Y-47216648D01*
X138611068Y-47208776D01*
X138697693Y-47185566D01*
X138697693Y-47185565D01*
X138697696Y-47185565D01*
X138704004Y-47181923D01*
X138826304Y-47111313D01*
X138931313Y-47006304D01*
X138931313Y-47006302D01*
X138941517Y-46996099D01*
X138941520Y-46996094D01*
X146649233Y-39288383D01*
X146710554Y-39254900D01*
X146780246Y-39259884D01*
X146808036Y-39274491D01*
X146992421Y-39403600D01*
X147206507Y-39503429D01*
X147206516Y-39503433D01*
X147420000Y-39560634D01*
X147420000Y-38663012D01*
X147477007Y-38695925D01*
X147604174Y-38730000D01*
X147735826Y-38730000D01*
X147862993Y-38695925D01*
X147920000Y-38663012D01*
X147920000Y-39560633D01*
X148133483Y-39503433D01*
X148133492Y-39503429D01*
X148347578Y-39403600D01*
X148541082Y-39268105D01*
X148708105Y-39101082D01*
X148838119Y-38915405D01*
X148892696Y-38871781D01*
X148962195Y-38864588D01*
X149024549Y-38896110D01*
X149041269Y-38915405D01*
X149171505Y-39101401D01*
X149338599Y-39268495D01*
X149429582Y-39332202D01*
X149532165Y-39404032D01*
X149532167Y-39404033D01*
X149532170Y-39404035D01*
X149746337Y-39503903D01*
X149974592Y-39565063D01*
X150151034Y-39580500D01*
X150209999Y-39585659D01*
X150210000Y-39585659D01*
X150210001Y-39585659D01*
X150268966Y-39580500D01*
X150445408Y-39565063D01*
X150673663Y-39503903D01*
X150887830Y-39404035D01*
X151081401Y-39268495D01*
X151248495Y-39101401D01*
X151378425Y-38915842D01*
X151433002Y-38872217D01*
X151502500Y-38865023D01*
X151564855Y-38896546D01*
X151581575Y-38915842D01*
X151711501Y-39101396D01*
X151711506Y-39101402D01*
X151829662Y-39219558D01*
X151863147Y-39280881D01*
X151858163Y-39350573D01*
X151829662Y-39394920D01*
X143191698Y-48032885D01*
X143086689Y-48137893D01*
X143086687Y-48137895D01*
X143086687Y-48137896D01*
X143042977Y-48213604D01*
X143042976Y-48213604D01*
X143012436Y-48266501D01*
X143012435Y-48266503D01*
X143012435Y-48266504D01*
X142978880Y-48391739D01*
X142978872Y-48391768D01*
X142978871Y-48391771D01*
X142974000Y-48409947D01*
X142974000Y-54854322D01*
X142954315Y-54921361D01*
X142901511Y-54967116D01*
X142832353Y-54977060D01*
X142768797Y-54948035D01*
X142762319Y-54942003D01*
X133259283Y-45438967D01*
X133259281Y-45438964D01*
X133147206Y-45326889D01*
X133147204Y-45326887D01*
X133018596Y-45252635D01*
X132875153Y-45214200D01*
X132875152Y-45214200D01*
X128399965Y-45214200D01*
X128399949Y-45214199D01*
X128392353Y-45214199D01*
X128243848Y-45214199D01*
X128112163Y-45249484D01*
X128100400Y-45252636D01*
X127971799Y-45326884D01*
X127971793Y-45326889D01*
X127376988Y-45921694D01*
X127376984Y-45921699D01*
X127320419Y-46019674D01*
X127320419Y-46019675D01*
X127302735Y-46050302D01*
X127273430Y-46159674D01*
X127271015Y-46168688D01*
X127264300Y-46193748D01*
X121110500Y-46193748D01*
X121110500Y-38108711D01*
X123899500Y-38108711D01*
X123899500Y-38351288D01*
X123931161Y-38591785D01*
X123993947Y-38826104D01*
X124086773Y-39050205D01*
X124086777Y-39050214D01*
X124102746Y-39077873D01*
X124208064Y-39260289D01*
X124208066Y-39260292D01*
X124208067Y-39260293D01*
X124355733Y-39452736D01*
X124355739Y-39452743D01*
X124527260Y-39624264D01*
X124600657Y-39680583D01*
X124719711Y-39771936D01*
X124929788Y-39893224D01*
X125153900Y-39986054D01*
X125388211Y-40048838D01*
X125568586Y-40072584D01*
X125628711Y-40080500D01*
X125628712Y-40080500D01*
X125871289Y-40080500D01*
X125919388Y-40074167D01*
X126111789Y-40048838D01*
X126346100Y-39986054D01*
X126570212Y-39893224D01*
X126780289Y-39771936D01*
X126908557Y-39673513D01*
X126972740Y-39624264D01*
X126972743Y-39624260D01*
X127144260Y-39452743D01*
X127144265Y-39452738D01*
X127291936Y-39260289D01*
X127413224Y-39050212D01*
X127506054Y-38826100D01*
X127568838Y-38591789D01*
X127600500Y-38351288D01*
X127600500Y-38108712D01*
X127568838Y-37868211D01*
X127506054Y-37633900D01*
X127413224Y-37409788D01*
X127291936Y-37199711D01*
X127144265Y-37007262D01*
X127144260Y-37007256D01*
X126972743Y-36835739D01*
X126972736Y-36835733D01*
X126780293Y-36688067D01*
X126780292Y-36688066D01*
X126780289Y-36688064D01*
X126570212Y-36566776D01*
X126570205Y-36566773D01*
X126346104Y-36473947D01*
X126111785Y-36411161D01*
X125871289Y-36379500D01*
X125871288Y-36379500D01*
X125628712Y-36379500D01*
X125628711Y-36379500D01*
X125388214Y-36411161D01*
X125153895Y-36473947D01*
X124929794Y-36566773D01*
X124929785Y-36566777D01*
X124719706Y-36688067D01*
X124527263Y-36835733D01*
X124527256Y-36835739D01*
X124355739Y-37007256D01*
X124355733Y-37007263D01*
X124208067Y-37199706D01*
X124086777Y-37409785D01*
X124086773Y-37409794D01*
X123993947Y-37633895D01*
X123931161Y-37868214D01*
X123899500Y-38108711D01*
X121110500Y-38108711D01*
X121110500Y-35578711D01*
X209639500Y-35578711D01*
X209639500Y-35821288D01*
X209671161Y-36061785D01*
X209733947Y-36296104D01*
X209781606Y-36411162D01*
X209826776Y-36520212D01*
X209948064Y-36730289D01*
X209948066Y-36730292D01*
X209948067Y-36730293D01*
X210095733Y-36922736D01*
X210095739Y-36922743D01*
X210267256Y-37094260D01*
X210267263Y-37094266D01*
X210318114Y-37133285D01*
X210459711Y-37241936D01*
X210669788Y-37363224D01*
X210893900Y-37456054D01*
X211128211Y-37518838D01*
X211308586Y-37542584D01*
X211368711Y-37550500D01*
X211368712Y-37550500D01*
X211611289Y-37550500D01*
X211659461Y-37544158D01*
X211851789Y-37518838D01*
X212086100Y-37456054D01*
X212310212Y-37363224D01*
X212520289Y-37241936D01*
X212712738Y-37094265D01*
X212884265Y-36922738D01*
X213031936Y-36730289D01*
X213153224Y-36520212D01*
X213246054Y-36296100D01*
X213308838Y-36061789D01*
X213340500Y-35821288D01*
X213340500Y-35578712D01*
X213308838Y-35338211D01*
X213246054Y-35103900D01*
X213153224Y-34879788D01*
X213031936Y-34669711D01*
X212884265Y-34477262D01*
X212884260Y-34477256D01*
X212712743Y-34305739D01*
X212712736Y-34305733D01*
X212520293Y-34158067D01*
X212520292Y-34158066D01*
X212520289Y-34158064D01*
X212310212Y-34036776D01*
X212310205Y-34036773D01*
X212086104Y-33943947D01*
X211851785Y-33881161D01*
X211611289Y-33849500D01*
X211611288Y-33849500D01*
X211368712Y-33849500D01*
X211368711Y-33849500D01*
X211128214Y-33881161D01*
X210893895Y-33943947D01*
X210669794Y-34036773D01*
X210669785Y-34036777D01*
X210459706Y-34158067D01*
X210267263Y-34305733D01*
X210267256Y-34305739D01*
X210095739Y-34477256D01*
X210095733Y-34477263D01*
X209948067Y-34669706D01*
X209826777Y-34879785D01*
X209826773Y-34879794D01*
X209733947Y-35103895D01*
X209671161Y-35338214D01*
X209639500Y-35578711D01*
X121110500Y-35578711D01*
X121110500Y-30874500D01*
X121130185Y-30807461D01*
X121182989Y-30761706D01*
X121234500Y-30750500D01*
X215965500Y-30750500D01*
X216032539Y-30770185D01*
G37*
%TD.AperFunction*%
%TD*%
M02*
