%TF.GenerationSoftware,KiCad,Pcbnew,8.0.3*%
%TF.CreationDate,2024-06-12T06:30:46+01:00*%
%TF.ProjectId,VISIR_Lei_Ohm,56495349-525f-44c6-9569-5f4f686d2e6b,rev?*%
%TF.SameCoordinates,Original*%
%TF.FileFunction,Legend,Top*%
%TF.FilePolarity,Positive*%
%FSLAX46Y46*%
G04 Gerber Fmt 4.6, Leading zero omitted, Abs format (unit mm)*
G04 Created by KiCad (PCBNEW 8.0.3) date 2024-06-12 06:30:46*
%MOMM*%
%LPD*%
G01*
G04 APERTURE LIST*
%ADD10C,0.152400*%
%ADD11C,0.150000*%
%ADD12C,0.120000*%
G04 APERTURE END LIST*
D10*
X188630834Y-37612603D02*
X188243786Y-37612603D01*
X188243786Y-37612603D02*
X188243786Y-36799803D01*
X189250110Y-37612603D02*
X189250110Y-37186851D01*
X189250110Y-37186851D02*
X189211405Y-37109441D01*
X189211405Y-37109441D02*
X189133996Y-37070737D01*
X189133996Y-37070737D02*
X188979177Y-37070737D01*
X188979177Y-37070737D02*
X188901767Y-37109441D01*
X189250110Y-37573899D02*
X189172701Y-37612603D01*
X189172701Y-37612603D02*
X188979177Y-37612603D01*
X188979177Y-37612603D02*
X188901767Y-37573899D01*
X188901767Y-37573899D02*
X188863063Y-37496489D01*
X188863063Y-37496489D02*
X188863063Y-37419079D01*
X188863063Y-37419079D02*
X188901767Y-37341670D01*
X188901767Y-37341670D02*
X188979177Y-37302965D01*
X188979177Y-37302965D02*
X189172701Y-37302965D01*
X189172701Y-37302965D02*
X189250110Y-37264260D01*
X190101614Y-37612603D02*
X189830681Y-37225556D01*
X189637157Y-37612603D02*
X189637157Y-36799803D01*
X189637157Y-36799803D02*
X189946795Y-36799803D01*
X189946795Y-36799803D02*
X190024205Y-36838508D01*
X190024205Y-36838508D02*
X190062910Y-36877213D01*
X190062910Y-36877213D02*
X190101614Y-36954622D01*
X190101614Y-36954622D02*
X190101614Y-37070737D01*
X190101614Y-37070737D02*
X190062910Y-37148146D01*
X190062910Y-37148146D02*
X190024205Y-37186851D01*
X190024205Y-37186851D02*
X189946795Y-37225556D01*
X189946795Y-37225556D02*
X189637157Y-37225556D01*
X190449957Y-37186851D02*
X190720891Y-37186851D01*
X190837005Y-37612603D02*
X190449957Y-37612603D01*
X190449957Y-37612603D02*
X190449957Y-36799803D01*
X190449957Y-36799803D02*
X190837005Y-36799803D01*
X191804623Y-37302965D02*
X192423900Y-37302965D01*
X193817271Y-37612603D02*
X193430223Y-37612603D01*
X193430223Y-37612603D02*
X193430223Y-36799803D01*
X194397842Y-37573899D02*
X194320433Y-37612603D01*
X194320433Y-37612603D02*
X194165614Y-37612603D01*
X194165614Y-37612603D02*
X194088204Y-37573899D01*
X194088204Y-37573899D02*
X194049500Y-37496489D01*
X194049500Y-37496489D02*
X194049500Y-37186851D01*
X194049500Y-37186851D02*
X194088204Y-37109441D01*
X194088204Y-37109441D02*
X194165614Y-37070737D01*
X194165614Y-37070737D02*
X194320433Y-37070737D01*
X194320433Y-37070737D02*
X194397842Y-37109441D01*
X194397842Y-37109441D02*
X194436547Y-37186851D01*
X194436547Y-37186851D02*
X194436547Y-37264260D01*
X194436547Y-37264260D02*
X194049500Y-37341670D01*
X194784890Y-37612603D02*
X194784890Y-37070737D01*
X194784890Y-36799803D02*
X194746186Y-36838508D01*
X194746186Y-36838508D02*
X194784890Y-36877213D01*
X194784890Y-36877213D02*
X194823595Y-36838508D01*
X194823595Y-36838508D02*
X194784890Y-36799803D01*
X194784890Y-36799803D02*
X194784890Y-36877213D01*
X196139557Y-37612603D02*
X196139557Y-36799803D01*
X196139557Y-37573899D02*
X196062148Y-37612603D01*
X196062148Y-37612603D02*
X195907329Y-37612603D01*
X195907329Y-37612603D02*
X195829919Y-37573899D01*
X195829919Y-37573899D02*
X195791214Y-37535194D01*
X195791214Y-37535194D02*
X195752510Y-37457784D01*
X195752510Y-37457784D02*
X195752510Y-37225556D01*
X195752510Y-37225556D02*
X195791214Y-37148146D01*
X195791214Y-37148146D02*
X195829919Y-37109441D01*
X195829919Y-37109441D02*
X195907329Y-37070737D01*
X195907329Y-37070737D02*
X196062148Y-37070737D01*
X196062148Y-37070737D02*
X196139557Y-37109441D01*
X196836242Y-37573899D02*
X196758833Y-37612603D01*
X196758833Y-37612603D02*
X196604014Y-37612603D01*
X196604014Y-37612603D02*
X196526604Y-37573899D01*
X196526604Y-37573899D02*
X196487900Y-37496489D01*
X196487900Y-37496489D02*
X196487900Y-37186851D01*
X196487900Y-37186851D02*
X196526604Y-37109441D01*
X196526604Y-37109441D02*
X196604014Y-37070737D01*
X196604014Y-37070737D02*
X196758833Y-37070737D01*
X196758833Y-37070737D02*
X196836242Y-37109441D01*
X196836242Y-37109441D02*
X196874947Y-37186851D01*
X196874947Y-37186851D02*
X196874947Y-37264260D01*
X196874947Y-37264260D02*
X196487900Y-37341670D01*
X197997385Y-36799803D02*
X198152204Y-36799803D01*
X198152204Y-36799803D02*
X198229614Y-36838508D01*
X198229614Y-36838508D02*
X198307023Y-36915918D01*
X198307023Y-36915918D02*
X198345728Y-37070737D01*
X198345728Y-37070737D02*
X198345728Y-37341670D01*
X198345728Y-37341670D02*
X198307023Y-37496489D01*
X198307023Y-37496489D02*
X198229614Y-37573899D01*
X198229614Y-37573899D02*
X198152204Y-37612603D01*
X198152204Y-37612603D02*
X197997385Y-37612603D01*
X197997385Y-37612603D02*
X197919976Y-37573899D01*
X197919976Y-37573899D02*
X197842566Y-37496489D01*
X197842566Y-37496489D02*
X197803862Y-37341670D01*
X197803862Y-37341670D02*
X197803862Y-37070737D01*
X197803862Y-37070737D02*
X197842566Y-36915918D01*
X197842566Y-36915918D02*
X197919976Y-36838508D01*
X197919976Y-36838508D02*
X197997385Y-36799803D01*
X198694071Y-37612603D02*
X198694071Y-36799803D01*
X198694071Y-37186851D02*
X199158528Y-37186851D01*
X199158528Y-37612603D02*
X199158528Y-36799803D01*
X199545576Y-37612603D02*
X199545576Y-36799803D01*
X199545576Y-36799803D02*
X199816510Y-37380375D01*
X199816510Y-37380375D02*
X200087443Y-36799803D01*
X200087443Y-36799803D02*
X200087443Y-37612603D01*
D11*
X129868095Y-70904819D02*
X129868095Y-71714342D01*
X129868095Y-71714342D02*
X129915714Y-71809580D01*
X129915714Y-71809580D02*
X129963333Y-71857200D01*
X129963333Y-71857200D02*
X130058571Y-71904819D01*
X130058571Y-71904819D02*
X130249047Y-71904819D01*
X130249047Y-71904819D02*
X130344285Y-71857200D01*
X130344285Y-71857200D02*
X130391904Y-71809580D01*
X130391904Y-71809580D02*
X130439523Y-71714342D01*
X130439523Y-71714342D02*
X130439523Y-70904819D01*
X131439523Y-71904819D02*
X130868095Y-71904819D01*
X131153809Y-71904819D02*
X131153809Y-70904819D01*
X131153809Y-70904819D02*
X131058571Y-71047676D01*
X131058571Y-71047676D02*
X130963333Y-71142914D01*
X130963333Y-71142914D02*
X130868095Y-71190533D01*
X210728095Y-31954819D02*
X210728095Y-30954819D01*
X210728095Y-31431009D02*
X211299523Y-31431009D01*
X211299523Y-31954819D02*
X211299523Y-30954819D01*
X212299523Y-31954819D02*
X211728095Y-31954819D01*
X212013809Y-31954819D02*
X212013809Y-30954819D01*
X212013809Y-30954819D02*
X211918571Y-31097676D01*
X211918571Y-31097676D02*
X211823333Y-31192914D01*
X211823333Y-31192914D02*
X211728095Y-31240533D01*
X199116666Y-77604819D02*
X199116666Y-78319104D01*
X199116666Y-78319104D02*
X199069047Y-78461961D01*
X199069047Y-78461961D02*
X198973809Y-78557200D01*
X198973809Y-78557200D02*
X198830952Y-78604819D01*
X198830952Y-78604819D02*
X198735714Y-78604819D01*
X200021428Y-77938152D02*
X200021428Y-78604819D01*
X199783333Y-77557200D02*
X199545238Y-78271485D01*
X199545238Y-78271485D02*
X200164285Y-78271485D01*
X187190476Y-77544819D02*
X187190476Y-78259104D01*
X187190476Y-78259104D02*
X187142857Y-78401961D01*
X187142857Y-78401961D02*
X187047619Y-78497200D01*
X187047619Y-78497200D02*
X186904762Y-78544819D01*
X186904762Y-78544819D02*
X186809524Y-78544819D01*
X188190476Y-78544819D02*
X187619048Y-78544819D01*
X187904762Y-78544819D02*
X187904762Y-77544819D01*
X187904762Y-77544819D02*
X187809524Y-77687676D01*
X187809524Y-77687676D02*
X187714286Y-77782914D01*
X187714286Y-77782914D02*
X187619048Y-77830533D01*
X188809524Y-77544819D02*
X188904762Y-77544819D01*
X188904762Y-77544819D02*
X189000000Y-77592438D01*
X189000000Y-77592438D02*
X189047619Y-77640057D01*
X189047619Y-77640057D02*
X189095238Y-77735295D01*
X189095238Y-77735295D02*
X189142857Y-77925771D01*
X189142857Y-77925771D02*
X189142857Y-78163866D01*
X189142857Y-78163866D02*
X189095238Y-78354342D01*
X189095238Y-78354342D02*
X189047619Y-78449580D01*
X189047619Y-78449580D02*
X189000000Y-78497200D01*
X189000000Y-78497200D02*
X188904762Y-78544819D01*
X188904762Y-78544819D02*
X188809524Y-78544819D01*
X188809524Y-78544819D02*
X188714286Y-78497200D01*
X188714286Y-78497200D02*
X188666667Y-78449580D01*
X188666667Y-78449580D02*
X188619048Y-78354342D01*
X188619048Y-78354342D02*
X188571429Y-78163866D01*
X188571429Y-78163866D02*
X188571429Y-77925771D01*
X188571429Y-77925771D02*
X188619048Y-77735295D01*
X188619048Y-77735295D02*
X188666667Y-77640057D01*
X188666667Y-77640057D02*
X188714286Y-77592438D01*
X188714286Y-77592438D02*
X188809524Y-77544819D01*
X124988095Y-34484819D02*
X124988095Y-33484819D01*
X124988095Y-33961009D02*
X125559523Y-33961009D01*
X125559523Y-34484819D02*
X125559523Y-33484819D01*
X126464285Y-33818152D02*
X126464285Y-34484819D01*
X126226190Y-33437200D02*
X125988095Y-34151485D01*
X125988095Y-34151485D02*
X126607142Y-34151485D01*
X210768095Y-111964819D02*
X210768095Y-110964819D01*
X210768095Y-111441009D02*
X211339523Y-111441009D01*
X211339523Y-111964819D02*
X211339523Y-110964819D01*
X211768095Y-111060057D02*
X211815714Y-111012438D01*
X211815714Y-111012438D02*
X211910952Y-110964819D01*
X211910952Y-110964819D02*
X212149047Y-110964819D01*
X212149047Y-110964819D02*
X212244285Y-111012438D01*
X212244285Y-111012438D02*
X212291904Y-111060057D01*
X212291904Y-111060057D02*
X212339523Y-111155295D01*
X212339523Y-111155295D02*
X212339523Y-111250533D01*
X212339523Y-111250533D02*
X212291904Y-111393390D01*
X212291904Y-111393390D02*
X211720476Y-111964819D01*
X211720476Y-111964819D02*
X212339523Y-111964819D01*
X190940476Y-77574819D02*
X190940476Y-78289104D01*
X190940476Y-78289104D02*
X190892857Y-78431961D01*
X190892857Y-78431961D02*
X190797619Y-78527200D01*
X190797619Y-78527200D02*
X190654762Y-78574819D01*
X190654762Y-78574819D02*
X190559524Y-78574819D01*
X191940476Y-78574819D02*
X191369048Y-78574819D01*
X191654762Y-78574819D02*
X191654762Y-77574819D01*
X191654762Y-77574819D02*
X191559524Y-77717676D01*
X191559524Y-77717676D02*
X191464286Y-77812914D01*
X191464286Y-77812914D02*
X191369048Y-77860533D01*
X192892857Y-78574819D02*
X192321429Y-78574819D01*
X192607143Y-78574819D02*
X192607143Y-77574819D01*
X192607143Y-77574819D02*
X192511905Y-77717676D01*
X192511905Y-77717676D02*
X192416667Y-77812914D01*
X192416667Y-77812914D02*
X192321429Y-77860533D01*
X136833333Y-67559580D02*
X136785714Y-67607200D01*
X136785714Y-67607200D02*
X136642857Y-67654819D01*
X136642857Y-67654819D02*
X136547619Y-67654819D01*
X136547619Y-67654819D02*
X136404762Y-67607200D01*
X136404762Y-67607200D02*
X136309524Y-67511961D01*
X136309524Y-67511961D02*
X136261905Y-67416723D01*
X136261905Y-67416723D02*
X136214286Y-67226247D01*
X136214286Y-67226247D02*
X136214286Y-67083390D01*
X136214286Y-67083390D02*
X136261905Y-66892914D01*
X136261905Y-66892914D02*
X136309524Y-66797676D01*
X136309524Y-66797676D02*
X136404762Y-66702438D01*
X136404762Y-66702438D02*
X136547619Y-66654819D01*
X136547619Y-66654819D02*
X136642857Y-66654819D01*
X136642857Y-66654819D02*
X136785714Y-66702438D01*
X136785714Y-66702438D02*
X136833333Y-66750057D01*
X137785714Y-67654819D02*
X137214286Y-67654819D01*
X137500000Y-67654819D02*
X137500000Y-66654819D01*
X137500000Y-66654819D02*
X137404762Y-66797676D01*
X137404762Y-66797676D02*
X137309524Y-66892914D01*
X137309524Y-66892914D02*
X137214286Y-66940533D01*
X157514819Y-38563333D02*
X158229104Y-38563333D01*
X158229104Y-38563333D02*
X158371961Y-38610952D01*
X158371961Y-38610952D02*
X158467200Y-38706190D01*
X158467200Y-38706190D02*
X158514819Y-38849047D01*
X158514819Y-38849047D02*
X158514819Y-38944285D01*
X157610057Y-38134761D02*
X157562438Y-38087142D01*
X157562438Y-38087142D02*
X157514819Y-37991904D01*
X157514819Y-37991904D02*
X157514819Y-37753809D01*
X157514819Y-37753809D02*
X157562438Y-37658571D01*
X157562438Y-37658571D02*
X157610057Y-37610952D01*
X157610057Y-37610952D02*
X157705295Y-37563333D01*
X157705295Y-37563333D02*
X157800533Y-37563333D01*
X157800533Y-37563333D02*
X157943390Y-37610952D01*
X157943390Y-37610952D02*
X158514819Y-38182380D01*
X158514819Y-38182380D02*
X158514819Y-37563333D01*
X178904819Y-38423333D02*
X179619104Y-38423333D01*
X179619104Y-38423333D02*
X179761961Y-38470952D01*
X179761961Y-38470952D02*
X179857200Y-38566190D01*
X179857200Y-38566190D02*
X179904819Y-38709047D01*
X179904819Y-38709047D02*
X179904819Y-38804285D01*
X178904819Y-38042380D02*
X178904819Y-37423333D01*
X178904819Y-37423333D02*
X179285771Y-37756666D01*
X179285771Y-37756666D02*
X179285771Y-37613809D01*
X179285771Y-37613809D02*
X179333390Y-37518571D01*
X179333390Y-37518571D02*
X179381009Y-37470952D01*
X179381009Y-37470952D02*
X179476247Y-37423333D01*
X179476247Y-37423333D02*
X179714342Y-37423333D01*
X179714342Y-37423333D02*
X179809580Y-37470952D01*
X179809580Y-37470952D02*
X179857200Y-37518571D01*
X179857200Y-37518571D02*
X179904819Y-37613809D01*
X179904819Y-37613809D02*
X179904819Y-37899523D01*
X179904819Y-37899523D02*
X179857200Y-37994761D01*
X179857200Y-37994761D02*
X179809580Y-38042380D01*
X202916666Y-77654819D02*
X202916666Y-78369104D01*
X202916666Y-78369104D02*
X202869047Y-78511961D01*
X202869047Y-78511961D02*
X202773809Y-78607200D01*
X202773809Y-78607200D02*
X202630952Y-78654819D01*
X202630952Y-78654819D02*
X202535714Y-78654819D01*
X203440476Y-78654819D02*
X203630952Y-78654819D01*
X203630952Y-78654819D02*
X203726190Y-78607200D01*
X203726190Y-78607200D02*
X203773809Y-78559580D01*
X203773809Y-78559580D02*
X203869047Y-78416723D01*
X203869047Y-78416723D02*
X203916666Y-78226247D01*
X203916666Y-78226247D02*
X203916666Y-77845295D01*
X203916666Y-77845295D02*
X203869047Y-77750057D01*
X203869047Y-77750057D02*
X203821428Y-77702438D01*
X203821428Y-77702438D02*
X203726190Y-77654819D01*
X203726190Y-77654819D02*
X203535714Y-77654819D01*
X203535714Y-77654819D02*
X203440476Y-77702438D01*
X203440476Y-77702438D02*
X203392857Y-77750057D01*
X203392857Y-77750057D02*
X203345238Y-77845295D01*
X203345238Y-77845295D02*
X203345238Y-78083390D01*
X203345238Y-78083390D02*
X203392857Y-78178628D01*
X203392857Y-78178628D02*
X203440476Y-78226247D01*
X203440476Y-78226247D02*
X203535714Y-78273866D01*
X203535714Y-78273866D02*
X203726190Y-78273866D01*
X203726190Y-78273866D02*
X203821428Y-78226247D01*
X203821428Y-78226247D02*
X203869047Y-78178628D01*
X203869047Y-78178628D02*
X203916666Y-78083390D01*
X143218095Y-70904819D02*
X143218095Y-71714342D01*
X143218095Y-71714342D02*
X143265714Y-71809580D01*
X143265714Y-71809580D02*
X143313333Y-71857200D01*
X143313333Y-71857200D02*
X143408571Y-71904819D01*
X143408571Y-71904819D02*
X143599047Y-71904819D01*
X143599047Y-71904819D02*
X143694285Y-71857200D01*
X143694285Y-71857200D02*
X143741904Y-71809580D01*
X143741904Y-71809580D02*
X143789523Y-71714342D01*
X143789523Y-71714342D02*
X143789523Y-70904819D01*
X144218095Y-71000057D02*
X144265714Y-70952438D01*
X144265714Y-70952438D02*
X144360952Y-70904819D01*
X144360952Y-70904819D02*
X144599047Y-70904819D01*
X144599047Y-70904819D02*
X144694285Y-70952438D01*
X144694285Y-70952438D02*
X144741904Y-71000057D01*
X144741904Y-71000057D02*
X144789523Y-71095295D01*
X144789523Y-71095295D02*
X144789523Y-71190533D01*
X144789523Y-71190533D02*
X144741904Y-71333390D01*
X144741904Y-71333390D02*
X144170476Y-71904819D01*
X144170476Y-71904819D02*
X144789523Y-71904819D01*
X146124819Y-43714399D02*
X146362914Y-43714399D01*
X146267676Y-43952494D02*
X146362914Y-43714399D01*
X146362914Y-43714399D02*
X146267676Y-43476304D01*
X146553390Y-43857256D02*
X146362914Y-43714399D01*
X146362914Y-43714399D02*
X146553390Y-43571542D01*
X147215180Y-43714400D02*
X146977085Y-43714400D01*
X147072323Y-43476305D02*
X146977085Y-43714400D01*
X146977085Y-43714400D02*
X147072323Y-43952495D01*
X146786609Y-43571543D02*
X146977085Y-43714400D01*
X146977085Y-43714400D02*
X146786609Y-43857257D01*
X137024819Y-64795599D02*
X137262914Y-64795599D01*
X137167676Y-65033694D02*
X137262914Y-64795599D01*
X137262914Y-64795599D02*
X137167676Y-64557504D01*
X137453390Y-64938456D02*
X137262914Y-64795599D01*
X137262914Y-64795599D02*
X137453390Y-64652742D01*
X125028095Y-108164819D02*
X125028095Y-107164819D01*
X125028095Y-107641009D02*
X125599523Y-107641009D01*
X125599523Y-108164819D02*
X125599523Y-107164819D01*
X125980476Y-107164819D02*
X126599523Y-107164819D01*
X126599523Y-107164819D02*
X126266190Y-107545771D01*
X126266190Y-107545771D02*
X126409047Y-107545771D01*
X126409047Y-107545771D02*
X126504285Y-107593390D01*
X126504285Y-107593390D02*
X126551904Y-107641009D01*
X126551904Y-107641009D02*
X126599523Y-107736247D01*
X126599523Y-107736247D02*
X126599523Y-107974342D01*
X126599523Y-107974342D02*
X126551904Y-108069580D01*
X126551904Y-108069580D02*
X126504285Y-108117200D01*
X126504285Y-108117200D02*
X126409047Y-108164819D01*
X126409047Y-108164819D02*
X126123333Y-108164819D01*
X126123333Y-108164819D02*
X126028095Y-108117200D01*
X126028095Y-108117200D02*
X125980476Y-108069580D01*
X156568095Y-70904819D02*
X156568095Y-71714342D01*
X156568095Y-71714342D02*
X156615714Y-71809580D01*
X156615714Y-71809580D02*
X156663333Y-71857200D01*
X156663333Y-71857200D02*
X156758571Y-71904819D01*
X156758571Y-71904819D02*
X156949047Y-71904819D01*
X156949047Y-71904819D02*
X157044285Y-71857200D01*
X157044285Y-71857200D02*
X157091904Y-71809580D01*
X157091904Y-71809580D02*
X157139523Y-71714342D01*
X157139523Y-71714342D02*
X157139523Y-70904819D01*
X157520476Y-70904819D02*
X158139523Y-70904819D01*
X158139523Y-70904819D02*
X157806190Y-71285771D01*
X157806190Y-71285771D02*
X157949047Y-71285771D01*
X157949047Y-71285771D02*
X158044285Y-71333390D01*
X158044285Y-71333390D02*
X158091904Y-71381009D01*
X158091904Y-71381009D02*
X158139523Y-71476247D01*
X158139523Y-71476247D02*
X158139523Y-71714342D01*
X158139523Y-71714342D02*
X158091904Y-71809580D01*
X158091904Y-71809580D02*
X158044285Y-71857200D01*
X158044285Y-71857200D02*
X157949047Y-71904819D01*
X157949047Y-71904819D02*
X157663333Y-71904819D01*
X157663333Y-71904819D02*
X157568095Y-71857200D01*
X157568095Y-71857200D02*
X157520476Y-71809580D01*
D12*
%TO.C,U1*%
X127395000Y-72450000D02*
X127395000Y-92890000D01*
X127395000Y-92890000D02*
X133865000Y-92890000D01*
X129630000Y-72450000D02*
X127395000Y-72450000D01*
X133865000Y-72450000D02*
X131630000Y-72450000D01*
X133865000Y-92890000D02*
X133865000Y-72450000D01*
X131630000Y-72450000D02*
G75*
G02*
X129630000Y-72450000I-1000000J0D01*
G01*
D10*
%TO.C,K4*%
X126013000Y-44613400D02*
X126013000Y-63866600D01*
X126013000Y-63866600D02*
X131347000Y-63866600D01*
X131347000Y-44613400D02*
X126013000Y-44613400D01*
X131347000Y-63866600D02*
X131347000Y-44613400D01*
D12*
%TO.C,J8*%
X140660000Y-96620000D02*
X140660000Y-99280000D01*
X188980000Y-96620000D02*
X140660000Y-96620000D01*
X188980000Y-96620000D02*
X188980000Y-99280000D01*
X188980000Y-99280000D02*
X140660000Y-99280000D01*
X190250000Y-96620000D02*
X191580000Y-96620000D01*
X191580000Y-96620000D02*
X191580000Y-97950000D01*
%TO.C,J4*%
X198120000Y-79150000D02*
X199450000Y-79150000D01*
X198120000Y-80480000D02*
X198120000Y-79150000D01*
X198120000Y-81750000D02*
X198120000Y-86890000D01*
X198120000Y-81750000D02*
X200780000Y-81750000D01*
X198120000Y-86890000D02*
X200780000Y-86890000D01*
X200780000Y-81750000D02*
X200780000Y-86890000D01*
%TO.C,J10*%
X186670000Y-79090000D02*
X188000000Y-79090000D01*
X186670000Y-80420000D02*
X186670000Y-79090000D01*
X186670000Y-81690000D02*
X186670000Y-86830000D01*
X186670000Y-81690000D02*
X189330000Y-81690000D01*
X186670000Y-86830000D02*
X189330000Y-86830000D01*
X189330000Y-81690000D02*
X189330000Y-86830000D01*
%TO.C,R1*%
X170830000Y-77410000D02*
X170830000Y-83950000D01*
X170830000Y-83950000D02*
X173570000Y-83950000D01*
X172200000Y-74100000D02*
X172200000Y-77410000D01*
X172200000Y-87260000D02*
X172200000Y-83950000D01*
X173570000Y-77410000D02*
X170830000Y-77410000D01*
X173570000Y-83950000D02*
X173570000Y-77410000D01*
%TO.C,R3*%
X178930000Y-77410000D02*
X178930000Y-83950000D01*
X178930000Y-83950000D02*
X181670000Y-83950000D01*
X180300000Y-74100000D02*
X180300000Y-77410000D01*
X180300000Y-87260000D02*
X180300000Y-83950000D01*
X181670000Y-77410000D02*
X178930000Y-77410000D01*
X181670000Y-83950000D02*
X181670000Y-77410000D01*
%TO.C,MES3*%
X187230000Y-74170000D02*
X187230000Y-76830000D01*
X189830000Y-74170000D02*
X187230000Y-74170000D01*
X189830000Y-74170000D02*
X189830000Y-76830000D01*
X189830000Y-76830000D02*
X187230000Y-76830000D01*
X191100000Y-74170000D02*
X192430000Y-74170000D01*
X192430000Y-74170000D02*
X192430000Y-75500000D01*
D10*
%TO.C,K8*%
X164093000Y-44653400D02*
X164093000Y-63906600D01*
X164093000Y-63906600D02*
X169427000Y-63906600D01*
X169427000Y-44653400D02*
X164093000Y-44653400D01*
X169427000Y-63906600D02*
X169427000Y-44653400D01*
%TO.C,K7*%
X154103000Y-44653400D02*
X154103000Y-63906600D01*
X154103000Y-63906600D02*
X159437000Y-63906600D01*
X159437000Y-44653400D02*
X154103000Y-44653400D01*
X159437000Y-63906600D02*
X159437000Y-44653400D01*
D12*
%TO.C,J5*%
X140640000Y-115230000D02*
X140640000Y-113900000D01*
X141970000Y-115230000D02*
X140640000Y-115230000D01*
X143240000Y-112570000D02*
X191560000Y-112570000D01*
X143240000Y-115230000D02*
X143240000Y-112570000D01*
X143240000Y-115230000D02*
X191560000Y-115230000D01*
X191560000Y-115230000D02*
X191560000Y-112570000D01*
D10*
%TO.C,K3*%
X202961300Y-44512100D02*
X202961300Y-45822826D01*
X202961300Y-47697174D02*
X202961300Y-48362826D01*
X202961300Y-50237174D02*
X202961300Y-58522826D01*
X202961300Y-60397174D02*
X202961300Y-61062826D01*
X202961300Y-62937174D02*
X202961300Y-64247900D01*
X202961300Y-64247900D02*
X210098700Y-64247900D01*
X210098700Y-44512100D02*
X202961300Y-44512100D01*
X210098700Y-45822826D02*
X210098700Y-44512100D01*
X210098700Y-48362826D02*
X210098700Y-47697174D01*
X210098700Y-58522826D02*
X210098700Y-50237174D01*
X210098700Y-61062826D02*
X210098700Y-60397174D01*
X210098700Y-64247900D02*
X210098700Y-62937174D01*
D12*
%TO.C,J11*%
X190420000Y-79120000D02*
X191750000Y-79120000D01*
X190420000Y-80450000D02*
X190420000Y-79120000D01*
X190420000Y-81720000D02*
X190420000Y-86860000D01*
X190420000Y-81720000D02*
X193080000Y-81720000D01*
X190420000Y-86860000D02*
X193080000Y-86860000D01*
X193080000Y-81720000D02*
X193080000Y-86860000D01*
%TO.C,MES1*%
X198720000Y-74150000D02*
X198720000Y-76810000D01*
X201320000Y-74150000D02*
X198720000Y-74150000D01*
X201320000Y-74150000D02*
X201320000Y-76810000D01*
X201320000Y-76810000D02*
X198720000Y-76810000D01*
X202590000Y-74150000D02*
X203920000Y-74150000D01*
X203920000Y-74150000D02*
X203920000Y-75480000D01*
%TO.C,C1*%
X134380000Y-68330000D02*
X134380000Y-71070000D01*
X134380000Y-68330000D02*
X139620000Y-68330000D01*
X134380000Y-71070000D02*
X139620000Y-71070000D01*
X139620000Y-68330000D02*
X139620000Y-71070000D01*
%TO.C,R2*%
X174880000Y-77410000D02*
X174880000Y-83950000D01*
X174880000Y-83950000D02*
X177620000Y-83950000D01*
X176250000Y-74100000D02*
X176250000Y-77410000D01*
X176250000Y-87260000D02*
X176250000Y-83950000D01*
X177620000Y-77410000D02*
X174880000Y-77410000D01*
X177620000Y-83950000D02*
X177620000Y-77410000D01*
%TO.C,J1*%
X140650000Y-105230000D02*
X140650000Y-110430000D01*
X188970000Y-105230000D02*
X140650000Y-105230000D01*
X188970000Y-105230000D02*
X188970000Y-107830000D01*
X188970000Y-107830000D02*
X191570000Y-107830000D01*
X190240000Y-105230000D02*
X191570000Y-105230000D01*
X191570000Y-105230000D02*
X191570000Y-106560000D01*
X191570000Y-107830000D02*
X191570000Y-110430000D01*
X191570000Y-110430000D02*
X140650000Y-110430000D01*
D10*
%TO.C,K1*%
X176131300Y-44372100D02*
X176131300Y-45682826D01*
X176131300Y-47557174D02*
X176131300Y-48222826D01*
X176131300Y-50097174D02*
X176131300Y-58382826D01*
X176131300Y-60257174D02*
X176131300Y-60922826D01*
X176131300Y-62797174D02*
X176131300Y-64107900D01*
X176131300Y-64107900D02*
X183268700Y-64107900D01*
X183268700Y-44372100D02*
X176131300Y-44372100D01*
X183268700Y-45682826D02*
X183268700Y-44372100D01*
X183268700Y-48222826D02*
X183268700Y-47557174D01*
X183268700Y-58382826D02*
X183268700Y-50097174D01*
X183268700Y-60922826D02*
X183268700Y-60257174D01*
X183268700Y-64107900D02*
X183268700Y-62797174D01*
D12*
%TO.C,J2*%
X141260000Y-36900000D02*
X141260000Y-39560000D01*
X154020000Y-36900000D02*
X141260000Y-36900000D01*
X154020000Y-36900000D02*
X154020000Y-39560000D01*
X154020000Y-39560000D02*
X141260000Y-39560000D01*
X156620000Y-38230000D02*
X156620000Y-39560000D01*
X156620000Y-39560000D02*
X155290000Y-39560000D01*
D10*
%TO.C,K2*%
X189821300Y-44412100D02*
X189821300Y-45722826D01*
X189821300Y-47597174D02*
X189821300Y-48262826D01*
X189821300Y-50137174D02*
X189821300Y-58422826D01*
X189821300Y-60297174D02*
X189821300Y-60962826D01*
X189821300Y-62837174D02*
X189821300Y-64147900D01*
X189821300Y-64147900D02*
X196958700Y-64147900D01*
X196958700Y-44412100D02*
X189821300Y-44412100D01*
X196958700Y-45722826D02*
X196958700Y-44412100D01*
X196958700Y-48262826D02*
X196958700Y-47597174D01*
X196958700Y-58422826D02*
X196958700Y-50137174D01*
X196958700Y-60962826D02*
X196958700Y-60297174D01*
X196958700Y-64147900D02*
X196958700Y-62837174D01*
D12*
%TO.C,J3*%
X161920000Y-36850000D02*
X161920000Y-39510000D01*
X174680000Y-36850000D02*
X161920000Y-36850000D01*
X174680000Y-36850000D02*
X174680000Y-39510000D01*
X174680000Y-39510000D02*
X161920000Y-39510000D01*
X177280000Y-38180000D02*
X177280000Y-39510000D01*
X177280000Y-39510000D02*
X175950000Y-39510000D01*
%TO.C,J9*%
X201920000Y-79200000D02*
X203250000Y-79200000D01*
X201920000Y-80530000D02*
X201920000Y-79200000D01*
X201920000Y-81800000D02*
X201920000Y-86940000D01*
X201920000Y-81800000D02*
X204580000Y-81800000D01*
X201920000Y-86940000D02*
X204580000Y-86940000D01*
X204580000Y-81800000D02*
X204580000Y-86940000D01*
%TO.C,U2*%
X140745000Y-72450000D02*
X140745000Y-92890000D01*
X140745000Y-92890000D02*
X147215000Y-92890000D01*
X142980000Y-72450000D02*
X140745000Y-72450000D01*
X147215000Y-72450000D02*
X144980000Y-72450000D01*
X147215000Y-92890000D02*
X147215000Y-72450000D01*
X144980000Y-72450000D02*
G75*
G02*
X142980000Y-72450000I-1000000J0D01*
G01*
D10*
%TO.C,K6*%
X144003000Y-44603400D02*
X144003000Y-63856600D01*
X144003000Y-63856600D02*
X149337000Y-63856600D01*
X149337000Y-44603400D02*
X144003000Y-44603400D01*
X149337000Y-63856600D02*
X149337000Y-44603400D01*
%TO.C,K5*%
X134903000Y-44653400D02*
X134903000Y-63906600D01*
X134903000Y-63906600D02*
X140237000Y-63906600D01*
X140237000Y-44653400D02*
X134903000Y-44653400D01*
X140237000Y-63906600D02*
X140237000Y-44653400D01*
D12*
%TO.C,J6*%
X140610000Y-119180000D02*
X140610000Y-117850000D01*
X141940000Y-119180000D02*
X140610000Y-119180000D01*
X143210000Y-116520000D02*
X191530000Y-116520000D01*
X143210000Y-119180000D02*
X143210000Y-116520000D01*
X143210000Y-119180000D02*
X191530000Y-119180000D01*
X191530000Y-119180000D02*
X191530000Y-116520000D01*
%TO.C,U3*%
X154095000Y-72450000D02*
X154095000Y-92890000D01*
X154095000Y-92890000D02*
X160565000Y-92890000D01*
X156330000Y-72450000D02*
X154095000Y-72450000D01*
X160565000Y-72450000D02*
X158330000Y-72450000D01*
X160565000Y-92890000D02*
X160565000Y-72450000D01*
X158330000Y-72450000D02*
G75*
G02*
X156330000Y-72450000I-1000000J0D01*
G01*
%TO.C,J7*%
X140670000Y-100470000D02*
X140670000Y-103130000D01*
X188990000Y-100470000D02*
X140670000Y-100470000D01*
X188990000Y-100470000D02*
X188990000Y-103130000D01*
X188990000Y-103130000D02*
X140670000Y-103130000D01*
X190260000Y-100470000D02*
X191590000Y-100470000D01*
X191590000Y-100470000D02*
X191590000Y-101800000D01*
%TD*%
M02*
