%TF.GenerationSoftware,KiCad,Pcbnew,8.0.3*%
%TF.CreationDate,2024-06-12T06:30:55+01:00*%
%TF.ProjectId,VISIR_Lei_Ohm,56495349-525f-44c6-9569-5f4f686d2e6b,rev?*%
%TF.SameCoordinates,Original*%
%TF.FileFunction,Drillmap*%
%TF.FilePolarity,Positive*%
%FSLAX45Y45*%
G04 Gerber Fmt 4.5, Leading zero omitted, Abs format (unit mm)*
G04 Created by KiCad (PCBNEW 8.0.3) date 2024-06-12 06:30:55*
%MOMM*%
%LPD*%
G01*
G04 APERTURE LIST*
%ADD10C,0.050000*%
%ADD11C,0.200000*%
%ADD12C,0.320000*%
G04 APERTURE END LIST*
D10*
X12061000Y-3025000D02*
X21659000Y-3025000D01*
X21659000Y-12080000D01*
X12061000Y-12080000D01*
X12061000Y-3025000D01*
D11*
D12*
X12415000Y-3663000D02*
X12735000Y-3983000D01*
X12735000Y-3663000D02*
X12415000Y-3983000D01*
X12419000Y-11031000D02*
X12739000Y-11351000D01*
X12739000Y-11031000D02*
X12419000Y-11351000D01*
X20989000Y-3410000D02*
X21309000Y-3730000D01*
X21309000Y-3410000D02*
X20989000Y-3730000D01*
X20993000Y-11411000D02*
X21313000Y-11731000D01*
X21313000Y-11411000D02*
X20993000Y-11731000D01*
D11*
X12319277Y-12393984D02*
X12319277Y-12193984D01*
X12319277Y-12193984D02*
X12366896Y-12193984D01*
X12366896Y-12193984D02*
X12395467Y-12203508D01*
X12395467Y-12203508D02*
X12414515Y-12222555D01*
X12414515Y-12222555D02*
X12424039Y-12241603D01*
X12424039Y-12241603D02*
X12433562Y-12279698D01*
X12433562Y-12279698D02*
X12433562Y-12308269D01*
X12433562Y-12308269D02*
X12424039Y-12346365D01*
X12424039Y-12346365D02*
X12414515Y-12365412D01*
X12414515Y-12365412D02*
X12395467Y-12384460D01*
X12395467Y-12384460D02*
X12366896Y-12393984D01*
X12366896Y-12393984D02*
X12319277Y-12393984D01*
X12519277Y-12393984D02*
X12519277Y-12260650D01*
X12519277Y-12298746D02*
X12528801Y-12279698D01*
X12528801Y-12279698D02*
X12538324Y-12270174D01*
X12538324Y-12270174D02*
X12557372Y-12260650D01*
X12557372Y-12260650D02*
X12576420Y-12260650D01*
X12643086Y-12393984D02*
X12643086Y-12260650D01*
X12643086Y-12193984D02*
X12633562Y-12203508D01*
X12633562Y-12203508D02*
X12643086Y-12213031D01*
X12643086Y-12213031D02*
X12652610Y-12203508D01*
X12652610Y-12203508D02*
X12643086Y-12193984D01*
X12643086Y-12193984D02*
X12643086Y-12213031D01*
X12766896Y-12393984D02*
X12747848Y-12384460D01*
X12747848Y-12384460D02*
X12738324Y-12365412D01*
X12738324Y-12365412D02*
X12738324Y-12193984D01*
X12871658Y-12393984D02*
X12852610Y-12384460D01*
X12852610Y-12384460D02*
X12843086Y-12365412D01*
X12843086Y-12365412D02*
X12843086Y-12193984D01*
X13100229Y-12393984D02*
X13100229Y-12193984D01*
X13100229Y-12193984D02*
X13166896Y-12336841D01*
X13166896Y-12336841D02*
X13233562Y-12193984D01*
X13233562Y-12193984D02*
X13233562Y-12393984D01*
X13414515Y-12393984D02*
X13414515Y-12289222D01*
X13414515Y-12289222D02*
X13404991Y-12270174D01*
X13404991Y-12270174D02*
X13385943Y-12260650D01*
X13385943Y-12260650D02*
X13347848Y-12260650D01*
X13347848Y-12260650D02*
X13328801Y-12270174D01*
X13414515Y-12384460D02*
X13395467Y-12393984D01*
X13395467Y-12393984D02*
X13347848Y-12393984D01*
X13347848Y-12393984D02*
X13328801Y-12384460D01*
X13328801Y-12384460D02*
X13319277Y-12365412D01*
X13319277Y-12365412D02*
X13319277Y-12346365D01*
X13319277Y-12346365D02*
X13328801Y-12327317D01*
X13328801Y-12327317D02*
X13347848Y-12317793D01*
X13347848Y-12317793D02*
X13395467Y-12317793D01*
X13395467Y-12317793D02*
X13414515Y-12308269D01*
X13509753Y-12260650D02*
X13509753Y-12460650D01*
X13509753Y-12270174D02*
X13528801Y-12260650D01*
X13528801Y-12260650D02*
X13566896Y-12260650D01*
X13566896Y-12260650D02*
X13585943Y-12270174D01*
X13585943Y-12270174D02*
X13595467Y-12279698D01*
X13595467Y-12279698D02*
X13604991Y-12298746D01*
X13604991Y-12298746D02*
X13604991Y-12355888D01*
X13604991Y-12355888D02*
X13595467Y-12374936D01*
X13595467Y-12374936D02*
X13585943Y-12384460D01*
X13585943Y-12384460D02*
X13566896Y-12393984D01*
X13566896Y-12393984D02*
X13528801Y-12393984D01*
X13528801Y-12393984D02*
X13509753Y-12384460D01*
X13690705Y-12374936D02*
X13700229Y-12384460D01*
X13700229Y-12384460D02*
X13690705Y-12393984D01*
X13690705Y-12393984D02*
X13681182Y-12384460D01*
X13681182Y-12384460D02*
X13690705Y-12374936D01*
X13690705Y-12374936D02*
X13690705Y-12393984D01*
X13690705Y-12270174D02*
X13700229Y-12279698D01*
X13700229Y-12279698D02*
X13690705Y-12289222D01*
X13690705Y-12289222D02*
X13681182Y-12279698D01*
X13681182Y-12279698D02*
X13690705Y-12270174D01*
X13690705Y-12270174D02*
X13690705Y-12289222D01*
X11858500Y-12622500D02*
X12058500Y-12822500D01*
X12058500Y-12622500D02*
X11858500Y-12822500D01*
X12300229Y-12613984D02*
X12424039Y-12613984D01*
X12424039Y-12613984D02*
X12357372Y-12690174D01*
X12357372Y-12690174D02*
X12385943Y-12690174D01*
X12385943Y-12690174D02*
X12404991Y-12699698D01*
X12404991Y-12699698D02*
X12414515Y-12709222D01*
X12414515Y-12709222D02*
X12424039Y-12728269D01*
X12424039Y-12728269D02*
X12424039Y-12775888D01*
X12424039Y-12775888D02*
X12414515Y-12794936D01*
X12414515Y-12794936D02*
X12404991Y-12804460D01*
X12404991Y-12804460D02*
X12385943Y-12813984D01*
X12385943Y-12813984D02*
X12328801Y-12813984D01*
X12328801Y-12813984D02*
X12309753Y-12804460D01*
X12309753Y-12804460D02*
X12300229Y-12794936D01*
X12509753Y-12794936D02*
X12519277Y-12804460D01*
X12519277Y-12804460D02*
X12509753Y-12813984D01*
X12509753Y-12813984D02*
X12500229Y-12804460D01*
X12500229Y-12804460D02*
X12509753Y-12794936D01*
X12509753Y-12794936D02*
X12509753Y-12813984D01*
X12595467Y-12633031D02*
X12604991Y-12623508D01*
X12604991Y-12623508D02*
X12624039Y-12613984D01*
X12624039Y-12613984D02*
X12671658Y-12613984D01*
X12671658Y-12613984D02*
X12690705Y-12623508D01*
X12690705Y-12623508D02*
X12700229Y-12633031D01*
X12700229Y-12633031D02*
X12709753Y-12652079D01*
X12709753Y-12652079D02*
X12709753Y-12671127D01*
X12709753Y-12671127D02*
X12700229Y-12699698D01*
X12700229Y-12699698D02*
X12585943Y-12813984D01*
X12585943Y-12813984D02*
X12709753Y-12813984D01*
X12833562Y-12613984D02*
X12852610Y-12613984D01*
X12852610Y-12613984D02*
X12871658Y-12623508D01*
X12871658Y-12623508D02*
X12881182Y-12633031D01*
X12881182Y-12633031D02*
X12890705Y-12652079D01*
X12890705Y-12652079D02*
X12900229Y-12690174D01*
X12900229Y-12690174D02*
X12900229Y-12737793D01*
X12900229Y-12737793D02*
X12890705Y-12775888D01*
X12890705Y-12775888D02*
X12881182Y-12794936D01*
X12881182Y-12794936D02*
X12871658Y-12804460D01*
X12871658Y-12804460D02*
X12852610Y-12813984D01*
X12852610Y-12813984D02*
X12833562Y-12813984D01*
X12833562Y-12813984D02*
X12814515Y-12804460D01*
X12814515Y-12804460D02*
X12804991Y-12794936D01*
X12804991Y-12794936D02*
X12795467Y-12775888D01*
X12795467Y-12775888D02*
X12785943Y-12737793D01*
X12785943Y-12737793D02*
X12785943Y-12690174D01*
X12785943Y-12690174D02*
X12795467Y-12652079D01*
X12795467Y-12652079D02*
X12804991Y-12633031D01*
X12804991Y-12633031D02*
X12814515Y-12623508D01*
X12814515Y-12623508D02*
X12833562Y-12613984D01*
X13024039Y-12613984D02*
X13043086Y-12613984D01*
X13043086Y-12613984D02*
X13062134Y-12623508D01*
X13062134Y-12623508D02*
X13071658Y-12633031D01*
X13071658Y-12633031D02*
X13081182Y-12652079D01*
X13081182Y-12652079D02*
X13090705Y-12690174D01*
X13090705Y-12690174D02*
X13090705Y-12737793D01*
X13090705Y-12737793D02*
X13081182Y-12775888D01*
X13081182Y-12775888D02*
X13071658Y-12794936D01*
X13071658Y-12794936D02*
X13062134Y-12804460D01*
X13062134Y-12804460D02*
X13043086Y-12813984D01*
X13043086Y-12813984D02*
X13024039Y-12813984D01*
X13024039Y-12813984D02*
X13004991Y-12804460D01*
X13004991Y-12804460D02*
X12995467Y-12794936D01*
X12995467Y-12794936D02*
X12985943Y-12775888D01*
X12985943Y-12775888D02*
X12976420Y-12737793D01*
X12976420Y-12737793D02*
X12976420Y-12690174D01*
X12976420Y-12690174D02*
X12985943Y-12652079D01*
X12985943Y-12652079D02*
X12995467Y-12633031D01*
X12995467Y-12633031D02*
X13004991Y-12623508D01*
X13004991Y-12623508D02*
X13024039Y-12613984D01*
X13176420Y-12813984D02*
X13176420Y-12680650D01*
X13176420Y-12699698D02*
X13185943Y-12690174D01*
X13185943Y-12690174D02*
X13204991Y-12680650D01*
X13204991Y-12680650D02*
X13233563Y-12680650D01*
X13233563Y-12680650D02*
X13252610Y-12690174D01*
X13252610Y-12690174D02*
X13262134Y-12709222D01*
X13262134Y-12709222D02*
X13262134Y-12813984D01*
X13262134Y-12709222D02*
X13271658Y-12690174D01*
X13271658Y-12690174D02*
X13290705Y-12680650D01*
X13290705Y-12680650D02*
X13319277Y-12680650D01*
X13319277Y-12680650D02*
X13338324Y-12690174D01*
X13338324Y-12690174D02*
X13347848Y-12709222D01*
X13347848Y-12709222D02*
X13347848Y-12813984D01*
X13443086Y-12813984D02*
X13443086Y-12680650D01*
X13443086Y-12699698D02*
X13452610Y-12690174D01*
X13452610Y-12690174D02*
X13471658Y-12680650D01*
X13471658Y-12680650D02*
X13500229Y-12680650D01*
X13500229Y-12680650D02*
X13519277Y-12690174D01*
X13519277Y-12690174D02*
X13528801Y-12709222D01*
X13528801Y-12709222D02*
X13528801Y-12813984D01*
X13528801Y-12709222D02*
X13538324Y-12690174D01*
X13538324Y-12690174D02*
X13557372Y-12680650D01*
X13557372Y-12680650D02*
X13585943Y-12680650D01*
X13585943Y-12680650D02*
X13604991Y-12690174D01*
X13604991Y-12690174D02*
X13614515Y-12709222D01*
X13614515Y-12709222D02*
X13614515Y-12813984D01*
X14004991Y-12604460D02*
X13833563Y-12861603D01*
X14262134Y-12613984D02*
X14281182Y-12613984D01*
X14281182Y-12613984D02*
X14300229Y-12623508D01*
X14300229Y-12623508D02*
X14309753Y-12633031D01*
X14309753Y-12633031D02*
X14319277Y-12652079D01*
X14319277Y-12652079D02*
X14328801Y-12690174D01*
X14328801Y-12690174D02*
X14328801Y-12737793D01*
X14328801Y-12737793D02*
X14319277Y-12775888D01*
X14319277Y-12775888D02*
X14309753Y-12794936D01*
X14309753Y-12794936D02*
X14300229Y-12804460D01*
X14300229Y-12804460D02*
X14281182Y-12813984D01*
X14281182Y-12813984D02*
X14262134Y-12813984D01*
X14262134Y-12813984D02*
X14243086Y-12804460D01*
X14243086Y-12804460D02*
X14233563Y-12794936D01*
X14233563Y-12794936D02*
X14224039Y-12775888D01*
X14224039Y-12775888D02*
X14214515Y-12737793D01*
X14214515Y-12737793D02*
X14214515Y-12690174D01*
X14214515Y-12690174D02*
X14224039Y-12652079D01*
X14224039Y-12652079D02*
X14233563Y-12633031D01*
X14233563Y-12633031D02*
X14243086Y-12623508D01*
X14243086Y-12623508D02*
X14262134Y-12613984D01*
X14414515Y-12794936D02*
X14424039Y-12804460D01*
X14424039Y-12804460D02*
X14414515Y-12813984D01*
X14414515Y-12813984D02*
X14404991Y-12804460D01*
X14404991Y-12804460D02*
X14414515Y-12794936D01*
X14414515Y-12794936D02*
X14414515Y-12813984D01*
X14614515Y-12813984D02*
X14500229Y-12813984D01*
X14557372Y-12813984D02*
X14557372Y-12613984D01*
X14557372Y-12613984D02*
X14538325Y-12642555D01*
X14538325Y-12642555D02*
X14519277Y-12661603D01*
X14519277Y-12661603D02*
X14500229Y-12671127D01*
X14690706Y-12633031D02*
X14700229Y-12623508D01*
X14700229Y-12623508D02*
X14719277Y-12613984D01*
X14719277Y-12613984D02*
X14766896Y-12613984D01*
X14766896Y-12613984D02*
X14785944Y-12623508D01*
X14785944Y-12623508D02*
X14795467Y-12633031D01*
X14795467Y-12633031D02*
X14804991Y-12652079D01*
X14804991Y-12652079D02*
X14804991Y-12671127D01*
X14804991Y-12671127D02*
X14795467Y-12699698D01*
X14795467Y-12699698D02*
X14681182Y-12813984D01*
X14681182Y-12813984D02*
X14804991Y-12813984D01*
X14976420Y-12613984D02*
X14938325Y-12613984D01*
X14938325Y-12613984D02*
X14919277Y-12623508D01*
X14919277Y-12623508D02*
X14909753Y-12633031D01*
X14909753Y-12633031D02*
X14890706Y-12661603D01*
X14890706Y-12661603D02*
X14881182Y-12699698D01*
X14881182Y-12699698D02*
X14881182Y-12775888D01*
X14881182Y-12775888D02*
X14890706Y-12794936D01*
X14890706Y-12794936D02*
X14900229Y-12804460D01*
X14900229Y-12804460D02*
X14919277Y-12813984D01*
X14919277Y-12813984D02*
X14957372Y-12813984D01*
X14957372Y-12813984D02*
X14976420Y-12804460D01*
X14976420Y-12804460D02*
X14985944Y-12794936D01*
X14985944Y-12794936D02*
X14995467Y-12775888D01*
X14995467Y-12775888D02*
X14995467Y-12728269D01*
X14995467Y-12728269D02*
X14985944Y-12709222D01*
X14985944Y-12709222D02*
X14976420Y-12699698D01*
X14976420Y-12699698D02*
X14957372Y-12690174D01*
X14957372Y-12690174D02*
X14919277Y-12690174D01*
X14919277Y-12690174D02*
X14900229Y-12699698D01*
X14900229Y-12699698D02*
X14890706Y-12709222D01*
X14890706Y-12709222D02*
X14881182Y-12728269D01*
X15119277Y-12613984D02*
X15138325Y-12613984D01*
X15138325Y-12613984D02*
X15157372Y-12623508D01*
X15157372Y-12623508D02*
X15166896Y-12633031D01*
X15166896Y-12633031D02*
X15176420Y-12652079D01*
X15176420Y-12652079D02*
X15185944Y-12690174D01*
X15185944Y-12690174D02*
X15185944Y-12737793D01*
X15185944Y-12737793D02*
X15176420Y-12775888D01*
X15176420Y-12775888D02*
X15166896Y-12794936D01*
X15166896Y-12794936D02*
X15157372Y-12804460D01*
X15157372Y-12804460D02*
X15138325Y-12813984D01*
X15138325Y-12813984D02*
X15119277Y-12813984D01*
X15119277Y-12813984D02*
X15100229Y-12804460D01*
X15100229Y-12804460D02*
X15090706Y-12794936D01*
X15090706Y-12794936D02*
X15081182Y-12775888D01*
X15081182Y-12775888D02*
X15071658Y-12737793D01*
X15071658Y-12737793D02*
X15071658Y-12690174D01*
X15071658Y-12690174D02*
X15081182Y-12652079D01*
X15081182Y-12652079D02*
X15090706Y-12633031D01*
X15090706Y-12633031D02*
X15100229Y-12623508D01*
X15100229Y-12623508D02*
X15119277Y-12613984D01*
X15262134Y-12613984D02*
X15262134Y-12652079D01*
X15338325Y-12613984D02*
X15338325Y-12652079D01*
X15633563Y-12890174D02*
X15624039Y-12880650D01*
X15624039Y-12880650D02*
X15604991Y-12852079D01*
X15604991Y-12852079D02*
X15595468Y-12833031D01*
X15595468Y-12833031D02*
X15585944Y-12804460D01*
X15585944Y-12804460D02*
X15576420Y-12756841D01*
X15576420Y-12756841D02*
X15576420Y-12718746D01*
X15576420Y-12718746D02*
X15585944Y-12671127D01*
X15585944Y-12671127D02*
X15595468Y-12642555D01*
X15595468Y-12642555D02*
X15604991Y-12623508D01*
X15604991Y-12623508D02*
X15624039Y-12594936D01*
X15624039Y-12594936D02*
X15633563Y-12585412D01*
X15795468Y-12680650D02*
X15795468Y-12813984D01*
X15747848Y-12604460D02*
X15700229Y-12747317D01*
X15700229Y-12747317D02*
X15824039Y-12747317D01*
X16052610Y-12813984D02*
X16052610Y-12613984D01*
X16138325Y-12813984D02*
X16138325Y-12709222D01*
X16138325Y-12709222D02*
X16128801Y-12690174D01*
X16128801Y-12690174D02*
X16109753Y-12680650D01*
X16109753Y-12680650D02*
X16081182Y-12680650D01*
X16081182Y-12680650D02*
X16062134Y-12690174D01*
X16062134Y-12690174D02*
X16052610Y-12699698D01*
X16262134Y-12813984D02*
X16243087Y-12804460D01*
X16243087Y-12804460D02*
X16233563Y-12794936D01*
X16233563Y-12794936D02*
X16224039Y-12775888D01*
X16224039Y-12775888D02*
X16224039Y-12718746D01*
X16224039Y-12718746D02*
X16233563Y-12699698D01*
X16233563Y-12699698D02*
X16243087Y-12690174D01*
X16243087Y-12690174D02*
X16262134Y-12680650D01*
X16262134Y-12680650D02*
X16290706Y-12680650D01*
X16290706Y-12680650D02*
X16309753Y-12690174D01*
X16309753Y-12690174D02*
X16319277Y-12699698D01*
X16319277Y-12699698D02*
X16328801Y-12718746D01*
X16328801Y-12718746D02*
X16328801Y-12775888D01*
X16328801Y-12775888D02*
X16319277Y-12794936D01*
X16319277Y-12794936D02*
X16309753Y-12804460D01*
X16309753Y-12804460D02*
X16290706Y-12813984D01*
X16290706Y-12813984D02*
X16262134Y-12813984D01*
X16443087Y-12813984D02*
X16424039Y-12804460D01*
X16424039Y-12804460D02*
X16414515Y-12785412D01*
X16414515Y-12785412D02*
X16414515Y-12613984D01*
X16595468Y-12804460D02*
X16576420Y-12813984D01*
X16576420Y-12813984D02*
X16538325Y-12813984D01*
X16538325Y-12813984D02*
X16519277Y-12804460D01*
X16519277Y-12804460D02*
X16509753Y-12785412D01*
X16509753Y-12785412D02*
X16509753Y-12709222D01*
X16509753Y-12709222D02*
X16519277Y-12690174D01*
X16519277Y-12690174D02*
X16538325Y-12680650D01*
X16538325Y-12680650D02*
X16576420Y-12680650D01*
X16576420Y-12680650D02*
X16595468Y-12690174D01*
X16595468Y-12690174D02*
X16604991Y-12709222D01*
X16604991Y-12709222D02*
X16604991Y-12728269D01*
X16604991Y-12728269D02*
X16509753Y-12747317D01*
X16681182Y-12804460D02*
X16700230Y-12813984D01*
X16700230Y-12813984D02*
X16738325Y-12813984D01*
X16738325Y-12813984D02*
X16757372Y-12804460D01*
X16757372Y-12804460D02*
X16766896Y-12785412D01*
X16766896Y-12785412D02*
X16766896Y-12775888D01*
X16766896Y-12775888D02*
X16757372Y-12756841D01*
X16757372Y-12756841D02*
X16738325Y-12747317D01*
X16738325Y-12747317D02*
X16709753Y-12747317D01*
X16709753Y-12747317D02*
X16690706Y-12737793D01*
X16690706Y-12737793D02*
X16681182Y-12718746D01*
X16681182Y-12718746D02*
X16681182Y-12709222D01*
X16681182Y-12709222D02*
X16690706Y-12690174D01*
X16690706Y-12690174D02*
X16709753Y-12680650D01*
X16709753Y-12680650D02*
X16738325Y-12680650D01*
X16738325Y-12680650D02*
X16757372Y-12690174D01*
X16833563Y-12890174D02*
X16843087Y-12880650D01*
X16843087Y-12880650D02*
X16862134Y-12852079D01*
X16862134Y-12852079D02*
X16871658Y-12833031D01*
X16871658Y-12833031D02*
X16881182Y-12804460D01*
X16881182Y-12804460D02*
X16890706Y-12756841D01*
X16890706Y-12756841D02*
X16890706Y-12718746D01*
X16890706Y-12718746D02*
X16881182Y-12671127D01*
X16881182Y-12671127D02*
X16871658Y-12642555D01*
X16871658Y-12642555D02*
X16862134Y-12623508D01*
X16862134Y-12623508D02*
X16843087Y-12594936D01*
X16843087Y-12594936D02*
X16833563Y-12585412D01*
X17195468Y-12890174D02*
X17185944Y-12880650D01*
X17185944Y-12880650D02*
X17166896Y-12852079D01*
X17166896Y-12852079D02*
X17157373Y-12833031D01*
X17157373Y-12833031D02*
X17147849Y-12804460D01*
X17147849Y-12804460D02*
X17138325Y-12756841D01*
X17138325Y-12756841D02*
X17138325Y-12718746D01*
X17138325Y-12718746D02*
X17147849Y-12671127D01*
X17147849Y-12671127D02*
X17157373Y-12642555D01*
X17157373Y-12642555D02*
X17166896Y-12623508D01*
X17166896Y-12623508D02*
X17185944Y-12594936D01*
X17185944Y-12594936D02*
X17195468Y-12585412D01*
X17271658Y-12680650D02*
X17271658Y-12813984D01*
X17271658Y-12699698D02*
X17281182Y-12690174D01*
X17281182Y-12690174D02*
X17300230Y-12680650D01*
X17300230Y-12680650D02*
X17328801Y-12680650D01*
X17328801Y-12680650D02*
X17347849Y-12690174D01*
X17347849Y-12690174D02*
X17357373Y-12709222D01*
X17357373Y-12709222D02*
X17357373Y-12813984D01*
X17481182Y-12813984D02*
X17462134Y-12804460D01*
X17462134Y-12804460D02*
X17452611Y-12794936D01*
X17452611Y-12794936D02*
X17443087Y-12775888D01*
X17443087Y-12775888D02*
X17443087Y-12718746D01*
X17443087Y-12718746D02*
X17452611Y-12699698D01*
X17452611Y-12699698D02*
X17462134Y-12690174D01*
X17462134Y-12690174D02*
X17481182Y-12680650D01*
X17481182Y-12680650D02*
X17509754Y-12680650D01*
X17509754Y-12680650D02*
X17528801Y-12690174D01*
X17528801Y-12690174D02*
X17538325Y-12699698D01*
X17538325Y-12699698D02*
X17547849Y-12718746D01*
X17547849Y-12718746D02*
X17547849Y-12775888D01*
X17547849Y-12775888D02*
X17538325Y-12794936D01*
X17538325Y-12794936D02*
X17528801Y-12804460D01*
X17528801Y-12804460D02*
X17509754Y-12813984D01*
X17509754Y-12813984D02*
X17481182Y-12813984D01*
X17604992Y-12680650D02*
X17681182Y-12680650D01*
X17633563Y-12613984D02*
X17633563Y-12785412D01*
X17633563Y-12785412D02*
X17643087Y-12804460D01*
X17643087Y-12804460D02*
X17662134Y-12813984D01*
X17662134Y-12813984D02*
X17681182Y-12813984D01*
X17900230Y-12680650D02*
X17900230Y-12880650D01*
X17900230Y-12690174D02*
X17919277Y-12680650D01*
X17919277Y-12680650D02*
X17957373Y-12680650D01*
X17957373Y-12680650D02*
X17976420Y-12690174D01*
X17976420Y-12690174D02*
X17985944Y-12699698D01*
X17985944Y-12699698D02*
X17995468Y-12718746D01*
X17995468Y-12718746D02*
X17995468Y-12775888D01*
X17995468Y-12775888D02*
X17985944Y-12794936D01*
X17985944Y-12794936D02*
X17976420Y-12804460D01*
X17976420Y-12804460D02*
X17957373Y-12813984D01*
X17957373Y-12813984D02*
X17919277Y-12813984D01*
X17919277Y-12813984D02*
X17900230Y-12804460D01*
X18109754Y-12813984D02*
X18090706Y-12804460D01*
X18090706Y-12804460D02*
X18081182Y-12785412D01*
X18081182Y-12785412D02*
X18081182Y-12613984D01*
X18271658Y-12813984D02*
X18271658Y-12709222D01*
X18271658Y-12709222D02*
X18262135Y-12690174D01*
X18262135Y-12690174D02*
X18243087Y-12680650D01*
X18243087Y-12680650D02*
X18204992Y-12680650D01*
X18204992Y-12680650D02*
X18185944Y-12690174D01*
X18271658Y-12804460D02*
X18252611Y-12813984D01*
X18252611Y-12813984D02*
X18204992Y-12813984D01*
X18204992Y-12813984D02*
X18185944Y-12804460D01*
X18185944Y-12804460D02*
X18176420Y-12785412D01*
X18176420Y-12785412D02*
X18176420Y-12766365D01*
X18176420Y-12766365D02*
X18185944Y-12747317D01*
X18185944Y-12747317D02*
X18204992Y-12737793D01*
X18204992Y-12737793D02*
X18252611Y-12737793D01*
X18252611Y-12737793D02*
X18271658Y-12728269D01*
X18338325Y-12680650D02*
X18414515Y-12680650D01*
X18366896Y-12613984D02*
X18366896Y-12785412D01*
X18366896Y-12785412D02*
X18376420Y-12804460D01*
X18376420Y-12804460D02*
X18395468Y-12813984D01*
X18395468Y-12813984D02*
X18414515Y-12813984D01*
X18557373Y-12804460D02*
X18538325Y-12813984D01*
X18538325Y-12813984D02*
X18500230Y-12813984D01*
X18500230Y-12813984D02*
X18481182Y-12804460D01*
X18481182Y-12804460D02*
X18471658Y-12785412D01*
X18471658Y-12785412D02*
X18471658Y-12709222D01*
X18471658Y-12709222D02*
X18481182Y-12690174D01*
X18481182Y-12690174D02*
X18500230Y-12680650D01*
X18500230Y-12680650D02*
X18538325Y-12680650D01*
X18538325Y-12680650D02*
X18557373Y-12690174D01*
X18557373Y-12690174D02*
X18566896Y-12709222D01*
X18566896Y-12709222D02*
X18566896Y-12728269D01*
X18566896Y-12728269D02*
X18471658Y-12747317D01*
X18738325Y-12813984D02*
X18738325Y-12613984D01*
X18738325Y-12804460D02*
X18719277Y-12813984D01*
X18719277Y-12813984D02*
X18681182Y-12813984D01*
X18681182Y-12813984D02*
X18662135Y-12804460D01*
X18662135Y-12804460D02*
X18652611Y-12794936D01*
X18652611Y-12794936D02*
X18643087Y-12775888D01*
X18643087Y-12775888D02*
X18643087Y-12718746D01*
X18643087Y-12718746D02*
X18652611Y-12699698D01*
X18652611Y-12699698D02*
X18662135Y-12690174D01*
X18662135Y-12690174D02*
X18681182Y-12680650D01*
X18681182Y-12680650D02*
X18719277Y-12680650D01*
X18719277Y-12680650D02*
X18738325Y-12690174D01*
X18814516Y-12890174D02*
X18824039Y-12880650D01*
X18824039Y-12880650D02*
X18843087Y-12852079D01*
X18843087Y-12852079D02*
X18852611Y-12833031D01*
X18852611Y-12833031D02*
X18862135Y-12804460D01*
X18862135Y-12804460D02*
X18871658Y-12756841D01*
X18871658Y-12756841D02*
X18871658Y-12718746D01*
X18871658Y-12718746D02*
X18862135Y-12671127D01*
X18862135Y-12671127D02*
X18852611Y-12642555D01*
X18852611Y-12642555D02*
X18843087Y-12623508D01*
X18843087Y-12623508D02*
X18824039Y-12594936D01*
X18824039Y-12594936D02*
X18814516Y-12585412D01*
M02*
