M48
; DRILL file {KiCad 8.0.3} date 2024-06-12T06:30:53+0100
; FORMAT={-:-/ absolute / inch / decimal}
; #@! TF.CreationDate,2024-06-12T06:30:53+01:00
; #@! TF.GenerationSoftware,Kicad,Pcbnew,8.0.3
; #@! TF.FileFunction,Plated,1,2,PTH
FMAT,2
INCH
; #@! TA.AperFunction,Plated,PTH,ViaDrill
T1C0.0118
; #@! TA.AperFunction,Plated,PTH,ComponentDrill
T2C0.0300
; #@! TA.AperFunction,Plated,PTH,ComponentDrill
T3C0.0315
; #@! TA.AperFunction,Plated,PTH,ComponentDrill
T4C0.0394
%
G90
G05
T1
X5.6511Y-2.1884
X7.0051Y-1.9223
X7.0051Y-2.3612
T2
X5.0661Y-1.8354
X5.0661Y-2.0354
X5.0661Y-2.2354
X5.0661Y-2.4354
X5.4161Y-1.837
X5.4161Y-2.037
X5.4161Y-2.237
X5.4161Y-2.437
X5.7744Y-1.835
X5.7744Y-2.035
X5.7744Y-2.235
X5.7744Y-2.435
X6.172Y-1.837
X6.172Y-2.037
X6.172Y-2.237
X6.172Y-2.437
X6.5654Y-1.837
X6.5654Y-2.037
X6.5654Y-2.237
X6.5654Y-2.437
X6.9248Y-1.8354
X6.9248Y-1.9354
X6.9248Y-2.3354
X6.9248Y-2.4354
X7.2248Y-1.8354
X7.2248Y-1.9354
X7.2248Y-2.3354
X7.2248Y-2.4354
X7.4638Y-1.837
X7.4638Y-1.937
X7.4638Y-2.337
X7.4638Y-2.437
X7.7638Y-1.837
X7.7638Y-1.937
X7.7638Y-2.337
X7.7638Y-2.437
X7.9811Y-1.8409
X7.9811Y-1.9409
X7.9811Y-2.3409
X7.9811Y-2.4409
X8.2811Y-1.8409
X8.2811Y-1.9409
X8.2811Y-2.3409
X8.2811Y-2.4409
T3
X4.9429Y-2.9047
X4.9429Y-3.0047
X4.9429Y-3.1047
X4.9429Y-3.2047
X4.9429Y-3.3047
X4.9429Y-3.4047
X4.9429Y-3.5047
X4.9429Y-3.6047
X5.3429Y-2.9047
X5.3429Y-3.0047
X5.3429Y-3.1047
X5.3429Y-3.2047
X5.3429Y-3.3047
X5.3429Y-3.4047
X5.3429Y-3.5047
X5.3429Y-3.6047
X5.3445Y-2.7441
X5.4429Y-2.7441
X5.4685Y-2.9047
X5.4685Y-3.0047
X5.4685Y-3.1047
X5.4685Y-3.2047
X5.4685Y-3.3047
X5.4685Y-3.4047
X5.4685Y-3.5047
X5.4685Y-3.6047
X5.8685Y-2.9047
X5.8685Y-3.0047
X5.8685Y-3.1047
X5.8685Y-3.2047
X5.8685Y-3.3047
X5.8685Y-3.4047
X5.8685Y-3.5047
X5.8685Y-3.6047
X5.9941Y-2.9047
X5.9941Y-3.0047
X5.9941Y-3.1047
X5.9941Y-3.2047
X5.9941Y-3.3047
X5.9941Y-3.4047
X5.9941Y-3.5047
X5.9941Y-3.6047
X6.3941Y-2.9047
X6.3941Y-3.0047
X6.3941Y-3.1047
X6.3941Y-3.2047
X6.3941Y-3.3047
X6.3941Y-3.4047
X6.3941Y-3.5047
X6.3941Y-3.6047
X6.7795Y-2.8764
X6.7795Y-3.4764
X6.939Y-2.8764
X6.939Y-3.4764
X7.0984Y-2.8764
X7.0984Y-3.4764
T4
X5.5882Y-4.6398
X5.5894Y-4.4843
X5.5898Y-4.1953
X5.5898Y-4.2953
X5.5902Y-3.8563
X5.5906Y-4.0079
X5.6138Y-1.5051
X5.6882Y-4.6398
X5.6894Y-4.4843
X5.6898Y-4.1953
X5.6898Y-4.2953
X5.6902Y-3.8563
X5.6906Y-4.0079
X5.7138Y-1.5051
X5.7882Y-4.6398
X5.7894Y-4.4843
X5.7898Y-4.1953
X5.7898Y-4.2953
X5.7902Y-3.8563
X5.7906Y-4.0079
X5.8138Y-1.5051
X5.8882Y-4.6398
X5.8894Y-4.4843
X5.8898Y-4.1953
X5.8898Y-4.2953
X5.8902Y-3.8563
X5.8906Y-4.0079
X5.9138Y-1.5051
X5.9882Y-4.6398
X5.9894Y-4.4843
X5.9898Y-4.1953
X5.9898Y-4.2953
X5.9902Y-3.8563
X5.9906Y-4.0079
X6.0138Y-1.5051
X6.0882Y-4.6398
X6.0894Y-4.4843
X6.0898Y-4.1953
X6.0898Y-4.2953
X6.0902Y-3.8563
X6.0906Y-4.0079
X6.1138Y-1.5051
X6.1882Y-4.6398
X6.1894Y-4.4843
X6.1898Y-4.1953
X6.1898Y-4.2953
X6.1902Y-3.8563
X6.1906Y-4.0079
X6.2882Y-4.6398
X6.2894Y-4.4843
X6.2898Y-4.1953
X6.2898Y-4.2953
X6.2902Y-3.8563
X6.2906Y-4.0079
X6.3882Y-4.6398
X6.3894Y-4.4843
X6.3898Y-4.1953
X6.3898Y-4.2953
X6.3902Y-3.8563
X6.3906Y-4.0079
X6.4272Y-1.5031
X6.4882Y-4.6398
X6.4894Y-4.4843
X6.4898Y-4.1953
X6.4898Y-4.2953
X6.4902Y-3.8563
X6.4906Y-4.0079
X6.5272Y-1.5031
X6.5882Y-4.6398
X6.5894Y-4.4843
X6.5898Y-4.1953
X6.5898Y-4.2953
X6.5902Y-3.8563
X6.5906Y-4.0079
X6.6272Y-1.5031
X6.6882Y-4.6398
X6.6894Y-4.4843
X6.6898Y-4.1953
X6.6898Y-4.2953
X6.6902Y-3.8563
X6.6906Y-4.0079
X6.7272Y-1.5031
X6.7882Y-4.6398
X6.7894Y-4.4843
X6.7898Y-4.1953
X6.7898Y-4.2953
X6.7902Y-3.8563
X6.7906Y-4.0079
X6.8272Y-1.5031
X6.8882Y-4.6398
X6.8894Y-4.4843
X6.8898Y-4.1953
X6.8898Y-4.2953
X6.8902Y-3.8563
X6.8906Y-4.0079
X6.9272Y-1.5031
X6.9882Y-4.6398
X6.9894Y-4.4843
X6.9898Y-4.1953
X6.9898Y-4.2953
X6.9902Y-3.8563
X6.9906Y-4.0079
X7.0882Y-4.6398
X7.0894Y-4.4843
X7.0898Y-4.1953
X7.0898Y-4.2953
X7.0902Y-3.8563
X7.0906Y-4.0079
X7.1882Y-4.6398
X7.1894Y-4.4843
X7.1898Y-4.1953
X7.1898Y-4.2953
X7.1902Y-3.8563
X7.1906Y-4.0079
X7.2882Y-4.6398
X7.2894Y-4.4843
X7.2898Y-4.1953
X7.2898Y-4.2953
X7.2902Y-3.8563
X7.2906Y-4.0079
X7.3882Y-4.6398
X7.3894Y-4.4843
X7.3898Y-4.1953
X7.3898Y-4.2953
X7.3902Y-3.8563
X7.3906Y-4.0079
X7.4016Y-3.1661
X7.4016Y-3.2661
X7.4016Y-3.3661
X7.4236Y-2.9724
X7.4882Y-4.6398
X7.4894Y-4.4843
X7.4898Y-4.1953
X7.4898Y-4.2953
X7.4902Y-3.8563
X7.4906Y-4.0079
X7.5236Y-2.9724
X7.5492Y-3.1673
X7.5492Y-3.2673
X7.5492Y-3.3673
X7.8524Y-3.1685
X7.8524Y-3.2685
X7.8524Y-3.3685
X7.876Y-2.9717
X7.976Y-2.9717
X8.002Y-3.1705
X8.002Y-3.2705
X8.002Y-3.3705
M30
