%TF.GenerationSoftware,KiCad,Pcbnew,8.0.2*%
%TF.CreationDate,2024-05-08T16:39:50+01:00*%
%TF.ProjectId,VISIR_Lei_Ohm,56495349-525f-44c6-9569-5f4f686d2e6b,rev?*%
%TF.SameCoordinates,Original*%
%TF.FileFunction,Legend,Top*%
%TF.FilePolarity,Positive*%
%FSLAX46Y46*%
G04 Gerber Fmt 4.6, Leading zero omitted, Abs format (unit mm)*
G04 Created by KiCad (PCBNEW 8.0.2) date 2024-05-08 16:39:50*
%MOMM*%
%LPD*%
G01*
G04 APERTURE LIST*
%ADD10C,0.150000*%
%ADD11C,0.120000*%
%ADD12C,0.152400*%
%ADD13R,1.600000X1.600000*%
%ADD14O,1.600000X1.600000*%
%ADD15C,1.270000*%
%ADD16R,1.700000X1.700000*%
%ADD17O,1.700000X1.700000*%
%ADD18C,1.600000*%
%ADD19C,3.200000*%
G04 APERTURE END LIST*
D10*
X129868095Y-70904819D02*
X129868095Y-71714342D01*
X129868095Y-71714342D02*
X129915714Y-71809580D01*
X129915714Y-71809580D02*
X129963333Y-71857200D01*
X129963333Y-71857200D02*
X130058571Y-71904819D01*
X130058571Y-71904819D02*
X130249047Y-71904819D01*
X130249047Y-71904819D02*
X130344285Y-71857200D01*
X130344285Y-71857200D02*
X130391904Y-71809580D01*
X130391904Y-71809580D02*
X130439523Y-71714342D01*
X130439523Y-71714342D02*
X130439523Y-70904819D01*
X131439523Y-71904819D02*
X130868095Y-71904819D01*
X131153809Y-71904819D02*
X131153809Y-70904819D01*
X131153809Y-70904819D02*
X131058571Y-71047676D01*
X131058571Y-71047676D02*
X130963333Y-71142914D01*
X130963333Y-71142914D02*
X130868095Y-71190533D01*
X127214819Y-61175599D02*
X127452914Y-61175599D01*
X127357676Y-61413694D02*
X127452914Y-61175599D01*
X127452914Y-61175599D02*
X127357676Y-60937504D01*
X127643390Y-61318456D02*
X127452914Y-61175599D01*
X127452914Y-61175599D02*
X127643390Y-61032742D01*
X127214819Y-61175599D02*
X127452914Y-61175599D01*
X127357676Y-61413694D02*
X127452914Y-61175599D01*
X127452914Y-61175599D02*
X127357676Y-60937504D01*
X127643390Y-61318456D02*
X127452914Y-61175599D01*
X127452914Y-61175599D02*
X127643390Y-61032742D01*
X207266666Y-81974819D02*
X207266666Y-82689104D01*
X207266666Y-82689104D02*
X207219047Y-82831961D01*
X207219047Y-82831961D02*
X207123809Y-82927200D01*
X207123809Y-82927200D02*
X206980952Y-82974819D01*
X206980952Y-82974819D02*
X206885714Y-82974819D01*
X208171428Y-82308152D02*
X208171428Y-82974819D01*
X207933333Y-81927200D02*
X207695238Y-82641485D01*
X207695238Y-82641485D02*
X208314285Y-82641485D01*
X195340476Y-81914819D02*
X195340476Y-82629104D01*
X195340476Y-82629104D02*
X195292857Y-82771961D01*
X195292857Y-82771961D02*
X195197619Y-82867200D01*
X195197619Y-82867200D02*
X195054762Y-82914819D01*
X195054762Y-82914819D02*
X194959524Y-82914819D01*
X196340476Y-82914819D02*
X195769048Y-82914819D01*
X196054762Y-82914819D02*
X196054762Y-81914819D01*
X196054762Y-81914819D02*
X195959524Y-82057676D01*
X195959524Y-82057676D02*
X195864286Y-82152914D01*
X195864286Y-82152914D02*
X195769048Y-82200533D01*
X196959524Y-81914819D02*
X197054762Y-81914819D01*
X197054762Y-81914819D02*
X197150000Y-81962438D01*
X197150000Y-81962438D02*
X197197619Y-82010057D01*
X197197619Y-82010057D02*
X197245238Y-82105295D01*
X197245238Y-82105295D02*
X197292857Y-82295771D01*
X197292857Y-82295771D02*
X197292857Y-82533866D01*
X197292857Y-82533866D02*
X197245238Y-82724342D01*
X197245238Y-82724342D02*
X197197619Y-82819580D01*
X197197619Y-82819580D02*
X197150000Y-82867200D01*
X197150000Y-82867200D02*
X197054762Y-82914819D01*
X197054762Y-82914819D02*
X196959524Y-82914819D01*
X196959524Y-82914819D02*
X196864286Y-82867200D01*
X196864286Y-82867200D02*
X196816667Y-82819580D01*
X196816667Y-82819580D02*
X196769048Y-82724342D01*
X196769048Y-82724342D02*
X196721429Y-82533866D01*
X196721429Y-82533866D02*
X196721429Y-82295771D01*
X196721429Y-82295771D02*
X196769048Y-82105295D01*
X196769048Y-82105295D02*
X196816667Y-82010057D01*
X196816667Y-82010057D02*
X196864286Y-81962438D01*
X196864286Y-81962438D02*
X196959524Y-81914819D01*
X209938095Y-112054819D02*
X209938095Y-111054819D01*
X209938095Y-111531009D02*
X210509523Y-111531009D01*
X210509523Y-112054819D02*
X210509523Y-111054819D01*
X211414285Y-111388152D02*
X211414285Y-112054819D01*
X211176190Y-111007200D02*
X210938095Y-111721485D01*
X210938095Y-111721485D02*
X211557142Y-111721485D01*
X167074819Y-61155599D02*
X167312914Y-61155599D01*
X167217676Y-61393694D02*
X167312914Y-61155599D01*
X167312914Y-61155599D02*
X167217676Y-60917504D01*
X167503390Y-61298456D02*
X167312914Y-61155599D01*
X167312914Y-61155599D02*
X167503390Y-61012742D01*
X167074819Y-61155599D02*
X167312914Y-61155599D01*
X167217676Y-61393694D02*
X167312914Y-61155599D01*
X167312914Y-61155599D02*
X167217676Y-60917504D01*
X167503390Y-61298456D02*
X167312914Y-61155599D01*
X167312914Y-61155599D02*
X167503390Y-61012742D01*
X159225180Y-40184400D02*
X158987085Y-40184400D01*
X159082323Y-39946305D02*
X158987085Y-40184400D01*
X158987085Y-40184400D02*
X159082323Y-40422495D01*
X158796609Y-40041543D02*
X158987085Y-40184400D01*
X158987085Y-40184400D02*
X158796609Y-40327257D01*
X158134819Y-40184399D02*
X158372914Y-40184399D01*
X158277676Y-40422494D02*
X158372914Y-40184399D01*
X158372914Y-40184399D02*
X158277676Y-39946304D01*
X158563390Y-40327256D02*
X158372914Y-40184399D01*
X158372914Y-40184399D02*
X158563390Y-40041542D01*
X197880800Y-41137819D02*
X197880800Y-41375914D01*
X197642705Y-41280676D02*
X197880800Y-41375914D01*
X197880800Y-41375914D02*
X198118895Y-41280676D01*
X197737943Y-41566390D02*
X197880800Y-41375914D01*
X197880800Y-41375914D02*
X198023657Y-41566390D01*
X197880800Y-41137819D02*
X197880800Y-41375914D01*
X197642705Y-41280676D02*
X197880800Y-41375914D01*
X197880800Y-41375914D02*
X198118895Y-41280676D01*
X197737943Y-41566390D02*
X197880800Y-41375914D01*
X197880800Y-41375914D02*
X198023657Y-41566390D01*
X199090476Y-81944819D02*
X199090476Y-82659104D01*
X199090476Y-82659104D02*
X199042857Y-82801961D01*
X199042857Y-82801961D02*
X198947619Y-82897200D01*
X198947619Y-82897200D02*
X198804762Y-82944819D01*
X198804762Y-82944819D02*
X198709524Y-82944819D01*
X200090476Y-82944819D02*
X199519048Y-82944819D01*
X199804762Y-82944819D02*
X199804762Y-81944819D01*
X199804762Y-81944819D02*
X199709524Y-82087676D01*
X199709524Y-82087676D02*
X199614286Y-82182914D01*
X199614286Y-82182914D02*
X199519048Y-82230533D01*
X201042857Y-82944819D02*
X200471429Y-82944819D01*
X200757143Y-82944819D02*
X200757143Y-81944819D01*
X200757143Y-81944819D02*
X200661905Y-82087676D01*
X200661905Y-82087676D02*
X200566667Y-82182914D01*
X200566667Y-82182914D02*
X200471429Y-82230533D01*
X125288095Y-112004819D02*
X125288095Y-111004819D01*
X125288095Y-111481009D02*
X125859523Y-111481009D01*
X125859523Y-112004819D02*
X125859523Y-111004819D01*
X126240476Y-111004819D02*
X126859523Y-111004819D01*
X126859523Y-111004819D02*
X126526190Y-111385771D01*
X126526190Y-111385771D02*
X126669047Y-111385771D01*
X126669047Y-111385771D02*
X126764285Y-111433390D01*
X126764285Y-111433390D02*
X126811904Y-111481009D01*
X126811904Y-111481009D02*
X126859523Y-111576247D01*
X126859523Y-111576247D02*
X126859523Y-111814342D01*
X126859523Y-111814342D02*
X126811904Y-111909580D01*
X126811904Y-111909580D02*
X126764285Y-111957200D01*
X126764285Y-111957200D02*
X126669047Y-112004819D01*
X126669047Y-112004819D02*
X126383333Y-112004819D01*
X126383333Y-112004819D02*
X126288095Y-111957200D01*
X126288095Y-111957200D02*
X126240476Y-111909580D01*
X134233333Y-62259580D02*
X134185714Y-62307200D01*
X134185714Y-62307200D02*
X134042857Y-62354819D01*
X134042857Y-62354819D02*
X133947619Y-62354819D01*
X133947619Y-62354819D02*
X133804762Y-62307200D01*
X133804762Y-62307200D02*
X133709524Y-62211961D01*
X133709524Y-62211961D02*
X133661905Y-62116723D01*
X133661905Y-62116723D02*
X133614286Y-61926247D01*
X133614286Y-61926247D02*
X133614286Y-61783390D01*
X133614286Y-61783390D02*
X133661905Y-61592914D01*
X133661905Y-61592914D02*
X133709524Y-61497676D01*
X133709524Y-61497676D02*
X133804762Y-61402438D01*
X133804762Y-61402438D02*
X133947619Y-61354819D01*
X133947619Y-61354819D02*
X134042857Y-61354819D01*
X134042857Y-61354819D02*
X134185714Y-61402438D01*
X134185714Y-61402438D02*
X134233333Y-61450057D01*
X135185714Y-62354819D02*
X134614286Y-62354819D01*
X134900000Y-62354819D02*
X134900000Y-61354819D01*
X134900000Y-61354819D02*
X134804762Y-61497676D01*
X134804762Y-61497676D02*
X134709524Y-61592914D01*
X134709524Y-61592914D02*
X134614286Y-61640533D01*
X176780000Y-41137819D02*
X176780000Y-41375914D01*
X176541905Y-41280676D02*
X176780000Y-41375914D01*
X176780000Y-41375914D02*
X177018095Y-41280676D01*
X176637143Y-41566390D02*
X176780000Y-41375914D01*
X176780000Y-41375914D02*
X176922857Y-41566390D01*
X176780000Y-41137819D02*
X176780000Y-41375914D01*
X176541905Y-41280676D02*
X176780000Y-41375914D01*
X176780000Y-41375914D02*
X177018095Y-41280676D01*
X176637143Y-41566390D02*
X176780000Y-41375914D01*
X176780000Y-41375914D02*
X176922857Y-41566390D01*
X187330400Y-41137819D02*
X187330400Y-41375914D01*
X187092305Y-41280676D02*
X187330400Y-41375914D01*
X187330400Y-41375914D02*
X187568495Y-41280676D01*
X187187543Y-41566390D02*
X187330400Y-41375914D01*
X187330400Y-41375914D02*
X187473257Y-41566390D01*
X187330400Y-41137819D02*
X187330400Y-41375914D01*
X187092305Y-41280676D02*
X187330400Y-41375914D01*
X187330400Y-41375914D02*
X187568495Y-41280676D01*
X187187543Y-41566390D02*
X187330400Y-41375914D01*
X187330400Y-41375914D02*
X187473257Y-41566390D01*
X211066666Y-82024819D02*
X211066666Y-82739104D01*
X211066666Y-82739104D02*
X211019047Y-82881961D01*
X211019047Y-82881961D02*
X210923809Y-82977200D01*
X210923809Y-82977200D02*
X210780952Y-83024819D01*
X210780952Y-83024819D02*
X210685714Y-83024819D01*
X211590476Y-83024819D02*
X211780952Y-83024819D01*
X211780952Y-83024819D02*
X211876190Y-82977200D01*
X211876190Y-82977200D02*
X211923809Y-82929580D01*
X211923809Y-82929580D02*
X212019047Y-82786723D01*
X212019047Y-82786723D02*
X212066666Y-82596247D01*
X212066666Y-82596247D02*
X212066666Y-82215295D01*
X212066666Y-82215295D02*
X212019047Y-82120057D01*
X212019047Y-82120057D02*
X211971428Y-82072438D01*
X211971428Y-82072438D02*
X211876190Y-82024819D01*
X211876190Y-82024819D02*
X211685714Y-82024819D01*
X211685714Y-82024819D02*
X211590476Y-82072438D01*
X211590476Y-82072438D02*
X211542857Y-82120057D01*
X211542857Y-82120057D02*
X211495238Y-82215295D01*
X211495238Y-82215295D02*
X211495238Y-82453390D01*
X211495238Y-82453390D02*
X211542857Y-82548628D01*
X211542857Y-82548628D02*
X211590476Y-82596247D01*
X211590476Y-82596247D02*
X211685714Y-82643866D01*
X211685714Y-82643866D02*
X211876190Y-82643866D01*
X211876190Y-82643866D02*
X211971428Y-82596247D01*
X211971428Y-82596247D02*
X212019047Y-82548628D01*
X212019047Y-82548628D02*
X212066666Y-82453390D01*
X143218095Y-70904819D02*
X143218095Y-71714342D01*
X143218095Y-71714342D02*
X143265714Y-71809580D01*
X143265714Y-71809580D02*
X143313333Y-71857200D01*
X143313333Y-71857200D02*
X143408571Y-71904819D01*
X143408571Y-71904819D02*
X143599047Y-71904819D01*
X143599047Y-71904819D02*
X143694285Y-71857200D01*
X143694285Y-71857200D02*
X143741904Y-71809580D01*
X143741904Y-71809580D02*
X143789523Y-71714342D01*
X143789523Y-71714342D02*
X143789523Y-70904819D01*
X144218095Y-71000057D02*
X144265714Y-70952438D01*
X144265714Y-70952438D02*
X144360952Y-70904819D01*
X144360952Y-70904819D02*
X144599047Y-70904819D01*
X144599047Y-70904819D02*
X144694285Y-70952438D01*
X144694285Y-70952438D02*
X144741904Y-71000057D01*
X144741904Y-71000057D02*
X144789523Y-71095295D01*
X144789523Y-71095295D02*
X144789523Y-71190533D01*
X144789523Y-71190533D02*
X144741904Y-71333390D01*
X144741904Y-71333390D02*
X144170476Y-71904819D01*
X144170476Y-71904819D02*
X144789523Y-71904819D01*
X146684819Y-40164399D02*
X146922914Y-40164399D01*
X146827676Y-40402494D02*
X146922914Y-40164399D01*
X146922914Y-40164399D02*
X146827676Y-39926304D01*
X147113390Y-40307256D02*
X146922914Y-40164399D01*
X146922914Y-40164399D02*
X147113390Y-40021542D01*
X147775180Y-40164400D02*
X147537085Y-40164400D01*
X147632323Y-39926305D02*
X147537085Y-40164400D01*
X147537085Y-40164400D02*
X147632323Y-40402495D01*
X147346609Y-40021543D02*
X147537085Y-40164400D01*
X147537085Y-40164400D02*
X147346609Y-40307257D01*
X124938095Y-31754819D02*
X124938095Y-30754819D01*
X124938095Y-31231009D02*
X125509523Y-31231009D01*
X125509523Y-31754819D02*
X125509523Y-30754819D01*
X125938095Y-30850057D02*
X125985714Y-30802438D01*
X125985714Y-30802438D02*
X126080952Y-30754819D01*
X126080952Y-30754819D02*
X126319047Y-30754819D01*
X126319047Y-30754819D02*
X126414285Y-30802438D01*
X126414285Y-30802438D02*
X126461904Y-30850057D01*
X126461904Y-30850057D02*
X126509523Y-30945295D01*
X126509523Y-30945295D02*
X126509523Y-31040533D01*
X126509523Y-31040533D02*
X126461904Y-31183390D01*
X126461904Y-31183390D02*
X125890476Y-31754819D01*
X125890476Y-31754819D02*
X126509523Y-31754819D01*
X136264819Y-61215599D02*
X136502914Y-61215599D01*
X136407676Y-61453694D02*
X136502914Y-61215599D01*
X136502914Y-61215599D02*
X136407676Y-60977504D01*
X136693390Y-61358456D02*
X136502914Y-61215599D01*
X136502914Y-61215599D02*
X136693390Y-61072742D01*
X136264819Y-61215599D02*
X136502914Y-61215599D01*
X136407676Y-61453694D02*
X136502914Y-61215599D01*
X136502914Y-61215599D02*
X136407676Y-60977504D01*
X136693390Y-61358456D02*
X136502914Y-61215599D01*
X136502914Y-61215599D02*
X136693390Y-61072742D01*
X210188095Y-31854819D02*
X210188095Y-30854819D01*
X210188095Y-31331009D02*
X210759523Y-31331009D01*
X210759523Y-31854819D02*
X210759523Y-30854819D01*
X211759523Y-31854819D02*
X211188095Y-31854819D01*
X211473809Y-31854819D02*
X211473809Y-30854819D01*
X211473809Y-30854819D02*
X211378571Y-30997676D01*
X211378571Y-30997676D02*
X211283333Y-31092914D01*
X211283333Y-31092914D02*
X211188095Y-31140533D01*
X156568095Y-70904819D02*
X156568095Y-71714342D01*
X156568095Y-71714342D02*
X156615714Y-71809580D01*
X156615714Y-71809580D02*
X156663333Y-71857200D01*
X156663333Y-71857200D02*
X156758571Y-71904819D01*
X156758571Y-71904819D02*
X156949047Y-71904819D01*
X156949047Y-71904819D02*
X157044285Y-71857200D01*
X157044285Y-71857200D02*
X157091904Y-71809580D01*
X157091904Y-71809580D02*
X157139523Y-71714342D01*
X157139523Y-71714342D02*
X157139523Y-70904819D01*
X157520476Y-70904819D02*
X158139523Y-70904819D01*
X158139523Y-70904819D02*
X157806190Y-71285771D01*
X157806190Y-71285771D02*
X157949047Y-71285771D01*
X157949047Y-71285771D02*
X158044285Y-71333390D01*
X158044285Y-71333390D02*
X158091904Y-71381009D01*
X158091904Y-71381009D02*
X158139523Y-71476247D01*
X158139523Y-71476247D02*
X158139523Y-71714342D01*
X158139523Y-71714342D02*
X158091904Y-71809580D01*
X158091904Y-71809580D02*
X158044285Y-71857200D01*
X158044285Y-71857200D02*
X157949047Y-71904819D01*
X157949047Y-71904819D02*
X157663333Y-71904819D01*
X157663333Y-71904819D02*
X157568095Y-71857200D01*
X157568095Y-71857200D02*
X157520476Y-71809580D01*
D11*
%TO.C,U1*%
X127395000Y-72450000D02*
X127395000Y-92890000D01*
X127395000Y-92890000D02*
X133865000Y-92890000D01*
X129630000Y-72450000D02*
X127395000Y-72450000D01*
X133865000Y-72450000D02*
X131630000Y-72450000D01*
X133865000Y-92890000D02*
X133865000Y-72450000D01*
X131630000Y-72450000D02*
G75*
G02*
X129630000Y-72450000I-1000000J0D01*
G01*
D12*
%TO.C,K4*%
X125093000Y-41033400D02*
X125093000Y-60286600D01*
X125093000Y-60286600D02*
X130427000Y-60286600D01*
X130427000Y-41033400D02*
X125093000Y-41033400D01*
X130427000Y-60286600D02*
X130427000Y-41033400D01*
D11*
%TO.C,J8*%
X140660000Y-96620000D02*
X140660000Y-99280000D01*
X188980000Y-96620000D02*
X140660000Y-96620000D01*
X188980000Y-96620000D02*
X188980000Y-99280000D01*
X188980000Y-99280000D02*
X140660000Y-99280000D01*
X190250000Y-96620000D02*
X191580000Y-96620000D01*
X191580000Y-96620000D02*
X191580000Y-97950000D01*
%TO.C,J4*%
X206270000Y-83520000D02*
X207600000Y-83520000D01*
X206270000Y-84850000D02*
X206270000Y-83520000D01*
X206270000Y-86120000D02*
X206270000Y-91260000D01*
X206270000Y-86120000D02*
X208930000Y-86120000D01*
X206270000Y-91260000D02*
X208930000Y-91260000D01*
X208930000Y-86120000D02*
X208930000Y-91260000D01*
%TO.C,J10*%
X194820000Y-83460000D02*
X196150000Y-83460000D01*
X194820000Y-84790000D02*
X194820000Y-83460000D01*
X194820000Y-86060000D02*
X194820000Y-91200000D01*
X194820000Y-86060000D02*
X197480000Y-86060000D01*
X194820000Y-91200000D02*
X197480000Y-91200000D01*
X197480000Y-86060000D02*
X197480000Y-91200000D01*
%TO.C,R1*%
X170830000Y-77410000D02*
X170830000Y-83950000D01*
X170830000Y-83950000D02*
X173570000Y-83950000D01*
X172200000Y-74100000D02*
X172200000Y-77410000D01*
X172200000Y-87260000D02*
X172200000Y-83950000D01*
X173570000Y-77410000D02*
X170830000Y-77410000D01*
X173570000Y-83950000D02*
X173570000Y-77410000D01*
%TO.C,R3*%
X178930000Y-77410000D02*
X178930000Y-83950000D01*
X178930000Y-83950000D02*
X181670000Y-83950000D01*
X180300000Y-74100000D02*
X180300000Y-77410000D01*
X180300000Y-87260000D02*
X180300000Y-83950000D01*
X181670000Y-77410000D02*
X178930000Y-77410000D01*
X181670000Y-83950000D02*
X181670000Y-77410000D01*
%TO.C,MES3*%
X195380000Y-78540000D02*
X195380000Y-81200000D01*
X197980000Y-78540000D02*
X195380000Y-78540000D01*
X197980000Y-78540000D02*
X197980000Y-81200000D01*
X197980000Y-81200000D02*
X195380000Y-81200000D01*
X199250000Y-78540000D02*
X200580000Y-78540000D01*
X200580000Y-78540000D02*
X200580000Y-79870000D01*
D12*
%TO.C,K8*%
X164953000Y-41013400D02*
X164953000Y-60266600D01*
X164953000Y-60266600D02*
X170287000Y-60266600D01*
X170287000Y-41013400D02*
X164953000Y-41013400D01*
X170287000Y-60266600D02*
X170287000Y-41013400D01*
%TO.C,K7*%
X156013000Y-41073400D02*
X156013000Y-60326600D01*
X156013000Y-60326600D02*
X161347000Y-60326600D01*
X161347000Y-41073400D02*
X156013000Y-41073400D01*
X161347000Y-60326600D02*
X161347000Y-41073400D01*
D11*
%TO.C,J5*%
X140640000Y-115230000D02*
X140640000Y-113900000D01*
X141970000Y-115230000D02*
X140640000Y-115230000D01*
X143240000Y-112570000D02*
X191560000Y-112570000D01*
X143240000Y-115230000D02*
X143240000Y-112570000D01*
X143240000Y-115230000D02*
X191560000Y-115230000D01*
X191560000Y-115230000D02*
X191560000Y-112570000D01*
D12*
%TO.C,K3*%
X198122100Y-40832100D02*
X198122100Y-42142826D01*
X198122100Y-44017174D02*
X198122100Y-44682826D01*
X198122100Y-46557174D02*
X198122100Y-54842826D01*
X198122100Y-56717174D02*
X198122100Y-57382826D01*
X198122100Y-59257174D02*
X198122100Y-60567900D01*
X198122100Y-60567900D02*
X205259500Y-60567900D01*
X205259500Y-40832100D02*
X198122100Y-40832100D01*
X205259500Y-42142826D02*
X205259500Y-40832100D01*
X205259500Y-44682826D02*
X205259500Y-44017174D01*
X205259500Y-54842826D02*
X205259500Y-46557174D01*
X205259500Y-57382826D02*
X205259500Y-56717174D01*
X205259500Y-60567900D02*
X205259500Y-59257174D01*
D11*
%TO.C,J11*%
X198570000Y-83490000D02*
X199900000Y-83490000D01*
X198570000Y-84820000D02*
X198570000Y-83490000D01*
X198570000Y-86090000D02*
X198570000Y-91230000D01*
X198570000Y-86090000D02*
X201230000Y-86090000D01*
X198570000Y-91230000D02*
X201230000Y-91230000D01*
X201230000Y-86090000D02*
X201230000Y-91230000D01*
%TO.C,MES1*%
X206870000Y-78520000D02*
X206870000Y-81180000D01*
X209470000Y-78520000D02*
X206870000Y-78520000D01*
X209470000Y-78520000D02*
X209470000Y-81180000D01*
X209470000Y-81180000D02*
X206870000Y-81180000D01*
X210740000Y-78520000D02*
X212070000Y-78520000D01*
X212070000Y-78520000D02*
X212070000Y-79850000D01*
%TO.C,C1*%
X131780000Y-63030000D02*
X131780000Y-65770000D01*
X131780000Y-63030000D02*
X137020000Y-63030000D01*
X131780000Y-65770000D02*
X137020000Y-65770000D01*
X137020000Y-63030000D02*
X137020000Y-65770000D01*
%TO.C,R2*%
X174880000Y-77410000D02*
X174880000Y-83950000D01*
X174880000Y-83950000D02*
X177620000Y-83950000D01*
X176250000Y-74100000D02*
X176250000Y-77410000D01*
X176250000Y-87260000D02*
X176250000Y-83950000D01*
X177620000Y-77410000D02*
X174880000Y-77410000D01*
X177620000Y-83950000D02*
X177620000Y-77410000D01*
%TO.C,J1*%
X140650000Y-105230000D02*
X140650000Y-110430000D01*
X188970000Y-105230000D02*
X140650000Y-105230000D01*
X188970000Y-105230000D02*
X188970000Y-107830000D01*
X188970000Y-107830000D02*
X191570000Y-107830000D01*
X190240000Y-105230000D02*
X191570000Y-105230000D01*
X191570000Y-105230000D02*
X191570000Y-106560000D01*
X191570000Y-107830000D02*
X191570000Y-110430000D01*
X191570000Y-110430000D02*
X140650000Y-110430000D01*
D12*
%TO.C,K1*%
X177021300Y-40832100D02*
X177021300Y-42142826D01*
X177021300Y-44017174D02*
X177021300Y-44682826D01*
X177021300Y-46557174D02*
X177021300Y-54842826D01*
X177021300Y-56717174D02*
X177021300Y-57382826D01*
X177021300Y-59257174D02*
X177021300Y-60567900D01*
X177021300Y-60567900D02*
X184158700Y-60567900D01*
X184158700Y-40832100D02*
X177021300Y-40832100D01*
X184158700Y-42142826D02*
X184158700Y-40832100D01*
X184158700Y-44682826D02*
X184158700Y-44017174D01*
X184158700Y-54842826D02*
X184158700Y-46557174D01*
X184158700Y-57382826D02*
X184158700Y-56717174D01*
X184158700Y-60567900D02*
X184158700Y-59257174D01*
D11*
%TO.C,J2*%
X195195000Y-73530000D02*
X195195000Y-72200000D01*
X196525000Y-73530000D02*
X195195000Y-73530000D01*
X197795000Y-70870000D02*
X200395000Y-70870000D01*
X197795000Y-73530000D02*
X197795000Y-70870000D01*
X197795000Y-73530000D02*
X200395000Y-73530000D01*
X200395000Y-73530000D02*
X200395000Y-70870000D01*
D12*
%TO.C,K2*%
X187571700Y-40832100D02*
X187571700Y-42142826D01*
X187571700Y-44017174D02*
X187571700Y-44682826D01*
X187571700Y-46557174D02*
X187571700Y-54842826D01*
X187571700Y-56717174D02*
X187571700Y-57382826D01*
X187571700Y-59257174D02*
X187571700Y-60567900D01*
X187571700Y-60567900D02*
X194709100Y-60567900D01*
X194709100Y-40832100D02*
X187571700Y-40832100D01*
X194709100Y-42142826D02*
X194709100Y-40832100D01*
X194709100Y-44682826D02*
X194709100Y-44017174D01*
X194709100Y-54842826D02*
X194709100Y-46557174D01*
X194709100Y-57382826D02*
X194709100Y-56717174D01*
X194709100Y-60567900D02*
X194709100Y-59257174D01*
D11*
%TO.C,J3*%
X195295000Y-68580000D02*
X195295000Y-67250000D01*
X196625000Y-68580000D02*
X195295000Y-68580000D01*
X197895000Y-65920000D02*
X200495000Y-65920000D01*
X197895000Y-68580000D02*
X197895000Y-65920000D01*
X197895000Y-68580000D02*
X200495000Y-68580000D01*
X200495000Y-68580000D02*
X200495000Y-65920000D01*
%TO.C,J9*%
X210070000Y-83570000D02*
X211400000Y-83570000D01*
X210070000Y-84900000D02*
X210070000Y-83570000D01*
X210070000Y-86170000D02*
X210070000Y-91310000D01*
X210070000Y-86170000D02*
X212730000Y-86170000D01*
X210070000Y-91310000D02*
X212730000Y-91310000D01*
X212730000Y-86170000D02*
X212730000Y-91310000D01*
%TO.C,U2*%
X140745000Y-72450000D02*
X140745000Y-92890000D01*
X140745000Y-92890000D02*
X147215000Y-92890000D01*
X142980000Y-72450000D02*
X140745000Y-72450000D01*
X147215000Y-72450000D02*
X144980000Y-72450000D01*
X147215000Y-92890000D02*
X147215000Y-72450000D01*
X144980000Y-72450000D02*
G75*
G02*
X142980000Y-72450000I-1000000J0D01*
G01*
D12*
%TO.C,K6*%
X144563000Y-41053400D02*
X144563000Y-60306600D01*
X144563000Y-60306600D02*
X149897000Y-60306600D01*
X149897000Y-41053400D02*
X144563000Y-41053400D01*
X149897000Y-60306600D02*
X149897000Y-41053400D01*
%TO.C,K5*%
X134143000Y-41073400D02*
X134143000Y-60326600D01*
X134143000Y-60326600D02*
X139477000Y-60326600D01*
X139477000Y-41073400D02*
X134143000Y-41073400D01*
X139477000Y-60326600D02*
X139477000Y-41073400D01*
D11*
%TO.C,J6*%
X140610000Y-119180000D02*
X140610000Y-117850000D01*
X141940000Y-119180000D02*
X140610000Y-119180000D01*
X143210000Y-116520000D02*
X191530000Y-116520000D01*
X143210000Y-119180000D02*
X143210000Y-116520000D01*
X143210000Y-119180000D02*
X191530000Y-119180000D01*
X191530000Y-119180000D02*
X191530000Y-116520000D01*
%TO.C,U3*%
X154095000Y-72450000D02*
X154095000Y-92890000D01*
X154095000Y-92890000D02*
X160565000Y-92890000D01*
X156330000Y-72450000D02*
X154095000Y-72450000D01*
X160565000Y-72450000D02*
X158330000Y-72450000D01*
X160565000Y-92890000D02*
X160565000Y-72450000D01*
X158330000Y-72450000D02*
G75*
G02*
X156330000Y-72450000I-1000000J0D01*
G01*
%TO.C,J7*%
X140670000Y-100470000D02*
X140670000Y-103130000D01*
X188990000Y-100470000D02*
X140670000Y-100470000D01*
X188990000Y-100470000D02*
X188990000Y-103130000D01*
X188990000Y-103130000D02*
X140670000Y-103130000D01*
X190260000Y-100470000D02*
X191590000Y-100470000D01*
X191590000Y-100470000D02*
X191590000Y-101800000D01*
%TD*%
%LPC*%
D13*
%TO.C,U1*%
X125550000Y-73780000D03*
D14*
X125550000Y-76320000D03*
X125550000Y-78860000D03*
X125550000Y-81400000D03*
X125550000Y-83940000D03*
X125550000Y-86480000D03*
X125550000Y-89020000D03*
X125550000Y-91560000D03*
X135710000Y-91560000D03*
X135710000Y-89020000D03*
X135710000Y-86480000D03*
X135710000Y-83940000D03*
X135710000Y-81400000D03*
X135710000Y-78860000D03*
X135710000Y-76320000D03*
X135710000Y-73780000D03*
%TD*%
D15*
%TO.C,K4*%
X127760000Y-58280000D03*
X127760000Y-53200000D03*
X127760000Y-48120000D03*
X127760000Y-43040000D03*
%TD*%
D16*
%TO.C,J8*%
X190250000Y-97950000D03*
D17*
X187710000Y-97950000D03*
X185170000Y-97950000D03*
X182630000Y-97950000D03*
X180090000Y-97950000D03*
X177550000Y-97950000D03*
X175010000Y-97950000D03*
X172470000Y-97950000D03*
X169930000Y-97950000D03*
X167390000Y-97950000D03*
X164850000Y-97950000D03*
X162310000Y-97950000D03*
X159770000Y-97950000D03*
X157230000Y-97950000D03*
X154690000Y-97950000D03*
X152150000Y-97950000D03*
X149610000Y-97950000D03*
X147070000Y-97950000D03*
X144530000Y-97950000D03*
X141990000Y-97950000D03*
%TD*%
D16*
%TO.C,J4*%
X207600000Y-84850000D03*
D17*
X207600000Y-87390000D03*
X207600000Y-89930000D03*
%TD*%
D16*
%TO.C,J10*%
X196150000Y-84790000D03*
D17*
X196150000Y-87330000D03*
X196150000Y-89870000D03*
%TD*%
D18*
%TO.C,R1*%
X172200000Y-88300000D03*
D14*
X172200000Y-73060000D03*
%TD*%
D18*
%TO.C,R3*%
X180300000Y-88300000D03*
D14*
X180300000Y-73060000D03*
%TD*%
D19*
%TO.C,H4*%
X210700000Y-115800000D03*
%TD*%
D16*
%TO.C,MES3*%
X199250000Y-79870000D03*
D17*
X196710000Y-79870000D03*
%TD*%
D15*
%TO.C,K8*%
X167620000Y-58260000D03*
X167620000Y-53180000D03*
X167620000Y-48100000D03*
X167620000Y-43020000D03*
%TD*%
%TO.C,K7*%
X158680000Y-43080000D03*
X158680000Y-48160000D03*
X158680000Y-53240000D03*
X158680000Y-58320000D03*
%TD*%
D16*
%TO.C,J5*%
X141970000Y-113900000D03*
D17*
X144510000Y-113900000D03*
X147050000Y-113900000D03*
X149590000Y-113900000D03*
X152130000Y-113900000D03*
X154670000Y-113900000D03*
X157210000Y-113900000D03*
X159750000Y-113900000D03*
X162290000Y-113900000D03*
X164830000Y-113900000D03*
X167370000Y-113900000D03*
X169910000Y-113900000D03*
X172450000Y-113900000D03*
X174990000Y-113900000D03*
X177530000Y-113900000D03*
X180070000Y-113900000D03*
X182610000Y-113900000D03*
X185150000Y-113900000D03*
X187690000Y-113900000D03*
X190230000Y-113900000D03*
%TD*%
D15*
%TO.C,K3*%
X197880800Y-43080000D03*
X197880800Y-45620000D03*
X197880800Y-55780000D03*
X197880800Y-58320000D03*
X205500800Y-58320000D03*
X205500800Y-55780000D03*
X205500800Y-45620000D03*
X205500800Y-43080000D03*
%TD*%
D16*
%TO.C,J11*%
X199900000Y-84820000D03*
D17*
X199900000Y-87360000D03*
X199900000Y-89900000D03*
%TD*%
D16*
%TO.C,MES1*%
X210740000Y-79850000D03*
D17*
X208200000Y-79850000D03*
%TD*%
D19*
%TO.C,H3*%
X126050000Y-115750000D03*
%TD*%
D18*
%TO.C,C1*%
X133150000Y-64400000D03*
X135650000Y-64400000D03*
%TD*%
%TO.C,R2*%
X176250000Y-88300000D03*
D14*
X176250000Y-73060000D03*
%TD*%
D16*
%TO.C,J1*%
X190240000Y-106560000D03*
D17*
X190240000Y-109100000D03*
X187700000Y-106560000D03*
X187700000Y-109100000D03*
X185160000Y-106560000D03*
X185160000Y-109100000D03*
X182620000Y-106560000D03*
X182620000Y-109100000D03*
X180080000Y-106560000D03*
X180080000Y-109100000D03*
X177540000Y-106560000D03*
X177540000Y-109100000D03*
X175000000Y-106560000D03*
X175000000Y-109100000D03*
X172460000Y-106560000D03*
X172460000Y-109100000D03*
X169920000Y-106560000D03*
X169920000Y-109100000D03*
X167380000Y-106560000D03*
X167380000Y-109100000D03*
X164840000Y-106560000D03*
X164840000Y-109100000D03*
X162300000Y-106560000D03*
X162300000Y-109100000D03*
X159760000Y-106560000D03*
X159760000Y-109100000D03*
X157220000Y-106560000D03*
X157220000Y-109100000D03*
X154680000Y-106560000D03*
X154680000Y-109100000D03*
X152140000Y-106560000D03*
X152140000Y-109100000D03*
X149600000Y-106560000D03*
X149600000Y-109100000D03*
X147060000Y-106560000D03*
X147060000Y-109100000D03*
X144520000Y-106560000D03*
X144520000Y-109100000D03*
X141980000Y-106560000D03*
X141980000Y-109100000D03*
%TD*%
D15*
%TO.C,K1*%
X176780000Y-43080000D03*
X176780000Y-45620000D03*
X176780000Y-55780000D03*
X176780000Y-58320000D03*
X184400000Y-58320000D03*
X184400000Y-55780000D03*
X184400000Y-45620000D03*
X184400000Y-43080000D03*
%TD*%
D16*
%TO.C,J2*%
X196525000Y-72200000D03*
D17*
X199065000Y-72200000D03*
%TD*%
D15*
%TO.C,K2*%
X187330400Y-43080000D03*
X187330400Y-45620000D03*
X187330400Y-55780000D03*
X187330400Y-58320000D03*
X194950400Y-58320000D03*
X194950400Y-55780000D03*
X194950400Y-45620000D03*
X194950400Y-43080000D03*
%TD*%
D16*
%TO.C,J3*%
X196625000Y-67250000D03*
D17*
X199165000Y-67250000D03*
%TD*%
D16*
%TO.C,J9*%
X211400000Y-84900000D03*
D17*
X211400000Y-87440000D03*
X211400000Y-89980000D03*
%TD*%
D13*
%TO.C,U2*%
X138900000Y-73780000D03*
D14*
X138900000Y-76320000D03*
X138900000Y-78860000D03*
X138900000Y-81400000D03*
X138900000Y-83940000D03*
X138900000Y-86480000D03*
X138900000Y-89020000D03*
X138900000Y-91560000D03*
X149060000Y-91560000D03*
X149060000Y-89020000D03*
X149060000Y-86480000D03*
X149060000Y-83940000D03*
X149060000Y-81400000D03*
X149060000Y-78860000D03*
X149060000Y-76320000D03*
X149060000Y-73780000D03*
%TD*%
D15*
%TO.C,K6*%
X147230000Y-43060000D03*
X147230000Y-48140000D03*
X147230000Y-53220000D03*
X147230000Y-58300000D03*
%TD*%
D19*
%TO.C,H2*%
X125700000Y-35500000D03*
%TD*%
D15*
%TO.C,K5*%
X136810000Y-58320000D03*
X136810000Y-53240000D03*
X136810000Y-48160000D03*
X136810000Y-43080000D03*
%TD*%
D19*
%TO.C,H1*%
X210950000Y-35600000D03*
%TD*%
D16*
%TO.C,J6*%
X141940000Y-117850000D03*
D17*
X144480000Y-117850000D03*
X147020000Y-117850000D03*
X149560000Y-117850000D03*
X152100000Y-117850000D03*
X154640000Y-117850000D03*
X157180000Y-117850000D03*
X159720000Y-117850000D03*
X162260000Y-117850000D03*
X164800000Y-117850000D03*
X167340000Y-117850000D03*
X169880000Y-117850000D03*
X172420000Y-117850000D03*
X174960000Y-117850000D03*
X177500000Y-117850000D03*
X180040000Y-117850000D03*
X182580000Y-117850000D03*
X185120000Y-117850000D03*
X187660000Y-117850000D03*
X190200000Y-117850000D03*
%TD*%
D13*
%TO.C,U3*%
X152250000Y-73780000D03*
D14*
X152250000Y-76320000D03*
X152250000Y-78860000D03*
X152250000Y-81400000D03*
X152250000Y-83940000D03*
X152250000Y-86480000D03*
X152250000Y-89020000D03*
X152250000Y-91560000D03*
X162410000Y-91560000D03*
X162410000Y-89020000D03*
X162410000Y-86480000D03*
X162410000Y-83940000D03*
X162410000Y-81400000D03*
X162410000Y-78860000D03*
X162410000Y-76320000D03*
X162410000Y-73780000D03*
%TD*%
D16*
%TO.C,J7*%
X190260000Y-101800000D03*
D17*
X187720000Y-101800000D03*
X185180000Y-101800000D03*
X182640000Y-101800000D03*
X180100000Y-101800000D03*
X177560000Y-101800000D03*
X175020000Y-101800000D03*
X172480000Y-101800000D03*
X169940000Y-101800000D03*
X167400000Y-101800000D03*
X164860000Y-101800000D03*
X162320000Y-101800000D03*
X159780000Y-101800000D03*
X157240000Y-101800000D03*
X154700000Y-101800000D03*
X152160000Y-101800000D03*
X149620000Y-101800000D03*
X147080000Y-101800000D03*
X144540000Y-101800000D03*
X142000000Y-101800000D03*
%TD*%
%LPD*%
M02*
