M48
INCH
T1C0.0118
T2C0.0300
T3C0.0315
T4C0.0394
T5C0.0433
T6C0.0591
%
G90
G05
T1
X4.8171Y-3.878
X5.3316Y-4.3538
T2
X3.6008Y-3.4969
X3.6008Y-3.5969
X3.6008Y-3.9969
X3.6008Y-4.0969
X3.77Y-4.389
X3.77Y-4.589
X3.77Y-4.789
X3.77Y-4.989
X3.9008Y-3.4969
X3.9008Y-3.5969
X3.9008Y-3.9969
X3.9008Y-4.0969
X4.0354Y-4.389
X4.0354Y-4.589
X4.0354Y-4.789
X4.0354Y-4.989
X4.0697Y-3.4988
X4.0697Y-3.5988
X4.0697Y-3.9988
X4.0697Y-4.0988
X4.3008Y-4.389
X4.3008Y-4.589
X4.3008Y-4.789
X4.3008Y-4.989
X4.3697Y-3.4988
X4.3697Y-3.5988
X4.3697Y-3.9988
X4.3697Y-4.0988
X4.5661Y-4.389
X4.5661Y-4.589
X4.5661Y-4.789
X4.5661Y-4.989
X4.574Y-3.5
X4.574Y-3.6
X4.574Y-4.0
X4.574Y-4.1
X4.8315Y-4.389
X4.8315Y-4.589
X4.8315Y-4.789
X4.8315Y-4.989
X4.874Y-3.5
X4.874Y-3.6
X4.874Y-4.0
X4.874Y-4.1
X5.0693Y-3.5
X5.0693Y-3.6
X5.0693Y-4.0
X5.0693Y-4.1
X5.3693Y-3.5
X5.3693Y-3.6
X5.3693Y-4.0
X5.3693Y-4.1
X5.578Y-3.5
X5.578Y-3.6
X5.578Y-4.0
X5.578Y-4.1
X5.878Y-3.5
X5.878Y-3.6
X5.878Y-4.0
X5.878Y-4.1
X5.9803Y-2.3807
X5.9803Y-2.4807
X5.9803Y-2.8807
X5.9803Y-2.9807
X6.0476Y-3.5016
X6.0476Y-3.6016
X6.0476Y-4.0016
X6.0476Y-4.1016
X6.2803Y-2.3807
X6.2803Y-2.4807
X6.2803Y-2.8807
X6.2803Y-2.9807
X6.3476Y-3.5016
X6.3476Y-3.6016
X6.3476Y-4.0016
X6.3476Y-4.1016
X6.5051Y-3.502
X6.5051Y-3.602
X6.5051Y-4.002
X6.5051Y-4.102
X6.8051Y-3.502
X6.8051Y-3.602
X6.8051Y-4.002
X6.8051Y-4.102
T3
X3.3126Y-2.3264
X3.3126Y-2.4264
X3.3126Y-2.5264
X3.3126Y-2.6264
X3.3126Y-2.7264
X3.3126Y-2.8264
X3.3126Y-2.9264
X3.3126Y-3.0264
X3.3362Y-3.4791
X3.3362Y-4.0791
X3.7126Y-2.3264
X3.7126Y-2.4264
X3.7126Y-2.5264
X3.7126Y-2.6264
X3.7126Y-2.7264
X3.7126Y-2.8264
X3.7126Y-2.9264
X3.7126Y-3.0264
X3.9122Y-3.226
X3.9728Y-2.3287
X3.9728Y-2.4287
X3.9728Y-2.5287
X3.9728Y-2.6287
X3.9728Y-2.7287
X3.9728Y-2.8287
X3.9728Y-2.9287
X3.9728Y-3.0287
X4.2551Y-2.1413
X4.3535Y-2.1413
X4.3728Y-2.3287
X4.3728Y-2.4287
X4.3728Y-2.5287
X4.3728Y-2.6287
X4.3728Y-2.7287
X4.3728Y-2.8287
X4.3728Y-2.9287
X4.3728Y-3.0287
X4.5122Y-3.226
X4.6524Y-2.3193
X4.6524Y-2.4193
X4.6524Y-2.5193
X4.6524Y-2.6193
X4.6524Y-2.7193
X4.6524Y-2.8193
X4.6524Y-2.9193
X4.6524Y-3.0193
X4.9327Y-2.1508
X5.0311Y-2.1508
X5.0524Y-2.3193
X5.0524Y-2.4193
X5.0524Y-2.5193
X5.0524Y-2.6193
X5.0524Y-2.7193
X5.0524Y-2.8193
X5.0524Y-2.9193
X5.0524Y-3.0193
X5.1334Y-4.8398
X5.2318Y-4.8398
X5.3413Y-2.324
X5.3413Y-2.424
X5.3413Y-2.524
X5.3413Y-2.624
X5.3413Y-2.724
X5.3413Y-2.824
X5.3413Y-2.924
X5.3413Y-3.024
X5.5441Y-4.8402
X5.6425Y-4.8402
X5.7413Y-2.324
X5.7413Y-2.424
X5.7413Y-2.524
X5.7413Y-2.624
X5.7413Y-2.724
X5.7413Y-2.824
X5.7413Y-2.924
X5.7413Y-3.024
X5.963Y-4.7921
X5.963Y-4.8709
X6.3169Y-4.4063
X6.3169Y-5.0063
T4
X4.028Y-1.8839
X4.128Y-1.8839
X4.228Y-1.8839
X4.328Y-1.8839
X4.428Y-1.8839
X4.528Y-1.8839
X4.8299Y-1.8843
X4.9299Y-1.8843
X5.0299Y-1.8843
X5.1299Y-1.8843
X5.2299Y-1.8843
X5.3299Y-1.8843
X5.4012Y-4.4319
X5.598Y-4.4319
X5.6382Y-1.8827
X5.7382Y-1.8827
X5.7949Y-4.4319
X5.8382Y-1.8827
X5.9382Y-1.8827
X5.9917Y-4.4319
X6.0382Y-1.8827
X6.1382Y-1.8827
T5
X6.0024Y-3.263
X6.4024Y-3.263
T6
X6.6264Y-2.2465
X6.6264Y-3.1362
M30
