%TF.GenerationSoftware,KiCad,Pcbnew,8.0.3*%
%TF.CreationDate,2024-06-12T06:48:37+01:00*%
%TF.ProjectId,meiaonda,6d656961-6f6e-4646-912e-6b696361645f,rev?*%
%TF.SameCoordinates,Original*%
%TF.FileFunction,Soldermask,Bot*%
%TF.FilePolarity,Negative*%
%FSLAX46Y46*%
G04 Gerber Fmt 4.6, Leading zero omitted, Abs format (unit mm)*
G04 Created by KiCad (PCBNEW 8.0.3) date 2024-06-12 06:48:37*
%MOMM*%
%LPD*%
G01*
G04 APERTURE LIST*
%ADD10C,1.270000*%
%ADD11C,3.200000*%
%ADD12C,1.600000*%
%ADD13O,1.600000X1.600000*%
%ADD14R,1.600000X1.600000*%
%ADD15R,1.700000X1.700000*%
%ADD16O,1.700000X1.700000*%
%ADD17R,2.000000X2.000000*%
%ADD18C,2.000000*%
%ADD19C,3.000000*%
%ADD20R,2.200000X2.200000*%
%ADD21O,2.200000X2.200000*%
G04 APERTURE END LIST*
D10*
%TO.C,K6*%
X91460000Y-88820000D03*
X91460000Y-91360000D03*
X91460000Y-101520000D03*
X91460000Y-104060000D03*
X99080000Y-104060000D03*
X99080000Y-101520000D03*
X99080000Y-91360000D03*
X99080000Y-88820000D03*
%TD*%
%TO.C,K1*%
X165230000Y-88950000D03*
X165230000Y-91490000D03*
X165230000Y-101650000D03*
X165230000Y-104190000D03*
X172850000Y-104190000D03*
X172850000Y-101650000D03*
X172850000Y-91490000D03*
X172850000Y-88950000D03*
%TD*%
%TO.C,K5*%
X128760000Y-88900000D03*
X128760000Y-91440000D03*
X128760000Y-101600000D03*
X128760000Y-104140000D03*
X136380000Y-104140000D03*
X136380000Y-101600000D03*
X136380000Y-91440000D03*
X136380000Y-88900000D03*
%TD*%
D11*
%TO.C,H4*%
X85480000Y-47870000D03*
%TD*%
D12*
%TO.C,R2*%
X99370000Y-81940000D03*
D13*
X114610000Y-81940000D03*
%TD*%
D14*
%TO.C,C6*%
X151460000Y-121720000D03*
D12*
X151460000Y-123720000D03*
%TD*%
D10*
%TO.C,K4*%
X95758400Y-126720000D03*
X95758400Y-121640000D03*
X95758400Y-116560000D03*
X95758400Y-111480000D03*
%TD*%
%TO.C,K11*%
X109239200Y-126720000D03*
X109239200Y-121640000D03*
X109239200Y-116560000D03*
X109239200Y-111480000D03*
%TD*%
D14*
%TO.C,C1*%
X140820000Y-122940000D03*
D12*
X143320000Y-122940000D03*
%TD*%
D15*
%TO.C,J3*%
X115010000Y-47850000D03*
D16*
X112470000Y-47850000D03*
X109930000Y-47850000D03*
X107390000Y-47850000D03*
X104850000Y-47850000D03*
X102310000Y-47850000D03*
%TD*%
D12*
%TO.C,R3*%
X160450000Y-127160000D03*
D13*
X160450000Y-111920000D03*
%TD*%
D17*
%TO.C,D2*%
X152190000Y-112570000D03*
D18*
X147190000Y-112570000D03*
X142190000Y-112570000D03*
X137190000Y-112570000D03*
%TD*%
D15*
%TO.C,J4*%
X155910000Y-47820000D03*
D16*
X153370000Y-47820000D03*
X150830000Y-47820000D03*
X148290000Y-47820000D03*
X145750000Y-47820000D03*
X143210000Y-47820000D03*
%TD*%
D12*
%TO.C,C3*%
X125290000Y-54630000D03*
X127790000Y-54630000D03*
%TD*%
D11*
%TO.C,H1*%
X171220000Y-45340000D03*
%TD*%
D14*
%TO.C,U2*%
X84140000Y-59090000D03*
D13*
X84140000Y-61630000D03*
X84140000Y-64170000D03*
X84140000Y-66710000D03*
X84140000Y-69250000D03*
X84140000Y-71790000D03*
X84140000Y-74330000D03*
X84140000Y-76870000D03*
X94300000Y-76870000D03*
X94300000Y-74330000D03*
X94300000Y-71790000D03*
X94300000Y-69250000D03*
X94300000Y-66710000D03*
X94300000Y-64170000D03*
X94300000Y-61630000D03*
X94300000Y-59090000D03*
%TD*%
D11*
%TO.C,H2*%
X171260000Y-125350000D03*
%TD*%
D14*
%TO.C,U4*%
X135670000Y-59030000D03*
D13*
X135670000Y-61570000D03*
X135670000Y-64110000D03*
X135670000Y-66650000D03*
X135670000Y-69190000D03*
X135670000Y-71730000D03*
X135670000Y-74270000D03*
X135670000Y-76810000D03*
X145830000Y-76810000D03*
X145830000Y-74270000D03*
X145830000Y-71730000D03*
X145830000Y-69190000D03*
X145830000Y-66650000D03*
X145830000Y-64110000D03*
X145830000Y-61570000D03*
X145830000Y-59030000D03*
%TD*%
D19*
%TO.C,F1*%
X168310000Y-57060000D03*
X168310000Y-79660000D03*
%TD*%
D10*
%TO.C,K9*%
X116180000Y-88900000D03*
X116180000Y-91440000D03*
X116180000Y-101600000D03*
X116180000Y-104140000D03*
X123800000Y-104140000D03*
X123800000Y-101600000D03*
X123800000Y-91440000D03*
X123800000Y-88900000D03*
%TD*%
D14*
%TO.C,U3*%
X118170000Y-58910000D03*
D13*
X118170000Y-61450000D03*
X118170000Y-63990000D03*
X118170000Y-66530000D03*
X118170000Y-69070000D03*
X118170000Y-71610000D03*
X118170000Y-74150000D03*
X118170000Y-76690000D03*
X128330000Y-76690000D03*
X128330000Y-74150000D03*
X128330000Y-71610000D03*
X128330000Y-69070000D03*
X128330000Y-66530000D03*
X128330000Y-63990000D03*
X128330000Y-61450000D03*
X128330000Y-58910000D03*
%TD*%
D10*
%TO.C,K10*%
X102498800Y-126720000D03*
X102498800Y-121640000D03*
X102498800Y-116560000D03*
X102498800Y-111480000D03*
%TD*%
D12*
%TO.C,C4*%
X110580000Y-54390000D03*
X108080000Y-54390000D03*
%TD*%
D10*
%TO.C,K8*%
X151900000Y-60470000D03*
X151900000Y-63010000D03*
X151900000Y-73170000D03*
X151900000Y-75710000D03*
X159520000Y-75710000D03*
X159520000Y-73170000D03*
X159520000Y-63010000D03*
X159520000Y-60470000D03*
%TD*%
D14*
%TO.C,U1*%
X100910000Y-59150000D03*
D13*
X100910000Y-61690000D03*
X100910000Y-64230000D03*
X100910000Y-66770000D03*
X100910000Y-69310000D03*
X100910000Y-71850000D03*
X100910000Y-74390000D03*
X100910000Y-76930000D03*
X111070000Y-76930000D03*
X111070000Y-74390000D03*
X111070000Y-71850000D03*
X111070000Y-69310000D03*
X111070000Y-66770000D03*
X111070000Y-64230000D03*
X111070000Y-61690000D03*
X111070000Y-59150000D03*
%TD*%
D14*
%TO.C,C2*%
X130387621Y-122930000D03*
D12*
X132887621Y-122930000D03*
%TD*%
D10*
%TO.C,K7*%
X103370000Y-88870000D03*
X103370000Y-91410000D03*
X103370000Y-101570000D03*
X103370000Y-104110000D03*
X110990000Y-104110000D03*
X110990000Y-101570000D03*
X110990000Y-91410000D03*
X110990000Y-88870000D03*
%TD*%
D15*
%TO.C,J2*%
X135380000Y-47860000D03*
D16*
X132840000Y-47860000D03*
X130300000Y-47860000D03*
X127760000Y-47860000D03*
X125220000Y-47860000D03*
X122680000Y-47860000D03*
%TD*%
D10*
%TO.C,K12*%
X115979600Y-126720000D03*
X115979600Y-121640000D03*
X115979600Y-116560000D03*
X115979600Y-111480000D03*
%TD*%
D12*
%TO.C,R1*%
X84740000Y-88370000D03*
D13*
X84740000Y-103610000D03*
%TD*%
D10*
%TO.C,K13*%
X122720000Y-126720000D03*
X122720000Y-121640000D03*
X122720000Y-116560000D03*
X122720000Y-111480000D03*
%TD*%
D11*
%TO.C,H3*%
X85520000Y-121550000D03*
%TD*%
D20*
%TO.C,D1*%
X152460000Y-82880000D03*
D21*
X162620000Y-82880000D03*
%TD*%
D10*
%TO.C,K2*%
X141680000Y-88900000D03*
X141680000Y-91440000D03*
X141680000Y-101600000D03*
X141680000Y-104140000D03*
X149300000Y-104140000D03*
X149300000Y-101600000D03*
X149300000Y-91440000D03*
X149300000Y-88900000D03*
%TD*%
%TO.C,K3*%
X153610000Y-88940000D03*
X153610000Y-91480000D03*
X153610000Y-101640000D03*
X153610000Y-104180000D03*
X161230000Y-104180000D03*
X161230000Y-101640000D03*
X161230000Y-91480000D03*
X161230000Y-88940000D03*
%TD*%
M02*
