%TF.GenerationSoftware,KiCad,Pcbnew,8.0.3*%
%TF.CreationDate,2024-06-12T06:48:37+01:00*%
%TF.ProjectId,meiaonda,6d656961-6f6e-4646-912e-6b696361645f,rev?*%
%TF.SameCoordinates,Original*%
%TF.FileFunction,Legend,Top*%
%TF.FilePolarity,Positive*%
%FSLAX46Y46*%
G04 Gerber Fmt 4.6, Leading zero omitted, Abs format (unit mm)*
G04 Created by KiCad (PCBNEW 8.0.3) date 2024-06-12 06:48:37*
%MOMM*%
%LPD*%
G01*
G04 APERTURE LIST*
%ADD10C,0.152400*%
%ADD11C,0.150000*%
%ADD12C,0.120000*%
%ADD13C,1.270000*%
%ADD14C,3.200000*%
%ADD15C,1.600000*%
%ADD16O,1.600000X1.600000*%
%ADD17R,1.600000X1.600000*%
%ADD18R,1.700000X1.700000*%
%ADD19O,1.700000X1.700000*%
%ADD20R,2.000000X2.000000*%
%ADD21C,2.000000*%
%ADD22C,3.000000*%
%ADD23R,2.200000X2.200000*%
%ADD24O,2.200000X2.200000*%
G04 APERTURE END LIST*
D10*
X103620834Y-43192603D02*
X103233786Y-43192603D01*
X103233786Y-43192603D02*
X103233786Y-42379803D01*
X104240110Y-43192603D02*
X104240110Y-42766851D01*
X104240110Y-42766851D02*
X104201405Y-42689441D01*
X104201405Y-42689441D02*
X104123996Y-42650737D01*
X104123996Y-42650737D02*
X103969177Y-42650737D01*
X103969177Y-42650737D02*
X103891767Y-42689441D01*
X104240110Y-43153899D02*
X104162701Y-43192603D01*
X104162701Y-43192603D02*
X103969177Y-43192603D01*
X103969177Y-43192603D02*
X103891767Y-43153899D01*
X103891767Y-43153899D02*
X103853063Y-43076489D01*
X103853063Y-43076489D02*
X103853063Y-42999079D01*
X103853063Y-42999079D02*
X103891767Y-42921670D01*
X103891767Y-42921670D02*
X103969177Y-42882965D01*
X103969177Y-42882965D02*
X104162701Y-42882965D01*
X104162701Y-42882965D02*
X104240110Y-42844260D01*
X105091614Y-43192603D02*
X104820681Y-42805556D01*
X104627157Y-43192603D02*
X104627157Y-42379803D01*
X104627157Y-42379803D02*
X104936795Y-42379803D01*
X104936795Y-42379803D02*
X105014205Y-42418508D01*
X105014205Y-42418508D02*
X105052910Y-42457213D01*
X105052910Y-42457213D02*
X105091614Y-42534622D01*
X105091614Y-42534622D02*
X105091614Y-42650737D01*
X105091614Y-42650737D02*
X105052910Y-42728146D01*
X105052910Y-42728146D02*
X105014205Y-42766851D01*
X105014205Y-42766851D02*
X104936795Y-42805556D01*
X104936795Y-42805556D02*
X104627157Y-42805556D01*
X105439957Y-42766851D02*
X105710891Y-42766851D01*
X105827005Y-43192603D02*
X105439957Y-43192603D01*
X105439957Y-43192603D02*
X105439957Y-42379803D01*
X105439957Y-42379803D02*
X105827005Y-42379803D01*
X106794623Y-42882965D02*
X107413900Y-42882965D01*
X108884680Y-43192603D02*
X108613747Y-42805556D01*
X108420223Y-43192603D02*
X108420223Y-42379803D01*
X108420223Y-42379803D02*
X108729861Y-42379803D01*
X108729861Y-42379803D02*
X108807271Y-42418508D01*
X108807271Y-42418508D02*
X108845976Y-42457213D01*
X108845976Y-42457213D02*
X108884680Y-42534622D01*
X108884680Y-42534622D02*
X108884680Y-42650737D01*
X108884680Y-42650737D02*
X108845976Y-42728146D01*
X108845976Y-42728146D02*
X108807271Y-42766851D01*
X108807271Y-42766851D02*
X108729861Y-42805556D01*
X108729861Y-42805556D02*
X108420223Y-42805556D01*
X109542661Y-43153899D02*
X109465252Y-43192603D01*
X109465252Y-43192603D02*
X109310433Y-43192603D01*
X109310433Y-43192603D02*
X109233023Y-43153899D01*
X109233023Y-43153899D02*
X109194319Y-43076489D01*
X109194319Y-43076489D02*
X109194319Y-42766851D01*
X109194319Y-42766851D02*
X109233023Y-42689441D01*
X109233023Y-42689441D02*
X109310433Y-42650737D01*
X109310433Y-42650737D02*
X109465252Y-42650737D01*
X109465252Y-42650737D02*
X109542661Y-42689441D01*
X109542661Y-42689441D02*
X109581366Y-42766851D01*
X109581366Y-42766851D02*
X109581366Y-42844260D01*
X109581366Y-42844260D02*
X109194319Y-42921670D01*
X110278052Y-43153899D02*
X110200643Y-43192603D01*
X110200643Y-43192603D02*
X110045824Y-43192603D01*
X110045824Y-43192603D02*
X109968414Y-43153899D01*
X109968414Y-43153899D02*
X109929709Y-43115194D01*
X109929709Y-43115194D02*
X109891005Y-43037784D01*
X109891005Y-43037784D02*
X109891005Y-42805556D01*
X109891005Y-42805556D02*
X109929709Y-42728146D01*
X109929709Y-42728146D02*
X109968414Y-42689441D01*
X109968414Y-42689441D02*
X110045824Y-42650737D01*
X110045824Y-42650737D02*
X110200643Y-42650737D01*
X110200643Y-42650737D02*
X110278052Y-42689441D01*
X110510281Y-42650737D02*
X110819919Y-42650737D01*
X110626395Y-42379803D02*
X110626395Y-43076489D01*
X110626395Y-43076489D02*
X110665100Y-43153899D01*
X110665100Y-43153899D02*
X110742510Y-43192603D01*
X110742510Y-43192603D02*
X110819919Y-43192603D01*
X111090852Y-43192603D02*
X111090852Y-42650737D01*
X111090852Y-42379803D02*
X111052148Y-42418508D01*
X111052148Y-42418508D02*
X111090852Y-42457213D01*
X111090852Y-42457213D02*
X111129557Y-42418508D01*
X111129557Y-42418508D02*
X111090852Y-42379803D01*
X111090852Y-42379803D02*
X111090852Y-42457213D01*
X111361786Y-42650737D02*
X111671424Y-42650737D01*
X111477900Y-43192603D02*
X111477900Y-42495918D01*
X111477900Y-42495918D02*
X111516605Y-42418508D01*
X111516605Y-42418508D02*
X111594015Y-42379803D01*
X111594015Y-42379803D02*
X111671424Y-42379803D01*
X111942357Y-43192603D02*
X111942357Y-42650737D01*
X111942357Y-42379803D02*
X111903653Y-42418508D01*
X111903653Y-42418508D02*
X111942357Y-42457213D01*
X111942357Y-42457213D02*
X111981062Y-42418508D01*
X111981062Y-42418508D02*
X111942357Y-42379803D01*
X111942357Y-42379803D02*
X111942357Y-42457213D01*
X112639043Y-43153899D02*
X112561634Y-43192603D01*
X112561634Y-43192603D02*
X112406815Y-43192603D01*
X112406815Y-43192603D02*
X112329405Y-43153899D01*
X112329405Y-43153899D02*
X112290701Y-43076489D01*
X112290701Y-43076489D02*
X112290701Y-42766851D01*
X112290701Y-42766851D02*
X112329405Y-42689441D01*
X112329405Y-42689441D02*
X112406815Y-42650737D01*
X112406815Y-42650737D02*
X112561634Y-42650737D01*
X112561634Y-42650737D02*
X112639043Y-42689441D01*
X112639043Y-42689441D02*
X112677748Y-42766851D01*
X112677748Y-42766851D02*
X112677748Y-42844260D01*
X112677748Y-42844260D02*
X112290701Y-42921670D01*
X113026091Y-43192603D02*
X113026091Y-42650737D01*
X113026091Y-42805556D02*
X113064796Y-42728146D01*
X113064796Y-42728146D02*
X113103501Y-42689441D01*
X113103501Y-42689441D02*
X113180910Y-42650737D01*
X113180910Y-42650737D02*
X113258320Y-42650737D01*
X113490549Y-43153899D02*
X113567958Y-43192603D01*
X113567958Y-43192603D02*
X113722777Y-43192603D01*
X113722777Y-43192603D02*
X113800187Y-43153899D01*
X113800187Y-43153899D02*
X113838891Y-43076489D01*
X113838891Y-43076489D02*
X113838891Y-43037784D01*
X113838891Y-43037784D02*
X113800187Y-42960375D01*
X113800187Y-42960375D02*
X113722777Y-42921670D01*
X113722777Y-42921670D02*
X113606663Y-42921670D01*
X113606663Y-42921670D02*
X113529253Y-42882965D01*
X113529253Y-42882965D02*
X113490549Y-42805556D01*
X113490549Y-42805556D02*
X113490549Y-42766851D01*
X113490549Y-42766851D02*
X113529253Y-42689441D01*
X113529253Y-42689441D02*
X113606663Y-42650737D01*
X113606663Y-42650737D02*
X113722777Y-42650737D01*
X113722777Y-42650737D02*
X113800187Y-42689441D01*
X115154853Y-43192603D02*
X115154853Y-42766851D01*
X115154853Y-42766851D02*
X115116148Y-42689441D01*
X115116148Y-42689441D02*
X115038739Y-42650737D01*
X115038739Y-42650737D02*
X114883920Y-42650737D01*
X114883920Y-42650737D02*
X114806510Y-42689441D01*
X115154853Y-43153899D02*
X115077444Y-43192603D01*
X115077444Y-43192603D02*
X114883920Y-43192603D01*
X114883920Y-43192603D02*
X114806510Y-43153899D01*
X114806510Y-43153899D02*
X114767806Y-43076489D01*
X114767806Y-43076489D02*
X114767806Y-42999079D01*
X114767806Y-42999079D02*
X114806510Y-42921670D01*
X114806510Y-42921670D02*
X114883920Y-42882965D01*
X114883920Y-42882965D02*
X115077444Y-42882965D01*
X115077444Y-42882965D02*
X115154853Y-42844260D01*
X115541900Y-42650737D02*
X115541900Y-43192603D01*
X115541900Y-42728146D02*
X115580605Y-42689441D01*
X115580605Y-42689441D02*
X115658015Y-42650737D01*
X115658015Y-42650737D02*
X115774129Y-42650737D01*
X115774129Y-42650737D02*
X115851538Y-42689441D01*
X115851538Y-42689441D02*
X115890243Y-42766851D01*
X115890243Y-42766851D02*
X115890243Y-43192603D01*
X116625633Y-43192603D02*
X116625633Y-42379803D01*
X116625633Y-43153899D02*
X116548224Y-43192603D01*
X116548224Y-43192603D02*
X116393405Y-43192603D01*
X116393405Y-43192603D02*
X116315995Y-43153899D01*
X116315995Y-43153899D02*
X116277290Y-43115194D01*
X116277290Y-43115194D02*
X116238586Y-43037784D01*
X116238586Y-43037784D02*
X116238586Y-42805556D01*
X116238586Y-42805556D02*
X116277290Y-42728146D01*
X116277290Y-42728146D02*
X116315995Y-42689441D01*
X116315995Y-42689441D02*
X116393405Y-42650737D01*
X116393405Y-42650737D02*
X116548224Y-42650737D01*
X116548224Y-42650737D02*
X116625633Y-42689441D01*
X117902890Y-42766851D02*
X117631956Y-42766851D01*
X117631956Y-43192603D02*
X117631956Y-42379803D01*
X117631956Y-42379803D02*
X118019004Y-42379803D01*
X118328642Y-43192603D02*
X118328642Y-42650737D01*
X118328642Y-42379803D02*
X118289938Y-42418508D01*
X118289938Y-42418508D02*
X118328642Y-42457213D01*
X118328642Y-42457213D02*
X118367347Y-42418508D01*
X118367347Y-42418508D02*
X118328642Y-42379803D01*
X118328642Y-42379803D02*
X118328642Y-42457213D01*
X118831805Y-43192603D02*
X118754395Y-43153899D01*
X118754395Y-43153899D02*
X118715690Y-43076489D01*
X118715690Y-43076489D02*
X118715690Y-42379803D01*
X119025328Y-42650737D02*
X119334966Y-42650737D01*
X119141442Y-42379803D02*
X119141442Y-43076489D01*
X119141442Y-43076489D02*
X119180147Y-43153899D01*
X119180147Y-43153899D02*
X119257557Y-43192603D01*
X119257557Y-43192603D02*
X119334966Y-43192603D01*
X119915537Y-43153899D02*
X119838128Y-43192603D01*
X119838128Y-43192603D02*
X119683309Y-43192603D01*
X119683309Y-43192603D02*
X119605899Y-43153899D01*
X119605899Y-43153899D02*
X119567195Y-43076489D01*
X119567195Y-43076489D02*
X119567195Y-42766851D01*
X119567195Y-42766851D02*
X119605899Y-42689441D01*
X119605899Y-42689441D02*
X119683309Y-42650737D01*
X119683309Y-42650737D02*
X119838128Y-42650737D01*
X119838128Y-42650737D02*
X119915537Y-42689441D01*
X119915537Y-42689441D02*
X119954242Y-42766851D01*
X119954242Y-42766851D02*
X119954242Y-42844260D01*
X119954242Y-42844260D02*
X119567195Y-42921670D01*
X120302585Y-43192603D02*
X120302585Y-42650737D01*
X120302585Y-42805556D02*
X120341290Y-42728146D01*
X120341290Y-42728146D02*
X120379995Y-42689441D01*
X120379995Y-42689441D02*
X120457404Y-42650737D01*
X120457404Y-42650737D02*
X120534814Y-42650737D01*
X120767043Y-43153899D02*
X120844452Y-43192603D01*
X120844452Y-43192603D02*
X120999271Y-43192603D01*
X120999271Y-43192603D02*
X121076681Y-43153899D01*
X121076681Y-43153899D02*
X121115385Y-43076489D01*
X121115385Y-43076489D02*
X121115385Y-43037784D01*
X121115385Y-43037784D02*
X121076681Y-42960375D01*
X121076681Y-42960375D02*
X120999271Y-42921670D01*
X120999271Y-42921670D02*
X120883157Y-42921670D01*
X120883157Y-42921670D02*
X120805747Y-42882965D01*
X120805747Y-42882965D02*
X120767043Y-42805556D01*
X120767043Y-42805556D02*
X120767043Y-42766851D01*
X120767043Y-42766851D02*
X120805747Y-42689441D01*
X120805747Y-42689441D02*
X120883157Y-42650737D01*
X120883157Y-42650737D02*
X120999271Y-42650737D01*
X120999271Y-42650737D02*
X121076681Y-42689441D01*
D11*
X94531905Y-96894819D02*
X94531905Y-95894819D01*
X95103333Y-96894819D02*
X94674762Y-96323390D01*
X95103333Y-95894819D02*
X94531905Y-96466247D01*
X95960476Y-95894819D02*
X95770000Y-95894819D01*
X95770000Y-95894819D02*
X95674762Y-95942438D01*
X95674762Y-95942438D02*
X95627143Y-95990057D01*
X95627143Y-95990057D02*
X95531905Y-96132914D01*
X95531905Y-96132914D02*
X95484286Y-96323390D01*
X95484286Y-96323390D02*
X95484286Y-96704342D01*
X95484286Y-96704342D02*
X95531905Y-96799580D01*
X95531905Y-96799580D02*
X95579524Y-96847200D01*
X95579524Y-96847200D02*
X95674762Y-96894819D01*
X95674762Y-96894819D02*
X95865238Y-96894819D01*
X95865238Y-96894819D02*
X95960476Y-96847200D01*
X95960476Y-96847200D02*
X96008095Y-96799580D01*
X96008095Y-96799580D02*
X96055714Y-96704342D01*
X96055714Y-96704342D02*
X96055714Y-96466247D01*
X96055714Y-96466247D02*
X96008095Y-96371009D01*
X96008095Y-96371009D02*
X95960476Y-96323390D01*
X95960476Y-96323390D02*
X95865238Y-96275771D01*
X95865238Y-96275771D02*
X95674762Y-96275771D01*
X95674762Y-96275771D02*
X95579524Y-96323390D01*
X95579524Y-96323390D02*
X95531905Y-96371009D01*
X95531905Y-96371009D02*
X95484286Y-96466247D01*
X168301905Y-97024819D02*
X168301905Y-96024819D01*
X168873333Y-97024819D02*
X168444762Y-96453390D01*
X168873333Y-96024819D02*
X168301905Y-96596247D01*
X169825714Y-97024819D02*
X169254286Y-97024819D01*
X169540000Y-97024819D02*
X169540000Y-96024819D01*
X169540000Y-96024819D02*
X169444762Y-96167676D01*
X169444762Y-96167676D02*
X169349524Y-96262914D01*
X169349524Y-96262914D02*
X169254286Y-96310533D01*
X131831905Y-96974819D02*
X131831905Y-95974819D01*
X132403333Y-96974819D02*
X131974762Y-96403390D01*
X132403333Y-95974819D02*
X131831905Y-96546247D01*
X133308095Y-95974819D02*
X132831905Y-95974819D01*
X132831905Y-95974819D02*
X132784286Y-96451009D01*
X132784286Y-96451009D02*
X132831905Y-96403390D01*
X132831905Y-96403390D02*
X132927143Y-96355771D01*
X132927143Y-96355771D02*
X133165238Y-96355771D01*
X133165238Y-96355771D02*
X133260476Y-96403390D01*
X133260476Y-96403390D02*
X133308095Y-96451009D01*
X133308095Y-96451009D02*
X133355714Y-96546247D01*
X133355714Y-96546247D02*
X133355714Y-96784342D01*
X133355714Y-96784342D02*
X133308095Y-96879580D01*
X133308095Y-96879580D02*
X133260476Y-96927200D01*
X133260476Y-96927200D02*
X133165238Y-96974819D01*
X133165238Y-96974819D02*
X132927143Y-96974819D01*
X132927143Y-96974819D02*
X132831905Y-96927200D01*
X132831905Y-96927200D02*
X132784286Y-96879580D01*
X84718095Y-44124819D02*
X84718095Y-43124819D01*
X84718095Y-43601009D02*
X85289523Y-43601009D01*
X85289523Y-44124819D02*
X85289523Y-43124819D01*
X86194285Y-43458152D02*
X86194285Y-44124819D01*
X85956190Y-43077200D02*
X85718095Y-43791485D01*
X85718095Y-43791485D02*
X86337142Y-43791485D01*
X106823333Y-80024819D02*
X106490000Y-79548628D01*
X106251905Y-80024819D02*
X106251905Y-79024819D01*
X106251905Y-79024819D02*
X106632857Y-79024819D01*
X106632857Y-79024819D02*
X106728095Y-79072438D01*
X106728095Y-79072438D02*
X106775714Y-79120057D01*
X106775714Y-79120057D02*
X106823333Y-79215295D01*
X106823333Y-79215295D02*
X106823333Y-79358152D01*
X106823333Y-79358152D02*
X106775714Y-79453390D01*
X106775714Y-79453390D02*
X106728095Y-79501009D01*
X106728095Y-79501009D02*
X106632857Y-79548628D01*
X106632857Y-79548628D02*
X106251905Y-79548628D01*
X107204286Y-79120057D02*
X107251905Y-79072438D01*
X107251905Y-79072438D02*
X107347143Y-79024819D01*
X107347143Y-79024819D02*
X107585238Y-79024819D01*
X107585238Y-79024819D02*
X107680476Y-79072438D01*
X107680476Y-79072438D02*
X107728095Y-79120057D01*
X107728095Y-79120057D02*
X107775714Y-79215295D01*
X107775714Y-79215295D02*
X107775714Y-79310533D01*
X107775714Y-79310533D02*
X107728095Y-79453390D01*
X107728095Y-79453390D02*
X107156667Y-80024819D01*
X107156667Y-80024819D02*
X107775714Y-80024819D01*
X155569580Y-122886666D02*
X155617200Y-122934285D01*
X155617200Y-122934285D02*
X155664819Y-123077142D01*
X155664819Y-123077142D02*
X155664819Y-123172380D01*
X155664819Y-123172380D02*
X155617200Y-123315237D01*
X155617200Y-123315237D02*
X155521961Y-123410475D01*
X155521961Y-123410475D02*
X155426723Y-123458094D01*
X155426723Y-123458094D02*
X155236247Y-123505713D01*
X155236247Y-123505713D02*
X155093390Y-123505713D01*
X155093390Y-123505713D02*
X154902914Y-123458094D01*
X154902914Y-123458094D02*
X154807676Y-123410475D01*
X154807676Y-123410475D02*
X154712438Y-123315237D01*
X154712438Y-123315237D02*
X154664819Y-123172380D01*
X154664819Y-123172380D02*
X154664819Y-123077142D01*
X154664819Y-123077142D02*
X154712438Y-122934285D01*
X154712438Y-122934285D02*
X154760057Y-122886666D01*
X154664819Y-122029523D02*
X154664819Y-122219999D01*
X154664819Y-122219999D02*
X154712438Y-122315237D01*
X154712438Y-122315237D02*
X154760057Y-122362856D01*
X154760057Y-122362856D02*
X154902914Y-122458094D01*
X154902914Y-122458094D02*
X155093390Y-122505713D01*
X155093390Y-122505713D02*
X155474342Y-122505713D01*
X155474342Y-122505713D02*
X155569580Y-122458094D01*
X155569580Y-122458094D02*
X155617200Y-122410475D01*
X155617200Y-122410475D02*
X155664819Y-122315237D01*
X155664819Y-122315237D02*
X155664819Y-122124761D01*
X155664819Y-122124761D02*
X155617200Y-122029523D01*
X155617200Y-122029523D02*
X155569580Y-121981904D01*
X155569580Y-121981904D02*
X155474342Y-121934285D01*
X155474342Y-121934285D02*
X155236247Y-121934285D01*
X155236247Y-121934285D02*
X155141009Y-121981904D01*
X155141009Y-121981904D02*
X155093390Y-122029523D01*
X155093390Y-122029523D02*
X155045771Y-122124761D01*
X155045771Y-122124761D02*
X155045771Y-122315237D01*
X155045771Y-122315237D02*
X155093390Y-122410475D01*
X155093390Y-122410475D02*
X155141009Y-122458094D01*
X155141009Y-122458094D02*
X155236247Y-122505713D01*
X96213219Y-119838094D02*
X95213219Y-119838094D01*
X96213219Y-119266666D02*
X95641790Y-119695237D01*
X95213219Y-119266666D02*
X95784647Y-119838094D01*
X95546552Y-118409523D02*
X96213219Y-118409523D01*
X95165600Y-118647618D02*
X95879885Y-118885713D01*
X95879885Y-118885713D02*
X95879885Y-118266666D01*
X109694019Y-120314285D02*
X108694019Y-120314285D01*
X109694019Y-119742857D02*
X109122590Y-120171428D01*
X108694019Y-119742857D02*
X109265447Y-120314285D01*
X109694019Y-118790476D02*
X109694019Y-119361904D01*
X109694019Y-119076190D02*
X108694019Y-119076190D01*
X108694019Y-119076190D02*
X108836876Y-119171428D01*
X108836876Y-119171428D02*
X108932114Y-119266666D01*
X108932114Y-119266666D02*
X108979733Y-119361904D01*
X109694019Y-117838095D02*
X109694019Y-118409523D01*
X109694019Y-118123809D02*
X108694019Y-118123809D01*
X108694019Y-118123809D02*
X108836876Y-118219047D01*
X108836876Y-118219047D02*
X108932114Y-118314285D01*
X108932114Y-118314285D02*
X108979733Y-118409523D01*
X141903333Y-118899580D02*
X141855714Y-118947200D01*
X141855714Y-118947200D02*
X141712857Y-118994819D01*
X141712857Y-118994819D02*
X141617619Y-118994819D01*
X141617619Y-118994819D02*
X141474762Y-118947200D01*
X141474762Y-118947200D02*
X141379524Y-118851961D01*
X141379524Y-118851961D02*
X141331905Y-118756723D01*
X141331905Y-118756723D02*
X141284286Y-118566247D01*
X141284286Y-118566247D02*
X141284286Y-118423390D01*
X141284286Y-118423390D02*
X141331905Y-118232914D01*
X141331905Y-118232914D02*
X141379524Y-118137676D01*
X141379524Y-118137676D02*
X141474762Y-118042438D01*
X141474762Y-118042438D02*
X141617619Y-117994819D01*
X141617619Y-117994819D02*
X141712857Y-117994819D01*
X141712857Y-117994819D02*
X141855714Y-118042438D01*
X141855714Y-118042438D02*
X141903333Y-118090057D01*
X142855714Y-118994819D02*
X142284286Y-118994819D01*
X142570000Y-118994819D02*
X142570000Y-117994819D01*
X142570000Y-117994819D02*
X142474762Y-118137676D01*
X142474762Y-118137676D02*
X142379524Y-118232914D01*
X142379524Y-118232914D02*
X142284286Y-118280533D01*
X117964819Y-48093333D02*
X118679104Y-48093333D01*
X118679104Y-48093333D02*
X118821961Y-48140952D01*
X118821961Y-48140952D02*
X118917200Y-48236190D01*
X118917200Y-48236190D02*
X118964819Y-48379047D01*
X118964819Y-48379047D02*
X118964819Y-48474285D01*
X117964819Y-47712380D02*
X117964819Y-47093333D01*
X117964819Y-47093333D02*
X118345771Y-47426666D01*
X118345771Y-47426666D02*
X118345771Y-47283809D01*
X118345771Y-47283809D02*
X118393390Y-47188571D01*
X118393390Y-47188571D02*
X118441009Y-47140952D01*
X118441009Y-47140952D02*
X118536247Y-47093333D01*
X118536247Y-47093333D02*
X118774342Y-47093333D01*
X118774342Y-47093333D02*
X118869580Y-47140952D01*
X118869580Y-47140952D02*
X118917200Y-47188571D01*
X118917200Y-47188571D02*
X118964819Y-47283809D01*
X118964819Y-47283809D02*
X118964819Y-47569523D01*
X118964819Y-47569523D02*
X118917200Y-47664761D01*
X118917200Y-47664761D02*
X118869580Y-47712380D01*
X158534819Y-119706666D02*
X158058628Y-120039999D01*
X158534819Y-120278094D02*
X157534819Y-120278094D01*
X157534819Y-120278094D02*
X157534819Y-119897142D01*
X157534819Y-119897142D02*
X157582438Y-119801904D01*
X157582438Y-119801904D02*
X157630057Y-119754285D01*
X157630057Y-119754285D02*
X157725295Y-119706666D01*
X157725295Y-119706666D02*
X157868152Y-119706666D01*
X157868152Y-119706666D02*
X157963390Y-119754285D01*
X157963390Y-119754285D02*
X158011009Y-119801904D01*
X158011009Y-119801904D02*
X158058628Y-119897142D01*
X158058628Y-119897142D02*
X158058628Y-120278094D01*
X157534819Y-119373332D02*
X157534819Y-118754285D01*
X157534819Y-118754285D02*
X157915771Y-119087618D01*
X157915771Y-119087618D02*
X157915771Y-118944761D01*
X157915771Y-118944761D02*
X157963390Y-118849523D01*
X157963390Y-118849523D02*
X158011009Y-118801904D01*
X158011009Y-118801904D02*
X158106247Y-118754285D01*
X158106247Y-118754285D02*
X158344342Y-118754285D01*
X158344342Y-118754285D02*
X158439580Y-118801904D01*
X158439580Y-118801904D02*
X158487200Y-118849523D01*
X158487200Y-118849523D02*
X158534819Y-118944761D01*
X158534819Y-118944761D02*
X158534819Y-119230475D01*
X158534819Y-119230475D02*
X158487200Y-119325713D01*
X158487200Y-119325713D02*
X158439580Y-119373332D01*
X143751905Y-115624819D02*
X143751905Y-114624819D01*
X143751905Y-114624819D02*
X143990000Y-114624819D01*
X143990000Y-114624819D02*
X144132857Y-114672438D01*
X144132857Y-114672438D02*
X144228095Y-114767676D01*
X144228095Y-114767676D02*
X144275714Y-114862914D01*
X144275714Y-114862914D02*
X144323333Y-115053390D01*
X144323333Y-115053390D02*
X144323333Y-115196247D01*
X144323333Y-115196247D02*
X144275714Y-115386723D01*
X144275714Y-115386723D02*
X144228095Y-115481961D01*
X144228095Y-115481961D02*
X144132857Y-115577200D01*
X144132857Y-115577200D02*
X143990000Y-115624819D01*
X143990000Y-115624819D02*
X143751905Y-115624819D01*
X144704286Y-114720057D02*
X144751905Y-114672438D01*
X144751905Y-114672438D02*
X144847143Y-114624819D01*
X144847143Y-114624819D02*
X145085238Y-114624819D01*
X145085238Y-114624819D02*
X145180476Y-114672438D01*
X145180476Y-114672438D02*
X145228095Y-114720057D01*
X145228095Y-114720057D02*
X145275714Y-114815295D01*
X145275714Y-114815295D02*
X145275714Y-114910533D01*
X145275714Y-114910533D02*
X145228095Y-115053390D01*
X145228095Y-115053390D02*
X144656667Y-115624819D01*
X144656667Y-115624819D02*
X145275714Y-115624819D01*
X158134819Y-48153333D02*
X158849104Y-48153333D01*
X158849104Y-48153333D02*
X158991961Y-48200952D01*
X158991961Y-48200952D02*
X159087200Y-48296190D01*
X159087200Y-48296190D02*
X159134819Y-48439047D01*
X159134819Y-48439047D02*
X159134819Y-48534285D01*
X158468152Y-47248571D02*
X159134819Y-47248571D01*
X158087200Y-47486666D02*
X158801485Y-47724761D01*
X158801485Y-47724761D02*
X158801485Y-47105714D01*
X130283333Y-53909580D02*
X130235714Y-53957200D01*
X130235714Y-53957200D02*
X130092857Y-54004819D01*
X130092857Y-54004819D02*
X129997619Y-54004819D01*
X129997619Y-54004819D02*
X129854762Y-53957200D01*
X129854762Y-53957200D02*
X129759524Y-53861961D01*
X129759524Y-53861961D02*
X129711905Y-53766723D01*
X129711905Y-53766723D02*
X129664286Y-53576247D01*
X129664286Y-53576247D02*
X129664286Y-53433390D01*
X129664286Y-53433390D02*
X129711905Y-53242914D01*
X129711905Y-53242914D02*
X129759524Y-53147676D01*
X129759524Y-53147676D02*
X129854762Y-53052438D01*
X129854762Y-53052438D02*
X129997619Y-53004819D01*
X129997619Y-53004819D02*
X130092857Y-53004819D01*
X130092857Y-53004819D02*
X130235714Y-53052438D01*
X130235714Y-53052438D02*
X130283333Y-53100057D01*
X130616667Y-53004819D02*
X131235714Y-53004819D01*
X131235714Y-53004819D02*
X130902381Y-53385771D01*
X130902381Y-53385771D02*
X131045238Y-53385771D01*
X131045238Y-53385771D02*
X131140476Y-53433390D01*
X131140476Y-53433390D02*
X131188095Y-53481009D01*
X131188095Y-53481009D02*
X131235714Y-53576247D01*
X131235714Y-53576247D02*
X131235714Y-53814342D01*
X131235714Y-53814342D02*
X131188095Y-53909580D01*
X131188095Y-53909580D02*
X131140476Y-53957200D01*
X131140476Y-53957200D02*
X131045238Y-54004819D01*
X131045238Y-54004819D02*
X130759524Y-54004819D01*
X130759524Y-54004819D02*
X130664286Y-53957200D01*
X130664286Y-53957200D02*
X130616667Y-53909580D01*
X170458095Y-41594819D02*
X170458095Y-40594819D01*
X170458095Y-41071009D02*
X171029523Y-41071009D01*
X171029523Y-41594819D02*
X171029523Y-40594819D01*
X172029523Y-41594819D02*
X171458095Y-41594819D01*
X171743809Y-41594819D02*
X171743809Y-40594819D01*
X171743809Y-40594819D02*
X171648571Y-40737676D01*
X171648571Y-40737676D02*
X171553333Y-40832914D01*
X171553333Y-40832914D02*
X171458095Y-40880533D01*
X88458095Y-56214819D02*
X88458095Y-57024342D01*
X88458095Y-57024342D02*
X88505714Y-57119580D01*
X88505714Y-57119580D02*
X88553333Y-57167200D01*
X88553333Y-57167200D02*
X88648571Y-57214819D01*
X88648571Y-57214819D02*
X88839047Y-57214819D01*
X88839047Y-57214819D02*
X88934285Y-57167200D01*
X88934285Y-57167200D02*
X88981904Y-57119580D01*
X88981904Y-57119580D02*
X89029523Y-57024342D01*
X89029523Y-57024342D02*
X89029523Y-56214819D01*
X89458095Y-56310057D02*
X89505714Y-56262438D01*
X89505714Y-56262438D02*
X89600952Y-56214819D01*
X89600952Y-56214819D02*
X89839047Y-56214819D01*
X89839047Y-56214819D02*
X89934285Y-56262438D01*
X89934285Y-56262438D02*
X89981904Y-56310057D01*
X89981904Y-56310057D02*
X90029523Y-56405295D01*
X90029523Y-56405295D02*
X90029523Y-56500533D01*
X90029523Y-56500533D02*
X89981904Y-56643390D01*
X89981904Y-56643390D02*
X89410476Y-57214819D01*
X89410476Y-57214819D02*
X90029523Y-57214819D01*
X170498095Y-121604819D02*
X170498095Y-120604819D01*
X170498095Y-121081009D02*
X171069523Y-121081009D01*
X171069523Y-121604819D02*
X171069523Y-120604819D01*
X171498095Y-120700057D02*
X171545714Y-120652438D01*
X171545714Y-120652438D02*
X171640952Y-120604819D01*
X171640952Y-120604819D02*
X171879047Y-120604819D01*
X171879047Y-120604819D02*
X171974285Y-120652438D01*
X171974285Y-120652438D02*
X172021904Y-120700057D01*
X172021904Y-120700057D02*
X172069523Y-120795295D01*
X172069523Y-120795295D02*
X172069523Y-120890533D01*
X172069523Y-120890533D02*
X172021904Y-121033390D01*
X172021904Y-121033390D02*
X171450476Y-121604819D01*
X171450476Y-121604819D02*
X172069523Y-121604819D01*
X139988095Y-56154819D02*
X139988095Y-56964342D01*
X139988095Y-56964342D02*
X140035714Y-57059580D01*
X140035714Y-57059580D02*
X140083333Y-57107200D01*
X140083333Y-57107200D02*
X140178571Y-57154819D01*
X140178571Y-57154819D02*
X140369047Y-57154819D01*
X140369047Y-57154819D02*
X140464285Y-57107200D01*
X140464285Y-57107200D02*
X140511904Y-57059580D01*
X140511904Y-57059580D02*
X140559523Y-56964342D01*
X140559523Y-56964342D02*
X140559523Y-56154819D01*
X141464285Y-56488152D02*
X141464285Y-57154819D01*
X141226190Y-56107200D02*
X140988095Y-56821485D01*
X140988095Y-56821485D02*
X141607142Y-56821485D01*
X174241009Y-68643333D02*
X174241009Y-68976666D01*
X174764819Y-68976666D02*
X173764819Y-68976666D01*
X173764819Y-68976666D02*
X173764819Y-68500476D01*
X174764819Y-67595714D02*
X174764819Y-68167142D01*
X174764819Y-67881428D02*
X173764819Y-67881428D01*
X173764819Y-67881428D02*
X173907676Y-67976666D01*
X173907676Y-67976666D02*
X174002914Y-68071904D01*
X174002914Y-68071904D02*
X174050533Y-68167142D01*
X119251905Y-96974819D02*
X119251905Y-95974819D01*
X119823333Y-96974819D02*
X119394762Y-96403390D01*
X119823333Y-95974819D02*
X119251905Y-96546247D01*
X120299524Y-96974819D02*
X120490000Y-96974819D01*
X120490000Y-96974819D02*
X120585238Y-96927200D01*
X120585238Y-96927200D02*
X120632857Y-96879580D01*
X120632857Y-96879580D02*
X120728095Y-96736723D01*
X120728095Y-96736723D02*
X120775714Y-96546247D01*
X120775714Y-96546247D02*
X120775714Y-96165295D01*
X120775714Y-96165295D02*
X120728095Y-96070057D01*
X120728095Y-96070057D02*
X120680476Y-96022438D01*
X120680476Y-96022438D02*
X120585238Y-95974819D01*
X120585238Y-95974819D02*
X120394762Y-95974819D01*
X120394762Y-95974819D02*
X120299524Y-96022438D01*
X120299524Y-96022438D02*
X120251905Y-96070057D01*
X120251905Y-96070057D02*
X120204286Y-96165295D01*
X120204286Y-96165295D02*
X120204286Y-96403390D01*
X120204286Y-96403390D02*
X120251905Y-96498628D01*
X120251905Y-96498628D02*
X120299524Y-96546247D01*
X120299524Y-96546247D02*
X120394762Y-96593866D01*
X120394762Y-96593866D02*
X120585238Y-96593866D01*
X120585238Y-96593866D02*
X120680476Y-96546247D01*
X120680476Y-96546247D02*
X120728095Y-96498628D01*
X120728095Y-96498628D02*
X120775714Y-96403390D01*
X120998095Y-56164819D02*
X120998095Y-56974342D01*
X120998095Y-56974342D02*
X121045714Y-57069580D01*
X121045714Y-57069580D02*
X121093333Y-57117200D01*
X121093333Y-57117200D02*
X121188571Y-57164819D01*
X121188571Y-57164819D02*
X121379047Y-57164819D01*
X121379047Y-57164819D02*
X121474285Y-57117200D01*
X121474285Y-57117200D02*
X121521904Y-57069580D01*
X121521904Y-57069580D02*
X121569523Y-56974342D01*
X121569523Y-56974342D02*
X121569523Y-56164819D01*
X121950476Y-56164819D02*
X122569523Y-56164819D01*
X122569523Y-56164819D02*
X122236190Y-56545771D01*
X122236190Y-56545771D02*
X122379047Y-56545771D01*
X122379047Y-56545771D02*
X122474285Y-56593390D01*
X122474285Y-56593390D02*
X122521904Y-56641009D01*
X122521904Y-56641009D02*
X122569523Y-56736247D01*
X122569523Y-56736247D02*
X122569523Y-56974342D01*
X122569523Y-56974342D02*
X122521904Y-57069580D01*
X122521904Y-57069580D02*
X122474285Y-57117200D01*
X122474285Y-57117200D02*
X122379047Y-57164819D01*
X122379047Y-57164819D02*
X122093333Y-57164819D01*
X122093333Y-57164819D02*
X121998095Y-57117200D01*
X121998095Y-57117200D02*
X121950476Y-57069580D01*
X102953619Y-120314285D02*
X101953619Y-120314285D01*
X102953619Y-119742857D02*
X102382190Y-120171428D01*
X101953619Y-119742857D02*
X102525047Y-120314285D01*
X102953619Y-118790476D02*
X102953619Y-119361904D01*
X102953619Y-119076190D02*
X101953619Y-119076190D01*
X101953619Y-119076190D02*
X102096476Y-119171428D01*
X102096476Y-119171428D02*
X102191714Y-119266666D01*
X102191714Y-119266666D02*
X102239333Y-119361904D01*
X101953619Y-118171428D02*
X101953619Y-118076190D01*
X101953619Y-118076190D02*
X102001238Y-117980952D01*
X102001238Y-117980952D02*
X102048857Y-117933333D01*
X102048857Y-117933333D02*
X102144095Y-117885714D01*
X102144095Y-117885714D02*
X102334571Y-117838095D01*
X102334571Y-117838095D02*
X102572666Y-117838095D01*
X102572666Y-117838095D02*
X102763142Y-117885714D01*
X102763142Y-117885714D02*
X102858380Y-117933333D01*
X102858380Y-117933333D02*
X102906000Y-117980952D01*
X102906000Y-117980952D02*
X102953619Y-118076190D01*
X102953619Y-118076190D02*
X102953619Y-118171428D01*
X102953619Y-118171428D02*
X102906000Y-118266666D01*
X102906000Y-118266666D02*
X102858380Y-118314285D01*
X102858380Y-118314285D02*
X102763142Y-118361904D01*
X102763142Y-118361904D02*
X102572666Y-118409523D01*
X102572666Y-118409523D02*
X102334571Y-118409523D01*
X102334571Y-118409523D02*
X102144095Y-118361904D01*
X102144095Y-118361904D02*
X102048857Y-118314285D01*
X102048857Y-118314285D02*
X102001238Y-118266666D01*
X102001238Y-118266666D02*
X101953619Y-118171428D01*
X105273333Y-55559580D02*
X105225714Y-55607200D01*
X105225714Y-55607200D02*
X105082857Y-55654819D01*
X105082857Y-55654819D02*
X104987619Y-55654819D01*
X104987619Y-55654819D02*
X104844762Y-55607200D01*
X104844762Y-55607200D02*
X104749524Y-55511961D01*
X104749524Y-55511961D02*
X104701905Y-55416723D01*
X104701905Y-55416723D02*
X104654286Y-55226247D01*
X104654286Y-55226247D02*
X104654286Y-55083390D01*
X104654286Y-55083390D02*
X104701905Y-54892914D01*
X104701905Y-54892914D02*
X104749524Y-54797676D01*
X104749524Y-54797676D02*
X104844762Y-54702438D01*
X104844762Y-54702438D02*
X104987619Y-54654819D01*
X104987619Y-54654819D02*
X105082857Y-54654819D01*
X105082857Y-54654819D02*
X105225714Y-54702438D01*
X105225714Y-54702438D02*
X105273333Y-54750057D01*
X106130476Y-54988152D02*
X106130476Y-55654819D01*
X105892381Y-54607200D02*
X105654286Y-55321485D01*
X105654286Y-55321485D02*
X106273333Y-55321485D01*
X154971905Y-68544819D02*
X154971905Y-67544819D01*
X155543333Y-68544819D02*
X155114762Y-67973390D01*
X155543333Y-67544819D02*
X154971905Y-68116247D01*
X156114762Y-67973390D02*
X156019524Y-67925771D01*
X156019524Y-67925771D02*
X155971905Y-67878152D01*
X155971905Y-67878152D02*
X155924286Y-67782914D01*
X155924286Y-67782914D02*
X155924286Y-67735295D01*
X155924286Y-67735295D02*
X155971905Y-67640057D01*
X155971905Y-67640057D02*
X156019524Y-67592438D01*
X156019524Y-67592438D02*
X156114762Y-67544819D01*
X156114762Y-67544819D02*
X156305238Y-67544819D01*
X156305238Y-67544819D02*
X156400476Y-67592438D01*
X156400476Y-67592438D02*
X156448095Y-67640057D01*
X156448095Y-67640057D02*
X156495714Y-67735295D01*
X156495714Y-67735295D02*
X156495714Y-67782914D01*
X156495714Y-67782914D02*
X156448095Y-67878152D01*
X156448095Y-67878152D02*
X156400476Y-67925771D01*
X156400476Y-67925771D02*
X156305238Y-67973390D01*
X156305238Y-67973390D02*
X156114762Y-67973390D01*
X156114762Y-67973390D02*
X156019524Y-68021009D01*
X156019524Y-68021009D02*
X155971905Y-68068628D01*
X155971905Y-68068628D02*
X155924286Y-68163866D01*
X155924286Y-68163866D02*
X155924286Y-68354342D01*
X155924286Y-68354342D02*
X155971905Y-68449580D01*
X155971905Y-68449580D02*
X156019524Y-68497200D01*
X156019524Y-68497200D02*
X156114762Y-68544819D01*
X156114762Y-68544819D02*
X156305238Y-68544819D01*
X156305238Y-68544819D02*
X156400476Y-68497200D01*
X156400476Y-68497200D02*
X156448095Y-68449580D01*
X156448095Y-68449580D02*
X156495714Y-68354342D01*
X156495714Y-68354342D02*
X156495714Y-68163866D01*
X156495714Y-68163866D02*
X156448095Y-68068628D01*
X156448095Y-68068628D02*
X156400476Y-68021009D01*
X156400476Y-68021009D02*
X156305238Y-67973390D01*
X105228095Y-56274819D02*
X105228095Y-57084342D01*
X105228095Y-57084342D02*
X105275714Y-57179580D01*
X105275714Y-57179580D02*
X105323333Y-57227200D01*
X105323333Y-57227200D02*
X105418571Y-57274819D01*
X105418571Y-57274819D02*
X105609047Y-57274819D01*
X105609047Y-57274819D02*
X105704285Y-57227200D01*
X105704285Y-57227200D02*
X105751904Y-57179580D01*
X105751904Y-57179580D02*
X105799523Y-57084342D01*
X105799523Y-57084342D02*
X105799523Y-56274819D01*
X106799523Y-57274819D02*
X106228095Y-57274819D01*
X106513809Y-57274819D02*
X106513809Y-56274819D01*
X106513809Y-56274819D02*
X106418571Y-56417676D01*
X106418571Y-56417676D02*
X106323333Y-56512914D01*
X106323333Y-56512914D02*
X106228095Y-56560533D01*
X126953333Y-122199580D02*
X126905714Y-122247200D01*
X126905714Y-122247200D02*
X126762857Y-122294819D01*
X126762857Y-122294819D02*
X126667619Y-122294819D01*
X126667619Y-122294819D02*
X126524762Y-122247200D01*
X126524762Y-122247200D02*
X126429524Y-122151961D01*
X126429524Y-122151961D02*
X126381905Y-122056723D01*
X126381905Y-122056723D02*
X126334286Y-121866247D01*
X126334286Y-121866247D02*
X126334286Y-121723390D01*
X126334286Y-121723390D02*
X126381905Y-121532914D01*
X126381905Y-121532914D02*
X126429524Y-121437676D01*
X126429524Y-121437676D02*
X126524762Y-121342438D01*
X126524762Y-121342438D02*
X126667619Y-121294819D01*
X126667619Y-121294819D02*
X126762857Y-121294819D01*
X126762857Y-121294819D02*
X126905714Y-121342438D01*
X126905714Y-121342438D02*
X126953333Y-121390057D01*
X127334286Y-121390057D02*
X127381905Y-121342438D01*
X127381905Y-121342438D02*
X127477143Y-121294819D01*
X127477143Y-121294819D02*
X127715238Y-121294819D01*
X127715238Y-121294819D02*
X127810476Y-121342438D01*
X127810476Y-121342438D02*
X127858095Y-121390057D01*
X127858095Y-121390057D02*
X127905714Y-121485295D01*
X127905714Y-121485295D02*
X127905714Y-121580533D01*
X127905714Y-121580533D02*
X127858095Y-121723390D01*
X127858095Y-121723390D02*
X127286667Y-122294819D01*
X127286667Y-122294819D02*
X127905714Y-122294819D01*
X106441905Y-96944819D02*
X106441905Y-95944819D01*
X107013333Y-96944819D02*
X106584762Y-96373390D01*
X107013333Y-95944819D02*
X106441905Y-96516247D01*
X107346667Y-95944819D02*
X108013333Y-95944819D01*
X108013333Y-95944819D02*
X107584762Y-96944819D01*
X137604819Y-48193333D02*
X138319104Y-48193333D01*
X138319104Y-48193333D02*
X138461961Y-48240952D01*
X138461961Y-48240952D02*
X138557200Y-48336190D01*
X138557200Y-48336190D02*
X138604819Y-48479047D01*
X138604819Y-48479047D02*
X138604819Y-48574285D01*
X137700057Y-47764761D02*
X137652438Y-47717142D01*
X137652438Y-47717142D02*
X137604819Y-47621904D01*
X137604819Y-47621904D02*
X137604819Y-47383809D01*
X137604819Y-47383809D02*
X137652438Y-47288571D01*
X137652438Y-47288571D02*
X137700057Y-47240952D01*
X137700057Y-47240952D02*
X137795295Y-47193333D01*
X137795295Y-47193333D02*
X137890533Y-47193333D01*
X137890533Y-47193333D02*
X138033390Y-47240952D01*
X138033390Y-47240952D02*
X138604819Y-47812380D01*
X138604819Y-47812380D02*
X138604819Y-47193333D01*
X116434419Y-120314285D02*
X115434419Y-120314285D01*
X116434419Y-119742857D02*
X115862990Y-120171428D01*
X115434419Y-119742857D02*
X116005847Y-120314285D01*
X116434419Y-118790476D02*
X116434419Y-119361904D01*
X116434419Y-119076190D02*
X115434419Y-119076190D01*
X115434419Y-119076190D02*
X115577276Y-119171428D01*
X115577276Y-119171428D02*
X115672514Y-119266666D01*
X115672514Y-119266666D02*
X115720133Y-119361904D01*
X115529657Y-118409523D02*
X115482038Y-118361904D01*
X115482038Y-118361904D02*
X115434419Y-118266666D01*
X115434419Y-118266666D02*
X115434419Y-118028571D01*
X115434419Y-118028571D02*
X115482038Y-117933333D01*
X115482038Y-117933333D02*
X115529657Y-117885714D01*
X115529657Y-117885714D02*
X115624895Y-117838095D01*
X115624895Y-117838095D02*
X115720133Y-117838095D01*
X115720133Y-117838095D02*
X115862990Y-117885714D01*
X115862990Y-117885714D02*
X116434419Y-118457142D01*
X116434419Y-118457142D02*
X116434419Y-117838095D01*
X87564819Y-96156666D02*
X87088628Y-96489999D01*
X87564819Y-96728094D02*
X86564819Y-96728094D01*
X86564819Y-96728094D02*
X86564819Y-96347142D01*
X86564819Y-96347142D02*
X86612438Y-96251904D01*
X86612438Y-96251904D02*
X86660057Y-96204285D01*
X86660057Y-96204285D02*
X86755295Y-96156666D01*
X86755295Y-96156666D02*
X86898152Y-96156666D01*
X86898152Y-96156666D02*
X86993390Y-96204285D01*
X86993390Y-96204285D02*
X87041009Y-96251904D01*
X87041009Y-96251904D02*
X87088628Y-96347142D01*
X87088628Y-96347142D02*
X87088628Y-96728094D01*
X87564819Y-95204285D02*
X87564819Y-95775713D01*
X87564819Y-95489999D02*
X86564819Y-95489999D01*
X86564819Y-95489999D02*
X86707676Y-95585237D01*
X86707676Y-95585237D02*
X86802914Y-95680475D01*
X86802914Y-95680475D02*
X86850533Y-95775713D01*
X123174819Y-120314285D02*
X122174819Y-120314285D01*
X123174819Y-119742857D02*
X122603390Y-120171428D01*
X122174819Y-119742857D02*
X122746247Y-120314285D01*
X123174819Y-118790476D02*
X123174819Y-119361904D01*
X123174819Y-119076190D02*
X122174819Y-119076190D01*
X122174819Y-119076190D02*
X122317676Y-119171428D01*
X122317676Y-119171428D02*
X122412914Y-119266666D01*
X122412914Y-119266666D02*
X122460533Y-119361904D01*
X122174819Y-118457142D02*
X122174819Y-117838095D01*
X122174819Y-117838095D02*
X122555771Y-118171428D01*
X122555771Y-118171428D02*
X122555771Y-118028571D01*
X122555771Y-118028571D02*
X122603390Y-117933333D01*
X122603390Y-117933333D02*
X122651009Y-117885714D01*
X122651009Y-117885714D02*
X122746247Y-117838095D01*
X122746247Y-117838095D02*
X122984342Y-117838095D01*
X122984342Y-117838095D02*
X123079580Y-117885714D01*
X123079580Y-117885714D02*
X123127200Y-117933333D01*
X123127200Y-117933333D02*
X123174819Y-118028571D01*
X123174819Y-118028571D02*
X123174819Y-118314285D01*
X123174819Y-118314285D02*
X123127200Y-118409523D01*
X123127200Y-118409523D02*
X123079580Y-118457142D01*
X84758095Y-117804819D02*
X84758095Y-116804819D01*
X84758095Y-117281009D02*
X85329523Y-117281009D01*
X85329523Y-117804819D02*
X85329523Y-116804819D01*
X85710476Y-116804819D02*
X86329523Y-116804819D01*
X86329523Y-116804819D02*
X85996190Y-117185771D01*
X85996190Y-117185771D02*
X86139047Y-117185771D01*
X86139047Y-117185771D02*
X86234285Y-117233390D01*
X86234285Y-117233390D02*
X86281904Y-117281009D01*
X86281904Y-117281009D02*
X86329523Y-117376247D01*
X86329523Y-117376247D02*
X86329523Y-117614342D01*
X86329523Y-117614342D02*
X86281904Y-117709580D01*
X86281904Y-117709580D02*
X86234285Y-117757200D01*
X86234285Y-117757200D02*
X86139047Y-117804819D01*
X86139047Y-117804819D02*
X85853333Y-117804819D01*
X85853333Y-117804819D02*
X85758095Y-117757200D01*
X85758095Y-117757200D02*
X85710476Y-117709580D01*
X156801905Y-80864819D02*
X156801905Y-79864819D01*
X156801905Y-79864819D02*
X157040000Y-79864819D01*
X157040000Y-79864819D02*
X157182857Y-79912438D01*
X157182857Y-79912438D02*
X157278095Y-80007676D01*
X157278095Y-80007676D02*
X157325714Y-80102914D01*
X157325714Y-80102914D02*
X157373333Y-80293390D01*
X157373333Y-80293390D02*
X157373333Y-80436247D01*
X157373333Y-80436247D02*
X157325714Y-80626723D01*
X157325714Y-80626723D02*
X157278095Y-80721961D01*
X157278095Y-80721961D02*
X157182857Y-80817200D01*
X157182857Y-80817200D02*
X157040000Y-80864819D01*
X157040000Y-80864819D02*
X156801905Y-80864819D01*
X158325714Y-80864819D02*
X157754286Y-80864819D01*
X158040000Y-80864819D02*
X158040000Y-79864819D01*
X158040000Y-79864819D02*
X157944762Y-80007676D01*
X157944762Y-80007676D02*
X157849524Y-80102914D01*
X157849524Y-80102914D02*
X157754286Y-80150533D01*
X152198095Y-81234819D02*
X152198095Y-80234819D01*
X152769523Y-81234819D02*
X152340952Y-80663390D01*
X152769523Y-80234819D02*
X152198095Y-80806247D01*
X144751905Y-96974819D02*
X144751905Y-95974819D01*
X145323333Y-96974819D02*
X144894762Y-96403390D01*
X145323333Y-95974819D02*
X144751905Y-96546247D01*
X145704286Y-96070057D02*
X145751905Y-96022438D01*
X145751905Y-96022438D02*
X145847143Y-95974819D01*
X145847143Y-95974819D02*
X146085238Y-95974819D01*
X146085238Y-95974819D02*
X146180476Y-96022438D01*
X146180476Y-96022438D02*
X146228095Y-96070057D01*
X146228095Y-96070057D02*
X146275714Y-96165295D01*
X146275714Y-96165295D02*
X146275714Y-96260533D01*
X146275714Y-96260533D02*
X146228095Y-96403390D01*
X146228095Y-96403390D02*
X145656667Y-96974819D01*
X145656667Y-96974819D02*
X146275714Y-96974819D01*
X156681905Y-97014819D02*
X156681905Y-96014819D01*
X157253333Y-97014819D02*
X156824762Y-96443390D01*
X157253333Y-96014819D02*
X156681905Y-96586247D01*
X157586667Y-96014819D02*
X158205714Y-96014819D01*
X158205714Y-96014819D02*
X157872381Y-96395771D01*
X157872381Y-96395771D02*
X158015238Y-96395771D01*
X158015238Y-96395771D02*
X158110476Y-96443390D01*
X158110476Y-96443390D02*
X158158095Y-96491009D01*
X158158095Y-96491009D02*
X158205714Y-96586247D01*
X158205714Y-96586247D02*
X158205714Y-96824342D01*
X158205714Y-96824342D02*
X158158095Y-96919580D01*
X158158095Y-96919580D02*
X158110476Y-96967200D01*
X158110476Y-96967200D02*
X158015238Y-97014819D01*
X158015238Y-97014819D02*
X157729524Y-97014819D01*
X157729524Y-97014819D02*
X157634286Y-96967200D01*
X157634286Y-96967200D02*
X157586667Y-96919580D01*
D10*
%TO.C,K6*%
X91701300Y-86572100D02*
X91701300Y-87882826D01*
X91701300Y-89757174D02*
X91701300Y-90422826D01*
X91701300Y-92297174D02*
X91701300Y-100582826D01*
X91701300Y-102457174D02*
X91701300Y-103122826D01*
X91701300Y-104997174D02*
X91701300Y-106307900D01*
X91701300Y-106307900D02*
X98838700Y-106307900D01*
X98838700Y-86572100D02*
X91701300Y-86572100D01*
X98838700Y-87882826D02*
X98838700Y-86572100D01*
X98838700Y-90422826D02*
X98838700Y-89757174D01*
X98838700Y-100582826D02*
X98838700Y-92297174D01*
X98838700Y-103122826D02*
X98838700Y-102457174D01*
X98838700Y-106307900D02*
X98838700Y-104997174D01*
%TO.C,K1*%
X165471300Y-86702100D02*
X165471300Y-88012826D01*
X165471300Y-89887174D02*
X165471300Y-90552826D01*
X165471300Y-92427174D02*
X165471300Y-100712826D01*
X165471300Y-102587174D02*
X165471300Y-103252826D01*
X165471300Y-105127174D02*
X165471300Y-106437900D01*
X165471300Y-106437900D02*
X172608700Y-106437900D01*
X172608700Y-86702100D02*
X165471300Y-86702100D01*
X172608700Y-88012826D02*
X172608700Y-86702100D01*
X172608700Y-90552826D02*
X172608700Y-89887174D01*
X172608700Y-100712826D02*
X172608700Y-92427174D01*
X172608700Y-103252826D02*
X172608700Y-102587174D01*
X172608700Y-106437900D02*
X172608700Y-105127174D01*
%TO.C,K5*%
X129001300Y-86652100D02*
X129001300Y-87962826D01*
X129001300Y-89837174D02*
X129001300Y-90502826D01*
X129001300Y-92377174D02*
X129001300Y-100662826D01*
X129001300Y-102537174D02*
X129001300Y-103202826D01*
X129001300Y-105077174D02*
X129001300Y-106387900D01*
X129001300Y-106387900D02*
X136138700Y-106387900D01*
X136138700Y-86652100D02*
X129001300Y-86652100D01*
X136138700Y-87962826D02*
X136138700Y-86652100D01*
X136138700Y-90502826D02*
X136138700Y-89837174D01*
X136138700Y-100662826D02*
X136138700Y-92377174D01*
X136138700Y-103202826D02*
X136138700Y-102537174D01*
X136138700Y-106387900D02*
X136138700Y-105077174D01*
D12*
%TO.C,R2*%
X100410000Y-81940000D02*
X103720000Y-81940000D01*
X103720000Y-80570000D02*
X103720000Y-83310000D01*
X103720000Y-83310000D02*
X110260000Y-83310000D01*
X110260000Y-80570000D02*
X103720000Y-80570000D01*
X110260000Y-83310000D02*
X110260000Y-80570000D01*
X113570000Y-81940000D02*
X110260000Y-81940000D01*
%TO.C,C6*%
X150420000Y-122720000D02*
X148880000Y-122720000D01*
X150420000Y-122760000D02*
X148880000Y-122760000D01*
X150420000Y-122800000D02*
X148881000Y-122800000D01*
X150420000Y-122840000D02*
X148882000Y-122840000D01*
X150420000Y-122880000D02*
X148884000Y-122880000D01*
X150420000Y-122920000D02*
X148887000Y-122920000D01*
X150420000Y-122960000D02*
X148891000Y-122960000D01*
X150420000Y-123000000D02*
X148895000Y-123000000D01*
X150420000Y-123040000D02*
X148899000Y-123040000D01*
X150420000Y-123080000D02*
X148904000Y-123080000D01*
X150420000Y-123120000D02*
X148910000Y-123120000D01*
X150420000Y-123160000D02*
X148917000Y-123160000D01*
X150420000Y-123200000D02*
X148924000Y-123200000D01*
X150420000Y-123240000D02*
X148932000Y-123240000D01*
X150420000Y-123280000D02*
X148940000Y-123280000D01*
X150420000Y-123320000D02*
X148949000Y-123320000D01*
X150420000Y-123360000D02*
X148959000Y-123360000D01*
X150420000Y-123400000D02*
X148969000Y-123400000D01*
X150420000Y-123441000D02*
X148980000Y-123441000D01*
X150420000Y-123481000D02*
X148992000Y-123481000D01*
X150420000Y-123521000D02*
X149005000Y-123521000D01*
X150420000Y-123561000D02*
X149018000Y-123561000D01*
X150420000Y-123601000D02*
X149032000Y-123601000D01*
X150420000Y-123641000D02*
X149046000Y-123641000D01*
X150420000Y-123681000D02*
X149062000Y-123681000D01*
X150420000Y-123721000D02*
X149078000Y-123721000D01*
X150420000Y-123761000D02*
X149095000Y-123761000D01*
X150420000Y-123801000D02*
X149112000Y-123801000D01*
X150420000Y-123841000D02*
X149131000Y-123841000D01*
X150420000Y-123881000D02*
X149150000Y-123881000D01*
X150420000Y-123921000D02*
X149170000Y-123921000D01*
X150420000Y-123961000D02*
X149192000Y-123961000D01*
X150420000Y-124001000D02*
X149213000Y-124001000D01*
X150420000Y-124041000D02*
X149236000Y-124041000D01*
X150420000Y-124081000D02*
X149260000Y-124081000D01*
X150420000Y-124121000D02*
X149285000Y-124121000D01*
X150420000Y-124161000D02*
X149311000Y-124161000D01*
X150420000Y-124201000D02*
X149338000Y-124201000D01*
X150420000Y-124241000D02*
X149365000Y-124241000D01*
X150420000Y-124281000D02*
X149395000Y-124281000D01*
X150420000Y-124321000D02*
X149425000Y-124321000D01*
X150420000Y-124361000D02*
X149456000Y-124361000D01*
X150420000Y-124401000D02*
X149489000Y-124401000D01*
X150420000Y-124441000D02*
X149523000Y-124441000D01*
X150420000Y-124481000D02*
X149559000Y-124481000D01*
X150420000Y-124521000D02*
X149596000Y-124521000D01*
X150420000Y-124561000D02*
X149634000Y-124561000D01*
X150420000Y-124601000D02*
X149675000Y-124601000D01*
X150420000Y-124641000D02*
X149717000Y-124641000D01*
X150420000Y-124681000D02*
X149761000Y-124681000D01*
X150420000Y-124721000D02*
X149807000Y-124721000D01*
X151744000Y-125321000D02*
X151176000Y-125321000D01*
X151978000Y-125281000D02*
X150942000Y-125281000D01*
X152137000Y-125241000D02*
X150783000Y-125241000D01*
X152265000Y-125201000D02*
X150655000Y-125201000D01*
X152375000Y-125161000D02*
X150545000Y-125161000D01*
X152471000Y-125121000D02*
X150449000Y-125121000D01*
X152558000Y-125081000D02*
X150362000Y-125081000D01*
X152638000Y-125041000D02*
X150282000Y-125041000D01*
X152711000Y-125001000D02*
X150209000Y-125001000D01*
X152779000Y-124961000D02*
X150141000Y-124961000D01*
X152843000Y-124921000D02*
X150077000Y-124921000D01*
X152903000Y-124881000D02*
X150017000Y-124881000D01*
X152935000Y-119915225D02*
X152935000Y-120415225D01*
X152960000Y-124841000D02*
X149960000Y-124841000D01*
X153014000Y-124801000D02*
X149906000Y-124801000D01*
X153065000Y-124761000D02*
X149855000Y-124761000D01*
X153113000Y-124721000D02*
X152500000Y-124721000D01*
X153159000Y-124681000D02*
X152500000Y-124681000D01*
X153185000Y-120165225D02*
X152685000Y-120165225D01*
X153203000Y-124641000D02*
X152500000Y-124641000D01*
X153245000Y-124601000D02*
X152500000Y-124601000D01*
X153286000Y-124561000D02*
X152500000Y-124561000D01*
X153324000Y-124521000D02*
X152500000Y-124521000D01*
X153361000Y-124481000D02*
X152500000Y-124481000D01*
X153397000Y-124441000D02*
X152500000Y-124441000D01*
X153431000Y-124401000D02*
X152500000Y-124401000D01*
X153464000Y-124361000D02*
X152500000Y-124361000D01*
X153495000Y-124321000D02*
X152500000Y-124321000D01*
X153525000Y-124281000D02*
X152500000Y-124281000D01*
X153555000Y-124241000D02*
X152500000Y-124241000D01*
X153582000Y-124201000D02*
X152500000Y-124201000D01*
X153609000Y-124161000D02*
X152500000Y-124161000D01*
X153635000Y-124121000D02*
X152500000Y-124121000D01*
X153660000Y-124081000D02*
X152500000Y-124081000D01*
X153684000Y-124041000D02*
X152500000Y-124041000D01*
X153707000Y-124001000D02*
X152500000Y-124001000D01*
X153728000Y-123961000D02*
X152500000Y-123961000D01*
X153750000Y-123921000D02*
X152500000Y-123921000D01*
X153770000Y-123881000D02*
X152500000Y-123881000D01*
X153789000Y-123841000D02*
X152500000Y-123841000D01*
X153808000Y-123801000D02*
X152500000Y-123801000D01*
X153825000Y-123761000D02*
X152500000Y-123761000D01*
X153842000Y-123721000D02*
X152500000Y-123721000D01*
X153858000Y-123681000D02*
X152500000Y-123681000D01*
X153874000Y-123641000D02*
X152500000Y-123641000D01*
X153888000Y-123601000D02*
X152500000Y-123601000D01*
X153902000Y-123561000D02*
X152500000Y-123561000D01*
X153915000Y-123521000D02*
X152500000Y-123521000D01*
X153928000Y-123481000D02*
X152500000Y-123481000D01*
X153940000Y-123441000D02*
X152500000Y-123441000D01*
X153951000Y-123400000D02*
X152500000Y-123400000D01*
X153961000Y-123360000D02*
X152500000Y-123360000D01*
X153971000Y-123320000D02*
X152500000Y-123320000D01*
X153980000Y-123280000D02*
X152500000Y-123280000D01*
X153988000Y-123240000D02*
X152500000Y-123240000D01*
X153996000Y-123200000D02*
X152500000Y-123200000D01*
X154003000Y-123160000D02*
X152500000Y-123160000D01*
X154010000Y-123120000D02*
X152500000Y-123120000D01*
X154016000Y-123080000D02*
X152500000Y-123080000D01*
X154021000Y-123040000D02*
X152500000Y-123040000D01*
X154025000Y-123000000D02*
X152500000Y-123000000D01*
X154029000Y-122960000D02*
X152500000Y-122960000D01*
X154033000Y-122920000D02*
X152500000Y-122920000D01*
X154036000Y-122880000D02*
X152500000Y-122880000D01*
X154038000Y-122840000D02*
X152500000Y-122840000D01*
X154039000Y-122800000D02*
X152500000Y-122800000D01*
X154040000Y-122720000D02*
X152500000Y-122720000D01*
X154040000Y-122760000D02*
X152500000Y-122760000D01*
X154080000Y-122720000D02*
G75*
G02*
X148840000Y-122720000I-2620000J0D01*
G01*
X148840000Y-122720000D02*
G75*
G02*
X154080000Y-122720000I2620000J0D01*
G01*
D10*
%TO.C,K4*%
X93091400Y-109473400D02*
X93091400Y-128726600D01*
X93091400Y-128726600D02*
X98425400Y-128726600D01*
X98425400Y-109473400D02*
X93091400Y-109473400D01*
X98425400Y-128726600D02*
X98425400Y-109473400D01*
%TO.C,K11*%
X106572200Y-109473400D02*
X106572200Y-128726600D01*
X106572200Y-128726600D02*
X111906200Y-128726600D01*
X111906200Y-109473400D02*
X106572200Y-109473400D01*
X111906200Y-128726600D02*
X111906200Y-109473400D01*
D12*
%TO.C,C1*%
X138569759Y-121101000D02*
X139199759Y-121101000D01*
X138884759Y-120786000D02*
X138884759Y-121416000D01*
X142070000Y-119710000D02*
X142070000Y-126170000D01*
X142110000Y-119710000D02*
X142110000Y-126170000D01*
X142150000Y-119710000D02*
X142150000Y-126170000D01*
X142190000Y-119712000D02*
X142190000Y-126168000D01*
X142230000Y-119713000D02*
X142230000Y-126167000D01*
X142270000Y-119716000D02*
X142270000Y-126164000D01*
X142310000Y-119718000D02*
X142310000Y-121900000D01*
X142310000Y-123980000D02*
X142310000Y-126162000D01*
X142350000Y-119722000D02*
X142350000Y-121900000D01*
X142350000Y-123980000D02*
X142350000Y-126158000D01*
X142390000Y-119725000D02*
X142390000Y-121900000D01*
X142390000Y-123980000D02*
X142390000Y-126155000D01*
X142430000Y-119729000D02*
X142430000Y-121900000D01*
X142430000Y-123980000D02*
X142430000Y-126151000D01*
X142470000Y-119734000D02*
X142470000Y-121900000D01*
X142470000Y-123980000D02*
X142470000Y-126146000D01*
X142510000Y-119739000D02*
X142510000Y-121900000D01*
X142510000Y-123980000D02*
X142510000Y-126141000D01*
X142550000Y-119745000D02*
X142550000Y-121900000D01*
X142550000Y-123980000D02*
X142550000Y-126135000D01*
X142590000Y-119751000D02*
X142590000Y-121900000D01*
X142590000Y-123980000D02*
X142590000Y-126129000D01*
X142630000Y-119758000D02*
X142630000Y-121900000D01*
X142630000Y-123980000D02*
X142630000Y-126122000D01*
X142670000Y-119765000D02*
X142670000Y-121900000D01*
X142670000Y-123980000D02*
X142670000Y-126115000D01*
X142710000Y-119773000D02*
X142710000Y-121900000D01*
X142710000Y-123980000D02*
X142710000Y-126107000D01*
X142750000Y-119781000D02*
X142750000Y-121900000D01*
X142750000Y-123980000D02*
X142750000Y-126099000D01*
X142791000Y-119790000D02*
X142791000Y-121900000D01*
X142791000Y-123980000D02*
X142791000Y-126090000D01*
X142831000Y-119799000D02*
X142831000Y-121900000D01*
X142831000Y-123980000D02*
X142831000Y-126081000D01*
X142871000Y-119809000D02*
X142871000Y-121900000D01*
X142871000Y-123980000D02*
X142871000Y-126071000D01*
X142911000Y-119819000D02*
X142911000Y-121900000D01*
X142911000Y-123980000D02*
X142911000Y-126061000D01*
X142951000Y-119830000D02*
X142951000Y-121900000D01*
X142951000Y-123980000D02*
X142951000Y-126050000D01*
X142991000Y-119842000D02*
X142991000Y-121900000D01*
X142991000Y-123980000D02*
X142991000Y-126038000D01*
X143031000Y-119854000D02*
X143031000Y-121900000D01*
X143031000Y-123980000D02*
X143031000Y-126026000D01*
X143071000Y-119866000D02*
X143071000Y-121900000D01*
X143071000Y-123980000D02*
X143071000Y-126014000D01*
X143111000Y-119879000D02*
X143111000Y-121900000D01*
X143111000Y-123980000D02*
X143111000Y-126001000D01*
X143151000Y-119893000D02*
X143151000Y-121900000D01*
X143151000Y-123980000D02*
X143151000Y-125987000D01*
X143191000Y-119907000D02*
X143191000Y-121900000D01*
X143191000Y-123980000D02*
X143191000Y-125973000D01*
X143231000Y-119922000D02*
X143231000Y-121900000D01*
X143231000Y-123980000D02*
X143231000Y-125958000D01*
X143271000Y-119938000D02*
X143271000Y-121900000D01*
X143271000Y-123980000D02*
X143271000Y-125942000D01*
X143311000Y-119954000D02*
X143311000Y-121900000D01*
X143311000Y-123980000D02*
X143311000Y-125926000D01*
X143351000Y-119970000D02*
X143351000Y-121900000D01*
X143351000Y-123980000D02*
X143351000Y-125910000D01*
X143391000Y-119988000D02*
X143391000Y-121900000D01*
X143391000Y-123980000D02*
X143391000Y-125892000D01*
X143431000Y-120006000D02*
X143431000Y-121900000D01*
X143431000Y-123980000D02*
X143431000Y-125874000D01*
X143471000Y-120024000D02*
X143471000Y-121900000D01*
X143471000Y-123980000D02*
X143471000Y-125856000D01*
X143511000Y-120044000D02*
X143511000Y-121900000D01*
X143511000Y-123980000D02*
X143511000Y-125836000D01*
X143551000Y-120064000D02*
X143551000Y-121900000D01*
X143551000Y-123980000D02*
X143551000Y-125816000D01*
X143591000Y-120084000D02*
X143591000Y-121900000D01*
X143591000Y-123980000D02*
X143591000Y-125796000D01*
X143631000Y-120106000D02*
X143631000Y-121900000D01*
X143631000Y-123980000D02*
X143631000Y-125774000D01*
X143671000Y-120128000D02*
X143671000Y-121900000D01*
X143671000Y-123980000D02*
X143671000Y-125752000D01*
X143711000Y-120150000D02*
X143711000Y-121900000D01*
X143711000Y-123980000D02*
X143711000Y-125730000D01*
X143751000Y-120174000D02*
X143751000Y-121900000D01*
X143751000Y-123980000D02*
X143751000Y-125706000D01*
X143791000Y-120198000D02*
X143791000Y-121900000D01*
X143791000Y-123980000D02*
X143791000Y-125682000D01*
X143831000Y-120224000D02*
X143831000Y-121900000D01*
X143831000Y-123980000D02*
X143831000Y-125656000D01*
X143871000Y-120250000D02*
X143871000Y-121900000D01*
X143871000Y-123980000D02*
X143871000Y-125630000D01*
X143911000Y-120276000D02*
X143911000Y-121900000D01*
X143911000Y-123980000D02*
X143911000Y-125604000D01*
X143951000Y-120304000D02*
X143951000Y-121900000D01*
X143951000Y-123980000D02*
X143951000Y-125576000D01*
X143991000Y-120333000D02*
X143991000Y-121900000D01*
X143991000Y-123980000D02*
X143991000Y-125547000D01*
X144031000Y-120362000D02*
X144031000Y-121900000D01*
X144031000Y-123980000D02*
X144031000Y-125518000D01*
X144071000Y-120392000D02*
X144071000Y-121900000D01*
X144071000Y-123980000D02*
X144071000Y-125488000D01*
X144111000Y-120424000D02*
X144111000Y-121900000D01*
X144111000Y-123980000D02*
X144111000Y-125456000D01*
X144151000Y-120456000D02*
X144151000Y-121900000D01*
X144151000Y-123980000D02*
X144151000Y-125424000D01*
X144191000Y-120490000D02*
X144191000Y-121900000D01*
X144191000Y-123980000D02*
X144191000Y-125390000D01*
X144231000Y-120524000D02*
X144231000Y-121900000D01*
X144231000Y-123980000D02*
X144231000Y-125356000D01*
X144271000Y-120560000D02*
X144271000Y-121900000D01*
X144271000Y-123980000D02*
X144271000Y-125320000D01*
X144311000Y-120597000D02*
X144311000Y-121900000D01*
X144311000Y-123980000D02*
X144311000Y-125283000D01*
X144351000Y-120635000D02*
X144351000Y-121900000D01*
X144351000Y-123980000D02*
X144351000Y-125245000D01*
X144391000Y-120675000D02*
X144391000Y-125205000D01*
X144431000Y-120716000D02*
X144431000Y-125164000D01*
X144471000Y-120758000D02*
X144471000Y-125122000D01*
X144511000Y-120803000D02*
X144511000Y-125077000D01*
X144551000Y-120848000D02*
X144551000Y-125032000D01*
X144591000Y-120896000D02*
X144591000Y-124984000D01*
X144631000Y-120945000D02*
X144631000Y-124935000D01*
X144671000Y-120996000D02*
X144671000Y-124884000D01*
X144711000Y-121050000D02*
X144711000Y-124830000D01*
X144751000Y-121106000D02*
X144751000Y-124774000D01*
X144791000Y-121164000D02*
X144791000Y-124716000D01*
X144831000Y-121226000D02*
X144831000Y-124654000D01*
X144871000Y-121290000D02*
X144871000Y-124590000D01*
X144911000Y-121359000D02*
X144911000Y-124521000D01*
X144951000Y-121431000D02*
X144951000Y-124449000D01*
X144991000Y-121508000D02*
X144991000Y-124372000D01*
X145031000Y-121590000D02*
X145031000Y-124290000D01*
X145071000Y-121678000D02*
X145071000Y-124202000D01*
X145111000Y-121775000D02*
X145111000Y-124105000D01*
X145151000Y-121881000D02*
X145151000Y-123999000D01*
X145191000Y-122000000D02*
X145191000Y-123880000D01*
X145231000Y-122138000D02*
X145231000Y-123742000D01*
X145271000Y-122307000D02*
X145271000Y-123573000D01*
X145311000Y-122538000D02*
X145311000Y-123342000D01*
X145340000Y-122940000D02*
G75*
G02*
X138800000Y-122940000I-3270000J0D01*
G01*
X138800000Y-122940000D02*
G75*
G02*
X145340000Y-122940000I3270000J0D01*
G01*
%TO.C,J3*%
X100980000Y-46520000D02*
X100980000Y-49180000D01*
X113740000Y-46520000D02*
X100980000Y-46520000D01*
X113740000Y-46520000D02*
X113740000Y-49180000D01*
X113740000Y-49180000D02*
X100980000Y-49180000D01*
X116340000Y-47850000D02*
X116340000Y-49180000D01*
X116340000Y-49180000D02*
X115010000Y-49180000D01*
%TO.C,R3*%
X159080000Y-116270000D02*
X159080000Y-122810000D01*
X159080000Y-122810000D02*
X161820000Y-122810000D01*
X160450000Y-112960000D02*
X160450000Y-116270000D01*
X160450000Y-126120000D02*
X160450000Y-122810000D01*
X161820000Y-116270000D02*
X159080000Y-116270000D01*
X161820000Y-122810000D02*
X161820000Y-116270000D01*
%TO.C,D2*%
X135090000Y-110770000D02*
X154290000Y-110770000D01*
X135090000Y-114370000D02*
X135090000Y-110770000D01*
X154290000Y-110770000D02*
X154290000Y-114370000D01*
X154290000Y-114370000D02*
X135090000Y-114370000D01*
X154490000Y-113270000D02*
X154490000Y-114570000D01*
X154490000Y-114570000D02*
X153190000Y-114570000D01*
%TO.C,J4*%
X141880000Y-46490000D02*
X141880000Y-49150000D01*
X154640000Y-46490000D02*
X141880000Y-46490000D01*
X154640000Y-46490000D02*
X154640000Y-49150000D01*
X154640000Y-49150000D02*
X141880000Y-49150000D01*
X157240000Y-47820000D02*
X157240000Y-49150000D01*
X157240000Y-49150000D02*
X155910000Y-49150000D01*
%TO.C,C3*%
X123920000Y-53260000D02*
X123920000Y-56000000D01*
X123920000Y-53260000D02*
X129160000Y-53260000D01*
X123920000Y-56000000D02*
X129160000Y-56000000D01*
X129160000Y-53260000D02*
X129160000Y-56000000D01*
%TO.C,U2*%
X85985000Y-57760000D02*
X85985000Y-78200000D01*
X85985000Y-78200000D02*
X92455000Y-78200000D01*
X88220000Y-57760000D02*
X85985000Y-57760000D01*
X92455000Y-57760000D02*
X90220000Y-57760000D01*
X92455000Y-78200000D02*
X92455000Y-57760000D01*
X90220000Y-57760000D02*
G75*
G02*
X88220000Y-57760000I-1000000J0D01*
G01*
%TO.C,U4*%
X137515000Y-57700000D02*
X137515000Y-78140000D01*
X137515000Y-78140000D02*
X143985000Y-78140000D01*
X139750000Y-57700000D02*
X137515000Y-57700000D01*
X143985000Y-57700000D02*
X141750000Y-57700000D01*
X143985000Y-78140000D02*
X143985000Y-57700000D01*
X141750000Y-57700000D02*
G75*
G02*
X139750000Y-57700000I-1000000J0D01*
G01*
%TO.C,F1*%
X163510000Y-57060000D02*
X163510000Y-79660000D01*
X163510000Y-57060000D02*
X166310000Y-57060000D01*
X163510000Y-79660000D02*
X166310000Y-79660000D01*
X170310000Y-57060000D02*
X173110000Y-57060000D01*
X170310000Y-79660000D02*
X173110000Y-79660000D01*
X173110000Y-57060000D02*
X173110000Y-79660000D01*
D10*
%TO.C,K9*%
X116421300Y-86652100D02*
X116421300Y-87962826D01*
X116421300Y-89837174D02*
X116421300Y-90502826D01*
X116421300Y-92377174D02*
X116421300Y-100662826D01*
X116421300Y-102537174D02*
X116421300Y-103202826D01*
X116421300Y-105077174D02*
X116421300Y-106387900D01*
X116421300Y-106387900D02*
X123558700Y-106387900D01*
X123558700Y-86652100D02*
X116421300Y-86652100D01*
X123558700Y-87962826D02*
X123558700Y-86652100D01*
X123558700Y-90502826D02*
X123558700Y-89837174D01*
X123558700Y-100662826D02*
X123558700Y-92377174D01*
X123558700Y-103202826D02*
X123558700Y-102537174D01*
X123558700Y-106387900D02*
X123558700Y-105077174D01*
D12*
%TO.C,U3*%
X120015000Y-57580000D02*
X120015000Y-78020000D01*
X120015000Y-78020000D02*
X126485000Y-78020000D01*
X122250000Y-57580000D02*
X120015000Y-57580000D01*
X126485000Y-57580000D02*
X124250000Y-57580000D01*
X126485000Y-78020000D02*
X126485000Y-57580000D01*
X124250000Y-57580000D02*
G75*
G02*
X122250000Y-57580000I-1000000J0D01*
G01*
D10*
%TO.C,K10*%
X99831800Y-109473400D02*
X99831800Y-128726600D01*
X99831800Y-128726600D02*
X105165800Y-128726600D01*
X105165800Y-109473400D02*
X99831800Y-109473400D01*
X105165800Y-128726600D02*
X105165800Y-109473400D01*
D12*
%TO.C,C4*%
X106710000Y-55760000D02*
X106710000Y-53020000D01*
X111950000Y-53020000D02*
X106710000Y-53020000D01*
X111950000Y-55760000D02*
X106710000Y-55760000D01*
X111950000Y-55760000D02*
X111950000Y-53020000D01*
D10*
%TO.C,K8*%
X152141300Y-58222100D02*
X152141300Y-59532826D01*
X152141300Y-61407174D02*
X152141300Y-62072826D01*
X152141300Y-63947174D02*
X152141300Y-72232826D01*
X152141300Y-74107174D02*
X152141300Y-74772826D01*
X152141300Y-76647174D02*
X152141300Y-77957900D01*
X152141300Y-77957900D02*
X159278700Y-77957900D01*
X159278700Y-58222100D02*
X152141300Y-58222100D01*
X159278700Y-59532826D02*
X159278700Y-58222100D01*
X159278700Y-62072826D02*
X159278700Y-61407174D01*
X159278700Y-72232826D02*
X159278700Y-63947174D01*
X159278700Y-74772826D02*
X159278700Y-74107174D01*
X159278700Y-77957900D02*
X159278700Y-76647174D01*
D12*
%TO.C,U1*%
X102755000Y-57820000D02*
X102755000Y-78260000D01*
X102755000Y-78260000D02*
X109225000Y-78260000D01*
X104990000Y-57820000D02*
X102755000Y-57820000D01*
X109225000Y-57820000D02*
X106990000Y-57820000D01*
X109225000Y-78260000D02*
X109225000Y-57820000D01*
X106990000Y-57820000D02*
G75*
G02*
X104990000Y-57820000I-1000000J0D01*
G01*
%TO.C,C2*%
X128137380Y-121091000D02*
X128767380Y-121091000D01*
X128452380Y-120776000D02*
X128452380Y-121406000D01*
X131637621Y-119700000D02*
X131637621Y-126160000D01*
X131677621Y-119700000D02*
X131677621Y-126160000D01*
X131717621Y-119700000D02*
X131717621Y-126160000D01*
X131757621Y-119702000D02*
X131757621Y-126158000D01*
X131797621Y-119703000D02*
X131797621Y-126157000D01*
X131837621Y-119706000D02*
X131837621Y-126154000D01*
X131877621Y-119708000D02*
X131877621Y-121890000D01*
X131877621Y-123970000D02*
X131877621Y-126152000D01*
X131917621Y-119712000D02*
X131917621Y-121890000D01*
X131917621Y-123970000D02*
X131917621Y-126148000D01*
X131957621Y-119715000D02*
X131957621Y-121890000D01*
X131957621Y-123970000D02*
X131957621Y-126145000D01*
X131997621Y-119719000D02*
X131997621Y-121890000D01*
X131997621Y-123970000D02*
X131997621Y-126141000D01*
X132037621Y-119724000D02*
X132037621Y-121890000D01*
X132037621Y-123970000D02*
X132037621Y-126136000D01*
X132077621Y-119729000D02*
X132077621Y-121890000D01*
X132077621Y-123970000D02*
X132077621Y-126131000D01*
X132117621Y-119735000D02*
X132117621Y-121890000D01*
X132117621Y-123970000D02*
X132117621Y-126125000D01*
X132157621Y-119741000D02*
X132157621Y-121890000D01*
X132157621Y-123970000D02*
X132157621Y-126119000D01*
X132197621Y-119748000D02*
X132197621Y-121890000D01*
X132197621Y-123970000D02*
X132197621Y-126112000D01*
X132237621Y-119755000D02*
X132237621Y-121890000D01*
X132237621Y-123970000D02*
X132237621Y-126105000D01*
X132277621Y-119763000D02*
X132277621Y-121890000D01*
X132277621Y-123970000D02*
X132277621Y-126097000D01*
X132317621Y-119771000D02*
X132317621Y-121890000D01*
X132317621Y-123970000D02*
X132317621Y-126089000D01*
X132358621Y-119780000D02*
X132358621Y-121890000D01*
X132358621Y-123970000D02*
X132358621Y-126080000D01*
X132398621Y-119789000D02*
X132398621Y-121890000D01*
X132398621Y-123970000D02*
X132398621Y-126071000D01*
X132438621Y-119799000D02*
X132438621Y-121890000D01*
X132438621Y-123970000D02*
X132438621Y-126061000D01*
X132478621Y-119809000D02*
X132478621Y-121890000D01*
X132478621Y-123970000D02*
X132478621Y-126051000D01*
X132518621Y-119820000D02*
X132518621Y-121890000D01*
X132518621Y-123970000D02*
X132518621Y-126040000D01*
X132558621Y-119832000D02*
X132558621Y-121890000D01*
X132558621Y-123970000D02*
X132558621Y-126028000D01*
X132598621Y-119844000D02*
X132598621Y-121890000D01*
X132598621Y-123970000D02*
X132598621Y-126016000D01*
X132638621Y-119856000D02*
X132638621Y-121890000D01*
X132638621Y-123970000D02*
X132638621Y-126004000D01*
X132678621Y-119869000D02*
X132678621Y-121890000D01*
X132678621Y-123970000D02*
X132678621Y-125991000D01*
X132718621Y-119883000D02*
X132718621Y-121890000D01*
X132718621Y-123970000D02*
X132718621Y-125977000D01*
X132758621Y-119897000D02*
X132758621Y-121890000D01*
X132758621Y-123970000D02*
X132758621Y-125963000D01*
X132798621Y-119912000D02*
X132798621Y-121890000D01*
X132798621Y-123970000D02*
X132798621Y-125948000D01*
X132838621Y-119928000D02*
X132838621Y-121890000D01*
X132838621Y-123970000D02*
X132838621Y-125932000D01*
X132878621Y-119944000D02*
X132878621Y-121890000D01*
X132878621Y-123970000D02*
X132878621Y-125916000D01*
X132918621Y-119960000D02*
X132918621Y-121890000D01*
X132918621Y-123970000D02*
X132918621Y-125900000D01*
X132958621Y-119978000D02*
X132958621Y-121890000D01*
X132958621Y-123970000D02*
X132958621Y-125882000D01*
X132998621Y-119996000D02*
X132998621Y-121890000D01*
X132998621Y-123970000D02*
X132998621Y-125864000D01*
X133038621Y-120014000D02*
X133038621Y-121890000D01*
X133038621Y-123970000D02*
X133038621Y-125846000D01*
X133078621Y-120034000D02*
X133078621Y-121890000D01*
X133078621Y-123970000D02*
X133078621Y-125826000D01*
X133118621Y-120054000D02*
X133118621Y-121890000D01*
X133118621Y-123970000D02*
X133118621Y-125806000D01*
X133158621Y-120074000D02*
X133158621Y-121890000D01*
X133158621Y-123970000D02*
X133158621Y-125786000D01*
X133198621Y-120096000D02*
X133198621Y-121890000D01*
X133198621Y-123970000D02*
X133198621Y-125764000D01*
X133238621Y-120118000D02*
X133238621Y-121890000D01*
X133238621Y-123970000D02*
X133238621Y-125742000D01*
X133278621Y-120140000D02*
X133278621Y-121890000D01*
X133278621Y-123970000D02*
X133278621Y-125720000D01*
X133318621Y-120164000D02*
X133318621Y-121890000D01*
X133318621Y-123970000D02*
X133318621Y-125696000D01*
X133358621Y-120188000D02*
X133358621Y-121890000D01*
X133358621Y-123970000D02*
X133358621Y-125672000D01*
X133398621Y-120214000D02*
X133398621Y-121890000D01*
X133398621Y-123970000D02*
X133398621Y-125646000D01*
X133438621Y-120240000D02*
X133438621Y-121890000D01*
X133438621Y-123970000D02*
X133438621Y-125620000D01*
X133478621Y-120266000D02*
X133478621Y-121890000D01*
X133478621Y-123970000D02*
X133478621Y-125594000D01*
X133518621Y-120294000D02*
X133518621Y-121890000D01*
X133518621Y-123970000D02*
X133518621Y-125566000D01*
X133558621Y-120323000D02*
X133558621Y-121890000D01*
X133558621Y-123970000D02*
X133558621Y-125537000D01*
X133598621Y-120352000D02*
X133598621Y-121890000D01*
X133598621Y-123970000D02*
X133598621Y-125508000D01*
X133638621Y-120382000D02*
X133638621Y-121890000D01*
X133638621Y-123970000D02*
X133638621Y-125478000D01*
X133678621Y-120414000D02*
X133678621Y-121890000D01*
X133678621Y-123970000D02*
X133678621Y-125446000D01*
X133718621Y-120446000D02*
X133718621Y-121890000D01*
X133718621Y-123970000D02*
X133718621Y-125414000D01*
X133758621Y-120480000D02*
X133758621Y-121890000D01*
X133758621Y-123970000D02*
X133758621Y-125380000D01*
X133798621Y-120514000D02*
X133798621Y-121890000D01*
X133798621Y-123970000D02*
X133798621Y-125346000D01*
X133838621Y-120550000D02*
X133838621Y-121890000D01*
X133838621Y-123970000D02*
X133838621Y-125310000D01*
X133878621Y-120587000D02*
X133878621Y-121890000D01*
X133878621Y-123970000D02*
X133878621Y-125273000D01*
X133918621Y-120625000D02*
X133918621Y-121890000D01*
X133918621Y-123970000D02*
X133918621Y-125235000D01*
X133958621Y-120665000D02*
X133958621Y-125195000D01*
X133998621Y-120706000D02*
X133998621Y-125154000D01*
X134038621Y-120748000D02*
X134038621Y-125112000D01*
X134078621Y-120793000D02*
X134078621Y-125067000D01*
X134118621Y-120838000D02*
X134118621Y-125022000D01*
X134158621Y-120886000D02*
X134158621Y-124974000D01*
X134198621Y-120935000D02*
X134198621Y-124925000D01*
X134238621Y-120986000D02*
X134238621Y-124874000D01*
X134278621Y-121040000D02*
X134278621Y-124820000D01*
X134318621Y-121096000D02*
X134318621Y-124764000D01*
X134358621Y-121154000D02*
X134358621Y-124706000D01*
X134398621Y-121216000D02*
X134398621Y-124644000D01*
X134438621Y-121280000D02*
X134438621Y-124580000D01*
X134478621Y-121349000D02*
X134478621Y-124511000D01*
X134518621Y-121421000D02*
X134518621Y-124439000D01*
X134558621Y-121498000D02*
X134558621Y-124362000D01*
X134598621Y-121580000D02*
X134598621Y-124280000D01*
X134638621Y-121668000D02*
X134638621Y-124192000D01*
X134678621Y-121765000D02*
X134678621Y-124095000D01*
X134718621Y-121871000D02*
X134718621Y-123989000D01*
X134758621Y-121990000D02*
X134758621Y-123870000D01*
X134798621Y-122128000D02*
X134798621Y-123732000D01*
X134838621Y-122297000D02*
X134838621Y-123563000D01*
X134878621Y-122528000D02*
X134878621Y-123332000D01*
X134907621Y-122930000D02*
G75*
G02*
X128367621Y-122930000I-3270000J0D01*
G01*
X128367621Y-122930000D02*
G75*
G02*
X134907621Y-122930000I3270000J0D01*
G01*
D10*
%TO.C,K7*%
X103611300Y-86622100D02*
X103611300Y-87932826D01*
X103611300Y-89807174D02*
X103611300Y-90472826D01*
X103611300Y-92347174D02*
X103611300Y-100632826D01*
X103611300Y-102507174D02*
X103611300Y-103172826D01*
X103611300Y-105047174D02*
X103611300Y-106357900D01*
X103611300Y-106357900D02*
X110748700Y-106357900D01*
X110748700Y-86622100D02*
X103611300Y-86622100D01*
X110748700Y-87932826D02*
X110748700Y-86622100D01*
X110748700Y-90472826D02*
X110748700Y-89807174D01*
X110748700Y-100632826D02*
X110748700Y-92347174D01*
X110748700Y-103172826D02*
X110748700Y-102507174D01*
X110748700Y-106357900D02*
X110748700Y-105047174D01*
D12*
%TO.C,J2*%
X121350000Y-46530000D02*
X121350000Y-49190000D01*
X134110000Y-46530000D02*
X121350000Y-46530000D01*
X134110000Y-46530000D02*
X134110000Y-49190000D01*
X134110000Y-49190000D02*
X121350000Y-49190000D01*
X136710000Y-47860000D02*
X136710000Y-49190000D01*
X136710000Y-49190000D02*
X135380000Y-49190000D01*
D10*
%TO.C,K12*%
X113312600Y-109473400D02*
X113312600Y-128726600D01*
X113312600Y-128726600D02*
X118646600Y-128726600D01*
X118646600Y-109473400D02*
X113312600Y-109473400D01*
X118646600Y-128726600D02*
X118646600Y-109473400D01*
D12*
%TO.C,R1*%
X83370000Y-92720000D02*
X83370000Y-99260000D01*
X83370000Y-99260000D02*
X86110000Y-99260000D01*
X84740000Y-89410000D02*
X84740000Y-92720000D01*
X84740000Y-102570000D02*
X84740000Y-99260000D01*
X86110000Y-92720000D02*
X83370000Y-92720000D01*
X86110000Y-99260000D02*
X86110000Y-92720000D01*
D10*
%TO.C,K13*%
X120053000Y-109473400D02*
X120053000Y-128726600D01*
X120053000Y-128726600D02*
X125387000Y-128726600D01*
X125387000Y-109473400D02*
X120053000Y-109473400D01*
X125387000Y-128726600D02*
X125387000Y-109473400D01*
D12*
%TO.C,D1*%
X153800000Y-82880000D02*
X154820000Y-82880000D01*
X154820000Y-81410000D02*
X154820000Y-84350000D01*
X154820000Y-84350000D02*
X160260000Y-84350000D01*
X155600000Y-81410000D02*
X155600000Y-84350000D01*
X155720000Y-81410000D02*
X155720000Y-84350000D01*
X155840000Y-81410000D02*
X155840000Y-84350000D01*
X160260000Y-81410000D02*
X154820000Y-81410000D01*
X160260000Y-84350000D02*
X160260000Y-81410000D01*
X161280000Y-82880000D02*
X160260000Y-82880000D01*
D10*
%TO.C,K2*%
X141921300Y-86652100D02*
X141921300Y-87962826D01*
X141921300Y-89837174D02*
X141921300Y-90502826D01*
X141921300Y-92377174D02*
X141921300Y-100662826D01*
X141921300Y-102537174D02*
X141921300Y-103202826D01*
X141921300Y-105077174D02*
X141921300Y-106387900D01*
X141921300Y-106387900D02*
X149058700Y-106387900D01*
X149058700Y-86652100D02*
X141921300Y-86652100D01*
X149058700Y-87962826D02*
X149058700Y-86652100D01*
X149058700Y-90502826D02*
X149058700Y-89837174D01*
X149058700Y-100662826D02*
X149058700Y-92377174D01*
X149058700Y-103202826D02*
X149058700Y-102537174D01*
X149058700Y-106387900D02*
X149058700Y-105077174D01*
%TO.C,K3*%
X153851300Y-86692100D02*
X153851300Y-88002826D01*
X153851300Y-89877174D02*
X153851300Y-90542826D01*
X153851300Y-92417174D02*
X153851300Y-100702826D01*
X153851300Y-102577174D02*
X153851300Y-103242826D01*
X153851300Y-105117174D02*
X153851300Y-106427900D01*
X153851300Y-106427900D02*
X160988700Y-106427900D01*
X160988700Y-86692100D02*
X153851300Y-86692100D01*
X160988700Y-88002826D02*
X160988700Y-86692100D01*
X160988700Y-90542826D02*
X160988700Y-89877174D01*
X160988700Y-100702826D02*
X160988700Y-92417174D01*
X160988700Y-103242826D02*
X160988700Y-102577174D01*
X160988700Y-106427900D02*
X160988700Y-105117174D01*
%TD*%
%LPC*%
D13*
%TO.C,K6*%
X91460000Y-88820000D03*
X91460000Y-91360000D03*
X91460000Y-101520000D03*
X91460000Y-104060000D03*
X99080000Y-104060000D03*
X99080000Y-101520000D03*
X99080000Y-91360000D03*
X99080000Y-88820000D03*
%TD*%
%TO.C,K1*%
X165230000Y-88950000D03*
X165230000Y-91490000D03*
X165230000Y-101650000D03*
X165230000Y-104190000D03*
X172850000Y-104190000D03*
X172850000Y-101650000D03*
X172850000Y-91490000D03*
X172850000Y-88950000D03*
%TD*%
%TO.C,K5*%
X128760000Y-88900000D03*
X128760000Y-91440000D03*
X128760000Y-101600000D03*
X128760000Y-104140000D03*
X136380000Y-104140000D03*
X136380000Y-101600000D03*
X136380000Y-91440000D03*
X136380000Y-88900000D03*
%TD*%
D14*
%TO.C,H4*%
X85480000Y-47870000D03*
%TD*%
D15*
%TO.C,R2*%
X99370000Y-81940000D03*
D16*
X114610000Y-81940000D03*
%TD*%
D17*
%TO.C,C6*%
X151460000Y-121720000D03*
D15*
X151460000Y-123720000D03*
%TD*%
D13*
%TO.C,K4*%
X95758400Y-126720000D03*
X95758400Y-121640000D03*
X95758400Y-116560000D03*
X95758400Y-111480000D03*
%TD*%
%TO.C,K11*%
X109239200Y-126720000D03*
X109239200Y-121640000D03*
X109239200Y-116560000D03*
X109239200Y-111480000D03*
%TD*%
D17*
%TO.C,C1*%
X140820000Y-122940000D03*
D15*
X143320000Y-122940000D03*
%TD*%
D18*
%TO.C,J3*%
X115010000Y-47850000D03*
D19*
X112470000Y-47850000D03*
X109930000Y-47850000D03*
X107390000Y-47850000D03*
X104850000Y-47850000D03*
X102310000Y-47850000D03*
%TD*%
D15*
%TO.C,R3*%
X160450000Y-127160000D03*
D16*
X160450000Y-111920000D03*
%TD*%
D20*
%TO.C,D2*%
X152190000Y-112570000D03*
D21*
X147190000Y-112570000D03*
X142190000Y-112570000D03*
X137190000Y-112570000D03*
%TD*%
D18*
%TO.C,J4*%
X155910000Y-47820000D03*
D19*
X153370000Y-47820000D03*
X150830000Y-47820000D03*
X148290000Y-47820000D03*
X145750000Y-47820000D03*
X143210000Y-47820000D03*
%TD*%
D15*
%TO.C,C3*%
X125290000Y-54630000D03*
X127790000Y-54630000D03*
%TD*%
D14*
%TO.C,H1*%
X171220000Y-45340000D03*
%TD*%
D17*
%TO.C,U2*%
X84140000Y-59090000D03*
D16*
X84140000Y-61630000D03*
X84140000Y-64170000D03*
X84140000Y-66710000D03*
X84140000Y-69250000D03*
X84140000Y-71790000D03*
X84140000Y-74330000D03*
X84140000Y-76870000D03*
X94300000Y-76870000D03*
X94300000Y-74330000D03*
X94300000Y-71790000D03*
X94300000Y-69250000D03*
X94300000Y-66710000D03*
X94300000Y-64170000D03*
X94300000Y-61630000D03*
X94300000Y-59090000D03*
%TD*%
D14*
%TO.C,H2*%
X171260000Y-125350000D03*
%TD*%
D17*
%TO.C,U4*%
X135670000Y-59030000D03*
D16*
X135670000Y-61570000D03*
X135670000Y-64110000D03*
X135670000Y-66650000D03*
X135670000Y-69190000D03*
X135670000Y-71730000D03*
X135670000Y-74270000D03*
X135670000Y-76810000D03*
X145830000Y-76810000D03*
X145830000Y-74270000D03*
X145830000Y-71730000D03*
X145830000Y-69190000D03*
X145830000Y-66650000D03*
X145830000Y-64110000D03*
X145830000Y-61570000D03*
X145830000Y-59030000D03*
%TD*%
D22*
%TO.C,F1*%
X168310000Y-57060000D03*
X168310000Y-79660000D03*
%TD*%
D13*
%TO.C,K9*%
X116180000Y-88900000D03*
X116180000Y-91440000D03*
X116180000Y-101600000D03*
X116180000Y-104140000D03*
X123800000Y-104140000D03*
X123800000Y-101600000D03*
X123800000Y-91440000D03*
X123800000Y-88900000D03*
%TD*%
D17*
%TO.C,U3*%
X118170000Y-58910000D03*
D16*
X118170000Y-61450000D03*
X118170000Y-63990000D03*
X118170000Y-66530000D03*
X118170000Y-69070000D03*
X118170000Y-71610000D03*
X118170000Y-74150000D03*
X118170000Y-76690000D03*
X128330000Y-76690000D03*
X128330000Y-74150000D03*
X128330000Y-71610000D03*
X128330000Y-69070000D03*
X128330000Y-66530000D03*
X128330000Y-63990000D03*
X128330000Y-61450000D03*
X128330000Y-58910000D03*
%TD*%
D13*
%TO.C,K10*%
X102498800Y-126720000D03*
X102498800Y-121640000D03*
X102498800Y-116560000D03*
X102498800Y-111480000D03*
%TD*%
D15*
%TO.C,C4*%
X110580000Y-54390000D03*
X108080000Y-54390000D03*
%TD*%
D13*
%TO.C,K8*%
X151900000Y-60470000D03*
X151900000Y-63010000D03*
X151900000Y-73170000D03*
X151900000Y-75710000D03*
X159520000Y-75710000D03*
X159520000Y-73170000D03*
X159520000Y-63010000D03*
X159520000Y-60470000D03*
%TD*%
D17*
%TO.C,U1*%
X100910000Y-59150000D03*
D16*
X100910000Y-61690000D03*
X100910000Y-64230000D03*
X100910000Y-66770000D03*
X100910000Y-69310000D03*
X100910000Y-71850000D03*
X100910000Y-74390000D03*
X100910000Y-76930000D03*
X111070000Y-76930000D03*
X111070000Y-74390000D03*
X111070000Y-71850000D03*
X111070000Y-69310000D03*
X111070000Y-66770000D03*
X111070000Y-64230000D03*
X111070000Y-61690000D03*
X111070000Y-59150000D03*
%TD*%
D17*
%TO.C,C2*%
X130387621Y-122930000D03*
D15*
X132887621Y-122930000D03*
%TD*%
D13*
%TO.C,K7*%
X103370000Y-88870000D03*
X103370000Y-91410000D03*
X103370000Y-101570000D03*
X103370000Y-104110000D03*
X110990000Y-104110000D03*
X110990000Y-101570000D03*
X110990000Y-91410000D03*
X110990000Y-88870000D03*
%TD*%
D18*
%TO.C,J2*%
X135380000Y-47860000D03*
D19*
X132840000Y-47860000D03*
X130300000Y-47860000D03*
X127760000Y-47860000D03*
X125220000Y-47860000D03*
X122680000Y-47860000D03*
%TD*%
D13*
%TO.C,K12*%
X115979600Y-126720000D03*
X115979600Y-121640000D03*
X115979600Y-116560000D03*
X115979600Y-111480000D03*
%TD*%
D15*
%TO.C,R1*%
X84740000Y-88370000D03*
D16*
X84740000Y-103610000D03*
%TD*%
D13*
%TO.C,K13*%
X122720000Y-126720000D03*
X122720000Y-121640000D03*
X122720000Y-116560000D03*
X122720000Y-111480000D03*
%TD*%
D14*
%TO.C,H3*%
X85520000Y-121550000D03*
%TD*%
D23*
%TO.C,D1*%
X152460000Y-82880000D03*
D24*
X162620000Y-82880000D03*
%TD*%
D13*
%TO.C,K2*%
X141680000Y-88900000D03*
X141680000Y-91440000D03*
X141680000Y-101600000D03*
X141680000Y-104140000D03*
X149300000Y-104140000D03*
X149300000Y-101600000D03*
X149300000Y-91440000D03*
X149300000Y-88900000D03*
%TD*%
%TO.C,K3*%
X153610000Y-88940000D03*
X153610000Y-91480000D03*
X153610000Y-101640000D03*
X153610000Y-104180000D03*
X161230000Y-104180000D03*
X161230000Y-101640000D03*
X161230000Y-91480000D03*
X161230000Y-88940000D03*
%TD*%
%LPD*%
M02*
