M48
INCH
T1C0.0157
T2C0.0300
T3C0.0315
T4C0.0394
%
G90
G05
T1
X6.4492Y-2.6833
T2
X5.0299Y-1.6945
X5.0299Y-1.8945
X5.0299Y-2.0945
X5.0299Y-2.2945
X5.3862Y-1.6961
X5.3862Y-1.8961
X5.3862Y-2.0961
X5.3862Y-2.2961
X5.7965Y-1.6953
X5.7965Y-1.8953
X5.7965Y-2.0953
X5.7965Y-2.2953
X6.2472Y-1.6961
X6.2472Y-1.8961
X6.2472Y-2.0961
X6.2472Y-2.2961
X6.5992Y-1.6937
X6.5992Y-1.8937
X6.5992Y-2.0937
X6.5992Y-2.2937
X6.9598Y-1.6961
X6.9598Y-1.7961
X6.9598Y-2.1961
X6.9598Y-2.2961
X7.2598Y-1.6961
X7.2598Y-1.7961
X7.2598Y-2.1961
X7.2598Y-2.2961
X7.3752Y-1.6961
X7.3752Y-1.7961
X7.3752Y-2.1961
X7.3752Y-2.2961
X7.6752Y-1.6961
X7.6752Y-1.7961
X7.6752Y-2.1961
X7.6752Y-2.2961
X7.7906Y-1.6961
X7.7906Y-1.7961
X7.7906Y-2.1961
X7.7906Y-2.2961
X8.0906Y-1.6961
X8.0906Y-1.7961
X8.0906Y-2.1961
X8.0906Y-2.2961
T3
X4.9429Y-2.9047
X4.9429Y-3.0047
X4.9429Y-3.1047
X4.9429Y-3.2047
X4.9429Y-3.3047
X4.9429Y-3.4047
X4.9429Y-3.5047
X4.9429Y-3.6047
X5.2421Y-2.5354
X5.2421Y-2.6949
X5.3406Y-2.5354
X5.3406Y-2.6949
X5.3429Y-2.9047
X5.3429Y-3.0047
X5.3429Y-3.1047
X5.3429Y-3.2047
X5.3429Y-3.3047
X5.3429Y-3.4047
X5.3429Y-3.5047
X5.3429Y-3.6047
X5.4685Y-2.9047
X5.4685Y-3.0047
X5.4685Y-3.1047
X5.4685Y-3.2047
X5.4685Y-3.3047
X5.4685Y-3.4047
X5.4685Y-3.5047
X5.4685Y-3.6047
X5.8685Y-2.9047
X5.8685Y-3.0047
X5.8685Y-3.1047
X5.8685Y-3.2047
X5.8685Y-3.3047
X5.8685Y-3.4047
X5.8685Y-3.5047
X5.8685Y-3.6047
X5.9941Y-2.9047
X5.9941Y-3.0047
X5.9941Y-3.1047
X5.9941Y-3.2047
X5.9941Y-3.3047
X5.9941Y-3.4047
X5.9941Y-3.5047
X5.9941Y-3.6047
X6.3941Y-2.9047
X6.3941Y-3.0047
X6.3941Y-3.1047
X6.3941Y-3.2047
X6.3941Y-3.3047
X6.3941Y-3.4047
X6.3941Y-3.5047
X6.3941Y-3.6047
X6.5197Y-2.9047
X6.5197Y-3.0047
X6.5197Y-3.1047
X6.5197Y-3.2047
X6.5197Y-3.3047
X6.5197Y-3.4047
X6.5197Y-3.5047
X6.5197Y-3.6047
X6.9197Y-2.9047
X6.9197Y-3.0047
X6.9197Y-3.1047
X6.9197Y-3.2047
X6.9197Y-3.3047
X6.9197Y-3.4047
X6.9197Y-3.5047
X6.9197Y-3.6047
X7.2213Y-2.8815
X7.2213Y-3.4815
X7.3807Y-2.8815
X7.3807Y-3.4815
X7.5402Y-2.8815
X7.5402Y-3.4815
T4
X5.5882Y-4.6398
X5.5894Y-4.4843
X5.5898Y-4.1953
X5.5898Y-4.2953
X5.5902Y-3.8563
X5.5906Y-4.0079
X5.6882Y-4.6398
X5.6894Y-4.4843
X5.6898Y-4.1953
X5.6898Y-4.2953
X5.6902Y-3.8563
X5.6906Y-4.0079
X5.7882Y-4.6398
X5.7894Y-4.4843
X5.7898Y-4.1953
X5.7898Y-4.2953
X5.7902Y-3.8563
X5.7906Y-4.0079
X5.8882Y-4.6398
X5.8894Y-4.4843
X5.8898Y-4.1953
X5.8898Y-4.2953
X5.8902Y-3.8563
X5.8906Y-4.0079
X5.9882Y-4.6398
X5.9894Y-4.4843
X5.9898Y-4.1953
X5.9898Y-4.2953
X5.9902Y-3.8563
X5.9906Y-4.0079
X6.0882Y-4.6398
X6.0894Y-4.4843
X6.0898Y-4.1953
X6.0898Y-4.2953
X6.0902Y-3.8563
X6.0906Y-4.0079
X6.1882Y-4.6398
X6.1894Y-4.4843
X6.1898Y-4.1953
X6.1898Y-4.2953
X6.1902Y-3.8563
X6.1906Y-4.0079
X6.2882Y-4.6398
X6.2894Y-4.4843
X6.2898Y-4.1953
X6.2898Y-4.2953
X6.2902Y-3.8563
X6.2906Y-4.0079
X6.3882Y-4.6398
X6.3894Y-4.4843
X6.3898Y-4.1953
X6.3898Y-4.2953
X6.3902Y-3.8563
X6.3906Y-4.0079
X6.4882Y-4.6398
X6.4894Y-4.4843
X6.4898Y-4.1953
X6.4898Y-4.2953
X6.4902Y-3.8563
X6.4906Y-4.0079
X6.5882Y-4.6398
X6.5894Y-4.4843
X6.5898Y-4.1953
X6.5898Y-4.2953
X6.5902Y-3.8563
X6.5906Y-4.0079
X6.6882Y-4.6398
X6.6894Y-4.4843
X6.6898Y-4.1953
X6.6898Y-4.2953
X6.6902Y-3.8563
X6.6906Y-4.0079
X6.7882Y-4.6398
X6.7894Y-4.4843
X6.7898Y-4.1953
X6.7898Y-4.2953
X6.7902Y-3.8563
X6.7906Y-4.0079
X6.8882Y-4.6398
X6.8894Y-4.4843
X6.8898Y-4.1953
X6.8898Y-4.2953
X6.8902Y-3.8563
X6.8906Y-4.0079
X6.9882Y-4.6398
X6.9894Y-4.4843
X6.9898Y-4.1953
X6.9898Y-4.2953
X6.9902Y-3.8563
X6.9906Y-4.0079
X7.0882Y-4.6398
X7.0894Y-4.4843
X7.0898Y-4.1953
X7.0898Y-4.2953
X7.0902Y-3.8563
X7.0906Y-4.0079
X7.1882Y-4.6398
X7.1894Y-4.4843
X7.1898Y-4.1953
X7.1898Y-4.2953
X7.1902Y-3.8563
X7.1906Y-4.0079
X7.2882Y-4.6398
X7.2894Y-4.4843
X7.2898Y-4.1953
X7.2898Y-4.2953
X7.2902Y-3.8563
X7.2906Y-4.0079
X7.3882Y-4.6398
X7.3894Y-4.4843
X7.3898Y-4.1953
X7.3898Y-4.2953
X7.3902Y-3.8563
X7.3906Y-4.0079
X7.4882Y-4.6398
X7.4894Y-4.4843
X7.4898Y-4.1953
X7.4898Y-4.2953
X7.4902Y-3.8563
X7.4906Y-4.0079
X7.8787Y-2.8209
X7.8787Y-3.002
X7.8787Y-3.1831
X7.8787Y-3.3661
X7.8787Y-3.5492
X7.9787Y-2.8209
X7.9787Y-3.002
X7.9787Y-3.1831
X7.9787Y-3.3661
X7.9787Y-3.5492
M30
