M48
; DRILL file {KiCad 8.0.3} date 2024-06-12T06:35:06+0100
; FORMAT={-:-/ absolute / inch / decimal}
; #@! TF.CreationDate,2024-06-12T06:35:06+01:00
; #@! TF.GenerationSoftware,Kicad,Pcbnew,8.0.3
; #@! TF.FileFunction,Plated,1,4,PTH
FMAT,2
INCH
; #@! TA.AperFunction,Plated,PTH,ComponentDrill
T1C0.0315
; #@! TA.AperFunction,Plated,PTH,ComponentDrill
T2C0.0394
; #@! TA.AperFunction,Plated,PTH,ComponentDrill
T3C0.0433
%
G90
G05
T1
X4.44Y-2.8969
X4.5187Y-2.8969
X4.75Y-2.9012
X4.8272Y-2.4988
X4.8287Y-2.9012
X5.024Y-2.4988
X5.137Y-2.898
X5.1374Y-2.7165
X5.737Y-2.898
X5.7374Y-2.7165
T2
X4.4094Y-2.1789
X4.4098Y-1.8843
X4.5094Y-2.1789
X4.5098Y-1.8843
X4.6098Y-1.8843
X4.7098Y-1.8843
X4.8098Y-1.8843
X4.9098Y-1.8843
X4.9114Y-2.1894
T3
X4.3724Y-2.4768
X4.4724Y-2.4768
X4.5724Y-2.4768
X5.2413Y-2.3047
X5.2437Y-2.5063
X5.6413Y-2.3047
X5.6437Y-2.5063
M30
