%TF.GenerationSoftware,KiCad,Pcbnew,8.0.3*%
%TF.CreationDate,2024-06-12T06:35:03+01:00*%
%TF.ProjectId,power_sources,706f7765-725f-4736-9f75-726365732e6b,rev?*%
%TF.SameCoordinates,Original*%
%TF.FileFunction,Soldermask,Bot*%
%TF.FilePolarity,Negative*%
%FSLAX46Y46*%
G04 Gerber Fmt 4.6, Leading zero omitted, Abs format (unit mm)*
G04 Created by KiCad (PCBNEW 8.0.3) date 2024-06-12 06:35:03*
%MOMM*%
%LPD*%
G01*
G04 APERTURE LIST*
G04 APERTURE END LIST*
G36*
X181200295Y-123759699D02*
G01*
X181444427Y-123818310D01*
X181676385Y-123914390D01*
X181890456Y-124045573D01*
X182081371Y-124208629D01*
X182244427Y-124399544D01*
X182375610Y-124613615D01*
X182471690Y-124845573D01*
X182530301Y-125089705D01*
X182550000Y-125340000D01*
X182530301Y-125590295D01*
X182471690Y-125834427D01*
X182375610Y-126066385D01*
X182244427Y-126280456D01*
X182081371Y-126471371D01*
X181890456Y-126634427D01*
X181676385Y-126765610D01*
X181444427Y-126861690D01*
X181200295Y-126920301D01*
X180950000Y-126940000D01*
X180699705Y-126920301D01*
X180455573Y-126861690D01*
X180223615Y-126765610D01*
X180009544Y-126634427D01*
X179818629Y-126471371D01*
X179655573Y-126280456D01*
X179524390Y-126066385D01*
X179428310Y-125834427D01*
X179369699Y-125590295D01*
X179350000Y-125340000D01*
X179369699Y-125089705D01*
X179428310Y-124845573D01*
X179524390Y-124613615D01*
X179655573Y-124399544D01*
X179818629Y-124208629D01*
X180009544Y-124045573D01*
X180223615Y-123914390D01*
X180455573Y-123818310D01*
X180699705Y-123759699D01*
X180950000Y-123740000D01*
X181200295Y-123759699D01*
G37*
G36*
X95460295Y-119959699D02*
G01*
X95704427Y-120018310D01*
X95936385Y-120114390D01*
X96150456Y-120245573D01*
X96341371Y-120408629D01*
X96504427Y-120599544D01*
X96635610Y-120813615D01*
X96731690Y-121045573D01*
X96790301Y-121289705D01*
X96810000Y-121540000D01*
X96790301Y-121790295D01*
X96731690Y-122034427D01*
X96635610Y-122266385D01*
X96504427Y-122480456D01*
X96341371Y-122671371D01*
X96150456Y-122834427D01*
X95936385Y-122965610D01*
X95704427Y-123061690D01*
X95460295Y-123120301D01*
X95210000Y-123140000D01*
X94959705Y-123120301D01*
X94715573Y-123061690D01*
X94483615Y-122965610D01*
X94269544Y-122834427D01*
X94078629Y-122671371D01*
X93915573Y-122480456D01*
X93784390Y-122266385D01*
X93688310Y-122034427D01*
X93629699Y-121790295D01*
X93610000Y-121540000D01*
X93629699Y-121289705D01*
X93688310Y-121045573D01*
X93784390Y-120813615D01*
X93915573Y-120599544D01*
X94078629Y-120408629D01*
X94269544Y-120245573D01*
X94483615Y-120114390D01*
X94715573Y-120018310D01*
X94959705Y-119959699D01*
X95210000Y-119940000D01*
X95460295Y-119959699D01*
G37*
G36*
X168730295Y-101919699D02*
G01*
X168974427Y-101978310D01*
X169206385Y-102074390D01*
X169420456Y-102205573D01*
X169611371Y-102368629D01*
X169774427Y-102559544D01*
X169905610Y-102773615D01*
X170001690Y-103005573D01*
X170060301Y-103249705D01*
X170080000Y-103500000D01*
X170060301Y-103750295D01*
X170001690Y-103994427D01*
X169905610Y-104226385D01*
X169774427Y-104440456D01*
X169611371Y-104631371D01*
X169420456Y-104794427D01*
X169206385Y-104925610D01*
X168974427Y-105021690D01*
X168730295Y-105080301D01*
X168480000Y-105100000D01*
X168229705Y-105080301D01*
X167985573Y-105021690D01*
X167753615Y-104925610D01*
X167539544Y-104794427D01*
X167348629Y-104631371D01*
X167185573Y-104440456D01*
X167054390Y-104226385D01*
X166958310Y-103994427D01*
X166899699Y-103750295D01*
X166880000Y-103500000D01*
X166899699Y-103249705D01*
X166958310Y-103005573D01*
X167054390Y-102773615D01*
X167185573Y-102559544D01*
X167348629Y-102368629D01*
X167539544Y-102205573D01*
X167753615Y-102074390D01*
X167985573Y-101978310D01*
X168229705Y-101919699D01*
X168480000Y-101900000D01*
X168730295Y-101919699D01*
G37*
G36*
X107730295Y-101909699D02*
G01*
X107974427Y-101968310D01*
X108206385Y-102064390D01*
X108420456Y-102195573D01*
X108611371Y-102358629D01*
X108774427Y-102549544D01*
X108905610Y-102763615D01*
X109001690Y-102995573D01*
X109060301Y-103239705D01*
X109080000Y-103490000D01*
X109060301Y-103740295D01*
X109001690Y-103984427D01*
X108905610Y-104216385D01*
X108774427Y-104430456D01*
X108611371Y-104621371D01*
X108420456Y-104784427D01*
X108206385Y-104915610D01*
X107974427Y-105011690D01*
X107730295Y-105070301D01*
X107480000Y-105090000D01*
X107229705Y-105070301D01*
X106985573Y-105011690D01*
X106753615Y-104915610D01*
X106539544Y-104784427D01*
X106348629Y-104621371D01*
X106185573Y-104430456D01*
X106054390Y-104216385D01*
X105958310Y-103984427D01*
X105899699Y-103740295D01*
X105880000Y-103490000D01*
X105899699Y-103239705D01*
X105958310Y-102995573D01*
X106054390Y-102763615D01*
X106185573Y-102549544D01*
X106348629Y-102358629D01*
X106539544Y-102195573D01*
X106753615Y-102064390D01*
X106985573Y-101968310D01*
X107229705Y-101909699D01*
X107480000Y-101890000D01*
X107730295Y-101909699D01*
G37*
G36*
X121450000Y-74490000D02*
G01*
X119850000Y-74490000D01*
X119850000Y-72890000D01*
X121450000Y-72890000D01*
X121450000Y-74490000D01*
G37*
G36*
X122691811Y-72894711D02*
G01*
X122733588Y-72894711D01*
X122780718Y-72904728D01*
X122828017Y-72910058D01*
X122862408Y-72922092D01*
X122897110Y-72929468D01*
X122947117Y-72951733D01*
X122997107Y-72969225D01*
X123023128Y-72985575D01*
X123049835Y-72997466D01*
X123099633Y-73033646D01*
X123148792Y-73064535D01*
X123166444Y-73082187D01*
X123185084Y-73095730D01*
X123231165Y-73146908D01*
X123275465Y-73191208D01*
X123285654Y-73207424D01*
X123296946Y-73219965D01*
X123335573Y-73286870D01*
X123370775Y-73342893D01*
X123375170Y-73355453D01*
X123380535Y-73364746D01*
X123408010Y-73449305D01*
X123429942Y-73511983D01*
X123430773Y-73519363D01*
X123432195Y-73523738D01*
X123445076Y-73646306D01*
X123450000Y-73690000D01*
X123445076Y-73733697D01*
X123432195Y-73856261D01*
X123430773Y-73860635D01*
X123429942Y-73868017D01*
X123408005Y-73930707D01*
X123380535Y-74015253D01*
X123375171Y-74024543D01*
X123370775Y-74037107D01*
X123335566Y-74093140D01*
X123296946Y-74160034D01*
X123285656Y-74172572D01*
X123275465Y-74188792D01*
X123231155Y-74233101D01*
X123185084Y-74284269D01*
X123166448Y-74297808D01*
X123148792Y-74315465D01*
X123099623Y-74346359D01*
X123049835Y-74382533D01*
X123023134Y-74394421D01*
X122997107Y-74410775D01*
X122947107Y-74428270D01*
X122897110Y-74450531D01*
X122862414Y-74457905D01*
X122828017Y-74469942D01*
X122780715Y-74475271D01*
X122733588Y-74485289D01*
X122691811Y-74485289D01*
X122650000Y-74490000D01*
X122608189Y-74485289D01*
X122566412Y-74485289D01*
X122519284Y-74475271D01*
X122471983Y-74469942D01*
X122437586Y-74457906D01*
X122402889Y-74450531D01*
X122352887Y-74428268D01*
X122302893Y-74410775D01*
X122276868Y-74394422D01*
X122250164Y-74382533D01*
X122200369Y-74346355D01*
X122151208Y-74315465D01*
X122133554Y-74297811D01*
X122114915Y-74284269D01*
X122068833Y-74233090D01*
X122024535Y-74188792D01*
X122014345Y-74172575D01*
X122003053Y-74160034D01*
X121964420Y-74093120D01*
X121929225Y-74037107D01*
X121924830Y-74024547D01*
X121919464Y-74015253D01*
X121891980Y-73930667D01*
X121870058Y-73868017D01*
X121869226Y-73860639D01*
X121867804Y-73856261D01*
X121854908Y-73733565D01*
X121850000Y-73690000D01*
X121854908Y-73646438D01*
X121867804Y-73523738D01*
X121869226Y-73519358D01*
X121870058Y-73511983D01*
X121891975Y-73449345D01*
X121919464Y-73364746D01*
X121924831Y-73355449D01*
X121929225Y-73342893D01*
X121964413Y-73286890D01*
X122003053Y-73219965D01*
X122014347Y-73207421D01*
X122024535Y-73191208D01*
X122068826Y-73146916D01*
X122114917Y-73095728D01*
X122133559Y-73082183D01*
X122151208Y-73064535D01*
X122200354Y-73033654D01*
X122250162Y-72997467D01*
X122276873Y-72985574D01*
X122302893Y-72969225D01*
X122352877Y-72951734D01*
X122402889Y-72929468D01*
X122437592Y-72922091D01*
X122471983Y-72910058D01*
X122519281Y-72904728D01*
X122566412Y-72894711D01*
X122608189Y-72894711D01*
X122650000Y-72890000D01*
X122691811Y-72894711D01*
G37*
G36*
X130521811Y-72814711D02*
G01*
X130563588Y-72814711D01*
X130610718Y-72824728D01*
X130658017Y-72830058D01*
X130692408Y-72842092D01*
X130727110Y-72849468D01*
X130777117Y-72871733D01*
X130827107Y-72889225D01*
X130853128Y-72905575D01*
X130879835Y-72917466D01*
X130929633Y-72953646D01*
X130978792Y-72984535D01*
X130996444Y-73002187D01*
X131015084Y-73015730D01*
X131061165Y-73066908D01*
X131105465Y-73111208D01*
X131115654Y-73127424D01*
X131126946Y-73139965D01*
X131165573Y-73206870D01*
X131200775Y-73262893D01*
X131205170Y-73275453D01*
X131210535Y-73284746D01*
X131238010Y-73369305D01*
X131259942Y-73431983D01*
X131260773Y-73439363D01*
X131262195Y-73443738D01*
X131275076Y-73566306D01*
X131280000Y-73610000D01*
X131275076Y-73653697D01*
X131262195Y-73776261D01*
X131260773Y-73780635D01*
X131259942Y-73788017D01*
X131238005Y-73850707D01*
X131210535Y-73935253D01*
X131205171Y-73944543D01*
X131200775Y-73957107D01*
X131165566Y-74013140D01*
X131126946Y-74080034D01*
X131115656Y-74092572D01*
X131105465Y-74108792D01*
X131061155Y-74153101D01*
X131015084Y-74204269D01*
X130996448Y-74217808D01*
X130978792Y-74235465D01*
X130929623Y-74266359D01*
X130879835Y-74302533D01*
X130853134Y-74314421D01*
X130827107Y-74330775D01*
X130777107Y-74348270D01*
X130727110Y-74370531D01*
X130692414Y-74377905D01*
X130658017Y-74389942D01*
X130610715Y-74395271D01*
X130563588Y-74405289D01*
X130521811Y-74405289D01*
X130480000Y-74410000D01*
X130438189Y-74405289D01*
X130396412Y-74405289D01*
X130349284Y-74395271D01*
X130301983Y-74389942D01*
X130267586Y-74377906D01*
X130232889Y-74370531D01*
X130182887Y-74348268D01*
X130132893Y-74330775D01*
X130106868Y-74314422D01*
X130080164Y-74302533D01*
X130030369Y-74266355D01*
X129981208Y-74235465D01*
X129963554Y-74217811D01*
X129944915Y-74204269D01*
X129898833Y-74153090D01*
X129854535Y-74108792D01*
X129844345Y-74092575D01*
X129833053Y-74080034D01*
X129794420Y-74013120D01*
X129759225Y-73957107D01*
X129754830Y-73944547D01*
X129749464Y-73935253D01*
X129721980Y-73850667D01*
X129700058Y-73788017D01*
X129699226Y-73780639D01*
X129697804Y-73776261D01*
X129684908Y-73653565D01*
X129680000Y-73610000D01*
X129684908Y-73566438D01*
X129697804Y-73443738D01*
X129699226Y-73439358D01*
X129700058Y-73431983D01*
X129721975Y-73369345D01*
X129749464Y-73284746D01*
X129754831Y-73275449D01*
X129759225Y-73262893D01*
X129794413Y-73206890D01*
X129833053Y-73139965D01*
X129844347Y-73127421D01*
X129854535Y-73111208D01*
X129898826Y-73066916D01*
X129944917Y-73015728D01*
X129963559Y-73002183D01*
X129981208Y-72984535D01*
X130030354Y-72953654D01*
X130080162Y-72917467D01*
X130106873Y-72905574D01*
X130132893Y-72889225D01*
X130182877Y-72871734D01*
X130232889Y-72849468D01*
X130267592Y-72842091D01*
X130301983Y-72830058D01*
X130349281Y-72824728D01*
X130396412Y-72814711D01*
X130438189Y-72814711D01*
X130480000Y-72810000D01*
X130521811Y-72814711D01*
G37*
G36*
X145761811Y-72814711D02*
G01*
X145803588Y-72814711D01*
X145850718Y-72824728D01*
X145898017Y-72830058D01*
X145932408Y-72842092D01*
X145967110Y-72849468D01*
X146017117Y-72871733D01*
X146067107Y-72889225D01*
X146093128Y-72905575D01*
X146119835Y-72917466D01*
X146169633Y-72953646D01*
X146218792Y-72984535D01*
X146236444Y-73002187D01*
X146255084Y-73015730D01*
X146301165Y-73066908D01*
X146345465Y-73111208D01*
X146355654Y-73127424D01*
X146366946Y-73139965D01*
X146405573Y-73206870D01*
X146440775Y-73262893D01*
X146445170Y-73275453D01*
X146450535Y-73284746D01*
X146478010Y-73369305D01*
X146499942Y-73431983D01*
X146500773Y-73439363D01*
X146502195Y-73443738D01*
X146515076Y-73566306D01*
X146520000Y-73610000D01*
X146515076Y-73653697D01*
X146502195Y-73776261D01*
X146500773Y-73780635D01*
X146499942Y-73788017D01*
X146478005Y-73850707D01*
X146450535Y-73935253D01*
X146445171Y-73944543D01*
X146440775Y-73957107D01*
X146405566Y-74013140D01*
X146366946Y-74080034D01*
X146355656Y-74092572D01*
X146345465Y-74108792D01*
X146301155Y-74153101D01*
X146255084Y-74204269D01*
X146236448Y-74217808D01*
X146218792Y-74235465D01*
X146169623Y-74266359D01*
X146119835Y-74302533D01*
X146093134Y-74314421D01*
X146067107Y-74330775D01*
X146017107Y-74348270D01*
X145967110Y-74370531D01*
X145932414Y-74377905D01*
X145898017Y-74389942D01*
X145850715Y-74395271D01*
X145803588Y-74405289D01*
X145761811Y-74405289D01*
X145720000Y-74410000D01*
X145678189Y-74405289D01*
X145636412Y-74405289D01*
X145589284Y-74395271D01*
X145541983Y-74389942D01*
X145507586Y-74377906D01*
X145472889Y-74370531D01*
X145422887Y-74348268D01*
X145372893Y-74330775D01*
X145346868Y-74314422D01*
X145320164Y-74302533D01*
X145270369Y-74266355D01*
X145221208Y-74235465D01*
X145203554Y-74217811D01*
X145184915Y-74204269D01*
X145138833Y-74153090D01*
X145094535Y-74108792D01*
X145084345Y-74092575D01*
X145073053Y-74080034D01*
X145034420Y-74013120D01*
X144999225Y-73957107D01*
X144994830Y-73944547D01*
X144989464Y-73935253D01*
X144961980Y-73850667D01*
X144940058Y-73788017D01*
X144939226Y-73780639D01*
X144937804Y-73776261D01*
X144924908Y-73653565D01*
X144920000Y-73610000D01*
X144924908Y-73566438D01*
X144937804Y-73443738D01*
X144939226Y-73439358D01*
X144940058Y-73431983D01*
X144961975Y-73369345D01*
X144989464Y-73284746D01*
X144994831Y-73275449D01*
X144999225Y-73262893D01*
X145034413Y-73206890D01*
X145073053Y-73139965D01*
X145084347Y-73127421D01*
X145094535Y-73111208D01*
X145138826Y-73066916D01*
X145184917Y-73015728D01*
X145203559Y-73002183D01*
X145221208Y-72984535D01*
X145270354Y-72953654D01*
X145320162Y-72917467D01*
X145346873Y-72905574D01*
X145372893Y-72889225D01*
X145422877Y-72871734D01*
X145472889Y-72849468D01*
X145507592Y-72842091D01*
X145541983Y-72830058D01*
X145589281Y-72824728D01*
X145636412Y-72814711D01*
X145678189Y-72814711D01*
X145720000Y-72810000D01*
X145761811Y-72814711D01*
G37*
G36*
X113574900Y-74380000D02*
G01*
X111974900Y-74380000D01*
X111974900Y-72780000D01*
X113574900Y-72780000D01*
X113574900Y-74380000D01*
G37*
G36*
X114816711Y-72784711D02*
G01*
X114858488Y-72784711D01*
X114905618Y-72794728D01*
X114952917Y-72800058D01*
X114987308Y-72812092D01*
X115022010Y-72819468D01*
X115072017Y-72841733D01*
X115122007Y-72859225D01*
X115148028Y-72875575D01*
X115174735Y-72887466D01*
X115224533Y-72923646D01*
X115273692Y-72954535D01*
X115291344Y-72972187D01*
X115309984Y-72985730D01*
X115356065Y-73036908D01*
X115400365Y-73081208D01*
X115410554Y-73097424D01*
X115421846Y-73109965D01*
X115460473Y-73176870D01*
X115495675Y-73232893D01*
X115500070Y-73245453D01*
X115505435Y-73254746D01*
X115532910Y-73339305D01*
X115554842Y-73401983D01*
X115555673Y-73409363D01*
X115557095Y-73413738D01*
X115569976Y-73536306D01*
X115574900Y-73580000D01*
X115569976Y-73623697D01*
X115557095Y-73746261D01*
X115555673Y-73750635D01*
X115554842Y-73758017D01*
X115532905Y-73820707D01*
X115505435Y-73905253D01*
X115500071Y-73914543D01*
X115495675Y-73927107D01*
X115460466Y-73983140D01*
X115421846Y-74050034D01*
X115410556Y-74062572D01*
X115400365Y-74078792D01*
X115356055Y-74123101D01*
X115309984Y-74174269D01*
X115291348Y-74187808D01*
X115273692Y-74205465D01*
X115224523Y-74236359D01*
X115174735Y-74272533D01*
X115148034Y-74284421D01*
X115122007Y-74300775D01*
X115072007Y-74318270D01*
X115022010Y-74340531D01*
X114987314Y-74347905D01*
X114952917Y-74359942D01*
X114905615Y-74365271D01*
X114858488Y-74375289D01*
X114816711Y-74375289D01*
X114774900Y-74380000D01*
X114733089Y-74375289D01*
X114691312Y-74375289D01*
X114644184Y-74365271D01*
X114596883Y-74359942D01*
X114562486Y-74347906D01*
X114527789Y-74340531D01*
X114477787Y-74318268D01*
X114427793Y-74300775D01*
X114401768Y-74284422D01*
X114375064Y-74272533D01*
X114325269Y-74236355D01*
X114276108Y-74205465D01*
X114258454Y-74187811D01*
X114239815Y-74174269D01*
X114193733Y-74123090D01*
X114149435Y-74078792D01*
X114139245Y-74062575D01*
X114127953Y-74050034D01*
X114089320Y-73983120D01*
X114054125Y-73927107D01*
X114049730Y-73914547D01*
X114044364Y-73905253D01*
X114016880Y-73820667D01*
X113994958Y-73758017D01*
X113994126Y-73750639D01*
X113992704Y-73746261D01*
X113979808Y-73623565D01*
X113974900Y-73580000D01*
X113979808Y-73536438D01*
X113992704Y-73413738D01*
X113994126Y-73409358D01*
X113994958Y-73401983D01*
X114016875Y-73339345D01*
X114044364Y-73254746D01*
X114049731Y-73245449D01*
X114054125Y-73232893D01*
X114089313Y-73176890D01*
X114127953Y-73109965D01*
X114139247Y-73097421D01*
X114149435Y-73081208D01*
X114193726Y-73036916D01*
X114239817Y-72985728D01*
X114258459Y-72972183D01*
X114276108Y-72954535D01*
X114325254Y-72923654D01*
X114375062Y-72887467D01*
X114401773Y-72875574D01*
X114427793Y-72859225D01*
X114477777Y-72841734D01*
X114527789Y-72819468D01*
X114562492Y-72812091D01*
X114596883Y-72800058D01*
X114644181Y-72794728D01*
X114691312Y-72784711D01*
X114733089Y-72784711D01*
X114774900Y-72780000D01*
X114816711Y-72784711D01*
G37*
G36*
X130531811Y-68204711D02*
G01*
X130573588Y-68204711D01*
X130620718Y-68214728D01*
X130668017Y-68220058D01*
X130702408Y-68232092D01*
X130737110Y-68239468D01*
X130787117Y-68261733D01*
X130837107Y-68279225D01*
X130863128Y-68295575D01*
X130889835Y-68307466D01*
X130939633Y-68343646D01*
X130988792Y-68374535D01*
X131006444Y-68392187D01*
X131025084Y-68405730D01*
X131071165Y-68456908D01*
X131115465Y-68501208D01*
X131125654Y-68517424D01*
X131136946Y-68529965D01*
X131175573Y-68596870D01*
X131210775Y-68652893D01*
X131215170Y-68665453D01*
X131220535Y-68674746D01*
X131248010Y-68759305D01*
X131269942Y-68821983D01*
X131270773Y-68829363D01*
X131272195Y-68833738D01*
X131285076Y-68956306D01*
X131290000Y-69000000D01*
X131285076Y-69043697D01*
X131272195Y-69166261D01*
X131270773Y-69170635D01*
X131269942Y-69178017D01*
X131248005Y-69240707D01*
X131220535Y-69325253D01*
X131215171Y-69334543D01*
X131210775Y-69347107D01*
X131175566Y-69403140D01*
X131136946Y-69470034D01*
X131125656Y-69482572D01*
X131115465Y-69498792D01*
X131071155Y-69543101D01*
X131025084Y-69594269D01*
X131006448Y-69607808D01*
X130988792Y-69625465D01*
X130939623Y-69656359D01*
X130889835Y-69692533D01*
X130863134Y-69704421D01*
X130837107Y-69720775D01*
X130787107Y-69738270D01*
X130737110Y-69760531D01*
X130702414Y-69767905D01*
X130668017Y-69779942D01*
X130620715Y-69785271D01*
X130573588Y-69795289D01*
X130531811Y-69795289D01*
X130490000Y-69800000D01*
X130448189Y-69795289D01*
X130406412Y-69795289D01*
X130359284Y-69785271D01*
X130311983Y-69779942D01*
X130277586Y-69767906D01*
X130242889Y-69760531D01*
X130192887Y-69738268D01*
X130142893Y-69720775D01*
X130116868Y-69704422D01*
X130090164Y-69692533D01*
X130040369Y-69656355D01*
X129991208Y-69625465D01*
X129973554Y-69607811D01*
X129954915Y-69594269D01*
X129908833Y-69543090D01*
X129864535Y-69498792D01*
X129854345Y-69482575D01*
X129843053Y-69470034D01*
X129804420Y-69403120D01*
X129769225Y-69347107D01*
X129764830Y-69334547D01*
X129759464Y-69325253D01*
X129731980Y-69240667D01*
X129710058Y-69178017D01*
X129709226Y-69170639D01*
X129707804Y-69166261D01*
X129694908Y-69043565D01*
X129690000Y-69000000D01*
X129694908Y-68956438D01*
X129707804Y-68833738D01*
X129709226Y-68829358D01*
X129710058Y-68821983D01*
X129731975Y-68759345D01*
X129759464Y-68674746D01*
X129764831Y-68665449D01*
X129769225Y-68652893D01*
X129804413Y-68596890D01*
X129843053Y-68529965D01*
X129854347Y-68517421D01*
X129864535Y-68501208D01*
X129908826Y-68456916D01*
X129954917Y-68405728D01*
X129973559Y-68392183D01*
X129991208Y-68374535D01*
X130040354Y-68343654D01*
X130090162Y-68307467D01*
X130116873Y-68295574D01*
X130142893Y-68279225D01*
X130192877Y-68261734D01*
X130242889Y-68239468D01*
X130277592Y-68232091D01*
X130311983Y-68220058D01*
X130359281Y-68214728D01*
X130406412Y-68204711D01*
X130448189Y-68204711D01*
X130490000Y-68200000D01*
X130531811Y-68204711D01*
G37*
G36*
X145771811Y-68204711D02*
G01*
X145813588Y-68204711D01*
X145860718Y-68214728D01*
X145908017Y-68220058D01*
X145942408Y-68232092D01*
X145977110Y-68239468D01*
X146027117Y-68261733D01*
X146077107Y-68279225D01*
X146103128Y-68295575D01*
X146129835Y-68307466D01*
X146179633Y-68343646D01*
X146228792Y-68374535D01*
X146246444Y-68392187D01*
X146265084Y-68405730D01*
X146311165Y-68456908D01*
X146355465Y-68501208D01*
X146365654Y-68517424D01*
X146376946Y-68529965D01*
X146415573Y-68596870D01*
X146450775Y-68652893D01*
X146455170Y-68665453D01*
X146460535Y-68674746D01*
X146488010Y-68759305D01*
X146509942Y-68821983D01*
X146510773Y-68829363D01*
X146512195Y-68833738D01*
X146525076Y-68956306D01*
X146530000Y-69000000D01*
X146525076Y-69043697D01*
X146512195Y-69166261D01*
X146510773Y-69170635D01*
X146509942Y-69178017D01*
X146488005Y-69240707D01*
X146460535Y-69325253D01*
X146455171Y-69334543D01*
X146450775Y-69347107D01*
X146415566Y-69403140D01*
X146376946Y-69470034D01*
X146365656Y-69482572D01*
X146355465Y-69498792D01*
X146311155Y-69543101D01*
X146265084Y-69594269D01*
X146246448Y-69607808D01*
X146228792Y-69625465D01*
X146179623Y-69656359D01*
X146129835Y-69692533D01*
X146103134Y-69704421D01*
X146077107Y-69720775D01*
X146027107Y-69738270D01*
X145977110Y-69760531D01*
X145942414Y-69767905D01*
X145908017Y-69779942D01*
X145860715Y-69785271D01*
X145813588Y-69795289D01*
X145771811Y-69795289D01*
X145730000Y-69800000D01*
X145688189Y-69795289D01*
X145646412Y-69795289D01*
X145599284Y-69785271D01*
X145551983Y-69779942D01*
X145517586Y-69767906D01*
X145482889Y-69760531D01*
X145432887Y-69738268D01*
X145382893Y-69720775D01*
X145356868Y-69704422D01*
X145330164Y-69692533D01*
X145280369Y-69656355D01*
X145231208Y-69625465D01*
X145213554Y-69607811D01*
X145194915Y-69594269D01*
X145148833Y-69543090D01*
X145104535Y-69498792D01*
X145094345Y-69482575D01*
X145083053Y-69470034D01*
X145044420Y-69403120D01*
X145009225Y-69347107D01*
X145004830Y-69334547D01*
X144999464Y-69325253D01*
X144971980Y-69240667D01*
X144950058Y-69178017D01*
X144949226Y-69170639D01*
X144947804Y-69166261D01*
X144934908Y-69043565D01*
X144930000Y-69000000D01*
X144934908Y-68956438D01*
X144947804Y-68833738D01*
X144949226Y-68829358D01*
X144950058Y-68821983D01*
X144971975Y-68759345D01*
X144999464Y-68674746D01*
X145004831Y-68665449D01*
X145009225Y-68652893D01*
X145044413Y-68596890D01*
X145083053Y-68529965D01*
X145094347Y-68517421D01*
X145104535Y-68501208D01*
X145148826Y-68456916D01*
X145194917Y-68405728D01*
X145213559Y-68392183D01*
X145231208Y-68374535D01*
X145280354Y-68343654D01*
X145330162Y-68307467D01*
X145356873Y-68295574D01*
X145382893Y-68279225D01*
X145432877Y-68261734D01*
X145482889Y-68239468D01*
X145517592Y-68232091D01*
X145551983Y-68220058D01*
X145599281Y-68214728D01*
X145646412Y-68204711D01*
X145688189Y-68204711D01*
X145730000Y-68200000D01*
X145771811Y-68204711D01*
G37*
G36*
X144450000Y-64760000D02*
G01*
X142250000Y-64760000D01*
X142250000Y-62560000D01*
X144450000Y-62560000D01*
X144450000Y-64760000D01*
G37*
G36*
X133491029Y-62601992D02*
G01*
X133680312Y-62675320D01*
X133852898Y-62782181D01*
X134002910Y-62918935D01*
X134125239Y-63080925D01*
X134215719Y-63262634D01*
X134271270Y-63457876D01*
X134290000Y-63660000D01*
X134271270Y-63862124D01*
X134215719Y-64057366D01*
X134125239Y-64239075D01*
X134002910Y-64401065D01*
X133852898Y-64537819D01*
X133680312Y-64644680D01*
X133491029Y-64718008D01*
X133291495Y-64755308D01*
X133088505Y-64755308D01*
X132888971Y-64718008D01*
X132699688Y-64644680D01*
X132527102Y-64537819D01*
X132377090Y-64401065D01*
X132254761Y-64239075D01*
X132164281Y-64057366D01*
X132108730Y-63862124D01*
X132090000Y-63660000D01*
X132108730Y-63457876D01*
X132164281Y-63262634D01*
X132254761Y-63080925D01*
X132377090Y-62918935D01*
X132527102Y-62782181D01*
X132699688Y-62675320D01*
X132888971Y-62601992D01*
X133088505Y-62564692D01*
X133291495Y-62564692D01*
X133491029Y-62601992D01*
G37*
G36*
X122651811Y-62674711D02*
G01*
X122693588Y-62674711D01*
X122740718Y-62684728D01*
X122788017Y-62690058D01*
X122822408Y-62702092D01*
X122857110Y-62709468D01*
X122907117Y-62731733D01*
X122957107Y-62749225D01*
X122983128Y-62765575D01*
X123009835Y-62777466D01*
X123059633Y-62813646D01*
X123108792Y-62844535D01*
X123126444Y-62862187D01*
X123145084Y-62875730D01*
X123191165Y-62926908D01*
X123235465Y-62971208D01*
X123245654Y-62987424D01*
X123256946Y-62999965D01*
X123295573Y-63066870D01*
X123330775Y-63122893D01*
X123335170Y-63135453D01*
X123340535Y-63144746D01*
X123368010Y-63229305D01*
X123389942Y-63291983D01*
X123390773Y-63299363D01*
X123392195Y-63303738D01*
X123405076Y-63426306D01*
X123410000Y-63470000D01*
X123405076Y-63513697D01*
X123392195Y-63636261D01*
X123390773Y-63640635D01*
X123389942Y-63648017D01*
X123368005Y-63710707D01*
X123340535Y-63795253D01*
X123335171Y-63804543D01*
X123330775Y-63817107D01*
X123295566Y-63873140D01*
X123256946Y-63940034D01*
X123245656Y-63952572D01*
X123235465Y-63968792D01*
X123191155Y-64013101D01*
X123145084Y-64064269D01*
X123126448Y-64077808D01*
X123108792Y-64095465D01*
X123059623Y-64126359D01*
X123009835Y-64162533D01*
X122983134Y-64174421D01*
X122957107Y-64190775D01*
X122907107Y-64208270D01*
X122857110Y-64230531D01*
X122822414Y-64237905D01*
X122788017Y-64249942D01*
X122740715Y-64255271D01*
X122693588Y-64265289D01*
X122651811Y-64265289D01*
X122610000Y-64270000D01*
X122568189Y-64265289D01*
X122526412Y-64265289D01*
X122479284Y-64255271D01*
X122431983Y-64249942D01*
X122397586Y-64237906D01*
X122362889Y-64230531D01*
X122312887Y-64208268D01*
X122262893Y-64190775D01*
X122236868Y-64174422D01*
X122210164Y-64162533D01*
X122160369Y-64126355D01*
X122111208Y-64095465D01*
X122093554Y-64077811D01*
X122074915Y-64064269D01*
X122028833Y-64013090D01*
X121984535Y-63968792D01*
X121974345Y-63952575D01*
X121963053Y-63940034D01*
X121924420Y-63873120D01*
X121889225Y-63817107D01*
X121884830Y-63804547D01*
X121879464Y-63795253D01*
X121851980Y-63710667D01*
X121830058Y-63648017D01*
X121829226Y-63640639D01*
X121827804Y-63636261D01*
X121814908Y-63513565D01*
X121810000Y-63470000D01*
X121814908Y-63426438D01*
X121827804Y-63303738D01*
X121829226Y-63299358D01*
X121830058Y-63291983D01*
X121851975Y-63229345D01*
X121879464Y-63144746D01*
X121884831Y-63135449D01*
X121889225Y-63122893D01*
X121924413Y-63066890D01*
X121963053Y-62999965D01*
X121974347Y-62987421D01*
X121984535Y-62971208D01*
X122028826Y-62926916D01*
X122074917Y-62875728D01*
X122093559Y-62862183D01*
X122111208Y-62844535D01*
X122160354Y-62813654D01*
X122210162Y-62777467D01*
X122236873Y-62765574D01*
X122262893Y-62749225D01*
X122312877Y-62731734D01*
X122362889Y-62709468D01*
X122397592Y-62702091D01*
X122431983Y-62690058D01*
X122479281Y-62684728D01*
X122526412Y-62674711D01*
X122568189Y-62674711D01*
X122610000Y-62670000D01*
X122651811Y-62674711D01*
G37*
G36*
X127651811Y-62674711D02*
G01*
X127693588Y-62674711D01*
X127740718Y-62684728D01*
X127788017Y-62690058D01*
X127822408Y-62702092D01*
X127857110Y-62709468D01*
X127907117Y-62731733D01*
X127957107Y-62749225D01*
X127983128Y-62765575D01*
X128009835Y-62777466D01*
X128059633Y-62813646D01*
X128108792Y-62844535D01*
X128126444Y-62862187D01*
X128145084Y-62875730D01*
X128191165Y-62926908D01*
X128235465Y-62971208D01*
X128245654Y-62987424D01*
X128256946Y-62999965D01*
X128295573Y-63066870D01*
X128330775Y-63122893D01*
X128335170Y-63135453D01*
X128340535Y-63144746D01*
X128368010Y-63229305D01*
X128389942Y-63291983D01*
X128390773Y-63299363D01*
X128392195Y-63303738D01*
X128405076Y-63426306D01*
X128410000Y-63470000D01*
X128405076Y-63513697D01*
X128392195Y-63636261D01*
X128390773Y-63640635D01*
X128389942Y-63648017D01*
X128368005Y-63710707D01*
X128340535Y-63795253D01*
X128335171Y-63804543D01*
X128330775Y-63817107D01*
X128295566Y-63873140D01*
X128256946Y-63940034D01*
X128245656Y-63952572D01*
X128235465Y-63968792D01*
X128191155Y-64013101D01*
X128145084Y-64064269D01*
X128126448Y-64077808D01*
X128108792Y-64095465D01*
X128059623Y-64126359D01*
X128009835Y-64162533D01*
X127983134Y-64174421D01*
X127957107Y-64190775D01*
X127907107Y-64208270D01*
X127857110Y-64230531D01*
X127822414Y-64237905D01*
X127788017Y-64249942D01*
X127740715Y-64255271D01*
X127693588Y-64265289D01*
X127651811Y-64265289D01*
X127610000Y-64270000D01*
X127568189Y-64265289D01*
X127526412Y-64265289D01*
X127479284Y-64255271D01*
X127431983Y-64249942D01*
X127397586Y-64237906D01*
X127362889Y-64230531D01*
X127312887Y-64208268D01*
X127262893Y-64190775D01*
X127236868Y-64174422D01*
X127210164Y-64162533D01*
X127160369Y-64126355D01*
X127111208Y-64095465D01*
X127093554Y-64077811D01*
X127074915Y-64064269D01*
X127028833Y-64013090D01*
X126984535Y-63968792D01*
X126974345Y-63952575D01*
X126963053Y-63940034D01*
X126924420Y-63873120D01*
X126889225Y-63817107D01*
X126884830Y-63804547D01*
X126879464Y-63795253D01*
X126851980Y-63710667D01*
X126830058Y-63648017D01*
X126829226Y-63640639D01*
X126827804Y-63636261D01*
X126814908Y-63513565D01*
X126810000Y-63470000D01*
X126814908Y-63426438D01*
X126827804Y-63303738D01*
X126829226Y-63299358D01*
X126830058Y-63291983D01*
X126851975Y-63229345D01*
X126879464Y-63144746D01*
X126884831Y-63135449D01*
X126889225Y-63122893D01*
X126924413Y-63066890D01*
X126963053Y-62999965D01*
X126974347Y-62987421D01*
X126984535Y-62971208D01*
X127028826Y-62926916D01*
X127074917Y-62875728D01*
X127093559Y-62862183D01*
X127111208Y-62844535D01*
X127160354Y-62813654D01*
X127210162Y-62777467D01*
X127236873Y-62765574D01*
X127262893Y-62749225D01*
X127312877Y-62731734D01*
X127362889Y-62709468D01*
X127397592Y-62702091D01*
X127431983Y-62690058D01*
X127479281Y-62684728D01*
X127526412Y-62674711D01*
X127568189Y-62674711D01*
X127610000Y-62670000D01*
X127651811Y-62674711D01*
G37*
G36*
X117092500Y-63910000D02*
G01*
X115187500Y-63910000D01*
X115187500Y-61910000D01*
X117092500Y-61910000D01*
X117092500Y-63910000D01*
G37*
G36*
X111336496Y-61951014D02*
G01*
X111509005Y-62022470D01*
X111664260Y-62126208D01*
X111796292Y-62258240D01*
X111900030Y-62413495D01*
X111971486Y-62586004D01*
X112007913Y-62769139D01*
X112012500Y-62957500D01*
X112007913Y-63050861D01*
X111971486Y-63233996D01*
X111900030Y-63406505D01*
X111796292Y-63561760D01*
X111664260Y-63693792D01*
X111509005Y-63797530D01*
X111336496Y-63868986D01*
X111153361Y-63905413D01*
X110966639Y-63905413D01*
X110783504Y-63868986D01*
X110610995Y-63797530D01*
X110455740Y-63693792D01*
X110323708Y-63561760D01*
X110219970Y-63406505D01*
X110148514Y-63233996D01*
X110112087Y-63050861D01*
X110107500Y-62862500D01*
X110112087Y-62769139D01*
X110148514Y-62586004D01*
X110219970Y-62413495D01*
X110323708Y-62258240D01*
X110455740Y-62126208D01*
X110610995Y-62022470D01*
X110783504Y-61951014D01*
X110966639Y-61914587D01*
X111153361Y-61914587D01*
X111336496Y-61951014D01*
G37*
G36*
X113876496Y-61951014D02*
G01*
X114049005Y-62022470D01*
X114204260Y-62126208D01*
X114336292Y-62258240D01*
X114440030Y-62413495D01*
X114511486Y-62586004D01*
X114547913Y-62769139D01*
X114552500Y-62957500D01*
X114547913Y-63050861D01*
X114511486Y-63233996D01*
X114440030Y-63406505D01*
X114336292Y-63561760D01*
X114204260Y-63693792D01*
X114049005Y-63797530D01*
X113876496Y-63868986D01*
X113693361Y-63905413D01*
X113506639Y-63905413D01*
X113323504Y-63868986D01*
X113150995Y-63797530D01*
X112995740Y-63693792D01*
X112863708Y-63561760D01*
X112759970Y-63406505D01*
X112688514Y-63233996D01*
X112652087Y-63050861D01*
X112647500Y-62862500D01*
X112652087Y-62769139D01*
X112688514Y-62586004D01*
X112759970Y-62413495D01*
X112863708Y-62258240D01*
X112995740Y-62126208D01*
X113150995Y-62022470D01*
X113323504Y-61951014D01*
X113506639Y-61914587D01*
X113693361Y-61914587D01*
X113876496Y-61951014D01*
G37*
G36*
X134230000Y-59640000D02*
G01*
X132030000Y-59640000D01*
X132030000Y-57440000D01*
X134230000Y-57440000D01*
X134230000Y-59640000D01*
G37*
G36*
X143591029Y-57481992D02*
G01*
X143780312Y-57555320D01*
X143952898Y-57662181D01*
X144102910Y-57798935D01*
X144225239Y-57960925D01*
X144315719Y-58142634D01*
X144371270Y-58337876D01*
X144390000Y-58540000D01*
X144371270Y-58742124D01*
X144315719Y-58937366D01*
X144225239Y-59119075D01*
X144102910Y-59281065D01*
X143952898Y-59417819D01*
X143780312Y-59524680D01*
X143591029Y-59598008D01*
X143391495Y-59635308D01*
X143188505Y-59635308D01*
X142988971Y-59598008D01*
X142799688Y-59524680D01*
X142627102Y-59417819D01*
X142477090Y-59281065D01*
X142354761Y-59119075D01*
X142264281Y-58937366D01*
X142208730Y-58742124D01*
X142190000Y-58540000D01*
X142208730Y-58337876D01*
X142264281Y-58142634D01*
X142354761Y-57960925D01*
X142477090Y-57798935D01*
X142627102Y-57662181D01*
X142799688Y-57555320D01*
X142988971Y-57481992D01*
X143188505Y-57444692D01*
X143391495Y-57444692D01*
X143591029Y-57481992D01*
G37*
G36*
X125600000Y-56460000D02*
G01*
X123900000Y-56460000D01*
X123900000Y-54760000D01*
X125600000Y-54760000D01*
X125600000Y-56460000D01*
G37*
G36*
X112850000Y-56195000D02*
G01*
X111150000Y-56195000D01*
X111150000Y-54495000D01*
X112850000Y-54495000D01*
X112850000Y-56195000D01*
G37*
G36*
X114802664Y-54536602D02*
G01*
X114965000Y-54608878D01*
X115108761Y-54713327D01*
X115227664Y-54845383D01*
X115316514Y-54999274D01*
X115371425Y-55168275D01*
X115390000Y-55345000D01*
X115371425Y-55521725D01*
X115316514Y-55690726D01*
X115227664Y-55844617D01*
X115108761Y-55976673D01*
X114965000Y-56081122D01*
X114802664Y-56153398D01*
X114628849Y-56190344D01*
X114451151Y-56190344D01*
X114277336Y-56153398D01*
X114115000Y-56081122D01*
X113971239Y-55976673D01*
X113852336Y-55844617D01*
X113763486Y-55690726D01*
X113708575Y-55521725D01*
X113690000Y-55345000D01*
X113708575Y-55168275D01*
X113763486Y-54999274D01*
X113852336Y-54845383D01*
X113971239Y-54713327D01*
X114115000Y-54608878D01*
X114277336Y-54536602D01*
X114451151Y-54499656D01*
X114628849Y-54499656D01*
X114802664Y-54536602D01*
G37*
G36*
X95420295Y-46279699D02*
G01*
X95664427Y-46338310D01*
X95896385Y-46434390D01*
X96110456Y-46565573D01*
X96301371Y-46728629D01*
X96464427Y-46919544D01*
X96595610Y-47133615D01*
X96691690Y-47365573D01*
X96750301Y-47609705D01*
X96770000Y-47860000D01*
X96750301Y-48110295D01*
X96691690Y-48354427D01*
X96595610Y-48586385D01*
X96464427Y-48800456D01*
X96301371Y-48991371D01*
X96110456Y-49154427D01*
X95896385Y-49285610D01*
X95664427Y-49381690D01*
X95420295Y-49440301D01*
X95170000Y-49460000D01*
X94919705Y-49440301D01*
X94675573Y-49381690D01*
X94443615Y-49285610D01*
X94229544Y-49154427D01*
X94038629Y-48991371D01*
X93875573Y-48800456D01*
X93744390Y-48586385D01*
X93648310Y-48354427D01*
X93589699Y-48110295D01*
X93570000Y-47860000D01*
X93589699Y-47609705D01*
X93648310Y-47365573D01*
X93744390Y-47133615D01*
X93875573Y-46919544D01*
X94038629Y-46728629D01*
X94229544Y-46565573D01*
X94443615Y-46434390D01*
X94675573Y-46338310D01*
X94919705Y-46279699D01*
X95170000Y-46260000D01*
X95420295Y-46279699D01*
G37*
G36*
X125560000Y-48710000D02*
G01*
X123860000Y-48710000D01*
X123860000Y-47010000D01*
X125560000Y-47010000D01*
X125560000Y-48710000D01*
G37*
G36*
X112272664Y-47051602D02*
G01*
X112435000Y-47123878D01*
X112578761Y-47228327D01*
X112697664Y-47360383D01*
X112786514Y-47514274D01*
X112841425Y-47683275D01*
X112860000Y-47860000D01*
X112841425Y-48036725D01*
X112786514Y-48205726D01*
X112697664Y-48359617D01*
X112578761Y-48491673D01*
X112435000Y-48596122D01*
X112272664Y-48668398D01*
X112098849Y-48705344D01*
X111921151Y-48705344D01*
X111747336Y-48668398D01*
X111585000Y-48596122D01*
X111441239Y-48491673D01*
X111322336Y-48359617D01*
X111233486Y-48205726D01*
X111178575Y-48036725D01*
X111160000Y-47860000D01*
X111178575Y-47683275D01*
X111233486Y-47514274D01*
X111322336Y-47360383D01*
X111441239Y-47228327D01*
X111585000Y-47123878D01*
X111747336Y-47051602D01*
X111921151Y-47014656D01*
X112098849Y-47014656D01*
X112272664Y-47051602D01*
G37*
G36*
X114812664Y-47051602D02*
G01*
X114975000Y-47123878D01*
X115118761Y-47228327D01*
X115237664Y-47360383D01*
X115326514Y-47514274D01*
X115381425Y-47683275D01*
X115400000Y-47860000D01*
X115381425Y-48036725D01*
X115326514Y-48205726D01*
X115237664Y-48359617D01*
X115118761Y-48491673D01*
X114975000Y-48596122D01*
X114812664Y-48668398D01*
X114638849Y-48705344D01*
X114461151Y-48705344D01*
X114287336Y-48668398D01*
X114125000Y-48596122D01*
X113981239Y-48491673D01*
X113862336Y-48359617D01*
X113773486Y-48205726D01*
X113718575Y-48036725D01*
X113700000Y-47860000D01*
X113718575Y-47683275D01*
X113773486Y-47514274D01*
X113862336Y-47360383D01*
X113981239Y-47228327D01*
X114125000Y-47123878D01*
X114287336Y-47051602D01*
X114461151Y-47014656D01*
X114638849Y-47014656D01*
X114812664Y-47051602D01*
G37*
G36*
X117352664Y-47051602D02*
G01*
X117515000Y-47123878D01*
X117658761Y-47228327D01*
X117777664Y-47360383D01*
X117866514Y-47514274D01*
X117921425Y-47683275D01*
X117940000Y-47860000D01*
X117921425Y-48036725D01*
X117866514Y-48205726D01*
X117777664Y-48359617D01*
X117658761Y-48491673D01*
X117515000Y-48596122D01*
X117352664Y-48668398D01*
X117178849Y-48705344D01*
X117001151Y-48705344D01*
X116827336Y-48668398D01*
X116665000Y-48596122D01*
X116521239Y-48491673D01*
X116402336Y-48359617D01*
X116313486Y-48205726D01*
X116258575Y-48036725D01*
X116240000Y-47860000D01*
X116258575Y-47683275D01*
X116313486Y-47514274D01*
X116402336Y-47360383D01*
X116521239Y-47228327D01*
X116665000Y-47123878D01*
X116827336Y-47051602D01*
X117001151Y-47014656D01*
X117178849Y-47014656D01*
X117352664Y-47051602D01*
G37*
G36*
X119892664Y-47051602D02*
G01*
X120055000Y-47123878D01*
X120198761Y-47228327D01*
X120317664Y-47360383D01*
X120406514Y-47514274D01*
X120461425Y-47683275D01*
X120480000Y-47860000D01*
X120461425Y-48036725D01*
X120406514Y-48205726D01*
X120317664Y-48359617D01*
X120198761Y-48491673D01*
X120055000Y-48596122D01*
X119892664Y-48668398D01*
X119718849Y-48705344D01*
X119541151Y-48705344D01*
X119367336Y-48668398D01*
X119205000Y-48596122D01*
X119061239Y-48491673D01*
X118942336Y-48359617D01*
X118853486Y-48205726D01*
X118798575Y-48036725D01*
X118780000Y-47860000D01*
X118798575Y-47683275D01*
X118853486Y-47514274D01*
X118942336Y-47360383D01*
X119061239Y-47228327D01*
X119205000Y-47123878D01*
X119367336Y-47051602D01*
X119541151Y-47014656D01*
X119718849Y-47014656D01*
X119892664Y-47051602D01*
G37*
G36*
X122432664Y-47051602D02*
G01*
X122595000Y-47123878D01*
X122738761Y-47228327D01*
X122857664Y-47360383D01*
X122946514Y-47514274D01*
X123001425Y-47683275D01*
X123020000Y-47860000D01*
X123001425Y-48036725D01*
X122946514Y-48205726D01*
X122857664Y-48359617D01*
X122738761Y-48491673D01*
X122595000Y-48596122D01*
X122432664Y-48668398D01*
X122258849Y-48705344D01*
X122081151Y-48705344D01*
X121907336Y-48668398D01*
X121745000Y-48596122D01*
X121601239Y-48491673D01*
X121482336Y-48359617D01*
X121393486Y-48205726D01*
X121338575Y-48036725D01*
X121320000Y-47860000D01*
X121338575Y-47683275D01*
X121393486Y-47514274D01*
X121482336Y-47360383D01*
X121601239Y-47228327D01*
X121745000Y-47123878D01*
X121907336Y-47051602D01*
X122081151Y-47014656D01*
X122258849Y-47014656D01*
X122432664Y-47051602D01*
G37*
G36*
X181160295Y-43749699D02*
G01*
X181404427Y-43808310D01*
X181636385Y-43904390D01*
X181850456Y-44035573D01*
X182041371Y-44198629D01*
X182204427Y-44389544D01*
X182335610Y-44603615D01*
X182431690Y-44835573D01*
X182490301Y-45079705D01*
X182510000Y-45330000D01*
X182490301Y-45580295D01*
X182431690Y-45824427D01*
X182335610Y-46056385D01*
X182204427Y-46270456D01*
X182041371Y-46461371D01*
X181850456Y-46624427D01*
X181636385Y-46755610D01*
X181404427Y-46851690D01*
X181160295Y-46910301D01*
X180910000Y-46930000D01*
X180659705Y-46910301D01*
X180415573Y-46851690D01*
X180183615Y-46755610D01*
X179969544Y-46624427D01*
X179778629Y-46461371D01*
X179615573Y-46270456D01*
X179484390Y-46056385D01*
X179388310Y-45824427D01*
X179329699Y-45580295D01*
X179310000Y-45330000D01*
X179329699Y-45079705D01*
X179388310Y-44835573D01*
X179484390Y-44603615D01*
X179615573Y-44389544D01*
X179778629Y-44198629D01*
X179969544Y-44035573D01*
X180183615Y-43904390D01*
X180415573Y-43808310D01*
X180659705Y-43749699D01*
X180910000Y-43730000D01*
X181160295Y-43749699D01*
G37*
M02*
