%TF.GenerationSoftware,KiCad,Pcbnew,8.0.3*%
%TF.CreationDate,2024-06-12T05:51:10+01:00*%
%TF.ProjectId,meiaonda,6d656961-6f6e-4646-912e-6b696361645f,rev?*%
%TF.SameCoordinates,Original*%
%TF.FileFunction,Drillmap*%
%TF.FilePolarity,Positive*%
%FSLAX45Y45*%
G04 Gerber Fmt 4.5, Leading zero omitted, Abs format (unit mm)*
G04 Created by KiCad (PCBNEW 8.0.3) date 2024-06-12 05:51:10*
%MOMM*%
%LPD*%
G01*
G04 APERTURE LIST*
%ADD10C,0.050000*%
%ADD11C,0.200000*%
%ADD12C,0.100000*%
%ADD13C,0.110000*%
%ADD14C,0.150000*%
G04 APERTURE END LIST*
D10*
X8034000Y-3989000D02*
X17632000Y-3989000D01*
X17632000Y-13044000D01*
X8034000Y-13044000D01*
X8034000Y-3989000D01*
D11*
D12*
X12220360Y-9835170D02*
X12250360Y-9865170D01*
X12250360Y-9835170D02*
X12220360Y-9865170D01*
X13527350Y-11043590D02*
X13557350Y-11073590D01*
X13557350Y-11043590D02*
X13527350Y-11073590D01*
X9184100Y-8882000D02*
G75*
G02*
X9107900Y-8882000I-38100J0D01*
G01*
X9107900Y-8882000D02*
G75*
G02*
X9184100Y-8882000I38100J0D01*
G01*
X9184100Y-9136000D02*
G75*
G02*
X9107900Y-9136000I-38100J0D01*
G01*
X9107900Y-9136000D02*
G75*
G02*
X9184100Y-9136000I38100J0D01*
G01*
X9184100Y-10152000D02*
G75*
G02*
X9107900Y-10152000I-38100J0D01*
G01*
X9107900Y-10152000D02*
G75*
G02*
X9184100Y-10152000I38100J0D01*
G01*
X9184100Y-10406000D02*
G75*
G02*
X9107900Y-10406000I-38100J0D01*
G01*
X9107900Y-10406000D02*
G75*
G02*
X9184100Y-10406000I38100J0D01*
G01*
X9613940Y-11148000D02*
G75*
G02*
X9537740Y-11148000I-38100J0D01*
G01*
X9537740Y-11148000D02*
G75*
G02*
X9613940Y-11148000I38100J0D01*
G01*
X9613940Y-11656000D02*
G75*
G02*
X9537740Y-11656000I-38100J0D01*
G01*
X9537740Y-11656000D02*
G75*
G02*
X9613940Y-11656000I38100J0D01*
G01*
X9613940Y-12164000D02*
G75*
G02*
X9537740Y-12164000I-38100J0D01*
G01*
X9537740Y-12164000D02*
G75*
G02*
X9613940Y-12164000I38100J0D01*
G01*
X9613940Y-12672000D02*
G75*
G02*
X9537740Y-12672000I-38100J0D01*
G01*
X9537740Y-12672000D02*
G75*
G02*
X9613940Y-12672000I38100J0D01*
G01*
X9946100Y-8882000D02*
G75*
G02*
X9869900Y-8882000I-38100J0D01*
G01*
X9869900Y-8882000D02*
G75*
G02*
X9946100Y-8882000I38100J0D01*
G01*
X9946100Y-9136000D02*
G75*
G02*
X9869900Y-9136000I-38100J0D01*
G01*
X9869900Y-9136000D02*
G75*
G02*
X9946100Y-9136000I38100J0D01*
G01*
X9946100Y-10152000D02*
G75*
G02*
X9869900Y-10152000I-38100J0D01*
G01*
X9869900Y-10152000D02*
G75*
G02*
X9946100Y-10152000I38100J0D01*
G01*
X9946100Y-10406000D02*
G75*
G02*
X9869900Y-10406000I-38100J0D01*
G01*
X9869900Y-10406000D02*
G75*
G02*
X9946100Y-10406000I38100J0D01*
G01*
X10287980Y-11148000D02*
G75*
G02*
X10211780Y-11148000I-38100J0D01*
G01*
X10211780Y-11148000D02*
G75*
G02*
X10287980Y-11148000I38100J0D01*
G01*
X10287980Y-11656000D02*
G75*
G02*
X10211780Y-11656000I-38100J0D01*
G01*
X10211780Y-11656000D02*
G75*
G02*
X10287980Y-11656000I38100J0D01*
G01*
X10287980Y-12164000D02*
G75*
G02*
X10211780Y-12164000I-38100J0D01*
G01*
X10211780Y-12164000D02*
G75*
G02*
X10287980Y-12164000I38100J0D01*
G01*
X10287980Y-12672000D02*
G75*
G02*
X10211780Y-12672000I-38100J0D01*
G01*
X10211780Y-12672000D02*
G75*
G02*
X10287980Y-12672000I38100J0D01*
G01*
X10375100Y-8887000D02*
G75*
G02*
X10298900Y-8887000I-38100J0D01*
G01*
X10298900Y-8887000D02*
G75*
G02*
X10375100Y-8887000I38100J0D01*
G01*
X10375100Y-9141000D02*
G75*
G02*
X10298900Y-9141000I-38100J0D01*
G01*
X10298900Y-9141000D02*
G75*
G02*
X10375100Y-9141000I38100J0D01*
G01*
X10375100Y-10157000D02*
G75*
G02*
X10298900Y-10157000I-38100J0D01*
G01*
X10298900Y-10157000D02*
G75*
G02*
X10375100Y-10157000I38100J0D01*
G01*
X10375100Y-10411000D02*
G75*
G02*
X10298900Y-10411000I-38100J0D01*
G01*
X10298900Y-10411000D02*
G75*
G02*
X10375100Y-10411000I38100J0D01*
G01*
X10962020Y-11148000D02*
G75*
G02*
X10885820Y-11148000I-38100J0D01*
G01*
X10885820Y-11148000D02*
G75*
G02*
X10962020Y-11148000I38100J0D01*
G01*
X10962020Y-11656000D02*
G75*
G02*
X10885820Y-11656000I-38100J0D01*
G01*
X10885820Y-11656000D02*
G75*
G02*
X10962020Y-11656000I38100J0D01*
G01*
X10962020Y-12164000D02*
G75*
G02*
X10885820Y-12164000I-38100J0D01*
G01*
X10885820Y-12164000D02*
G75*
G02*
X10962020Y-12164000I38100J0D01*
G01*
X10962020Y-12672000D02*
G75*
G02*
X10885820Y-12672000I-38100J0D01*
G01*
X10885820Y-12672000D02*
G75*
G02*
X10962020Y-12672000I38100J0D01*
G01*
X11137100Y-8887000D02*
G75*
G02*
X11060900Y-8887000I-38100J0D01*
G01*
X11060900Y-8887000D02*
G75*
G02*
X11137100Y-8887000I38100J0D01*
G01*
X11137100Y-9141000D02*
G75*
G02*
X11060900Y-9141000I-38100J0D01*
G01*
X11060900Y-9141000D02*
G75*
G02*
X11137100Y-9141000I38100J0D01*
G01*
X11137100Y-10157000D02*
G75*
G02*
X11060900Y-10157000I-38100J0D01*
G01*
X11060900Y-10157000D02*
G75*
G02*
X11137100Y-10157000I38100J0D01*
G01*
X11137100Y-10411000D02*
G75*
G02*
X11060900Y-10411000I-38100J0D01*
G01*
X11060900Y-10411000D02*
G75*
G02*
X11137100Y-10411000I38100J0D01*
G01*
X11636060Y-11148000D02*
G75*
G02*
X11559860Y-11148000I-38100J0D01*
G01*
X11559860Y-11148000D02*
G75*
G02*
X11636060Y-11148000I38100J0D01*
G01*
X11636060Y-11656000D02*
G75*
G02*
X11559860Y-11656000I-38100J0D01*
G01*
X11559860Y-11656000D02*
G75*
G02*
X11636060Y-11656000I38100J0D01*
G01*
X11636060Y-12164000D02*
G75*
G02*
X11559860Y-12164000I-38100J0D01*
G01*
X11559860Y-12164000D02*
G75*
G02*
X11636060Y-12164000I38100J0D01*
G01*
X11636060Y-12672000D02*
G75*
G02*
X11559860Y-12672000I-38100J0D01*
G01*
X11559860Y-12672000D02*
G75*
G02*
X11636060Y-12672000I38100J0D01*
G01*
X11656100Y-8890000D02*
G75*
G02*
X11579900Y-8890000I-38100J0D01*
G01*
X11579900Y-8890000D02*
G75*
G02*
X11656100Y-8890000I38100J0D01*
G01*
X11656100Y-9144000D02*
G75*
G02*
X11579900Y-9144000I-38100J0D01*
G01*
X11579900Y-9144000D02*
G75*
G02*
X11656100Y-9144000I38100J0D01*
G01*
X11656100Y-10160000D02*
G75*
G02*
X11579900Y-10160000I-38100J0D01*
G01*
X11579900Y-10160000D02*
G75*
G02*
X11656100Y-10160000I38100J0D01*
G01*
X11656100Y-10414000D02*
G75*
G02*
X11579900Y-10414000I-38100J0D01*
G01*
X11579900Y-10414000D02*
G75*
G02*
X11656100Y-10414000I38100J0D01*
G01*
X12310100Y-11148000D02*
G75*
G02*
X12233900Y-11148000I-38100J0D01*
G01*
X12233900Y-11148000D02*
G75*
G02*
X12310100Y-11148000I38100J0D01*
G01*
X12310100Y-11656000D02*
G75*
G02*
X12233900Y-11656000I-38100J0D01*
G01*
X12233900Y-11656000D02*
G75*
G02*
X12310100Y-11656000I38100J0D01*
G01*
X12310100Y-12164000D02*
G75*
G02*
X12233900Y-12164000I-38100J0D01*
G01*
X12233900Y-12164000D02*
G75*
G02*
X12310100Y-12164000I38100J0D01*
G01*
X12310100Y-12672000D02*
G75*
G02*
X12233900Y-12672000I-38100J0D01*
G01*
X12233900Y-12672000D02*
G75*
G02*
X12310100Y-12672000I38100J0D01*
G01*
X12418100Y-8890000D02*
G75*
G02*
X12341900Y-8890000I-38100J0D01*
G01*
X12341900Y-8890000D02*
G75*
G02*
X12418100Y-8890000I38100J0D01*
G01*
X12418100Y-9144000D02*
G75*
G02*
X12341900Y-9144000I-38100J0D01*
G01*
X12341900Y-9144000D02*
G75*
G02*
X12418100Y-9144000I38100J0D01*
G01*
X12418100Y-10160000D02*
G75*
G02*
X12341900Y-10160000I-38100J0D01*
G01*
X12341900Y-10160000D02*
G75*
G02*
X12418100Y-10160000I38100J0D01*
G01*
X12418100Y-10414000D02*
G75*
G02*
X12341900Y-10414000I-38100J0D01*
G01*
X12341900Y-10414000D02*
G75*
G02*
X12418100Y-10414000I38100J0D01*
G01*
X12914100Y-8890000D02*
G75*
G02*
X12837900Y-8890000I-38100J0D01*
G01*
X12837900Y-8890000D02*
G75*
G02*
X12914100Y-8890000I38100J0D01*
G01*
X12914100Y-9144000D02*
G75*
G02*
X12837900Y-9144000I-38100J0D01*
G01*
X12837900Y-9144000D02*
G75*
G02*
X12914100Y-9144000I38100J0D01*
G01*
X12914100Y-10160000D02*
G75*
G02*
X12837900Y-10160000I-38100J0D01*
G01*
X12837900Y-10160000D02*
G75*
G02*
X12914100Y-10160000I38100J0D01*
G01*
X12914100Y-10414000D02*
G75*
G02*
X12837900Y-10414000I-38100J0D01*
G01*
X12837900Y-10414000D02*
G75*
G02*
X12914100Y-10414000I38100J0D01*
G01*
X13676100Y-8890000D02*
G75*
G02*
X13599900Y-8890000I-38100J0D01*
G01*
X13599900Y-8890000D02*
G75*
G02*
X13676100Y-8890000I38100J0D01*
G01*
X13676100Y-9144000D02*
G75*
G02*
X13599900Y-9144000I-38100J0D01*
G01*
X13599900Y-9144000D02*
G75*
G02*
X13676100Y-9144000I38100J0D01*
G01*
X13676100Y-10160000D02*
G75*
G02*
X13599900Y-10160000I-38100J0D01*
G01*
X13599900Y-10160000D02*
G75*
G02*
X13676100Y-10160000I38100J0D01*
G01*
X13676100Y-10414000D02*
G75*
G02*
X13599900Y-10414000I-38100J0D01*
G01*
X13599900Y-10414000D02*
G75*
G02*
X13676100Y-10414000I38100J0D01*
G01*
X14206100Y-8890000D02*
G75*
G02*
X14129900Y-8890000I-38100J0D01*
G01*
X14129900Y-8890000D02*
G75*
G02*
X14206100Y-8890000I38100J0D01*
G01*
X14206100Y-9144000D02*
G75*
G02*
X14129900Y-9144000I-38100J0D01*
G01*
X14129900Y-9144000D02*
G75*
G02*
X14206100Y-9144000I38100J0D01*
G01*
X14206100Y-10160000D02*
G75*
G02*
X14129900Y-10160000I-38100J0D01*
G01*
X14129900Y-10160000D02*
G75*
G02*
X14206100Y-10160000I38100J0D01*
G01*
X14206100Y-10414000D02*
G75*
G02*
X14129900Y-10414000I-38100J0D01*
G01*
X14129900Y-10414000D02*
G75*
G02*
X14206100Y-10414000I38100J0D01*
G01*
X14968100Y-8890000D02*
G75*
G02*
X14891900Y-8890000I-38100J0D01*
G01*
X14891900Y-8890000D02*
G75*
G02*
X14968100Y-8890000I38100J0D01*
G01*
X14968100Y-9144000D02*
G75*
G02*
X14891900Y-9144000I-38100J0D01*
G01*
X14891900Y-9144000D02*
G75*
G02*
X14968100Y-9144000I38100J0D01*
G01*
X14968100Y-10160000D02*
G75*
G02*
X14891900Y-10160000I-38100J0D01*
G01*
X14891900Y-10160000D02*
G75*
G02*
X14968100Y-10160000I38100J0D01*
G01*
X14968100Y-10414000D02*
G75*
G02*
X14891900Y-10414000I-38100J0D01*
G01*
X14891900Y-10414000D02*
G75*
G02*
X14968100Y-10414000I38100J0D01*
G01*
X15228100Y-6047000D02*
G75*
G02*
X15151900Y-6047000I-38100J0D01*
G01*
X15151900Y-6047000D02*
G75*
G02*
X15228100Y-6047000I38100J0D01*
G01*
X15228100Y-6301000D02*
G75*
G02*
X15151900Y-6301000I-38100J0D01*
G01*
X15151900Y-6301000D02*
G75*
G02*
X15228100Y-6301000I38100J0D01*
G01*
X15228100Y-7317000D02*
G75*
G02*
X15151900Y-7317000I-38100J0D01*
G01*
X15151900Y-7317000D02*
G75*
G02*
X15228100Y-7317000I38100J0D01*
G01*
X15228100Y-7571000D02*
G75*
G02*
X15151900Y-7571000I-38100J0D01*
G01*
X15151900Y-7571000D02*
G75*
G02*
X15228100Y-7571000I38100J0D01*
G01*
X15399100Y-8894000D02*
G75*
G02*
X15322900Y-8894000I-38100J0D01*
G01*
X15322900Y-8894000D02*
G75*
G02*
X15399100Y-8894000I38100J0D01*
G01*
X15399100Y-9148000D02*
G75*
G02*
X15322900Y-9148000I-38100J0D01*
G01*
X15322900Y-9148000D02*
G75*
G02*
X15399100Y-9148000I38100J0D01*
G01*
X15399100Y-10164000D02*
G75*
G02*
X15322900Y-10164000I-38100J0D01*
G01*
X15322900Y-10164000D02*
G75*
G02*
X15399100Y-10164000I38100J0D01*
G01*
X15399100Y-10418000D02*
G75*
G02*
X15322900Y-10418000I-38100J0D01*
G01*
X15322900Y-10418000D02*
G75*
G02*
X15399100Y-10418000I38100J0D01*
G01*
X15990100Y-6047000D02*
G75*
G02*
X15913900Y-6047000I-38100J0D01*
G01*
X15913900Y-6047000D02*
G75*
G02*
X15990100Y-6047000I38100J0D01*
G01*
X15990100Y-6301000D02*
G75*
G02*
X15913900Y-6301000I-38100J0D01*
G01*
X15913900Y-6301000D02*
G75*
G02*
X15990100Y-6301000I38100J0D01*
G01*
X15990100Y-7317000D02*
G75*
G02*
X15913900Y-7317000I-38100J0D01*
G01*
X15913900Y-7317000D02*
G75*
G02*
X15990100Y-7317000I38100J0D01*
G01*
X15990100Y-7571000D02*
G75*
G02*
X15913900Y-7571000I-38100J0D01*
G01*
X15913900Y-7571000D02*
G75*
G02*
X15990100Y-7571000I38100J0D01*
G01*
X16161100Y-8894000D02*
G75*
G02*
X16084900Y-8894000I-38100J0D01*
G01*
X16084900Y-8894000D02*
G75*
G02*
X16161100Y-8894000I38100J0D01*
G01*
X16161100Y-9148000D02*
G75*
G02*
X16084900Y-9148000I-38100J0D01*
G01*
X16084900Y-9148000D02*
G75*
G02*
X16161100Y-9148000I38100J0D01*
G01*
X16161100Y-10164000D02*
G75*
G02*
X16084900Y-10164000I-38100J0D01*
G01*
X16084900Y-10164000D02*
G75*
G02*
X16161100Y-10164000I38100J0D01*
G01*
X16161100Y-10418000D02*
G75*
G02*
X16084900Y-10418000I-38100J0D01*
G01*
X16084900Y-10418000D02*
G75*
G02*
X16161100Y-10418000I38100J0D01*
G01*
X16561100Y-8895000D02*
G75*
G02*
X16484900Y-8895000I-38100J0D01*
G01*
X16484900Y-8895000D02*
G75*
G02*
X16561100Y-8895000I38100J0D01*
G01*
X16561100Y-9149000D02*
G75*
G02*
X16484900Y-9149000I-38100J0D01*
G01*
X16484900Y-9149000D02*
G75*
G02*
X16561100Y-9149000I38100J0D01*
G01*
X16561100Y-10165000D02*
G75*
G02*
X16484900Y-10165000I-38100J0D01*
G01*
X16484900Y-10165000D02*
G75*
G02*
X16561100Y-10165000I38100J0D01*
G01*
X16561100Y-10419000D02*
G75*
G02*
X16484900Y-10419000I-38100J0D01*
G01*
X16484900Y-10419000D02*
G75*
G02*
X16561100Y-10419000I38100J0D01*
G01*
X17323100Y-8895000D02*
G75*
G02*
X17246900Y-8895000I-38100J0D01*
G01*
X17246900Y-8895000D02*
G75*
G02*
X17323100Y-8895000I38100J0D01*
G01*
X17323100Y-9149000D02*
G75*
G02*
X17246900Y-9149000I-38100J0D01*
G01*
X17246900Y-9149000D02*
G75*
G02*
X17323100Y-9149000I38100J0D01*
G01*
X17323100Y-10165000D02*
G75*
G02*
X17246900Y-10165000I-38100J0D01*
G01*
X17246900Y-10165000D02*
G75*
G02*
X17323100Y-10165000I38100J0D01*
G01*
X17323100Y-10419000D02*
G75*
G02*
X17246900Y-10419000I-38100J0D01*
G01*
X17246900Y-10419000D02*
G75*
G02*
X17323100Y-10419000I38100J0D01*
G01*
X8414000Y-5869000D02*
X8414000Y-5949000D01*
X8374000Y-5909000D02*
X8454000Y-5909000D01*
X8414000Y-6123000D02*
X8414000Y-6203000D01*
X8374000Y-6163000D02*
X8454000Y-6163000D01*
X8414000Y-6377000D02*
X8414000Y-6457000D01*
X8374000Y-6417000D02*
X8454000Y-6417000D01*
X8414000Y-6631000D02*
X8414000Y-6711000D01*
X8374000Y-6671000D02*
X8454000Y-6671000D01*
X8414000Y-6885000D02*
X8414000Y-6965000D01*
X8374000Y-6925000D02*
X8454000Y-6925000D01*
X8414000Y-7139000D02*
X8414000Y-7219000D01*
X8374000Y-7179000D02*
X8454000Y-7179000D01*
X8414000Y-7393000D02*
X8414000Y-7473000D01*
X8374000Y-7433000D02*
X8454000Y-7433000D01*
X8414000Y-7647000D02*
X8414000Y-7727000D01*
X8374000Y-7687000D02*
X8454000Y-7687000D01*
X8474000Y-8797000D02*
X8474000Y-8877000D01*
X8434000Y-8837000D02*
X8514000Y-8837000D01*
X8474000Y-10321000D02*
X8474000Y-10401000D01*
X8434000Y-10361000D02*
X8514000Y-10361000D01*
X9430000Y-5869000D02*
X9430000Y-5949000D01*
X9390000Y-5909000D02*
X9470000Y-5909000D01*
X9430000Y-6123000D02*
X9430000Y-6203000D01*
X9390000Y-6163000D02*
X9470000Y-6163000D01*
X9430000Y-6377000D02*
X9430000Y-6457000D01*
X9390000Y-6417000D02*
X9470000Y-6417000D01*
X9430000Y-6631000D02*
X9430000Y-6711000D01*
X9390000Y-6671000D02*
X9470000Y-6671000D01*
X9430000Y-6885000D02*
X9430000Y-6965000D01*
X9390000Y-6925000D02*
X9470000Y-6925000D01*
X9430000Y-7139000D02*
X9430000Y-7219000D01*
X9390000Y-7179000D02*
X9470000Y-7179000D01*
X9430000Y-7393000D02*
X9430000Y-7473000D01*
X9390000Y-7433000D02*
X9470000Y-7433000D01*
X9430000Y-7647000D02*
X9430000Y-7727000D01*
X9390000Y-7687000D02*
X9470000Y-7687000D01*
X9937000Y-8154000D02*
X9937000Y-8234000D01*
X9897000Y-8194000D02*
X9977000Y-8194000D01*
X10091000Y-5875000D02*
X10091000Y-5955000D01*
X10051000Y-5915000D02*
X10131000Y-5915000D01*
X10091000Y-6129000D02*
X10091000Y-6209000D01*
X10051000Y-6169000D02*
X10131000Y-6169000D01*
X10091000Y-6383000D02*
X10091000Y-6463000D01*
X10051000Y-6423000D02*
X10131000Y-6423000D01*
X10091000Y-6637000D02*
X10091000Y-6717000D01*
X10051000Y-6677000D02*
X10131000Y-6677000D01*
X10091000Y-6891000D02*
X10091000Y-6971000D01*
X10051000Y-6931000D02*
X10131000Y-6931000D01*
X10091000Y-7145000D02*
X10091000Y-7225000D01*
X10051000Y-7185000D02*
X10131000Y-7185000D01*
X10091000Y-7399000D02*
X10091000Y-7479000D01*
X10051000Y-7439000D02*
X10131000Y-7439000D01*
X10091000Y-7653000D02*
X10091000Y-7733000D01*
X10051000Y-7693000D02*
X10131000Y-7693000D01*
X10808000Y-5399000D02*
X10808000Y-5479000D01*
X10768000Y-5439000D02*
X10848000Y-5439000D01*
X11058000Y-5399000D02*
X11058000Y-5479000D01*
X11018000Y-5439000D02*
X11098000Y-5439000D01*
X11107000Y-5875000D02*
X11107000Y-5955000D01*
X11067000Y-5915000D02*
X11147000Y-5915000D01*
X11107000Y-6129000D02*
X11107000Y-6209000D01*
X11067000Y-6169000D02*
X11147000Y-6169000D01*
X11107000Y-6383000D02*
X11107000Y-6463000D01*
X11067000Y-6423000D02*
X11147000Y-6423000D01*
X11107000Y-6637000D02*
X11107000Y-6717000D01*
X11067000Y-6677000D02*
X11147000Y-6677000D01*
X11107000Y-6891000D02*
X11107000Y-6971000D01*
X11067000Y-6931000D02*
X11147000Y-6931000D01*
X11107000Y-7145000D02*
X11107000Y-7225000D01*
X11067000Y-7185000D02*
X11147000Y-7185000D01*
X11107000Y-7399000D02*
X11107000Y-7479000D01*
X11067000Y-7439000D02*
X11147000Y-7439000D01*
X11107000Y-7653000D02*
X11107000Y-7733000D01*
X11067000Y-7693000D02*
X11147000Y-7693000D01*
X11461000Y-8154000D02*
X11461000Y-8234000D01*
X11421000Y-8194000D02*
X11501000Y-8194000D01*
X11817000Y-5851000D02*
X11817000Y-5931000D01*
X11777000Y-5891000D02*
X11857000Y-5891000D01*
X11817000Y-6105000D02*
X11817000Y-6185000D01*
X11777000Y-6145000D02*
X11857000Y-6145000D01*
X11817000Y-6359000D02*
X11817000Y-6439000D01*
X11777000Y-6399000D02*
X11857000Y-6399000D01*
X11817000Y-6613000D02*
X11817000Y-6693000D01*
X11777000Y-6653000D02*
X11857000Y-6653000D01*
X11817000Y-6867000D02*
X11817000Y-6947000D01*
X11777000Y-6907000D02*
X11857000Y-6907000D01*
X11817000Y-7121000D02*
X11817000Y-7201000D01*
X11777000Y-7161000D02*
X11857000Y-7161000D01*
X11817000Y-7375000D02*
X11817000Y-7455000D01*
X11777000Y-7415000D02*
X11857000Y-7415000D01*
X11817000Y-7629000D02*
X11817000Y-7709000D01*
X11777000Y-7669000D02*
X11857000Y-7669000D01*
X12529000Y-5423000D02*
X12529000Y-5503000D01*
X12489000Y-5463000D02*
X12569000Y-5463000D01*
X12779000Y-5423000D02*
X12779000Y-5503000D01*
X12739000Y-5463000D02*
X12819000Y-5463000D01*
X12833000Y-5851000D02*
X12833000Y-5931000D01*
X12793000Y-5891000D02*
X12873000Y-5891000D01*
X12833000Y-6105000D02*
X12833000Y-6185000D01*
X12793000Y-6145000D02*
X12873000Y-6145000D01*
X12833000Y-6359000D02*
X12833000Y-6439000D01*
X12793000Y-6399000D02*
X12873000Y-6399000D01*
X12833000Y-6613000D02*
X12833000Y-6693000D01*
X12793000Y-6653000D02*
X12873000Y-6653000D01*
X12833000Y-6867000D02*
X12833000Y-6947000D01*
X12793000Y-6907000D02*
X12873000Y-6907000D01*
X12833000Y-7121000D02*
X12833000Y-7201000D01*
X12793000Y-7161000D02*
X12873000Y-7161000D01*
X12833000Y-7375000D02*
X12833000Y-7455000D01*
X12793000Y-7415000D02*
X12873000Y-7415000D01*
X12833000Y-7629000D02*
X12833000Y-7709000D01*
X12793000Y-7669000D02*
X12873000Y-7669000D01*
X13038762Y-12253000D02*
X13038762Y-12333000D01*
X12998762Y-12293000D02*
X13078762Y-12293000D01*
X13288762Y-12253000D02*
X13288762Y-12333000D01*
X13248762Y-12293000D02*
X13328762Y-12293000D01*
X13567000Y-5863000D02*
X13567000Y-5943000D01*
X13527000Y-5903000D02*
X13607000Y-5903000D01*
X13567000Y-6117000D02*
X13567000Y-6197000D01*
X13527000Y-6157000D02*
X13607000Y-6157000D01*
X13567000Y-6371000D02*
X13567000Y-6451000D01*
X13527000Y-6411000D02*
X13607000Y-6411000D01*
X13567000Y-6625000D02*
X13567000Y-6705000D01*
X13527000Y-6665000D02*
X13607000Y-6665000D01*
X13567000Y-6879000D02*
X13567000Y-6959000D01*
X13527000Y-6919000D02*
X13607000Y-6919000D01*
X13567000Y-7133000D02*
X13567000Y-7213000D01*
X13527000Y-7173000D02*
X13607000Y-7173000D01*
X13567000Y-7387000D02*
X13567000Y-7467000D01*
X13527000Y-7427000D02*
X13607000Y-7427000D01*
X13567000Y-7641000D02*
X13567000Y-7721000D01*
X13527000Y-7681000D02*
X13607000Y-7681000D01*
X14082000Y-12254000D02*
X14082000Y-12334000D01*
X14042000Y-12294000D02*
X14122000Y-12294000D01*
X14332000Y-12254000D02*
X14332000Y-12334000D01*
X14292000Y-12294000D02*
X14372000Y-12294000D01*
X14583000Y-5863000D02*
X14583000Y-5943000D01*
X14543000Y-5903000D02*
X14623000Y-5903000D01*
X14583000Y-6117000D02*
X14583000Y-6197000D01*
X14543000Y-6157000D02*
X14623000Y-6157000D01*
X14583000Y-6371000D02*
X14583000Y-6451000D01*
X14543000Y-6411000D02*
X14623000Y-6411000D01*
X14583000Y-6625000D02*
X14583000Y-6705000D01*
X14543000Y-6665000D02*
X14623000Y-6665000D01*
X14583000Y-6879000D02*
X14583000Y-6959000D01*
X14543000Y-6919000D02*
X14623000Y-6919000D01*
X14583000Y-7133000D02*
X14583000Y-7213000D01*
X14543000Y-7173000D02*
X14623000Y-7173000D01*
X14583000Y-7387000D02*
X14583000Y-7467000D01*
X14543000Y-7427000D02*
X14623000Y-7427000D01*
X14583000Y-7641000D02*
X14583000Y-7721000D01*
X14543000Y-7681000D02*
X14623000Y-7681000D01*
X15146000Y-12132000D02*
X15146000Y-12212000D01*
X15106000Y-12172000D02*
X15186000Y-12172000D01*
X15146000Y-12332000D02*
X15146000Y-12412000D01*
X15106000Y-12372000D02*
X15186000Y-12372000D01*
X16045000Y-11152000D02*
X16045000Y-11232000D01*
X16005000Y-11192000D02*
X16085000Y-11192000D01*
X16045000Y-12676000D02*
X16045000Y-12756000D01*
X16005000Y-12716000D02*
X16085000Y-12716000D01*
X10266356Y-4820356D02*
X10266356Y-4749644D01*
X10195644Y-4749644D01*
X10195644Y-4820356D01*
X10266356Y-4820356D01*
X10520356Y-4820356D02*
X10520356Y-4749644D01*
X10449644Y-4749644D01*
X10449644Y-4820356D01*
X10520356Y-4820356D01*
X10774356Y-4820356D02*
X10774356Y-4749644D01*
X10703644Y-4749644D01*
X10703644Y-4820356D01*
X10774356Y-4820356D01*
X11028356Y-4820356D02*
X11028356Y-4749644D01*
X10957644Y-4749644D01*
X10957644Y-4820356D01*
X11028356Y-4820356D01*
X11282356Y-4820356D02*
X11282356Y-4749644D01*
X11211644Y-4749644D01*
X11211644Y-4820356D01*
X11282356Y-4820356D01*
X11536356Y-4820356D02*
X11536356Y-4749644D01*
X11465644Y-4749644D01*
X11465644Y-4820356D01*
X11536356Y-4820356D01*
X12303356Y-4821356D02*
X12303356Y-4750644D01*
X12232644Y-4750644D01*
X12232644Y-4821356D01*
X12303356Y-4821356D01*
X12557356Y-4821356D02*
X12557356Y-4750644D01*
X12486644Y-4750644D01*
X12486644Y-4821356D01*
X12557356Y-4821356D01*
X12811356Y-4821356D02*
X12811356Y-4750644D01*
X12740644Y-4750644D01*
X12740644Y-4821356D01*
X12811356Y-4821356D01*
X13065356Y-4821356D02*
X13065356Y-4750644D01*
X12994644Y-4750644D01*
X12994644Y-4821356D01*
X13065356Y-4821356D01*
X13319356Y-4821356D02*
X13319356Y-4750644D01*
X13248644Y-4750644D01*
X13248644Y-4821356D01*
X13319356Y-4821356D01*
X13573356Y-4821356D02*
X13573356Y-4750644D01*
X13502644Y-4750644D01*
X13502644Y-4821356D01*
X13573356Y-4821356D01*
X13754356Y-11292356D02*
X13754356Y-11221644D01*
X13683644Y-11221644D01*
X13683644Y-11292356D01*
X13754356Y-11292356D01*
X14254356Y-11292356D02*
X14254356Y-11221644D01*
X14183644Y-11221644D01*
X14183644Y-11292356D01*
X14254356Y-11292356D01*
X14356356Y-4817356D02*
X14356356Y-4746644D01*
X14285644Y-4746644D01*
X14285644Y-4817356D01*
X14356356Y-4817356D01*
X14610356Y-4817356D02*
X14610356Y-4746644D01*
X14539644Y-4746644D01*
X14539644Y-4817356D01*
X14610356Y-4817356D01*
X14754356Y-11292356D02*
X14754356Y-11221644D01*
X14683644Y-11221644D01*
X14683644Y-11292356D01*
X14754356Y-11292356D01*
X14864356Y-4817356D02*
X14864356Y-4746644D01*
X14793644Y-4746644D01*
X14793644Y-4817356D01*
X14864356Y-4817356D01*
X15118356Y-4817356D02*
X15118356Y-4746644D01*
X15047644Y-4746644D01*
X15047644Y-4817356D01*
X15118356Y-4817356D01*
X15254356Y-11292356D02*
X15254356Y-11221644D01*
X15183644Y-11221644D01*
X15183644Y-11292356D01*
X15254356Y-11292356D01*
X15372356Y-4817356D02*
X15372356Y-4746644D01*
X15301644Y-4746644D01*
X15301644Y-4817356D01*
X15372356Y-4817356D01*
X15626356Y-4817356D02*
X15626356Y-4746644D01*
X15555644Y-4746644D01*
X15555644Y-4817356D01*
X15626356Y-4817356D01*
D13*
X15246000Y-8343000D02*
X15301000Y-8288000D01*
X15246000Y-8233000D01*
X15191000Y-8288000D01*
X15246000Y-8343000D01*
X16262000Y-8343000D02*
X16317000Y-8288000D01*
X16262000Y-8233000D01*
X16207000Y-8288000D01*
X16262000Y-8343000D01*
D14*
X16756000Y-5631000D02*
X16906000Y-5781000D01*
X16906000Y-5631000D02*
X16756000Y-5781000D01*
X16906000Y-5706000D02*
G75*
G02*
X16756000Y-5706000I-75000J0D01*
G01*
X16756000Y-5706000D02*
G75*
G02*
X16906000Y-5706000I75000J0D01*
G01*
X16756000Y-7891000D02*
X16906000Y-8041000D01*
X16906000Y-7891000D02*
X16756000Y-8041000D01*
X16906000Y-7966000D02*
G75*
G02*
X16756000Y-7966000I-75000J0D01*
G01*
X16756000Y-7966000D02*
G75*
G02*
X16906000Y-7966000I75000J0D01*
G01*
D11*
X8292277Y-13357984D02*
X8292277Y-13157984D01*
X8292277Y-13157984D02*
X8339896Y-13157984D01*
X8339896Y-13157984D02*
X8368467Y-13167508D01*
X8368467Y-13167508D02*
X8387515Y-13186555D01*
X8387515Y-13186555D02*
X8397039Y-13205603D01*
X8397039Y-13205603D02*
X8406563Y-13243698D01*
X8406563Y-13243698D02*
X8406563Y-13272269D01*
X8406563Y-13272269D02*
X8397039Y-13310365D01*
X8397039Y-13310365D02*
X8387515Y-13329412D01*
X8387515Y-13329412D02*
X8368467Y-13348460D01*
X8368467Y-13348460D02*
X8339896Y-13357984D01*
X8339896Y-13357984D02*
X8292277Y-13357984D01*
X8492277Y-13357984D02*
X8492277Y-13224650D01*
X8492277Y-13262746D02*
X8501801Y-13243698D01*
X8501801Y-13243698D02*
X8511324Y-13234174D01*
X8511324Y-13234174D02*
X8530372Y-13224650D01*
X8530372Y-13224650D02*
X8549420Y-13224650D01*
X8616086Y-13357984D02*
X8616086Y-13224650D01*
X8616086Y-13157984D02*
X8606563Y-13167508D01*
X8606563Y-13167508D02*
X8616086Y-13177031D01*
X8616086Y-13177031D02*
X8625610Y-13167508D01*
X8625610Y-13167508D02*
X8616086Y-13157984D01*
X8616086Y-13157984D02*
X8616086Y-13177031D01*
X8739896Y-13357984D02*
X8720848Y-13348460D01*
X8720848Y-13348460D02*
X8711324Y-13329412D01*
X8711324Y-13329412D02*
X8711324Y-13157984D01*
X8844658Y-13357984D02*
X8825610Y-13348460D01*
X8825610Y-13348460D02*
X8816086Y-13329412D01*
X8816086Y-13329412D02*
X8816086Y-13157984D01*
X9073229Y-13357984D02*
X9073229Y-13157984D01*
X9073229Y-13157984D02*
X9139896Y-13300841D01*
X9139896Y-13300841D02*
X9206563Y-13157984D01*
X9206563Y-13157984D02*
X9206563Y-13357984D01*
X9387515Y-13357984D02*
X9387515Y-13253222D01*
X9387515Y-13253222D02*
X9377991Y-13234174D01*
X9377991Y-13234174D02*
X9358944Y-13224650D01*
X9358944Y-13224650D02*
X9320848Y-13224650D01*
X9320848Y-13224650D02*
X9301801Y-13234174D01*
X9387515Y-13348460D02*
X9368467Y-13357984D01*
X9368467Y-13357984D02*
X9320848Y-13357984D01*
X9320848Y-13357984D02*
X9301801Y-13348460D01*
X9301801Y-13348460D02*
X9292277Y-13329412D01*
X9292277Y-13329412D02*
X9292277Y-13310365D01*
X9292277Y-13310365D02*
X9301801Y-13291317D01*
X9301801Y-13291317D02*
X9320848Y-13281793D01*
X9320848Y-13281793D02*
X9368467Y-13281793D01*
X9368467Y-13281793D02*
X9387515Y-13272269D01*
X9482753Y-13224650D02*
X9482753Y-13424650D01*
X9482753Y-13234174D02*
X9501801Y-13224650D01*
X9501801Y-13224650D02*
X9539896Y-13224650D01*
X9539896Y-13224650D02*
X9558944Y-13234174D01*
X9558944Y-13234174D02*
X9568467Y-13243698D01*
X9568467Y-13243698D02*
X9577991Y-13262746D01*
X9577991Y-13262746D02*
X9577991Y-13319888D01*
X9577991Y-13319888D02*
X9568467Y-13338936D01*
X9568467Y-13338936D02*
X9558944Y-13348460D01*
X9558944Y-13348460D02*
X9539896Y-13357984D01*
X9539896Y-13357984D02*
X9501801Y-13357984D01*
X9501801Y-13357984D02*
X9482753Y-13348460D01*
X9663705Y-13338936D02*
X9673229Y-13348460D01*
X9673229Y-13348460D02*
X9663705Y-13357984D01*
X9663705Y-13357984D02*
X9654182Y-13348460D01*
X9654182Y-13348460D02*
X9663705Y-13338936D01*
X9663705Y-13338936D02*
X9663705Y-13357984D01*
X9663705Y-13234174D02*
X9673229Y-13243698D01*
X9673229Y-13243698D02*
X9663705Y-13253222D01*
X9663705Y-13253222D02*
X9654182Y-13243698D01*
X9654182Y-13243698D02*
X9663705Y-13234174D01*
X9663705Y-13234174D02*
X9663705Y-13253222D01*
D12*
X8001500Y-13671500D02*
X8031500Y-13701500D01*
X8031500Y-13671500D02*
X8001500Y-13701500D01*
D11*
X8330372Y-13577984D02*
X8349420Y-13577984D01*
X8349420Y-13577984D02*
X8368467Y-13587508D01*
X8368467Y-13587508D02*
X8377991Y-13597031D01*
X8377991Y-13597031D02*
X8387515Y-13616079D01*
X8387515Y-13616079D02*
X8397039Y-13654174D01*
X8397039Y-13654174D02*
X8397039Y-13701793D01*
X8397039Y-13701793D02*
X8387515Y-13739888D01*
X8387515Y-13739888D02*
X8377991Y-13758936D01*
X8377991Y-13758936D02*
X8368467Y-13768460D01*
X8368467Y-13768460D02*
X8349420Y-13777984D01*
X8349420Y-13777984D02*
X8330372Y-13777984D01*
X8330372Y-13777984D02*
X8311324Y-13768460D01*
X8311324Y-13768460D02*
X8301801Y-13758936D01*
X8301801Y-13758936D02*
X8292277Y-13739888D01*
X8292277Y-13739888D02*
X8282753Y-13701793D01*
X8282753Y-13701793D02*
X8282753Y-13654174D01*
X8282753Y-13654174D02*
X8292277Y-13616079D01*
X8292277Y-13616079D02*
X8301801Y-13597031D01*
X8301801Y-13597031D02*
X8311324Y-13587508D01*
X8311324Y-13587508D02*
X8330372Y-13577984D01*
X8482753Y-13758936D02*
X8492277Y-13768460D01*
X8492277Y-13768460D02*
X8482753Y-13777984D01*
X8482753Y-13777984D02*
X8473229Y-13768460D01*
X8473229Y-13768460D02*
X8482753Y-13758936D01*
X8482753Y-13758936D02*
X8482753Y-13777984D01*
X8558944Y-13577984D02*
X8682753Y-13577984D01*
X8682753Y-13577984D02*
X8616086Y-13654174D01*
X8616086Y-13654174D02*
X8644658Y-13654174D01*
X8644658Y-13654174D02*
X8663705Y-13663698D01*
X8663705Y-13663698D02*
X8673229Y-13673222D01*
X8673229Y-13673222D02*
X8682753Y-13692269D01*
X8682753Y-13692269D02*
X8682753Y-13739888D01*
X8682753Y-13739888D02*
X8673229Y-13758936D01*
X8673229Y-13758936D02*
X8663705Y-13768460D01*
X8663705Y-13768460D02*
X8644658Y-13777984D01*
X8644658Y-13777984D02*
X8587515Y-13777984D01*
X8587515Y-13777984D02*
X8568467Y-13768460D01*
X8568467Y-13768460D02*
X8558944Y-13758936D01*
X8806563Y-13577984D02*
X8825610Y-13577984D01*
X8825610Y-13577984D02*
X8844658Y-13587508D01*
X8844658Y-13587508D02*
X8854182Y-13597031D01*
X8854182Y-13597031D02*
X8863705Y-13616079D01*
X8863705Y-13616079D02*
X8873229Y-13654174D01*
X8873229Y-13654174D02*
X8873229Y-13701793D01*
X8873229Y-13701793D02*
X8863705Y-13739888D01*
X8863705Y-13739888D02*
X8854182Y-13758936D01*
X8854182Y-13758936D02*
X8844658Y-13768460D01*
X8844658Y-13768460D02*
X8825610Y-13777984D01*
X8825610Y-13777984D02*
X8806563Y-13777984D01*
X8806563Y-13777984D02*
X8787515Y-13768460D01*
X8787515Y-13768460D02*
X8777991Y-13758936D01*
X8777991Y-13758936D02*
X8768467Y-13739888D01*
X8768467Y-13739888D02*
X8758944Y-13701793D01*
X8758944Y-13701793D02*
X8758944Y-13654174D01*
X8758944Y-13654174D02*
X8768467Y-13616079D01*
X8768467Y-13616079D02*
X8777991Y-13597031D01*
X8777991Y-13597031D02*
X8787515Y-13587508D01*
X8787515Y-13587508D02*
X8806563Y-13577984D01*
X8997039Y-13577984D02*
X9016086Y-13577984D01*
X9016086Y-13577984D02*
X9035134Y-13587508D01*
X9035134Y-13587508D02*
X9044658Y-13597031D01*
X9044658Y-13597031D02*
X9054182Y-13616079D01*
X9054182Y-13616079D02*
X9063705Y-13654174D01*
X9063705Y-13654174D02*
X9063705Y-13701793D01*
X9063705Y-13701793D02*
X9054182Y-13739888D01*
X9054182Y-13739888D02*
X9044658Y-13758936D01*
X9044658Y-13758936D02*
X9035134Y-13768460D01*
X9035134Y-13768460D02*
X9016086Y-13777984D01*
X9016086Y-13777984D02*
X8997039Y-13777984D01*
X8997039Y-13777984D02*
X8977991Y-13768460D01*
X8977991Y-13768460D02*
X8968467Y-13758936D01*
X8968467Y-13758936D02*
X8958944Y-13739888D01*
X8958944Y-13739888D02*
X8949420Y-13701793D01*
X8949420Y-13701793D02*
X8949420Y-13654174D01*
X8949420Y-13654174D02*
X8958944Y-13616079D01*
X8958944Y-13616079D02*
X8968467Y-13597031D01*
X8968467Y-13597031D02*
X8977991Y-13587508D01*
X8977991Y-13587508D02*
X8997039Y-13577984D01*
X9149420Y-13777984D02*
X9149420Y-13644650D01*
X9149420Y-13663698D02*
X9158944Y-13654174D01*
X9158944Y-13654174D02*
X9177991Y-13644650D01*
X9177991Y-13644650D02*
X9206563Y-13644650D01*
X9206563Y-13644650D02*
X9225610Y-13654174D01*
X9225610Y-13654174D02*
X9235134Y-13673222D01*
X9235134Y-13673222D02*
X9235134Y-13777984D01*
X9235134Y-13673222D02*
X9244658Y-13654174D01*
X9244658Y-13654174D02*
X9263705Y-13644650D01*
X9263705Y-13644650D02*
X9292277Y-13644650D01*
X9292277Y-13644650D02*
X9311325Y-13654174D01*
X9311325Y-13654174D02*
X9320848Y-13673222D01*
X9320848Y-13673222D02*
X9320848Y-13777984D01*
X9416086Y-13777984D02*
X9416086Y-13644650D01*
X9416086Y-13663698D02*
X9425610Y-13654174D01*
X9425610Y-13654174D02*
X9444658Y-13644650D01*
X9444658Y-13644650D02*
X9473229Y-13644650D01*
X9473229Y-13644650D02*
X9492277Y-13654174D01*
X9492277Y-13654174D02*
X9501801Y-13673222D01*
X9501801Y-13673222D02*
X9501801Y-13777984D01*
X9501801Y-13673222D02*
X9511325Y-13654174D01*
X9511325Y-13654174D02*
X9530372Y-13644650D01*
X9530372Y-13644650D02*
X9558944Y-13644650D01*
X9558944Y-13644650D02*
X9577991Y-13654174D01*
X9577991Y-13654174D02*
X9587515Y-13673222D01*
X9587515Y-13673222D02*
X9587515Y-13777984D01*
X9977991Y-13568460D02*
X9806563Y-13825603D01*
X10235134Y-13577984D02*
X10254182Y-13577984D01*
X10254182Y-13577984D02*
X10273229Y-13587508D01*
X10273229Y-13587508D02*
X10282753Y-13597031D01*
X10282753Y-13597031D02*
X10292277Y-13616079D01*
X10292277Y-13616079D02*
X10301801Y-13654174D01*
X10301801Y-13654174D02*
X10301801Y-13701793D01*
X10301801Y-13701793D02*
X10292277Y-13739888D01*
X10292277Y-13739888D02*
X10282753Y-13758936D01*
X10282753Y-13758936D02*
X10273229Y-13768460D01*
X10273229Y-13768460D02*
X10254182Y-13777984D01*
X10254182Y-13777984D02*
X10235134Y-13777984D01*
X10235134Y-13777984D02*
X10216087Y-13768460D01*
X10216087Y-13768460D02*
X10206563Y-13758936D01*
X10206563Y-13758936D02*
X10197039Y-13739888D01*
X10197039Y-13739888D02*
X10187515Y-13701793D01*
X10187515Y-13701793D02*
X10187515Y-13654174D01*
X10187515Y-13654174D02*
X10197039Y-13616079D01*
X10197039Y-13616079D02*
X10206563Y-13597031D01*
X10206563Y-13597031D02*
X10216087Y-13587508D01*
X10216087Y-13587508D02*
X10235134Y-13577984D01*
X10387515Y-13758936D02*
X10397039Y-13768460D01*
X10397039Y-13768460D02*
X10387515Y-13777984D01*
X10387515Y-13777984D02*
X10377991Y-13768460D01*
X10377991Y-13768460D02*
X10387515Y-13758936D01*
X10387515Y-13758936D02*
X10387515Y-13777984D01*
X10520848Y-13577984D02*
X10539896Y-13577984D01*
X10539896Y-13577984D02*
X10558944Y-13587508D01*
X10558944Y-13587508D02*
X10568468Y-13597031D01*
X10568468Y-13597031D02*
X10577991Y-13616079D01*
X10577991Y-13616079D02*
X10587515Y-13654174D01*
X10587515Y-13654174D02*
X10587515Y-13701793D01*
X10587515Y-13701793D02*
X10577991Y-13739888D01*
X10577991Y-13739888D02*
X10568468Y-13758936D01*
X10568468Y-13758936D02*
X10558944Y-13768460D01*
X10558944Y-13768460D02*
X10539896Y-13777984D01*
X10539896Y-13777984D02*
X10520848Y-13777984D01*
X10520848Y-13777984D02*
X10501801Y-13768460D01*
X10501801Y-13768460D02*
X10492277Y-13758936D01*
X10492277Y-13758936D02*
X10482753Y-13739888D01*
X10482753Y-13739888D02*
X10473229Y-13701793D01*
X10473229Y-13701793D02*
X10473229Y-13654174D01*
X10473229Y-13654174D02*
X10482753Y-13616079D01*
X10482753Y-13616079D02*
X10492277Y-13597031D01*
X10492277Y-13597031D02*
X10501801Y-13587508D01*
X10501801Y-13587508D02*
X10520848Y-13577984D01*
X10777991Y-13777984D02*
X10663706Y-13777984D01*
X10720848Y-13777984D02*
X10720848Y-13577984D01*
X10720848Y-13577984D02*
X10701801Y-13606555D01*
X10701801Y-13606555D02*
X10682753Y-13625603D01*
X10682753Y-13625603D02*
X10663706Y-13635127D01*
X10968468Y-13777984D02*
X10854182Y-13777984D01*
X10911325Y-13777984D02*
X10911325Y-13577984D01*
X10911325Y-13577984D02*
X10892277Y-13606555D01*
X10892277Y-13606555D02*
X10873229Y-13625603D01*
X10873229Y-13625603D02*
X10854182Y-13635127D01*
X11082753Y-13663698D02*
X11063706Y-13654174D01*
X11063706Y-13654174D02*
X11054182Y-13644650D01*
X11054182Y-13644650D02*
X11044658Y-13625603D01*
X11044658Y-13625603D02*
X11044658Y-13616079D01*
X11044658Y-13616079D02*
X11054182Y-13597031D01*
X11054182Y-13597031D02*
X11063706Y-13587508D01*
X11063706Y-13587508D02*
X11082753Y-13577984D01*
X11082753Y-13577984D02*
X11120849Y-13577984D01*
X11120849Y-13577984D02*
X11139896Y-13587508D01*
X11139896Y-13587508D02*
X11149420Y-13597031D01*
X11149420Y-13597031D02*
X11158944Y-13616079D01*
X11158944Y-13616079D02*
X11158944Y-13625603D01*
X11158944Y-13625603D02*
X11149420Y-13644650D01*
X11149420Y-13644650D02*
X11139896Y-13654174D01*
X11139896Y-13654174D02*
X11120849Y-13663698D01*
X11120849Y-13663698D02*
X11082753Y-13663698D01*
X11082753Y-13663698D02*
X11063706Y-13673222D01*
X11063706Y-13673222D02*
X11054182Y-13682746D01*
X11054182Y-13682746D02*
X11044658Y-13701793D01*
X11044658Y-13701793D02*
X11044658Y-13739888D01*
X11044658Y-13739888D02*
X11054182Y-13758936D01*
X11054182Y-13758936D02*
X11063706Y-13768460D01*
X11063706Y-13768460D02*
X11082753Y-13777984D01*
X11082753Y-13777984D02*
X11120849Y-13777984D01*
X11120849Y-13777984D02*
X11139896Y-13768460D01*
X11139896Y-13768460D02*
X11149420Y-13758936D01*
X11149420Y-13758936D02*
X11158944Y-13739888D01*
X11158944Y-13739888D02*
X11158944Y-13701793D01*
X11158944Y-13701793D02*
X11149420Y-13682746D01*
X11149420Y-13682746D02*
X11139896Y-13673222D01*
X11139896Y-13673222D02*
X11120849Y-13663698D01*
X11235134Y-13577984D02*
X11235134Y-13616079D01*
X11311325Y-13577984D02*
X11311325Y-13616079D01*
X11606563Y-13854174D02*
X11597039Y-13844650D01*
X11597039Y-13844650D02*
X11577991Y-13816079D01*
X11577991Y-13816079D02*
X11568468Y-13797031D01*
X11568468Y-13797031D02*
X11558944Y-13768460D01*
X11558944Y-13768460D02*
X11549420Y-13720841D01*
X11549420Y-13720841D02*
X11549420Y-13682746D01*
X11549420Y-13682746D02*
X11558944Y-13635127D01*
X11558944Y-13635127D02*
X11568468Y-13606555D01*
X11568468Y-13606555D02*
X11577991Y-13587508D01*
X11577991Y-13587508D02*
X11597039Y-13558936D01*
X11597039Y-13558936D02*
X11606563Y-13549412D01*
X11673229Y-13597031D02*
X11682753Y-13587508D01*
X11682753Y-13587508D02*
X11701801Y-13577984D01*
X11701801Y-13577984D02*
X11749420Y-13577984D01*
X11749420Y-13577984D02*
X11768468Y-13587508D01*
X11768468Y-13587508D02*
X11777991Y-13597031D01*
X11777991Y-13597031D02*
X11787515Y-13616079D01*
X11787515Y-13616079D02*
X11787515Y-13635127D01*
X11787515Y-13635127D02*
X11777991Y-13663698D01*
X11777991Y-13663698D02*
X11663706Y-13777984D01*
X11663706Y-13777984D02*
X11787515Y-13777984D01*
X12025610Y-13777984D02*
X12025610Y-13577984D01*
X12111325Y-13777984D02*
X12111325Y-13673222D01*
X12111325Y-13673222D02*
X12101801Y-13654174D01*
X12101801Y-13654174D02*
X12082753Y-13644650D01*
X12082753Y-13644650D02*
X12054182Y-13644650D01*
X12054182Y-13644650D02*
X12035134Y-13654174D01*
X12035134Y-13654174D02*
X12025610Y-13663698D01*
X12235134Y-13777984D02*
X12216087Y-13768460D01*
X12216087Y-13768460D02*
X12206563Y-13758936D01*
X12206563Y-13758936D02*
X12197039Y-13739888D01*
X12197039Y-13739888D02*
X12197039Y-13682746D01*
X12197039Y-13682746D02*
X12206563Y-13663698D01*
X12206563Y-13663698D02*
X12216087Y-13654174D01*
X12216087Y-13654174D02*
X12235134Y-13644650D01*
X12235134Y-13644650D02*
X12263706Y-13644650D01*
X12263706Y-13644650D02*
X12282753Y-13654174D01*
X12282753Y-13654174D02*
X12292277Y-13663698D01*
X12292277Y-13663698D02*
X12301801Y-13682746D01*
X12301801Y-13682746D02*
X12301801Y-13739888D01*
X12301801Y-13739888D02*
X12292277Y-13758936D01*
X12292277Y-13758936D02*
X12282753Y-13768460D01*
X12282753Y-13768460D02*
X12263706Y-13777984D01*
X12263706Y-13777984D02*
X12235134Y-13777984D01*
X12416087Y-13777984D02*
X12397039Y-13768460D01*
X12397039Y-13768460D02*
X12387515Y-13749412D01*
X12387515Y-13749412D02*
X12387515Y-13577984D01*
X12568468Y-13768460D02*
X12549420Y-13777984D01*
X12549420Y-13777984D02*
X12511325Y-13777984D01*
X12511325Y-13777984D02*
X12492277Y-13768460D01*
X12492277Y-13768460D02*
X12482753Y-13749412D01*
X12482753Y-13749412D02*
X12482753Y-13673222D01*
X12482753Y-13673222D02*
X12492277Y-13654174D01*
X12492277Y-13654174D02*
X12511325Y-13644650D01*
X12511325Y-13644650D02*
X12549420Y-13644650D01*
X12549420Y-13644650D02*
X12568468Y-13654174D01*
X12568468Y-13654174D02*
X12577991Y-13673222D01*
X12577991Y-13673222D02*
X12577991Y-13692269D01*
X12577991Y-13692269D02*
X12482753Y-13711317D01*
X12654182Y-13768460D02*
X12673230Y-13777984D01*
X12673230Y-13777984D02*
X12711325Y-13777984D01*
X12711325Y-13777984D02*
X12730372Y-13768460D01*
X12730372Y-13768460D02*
X12739896Y-13749412D01*
X12739896Y-13749412D02*
X12739896Y-13739888D01*
X12739896Y-13739888D02*
X12730372Y-13720841D01*
X12730372Y-13720841D02*
X12711325Y-13711317D01*
X12711325Y-13711317D02*
X12682753Y-13711317D01*
X12682753Y-13711317D02*
X12663706Y-13701793D01*
X12663706Y-13701793D02*
X12654182Y-13682746D01*
X12654182Y-13682746D02*
X12654182Y-13673222D01*
X12654182Y-13673222D02*
X12663706Y-13654174D01*
X12663706Y-13654174D02*
X12682753Y-13644650D01*
X12682753Y-13644650D02*
X12711325Y-13644650D01*
X12711325Y-13644650D02*
X12730372Y-13654174D01*
X12806563Y-13854174D02*
X12816087Y-13844650D01*
X12816087Y-13844650D02*
X12835134Y-13816079D01*
X12835134Y-13816079D02*
X12844658Y-13797031D01*
X12844658Y-13797031D02*
X12854182Y-13768460D01*
X12854182Y-13768460D02*
X12863706Y-13720841D01*
X12863706Y-13720841D02*
X12863706Y-13682746D01*
X12863706Y-13682746D02*
X12854182Y-13635127D01*
X12854182Y-13635127D02*
X12844658Y-13606555D01*
X12844658Y-13606555D02*
X12835134Y-13587508D01*
X12835134Y-13587508D02*
X12816087Y-13558936D01*
X12816087Y-13558936D02*
X12806563Y-13549412D01*
D12*
X8031500Y-13950500D02*
G75*
G02*
X7955300Y-13950500I-38100J0D01*
G01*
X7955300Y-13950500D02*
G75*
G02*
X8031500Y-13950500I38100J0D01*
G01*
D11*
X8330372Y-13841984D02*
X8349420Y-13841984D01*
X8349420Y-13841984D02*
X8368467Y-13851508D01*
X8368467Y-13851508D02*
X8377991Y-13861031D01*
X8377991Y-13861031D02*
X8387515Y-13880079D01*
X8387515Y-13880079D02*
X8397039Y-13918174D01*
X8397039Y-13918174D02*
X8397039Y-13965793D01*
X8397039Y-13965793D02*
X8387515Y-14003888D01*
X8387515Y-14003888D02*
X8377991Y-14022936D01*
X8377991Y-14022936D02*
X8368467Y-14032460D01*
X8368467Y-14032460D02*
X8349420Y-14041984D01*
X8349420Y-14041984D02*
X8330372Y-14041984D01*
X8330372Y-14041984D02*
X8311324Y-14032460D01*
X8311324Y-14032460D02*
X8301801Y-14022936D01*
X8301801Y-14022936D02*
X8292277Y-14003888D01*
X8292277Y-14003888D02*
X8282753Y-13965793D01*
X8282753Y-13965793D02*
X8282753Y-13918174D01*
X8282753Y-13918174D02*
X8292277Y-13880079D01*
X8292277Y-13880079D02*
X8301801Y-13861031D01*
X8301801Y-13861031D02*
X8311324Y-13851508D01*
X8311324Y-13851508D02*
X8330372Y-13841984D01*
X8482753Y-14022936D02*
X8492277Y-14032460D01*
X8492277Y-14032460D02*
X8482753Y-14041984D01*
X8482753Y-14041984D02*
X8473229Y-14032460D01*
X8473229Y-14032460D02*
X8482753Y-14022936D01*
X8482753Y-14022936D02*
X8482753Y-14041984D01*
X8558944Y-13841984D02*
X8692277Y-13841984D01*
X8692277Y-13841984D02*
X8606563Y-14041984D01*
X8854182Y-13841984D02*
X8816086Y-13841984D01*
X8816086Y-13841984D02*
X8797039Y-13851508D01*
X8797039Y-13851508D02*
X8787515Y-13861031D01*
X8787515Y-13861031D02*
X8768467Y-13889603D01*
X8768467Y-13889603D02*
X8758944Y-13927698D01*
X8758944Y-13927698D02*
X8758944Y-14003888D01*
X8758944Y-14003888D02*
X8768467Y-14022936D01*
X8768467Y-14022936D02*
X8777991Y-14032460D01*
X8777991Y-14032460D02*
X8797039Y-14041984D01*
X8797039Y-14041984D02*
X8835134Y-14041984D01*
X8835134Y-14041984D02*
X8854182Y-14032460D01*
X8854182Y-14032460D02*
X8863705Y-14022936D01*
X8863705Y-14022936D02*
X8873229Y-14003888D01*
X8873229Y-14003888D02*
X8873229Y-13956269D01*
X8873229Y-13956269D02*
X8863705Y-13937222D01*
X8863705Y-13937222D02*
X8854182Y-13927698D01*
X8854182Y-13927698D02*
X8835134Y-13918174D01*
X8835134Y-13918174D02*
X8797039Y-13918174D01*
X8797039Y-13918174D02*
X8777991Y-13927698D01*
X8777991Y-13927698D02*
X8768467Y-13937222D01*
X8768467Y-13937222D02*
X8758944Y-13956269D01*
X8949420Y-13861031D02*
X8958944Y-13851508D01*
X8958944Y-13851508D02*
X8977991Y-13841984D01*
X8977991Y-13841984D02*
X9025610Y-13841984D01*
X9025610Y-13841984D02*
X9044658Y-13851508D01*
X9044658Y-13851508D02*
X9054182Y-13861031D01*
X9054182Y-13861031D02*
X9063705Y-13880079D01*
X9063705Y-13880079D02*
X9063705Y-13899127D01*
X9063705Y-13899127D02*
X9054182Y-13927698D01*
X9054182Y-13927698D02*
X8939896Y-14041984D01*
X8939896Y-14041984D02*
X9063705Y-14041984D01*
X9149420Y-14041984D02*
X9149420Y-13908650D01*
X9149420Y-13927698D02*
X9158944Y-13918174D01*
X9158944Y-13918174D02*
X9177991Y-13908650D01*
X9177991Y-13908650D02*
X9206563Y-13908650D01*
X9206563Y-13908650D02*
X9225610Y-13918174D01*
X9225610Y-13918174D02*
X9235134Y-13937222D01*
X9235134Y-13937222D02*
X9235134Y-14041984D01*
X9235134Y-13937222D02*
X9244658Y-13918174D01*
X9244658Y-13918174D02*
X9263705Y-13908650D01*
X9263705Y-13908650D02*
X9292277Y-13908650D01*
X9292277Y-13908650D02*
X9311325Y-13918174D01*
X9311325Y-13918174D02*
X9320848Y-13937222D01*
X9320848Y-13937222D02*
X9320848Y-14041984D01*
X9416086Y-14041984D02*
X9416086Y-13908650D01*
X9416086Y-13927698D02*
X9425610Y-13918174D01*
X9425610Y-13918174D02*
X9444658Y-13908650D01*
X9444658Y-13908650D02*
X9473229Y-13908650D01*
X9473229Y-13908650D02*
X9492277Y-13918174D01*
X9492277Y-13918174D02*
X9501801Y-13937222D01*
X9501801Y-13937222D02*
X9501801Y-14041984D01*
X9501801Y-13937222D02*
X9511325Y-13918174D01*
X9511325Y-13918174D02*
X9530372Y-13908650D01*
X9530372Y-13908650D02*
X9558944Y-13908650D01*
X9558944Y-13908650D02*
X9577991Y-13918174D01*
X9577991Y-13918174D02*
X9587515Y-13937222D01*
X9587515Y-13937222D02*
X9587515Y-14041984D01*
X9977991Y-13832460D02*
X9806563Y-14089603D01*
X10235134Y-13841984D02*
X10254182Y-13841984D01*
X10254182Y-13841984D02*
X10273229Y-13851508D01*
X10273229Y-13851508D02*
X10282753Y-13861031D01*
X10282753Y-13861031D02*
X10292277Y-13880079D01*
X10292277Y-13880079D02*
X10301801Y-13918174D01*
X10301801Y-13918174D02*
X10301801Y-13965793D01*
X10301801Y-13965793D02*
X10292277Y-14003888D01*
X10292277Y-14003888D02*
X10282753Y-14022936D01*
X10282753Y-14022936D02*
X10273229Y-14032460D01*
X10273229Y-14032460D02*
X10254182Y-14041984D01*
X10254182Y-14041984D02*
X10235134Y-14041984D01*
X10235134Y-14041984D02*
X10216087Y-14032460D01*
X10216087Y-14032460D02*
X10206563Y-14022936D01*
X10206563Y-14022936D02*
X10197039Y-14003888D01*
X10197039Y-14003888D02*
X10187515Y-13965793D01*
X10187515Y-13965793D02*
X10187515Y-13918174D01*
X10187515Y-13918174D02*
X10197039Y-13880079D01*
X10197039Y-13880079D02*
X10206563Y-13861031D01*
X10206563Y-13861031D02*
X10216087Y-13851508D01*
X10216087Y-13851508D02*
X10235134Y-13841984D01*
X10387515Y-14022936D02*
X10397039Y-14032460D01*
X10397039Y-14032460D02*
X10387515Y-14041984D01*
X10387515Y-14041984D02*
X10377991Y-14032460D01*
X10377991Y-14032460D02*
X10387515Y-14022936D01*
X10387515Y-14022936D02*
X10387515Y-14041984D01*
X10520848Y-13841984D02*
X10539896Y-13841984D01*
X10539896Y-13841984D02*
X10558944Y-13851508D01*
X10558944Y-13851508D02*
X10568468Y-13861031D01*
X10568468Y-13861031D02*
X10577991Y-13880079D01*
X10577991Y-13880079D02*
X10587515Y-13918174D01*
X10587515Y-13918174D02*
X10587515Y-13965793D01*
X10587515Y-13965793D02*
X10577991Y-14003888D01*
X10577991Y-14003888D02*
X10568468Y-14022936D01*
X10568468Y-14022936D02*
X10558944Y-14032460D01*
X10558944Y-14032460D02*
X10539896Y-14041984D01*
X10539896Y-14041984D02*
X10520848Y-14041984D01*
X10520848Y-14041984D02*
X10501801Y-14032460D01*
X10501801Y-14032460D02*
X10492277Y-14022936D01*
X10492277Y-14022936D02*
X10482753Y-14003888D01*
X10482753Y-14003888D02*
X10473229Y-13965793D01*
X10473229Y-13965793D02*
X10473229Y-13918174D01*
X10473229Y-13918174D02*
X10482753Y-13880079D01*
X10482753Y-13880079D02*
X10492277Y-13861031D01*
X10492277Y-13861031D02*
X10501801Y-13851508D01*
X10501801Y-13851508D02*
X10520848Y-13841984D01*
X10654182Y-13841984D02*
X10777991Y-13841984D01*
X10777991Y-13841984D02*
X10711325Y-13918174D01*
X10711325Y-13918174D02*
X10739896Y-13918174D01*
X10739896Y-13918174D02*
X10758944Y-13927698D01*
X10758944Y-13927698D02*
X10768468Y-13937222D01*
X10768468Y-13937222D02*
X10777991Y-13956269D01*
X10777991Y-13956269D02*
X10777991Y-14003888D01*
X10777991Y-14003888D02*
X10768468Y-14022936D01*
X10768468Y-14022936D02*
X10758944Y-14032460D01*
X10758944Y-14032460D02*
X10739896Y-14041984D01*
X10739896Y-14041984D02*
X10682753Y-14041984D01*
X10682753Y-14041984D02*
X10663706Y-14032460D01*
X10663706Y-14032460D02*
X10654182Y-14022936D01*
X10901801Y-13841984D02*
X10920849Y-13841984D01*
X10920849Y-13841984D02*
X10939896Y-13851508D01*
X10939896Y-13851508D02*
X10949420Y-13861031D01*
X10949420Y-13861031D02*
X10958944Y-13880079D01*
X10958944Y-13880079D02*
X10968468Y-13918174D01*
X10968468Y-13918174D02*
X10968468Y-13965793D01*
X10968468Y-13965793D02*
X10958944Y-14003888D01*
X10958944Y-14003888D02*
X10949420Y-14022936D01*
X10949420Y-14022936D02*
X10939896Y-14032460D01*
X10939896Y-14032460D02*
X10920849Y-14041984D01*
X10920849Y-14041984D02*
X10901801Y-14041984D01*
X10901801Y-14041984D02*
X10882753Y-14032460D01*
X10882753Y-14032460D02*
X10873229Y-14022936D01*
X10873229Y-14022936D02*
X10863706Y-14003888D01*
X10863706Y-14003888D02*
X10854182Y-13965793D01*
X10854182Y-13965793D02*
X10854182Y-13918174D01*
X10854182Y-13918174D02*
X10863706Y-13880079D01*
X10863706Y-13880079D02*
X10873229Y-13861031D01*
X10873229Y-13861031D02*
X10882753Y-13851508D01*
X10882753Y-13851508D02*
X10901801Y-13841984D01*
X11092277Y-13841984D02*
X11111325Y-13841984D01*
X11111325Y-13841984D02*
X11130372Y-13851508D01*
X11130372Y-13851508D02*
X11139896Y-13861031D01*
X11139896Y-13861031D02*
X11149420Y-13880079D01*
X11149420Y-13880079D02*
X11158944Y-13918174D01*
X11158944Y-13918174D02*
X11158944Y-13965793D01*
X11158944Y-13965793D02*
X11149420Y-14003888D01*
X11149420Y-14003888D02*
X11139896Y-14022936D01*
X11139896Y-14022936D02*
X11130372Y-14032460D01*
X11130372Y-14032460D02*
X11111325Y-14041984D01*
X11111325Y-14041984D02*
X11092277Y-14041984D01*
X11092277Y-14041984D02*
X11073229Y-14032460D01*
X11073229Y-14032460D02*
X11063706Y-14022936D01*
X11063706Y-14022936D02*
X11054182Y-14003888D01*
X11054182Y-14003888D02*
X11044658Y-13965793D01*
X11044658Y-13965793D02*
X11044658Y-13918174D01*
X11044658Y-13918174D02*
X11054182Y-13880079D01*
X11054182Y-13880079D02*
X11063706Y-13861031D01*
X11063706Y-13861031D02*
X11073229Y-13851508D01*
X11073229Y-13851508D02*
X11092277Y-13841984D01*
X11235134Y-13841984D02*
X11235134Y-13880079D01*
X11311325Y-13841984D02*
X11311325Y-13880079D01*
X11606563Y-14118174D02*
X11597039Y-14108650D01*
X11597039Y-14108650D02*
X11577991Y-14080079D01*
X11577991Y-14080079D02*
X11568468Y-14061031D01*
X11568468Y-14061031D02*
X11558944Y-14032460D01*
X11558944Y-14032460D02*
X11549420Y-13984841D01*
X11549420Y-13984841D02*
X11549420Y-13946746D01*
X11549420Y-13946746D02*
X11558944Y-13899127D01*
X11558944Y-13899127D02*
X11568468Y-13870555D01*
X11568468Y-13870555D02*
X11577991Y-13851508D01*
X11577991Y-13851508D02*
X11597039Y-13822936D01*
X11597039Y-13822936D02*
X11606563Y-13813412D01*
X11711325Y-13927698D02*
X11692277Y-13918174D01*
X11692277Y-13918174D02*
X11682753Y-13908650D01*
X11682753Y-13908650D02*
X11673229Y-13889603D01*
X11673229Y-13889603D02*
X11673229Y-13880079D01*
X11673229Y-13880079D02*
X11682753Y-13861031D01*
X11682753Y-13861031D02*
X11692277Y-13851508D01*
X11692277Y-13851508D02*
X11711325Y-13841984D01*
X11711325Y-13841984D02*
X11749420Y-13841984D01*
X11749420Y-13841984D02*
X11768468Y-13851508D01*
X11768468Y-13851508D02*
X11777991Y-13861031D01*
X11777991Y-13861031D02*
X11787515Y-13880079D01*
X11787515Y-13880079D02*
X11787515Y-13889603D01*
X11787515Y-13889603D02*
X11777991Y-13908650D01*
X11777991Y-13908650D02*
X11768468Y-13918174D01*
X11768468Y-13918174D02*
X11749420Y-13927698D01*
X11749420Y-13927698D02*
X11711325Y-13927698D01*
X11711325Y-13927698D02*
X11692277Y-13937222D01*
X11692277Y-13937222D02*
X11682753Y-13946746D01*
X11682753Y-13946746D02*
X11673229Y-13965793D01*
X11673229Y-13965793D02*
X11673229Y-14003888D01*
X11673229Y-14003888D02*
X11682753Y-14022936D01*
X11682753Y-14022936D02*
X11692277Y-14032460D01*
X11692277Y-14032460D02*
X11711325Y-14041984D01*
X11711325Y-14041984D02*
X11749420Y-14041984D01*
X11749420Y-14041984D02*
X11768468Y-14032460D01*
X11768468Y-14032460D02*
X11777991Y-14022936D01*
X11777991Y-14022936D02*
X11787515Y-14003888D01*
X11787515Y-14003888D02*
X11787515Y-13965793D01*
X11787515Y-13965793D02*
X11777991Y-13946746D01*
X11777991Y-13946746D02*
X11768468Y-13937222D01*
X11768468Y-13937222D02*
X11749420Y-13927698D01*
X11958944Y-13908650D02*
X11958944Y-14041984D01*
X11911325Y-13832460D02*
X11863706Y-13975317D01*
X11863706Y-13975317D02*
X11987515Y-13975317D01*
X12216087Y-14041984D02*
X12216087Y-13841984D01*
X12301801Y-14041984D02*
X12301801Y-13937222D01*
X12301801Y-13937222D02*
X12292277Y-13918174D01*
X12292277Y-13918174D02*
X12273230Y-13908650D01*
X12273230Y-13908650D02*
X12244658Y-13908650D01*
X12244658Y-13908650D02*
X12225610Y-13918174D01*
X12225610Y-13918174D02*
X12216087Y-13927698D01*
X12425610Y-14041984D02*
X12406563Y-14032460D01*
X12406563Y-14032460D02*
X12397039Y-14022936D01*
X12397039Y-14022936D02*
X12387515Y-14003888D01*
X12387515Y-14003888D02*
X12387515Y-13946746D01*
X12387515Y-13946746D02*
X12397039Y-13927698D01*
X12397039Y-13927698D02*
X12406563Y-13918174D01*
X12406563Y-13918174D02*
X12425610Y-13908650D01*
X12425610Y-13908650D02*
X12454182Y-13908650D01*
X12454182Y-13908650D02*
X12473230Y-13918174D01*
X12473230Y-13918174D02*
X12482753Y-13927698D01*
X12482753Y-13927698D02*
X12492277Y-13946746D01*
X12492277Y-13946746D02*
X12492277Y-14003888D01*
X12492277Y-14003888D02*
X12482753Y-14022936D01*
X12482753Y-14022936D02*
X12473230Y-14032460D01*
X12473230Y-14032460D02*
X12454182Y-14041984D01*
X12454182Y-14041984D02*
X12425610Y-14041984D01*
X12606563Y-14041984D02*
X12587515Y-14032460D01*
X12587515Y-14032460D02*
X12577991Y-14013412D01*
X12577991Y-14013412D02*
X12577991Y-13841984D01*
X12758944Y-14032460D02*
X12739896Y-14041984D01*
X12739896Y-14041984D02*
X12701801Y-14041984D01*
X12701801Y-14041984D02*
X12682753Y-14032460D01*
X12682753Y-14032460D02*
X12673230Y-14013412D01*
X12673230Y-14013412D02*
X12673230Y-13937222D01*
X12673230Y-13937222D02*
X12682753Y-13918174D01*
X12682753Y-13918174D02*
X12701801Y-13908650D01*
X12701801Y-13908650D02*
X12739896Y-13908650D01*
X12739896Y-13908650D02*
X12758944Y-13918174D01*
X12758944Y-13918174D02*
X12768468Y-13937222D01*
X12768468Y-13937222D02*
X12768468Y-13956269D01*
X12768468Y-13956269D02*
X12673230Y-13975317D01*
X12844658Y-14032460D02*
X12863706Y-14041984D01*
X12863706Y-14041984D02*
X12901801Y-14041984D01*
X12901801Y-14041984D02*
X12920849Y-14032460D01*
X12920849Y-14032460D02*
X12930372Y-14013412D01*
X12930372Y-14013412D02*
X12930372Y-14003888D01*
X12930372Y-14003888D02*
X12920849Y-13984841D01*
X12920849Y-13984841D02*
X12901801Y-13975317D01*
X12901801Y-13975317D02*
X12873230Y-13975317D01*
X12873230Y-13975317D02*
X12854182Y-13965793D01*
X12854182Y-13965793D02*
X12844658Y-13946746D01*
X12844658Y-13946746D02*
X12844658Y-13937222D01*
X12844658Y-13937222D02*
X12854182Y-13918174D01*
X12854182Y-13918174D02*
X12873230Y-13908650D01*
X12873230Y-13908650D02*
X12901801Y-13908650D01*
X12901801Y-13908650D02*
X12920849Y-13918174D01*
X12997039Y-14118174D02*
X13006563Y-14108650D01*
X13006563Y-14108650D02*
X13025611Y-14080079D01*
X13025611Y-14080079D02*
X13035134Y-14061031D01*
X13035134Y-14061031D02*
X13044658Y-14032460D01*
X13044658Y-14032460D02*
X13054182Y-13984841D01*
X13054182Y-13984841D02*
X13054182Y-13946746D01*
X13054182Y-13946746D02*
X13044658Y-13899127D01*
X13044658Y-13899127D02*
X13035134Y-13870555D01*
X13035134Y-13870555D02*
X13025611Y-13851508D01*
X13025611Y-13851508D02*
X13006563Y-13822936D01*
X13006563Y-13822936D02*
X12997039Y-13813412D01*
D12*
X7991500Y-14174500D02*
X7991500Y-14254500D01*
X7951500Y-14214500D02*
X8031500Y-14214500D01*
D11*
X8330372Y-14105984D02*
X8349420Y-14105984D01*
X8349420Y-14105984D02*
X8368467Y-14115508D01*
X8368467Y-14115508D02*
X8377991Y-14125031D01*
X8377991Y-14125031D02*
X8387515Y-14144079D01*
X8387515Y-14144079D02*
X8397039Y-14182174D01*
X8397039Y-14182174D02*
X8397039Y-14229793D01*
X8397039Y-14229793D02*
X8387515Y-14267888D01*
X8387515Y-14267888D02*
X8377991Y-14286936D01*
X8377991Y-14286936D02*
X8368467Y-14296460D01*
X8368467Y-14296460D02*
X8349420Y-14305984D01*
X8349420Y-14305984D02*
X8330372Y-14305984D01*
X8330372Y-14305984D02*
X8311324Y-14296460D01*
X8311324Y-14296460D02*
X8301801Y-14286936D01*
X8301801Y-14286936D02*
X8292277Y-14267888D01*
X8292277Y-14267888D02*
X8282753Y-14229793D01*
X8282753Y-14229793D02*
X8282753Y-14182174D01*
X8282753Y-14182174D02*
X8292277Y-14144079D01*
X8292277Y-14144079D02*
X8301801Y-14125031D01*
X8301801Y-14125031D02*
X8311324Y-14115508D01*
X8311324Y-14115508D02*
X8330372Y-14105984D01*
X8482753Y-14286936D02*
X8492277Y-14296460D01*
X8492277Y-14296460D02*
X8482753Y-14305984D01*
X8482753Y-14305984D02*
X8473229Y-14296460D01*
X8473229Y-14296460D02*
X8482753Y-14286936D01*
X8482753Y-14286936D02*
X8482753Y-14305984D01*
X8606563Y-14191698D02*
X8587515Y-14182174D01*
X8587515Y-14182174D02*
X8577991Y-14172650D01*
X8577991Y-14172650D02*
X8568467Y-14153603D01*
X8568467Y-14153603D02*
X8568467Y-14144079D01*
X8568467Y-14144079D02*
X8577991Y-14125031D01*
X8577991Y-14125031D02*
X8587515Y-14115508D01*
X8587515Y-14115508D02*
X8606563Y-14105984D01*
X8606563Y-14105984D02*
X8644658Y-14105984D01*
X8644658Y-14105984D02*
X8663705Y-14115508D01*
X8663705Y-14115508D02*
X8673229Y-14125031D01*
X8673229Y-14125031D02*
X8682753Y-14144079D01*
X8682753Y-14144079D02*
X8682753Y-14153603D01*
X8682753Y-14153603D02*
X8673229Y-14172650D01*
X8673229Y-14172650D02*
X8663705Y-14182174D01*
X8663705Y-14182174D02*
X8644658Y-14191698D01*
X8644658Y-14191698D02*
X8606563Y-14191698D01*
X8606563Y-14191698D02*
X8587515Y-14201222D01*
X8587515Y-14201222D02*
X8577991Y-14210746D01*
X8577991Y-14210746D02*
X8568467Y-14229793D01*
X8568467Y-14229793D02*
X8568467Y-14267888D01*
X8568467Y-14267888D02*
X8577991Y-14286936D01*
X8577991Y-14286936D02*
X8587515Y-14296460D01*
X8587515Y-14296460D02*
X8606563Y-14305984D01*
X8606563Y-14305984D02*
X8644658Y-14305984D01*
X8644658Y-14305984D02*
X8663705Y-14296460D01*
X8663705Y-14296460D02*
X8673229Y-14286936D01*
X8673229Y-14286936D02*
X8682753Y-14267888D01*
X8682753Y-14267888D02*
X8682753Y-14229793D01*
X8682753Y-14229793D02*
X8673229Y-14210746D01*
X8673229Y-14210746D02*
X8663705Y-14201222D01*
X8663705Y-14201222D02*
X8644658Y-14191698D01*
X8806563Y-14105984D02*
X8825610Y-14105984D01*
X8825610Y-14105984D02*
X8844658Y-14115508D01*
X8844658Y-14115508D02*
X8854182Y-14125031D01*
X8854182Y-14125031D02*
X8863705Y-14144079D01*
X8863705Y-14144079D02*
X8873229Y-14182174D01*
X8873229Y-14182174D02*
X8873229Y-14229793D01*
X8873229Y-14229793D02*
X8863705Y-14267888D01*
X8863705Y-14267888D02*
X8854182Y-14286936D01*
X8854182Y-14286936D02*
X8844658Y-14296460D01*
X8844658Y-14296460D02*
X8825610Y-14305984D01*
X8825610Y-14305984D02*
X8806563Y-14305984D01*
X8806563Y-14305984D02*
X8787515Y-14296460D01*
X8787515Y-14296460D02*
X8777991Y-14286936D01*
X8777991Y-14286936D02*
X8768467Y-14267888D01*
X8768467Y-14267888D02*
X8758944Y-14229793D01*
X8758944Y-14229793D02*
X8758944Y-14182174D01*
X8758944Y-14182174D02*
X8768467Y-14144079D01*
X8768467Y-14144079D02*
X8777991Y-14125031D01*
X8777991Y-14125031D02*
X8787515Y-14115508D01*
X8787515Y-14115508D02*
X8806563Y-14105984D01*
X8997039Y-14105984D02*
X9016086Y-14105984D01*
X9016086Y-14105984D02*
X9035134Y-14115508D01*
X9035134Y-14115508D02*
X9044658Y-14125031D01*
X9044658Y-14125031D02*
X9054182Y-14144079D01*
X9054182Y-14144079D02*
X9063705Y-14182174D01*
X9063705Y-14182174D02*
X9063705Y-14229793D01*
X9063705Y-14229793D02*
X9054182Y-14267888D01*
X9054182Y-14267888D02*
X9044658Y-14286936D01*
X9044658Y-14286936D02*
X9035134Y-14296460D01*
X9035134Y-14296460D02*
X9016086Y-14305984D01*
X9016086Y-14305984D02*
X8997039Y-14305984D01*
X8997039Y-14305984D02*
X8977991Y-14296460D01*
X8977991Y-14296460D02*
X8968467Y-14286936D01*
X8968467Y-14286936D02*
X8958944Y-14267888D01*
X8958944Y-14267888D02*
X8949420Y-14229793D01*
X8949420Y-14229793D02*
X8949420Y-14182174D01*
X8949420Y-14182174D02*
X8958944Y-14144079D01*
X8958944Y-14144079D02*
X8968467Y-14125031D01*
X8968467Y-14125031D02*
X8977991Y-14115508D01*
X8977991Y-14115508D02*
X8997039Y-14105984D01*
X9149420Y-14305984D02*
X9149420Y-14172650D01*
X9149420Y-14191698D02*
X9158944Y-14182174D01*
X9158944Y-14182174D02*
X9177991Y-14172650D01*
X9177991Y-14172650D02*
X9206563Y-14172650D01*
X9206563Y-14172650D02*
X9225610Y-14182174D01*
X9225610Y-14182174D02*
X9235134Y-14201222D01*
X9235134Y-14201222D02*
X9235134Y-14305984D01*
X9235134Y-14201222D02*
X9244658Y-14182174D01*
X9244658Y-14182174D02*
X9263705Y-14172650D01*
X9263705Y-14172650D02*
X9292277Y-14172650D01*
X9292277Y-14172650D02*
X9311325Y-14182174D01*
X9311325Y-14182174D02*
X9320848Y-14201222D01*
X9320848Y-14201222D02*
X9320848Y-14305984D01*
X9416086Y-14305984D02*
X9416086Y-14172650D01*
X9416086Y-14191698D02*
X9425610Y-14182174D01*
X9425610Y-14182174D02*
X9444658Y-14172650D01*
X9444658Y-14172650D02*
X9473229Y-14172650D01*
X9473229Y-14172650D02*
X9492277Y-14182174D01*
X9492277Y-14182174D02*
X9501801Y-14201222D01*
X9501801Y-14201222D02*
X9501801Y-14305984D01*
X9501801Y-14201222D02*
X9511325Y-14182174D01*
X9511325Y-14182174D02*
X9530372Y-14172650D01*
X9530372Y-14172650D02*
X9558944Y-14172650D01*
X9558944Y-14172650D02*
X9577991Y-14182174D01*
X9577991Y-14182174D02*
X9587515Y-14201222D01*
X9587515Y-14201222D02*
X9587515Y-14305984D01*
X9977991Y-14096460D02*
X9806563Y-14353603D01*
X10235134Y-14105984D02*
X10254182Y-14105984D01*
X10254182Y-14105984D02*
X10273229Y-14115508D01*
X10273229Y-14115508D02*
X10282753Y-14125031D01*
X10282753Y-14125031D02*
X10292277Y-14144079D01*
X10292277Y-14144079D02*
X10301801Y-14182174D01*
X10301801Y-14182174D02*
X10301801Y-14229793D01*
X10301801Y-14229793D02*
X10292277Y-14267888D01*
X10292277Y-14267888D02*
X10282753Y-14286936D01*
X10282753Y-14286936D02*
X10273229Y-14296460D01*
X10273229Y-14296460D02*
X10254182Y-14305984D01*
X10254182Y-14305984D02*
X10235134Y-14305984D01*
X10235134Y-14305984D02*
X10216087Y-14296460D01*
X10216087Y-14296460D02*
X10206563Y-14286936D01*
X10206563Y-14286936D02*
X10197039Y-14267888D01*
X10197039Y-14267888D02*
X10187515Y-14229793D01*
X10187515Y-14229793D02*
X10187515Y-14182174D01*
X10187515Y-14182174D02*
X10197039Y-14144079D01*
X10197039Y-14144079D02*
X10206563Y-14125031D01*
X10206563Y-14125031D02*
X10216087Y-14115508D01*
X10216087Y-14115508D02*
X10235134Y-14105984D01*
X10387515Y-14286936D02*
X10397039Y-14296460D01*
X10397039Y-14296460D02*
X10387515Y-14305984D01*
X10387515Y-14305984D02*
X10377991Y-14296460D01*
X10377991Y-14296460D02*
X10387515Y-14286936D01*
X10387515Y-14286936D02*
X10387515Y-14305984D01*
X10520848Y-14105984D02*
X10539896Y-14105984D01*
X10539896Y-14105984D02*
X10558944Y-14115508D01*
X10558944Y-14115508D02*
X10568468Y-14125031D01*
X10568468Y-14125031D02*
X10577991Y-14144079D01*
X10577991Y-14144079D02*
X10587515Y-14182174D01*
X10587515Y-14182174D02*
X10587515Y-14229793D01*
X10587515Y-14229793D02*
X10577991Y-14267888D01*
X10577991Y-14267888D02*
X10568468Y-14286936D01*
X10568468Y-14286936D02*
X10558944Y-14296460D01*
X10558944Y-14296460D02*
X10539896Y-14305984D01*
X10539896Y-14305984D02*
X10520848Y-14305984D01*
X10520848Y-14305984D02*
X10501801Y-14296460D01*
X10501801Y-14296460D02*
X10492277Y-14286936D01*
X10492277Y-14286936D02*
X10482753Y-14267888D01*
X10482753Y-14267888D02*
X10473229Y-14229793D01*
X10473229Y-14229793D02*
X10473229Y-14182174D01*
X10473229Y-14182174D02*
X10482753Y-14144079D01*
X10482753Y-14144079D02*
X10492277Y-14125031D01*
X10492277Y-14125031D02*
X10501801Y-14115508D01*
X10501801Y-14115508D02*
X10520848Y-14105984D01*
X10654182Y-14105984D02*
X10777991Y-14105984D01*
X10777991Y-14105984D02*
X10711325Y-14182174D01*
X10711325Y-14182174D02*
X10739896Y-14182174D01*
X10739896Y-14182174D02*
X10758944Y-14191698D01*
X10758944Y-14191698D02*
X10768468Y-14201222D01*
X10768468Y-14201222D02*
X10777991Y-14220269D01*
X10777991Y-14220269D02*
X10777991Y-14267888D01*
X10777991Y-14267888D02*
X10768468Y-14286936D01*
X10768468Y-14286936D02*
X10758944Y-14296460D01*
X10758944Y-14296460D02*
X10739896Y-14305984D01*
X10739896Y-14305984D02*
X10682753Y-14305984D01*
X10682753Y-14305984D02*
X10663706Y-14296460D01*
X10663706Y-14296460D02*
X10654182Y-14286936D01*
X10968468Y-14305984D02*
X10854182Y-14305984D01*
X10911325Y-14305984D02*
X10911325Y-14105984D01*
X10911325Y-14105984D02*
X10892277Y-14134555D01*
X10892277Y-14134555D02*
X10873229Y-14153603D01*
X10873229Y-14153603D02*
X10854182Y-14163127D01*
X11149420Y-14105984D02*
X11054182Y-14105984D01*
X11054182Y-14105984D02*
X11044658Y-14201222D01*
X11044658Y-14201222D02*
X11054182Y-14191698D01*
X11054182Y-14191698D02*
X11073229Y-14182174D01*
X11073229Y-14182174D02*
X11120849Y-14182174D01*
X11120849Y-14182174D02*
X11139896Y-14191698D01*
X11139896Y-14191698D02*
X11149420Y-14201222D01*
X11149420Y-14201222D02*
X11158944Y-14220269D01*
X11158944Y-14220269D02*
X11158944Y-14267888D01*
X11158944Y-14267888D02*
X11149420Y-14286936D01*
X11149420Y-14286936D02*
X11139896Y-14296460D01*
X11139896Y-14296460D02*
X11120849Y-14305984D01*
X11120849Y-14305984D02*
X11073229Y-14305984D01*
X11073229Y-14305984D02*
X11054182Y-14296460D01*
X11054182Y-14296460D02*
X11044658Y-14286936D01*
X11235134Y-14105984D02*
X11235134Y-14144079D01*
X11311325Y-14105984D02*
X11311325Y-14144079D01*
X11606563Y-14382174D02*
X11597039Y-14372650D01*
X11597039Y-14372650D02*
X11577991Y-14344079D01*
X11577991Y-14344079D02*
X11568468Y-14325031D01*
X11568468Y-14325031D02*
X11558944Y-14296460D01*
X11558944Y-14296460D02*
X11549420Y-14248841D01*
X11549420Y-14248841D02*
X11549420Y-14210746D01*
X11549420Y-14210746D02*
X11558944Y-14163127D01*
X11558944Y-14163127D02*
X11568468Y-14134555D01*
X11568468Y-14134555D02*
X11577991Y-14115508D01*
X11577991Y-14115508D02*
X11597039Y-14086936D01*
X11597039Y-14086936D02*
X11606563Y-14077412D01*
X11711325Y-14191698D02*
X11692277Y-14182174D01*
X11692277Y-14182174D02*
X11682753Y-14172650D01*
X11682753Y-14172650D02*
X11673229Y-14153603D01*
X11673229Y-14153603D02*
X11673229Y-14144079D01*
X11673229Y-14144079D02*
X11682753Y-14125031D01*
X11682753Y-14125031D02*
X11692277Y-14115508D01*
X11692277Y-14115508D02*
X11711325Y-14105984D01*
X11711325Y-14105984D02*
X11749420Y-14105984D01*
X11749420Y-14105984D02*
X11768468Y-14115508D01*
X11768468Y-14115508D02*
X11777991Y-14125031D01*
X11777991Y-14125031D02*
X11787515Y-14144079D01*
X11787515Y-14144079D02*
X11787515Y-14153603D01*
X11787515Y-14153603D02*
X11777991Y-14172650D01*
X11777991Y-14172650D02*
X11768468Y-14182174D01*
X11768468Y-14182174D02*
X11749420Y-14191698D01*
X11749420Y-14191698D02*
X11711325Y-14191698D01*
X11711325Y-14191698D02*
X11692277Y-14201222D01*
X11692277Y-14201222D02*
X11682753Y-14210746D01*
X11682753Y-14210746D02*
X11673229Y-14229793D01*
X11673229Y-14229793D02*
X11673229Y-14267888D01*
X11673229Y-14267888D02*
X11682753Y-14286936D01*
X11682753Y-14286936D02*
X11692277Y-14296460D01*
X11692277Y-14296460D02*
X11711325Y-14305984D01*
X11711325Y-14305984D02*
X11749420Y-14305984D01*
X11749420Y-14305984D02*
X11768468Y-14296460D01*
X11768468Y-14296460D02*
X11777991Y-14286936D01*
X11777991Y-14286936D02*
X11787515Y-14267888D01*
X11787515Y-14267888D02*
X11787515Y-14229793D01*
X11787515Y-14229793D02*
X11777991Y-14210746D01*
X11777991Y-14210746D02*
X11768468Y-14201222D01*
X11768468Y-14201222D02*
X11749420Y-14191698D01*
X11911325Y-14105984D02*
X11930372Y-14105984D01*
X11930372Y-14105984D02*
X11949420Y-14115508D01*
X11949420Y-14115508D02*
X11958944Y-14125031D01*
X11958944Y-14125031D02*
X11968468Y-14144079D01*
X11968468Y-14144079D02*
X11977991Y-14182174D01*
X11977991Y-14182174D02*
X11977991Y-14229793D01*
X11977991Y-14229793D02*
X11968468Y-14267888D01*
X11968468Y-14267888D02*
X11958944Y-14286936D01*
X11958944Y-14286936D02*
X11949420Y-14296460D01*
X11949420Y-14296460D02*
X11930372Y-14305984D01*
X11930372Y-14305984D02*
X11911325Y-14305984D01*
X11911325Y-14305984D02*
X11892277Y-14296460D01*
X11892277Y-14296460D02*
X11882753Y-14286936D01*
X11882753Y-14286936D02*
X11873229Y-14267888D01*
X11873229Y-14267888D02*
X11863706Y-14229793D01*
X11863706Y-14229793D02*
X11863706Y-14182174D01*
X11863706Y-14182174D02*
X11873229Y-14144079D01*
X11873229Y-14144079D02*
X11882753Y-14125031D01*
X11882753Y-14125031D02*
X11892277Y-14115508D01*
X11892277Y-14115508D02*
X11911325Y-14105984D01*
X12216087Y-14305984D02*
X12216087Y-14105984D01*
X12301801Y-14305984D02*
X12301801Y-14201222D01*
X12301801Y-14201222D02*
X12292277Y-14182174D01*
X12292277Y-14182174D02*
X12273230Y-14172650D01*
X12273230Y-14172650D02*
X12244658Y-14172650D01*
X12244658Y-14172650D02*
X12225610Y-14182174D01*
X12225610Y-14182174D02*
X12216087Y-14191698D01*
X12425610Y-14305984D02*
X12406563Y-14296460D01*
X12406563Y-14296460D02*
X12397039Y-14286936D01*
X12397039Y-14286936D02*
X12387515Y-14267888D01*
X12387515Y-14267888D02*
X12387515Y-14210746D01*
X12387515Y-14210746D02*
X12397039Y-14191698D01*
X12397039Y-14191698D02*
X12406563Y-14182174D01*
X12406563Y-14182174D02*
X12425610Y-14172650D01*
X12425610Y-14172650D02*
X12454182Y-14172650D01*
X12454182Y-14172650D02*
X12473230Y-14182174D01*
X12473230Y-14182174D02*
X12482753Y-14191698D01*
X12482753Y-14191698D02*
X12492277Y-14210746D01*
X12492277Y-14210746D02*
X12492277Y-14267888D01*
X12492277Y-14267888D02*
X12482753Y-14286936D01*
X12482753Y-14286936D02*
X12473230Y-14296460D01*
X12473230Y-14296460D02*
X12454182Y-14305984D01*
X12454182Y-14305984D02*
X12425610Y-14305984D01*
X12606563Y-14305984D02*
X12587515Y-14296460D01*
X12587515Y-14296460D02*
X12577991Y-14277412D01*
X12577991Y-14277412D02*
X12577991Y-14105984D01*
X12758944Y-14296460D02*
X12739896Y-14305984D01*
X12739896Y-14305984D02*
X12701801Y-14305984D01*
X12701801Y-14305984D02*
X12682753Y-14296460D01*
X12682753Y-14296460D02*
X12673230Y-14277412D01*
X12673230Y-14277412D02*
X12673230Y-14201222D01*
X12673230Y-14201222D02*
X12682753Y-14182174D01*
X12682753Y-14182174D02*
X12701801Y-14172650D01*
X12701801Y-14172650D02*
X12739896Y-14172650D01*
X12739896Y-14172650D02*
X12758944Y-14182174D01*
X12758944Y-14182174D02*
X12768468Y-14201222D01*
X12768468Y-14201222D02*
X12768468Y-14220269D01*
X12768468Y-14220269D02*
X12673230Y-14239317D01*
X12844658Y-14296460D02*
X12863706Y-14305984D01*
X12863706Y-14305984D02*
X12901801Y-14305984D01*
X12901801Y-14305984D02*
X12920849Y-14296460D01*
X12920849Y-14296460D02*
X12930372Y-14277412D01*
X12930372Y-14277412D02*
X12930372Y-14267888D01*
X12930372Y-14267888D02*
X12920849Y-14248841D01*
X12920849Y-14248841D02*
X12901801Y-14239317D01*
X12901801Y-14239317D02*
X12873230Y-14239317D01*
X12873230Y-14239317D02*
X12854182Y-14229793D01*
X12854182Y-14229793D02*
X12844658Y-14210746D01*
X12844658Y-14210746D02*
X12844658Y-14201222D01*
X12844658Y-14201222D02*
X12854182Y-14182174D01*
X12854182Y-14182174D02*
X12873230Y-14172650D01*
X12873230Y-14172650D02*
X12901801Y-14172650D01*
X12901801Y-14172650D02*
X12920849Y-14182174D01*
X12997039Y-14382174D02*
X13006563Y-14372650D01*
X13006563Y-14372650D02*
X13025611Y-14344079D01*
X13025611Y-14344079D02*
X13035134Y-14325031D01*
X13035134Y-14325031D02*
X13044658Y-14296460D01*
X13044658Y-14296460D02*
X13054182Y-14248841D01*
X13054182Y-14248841D02*
X13054182Y-14210746D01*
X13054182Y-14210746D02*
X13044658Y-14163127D01*
X13044658Y-14163127D02*
X13035134Y-14134555D01*
X13035134Y-14134555D02*
X13025611Y-14115508D01*
X13025611Y-14115508D02*
X13006563Y-14086936D01*
X13006563Y-14086936D02*
X12997039Y-14077412D01*
D12*
X8016856Y-14513856D02*
X8016856Y-14443144D01*
X7946144Y-14443144D01*
X7946144Y-14513856D01*
X8016856Y-14513856D01*
D11*
X8397039Y-14569984D02*
X8282753Y-14569984D01*
X8339896Y-14569984D02*
X8339896Y-14369984D01*
X8339896Y-14369984D02*
X8320848Y-14398555D01*
X8320848Y-14398555D02*
X8301801Y-14417603D01*
X8301801Y-14417603D02*
X8282753Y-14427127D01*
X8482753Y-14550936D02*
X8492277Y-14560460D01*
X8492277Y-14560460D02*
X8482753Y-14569984D01*
X8482753Y-14569984D02*
X8473229Y-14560460D01*
X8473229Y-14560460D02*
X8482753Y-14550936D01*
X8482753Y-14550936D02*
X8482753Y-14569984D01*
X8616086Y-14369984D02*
X8635134Y-14369984D01*
X8635134Y-14369984D02*
X8654182Y-14379508D01*
X8654182Y-14379508D02*
X8663705Y-14389031D01*
X8663705Y-14389031D02*
X8673229Y-14408079D01*
X8673229Y-14408079D02*
X8682753Y-14446174D01*
X8682753Y-14446174D02*
X8682753Y-14493793D01*
X8682753Y-14493793D02*
X8673229Y-14531888D01*
X8673229Y-14531888D02*
X8663705Y-14550936D01*
X8663705Y-14550936D02*
X8654182Y-14560460D01*
X8654182Y-14560460D02*
X8635134Y-14569984D01*
X8635134Y-14569984D02*
X8616086Y-14569984D01*
X8616086Y-14569984D02*
X8597039Y-14560460D01*
X8597039Y-14560460D02*
X8587515Y-14550936D01*
X8587515Y-14550936D02*
X8577991Y-14531888D01*
X8577991Y-14531888D02*
X8568467Y-14493793D01*
X8568467Y-14493793D02*
X8568467Y-14446174D01*
X8568467Y-14446174D02*
X8577991Y-14408079D01*
X8577991Y-14408079D02*
X8587515Y-14389031D01*
X8587515Y-14389031D02*
X8597039Y-14379508D01*
X8597039Y-14379508D02*
X8616086Y-14369984D01*
X8806563Y-14369984D02*
X8825610Y-14369984D01*
X8825610Y-14369984D02*
X8844658Y-14379508D01*
X8844658Y-14379508D02*
X8854182Y-14389031D01*
X8854182Y-14389031D02*
X8863705Y-14408079D01*
X8863705Y-14408079D02*
X8873229Y-14446174D01*
X8873229Y-14446174D02*
X8873229Y-14493793D01*
X8873229Y-14493793D02*
X8863705Y-14531888D01*
X8863705Y-14531888D02*
X8854182Y-14550936D01*
X8854182Y-14550936D02*
X8844658Y-14560460D01*
X8844658Y-14560460D02*
X8825610Y-14569984D01*
X8825610Y-14569984D02*
X8806563Y-14569984D01*
X8806563Y-14569984D02*
X8787515Y-14560460D01*
X8787515Y-14560460D02*
X8777991Y-14550936D01*
X8777991Y-14550936D02*
X8768467Y-14531888D01*
X8768467Y-14531888D02*
X8758944Y-14493793D01*
X8758944Y-14493793D02*
X8758944Y-14446174D01*
X8758944Y-14446174D02*
X8768467Y-14408079D01*
X8768467Y-14408079D02*
X8777991Y-14389031D01*
X8777991Y-14389031D02*
X8787515Y-14379508D01*
X8787515Y-14379508D02*
X8806563Y-14369984D01*
X8997039Y-14369984D02*
X9016086Y-14369984D01*
X9016086Y-14369984D02*
X9035134Y-14379508D01*
X9035134Y-14379508D02*
X9044658Y-14389031D01*
X9044658Y-14389031D02*
X9054182Y-14408079D01*
X9054182Y-14408079D02*
X9063705Y-14446174D01*
X9063705Y-14446174D02*
X9063705Y-14493793D01*
X9063705Y-14493793D02*
X9054182Y-14531888D01*
X9054182Y-14531888D02*
X9044658Y-14550936D01*
X9044658Y-14550936D02*
X9035134Y-14560460D01*
X9035134Y-14560460D02*
X9016086Y-14569984D01*
X9016086Y-14569984D02*
X8997039Y-14569984D01*
X8997039Y-14569984D02*
X8977991Y-14560460D01*
X8977991Y-14560460D02*
X8968467Y-14550936D01*
X8968467Y-14550936D02*
X8958944Y-14531888D01*
X8958944Y-14531888D02*
X8949420Y-14493793D01*
X8949420Y-14493793D02*
X8949420Y-14446174D01*
X8949420Y-14446174D02*
X8958944Y-14408079D01*
X8958944Y-14408079D02*
X8968467Y-14389031D01*
X8968467Y-14389031D02*
X8977991Y-14379508D01*
X8977991Y-14379508D02*
X8997039Y-14369984D01*
X9149420Y-14569984D02*
X9149420Y-14436650D01*
X9149420Y-14455698D02*
X9158944Y-14446174D01*
X9158944Y-14446174D02*
X9177991Y-14436650D01*
X9177991Y-14436650D02*
X9206563Y-14436650D01*
X9206563Y-14436650D02*
X9225610Y-14446174D01*
X9225610Y-14446174D02*
X9235134Y-14465222D01*
X9235134Y-14465222D02*
X9235134Y-14569984D01*
X9235134Y-14465222D02*
X9244658Y-14446174D01*
X9244658Y-14446174D02*
X9263705Y-14436650D01*
X9263705Y-14436650D02*
X9292277Y-14436650D01*
X9292277Y-14436650D02*
X9311325Y-14446174D01*
X9311325Y-14446174D02*
X9320848Y-14465222D01*
X9320848Y-14465222D02*
X9320848Y-14569984D01*
X9416086Y-14569984D02*
X9416086Y-14436650D01*
X9416086Y-14455698D02*
X9425610Y-14446174D01*
X9425610Y-14446174D02*
X9444658Y-14436650D01*
X9444658Y-14436650D02*
X9473229Y-14436650D01*
X9473229Y-14436650D02*
X9492277Y-14446174D01*
X9492277Y-14446174D02*
X9501801Y-14465222D01*
X9501801Y-14465222D02*
X9501801Y-14569984D01*
X9501801Y-14465222D02*
X9511325Y-14446174D01*
X9511325Y-14446174D02*
X9530372Y-14436650D01*
X9530372Y-14436650D02*
X9558944Y-14436650D01*
X9558944Y-14436650D02*
X9577991Y-14446174D01*
X9577991Y-14446174D02*
X9587515Y-14465222D01*
X9587515Y-14465222D02*
X9587515Y-14569984D01*
X9977991Y-14360460D02*
X9806563Y-14617603D01*
X10235134Y-14369984D02*
X10254182Y-14369984D01*
X10254182Y-14369984D02*
X10273229Y-14379508D01*
X10273229Y-14379508D02*
X10282753Y-14389031D01*
X10282753Y-14389031D02*
X10292277Y-14408079D01*
X10292277Y-14408079D02*
X10301801Y-14446174D01*
X10301801Y-14446174D02*
X10301801Y-14493793D01*
X10301801Y-14493793D02*
X10292277Y-14531888D01*
X10292277Y-14531888D02*
X10282753Y-14550936D01*
X10282753Y-14550936D02*
X10273229Y-14560460D01*
X10273229Y-14560460D02*
X10254182Y-14569984D01*
X10254182Y-14569984D02*
X10235134Y-14569984D01*
X10235134Y-14569984D02*
X10216087Y-14560460D01*
X10216087Y-14560460D02*
X10206563Y-14550936D01*
X10206563Y-14550936D02*
X10197039Y-14531888D01*
X10197039Y-14531888D02*
X10187515Y-14493793D01*
X10187515Y-14493793D02*
X10187515Y-14446174D01*
X10187515Y-14446174D02*
X10197039Y-14408079D01*
X10197039Y-14408079D02*
X10206563Y-14389031D01*
X10206563Y-14389031D02*
X10216087Y-14379508D01*
X10216087Y-14379508D02*
X10235134Y-14369984D01*
X10387515Y-14550936D02*
X10397039Y-14560460D01*
X10397039Y-14560460D02*
X10387515Y-14569984D01*
X10387515Y-14569984D02*
X10377991Y-14560460D01*
X10377991Y-14560460D02*
X10387515Y-14550936D01*
X10387515Y-14550936D02*
X10387515Y-14569984D01*
X10520848Y-14369984D02*
X10539896Y-14369984D01*
X10539896Y-14369984D02*
X10558944Y-14379508D01*
X10558944Y-14379508D02*
X10568468Y-14389031D01*
X10568468Y-14389031D02*
X10577991Y-14408079D01*
X10577991Y-14408079D02*
X10587515Y-14446174D01*
X10587515Y-14446174D02*
X10587515Y-14493793D01*
X10587515Y-14493793D02*
X10577991Y-14531888D01*
X10577991Y-14531888D02*
X10568468Y-14550936D01*
X10568468Y-14550936D02*
X10558944Y-14560460D01*
X10558944Y-14560460D02*
X10539896Y-14569984D01*
X10539896Y-14569984D02*
X10520848Y-14569984D01*
X10520848Y-14569984D02*
X10501801Y-14560460D01*
X10501801Y-14560460D02*
X10492277Y-14550936D01*
X10492277Y-14550936D02*
X10482753Y-14531888D01*
X10482753Y-14531888D02*
X10473229Y-14493793D01*
X10473229Y-14493793D02*
X10473229Y-14446174D01*
X10473229Y-14446174D02*
X10482753Y-14408079D01*
X10482753Y-14408079D02*
X10492277Y-14389031D01*
X10492277Y-14389031D02*
X10501801Y-14379508D01*
X10501801Y-14379508D02*
X10520848Y-14369984D01*
X10654182Y-14369984D02*
X10777991Y-14369984D01*
X10777991Y-14369984D02*
X10711325Y-14446174D01*
X10711325Y-14446174D02*
X10739896Y-14446174D01*
X10739896Y-14446174D02*
X10758944Y-14455698D01*
X10758944Y-14455698D02*
X10768468Y-14465222D01*
X10768468Y-14465222D02*
X10777991Y-14484269D01*
X10777991Y-14484269D02*
X10777991Y-14531888D01*
X10777991Y-14531888D02*
X10768468Y-14550936D01*
X10768468Y-14550936D02*
X10758944Y-14560460D01*
X10758944Y-14560460D02*
X10739896Y-14569984D01*
X10739896Y-14569984D02*
X10682753Y-14569984D01*
X10682753Y-14569984D02*
X10663706Y-14560460D01*
X10663706Y-14560460D02*
X10654182Y-14550936D01*
X10873229Y-14569984D02*
X10911325Y-14569984D01*
X10911325Y-14569984D02*
X10930372Y-14560460D01*
X10930372Y-14560460D02*
X10939896Y-14550936D01*
X10939896Y-14550936D02*
X10958944Y-14522365D01*
X10958944Y-14522365D02*
X10968468Y-14484269D01*
X10968468Y-14484269D02*
X10968468Y-14408079D01*
X10968468Y-14408079D02*
X10958944Y-14389031D01*
X10958944Y-14389031D02*
X10949420Y-14379508D01*
X10949420Y-14379508D02*
X10930372Y-14369984D01*
X10930372Y-14369984D02*
X10892277Y-14369984D01*
X10892277Y-14369984D02*
X10873229Y-14379508D01*
X10873229Y-14379508D02*
X10863706Y-14389031D01*
X10863706Y-14389031D02*
X10854182Y-14408079D01*
X10854182Y-14408079D02*
X10854182Y-14455698D01*
X10854182Y-14455698D02*
X10863706Y-14474746D01*
X10863706Y-14474746D02*
X10873229Y-14484269D01*
X10873229Y-14484269D02*
X10892277Y-14493793D01*
X10892277Y-14493793D02*
X10930372Y-14493793D01*
X10930372Y-14493793D02*
X10949420Y-14484269D01*
X10949420Y-14484269D02*
X10958944Y-14474746D01*
X10958944Y-14474746D02*
X10968468Y-14455698D01*
X11139896Y-14436650D02*
X11139896Y-14569984D01*
X11092277Y-14360460D02*
X11044658Y-14503317D01*
X11044658Y-14503317D02*
X11168468Y-14503317D01*
X11235134Y-14369984D02*
X11235134Y-14408079D01*
X11311325Y-14369984D02*
X11311325Y-14408079D01*
X11606563Y-14646174D02*
X11597039Y-14636650D01*
X11597039Y-14636650D02*
X11577991Y-14608079D01*
X11577991Y-14608079D02*
X11568468Y-14589031D01*
X11568468Y-14589031D02*
X11558944Y-14560460D01*
X11558944Y-14560460D02*
X11549420Y-14512841D01*
X11549420Y-14512841D02*
X11549420Y-14474746D01*
X11549420Y-14474746D02*
X11558944Y-14427127D01*
X11558944Y-14427127D02*
X11568468Y-14398555D01*
X11568468Y-14398555D02*
X11577991Y-14379508D01*
X11577991Y-14379508D02*
X11597039Y-14350936D01*
X11597039Y-14350936D02*
X11606563Y-14341412D01*
X11673229Y-14389031D02*
X11682753Y-14379508D01*
X11682753Y-14379508D02*
X11701801Y-14369984D01*
X11701801Y-14369984D02*
X11749420Y-14369984D01*
X11749420Y-14369984D02*
X11768468Y-14379508D01*
X11768468Y-14379508D02*
X11777991Y-14389031D01*
X11777991Y-14389031D02*
X11787515Y-14408079D01*
X11787515Y-14408079D02*
X11787515Y-14427127D01*
X11787515Y-14427127D02*
X11777991Y-14455698D01*
X11777991Y-14455698D02*
X11663706Y-14569984D01*
X11663706Y-14569984D02*
X11787515Y-14569984D01*
X11863706Y-14389031D02*
X11873229Y-14379508D01*
X11873229Y-14379508D02*
X11892277Y-14369984D01*
X11892277Y-14369984D02*
X11939896Y-14369984D01*
X11939896Y-14369984D02*
X11958944Y-14379508D01*
X11958944Y-14379508D02*
X11968468Y-14389031D01*
X11968468Y-14389031D02*
X11977991Y-14408079D01*
X11977991Y-14408079D02*
X11977991Y-14427127D01*
X11977991Y-14427127D02*
X11968468Y-14455698D01*
X11968468Y-14455698D02*
X11854182Y-14569984D01*
X11854182Y-14569984D02*
X11977991Y-14569984D01*
X12216087Y-14569984D02*
X12216087Y-14369984D01*
X12301801Y-14569984D02*
X12301801Y-14465222D01*
X12301801Y-14465222D02*
X12292277Y-14446174D01*
X12292277Y-14446174D02*
X12273230Y-14436650D01*
X12273230Y-14436650D02*
X12244658Y-14436650D01*
X12244658Y-14436650D02*
X12225610Y-14446174D01*
X12225610Y-14446174D02*
X12216087Y-14455698D01*
X12425610Y-14569984D02*
X12406563Y-14560460D01*
X12406563Y-14560460D02*
X12397039Y-14550936D01*
X12397039Y-14550936D02*
X12387515Y-14531888D01*
X12387515Y-14531888D02*
X12387515Y-14474746D01*
X12387515Y-14474746D02*
X12397039Y-14455698D01*
X12397039Y-14455698D02*
X12406563Y-14446174D01*
X12406563Y-14446174D02*
X12425610Y-14436650D01*
X12425610Y-14436650D02*
X12454182Y-14436650D01*
X12454182Y-14436650D02*
X12473230Y-14446174D01*
X12473230Y-14446174D02*
X12482753Y-14455698D01*
X12482753Y-14455698D02*
X12492277Y-14474746D01*
X12492277Y-14474746D02*
X12492277Y-14531888D01*
X12492277Y-14531888D02*
X12482753Y-14550936D01*
X12482753Y-14550936D02*
X12473230Y-14560460D01*
X12473230Y-14560460D02*
X12454182Y-14569984D01*
X12454182Y-14569984D02*
X12425610Y-14569984D01*
X12606563Y-14569984D02*
X12587515Y-14560460D01*
X12587515Y-14560460D02*
X12577991Y-14541412D01*
X12577991Y-14541412D02*
X12577991Y-14369984D01*
X12758944Y-14560460D02*
X12739896Y-14569984D01*
X12739896Y-14569984D02*
X12701801Y-14569984D01*
X12701801Y-14569984D02*
X12682753Y-14560460D01*
X12682753Y-14560460D02*
X12673230Y-14541412D01*
X12673230Y-14541412D02*
X12673230Y-14465222D01*
X12673230Y-14465222D02*
X12682753Y-14446174D01*
X12682753Y-14446174D02*
X12701801Y-14436650D01*
X12701801Y-14436650D02*
X12739896Y-14436650D01*
X12739896Y-14436650D02*
X12758944Y-14446174D01*
X12758944Y-14446174D02*
X12768468Y-14465222D01*
X12768468Y-14465222D02*
X12768468Y-14484269D01*
X12768468Y-14484269D02*
X12673230Y-14503317D01*
X12844658Y-14560460D02*
X12863706Y-14569984D01*
X12863706Y-14569984D02*
X12901801Y-14569984D01*
X12901801Y-14569984D02*
X12920849Y-14560460D01*
X12920849Y-14560460D02*
X12930372Y-14541412D01*
X12930372Y-14541412D02*
X12930372Y-14531888D01*
X12930372Y-14531888D02*
X12920849Y-14512841D01*
X12920849Y-14512841D02*
X12901801Y-14503317D01*
X12901801Y-14503317D02*
X12873230Y-14503317D01*
X12873230Y-14503317D02*
X12854182Y-14493793D01*
X12854182Y-14493793D02*
X12844658Y-14474746D01*
X12844658Y-14474746D02*
X12844658Y-14465222D01*
X12844658Y-14465222D02*
X12854182Y-14446174D01*
X12854182Y-14446174D02*
X12873230Y-14436650D01*
X12873230Y-14436650D02*
X12901801Y-14436650D01*
X12901801Y-14436650D02*
X12920849Y-14446174D01*
X12997039Y-14646174D02*
X13006563Y-14636650D01*
X13006563Y-14636650D02*
X13025611Y-14608079D01*
X13025611Y-14608079D02*
X13035134Y-14589031D01*
X13035134Y-14589031D02*
X13044658Y-14560460D01*
X13044658Y-14560460D02*
X13054182Y-14512841D01*
X13054182Y-14512841D02*
X13054182Y-14474746D01*
X13054182Y-14474746D02*
X13044658Y-14427127D01*
X13044658Y-14427127D02*
X13035134Y-14398555D01*
X13035134Y-14398555D02*
X13025611Y-14379508D01*
X13025611Y-14379508D02*
X13006563Y-14350936D01*
X13006563Y-14350936D02*
X12997039Y-14341412D01*
D13*
X7976500Y-14797500D02*
X8031500Y-14742500D01*
X7976500Y-14687500D01*
X7921500Y-14742500D01*
X7976500Y-14797500D01*
D11*
X8397039Y-14833984D02*
X8282753Y-14833984D01*
X8339896Y-14833984D02*
X8339896Y-14633984D01*
X8339896Y-14633984D02*
X8320848Y-14662555D01*
X8320848Y-14662555D02*
X8301801Y-14681603D01*
X8301801Y-14681603D02*
X8282753Y-14691127D01*
X8482753Y-14814936D02*
X8492277Y-14824460D01*
X8492277Y-14824460D02*
X8482753Y-14833984D01*
X8482753Y-14833984D02*
X8473229Y-14824460D01*
X8473229Y-14824460D02*
X8482753Y-14814936D01*
X8482753Y-14814936D02*
X8482753Y-14833984D01*
X8682753Y-14833984D02*
X8568467Y-14833984D01*
X8625610Y-14833984D02*
X8625610Y-14633984D01*
X8625610Y-14633984D02*
X8606563Y-14662555D01*
X8606563Y-14662555D02*
X8587515Y-14681603D01*
X8587515Y-14681603D02*
X8568467Y-14691127D01*
X8806563Y-14633984D02*
X8825610Y-14633984D01*
X8825610Y-14633984D02*
X8844658Y-14643508D01*
X8844658Y-14643508D02*
X8854182Y-14653031D01*
X8854182Y-14653031D02*
X8863705Y-14672079D01*
X8863705Y-14672079D02*
X8873229Y-14710174D01*
X8873229Y-14710174D02*
X8873229Y-14757793D01*
X8873229Y-14757793D02*
X8863705Y-14795888D01*
X8863705Y-14795888D02*
X8854182Y-14814936D01*
X8854182Y-14814936D02*
X8844658Y-14824460D01*
X8844658Y-14824460D02*
X8825610Y-14833984D01*
X8825610Y-14833984D02*
X8806563Y-14833984D01*
X8806563Y-14833984D02*
X8787515Y-14824460D01*
X8787515Y-14824460D02*
X8777991Y-14814936D01*
X8777991Y-14814936D02*
X8768467Y-14795888D01*
X8768467Y-14795888D02*
X8758944Y-14757793D01*
X8758944Y-14757793D02*
X8758944Y-14710174D01*
X8758944Y-14710174D02*
X8768467Y-14672079D01*
X8768467Y-14672079D02*
X8777991Y-14653031D01*
X8777991Y-14653031D02*
X8787515Y-14643508D01*
X8787515Y-14643508D02*
X8806563Y-14633984D01*
X8997039Y-14633984D02*
X9016086Y-14633984D01*
X9016086Y-14633984D02*
X9035134Y-14643508D01*
X9035134Y-14643508D02*
X9044658Y-14653031D01*
X9044658Y-14653031D02*
X9054182Y-14672079D01*
X9054182Y-14672079D02*
X9063705Y-14710174D01*
X9063705Y-14710174D02*
X9063705Y-14757793D01*
X9063705Y-14757793D02*
X9054182Y-14795888D01*
X9054182Y-14795888D02*
X9044658Y-14814936D01*
X9044658Y-14814936D02*
X9035134Y-14824460D01*
X9035134Y-14824460D02*
X9016086Y-14833984D01*
X9016086Y-14833984D02*
X8997039Y-14833984D01*
X8997039Y-14833984D02*
X8977991Y-14824460D01*
X8977991Y-14824460D02*
X8968467Y-14814936D01*
X8968467Y-14814936D02*
X8958944Y-14795888D01*
X8958944Y-14795888D02*
X8949420Y-14757793D01*
X8949420Y-14757793D02*
X8949420Y-14710174D01*
X8949420Y-14710174D02*
X8958944Y-14672079D01*
X8958944Y-14672079D02*
X8968467Y-14653031D01*
X8968467Y-14653031D02*
X8977991Y-14643508D01*
X8977991Y-14643508D02*
X8997039Y-14633984D01*
X9149420Y-14833984D02*
X9149420Y-14700650D01*
X9149420Y-14719698D02*
X9158944Y-14710174D01*
X9158944Y-14710174D02*
X9177991Y-14700650D01*
X9177991Y-14700650D02*
X9206563Y-14700650D01*
X9206563Y-14700650D02*
X9225610Y-14710174D01*
X9225610Y-14710174D02*
X9235134Y-14729222D01*
X9235134Y-14729222D02*
X9235134Y-14833984D01*
X9235134Y-14729222D02*
X9244658Y-14710174D01*
X9244658Y-14710174D02*
X9263705Y-14700650D01*
X9263705Y-14700650D02*
X9292277Y-14700650D01*
X9292277Y-14700650D02*
X9311325Y-14710174D01*
X9311325Y-14710174D02*
X9320848Y-14729222D01*
X9320848Y-14729222D02*
X9320848Y-14833984D01*
X9416086Y-14833984D02*
X9416086Y-14700650D01*
X9416086Y-14719698D02*
X9425610Y-14710174D01*
X9425610Y-14710174D02*
X9444658Y-14700650D01*
X9444658Y-14700650D02*
X9473229Y-14700650D01*
X9473229Y-14700650D02*
X9492277Y-14710174D01*
X9492277Y-14710174D02*
X9501801Y-14729222D01*
X9501801Y-14729222D02*
X9501801Y-14833984D01*
X9501801Y-14729222D02*
X9511325Y-14710174D01*
X9511325Y-14710174D02*
X9530372Y-14700650D01*
X9530372Y-14700650D02*
X9558944Y-14700650D01*
X9558944Y-14700650D02*
X9577991Y-14710174D01*
X9577991Y-14710174D02*
X9587515Y-14729222D01*
X9587515Y-14729222D02*
X9587515Y-14833984D01*
X9977991Y-14624460D02*
X9806563Y-14881603D01*
X10235134Y-14633984D02*
X10254182Y-14633984D01*
X10254182Y-14633984D02*
X10273229Y-14643508D01*
X10273229Y-14643508D02*
X10282753Y-14653031D01*
X10282753Y-14653031D02*
X10292277Y-14672079D01*
X10292277Y-14672079D02*
X10301801Y-14710174D01*
X10301801Y-14710174D02*
X10301801Y-14757793D01*
X10301801Y-14757793D02*
X10292277Y-14795888D01*
X10292277Y-14795888D02*
X10282753Y-14814936D01*
X10282753Y-14814936D02*
X10273229Y-14824460D01*
X10273229Y-14824460D02*
X10254182Y-14833984D01*
X10254182Y-14833984D02*
X10235134Y-14833984D01*
X10235134Y-14833984D02*
X10216087Y-14824460D01*
X10216087Y-14824460D02*
X10206563Y-14814936D01*
X10206563Y-14814936D02*
X10197039Y-14795888D01*
X10197039Y-14795888D02*
X10187515Y-14757793D01*
X10187515Y-14757793D02*
X10187515Y-14710174D01*
X10187515Y-14710174D02*
X10197039Y-14672079D01*
X10197039Y-14672079D02*
X10206563Y-14653031D01*
X10206563Y-14653031D02*
X10216087Y-14643508D01*
X10216087Y-14643508D02*
X10235134Y-14633984D01*
X10387515Y-14814936D02*
X10397039Y-14824460D01*
X10397039Y-14824460D02*
X10387515Y-14833984D01*
X10387515Y-14833984D02*
X10377991Y-14824460D01*
X10377991Y-14824460D02*
X10387515Y-14814936D01*
X10387515Y-14814936D02*
X10387515Y-14833984D01*
X10520848Y-14633984D02*
X10539896Y-14633984D01*
X10539896Y-14633984D02*
X10558944Y-14643508D01*
X10558944Y-14643508D02*
X10568468Y-14653031D01*
X10568468Y-14653031D02*
X10577991Y-14672079D01*
X10577991Y-14672079D02*
X10587515Y-14710174D01*
X10587515Y-14710174D02*
X10587515Y-14757793D01*
X10587515Y-14757793D02*
X10577991Y-14795888D01*
X10577991Y-14795888D02*
X10568468Y-14814936D01*
X10568468Y-14814936D02*
X10558944Y-14824460D01*
X10558944Y-14824460D02*
X10539896Y-14833984D01*
X10539896Y-14833984D02*
X10520848Y-14833984D01*
X10520848Y-14833984D02*
X10501801Y-14824460D01*
X10501801Y-14824460D02*
X10492277Y-14814936D01*
X10492277Y-14814936D02*
X10482753Y-14795888D01*
X10482753Y-14795888D02*
X10473229Y-14757793D01*
X10473229Y-14757793D02*
X10473229Y-14710174D01*
X10473229Y-14710174D02*
X10482753Y-14672079D01*
X10482753Y-14672079D02*
X10492277Y-14653031D01*
X10492277Y-14653031D02*
X10501801Y-14643508D01*
X10501801Y-14643508D02*
X10520848Y-14633984D01*
X10758944Y-14700650D02*
X10758944Y-14833984D01*
X10711325Y-14624460D02*
X10663706Y-14767317D01*
X10663706Y-14767317D02*
X10787515Y-14767317D01*
X10844658Y-14633984D02*
X10968468Y-14633984D01*
X10968468Y-14633984D02*
X10901801Y-14710174D01*
X10901801Y-14710174D02*
X10930372Y-14710174D01*
X10930372Y-14710174D02*
X10949420Y-14719698D01*
X10949420Y-14719698D02*
X10958944Y-14729222D01*
X10958944Y-14729222D02*
X10968468Y-14748269D01*
X10968468Y-14748269D02*
X10968468Y-14795888D01*
X10968468Y-14795888D02*
X10958944Y-14814936D01*
X10958944Y-14814936D02*
X10949420Y-14824460D01*
X10949420Y-14824460D02*
X10930372Y-14833984D01*
X10930372Y-14833984D02*
X10873229Y-14833984D01*
X10873229Y-14833984D02*
X10854182Y-14824460D01*
X10854182Y-14824460D02*
X10844658Y-14814936D01*
X11035134Y-14633984D02*
X11158944Y-14633984D01*
X11158944Y-14633984D02*
X11092277Y-14710174D01*
X11092277Y-14710174D02*
X11120849Y-14710174D01*
X11120849Y-14710174D02*
X11139896Y-14719698D01*
X11139896Y-14719698D02*
X11149420Y-14729222D01*
X11149420Y-14729222D02*
X11158944Y-14748269D01*
X11158944Y-14748269D02*
X11158944Y-14795888D01*
X11158944Y-14795888D02*
X11149420Y-14814936D01*
X11149420Y-14814936D02*
X11139896Y-14824460D01*
X11139896Y-14824460D02*
X11120849Y-14833984D01*
X11120849Y-14833984D02*
X11063706Y-14833984D01*
X11063706Y-14833984D02*
X11044658Y-14824460D01*
X11044658Y-14824460D02*
X11035134Y-14814936D01*
X11235134Y-14633984D02*
X11235134Y-14672079D01*
X11311325Y-14633984D02*
X11311325Y-14672079D01*
X11606563Y-14910174D02*
X11597039Y-14900650D01*
X11597039Y-14900650D02*
X11577991Y-14872079D01*
X11577991Y-14872079D02*
X11568468Y-14853031D01*
X11568468Y-14853031D02*
X11558944Y-14824460D01*
X11558944Y-14824460D02*
X11549420Y-14776841D01*
X11549420Y-14776841D02*
X11549420Y-14738746D01*
X11549420Y-14738746D02*
X11558944Y-14691127D01*
X11558944Y-14691127D02*
X11568468Y-14662555D01*
X11568468Y-14662555D02*
X11577991Y-14643508D01*
X11577991Y-14643508D02*
X11597039Y-14614936D01*
X11597039Y-14614936D02*
X11606563Y-14605412D01*
X11673229Y-14653031D02*
X11682753Y-14643508D01*
X11682753Y-14643508D02*
X11701801Y-14633984D01*
X11701801Y-14633984D02*
X11749420Y-14633984D01*
X11749420Y-14633984D02*
X11768468Y-14643508D01*
X11768468Y-14643508D02*
X11777991Y-14653031D01*
X11777991Y-14653031D02*
X11787515Y-14672079D01*
X11787515Y-14672079D02*
X11787515Y-14691127D01*
X11787515Y-14691127D02*
X11777991Y-14719698D01*
X11777991Y-14719698D02*
X11663706Y-14833984D01*
X11663706Y-14833984D02*
X11787515Y-14833984D01*
X12025610Y-14833984D02*
X12025610Y-14633984D01*
X12111325Y-14833984D02*
X12111325Y-14729222D01*
X12111325Y-14729222D02*
X12101801Y-14710174D01*
X12101801Y-14710174D02*
X12082753Y-14700650D01*
X12082753Y-14700650D02*
X12054182Y-14700650D01*
X12054182Y-14700650D02*
X12035134Y-14710174D01*
X12035134Y-14710174D02*
X12025610Y-14719698D01*
X12235134Y-14833984D02*
X12216087Y-14824460D01*
X12216087Y-14824460D02*
X12206563Y-14814936D01*
X12206563Y-14814936D02*
X12197039Y-14795888D01*
X12197039Y-14795888D02*
X12197039Y-14738746D01*
X12197039Y-14738746D02*
X12206563Y-14719698D01*
X12206563Y-14719698D02*
X12216087Y-14710174D01*
X12216087Y-14710174D02*
X12235134Y-14700650D01*
X12235134Y-14700650D02*
X12263706Y-14700650D01*
X12263706Y-14700650D02*
X12282753Y-14710174D01*
X12282753Y-14710174D02*
X12292277Y-14719698D01*
X12292277Y-14719698D02*
X12301801Y-14738746D01*
X12301801Y-14738746D02*
X12301801Y-14795888D01*
X12301801Y-14795888D02*
X12292277Y-14814936D01*
X12292277Y-14814936D02*
X12282753Y-14824460D01*
X12282753Y-14824460D02*
X12263706Y-14833984D01*
X12263706Y-14833984D02*
X12235134Y-14833984D01*
X12416087Y-14833984D02*
X12397039Y-14824460D01*
X12397039Y-14824460D02*
X12387515Y-14805412D01*
X12387515Y-14805412D02*
X12387515Y-14633984D01*
X12568468Y-14824460D02*
X12549420Y-14833984D01*
X12549420Y-14833984D02*
X12511325Y-14833984D01*
X12511325Y-14833984D02*
X12492277Y-14824460D01*
X12492277Y-14824460D02*
X12482753Y-14805412D01*
X12482753Y-14805412D02*
X12482753Y-14729222D01*
X12482753Y-14729222D02*
X12492277Y-14710174D01*
X12492277Y-14710174D02*
X12511325Y-14700650D01*
X12511325Y-14700650D02*
X12549420Y-14700650D01*
X12549420Y-14700650D02*
X12568468Y-14710174D01*
X12568468Y-14710174D02*
X12577991Y-14729222D01*
X12577991Y-14729222D02*
X12577991Y-14748269D01*
X12577991Y-14748269D02*
X12482753Y-14767317D01*
X12654182Y-14824460D02*
X12673230Y-14833984D01*
X12673230Y-14833984D02*
X12711325Y-14833984D01*
X12711325Y-14833984D02*
X12730372Y-14824460D01*
X12730372Y-14824460D02*
X12739896Y-14805412D01*
X12739896Y-14805412D02*
X12739896Y-14795888D01*
X12739896Y-14795888D02*
X12730372Y-14776841D01*
X12730372Y-14776841D02*
X12711325Y-14767317D01*
X12711325Y-14767317D02*
X12682753Y-14767317D01*
X12682753Y-14767317D02*
X12663706Y-14757793D01*
X12663706Y-14757793D02*
X12654182Y-14738746D01*
X12654182Y-14738746D02*
X12654182Y-14729222D01*
X12654182Y-14729222D02*
X12663706Y-14710174D01*
X12663706Y-14710174D02*
X12682753Y-14700650D01*
X12682753Y-14700650D02*
X12711325Y-14700650D01*
X12711325Y-14700650D02*
X12730372Y-14710174D01*
X12806563Y-14910174D02*
X12816087Y-14900650D01*
X12816087Y-14900650D02*
X12835134Y-14872079D01*
X12835134Y-14872079D02*
X12844658Y-14853031D01*
X12844658Y-14853031D02*
X12854182Y-14824460D01*
X12854182Y-14824460D02*
X12863706Y-14776841D01*
X12863706Y-14776841D02*
X12863706Y-14738746D01*
X12863706Y-14738746D02*
X12854182Y-14691127D01*
X12854182Y-14691127D02*
X12844658Y-14662555D01*
X12844658Y-14662555D02*
X12835134Y-14643508D01*
X12835134Y-14643508D02*
X12816087Y-14614936D01*
X12816087Y-14614936D02*
X12806563Y-14605412D01*
D14*
X7881500Y-14931500D02*
X8031500Y-15081500D01*
X8031500Y-14931500D02*
X7881500Y-15081500D01*
X8031500Y-15006500D02*
G75*
G02*
X7881500Y-15006500I-75000J0D01*
G01*
X7881500Y-15006500D02*
G75*
G02*
X8031500Y-15006500I75000J0D01*
G01*
D11*
X8397039Y-15097984D02*
X8282753Y-15097984D01*
X8339896Y-15097984D02*
X8339896Y-14897984D01*
X8339896Y-14897984D02*
X8320848Y-14926555D01*
X8320848Y-14926555D02*
X8301801Y-14945603D01*
X8301801Y-14945603D02*
X8282753Y-14955127D01*
X8482753Y-15078936D02*
X8492277Y-15088460D01*
X8492277Y-15088460D02*
X8482753Y-15097984D01*
X8482753Y-15097984D02*
X8473229Y-15088460D01*
X8473229Y-15088460D02*
X8482753Y-15078936D01*
X8482753Y-15078936D02*
X8482753Y-15097984D01*
X8673229Y-14897984D02*
X8577991Y-14897984D01*
X8577991Y-14897984D02*
X8568467Y-14993222D01*
X8568467Y-14993222D02*
X8577991Y-14983698D01*
X8577991Y-14983698D02*
X8597039Y-14974174D01*
X8597039Y-14974174D02*
X8644658Y-14974174D01*
X8644658Y-14974174D02*
X8663705Y-14983698D01*
X8663705Y-14983698D02*
X8673229Y-14993222D01*
X8673229Y-14993222D02*
X8682753Y-15012269D01*
X8682753Y-15012269D02*
X8682753Y-15059888D01*
X8682753Y-15059888D02*
X8673229Y-15078936D01*
X8673229Y-15078936D02*
X8663705Y-15088460D01*
X8663705Y-15088460D02*
X8644658Y-15097984D01*
X8644658Y-15097984D02*
X8597039Y-15097984D01*
X8597039Y-15097984D02*
X8577991Y-15088460D01*
X8577991Y-15088460D02*
X8568467Y-15078936D01*
X8806563Y-14897984D02*
X8825610Y-14897984D01*
X8825610Y-14897984D02*
X8844658Y-14907508D01*
X8844658Y-14907508D02*
X8854182Y-14917031D01*
X8854182Y-14917031D02*
X8863705Y-14936079D01*
X8863705Y-14936079D02*
X8873229Y-14974174D01*
X8873229Y-14974174D02*
X8873229Y-15021793D01*
X8873229Y-15021793D02*
X8863705Y-15059888D01*
X8863705Y-15059888D02*
X8854182Y-15078936D01*
X8854182Y-15078936D02*
X8844658Y-15088460D01*
X8844658Y-15088460D02*
X8825610Y-15097984D01*
X8825610Y-15097984D02*
X8806563Y-15097984D01*
X8806563Y-15097984D02*
X8787515Y-15088460D01*
X8787515Y-15088460D02*
X8777991Y-15078936D01*
X8777991Y-15078936D02*
X8768467Y-15059888D01*
X8768467Y-15059888D02*
X8758944Y-15021793D01*
X8758944Y-15021793D02*
X8758944Y-14974174D01*
X8758944Y-14974174D02*
X8768467Y-14936079D01*
X8768467Y-14936079D02*
X8777991Y-14917031D01*
X8777991Y-14917031D02*
X8787515Y-14907508D01*
X8787515Y-14907508D02*
X8806563Y-14897984D01*
X8997039Y-14897984D02*
X9016086Y-14897984D01*
X9016086Y-14897984D02*
X9035134Y-14907508D01*
X9035134Y-14907508D02*
X9044658Y-14917031D01*
X9044658Y-14917031D02*
X9054182Y-14936079D01*
X9054182Y-14936079D02*
X9063705Y-14974174D01*
X9063705Y-14974174D02*
X9063705Y-15021793D01*
X9063705Y-15021793D02*
X9054182Y-15059888D01*
X9054182Y-15059888D02*
X9044658Y-15078936D01*
X9044658Y-15078936D02*
X9035134Y-15088460D01*
X9035134Y-15088460D02*
X9016086Y-15097984D01*
X9016086Y-15097984D02*
X8997039Y-15097984D01*
X8997039Y-15097984D02*
X8977991Y-15088460D01*
X8977991Y-15088460D02*
X8968467Y-15078936D01*
X8968467Y-15078936D02*
X8958944Y-15059888D01*
X8958944Y-15059888D02*
X8949420Y-15021793D01*
X8949420Y-15021793D02*
X8949420Y-14974174D01*
X8949420Y-14974174D02*
X8958944Y-14936079D01*
X8958944Y-14936079D02*
X8968467Y-14917031D01*
X8968467Y-14917031D02*
X8977991Y-14907508D01*
X8977991Y-14907508D02*
X8997039Y-14897984D01*
X9149420Y-15097984D02*
X9149420Y-14964650D01*
X9149420Y-14983698D02*
X9158944Y-14974174D01*
X9158944Y-14974174D02*
X9177991Y-14964650D01*
X9177991Y-14964650D02*
X9206563Y-14964650D01*
X9206563Y-14964650D02*
X9225610Y-14974174D01*
X9225610Y-14974174D02*
X9235134Y-14993222D01*
X9235134Y-14993222D02*
X9235134Y-15097984D01*
X9235134Y-14993222D02*
X9244658Y-14974174D01*
X9244658Y-14974174D02*
X9263705Y-14964650D01*
X9263705Y-14964650D02*
X9292277Y-14964650D01*
X9292277Y-14964650D02*
X9311325Y-14974174D01*
X9311325Y-14974174D02*
X9320848Y-14993222D01*
X9320848Y-14993222D02*
X9320848Y-15097984D01*
X9416086Y-15097984D02*
X9416086Y-14964650D01*
X9416086Y-14983698D02*
X9425610Y-14974174D01*
X9425610Y-14974174D02*
X9444658Y-14964650D01*
X9444658Y-14964650D02*
X9473229Y-14964650D01*
X9473229Y-14964650D02*
X9492277Y-14974174D01*
X9492277Y-14974174D02*
X9501801Y-14993222D01*
X9501801Y-14993222D02*
X9501801Y-15097984D01*
X9501801Y-14993222D02*
X9511325Y-14974174D01*
X9511325Y-14974174D02*
X9530372Y-14964650D01*
X9530372Y-14964650D02*
X9558944Y-14964650D01*
X9558944Y-14964650D02*
X9577991Y-14974174D01*
X9577991Y-14974174D02*
X9587515Y-14993222D01*
X9587515Y-14993222D02*
X9587515Y-15097984D01*
X9977991Y-14888460D02*
X9806563Y-15145603D01*
X10235134Y-14897984D02*
X10254182Y-14897984D01*
X10254182Y-14897984D02*
X10273229Y-14907508D01*
X10273229Y-14907508D02*
X10282753Y-14917031D01*
X10282753Y-14917031D02*
X10292277Y-14936079D01*
X10292277Y-14936079D02*
X10301801Y-14974174D01*
X10301801Y-14974174D02*
X10301801Y-15021793D01*
X10301801Y-15021793D02*
X10292277Y-15059888D01*
X10292277Y-15059888D02*
X10282753Y-15078936D01*
X10282753Y-15078936D02*
X10273229Y-15088460D01*
X10273229Y-15088460D02*
X10254182Y-15097984D01*
X10254182Y-15097984D02*
X10235134Y-15097984D01*
X10235134Y-15097984D02*
X10216087Y-15088460D01*
X10216087Y-15088460D02*
X10206563Y-15078936D01*
X10206563Y-15078936D02*
X10197039Y-15059888D01*
X10197039Y-15059888D02*
X10187515Y-15021793D01*
X10187515Y-15021793D02*
X10187515Y-14974174D01*
X10187515Y-14974174D02*
X10197039Y-14936079D01*
X10197039Y-14936079D02*
X10206563Y-14917031D01*
X10206563Y-14917031D02*
X10216087Y-14907508D01*
X10216087Y-14907508D02*
X10235134Y-14897984D01*
X10387515Y-15078936D02*
X10397039Y-15088460D01*
X10397039Y-15088460D02*
X10387515Y-15097984D01*
X10387515Y-15097984D02*
X10377991Y-15088460D01*
X10377991Y-15088460D02*
X10387515Y-15078936D01*
X10387515Y-15078936D02*
X10387515Y-15097984D01*
X10520848Y-14897984D02*
X10539896Y-14897984D01*
X10539896Y-14897984D02*
X10558944Y-14907508D01*
X10558944Y-14907508D02*
X10568468Y-14917031D01*
X10568468Y-14917031D02*
X10577991Y-14936079D01*
X10577991Y-14936079D02*
X10587515Y-14974174D01*
X10587515Y-14974174D02*
X10587515Y-15021793D01*
X10587515Y-15021793D02*
X10577991Y-15059888D01*
X10577991Y-15059888D02*
X10568468Y-15078936D01*
X10568468Y-15078936D02*
X10558944Y-15088460D01*
X10558944Y-15088460D02*
X10539896Y-15097984D01*
X10539896Y-15097984D02*
X10520848Y-15097984D01*
X10520848Y-15097984D02*
X10501801Y-15088460D01*
X10501801Y-15088460D02*
X10492277Y-15078936D01*
X10492277Y-15078936D02*
X10482753Y-15059888D01*
X10482753Y-15059888D02*
X10473229Y-15021793D01*
X10473229Y-15021793D02*
X10473229Y-14974174D01*
X10473229Y-14974174D02*
X10482753Y-14936079D01*
X10482753Y-14936079D02*
X10492277Y-14917031D01*
X10492277Y-14917031D02*
X10501801Y-14907508D01*
X10501801Y-14907508D02*
X10520848Y-14897984D01*
X10768468Y-14897984D02*
X10673229Y-14897984D01*
X10673229Y-14897984D02*
X10663706Y-14993222D01*
X10663706Y-14993222D02*
X10673229Y-14983698D01*
X10673229Y-14983698D02*
X10692277Y-14974174D01*
X10692277Y-14974174D02*
X10739896Y-14974174D01*
X10739896Y-14974174D02*
X10758944Y-14983698D01*
X10758944Y-14983698D02*
X10768468Y-14993222D01*
X10768468Y-14993222D02*
X10777991Y-15012269D01*
X10777991Y-15012269D02*
X10777991Y-15059888D01*
X10777991Y-15059888D02*
X10768468Y-15078936D01*
X10768468Y-15078936D02*
X10758944Y-15088460D01*
X10758944Y-15088460D02*
X10739896Y-15097984D01*
X10739896Y-15097984D02*
X10692277Y-15097984D01*
X10692277Y-15097984D02*
X10673229Y-15088460D01*
X10673229Y-15088460D02*
X10663706Y-15078936D01*
X10873229Y-15097984D02*
X10911325Y-15097984D01*
X10911325Y-15097984D02*
X10930372Y-15088460D01*
X10930372Y-15088460D02*
X10939896Y-15078936D01*
X10939896Y-15078936D02*
X10958944Y-15050365D01*
X10958944Y-15050365D02*
X10968468Y-15012269D01*
X10968468Y-15012269D02*
X10968468Y-14936079D01*
X10968468Y-14936079D02*
X10958944Y-14917031D01*
X10958944Y-14917031D02*
X10949420Y-14907508D01*
X10949420Y-14907508D02*
X10930372Y-14897984D01*
X10930372Y-14897984D02*
X10892277Y-14897984D01*
X10892277Y-14897984D02*
X10873229Y-14907508D01*
X10873229Y-14907508D02*
X10863706Y-14917031D01*
X10863706Y-14917031D02*
X10854182Y-14936079D01*
X10854182Y-14936079D02*
X10854182Y-14983698D01*
X10854182Y-14983698D02*
X10863706Y-15002746D01*
X10863706Y-15002746D02*
X10873229Y-15012269D01*
X10873229Y-15012269D02*
X10892277Y-15021793D01*
X10892277Y-15021793D02*
X10930372Y-15021793D01*
X10930372Y-15021793D02*
X10949420Y-15012269D01*
X10949420Y-15012269D02*
X10958944Y-15002746D01*
X10958944Y-15002746D02*
X10968468Y-14983698D01*
X11158944Y-15097984D02*
X11044658Y-15097984D01*
X11101801Y-15097984D02*
X11101801Y-14897984D01*
X11101801Y-14897984D02*
X11082753Y-14926555D01*
X11082753Y-14926555D02*
X11063706Y-14945603D01*
X11063706Y-14945603D02*
X11044658Y-14955127D01*
X11235134Y-14897984D02*
X11235134Y-14936079D01*
X11311325Y-14897984D02*
X11311325Y-14936079D01*
X11606563Y-15174174D02*
X11597039Y-15164650D01*
X11597039Y-15164650D02*
X11577991Y-15136079D01*
X11577991Y-15136079D02*
X11568468Y-15117031D01*
X11568468Y-15117031D02*
X11558944Y-15088460D01*
X11558944Y-15088460D02*
X11549420Y-15040841D01*
X11549420Y-15040841D02*
X11549420Y-15002746D01*
X11549420Y-15002746D02*
X11558944Y-14955127D01*
X11558944Y-14955127D02*
X11568468Y-14926555D01*
X11568468Y-14926555D02*
X11577991Y-14907508D01*
X11577991Y-14907508D02*
X11597039Y-14878936D01*
X11597039Y-14878936D02*
X11606563Y-14869412D01*
X11673229Y-14917031D02*
X11682753Y-14907508D01*
X11682753Y-14907508D02*
X11701801Y-14897984D01*
X11701801Y-14897984D02*
X11749420Y-14897984D01*
X11749420Y-14897984D02*
X11768468Y-14907508D01*
X11768468Y-14907508D02*
X11777991Y-14917031D01*
X11777991Y-14917031D02*
X11787515Y-14936079D01*
X11787515Y-14936079D02*
X11787515Y-14955127D01*
X11787515Y-14955127D02*
X11777991Y-14983698D01*
X11777991Y-14983698D02*
X11663706Y-15097984D01*
X11663706Y-15097984D02*
X11787515Y-15097984D01*
X12025610Y-15097984D02*
X12025610Y-14897984D01*
X12111325Y-15097984D02*
X12111325Y-14993222D01*
X12111325Y-14993222D02*
X12101801Y-14974174D01*
X12101801Y-14974174D02*
X12082753Y-14964650D01*
X12082753Y-14964650D02*
X12054182Y-14964650D01*
X12054182Y-14964650D02*
X12035134Y-14974174D01*
X12035134Y-14974174D02*
X12025610Y-14983698D01*
X12235134Y-15097984D02*
X12216087Y-15088460D01*
X12216087Y-15088460D02*
X12206563Y-15078936D01*
X12206563Y-15078936D02*
X12197039Y-15059888D01*
X12197039Y-15059888D02*
X12197039Y-15002746D01*
X12197039Y-15002746D02*
X12206563Y-14983698D01*
X12206563Y-14983698D02*
X12216087Y-14974174D01*
X12216087Y-14974174D02*
X12235134Y-14964650D01*
X12235134Y-14964650D02*
X12263706Y-14964650D01*
X12263706Y-14964650D02*
X12282753Y-14974174D01*
X12282753Y-14974174D02*
X12292277Y-14983698D01*
X12292277Y-14983698D02*
X12301801Y-15002746D01*
X12301801Y-15002746D02*
X12301801Y-15059888D01*
X12301801Y-15059888D02*
X12292277Y-15078936D01*
X12292277Y-15078936D02*
X12282753Y-15088460D01*
X12282753Y-15088460D02*
X12263706Y-15097984D01*
X12263706Y-15097984D02*
X12235134Y-15097984D01*
X12416087Y-15097984D02*
X12397039Y-15088460D01*
X12397039Y-15088460D02*
X12387515Y-15069412D01*
X12387515Y-15069412D02*
X12387515Y-14897984D01*
X12568468Y-15088460D02*
X12549420Y-15097984D01*
X12549420Y-15097984D02*
X12511325Y-15097984D01*
X12511325Y-15097984D02*
X12492277Y-15088460D01*
X12492277Y-15088460D02*
X12482753Y-15069412D01*
X12482753Y-15069412D02*
X12482753Y-14993222D01*
X12482753Y-14993222D02*
X12492277Y-14974174D01*
X12492277Y-14974174D02*
X12511325Y-14964650D01*
X12511325Y-14964650D02*
X12549420Y-14964650D01*
X12549420Y-14964650D02*
X12568468Y-14974174D01*
X12568468Y-14974174D02*
X12577991Y-14993222D01*
X12577991Y-14993222D02*
X12577991Y-15012269D01*
X12577991Y-15012269D02*
X12482753Y-15031317D01*
X12654182Y-15088460D02*
X12673230Y-15097984D01*
X12673230Y-15097984D02*
X12711325Y-15097984D01*
X12711325Y-15097984D02*
X12730372Y-15088460D01*
X12730372Y-15088460D02*
X12739896Y-15069412D01*
X12739896Y-15069412D02*
X12739896Y-15059888D01*
X12739896Y-15059888D02*
X12730372Y-15040841D01*
X12730372Y-15040841D02*
X12711325Y-15031317D01*
X12711325Y-15031317D02*
X12682753Y-15031317D01*
X12682753Y-15031317D02*
X12663706Y-15021793D01*
X12663706Y-15021793D02*
X12654182Y-15002746D01*
X12654182Y-15002746D02*
X12654182Y-14993222D01*
X12654182Y-14993222D02*
X12663706Y-14974174D01*
X12663706Y-14974174D02*
X12682753Y-14964650D01*
X12682753Y-14964650D02*
X12711325Y-14964650D01*
X12711325Y-14964650D02*
X12730372Y-14974174D01*
X12806563Y-15174174D02*
X12816087Y-15164650D01*
X12816087Y-15164650D02*
X12835134Y-15136079D01*
X12835134Y-15136079D02*
X12844658Y-15117031D01*
X12844658Y-15117031D02*
X12854182Y-15088460D01*
X12854182Y-15088460D02*
X12863706Y-15040841D01*
X12863706Y-15040841D02*
X12863706Y-15002746D01*
X12863706Y-15002746D02*
X12854182Y-14955127D01*
X12854182Y-14955127D02*
X12844658Y-14926555D01*
X12844658Y-14926555D02*
X12835134Y-14907508D01*
X12835134Y-14907508D02*
X12816087Y-14878936D01*
X12816087Y-14878936D02*
X12806563Y-14869412D01*
M02*
